<?xml version="1.0" encoding="utf-8"?>
<!-- Generator: Adobe Illustrator 17.0.0, SVG Export Plug-In . SVG Version: 6.00 Build 0)  -->
<!DOCTYPE svg PUBLIC "-//W3C//DTD SVG 1.1//EN" "http://www.w3.org/Graphics/SVG/1.1/DTD/svg11.dtd">
<svg version="1.1" xmlns="http://www.w3.org/2000/svg" xmlns:xlink="http://www.w3.org/1999/xlink" x="0px" y="0px"
	 width="283.141px" height="282.438px" viewBox="0 0 283.141 282.438" enable-background="new 0 0 283.141 282.438"
	 xml:space="preserve">
<g id="Background_1_">
	<path display="none" fill="#FFFFFF" d="M289.25,263.898c0,13.602-11.039,24.648-24.641,24.648H18.539
		c-13.602,0-24.633-11.047-24.633-24.648V18.516c0-13.602,11.031-24.625,24.633-24.625H264.61c13.602,0,24.641,11.023,24.641,24.625
		V263.898z M283.141,18.453C283.141,8.266,274.868,0,264.657,0H18.492C8.281,0,0,8.266,0,18.453v245.508
		c0,10.195,8.281,18.477,18.492,18.477h246.165c10.211,0,18.484-8.281,18.484-18.477V18.453z"/>
	<path fill="#4D5F85" d="M283.141,18.453C283.141,8.266,274.868,0,264.657,0H18.492C8.281,0,0,8.266,0,18.453v245.508
		c0,10.195,8.281,18.477,18.492,18.477h246.165c10.211,0,18.484-8.281,18.484-18.477V18.453z"/>
	<path display="none" fill="none" stroke="#231F20" stroke-width="0.9992" d="M289.25,263.898c0,13.602-11.039,24.648-24.641,24.648
		H18.539c-13.602,0-24.633-11.047-24.633-24.648V18.516c0-13.602,11.031-24.625,24.633-24.625H264.61
		c13.602,0,24.641,11.023,24.641,24.625V263.898z"/>
</g>
<g id="Bike_Park">
	<path fill="#FFFFFF" d="M99.017,159.187c1.477-1.944,2.966-3.905,4.521-5.952c2.332,2.872,4.141,5.904,5.235,9.269
		c4.99,15.341,1.927,28.907-9.562,40.263c-5.901,5.833-13.265,8.782-21.64,8.359c-10.164-0.513-17.907-5.438-23.149-14.052
		c-8.199-13.476-6.472-31.537,3.896-43.378c5.099-5.824,11.334-9.656,19.031-10.87c7.063-1.114,13.564,0.459,19.666,4.385
		c-1.542,2.048-3.019,4.009-4.522,6.006c-3.255-1.899-6.684-3.02-10.369-3.12c-7.354-0.2-13.335,2.788-18.342,8.032
		c-9.029,9.455-10.251,25.156-2.748,35.862c7.542,10.761,22.084,12.773,32.316,4.472c10.843-8.798,13.995-23.85,7.552-36.156
		C100.35,161.255,99.674,160.269,99.017,159.187z"/>
	<path fill="#FFFFFF" d="M139.52,72.18c1.174-8.246,7.003-12.984,15.185-12.463c9.97,0.635,17.125,5.721,22.119,14.143
		c0.712,1.202,1.268,2.496,2.036,4.027c-3.381-0.468-6.464-0.895-9.698-1.342c-0.383,4.644-2.283,8.377-6.363,10.715
		c-2.655,1.522-5.525,2.032-8.57,1.417c-7.019-1.418-10.403-6.801-9.743-15.7C142.867,72.717,141.231,72.455,139.52,72.18z"/>
	<path fill="#FFFFFF" d="M149.85,153.962c-0.662,1.333-1.25,2.615-1.938,3.841c-0.183,0.326-0.639,0.579-1.022,0.698
		c-1.937,0.604-3.885,1.175-5.842,1.712c-0.828,0.227-1.221,0.561-1.159,1.547c0.312,4.987,0.536,9.979,0.787,14.969
		c0.131,2.602-0.575,4.922-2.527,6.706c-0.44,0.402-1.263,0.654-1.853,0.571c-1.789-0.25-3.563-0.648-5.314-1.101
		c-0.466-0.121-1.019-0.565-1.206-1.001c-2.09-4.86-4.12-9.746-6.148-14.632c-0.166-0.399-0.255-0.852-0.278-1.285
		c-0.194-3.709-0.378-7.42-0.537-11.131c-0.086-2.014,0.452-3.866,1.737-5.431c0.271-0.33,0.902-0.639,1.287-0.56
		c7.784,1.588,15.557,3.233,23.33,4.871C149.366,153.78,149.557,153.865,149.85,153.962z"/>
	<path fill="#FFFFFF" d="M150.574,239.817c-1.565,2.226-2.978,4.235-4.404,6.264c5.214,3.236,10.83,4.692,16.94,4.854
		c-0.146,1.779-0.278,3.392-0.421,5.134c-7.117,0-13.564-2.074-19.611-5.657c-1.895,2.65-3.712,5.19-5.667,7.923
		c-3.165-6.922-6.243-13.655-9.443-20.655C135.57,238.399,142.925,239.094,150.574,239.817z"/>
	<path fill="#FFFFFF" d="M252.813,99.286c2.774,0.913,5.527,1.82,8.559,2.818c-5.686,5.09-11.222,10.046-16.943,15.167
		c-1.569-7.498-3.09-14.767-4.657-22.259c2.762,0.9,5.3,1.727,8.048,2.622c1.922-5.488,3.823-10.916,5.767-16.467
		c1.588,0.47,3.175,0.939,4.979,1.473C256.643,88.203,254.752,93.674,252.813,99.286z"/>
	<path fill="#FFFFFF" d="M134.073,27.555c6.695,3.824,13.152,7.512,19.767,11.29c-6.574,3.838-12.996,7.586-19.649,11.47
		c0-3.109,0-5.956,0-8.906c-5.955-0.375-11.722-1.057-17.471-2.678c0.417-1.669,0.819-3.275,1.187-4.748
		c5.375,0.806,10.671,1.6,16.166,2.423C134.073,33.288,134.073,30.571,134.073,27.555z"/>
	<path fill="#FFFFFF" d="M30.434,123.391c-2.541,0.692-4.91,1.337-7.54,2.053c1.929-7.401,3.803-14.588,5.727-21.969
		c5.266,5.464,10.413,10.803,15.525,16.106c-2.488,0.7-5.419,1.523-8.471,2.381c0.403,6.049-0.104,12.001-1.7,17.983
		c-1.666-0.395-3.275-0.777-5.013-1.189C30.076,133.709,30.903,128.713,30.434,123.391z"/>
	<path fill="#FFFFFF" d="M34.319,49.663c-1.248-1.012-2.54-2.059-4.105-3.328c5.846-5.546,11.6-11.005,17.464-16.568
		c1.191,1.431,2.255,2.709,3.364,4.04C45.494,39.067,39.985,44.291,34.319,49.663z"/>
	<path fill="#FFFFFF" d="M240.755,218.564c1.655,0.777,3.124,1.467,4.709,2.211c-3.288,7.741-9.461,13.09-15.073,18.896
		c-1.269-1.24-2.46-2.403-3.69-3.604C231.78,230.557,237.623,225.74,240.755,218.564z"/>
	<path fill="#FFFFFF" d="M233.448,25.043c-0.243,1.761-0.47,3.407-0.712,5.164c-7.599-0.952-15.126-1.193-22.807-0.352
		c-0.209-1.7-0.41-3.343-0.632-5.152C217.386,23.734,225.367,23.999,233.448,25.043z"/>
	<path fill="#FFFFFF" d="M262.045,58.889c-1.698,0-3.32,0-5.061,0c-0.496-7.153-0.488-14.484-4.929-20.881
		c1.31-1.021,2.616-2.038,3.91-3.046C259.599,37.997,262.807,50.573,262.045,58.889z"/>
	<path fill="#FFFFFF" d="M241.004,126.642c1.79,0.157,3.405,0.299,4.88,0.429c0.434,7.655,0.863,15.213,1.304,22.982
		c-1.447,0.179-3.084,0.381-4.91,0.607C241.334,142.706,240.662,134.826,241.004,126.642z"/>
	<path fill="#FFFFFF" d="M122.768,230.98c-0.852,1.513-1.65,2.929-2.545,4.517c-6.44-3.881-13.322-5.588-20.978-4.097
		c-0.201-1.807-0.384-3.446-0.576-5.168C107.366,224.566,115.254,226.46,122.768,230.98z"/>
	<path fill="#FFFFFF" d="M75.504,230.036c0.268,1.536,0.553,3.17,0.861,4.936c-7.85,1.366-15.636,2.541-23.704,2.864
		c0-1.775,0-3.429,0-4.955C60.184,231.944,67.787,230.997,75.504,230.036z"/>
	<path fill="#FFFFFF" d="M186.168,29.498c0.411,1.599,0.814,3.169,1.301,5.063c-7.667,1.803-15.306,3.599-23.149,5.444
		c-0.311-1.962-0.575-3.625-0.822-5.176C171.097,33.042,178.547,31.29,186.168,29.498z"/>
	<path fill="#FFFFFF" d="M71.09,29.993c0.2-1.661,0.397-3.305,0.624-5.193c7.861,1.053,15.614,2.092,23.464,3.143
		c-0.328,1.886-0.606,3.479-0.895,5.138C86.557,32.053,78.892,31.032,71.09,29.993z"/>
	<path fill="#FFFFFF" d="M186.198,251.845c7.529-0.404,14.99-0.689,22.227-3.266c0.628,1.622,1.227,3.167,1.972,5.091
		c-3.173,0.729-6.175,1.655-9.245,2.069c-4.59,0.618-9.228,0.873-13.845,1.289c-0.767,0.069-1.15-0.182-1.122-1.029
		C186.232,254.638,186.198,253.274,186.198,251.845z"/>
	<path fill="#FFFFFF" d="M23.378,161.628c1.988,0.289,3.628,0.528,5.179,0.754c-0.742,7.77-1.471,15.403-2.212,23.17
		c-1.593-0.075-3.238-0.152-5.218-0.245C21.879,177.395,22.617,169.633,23.378,161.628z"/>
	<path fill="#FFFFFF" d="M31.054,92.475c-1.749,0.395-3.362,0.759-5.063,1.144c-1.847-7.849-3.467-15.607-3.364-23.712
		c1.714,0,3.371,0,5.215,0C27.762,77.575,29.353,84.979,31.054,92.475z"/>
	<path fill="#FFFFFF" d="M250.534,196.967c-1.847,0-3.466,0-5.005,0c-0.17-7.767-0.336-15.391-0.508-23.239
		c1.473-0.132,3.115-0.28,4.991-0.448C250.552,181.208,250.845,189.071,250.534,196.967z"/>
	<path fill="#FFFFFF" d="M28.643,232.384c-3.285-2.532-5.24-5.75-6.43-9.501c-1.226-3.864-1.017-7.867-1.198-11.833
		c-0.032-0.697-0.005-1.396-0.005-2.214c1.698,0,3.354,0,5.385,0c0,2.169-0.011,4.323,0.002,6.477
		c0.031,5.012,1.267,9.535,5.445,12.95C30.78,229.631,29.764,230.939,28.643,232.384z"/>
	<path fill="#FFFFFF" d="M157.778,142.088c-0.877,1.129-1.794,2.23-2.616,3.397c-0.439,0.623-0.833,0.809-1.626,0.634
		c-4.43-0.978-8.879-1.874-13.359-3.077c2.153-0.654,4.305-1.311,6.459-1.96c2.366-0.713,4.742-1.393,7.098-2.136
		c1.248-0.394,2.228-1.079,2.123-2.611c-0.29-4.26-0.577-8.52-0.887-13.102c-6.268,4.272-12.662,7.259-19.675,8.789
		c-0.34,3.068-2.875,3.906-5.386,2.146c-4.767-3.34-9.717-6.417-14.751-9.707c-1.444,4.637-2.853,9.165-4.332,13.917
		c7.088,1.5,14.097,2.996,21.111,4.463c7.044,1.474,14.094,2.918,21.29,4.407c-0.928,1.549-1.772,3.034-2.713,4.456
		c-0.165,0.249-0.765,0.384-1.11,0.313c-10.984-2.269-21.961-4.571-32.94-6.864c-1.333-0.278-2.669-0.538-4.279-0.862
		c1.022,2.463,1.948,4.713,2.886,6.957c4.457,10.66,8.906,21.323,13.406,31.965c0.211,0.5,0.824,1.041,1.345,1.165
		c2.921,0.696,5.865,1.297,8.813,1.867c0.778,0.15,1.032,0.447,0.936,1.233c-0.171,1.4-0.25,2.81-0.385,4.428
		c-1.696-0.332-3.321-0.638-4.942-0.97c-2.509-0.514-5.012-1.05-7.52-1.567c-1.159-0.239-1.983-0.811-2.462-1.964
		c-5.671-13.642-11.368-27.274-17.062-40.907c-0.048-0.115-0.152-0.208-0.33-0.444c-2.079,2.734-4.117,5.418-6.158,8.099
		c-6.133,8.052-12.27,16.1-18.396,24.157c-0.709,0.933-1.617,1.387-2.761,1.186c-1.158-0.203-2.017-0.973-2.096-2.099
		c-0.058-0.834,0.213-1.869,0.711-2.536c4.648-6.236,9.375-12.413,14.082-18.605c3.478-4.574,7.065-9.07,10.386-13.756
		c1.194-1.685,1.909-3.768,2.571-5.76c1.599-4.815,3.013-9.692,4.563-14.523c0.273-0.851,0.071-1.249-0.637-1.706
		c-5.195-3.351-10.385-6.712-15.52-10.153c-0.744-0.498-1.406-1.356-1.721-2.192c-0.374-0.99,0.031-2.026,0.927-2.714
		c0.91-0.699,1.929-0.857,2.986-0.35c0.551,0.264,1.068,0.598,1.682,0.947c0.159-0.277,0.304-0.53,0.45-0.783
		c1.336-2.317,3.771-3.314,6.357-2.536c15.432,4.643,29.376,1.174,42.332-7.731c4.114-2.828,8.625-3.617,13.52-2.756
		c2.652,0.466,5.345,0.672,7.754,2.05c3.965,2.268,6.416,5.735,7.863,9.964c2.676,7.819,4.414,15.821,4.456,24.128
		c0.017,3.307,0.289,6.655-0.124,9.912c-0.622,4.901-3.017,9.148-6.377,12.712c-5.216,5.532-8.846,11.971-11.497,19.019
		c-3.389,9.009-4.757,18.363-4.656,27.957c0.029,2.775-0.931,5.107-3.145,6.836c-2.731,2.132-5.742,2.458-8.841,1.009
		c-3.087-1.443-4.713-4.081-4.748-7.408c-0.211-20.167,4.8-38.719,17.268-54.916c0.219-0.284,0.246-0.716,0.362-1.078
		C158.234,142.312,158.006,142.2,157.778,142.088z M151.881,104.578c-5.926,3.965-12.218,6.879-18.962,8.812
		c-6.832,1.958-13.794,2.537-20.977,2.179c4.657,3.045,9.314,6.089,13.948,9.12c1.81-1.951,2.569-2.435,4.407-2.706
		c8.181-1.205,15.269-4.76,21.556-10.025c0.327-0.274,0.673-0.796,0.647-1.177C152.362,108.758,152.109,106.743,151.881,104.578z"/>
	<path fill="#FFFFFF" d="M179.24,168.578c-1.344-3.516-2.692-7.091-4.099-10.643c-0.126-0.317-0.601-0.588-0.969-0.697
		c-0.88-0.261-1.793-0.412-2.827-0.637c2.861-3.648,5.644-7.197,8.582-10.942c2.272,0.797,4.847,1.801,6.701,4.029
		c1.109,1.332,0.846,2.991-0.78,3.601c-1.869,0.702-3.887,1.007-6.009,1.525c1.45,3.826,2.985,7.879,4.569,12.058
		c1.202-0.205,2.401-0.428,3.606-0.613c13.299-2.045,27.202,4.342,34.159,15.924c6.546,10.898,7.252,22.349,1.484,33.647
		c-6.483,12.697-17.311,19.12-31.586,18.973c-16.522-0.171-30.432-12.39-33.173-28.677c-0.313-1.86-0.489-3.682,0.086-5.62
		c0.474-1.595,0.413-3.406,0.309-5.104c-0.252-4.096,1.327-7.671,3.136-11.117c3.697-7.044,9.255-12.19,16.55-15.425
		C179.05,168.829,179.096,168.736,179.24,168.578z M166.614,197.679c-1.452,9.864,4.117,21.844,15.385,26.904
		c11.251,5.053,24.612,1.689,32.02-8.096c7.462-9.855,7.163-23.6-0.657-33.025c-7.754-9.346-19.568-10.839-25.978-8.823
		c0.985,2.591,1.966,5.176,2.95,7.761c2.165,5.688,4.356,11.367,6.484,17.069c0.915,2.452-0.701,4.306-3.234,3.817
		c-0.824-0.159-1.649-0.312-2.47-0.483C182.949,201.098,174.783,199.388,166.614,197.679z M182.103,176.105
		c-7.084,3.401-11.937,8.658-14.486,16.215c7.513,1.567,14.854,3.097,22.45,4.681C187.336,189.838,184.734,183.008,182.103,176.105z
		"/>
</g>
</svg>
