<?xml version="1.0" encoding="utf-8"?>
<!-- Generator: Adobe Illustrator 17.0.0, SVG Export Plug-In . SVG Version: 6.00 Build 0)  -->
<!DOCTYPE svg PUBLIC "-//W3C//DTD SVG 1.1//EN" "http://www.w3.org/Graphics/SVG/1.1/DTD/svg11.dtd">
<svg version="1.1" xmlns="http://www.w3.org/2000/svg" xmlns:xlink="http://www.w3.org/1999/xlink" x="0px" y="0px"
	 width="283.14px" height="282.438px" viewBox="0 0 283.14 282.438" enable-background="new 0 0 283.14 282.438"
	 xml:space="preserve">
<g id="Background">
	<path display="none" fill="#FFFFFF" d="M289.25,263.898c0,13.602-11.031,24.648-24.641,24.648H18.547
		c-13.609,0-24.641-11.047-24.641-24.648V18.516c0-13.602,11.031-24.625,24.641-24.625h246.062
		c13.609,0,24.641,11.023,24.641,24.625V263.898z M283.14,18.453C283.14,8.266,274.875,0,264.656,0H18.5C8.281,0,0,8.266,0,18.453
		v245.508c0,10.195,8.281,18.477,18.5,18.477h246.156c10.219,0,18.484-8.281,18.484-18.477V18.453z"/>
	<path fill="#4D5F85" d="M283.14,18.453C283.14,8.266,274.875,0,264.656,0H18.5C8.281,0,0,8.266,0,18.453v245.508
		c0,10.195,8.281,18.477,18.5,18.477h246.156c10.219,0,18.484-8.281,18.484-18.477V18.453z"/>
	<path display="none" fill="none" stroke="#231F20" stroke-width="0.9992" d="M289.25,263.898c0,13.602-11.031,24.648-24.641,24.648
		H18.547c-13.609,0-24.641-11.047-24.641-24.648V18.516c0-13.602,11.031-24.625,24.641-24.625h246.062
		c13.609,0,24.641,11.023,24.641,24.625V263.898z"/>
</g>
<g id="Campfires">
	<path fill="#FFFFFF" d="M142.806,17.75c0,0,3.406,13.953-17.32,52.484c-20.727,38.516-31.898,50.219-28.836,69.953
		s10.203,41.906,31.961,57.734c21.758,15.828,10.156-1.641,10.156-1.641s-4.641-9.562,9.148-23.344
		c12.906-12.906,28.586-36.5,29.203-57.578C177.735,94.266,174.439,54.5,142.806,17.75z"/>
	<path fill="#FFFFFF" d="M127.228,202.844c0,0-32.234-18.641-36.656-39.078c-5.656-26.141-2.125-19.828-0.766-42.906
		c1.359-23.078-4-19.641-5.086-11.875c-1.086,7.75-6.484,19.797-10.945,31.734c-4.453,11.953-1.492,30.734,8.422,43.047
		C92.11,196.094,98.587,203.047,127.228,202.844z"/>
	<path fill="#FFFFFF" d="M149.36,204.313c0,0-4.953-19.547,5.469-29.25c10.43-9.719,25.922-25.703,28.289-39.328
		c2.367-13.625,2.883-62.406,2.883-62.406s14.273,27.375,19.117,44.766c4.109,14.75,7.711,36.438-2.211,50.875
		c-9.922,14.438-24.328,22.656-40.085,27.219C147.064,200.734,149.36,204.313,149.36,204.313z"/>
	<path fill="#FFFFFF" d="M190.422,261.406L77.845,224.828c0,0-9.008-3.781-4.133-15.484c2.672-6.406,7.93-7.312,16.008-4.938
		c2.297,0.672,111.015,32.875,110.203,32.766C192.915,236.281,181.446,253.078,190.422,261.406z"/>
	<g>
		<path fill="#FFFFFF" d="M198.258,263.922c4.648,1.312,9.828-2.922,11.57-9.453c1.727-6.516-0.633-12.875-5.281-14.156
			c-4.641-1.312-9.82,2.906-11.562,9.438C191.251,256.266,193.61,262.625,198.258,263.922z"/>
	</g>
	<path fill="#FFFFFF" d="M143.314,217.281l41.999,11.594c0,0,26.516-8.203,28.859-8.797c2.344-0.594,9.391-20.719-6.461-20.797
		c-5.312-0.031-18.195,4.203-18.195,4.203L143.314,217.281z"/>
	<g>
		<path fill="#FFFFFF" d="M78.165,262.391c5.227-1.25,8.188-7.672,6.609-14.359c-1.586-6.672-7.109-11.078-12.352-9.828
			c-5.242,1.234-8.195,7.656-6.602,14.328C67.399,259.219,72.923,263.625,78.165,262.391z"/>
	</g>
	<path fill="#FFFFFF" d="M81.165,235.281c0,0,8.984,3.016,10.281,11.109c0.984,6.188,0.125,9.094-3.156,12.156l40.422-12.672
		l-38.398-13L81.165,235.281z"/>
</g>
</svg>
