<?xml version="1.0" encoding="utf-8"?>
<!-- Generator: Adobe Illustrator 17.0.0, SVG Export Plug-In . SVG Version: 6.00 Build 0)  -->
<!DOCTYPE svg PUBLIC "-//W3C//DTD SVG 1.1//EN" "http://www.w3.org/Graphics/SVG/1.1/DTD/svg11.dtd">
<svg version="1.1" xmlns="http://www.w3.org/2000/svg" xmlns:xlink="http://www.w3.org/1999/xlink" x="0px" y="0px"
	 width="283.141px" height="282.437px" viewBox="0 0 283.141 282.437" enable-background="new 0 0 283.141 282.437"
	 xml:space="preserve">
<g id="Background">
	<path display="none" fill="#FFFFFF" d="M289.25,263.898c0,13.602-11.039,24.648-24.641,24.648H18.539
		c-13.601,0-24.633-11.047-24.633-24.648V18.516c0-13.601,11.031-24.625,24.633-24.625h246.07c13.602,0,24.641,11.023,24.641,24.625
		V263.898z M283.141,18.453C283.141,8.266,274.867,0,264.656,0H18.492C8.281,0,0,8.266,0,18.453v245.508
		c0,10.195,8.281,18.477,18.492,18.477h246.164c10.211,0,18.484-8.281,18.484-18.477V18.453z"/>
	<path fill="#A6A6A6" d="M283.141,18.453C283.141,8.266,274.867,0,264.656,0H18.492C8.281,0,0,8.266,0,18.453v245.508
		c0,10.195,8.281,18.477,18.492,18.477h246.164c10.211,0,18.484-8.281,18.484-18.477V18.453z"/>
	<path display="none" fill="none" stroke="#000000" stroke-width="0.9992" d="M289.25,263.898c0,13.602-11.039,24.648-24.641,24.648
		H18.539c-13.601,0-24.633-11.047-24.633-24.648V18.516c0-13.601,11.031-24.625,24.633-24.625h246.07
		c13.602,0,24.641,11.023,24.641,24.625V263.898z"/>
</g>
<g id="Electrical_Hook-ups">
	<path fill-rule="evenodd" clip-rule="evenodd" fill="#FFFFFF" d="M194.164,97.266c10.742-7.922,47.891-35.609,85.328-44.938
		l6.086-2.414l0.836-23.32L279.195,28c-0.344,0.094-0.68,0.156-1.016,0.25c-24.781,5.875-61.469,19.422-102.547,50.531
		c-19.898-5.312-49.148-20.953-93.336,21.984c-11.102-3.688-15.445-3.422-15.445-3.422l-16.289,18.391l22.469,19.906
		c-1.992,1.5-3.938,3.172-5.719,5.203l-20.383,23c-8.992,10.156-11.141,22.953-4.797,28.578c6.352,5.625,18.797,1.938,27.797-8.219
		l20.375-22.984c1.789-2.031,3.226-4.156,4.461-6.297l32.906,29.141c-0.375,0.375-0.75,0.672-1.094,1.078l-24.453,27.594
		c-8.992,10.141-11.148,22.953-4.789,28.578c6.344,5.625,18.773,1.953,27.797-8.219l24.445-27.578
		c0.336-0.391,0.609-0.812,0.938-1.203l19.617,17.359l17.312-19.547l-7.422-14.781C180.023,187.344,227.055,155.109,194.164,97.266"
		/>
</g>
</svg>
