<?xml version="1.0" encoding="utf-8"?>
<!-- Generator: Adobe Illustrator 17.0.0, SVG Export Plug-In . SVG Version: 6.00 Build 0)  -->
<!DOCTYPE svg PUBLIC "-//W3C//DTD SVG 1.1//EN" "http://www.w3.org/Graphics/SVG/1.1/DTD/svg11.dtd">
<svg version="1.1" xmlns="http://www.w3.org/2000/svg" xmlns:xlink="http://www.w3.org/1999/xlink" x="0px" y="0px"
	 width="283.141px" height="282.438px" viewBox="0 0 283.141 282.438" enable-background="new 0 0 283.141 282.438"
	 xml:space="preserve">
<g id="Background">
	<path display="none" fill="#FFFFFF" d="M355.293,292.483c0,13.602-11.039,24.648-24.641,24.648H84.582
		c-13.602,0-24.633-11.047-24.633-24.648V47.1c0-13.602,11.031-24.625,24.633-24.625h246.07c13.602,0,24.641,11.023,24.641,24.625
		V292.483z M349.183,47.037c0-10.188-8.273-18.453-18.484-18.453H84.535c-10.211,0-18.492,8.266-18.492,18.453v245.508
		c0,10.195,8.281,18.477,18.492,18.477h246.164c10.211,0,18.484-8.281,18.484-18.477V47.037z"/>
	<path fill="#4D5F85" d="M283.141,18.453C283.141,8.266,274.867,0,264.656,0H18.492C8.281,0,0,8.266,0,18.453v245.508
		c0,10.195,8.281,18.477,18.492,18.477h246.164c10.211,0,18.484-8.281,18.484-18.477V18.453z"/>
	<path display="none" fill="none" stroke="#231F20" stroke-width="0.9992" d="M355.293,292.483
		c0,13.602-11.039,24.648-24.641,24.648H84.582c-13.602,0-24.633-11.047-24.633-24.648V47.1c0-13.602,11.031-24.625,24.633-24.625
		h246.07c13.602,0,24.641,11.023,24.641,24.625V292.483z"/>
</g>
<g id="Food_Cache">
	<line fill="none" stroke="#FFFFFF" stroke-width="3.3128" x1="38.023" y1="41.639" x2="245.07" y2="41.639"/>
	<path fill="#FFFFFF" d="M145.633,120.514c0,0-3.969,1.578-4.766,2.688c-0.781,1.109-1.266,2.219-1.109,6.5
		c0.156,4.297,0.156,5.719-1.109,7.781s-2.859,3.5-4.281,1.109c-1.438-2.375-9.359-18.406-10.312-21.109
		c-0.969-2.672-1.109-3.969-1.438-4.594c-0.312-0.641-4.281-1.422-5.234-1.906c-0.953-0.469-2.375-2.062-3.172,4.609
		c-0.781,6.672-0.469,8.562,0.953,14.266c1.438,5.719,6.031,20.797,6.984,23.172c0.938,2.391,1.266,4.766,1.266,4.766
		s-3.953,16.188-3.812,21.906c0.172,5.703,0.812,11.422,5.875,20.453c0.281,0.5-1.578,15.562,0.797,24.453
		c1.266,4.719,3.812,10.297,5.875,13.156c2.062,2.859,3.641,4.609,3.641,4.609l-0.938,4.594c0,0-4.469,4.125-4.609,4.906
		c-0.312,1.75,4.609,4.609,5.391,4.781c0.797,0.156,7.625-1.594,9.359-2.547c1.75-0.938,2.547-5.875,2.703-7.141
		c0.156-1.281,0.953-3.812,0.953-3.812l3.016-0.953l1.266,5.875c0,0-0.797,2.062-2.062,3.172c-1.266,1.109-0.625,2.375-0.625,2.375
		s1.891,1.594,6.328,0.797c4.453-0.797,7.797-3,7.938-3.641c0.172-0.641,0-4.766,0-4.766s-2.531-3.172-1.906-6.656
		c0.641-3.5,1.906-5.078,1.906-5.078v-5.719c0,0,1.609-3.172,2.391-3.953c0.797-0.812,1.75-1.922,0.938-3.188
		c0,0-9.344-12.062-10.469-40.938c-0.266-7.297-0.141-25.859,0.797-30.469c0.953-4.594,1.75-6.812,1.75-6.812
		s1.75-0.328,2.547-0.484c0.781-0.156,1.109-1.906,0.312-2.547c-0.797-0.625-2.859-2.688-2.859-2.688s-5.562-7.453-6.984-8.406
		c-1.422-0.953-2.375-1.266-2.375-1.266S146.742,121.452,145.633,120.514z"/>
	<path fill="#FFFFFF" d="M61.211,27.561v183.594v33.672c0,0,1.375,8.828,3.312,10.219c1.922,1.375,2.203,2.484,2.203,2.484
		s-4.406,0-6.344-1.109c-1.938-1.094-2.484-1.656-2.484-1.656l-3.094,2.781l-4.922-2.781l-5.031,2.781l-2.969-2.781
		c0,0-2.172,1.453-4.125,2.5c-1.5,0.797-4.641,0.016-4.641,0.016s0.219-0.859,2.141-2.234c1.938-1.391,3.312-10.219,3.312-10.219
		V211.42V27.561c0,0,6.625-4.141,9.938-1.375c3.313,2.766,8.828,3.594,12.703,1.656V27.561z"/>
	<path fill="#FFFFFF" d="M221.883,27.155v190.062v27.203c0,0-1.375,8.828-3.312,10.203s-2.203,2.484-2.203,2.484
		s4.406,0,6.344-1.109c1.938-1.094,2.484-1.641,2.484-1.641l3.031,3.031l4.969-3.031l4.984,3.031l3.031-3.031
		c0,0,0.547,0.547,2.484,1.641c1.938,1.109,6.344,1.109,6.344,1.109s-0.266-1.109-2.203-2.484s-3.312-10.203-3.312-10.203V27.155
		c0,0-6.625-4.156-9.938-1.391c-3.312,2.75-8.828,3.594-12.703,1.656V27.155z"/>
	<g>
		<polygon fill="#4D5F85" points="245.07,46.436 38.023,46.436 38.023,36.842 245.07,36.842 245.07,46.436 		"/>
	</g>
	<g>
		<polygon fill="#FFFFFF" points="245.07,43.295 38.023,43.295 38.023,39.983 245.07,39.983 245.07,43.295 		"/>
	</g>
	<g>
		<polygon fill="#4D5F85" points="65.07,201.592 38.023,201.592 38.023,191.999 65.07,191.999 65.07,201.592 		"/>
	</g>
	<g>
		<polygon fill="#4D5F85" points="245.633,201.592 218.023,201.592 218.023,191.999 245.633,191.999 245.633,201.592 		"/>
	</g>
	<g>
		<polygon fill="#FFFFFF" points="65.07,198.452 38.023,198.452 38.023,195.139 65.07,195.139 65.07,198.452 		"/>
	</g>
	<g>
		<polygon fill="#FFFFFF" points="245.633,198.452 218.023,198.452 218.023,195.139 245.633,195.139 245.633,198.452 		"/>
	</g>
	<path fill="#FFFFFF" d="M66.445,200.311c1.953,0,3.516-1.578,3.516-3.516c0-1.953-1.562-3.516-3.516-3.516
		c-1.938,0-3.5,1.562-3.5,3.516C62.945,198.733,64.508,200.311,66.445,200.311z"/>
	<path fill="#FFFFFF" d="M216.367,200.577c1.938,0,3.5-1.578,3.5-3.5c0-1.953-1.562-3.531-3.5-3.531
		c-1.953,0-3.531,1.578-3.531,3.531C212.836,198.999,214.414,200.577,216.367,200.577z"/>
	<path fill="#FFFFFF" d="M108.133,64.28h-4.406c0,0-3.859,8.281-5.25,11.047c-1.391,2.75-3.719,8.562-1.25,11.719
		c2.484,3.188,9.531,3.453,9.531,3.453h0.562c0,0,7.031-0.266,9.516-3.453c2.484-3.156,0.141-8.969-1.234-11.719
		c-1.391-2.766-5.25-11.047-5.25-11.047h-0.547H108.133z"/>
	<path fill="#FFFFFF" d="M177.43,64.28h-4.406c0,0-3.875,8.281-5.25,11.047c-1.375,2.75-3.719,8.562-1.25,11.719
		c2.484,3.188,9.531,3.453,9.531,3.453h0.547c0,0,7.047-0.266,9.531-3.453c2.484-3.156,0.141-8.969-1.234-11.719
		c-1.391-2.766-5.25-11.047-5.25-11.047h-0.547H177.43z"/>
	<g>
		<path fill="#FFFFFF" d="M68.07,197.139l-3.234-0.703c1.281-5.859,31.5-143.625,32.047-145.578
			c0.953-3.359,3.312-5.359,6.297-5.359c3.156,0,4.766,2.578,5.172,3.953l0.062,17.047h-3.312V49.952
			c-0.031,0.078-0.5-1.141-1.922-1.141c-1.875,0-2.719,1.594-3.109,2.953C99.539,53.78,78.898,147.749,68.07,197.139L68.07,197.139z
			"/>
	</g>
	<g>
		<path fill="#FFFFFF" d="M214.758,197.42C203.93,148.045,183.32,54.124,182.742,52.03c-0.312-1.094-1.125-2.938-3.094-2.938
			c-1.5,0-2,1.578-2,1.594l0.062,16.078h-3.312V50.202c0.5-1.844,2.109-4.422,5.25-4.422c2.984,0,5.328,2,6.281,5.344
			c0.562,1.922,28.844,130.891,32.062,145.594L214.758,197.42L214.758,197.42z"/>
	</g>
	<line fill="none" stroke="#FFFFFF" stroke-width="3.3128" x1="102.898" y1="40.936" x2="102.898" y2="49.78"/>
	<line fill="none" stroke="#FFFFFF" stroke-width="3.3128" x1="179.648" y1="41.233" x2="179.648" y2="50.061"/>
</g>
</svg>
