<?xml version="1.0" encoding="utf-8"?>
<!-- Generator: Adobe Illustrator 17.0.0, SVG Export Plug-In . SVG Version: 6.00 Build 0)  -->
<!DOCTYPE svg PUBLIC "-//W3C//DTD SVG 1.1//EN" "http://www.w3.org/Graphics/SVG/1.1/DTD/svg11.dtd">
<svg version="1.1" xmlns="http://www.w3.org/2000/svg" xmlns:xlink="http://www.w3.org/1999/xlink" x="0px" y="0px"
	 width="283.129px" height="282.438px" viewBox="0 0 283.129 282.438" enable-background="new 0 0 283.129 282.438"
	 xml:space="preserve">
<g id="Background">
	<path display="none" fill="#FFFFFF" d="M289.238,263.906c0,13.594-11.031,24.641-24.633,24.641H18.535
		c-13.605,0-24.637-11.047-24.637-24.641V18.516c0-13.594,11.031-24.625,24.637-24.625h246.07c13.602,0,24.633,11.031,24.633,24.625
		V263.906z M283.129,18.453C283.129,8.266,274.863,0,264.652,0H18.488C8.281,0,0,8.266,0,18.453v245.516
		c0,10.188,8.281,18.469,18.488,18.469h246.164c10.211,0,18.477-8.281,18.477-18.469V18.453z"/>
	<path fill="#A6A6A6" d="M283.129,18.453C283.129,8.266,274.863,0,264.652,0H18.488C8.281,0,0,8.266,0,18.453v245.516
		c0,10.188,8.281,18.469,18.488,18.469h246.164c10.211,0,18.477-8.281,18.477-18.469V18.453z"/>
	<path display="none" fill="none" stroke="#231F20" stroke-width="0.9992" d="M289.238,263.906
		c0,13.594-11.031,24.641-24.633,24.641H18.535c-13.605,0-24.637-11.047-24.637-24.641V18.516c0-13.594,11.031-24.625,24.637-24.625
		h246.07c13.602,0,24.633,11.031,24.633,24.625V263.906z"/>
</g>
<g id="Garbage">
	<polygon fill="#FFFFFF" points="62.467,174 69.607,174 77.201,246.672 112.818,246.672 119.951,174.469 128.014,174.469 
		119.006,252.375 70.553,252.375 	"/>
	<polygon fill="#FFFFFF" points="92.865,175.891 99.514,183.016 89.068,192.516 81.951,184.438 	"/>
	<polygon fill="#FFFFFF" points="100.467,190.141 94.764,194.891 99.514,201.062 100.467,209.141 108.068,206.766 106.17,197.266 	
		"/>
	<polygon fill="#FFFFFF" points="81.467,207.25 94.303,206.766 95.256,218.641 85.756,220.062 	"/>
	<path fill="#FFFFFF" d="M98.107,222.438c0,0,13.297,2.375,12.344,4.281c-0.945,1.906-7.594,9.031-7.594,9.031l-3.805-4.281
		l-6.188,1.906l-4.75-6.188L98.107,222.438z"/>
	<path fill="#FFFFFF" d="M176.826,61.047c10.297,0,18.625-8.344,18.625-18.641c0-10.297-8.328-18.641-18.625-18.641
		c-10.297,0-18.633,8.344-18.633,18.641C158.193,52.703,166.529,61.047,176.826,61.047z"/>
	<path fill="#FFFFFF" d="M111.256,140.812l20.961-60.031c0,0,4.133-14.312,17.219-14.312c10.891,0,56.664,0,56.664,0
		s14.57,1.156,14.57,14.328s0,71.031,0,71.031s-0.477,4-7.289,4c-7.648,0-8.125-4-8.125-4V98.094c0,0-0.391-2.141-3.078-2.141
		c-1.336,0-2.922,1.406-2.922,2.438c0,5.734,0,146.828,0,146.828s-0.711,7.438-8.453,7.438c-8.602,0-9.492-7.766-9.492-7.766
		v-85.344h-9.719l-0.016,85.875c0,0-0.516,7.234-9.297,7.234c-7.734,0-9-5.797-9-8.156s-0.062-146.625-0.062-146.625
		c-0.008,0.234,0.227-1.922-4.867-1.922c-4.898,0-5.328,4.078-5.336,4.094c-1.867,5.594-3.195,6.656-17.711,46.563
		c0,0-1.516,4.938-8.508,2.359C109.248,146.172,111.256,140.812,111.256,140.812z"/>
</g>
</svg>
