<?xml version="1.0" encoding="utf-8"?>
<!-- Generator: Adobe Illustrator 17.0.0, SVG Export Plug-In . SVG Version: 6.00 Build 0)  -->
<!DOCTYPE svg PUBLIC "-//W3C//DTD SVG 1.1//EN" "http://www.w3.org/Graphics/SVG/1.1/DTD/svg11.dtd">
<svg version="1.1" xmlns="http://www.w3.org/2000/svg" xmlns:xlink="http://www.w3.org/1999/xlink" x="0px" y="0px"
	 width="283.133px" height="282.437px" viewBox="0 0 283.133 282.437" enable-background="new 0 0 283.133 282.437"
	 xml:space="preserve">
<g id="Background">
	<path display="none" fill="#FFFFFF" d="M289.243,263.902c0,13.605-11.035,24.645-24.637,24.645H18.535
		c-13.605,0-24.637-11.039-24.637-24.645V18.516c0-13.598,11.031-24.625,24.637-24.625h246.071
		c13.602,0,24.637,11.027,24.637,24.625V263.902z M283.133,18.461c0-10.191-8.27-18.461-18.48-18.461H18.488
		C8.281,0,0,8.269,0,18.461v245.503c0,10.195,8.281,18.473,18.488,18.473h246.165c10.211,0,18.48-8.277,18.48-18.473V18.461z"/>
	<path fill="#4D5F85" d="M283.133,18.461c0-10.191-8.27-18.461-18.48-18.461H18.488C8.281,0,0,8.269,0,18.461v245.503
		c0,10.195,8.281,18.473,18.488,18.473h246.165c10.211,0,18.48-8.277,18.48-18.473V18.461z"/>
	<path display="none" fill="none" stroke="#231F20" stroke-width="0.9992" d="M289.243,263.902
		c0,13.605-11.035,24.645-24.637,24.645H18.535c-13.605,0-24.637-11.039-24.637-24.645V18.516c0-13.598,11.031-24.625,24.637-24.625
		h246.071c13.602,0,24.637,11.027,24.637,24.625V263.902z"/>
</g>
<g id="Hiking">
	<path fill="#FFFFFF" d="M160.323,60.17c8.25,0,14.938-7.059,14.938-15.762c0-8.707-6.688-15.758-14.938-15.758
		c-8.234,0-14.923,7.051-14.923,15.758C145.4,53.111,152.088,60.17,160.323,60.17z"/>
	<path fill="#FFFFFF" d="M107.58,58.346c0,0,10.914-3.992,13.492,6.453l-22.281,47.512l-12.816-6.18L107.58,58.346z"/>
	<path fill="#FFFFFF" d="M172.057,109.51c0,0-10.547-22.285-12.891-34.016c-2.344-11.73-18.766-14.078-18.766-14.078l-10.562,5.281
		c-8.859,8.16-18.766,38.121-24.047,48.68c-5.27,10.555-2.352,32.262-2.352,32.262l-29.902,94.417l12.016,10.551l38.426-73.89
		l16.422,16.421l5.051,21.067l-19.207,33.425l7.141,3.965l14.864-25.726l6.215,25.917l14.172-1.508l-6.914-47.727l35.18-60.885
		l2.141,1.034c7.047,3.516,10.562-5.871,10.562-5.871L172.057,109.51z M159.794,191.249l-1.815-12.532l-19.922-42.227l17.594-25.809
		l9.375,17.598l24.231,11.699L159.794,191.249z"/>
</g>
</svg>
