<?xml version="1.0" encoding="utf-8"?>
<!-- Generator: Adobe Illustrator 17.0.0, SVG Export Plug-In . SVG Version: 6.00 Build 0)  -->
<!DOCTYPE svg PUBLIC "-//W3C//DTD SVG 1.1//EN" "http://www.w3.org/Graphics/SVG/1.1/DTD/svg11.dtd">
<svg version="1.1" xmlns="http://www.w3.org/2000/svg" xmlns:xlink="http://www.w3.org/1999/xlink" x="0px" y="0px"
	 width="283.14px" height="282.437px" viewBox="0 0 283.14 282.437" enable-background="new 0 0 283.14 282.437"
	 xml:space="preserve">
<g id="Background">
	<path display="none" fill="#FFFFFF" d="M289.25,263.902c0,13.605-11.039,24.645-24.641,24.645H18.539
		c-13.602,0-24.633-11.039-24.633-24.645V18.516c0-13.598,11.031-24.625,24.633-24.625h246.07c13.602,0,24.641,11.027,24.641,24.625
		V263.902z M283.14,18.461C283.14,8.269,274.867,0,264.656,0H18.492C8.281,0,0,8.269,0,18.461v245.503
		c0,10.195,8.281,18.473,18.492,18.473h246.164c10.211,0,18.484-8.277,18.484-18.473V18.461z"/>
	<path fill="#A6A6A6" d="M283.14,18.461C283.14,8.269,274.867,0,264.656,0H18.492C8.281,0,0,8.269,0,18.461v245.503
		c0,10.195,8.281,18.473,18.492,18.473h246.164c10.211,0,18.484-8.277,18.484-18.473V18.461z"/>
	<path display="none" fill="none" stroke="#231F20" stroke-width="0.9992" d="M289.25,263.902c0,13.605-11.039,24.645-24.641,24.645
		H18.539c-13.602,0-24.633-11.039-24.633-24.645V18.516c0-13.598,11.031-24.625,24.633-24.625h246.07
		c13.602,0,24.641,11.027,24.641,24.625V263.902z"/>
</g>
<g id="Horseshoes">
	<path fill="#FFFFFF" d="M125.408,83.449c8.047,5.422,19.836,2.172,26.336-7.246c6.484-9.418,5.242-21.453-2.805-26.871
		c-8.055-5.418-19.844-2.18-26.336,7.25C116.095,66.008,117.353,78.035,125.408,83.449z"/>
	<path fill="#FFFFFF" d="M55.485,141.785l46.172-39.238l11.078-13.688l26.782,2.738c0,0,3.695,9.125,7.391,6.387
		c3.695-2.734,42.476-35.586,42.476-35.586l14.773,10.039l-73.875,83.949l12.93,98.554h-22.165c0,0-13.852-69.352-16.617-62.965
		c-2.773,6.387-35.094,62.965-35.094,62.965H48.095l39.711-114.98l-28.625,17.34L55.485,141.785z"/>
	<path fill="#FFFFFF" d="M216.455,23.18c-1.203,0.359-6.016,4.707-8.781,8.484c-5.703,7.797-5.43,17.691,0.602,22.109
		c6.039,4.418,15.555,1.68,21.258-6.109c2.758-3.77,5.75-9.422,5.516-10.887l-6.336-4.625l-2.297,3.137
		c0.805,2.605,0.195,5.93-1.867,8.746c-3.07,4.195-8.203,5.668-11.453,3.289c-3.25-2.379-3.391-7.707-0.32-11.902
		c2.062-2.824,5.055-4.414,7.789-4.43l2.32-3.172L216.455,23.18z"/>
</g>
</svg>
