<?xml version="1.0" encoding="utf-8"?>
<!-- Generator: Adobe Illustrator 17.0.0, SVG Export Plug-In . SVG Version: 6.00 Build 0)  -->
<!DOCTYPE svg PUBLIC "-//W3C//DTD SVG 1.1//EN" "http://www.w3.org/Graphics/SVG/1.1/DTD/svg11.dtd">
<svg version="1.1" xmlns="http://www.w3.org/2000/svg" xmlns:xlink="http://www.w3.org/1999/xlink" x="0px" y="0px"
	 width="283.14px" height="282.437px" viewBox="0 0 283.14 282.437" enable-background="new 0 0 283.14 282.437"
	 xml:space="preserve">
<g id="Background">
	<path display="none" fill="#FFFFFF" d="M289.249,263.902c0,13.605-11.039,24.644-24.641,24.644H18.539
		c-13.602,0-24.633-11.039-24.633-24.644V18.516c0-13.598,11.031-24.625,24.633-24.625h246.07c13.602,0,24.641,11.027,24.641,24.625
		V263.902z M283.14,18.461C283.14,8.269,274.867,0,264.656,0H18.492C8.281,0,0,8.269,0,18.461v245.504
		c0,10.195,8.281,18.472,18.492,18.472h246.164c10.211,0,18.484-8.277,18.484-18.472V18.461z"/>
	<path fill="#4D5F85" d="M283.14,18.461C283.14,8.269,274.867,0,264.656,0H18.492C8.281,0,0,8.269,0,18.461v245.504
		c0,10.195,8.281,18.472,18.492,18.472h246.164c10.211,0,18.484-8.277,18.484-18.472V18.461z"/>
	<path display="none" fill="none" stroke="#231F20" stroke-width="0.9992" d="M289.249,263.902
		c0,13.605-11.039,24.644-24.641,24.644H18.539c-13.602,0-24.633-11.039-24.633-24.644V18.516c0-13.598,11.031-24.625,24.633-24.625
		h246.07c13.602,0,24.641,11.027,24.641,24.625V263.902z"/>
</g>
<g id="Horseback_riding">
	<path fill="#FFFFFF" d="M107.089,38.016c0-6.727,5.473-12.199,12.207-12.199s12.211,5.473,12.211,12.199
		c0,6.746-5.477,12.219-12.211,12.219S107.089,44.762,107.089,38.016z"/>
	<path fill="#FFFFFF" d="M47.366,199.531c-0.715,6.902-0.461,49.152-0.832,53.816h8.043l2.594-49.922
		c0,0,15.531-20.625,16.02-25.492c0.488-4.855-2.297,15.559-5.215,20.426l14.176,55h9.023l-11.668-53.551
		c0,0,16.051-12.633,17.02-24.785l30.137,3.402l5.359,17.984h9.227l-1.453-15.555l9.344-0.969l-4.164,73.609h10.188l9.906-65.457
		l16.165,65.457h10.227l-13.75-74.586c0,0,13.954-21.879,14.579-32.562c0.484-8.266,11.75-19.426,11.875-19.395
		c23.352,7.562,36.281-3.773,36.281-3.773l-6.523-2.816c0,0-9.031,7.551-26.289,1.23l8.727-8.301l16.523,6.688l8.266,3.742
		l3.281,1.844l7.164-8.871c-10.242-10.578-21.688-20.074-28.648-33.332c-1.242-2.348,1.812-4.965,3.242-7.574
		c0.93-1.715-0.852-3.742-1.609-3.383c-19.656,9.207-34.617,23.156-53.251,35.699l-4.992,2.969l-0.961,1.621
		c-8.18,9.133-22.078,10.027-31.844,6.758c-4.484-1.496-2.383-11.289-2.484-17.828l0.727-4.133l14.094,5.102l3.219-2.219
		l16.75,10.32l0.828,0.734l4.867-3.031l-0.734-0.551c0,0-38.289-22.754-39.109-24.5c-3.555-7.699-3.945-16.949-7.289-24.652
		c-2.133-4.937-13.188-7.602-15.625-1.836c-8.285,19.563-6.109,42.883-4.105,61.883c-16.328,1.125-29.008-11.324-45.516-3.883
		c-12.805,5.774-29.832,12.516-27.344,26.781c3.895,22.043,1.781,43.848,9.797,64.492c1.586-2.754,6.098-3.836,6.141-7.742
		l1.871-6.352l0.484-29.652c-0.484,1.461,4.254,7.223,3.769,7.719c-0.488,0.48-4.312,22.047-4.312,22.047"/>
</g>
</svg>
