<?xml version="1.0" encoding="utf-8"?>
<!-- Generator: Adobe Illustrator 22.1.0, SVG Export Plug-In . SVG Version: 6.00 Build 0)  -->
<svg version="1.1" xmlns="http://www.w3.org/2000/svg" xmlns:xlink="http://www.w3.org/1999/xlink" x="0px" y="0px"
	 viewBox="0 0 283.1 282.4" style="enable-background:new 0 0 283.1 282.4;" xml:space="preserve">
<style type="text/css">
	.st0{fill:#FFFFFF;}
	.st1{fill:#A7A6A6;}
	.st2{fill-rule:evenodd;clip-rule:evenodd;fill:#FFFFFF;}
</style>
<g id="Background">
	<path class="st0" d="M283.1,18.5c0-10.2-8.3-18.5-18.5-18.5H18.5C8.3,0,0,8.3,0,18.5V264c0,10.2,8.3,18.5,18.5,18.5h246.2
		c10.2,0,18.5-8.3,18.5-18.5V18.5z"/>
	<path class="st1" d="M283.1,18.5c0-10.2-8.3-18.5-18.5-18.5H18.5C8.3,0,0,8.3,0,18.5V264c0,10.2,8.3,18.5,18.5,18.5h246.2
		c10.2,0,18.5-8.3,18.5-18.5V18.5z"/>
</g>
<g id="Marine-Accesible_Camping">
	<path class="st2" d="M266,19.5c-3.2-3-7.5-4.9-12.2-4.9H34.9c-9.8,0-17.8,7.9-17.8,17.7v218.9c0,4.7,1.8,9,4.8,12.2
		c0,0,0.1,0.1,0.1,0.1L266,19.5C266,19.6,266,19.5,266,19.5z M114.3,251.3h-10.8v8.4h156.4v-8.4h-12L181.6,146L114.3,251.3z
		 M155.1,251.3l26.5-39.7l25.3,39.7H155.1z"/>
	<g id="Anchor">
		<g>
			<path class="st1" d="M86.1,135.2c2.5,0,4.5-2,4.5-4.5V66.9c0-2.5-2-4.5-4.5-4.5l0,0c-2.5,0-4.5,2-4.5,4.5v63.8
				C81.7,133.2,83.7,135.2,86.1,135.2L86.1,135.2z"/>
		</g>
		<path class="st1" d="M69.4,50.1c0-9.3,7.5-16.8,16.8-16.8c9.3,0,16.8,7.5,16.8,16.8c0,9.3-7.5,16.8-16.8,16.8
			C76.9,66.8,69.4,59.3,69.4,50.1z M86.1,57.3c4,0,7.3-3.3,7.3-7.3s-3.3-7.3-7.3-7.3s-7.3,3.3-7.3,7.3S82.1,57.3,86.1,57.3z"/>
		<path class="st1" d="M130,115.2c-8.6,15.5-25,26-44,26c-18.9,0-35.5-10.6-44-26l-0.1-0.1l-5.2,2.2l3.5-21.9l16.2,13.5l-5.2,2.2
			l0.1,0.1c7,12,20,20.1,34.9,20.1c14.8,0,27.8-8,34.9-19.9l0.1-0.3l-5.2-2.2l16.2-13.5l3.5,21.9l-5.4-2.3L130,115.2z"/>
	</g>
</g>
</svg>
