<?xml version="1.0" encoding="utf-8"?>
<!-- Generator: Adobe Illustrator 17.0.0, SVG Export Plug-In . SVG Version: 6.00 Build 0)  -->
<!DOCTYPE svg PUBLIC "-//W3C//DTD SVG 1.1//EN" "http://www.w3.org/Graphics/SVG/1.1/DTD/svg11.dtd">
<svg version="1.1" xmlns="http://www.w3.org/2000/svg" xmlns:xlink="http://www.w3.org/1999/xlink" x="0px" y="0px"
	 width="283.141px" height="282.437px" viewBox="0 0 283.141 282.437" enable-background="new 0 0 283.141 282.437"
	 xml:space="preserve">
<g id="Background">
	<path display="none" fill="#FFFFFF" d="M289.25,263.906c0,13.594-11.039,24.641-24.641,24.641H18.539
		c-13.601,0-24.633-11.047-24.633-24.641V18.516c0-13.594,11.031-24.625,24.633-24.625h246.07c13.602,0,24.641,11.031,24.641,24.625
		V263.906z M283.141,18.453C283.141,8.266,274.867,0,264.656,0H18.492C8.281,0,0,8.266,0,18.453v245.516
		c0,10.188,8.281,18.469,18.492,18.469h246.164c10.211,0,18.484-8.281,18.484-18.469V18.453z"/>
	<path fill="#A6A6A6" d="M283.141,18.453C283.141,8.266,274.867,0,264.656,0H18.492C8.281,0,0,8.266,0,18.453v245.516
		c0,10.188,8.281,18.469,18.492,18.469h246.164c10.211,0,18.484-8.281,18.484-18.469V18.453z"/>
	<path display="none" fill="none" stroke="#231F20" stroke-width="0.9992" d="M289.25,263.906c0,13.594-11.039,24.641-24.641,24.641
		H18.539c-13.601,0-24.633-11.047-24.633-24.641V18.516c0-13.594,11.031-24.625,24.633-24.625h246.07
		c13.602,0,24.641,11.031,24.641,24.625V263.906z"/>
</g>
<g id="Picnic_Shelter">
	<polygon fill="#FFFFFF" points="141.617,36.469 262.805,99.656 262.805,131.484 240.477,120.562 240.477,245.969 210.07,245.969 
		210.07,106.312 141.586,73.969 141.586,73.969 73.07,106.312 73.07,245.969 42.68,245.969 42.68,120.562 20.351,131.484 
		20.351,99.656 141.57,36.469 	"/>
	<rect x="107.008" y="139.625" fill="#FFFFFF" width="69.531" height="8.812"/>
	<rect x="84.477" y="165.812" fill="#FFFFFF" width="21.547" height="8.328"/>
	<rect x="175.07" y="165.812" fill="#FFFFFF" width="21.547" height="8.328"/>
	<rect x="84.477" y="178.797" fill="#FFFFFF" width="112.141" height="8.328"/>
	<polygon fill="#FFFFFF" points="134.43,151.375 122.664,151.375 100.727,218.75 113.211,218.75 	"/>
	<polygon fill="#FFFFFF" points="149.117,151.375 160.867,151.375 179.852,218.937 167.352,218.937 	"/>
</g>
</svg>
