<?xml version="1.0" encoding="utf-8"?>
<!-- Generator: Adobe Illustrator 17.0.0, SVG Export Plug-In . SVG Version: 6.00 Build 0)  -->
<!DOCTYPE svg PUBLIC "-//W3C//DTD SVG 1.1//EN" "http://www.w3.org/Graphics/SVG/1.1/DTD/svg11.dtd">
<svg version="1.1" xmlns="http://www.w3.org/2000/svg" xmlns:xlink="http://www.w3.org/1999/xlink" x="0px" y="0px"
	 width="283.141px" height="282.438px" viewBox="0 0 283.141 282.438" enable-background="new 0 0 283.141 282.438"
	 xml:space="preserve">
<g id="Background">
	<path display="none" fill="#FFFFFF" d="M289.25,263.906c0,13.594-11.039,24.641-24.641,24.641H18.539
		c-13.602,0-24.633-11.047-24.633-24.641V18.516c0-13.594,11.031-24.625,24.633-24.625h246.07c13.602,0,24.641,11.031,24.641,24.625
		V263.906z M283.141,18.453C283.141,8.266,274.867,0,264.656,0H18.492C8.281,0,0,8.266,0,18.453v245.516
		c0,10.188,8.281,18.469,18.492,18.469h246.164c10.211,0,18.484-8.281,18.484-18.469V18.453z"/>
	<path fill="#A6A6A6" d="M283.141,18.453C283.141,8.266,274.867,0,264.656,0H18.492C8.281,0,0,8.266,0,18.453v245.516
		c0,10.188,8.281,18.469,18.492,18.469h246.164c10.211,0,18.484-8.281,18.484-18.469V18.453z"/>
	<path display="none" fill="none" stroke="#231F20" stroke-width="0.9992" d="M289.25,263.906c0,13.594-11.039,24.641-24.641,24.641
		H18.539c-13.602,0-24.633-11.047-24.633-24.641V18.516c0-13.594,11.031-24.625,24.633-24.625h246.07
		c13.602,0,24.641,11.031,24.641,24.625V263.906z"/>
</g>
<g id="Picnic_Area">
	<rect x="75.59" y="62.672" fill="#FFFFFF" width="136.797" height="17.344"/>
	<rect x="31.269" y="114.219" fill="#FFFFFF" width="42.383" height="16.375"/>
	<rect x="209.504" y="114.219" fill="#FFFFFF" width="42.383" height="16.375"/>
	<rect x="31.27" y="139.75" fill="#FFFFFF" width="220.617" height="16.375"/>
	<path fill="#FFFFFF" d="M129.535,85.797h-23.117L63.074,218.75h24.547C87.621,220.188,129.535,85.797,129.535,85.797z"/>
	<polygon fill="#FFFFFF" points="158.441,85.797 181.566,85.797 218.879,218.703 194.316,218.703 	"/>
</g>
</svg>
