<?xml version="1.0" encoding="utf-8"?>
<!-- Generator: Adobe Illustrator 22.1.0, SVG Export Plug-In . SVG Version: 6.00 Build 0)  -->
<svg version="1.1" xmlns="http://www.w3.org/2000/svg" xmlns:xlink="http://www.w3.org/1999/xlink" x="0px" y="0px"
	 viewBox="0 0 283.1 282.4" style="enable-background:new 0 0 283.1 282.4;" xml:space="preserve">
<style type="text/css">
	.st0{fill:#FFFFFF;}
	.st1{fill:#A7A6A6;}
</style>
<g id="Z_Base_layer_130mm">
	<g>
		<path class="st0" d="M283.1,18.5c0-10.2-8.3-18.5-18.5-18.5H18.5C8.3,0,0,8.3,0,18.5V264c0,10.2,8.3,18.5,18.5,18.5h246.2
			c10.2,0,18.5-8.3,18.5-18.5V18.5z"/>
		<path class="st1" d="M283.1,18.5c0-10.2-8.3-18.5-18.5-18.5H18.5C8.3,0,0,8.3,0,18.5V264c0,10.2,8.3,18.5,18.5,18.5h246.2
			c10.2,0,18.5-8.3,18.5-18.5V18.5z"/>
	</g>
</g>
<g id="Viewpoint">
	<g>
		<g>
			<g>
				<g>
					<path class="st0" d="M89.6,85.3c15.7,0,28.4-12.7,28.4-28.4c0-15.7-12.7-28.4-28.4-28.4c-15.7,0-28.4,12.7-28.4,28.4
						C61.2,72.7,73.9,85.3,89.6,85.3z"/>
				</g>
				<polygon class="st0" points="49.5,90.2 140.3,90.2 140.3,55.9 126.5,58.6 126.5,46.2 140.3,48 140.3,40.6 164.5,40.6 164.5,48 
					174,48 174,56.5 164.5,56.5 164.5,116.6 121.3,116.6 121.3,253.8 49.5,253.8 				"/>
				<g>
					<path class="st0" d="M157.7,162.3c9.5,0,17.2-7.7,17.2-17.2c0-9.5-7.7-17.2-17.2-17.2c-9.5,0-17.2,7.7-17.2,17.2
						C140.5,154.6,148.2,162.3,157.7,162.3z"/>
				</g>
				<polygon class="st0" points="136.6,253.8 182,253.8 182,185.8 233.7,185.8 233.7,169.9 136.6,169.9 				"/>
			</g>
		</g>
	</g>
</g>
</svg>
