<?xml version="1.0" encoding="utf-8"?>
<!-- Generator: Adobe Illustrator 22.1.0, SVG Export Plug-In . SVG Version: 6.00 Build 0)  -->
<svg version="1.1" xmlns="http://www.w3.org/2000/svg" xmlns:xlink="http://www.w3.org/1999/xlink" x="0px" y="0px"
	 viewBox="0 0 283.1 282.4" style="enable-background:new 0 0 283.1 282.4;" xml:space="preserve">
<style type="text/css">
	.st0{fill:#FFFFFF;}
	.st1{fill:#A7A6A6;}
</style>
<g id="Z_Base_layer_130mm">
	<g>
		<path class="st0" d="M283.1,18.5c0-10.2-8.3-18.5-18.5-18.5H18.5C8.3,0,0,8.3,0,18.5V264c0,10.2,8.3,18.5,18.5,18.5h246.2
			c10.2,0,18.5-8.3,18.5-18.5V18.5z"/>
		<path class="st1" d="M283.1,18.5c0-10.2-8.3-18.5-18.5-18.5H18.5C8.3,0,0,8.3,0,18.5V264c0,10.2,8.3,18.5,18.5,18.5h246.2
			c10.2,0,18.5-8.3,18.5-18.5V18.5z"/>
	</g>
</g>
<g id="Viewpoint_1">
	<g>
		<g>
			<g>
				<g>
					<polyline class="st0" points="125.5,181.6 125.5,99.8 130.5,99.8 131.6,99.8 131.6,94.2 126,94.2 126,85.9 129.3,85.9 
						129.3,78.1 134.4,78.1 134.4,65.8 129.3,65.8 129.3,53 82,53 82,66.9 77,66.9 77,78.6 81.5,78.6 81.5,85.9 86.5,85.9 
						86.5,93.7 81.5,93.7 81.5,99.2 85.9,99.2 85.9,107 49.2,107 49.2,120.4 28.1,169.3 28.1,199.9 32.5,199.9 28.6,216.6 
						28.6,229.4 98.5,229.4 98.4,216 94.8,199.4 125.5,199.4 125.5,181.6 					"/>
					<polygon class="st0" points="142.1,88.7 148,88.7 148,94.2 155.2,94.2 155.2,99.8 147.7,99.8 147.7,119.8 159.7,119.8 
						159.7,132.9 149.7,132.9 149.7,148.7 154.4,148.7 154.4,159.9 150.2,159.9 150.2,168.5 160.2,168.5 160.2,181.6 151,181.6 
						148.8,181.6 148.8,186 141.9,186 141.3,186 134.4,186 134.4,181.6 132.1,181.6 122.9,181.6 122.9,168.5 133,168.5 133,159.9 
						128.8,159.9 128.8,148.7 133.5,148.7 133.5,132.9 123.5,132.9 123.5,119.8 135.5,119.8 135.5,99.8 128,99.8 128,94.2 
						135.2,94.2 135.2,88.7 141,88.7 					"/>
					<polyline class="st0" points="157.7,181.6 157.7,199.4 188.3,199.4 184.6,215.8 184.4,229.4 254.5,229.4 254.5,216.6 
						250.6,199.9 255.1,199.9 255.1,169.3 233.9,120.4 233.9,107 197.2,107 197.2,99.2 201.7,99.2 201.7,93.7 196.7,93.7 
						196.7,85.9 201.7,85.9 201.7,78.6 206.1,78.6 206.1,66.9 201.1,66.9 201.1,53 153.8,53 153.8,65.8 148.8,65.8 148.8,78.1 
						153.8,78.1 153.8,85.9 157.2,85.9 157.2,94.2 151.6,94.2 151.6,99.8 152.7,99.8 157.7,99.8 157.7,181.6 					"/>
				</g>
			</g>
		</g>
	</g>
</g>
</svg>
