<?xml version="1.0" encoding="utf-8"?>
<!-- Generator: Adobe Illustrator 22.1.0, SVG Export Plug-In . SVG Version: 6.00 Build 0)  -->
<svg version="1.1" xmlns="http://www.w3.org/2000/svg" xmlns:xlink="http://www.w3.org/1999/xlink" x="0px" y="0px"
	 viewBox="0 0 283.1 282.4" style="enable-background:new 0 0 283.1 282.4;" xml:space="preserve">
<style type="text/css">
	.st0{fill:#FFFFFF;}
	.st1{fill:#4E6086;}
	.st2{fill:none;stroke:#FFFFFF;stroke-width:3.8;}
</style>
<g id="Z_Base_layer_130mm">
	<g>
		<path class="st0" d="M283.1,18.5c0-10.2-8.3-18.5-18.5-18.5H18.5C8.3,0,0,8.3,0,18.5V264c0,10.2,8.3,18.5,18.5,18.5h246.2
			c10.2,0,18.5-8.3,18.5-18.5V18.5z"/>
		<path class="st1" d="M283.1,18.5c0-10.2-8.3-18.5-18.5-18.5H18.5C8.3,0,0,8.3,0,18.5V264c0,10.2,8.3,18.5,18.5,18.5h246.2
			c10.2,0,18.5-8.3,18.5-18.5V18.5z"/>
	</g>
</g>
<g id="Wind_Surfing">
	<g>
		<g>
			<g>
				<path class="st0" d="M211.1,21.1c0,0-57.9,150.8-90.7,208.7c-2.3,4-1.1-14.2-1.1-14.2s-11.8-8.9-6.1-46.7
					c0.8-5.6-10.1-4.5,5-37.4C140.9,82.1,211.1,21.1,211.1,21.1z"/>
				<path class="st0" d="M124.8,221.1l-8.9,20.6l40.6-38.7L145,190.5l-8.8-1.6l7.1-14.2l4.4,9.3l22.4,1.6l9.8,9.8
					c0,0-21.3,27.8-23.5,29c-2.2,1.1-31.9,19.3-31.9,19.3l15.8,3.5l-3.1,4.9c0,0-7.6-4.5-14.9-2.7c-4,1-7.3,3.7-10.5,2.1
					c-3.3-1.6-7.1-4.4-10.4-2.8c-3.3,1.6-7.3,4.5-9.5,1.7c-2.2-2.7-2.7-5.8-2.7-5.8l23.5-3.8l8.2-21.3L124.8,221.1z"/>
				<g>
					<path class="st0" d="M182.1,188.6c4.7,0,8.5-3.8,8.5-8.5s-3.8-8.5-8.5-8.5c-4.7,0-8.5,3.8-8.5,8.5S177.4,188.6,182.1,188.6z"/>
				</g>
			</g>
			<path class="st2" d="M72.1,257c0,0,3.7-3.1,8.6-3.1c4.9,0,4,3.9,10.9,3.9c6.9,0,5.1-4.2,11.6-4.2c6.5,0,5.2,4.2,11.7,4.2
				c6.5,0,4.9-4,11.8-4c7,0,5.9,4.3,12.6,4.3c6.7,0,6.3-4.3,12.6-4.3c0,0,1.2,0.1,2.7,0.8"/>
		</g>
	</g>
</g>
</svg>
