<svg xmlns="http://www.w3.org/2000/svg" width="47.998" height="47.998" viewBox="0 0 47.998 47.998">
  <g id="atv" transform="translate(0 0)">
    <g id="Z_Base_layer_130mm" transform="translate(0 0)">
      <g id="Group_766" data-name="Group 766">
        <g id="Group_765" data-name="Group 765">
          <path id="Path_594" data-name="Path 594" d="M47.981,3.143A3.143,3.143,0,0,0,44.846,0H3.135A3.143,3.143,0,0,0,0,3.143V44.855A3.143,3.143,0,0,0,3.135,48H44.863A3.143,3.143,0,0,0,48,44.855V3.143Z" fill="#fff"/>
          <path id="Path_595" data-name="Path 595" d="M47.981,3.143A3.143,3.143,0,0,0,44.846,0H3.135A3.143,3.143,0,0,0,0,3.143V44.855A3.143,3.143,0,0,0,3.135,48H44.863A3.143,3.143,0,0,0,48,44.855V3.143Z" fill="#38598a"/>
        </g>
      </g>
    </g>
    <g id="atv-2" data-name="atv" transform="translate(4.195 12.75)">
      <g id="Group_768" data-name="Group 768">
        <g id="Group_767" data-name="Group 767">
          <path id="Path_596" data-name="Path 596" d="M31.93,88.546a2.618,2.618,0,1,0,2.65,2.617,2.637,2.637,0,0,0-2.65-2.617m25.732,0a2.618,2.618,0,1,0,2.65,2.617,2.637,2.637,0,0,0-2.65-2.617m0,9.463a6.838,6.838,0,1,0-6.93-6.846,6.885,6.885,0,0,0,6.93,6.846m-8.713-7.064a8.656,8.656,0,0,1,8.306-8.372c.068-.017,4.45-.017,4.45-.017l-.017-2.517L51.7,78.16l-.747-2.953A1.481,1.481,0,0,0,49.526,74.1H47.3a.839.839,0,1,0,0,1.678H49.34c.085.336.374,1.443.662,2.6-1.24.755-3.8,2.3-4.433,2.534a4.131,4.131,0,0,1-2.837-.05l-7.966-2a6.114,6.114,0,0,0-1.817-.268h-5.69a.608.608,0,0,0-.611.554l-.017,3.121s6.692.419,6.743.436a8.668,8.668,0,0,1,7.287,8.272h8.289ZM31.93,98.009A6.838,6.838,0,1,0,25,91.164a6.885,6.885,0,0,0,6.93,6.846M27.14,76.046a.7.7,0,1,0,0,1.409h6.59a.7.7,0,1,0,0-1.409H27.14m26.31,0a.7.7,0,1,0,0,1.409h6.964v.805a.713.713,0,0,0,1.427,0v-.889A1.336,1.336,0,0,0,60.5,76.046H53.45" transform="translate(-25 -74.1)" fill="#fff" fill-rule="evenodd"/>
        </g>
      </g>
    </g>
  </g>
</svg>
