<svg xmlns="http://www.w3.org/2000/svg" width="16.2" height="16.2" viewBox="0 0 16.2 16.2">
  <g id="atv" transform="translate(0 0)">
    <g id="Z_Base_layer_130mm" transform="translate(0 0)">
      <g id="Group_766" data-name="Group 766" transform="translate(0 0)">
        <g id="Group_765" data-name="Group 765">
          <path id="Path_594" data-name="Path 594" d="M16.194,1.061A1.061,1.061,0,0,0,15.136,0H1.058A1.061,1.061,0,0,0,0,1.061V15.139A1.061,1.061,0,0,0,1.058,16.2H15.142A1.061,1.061,0,0,0,16.2,15.139V1.061Z" transform="translate(0 0)" fill="#fff"/>
          <path id="Path_595" data-name="Path 595" d="M16.194,1.061A1.061,1.061,0,0,0,15.136,0H1.058A1.061,1.061,0,0,0,0,1.061V15.139A1.061,1.061,0,0,0,1.058,16.2H15.142A1.061,1.061,0,0,0,16.2,15.139V1.061Z" transform="translate(0 0)" fill="#38598a"/>
        </g>
      </g>
    </g>
    <g id="atv-2" data-name="atv" transform="translate(1.416 4.303)">
      <g id="Group_768" data-name="Group 768">
        <g id="Group_767" data-name="Group 767">
          <path id="Path_596" data-name="Path 596" d="M27.339,78.976a.883.883,0,1,0,.894.883.89.89,0,0,0-.894-.883m8.685,0a.883.883,0,1,0,.894.883.89.89,0,0,0-.894-.883m0,3.194a2.308,2.308,0,1,0-2.339-2.31,2.324,2.324,0,0,0,2.339,2.31m-2.941-2.384a2.922,2.922,0,0,1,2.8-2.826c.023-.006,1.5-.006,1.5-.006l-.006-.849-3.371-.634-.252-1a.5.5,0,0,0-.482-.374h-.751a.283.283,0,1,0,0,.566h.688c.029.113.126.487.224.878-.418.255-1.284.776-1.5.855a1.394,1.394,0,0,1-.957-.017L28.3,75.708a2.064,2.064,0,0,0-.613-.091h-1.92a.205.205,0,0,0-.206.187l-.006,1.053s2.259.142,2.276.147A2.926,2.926,0,0,1,30.286,79.8h2.8ZM27.339,82.17A2.308,2.308,0,1,0,25,79.859a2.324,2.324,0,0,0,2.339,2.31m-1.617-7.413a.238.238,0,1,0,0,.476h2.224a.238.238,0,1,0,0-.476H25.722m8.88,0a.238.238,0,1,0,0,.476h2.35V75.5a.241.241,0,0,0,.482,0v-.3a.451.451,0,0,0-.453-.447H34.6" transform="translate(-25 -74.1)" fill="#fff" fill-rule="evenodd"/>
        </g>
      </g>
    </g>
  </g>
</svg>
