<svg xmlns="http://www.w3.org/2000/svg" width="64" height="64" viewBox="0 0 64 64">
  <g id="atv" transform="translate(0 0)">
    <g id="Z_Base_layer_130mm" transform="translate(0 0)">
      <g id="Group_766" data-name="Group 766">
        <g id="Group_765" data-name="Group 765">
          <path id="Path_594" data-name="Path 594" d="M63.977,4.191A4.191,4.191,0,0,0,59.8,0H4.181A4.191,4.191,0,0,0,0,4.191V59.809A4.191,4.191,0,0,0,4.181,64H59.819A4.191,4.191,0,0,0,64,59.809V4.191Z" fill="#fff"/>
          <path id="Path_595" data-name="Path 595" d="M63.977,4.191A4.191,4.191,0,0,0,59.8,0H4.181A4.191,4.191,0,0,0,0,4.191V59.809A4.191,4.191,0,0,0,4.181,64H59.819A4.191,4.191,0,0,0,64,59.809V4.191Z" fill="#38598a"/>
        </g>
      </g>
    </g>
    <g id="atv-2" data-name="atv" transform="translate(5.593 17)">
      <g id="Group_768" data-name="Group 768">
        <g id="Group_767" data-name="Group 767">
          <path id="Path_596" data-name="Path 596" d="M34.24,93.362a3.49,3.49,0,1,0,3.533,3.49,3.516,3.516,0,0,0-3.533-3.49m34.311,0a3.49,3.49,0,1,0,3.533,3.49,3.516,3.516,0,0,0-3.533-3.49m0,12.618a9.117,9.117,0,1,0-9.24-9.128,9.18,9.18,0,0,0,9.24,9.128M56.933,96.561A11.542,11.542,0,0,1,68.008,85.4c.091-.022,5.934-.022,5.934-.022l-.023-3.356L60.6,79.514l-1-3.937A1.975,1.975,0,0,0,57.7,74.1H54.736a1.119,1.119,0,1,0,0,2.237h2.718c.113.447.5,1.924.883,3.468-1.653,1.007-5.073,3.065-5.911,3.378a5.508,5.508,0,0,1-3.782-.067L38.022,80.454A8.152,8.152,0,0,0,35.6,80.1H28.012a.811.811,0,0,0-.815.738L27.174,85s8.923.559,8.991.582a11.558,11.558,0,0,1,9.716,11.029H56.933ZM34.24,105.98A9.117,9.117,0,1,0,25,96.852a9.18,9.18,0,0,0,9.24,9.128M27.854,76.7a.94.94,0,1,0,0,1.879h8.787a.94.94,0,1,0,0-1.879H27.854m35.081,0a.94.94,0,1,0,0,1.879H72.22v1.074a.951.951,0,0,0,1.9,0V78.463A1.782,1.782,0,0,0,72.334,76.7h-9.4" transform="translate(-25 -74.1)" fill="#fff" fill-rule="evenodd"/>
        </g>
      </g>
    </g>
  </g>
</svg>
