<svg xmlns="http://www.w3.org/2000/svg" width="31.999" height="31.999" viewBox="0 0 31.999 31.999">
  <g id="atv" transform="translate(0 0)">
    <g id="Z_Base_layer_130mm" transform="translate(0 0)">
      <g id="Group_766" data-name="Group 766" transform="translate(0 0)">
        <g id="Group_765" data-name="Group 765">
          <path id="Path_594" data-name="Path 594" d="M31.988,2.1A2.1,2.1,0,0,0,29.9,0H2.09A2.1,2.1,0,0,0,0,2.1V29.9A2.1,2.1,0,0,0,2.09,32H29.909A2.1,2.1,0,0,0,32,29.9V2.1Z" transform="translate(0 0)" fill="#fff"/>
          <path id="Path_595" data-name="Path 595" d="M31.988,2.1A2.1,2.1,0,0,0,29.9,0H2.09A2.1,2.1,0,0,0,0,2.1V29.9A2.1,2.1,0,0,0,2.09,32H29.909A2.1,2.1,0,0,0,32,29.9V2.1Z" transform="translate(0 0)" fill="#38598a"/>
        </g>
      </g>
    </g>
    <g id="atv-2" data-name="atv" transform="translate(2.796 8.5)">
      <g id="Group_768" data-name="Group 768">
        <g id="Group_767" data-name="Group 767">
          <path id="Path_596" data-name="Path 596" d="M29.62,83.731a1.745,1.745,0,1,0,1.766,1.745,1.758,1.758,0,0,0-1.766-1.745m17.155,0a1.745,1.745,0,1,0,1.766,1.745,1.758,1.758,0,0,0-1.766-1.745m0,6.309a4.559,4.559,0,1,0-4.62-4.564,4.59,4.59,0,0,0,4.62,4.564M40.966,85.33A5.771,5.771,0,0,1,46.5,79.749c.045-.011,2.967-.011,2.967-.011l-.011-1.678L42.8,76.807l-.5-1.969a.987.987,0,0,0-.951-.738H39.868a.559.559,0,1,0,0,1.119h1.359c.057.224.249.962.442,1.734-.827.5-2.536,1.532-2.955,1.689a2.754,2.754,0,0,1-1.891-.034l-5.311-1.331A4.076,4.076,0,0,0,30.3,77.1H26.506a.405.405,0,0,0-.408.369l-.011,2.081s4.461.28,4.5.291a5.779,5.779,0,0,1,4.858,5.515h5.526ZM29.62,90.04A4.559,4.559,0,1,0,25,85.476a4.59,4.59,0,0,0,4.62,4.564M26.427,75.4a.47.47,0,1,0,0,.94H30.82a.47.47,0,1,0,0-.94H26.427m17.54,0a.47.47,0,1,0,0,.94H48.61v.537a.476.476,0,0,0,.951,0v-.593a.891.891,0,0,0-.895-.884h-4.7" transform="translate(-25 -74.1)" fill="#fff" fill-rule="evenodd"/>
        </g>
      </g>
    </g>
  </g>
</svg>
