<svg xmlns="http://www.w3.org/2000/svg" width="16" height="16.2" viewBox="0 0 16 16.2">
  <g id="canoeing" transform="translate(0)">
    <g id="Z_Base_layer_130mm" transform="translate(0 0)">
      <g id="Group_773" data-name="Group 773" transform="translate(0)">
        <path id="Path_603" data-name="Path 603" d="M15.994,1.061A1.054,1.054,0,0,0,14.949,0H1.045A1.054,1.054,0,0,0,0,1.061V15.139A1.054,1.054,0,0,0,1.045,16.2h13.91A1.054,1.054,0,0,0,16,15.139V1.061Z" transform="translate(0)" fill="#38598a"/>
        <path id="Path_604" data-name="Path 604" d="M15.994,1.061A1.054,1.054,0,0,0,14.949,0H1.045A1.054,1.054,0,0,0,0,1.061V15.139A1.054,1.054,0,0,0,1.045,16.2h13.91A1.054,1.054,0,0,0,16,15.139V1.061Z" transform="translate(0)" fill="#38598a"/>
      </g>
    </g>
    <g id="Canoeing-2" data-name="Canoeing" transform="translate(1.273 5.553)">
      <g id="Group_776" data-name="Group 776">
        <g id="Group_775" data-name="Group 775">
          <path id="Path_605" data-name="Path 605" d="M89.782,99.063a.582.582,0,1,0-.582-.582A.579.579,0,0,0,89.782,99.063Z" transform="translate(-85.431 -97.849)" fill="#fff"/>
          <path id="Path_606" data-name="Path 606" d="M196.889,98.171a.577.577,0,1,0-.132-1.146.581.581,0,0,0-.513.639A.59.59,0,0,0,196.889,98.171Z" transform="translate(-186.458 -97.02)" fill="#fff"/>
          <g id="Group_774" data-name="Group 774" transform="translate(0 1.007)">
            <path id="Path_607" data-name="Path 607" d="M223.94,181.8Z" transform="translate(-212.588 -177.924)" fill="#fff"/>
            <path id="Path_608" data-name="Path 608" d="M35.549,117.523a2.086,2.086,0,0,0-.569-1.135,11.074,11.074,0,0,1-1.756.426c.236-.582.608-1.526.642-1.641.045-.167.09-.374-.1-.351s-1.419.3-1.419.3-.642-.731-.8-.564c-1.374,1.382-1.509,2.3-1.509,2.6-.45.023-.923.035-1.435.035-.659,0-1.261-.023-1.807-.063.276-.513.867-1.613.918-1.734.062-.161.129-.357-.062-.357s-1.441.132-1.441.132-.552-.8-.737-.657a4.806,4.806,0,0,0-1.728,2.137,6.219,6.219,0,0,1-1.188-.42,3.3,3.3,0,0,0-.45,1.33c0,.576.231.818,1.469.818.36,0,.653-.132.7-.484h.017c.051.351.343.484.7.484s.653-.132.7-.49h.011c.045.351.343.49.7.49s.653-.132.7-.49h.011c.051.351.343.49.7.49s.659-.132.7-.49h.011c.045.357.343.49.7.49s.659-.138.7-.49h.017c.045.357.338.49.7.49s.659-.132.7-.49h.011c.045.357.343.49.7.49s.653-.132.7-.49h.017c.045.357.338.49.7.49C35.222,118.369,35.549,118.3,35.549,117.523Zm-9.6-2a1.209,1.209,0,0,0,.383.167,2.938,2.938,0,0,0,1.025-.265s-.439.8-.478.818c-1.182.587-1.407-.259-1.407-.259Zm-.9,1.4-.062-.092s.158-.328.191-.294c.5.513,1.6.035,1.6.035l-.281.536C25.956,117.051,25.472,116.993,25.05,116.918Zm7.082-1.411a1.26,1.26,0,0,0,.4.121,2.948,2.948,0,0,0,.991-.38s-.349.847-.388.87c-1.109.72-1.43-.1-1.43-.1Zm-.692,1.549-.113-.138s.124-.346.158-.317c.557.455,1.593-.156,1.593-.156l-.163.415C32.486,116.935,32,117,31.439,117.056Z" transform="translate(-22.1 -114.499)" fill="#fff"/>
          </g>
        </g>
      </g>
    </g>
  </g>
</svg>
