<svg xmlns="http://www.w3.org/2000/svg" width="63.357" height="63.201" viewBox="0 0 63.357 63.201">
  <g id="canoeing" transform="translate(0 0)">
    <g id="Z_Base_layer_130mm" transform="translate(0 0)">
      <g id="Group_773" data-name="Group 773">
        <path id="Path_603" data-name="Path 603" d="M63.335,4.139A4.144,4.144,0,0,0,59.2,0H4.139A4.144,4.144,0,0,0,0,4.139V59.062A4.144,4.144,0,0,0,4.139,63.2h55.08a4.144,4.144,0,0,0,4.139-4.139V4.139Z" fill="#38598a"/>
        <path id="Path_604" data-name="Path 604" d="M63.335,4.139A4.144,4.144,0,0,0,59.2,0H4.139A4.144,4.144,0,0,0,0,4.139V59.062A4.144,4.144,0,0,0,4.139,63.2h55.08a4.144,4.144,0,0,0,4.139-4.139V4.139Z" fill="#38598a"/>
      </g>
    </g>
    <g id="Canoeing-2" data-name="Canoeing" transform="translate(4.944 21.705)">
      <g id="Group_776" data-name="Group 776">
        <g id="Group_775" data-name="Group 775">
          <path id="Path_605" data-name="Path 605" d="M91.46,102.419a2.26,2.26,0,1,0-2.26-2.26A2.249,2.249,0,0,0,91.46,102.419Z" transform="translate(-74.188 -97.703)" fill="#fff"/>
          <path id="Path_606" data-name="Path 606" d="M198.759,101.49a2.241,2.241,0,1,0-.515-4.452,2.257,2.257,0,0,0-1.991,2.483A2.291,2.291,0,0,0,198.759,101.49Z" transform="translate(-157.282 -97.02)" fill="#fff"/>
          <g id="Group_774" data-name="Group 774" transform="translate(0 3.91)">
            <path id="Path_607" data-name="Path 607" d="M224.057,181.8Z" transform="translate(-178.753 -166.744)" fill="#fff"/>
            <path id="Path_608" data-name="Path 608" d="M75.547,126.245c0-2.1-2.26-4.407-2.26-4.407a44.838,44.838,0,0,1-6.98,1.656c.94-2.26,2.416-5.929,2.55-6.376.179-.649.358-1.454-.4-1.365s-5.638,1.163-5.638,1.163-2.55-2.841-3.2-2.192c-5.459,5.369-6,8.926-6,10.112-1.79.089-3.669.134-5.7.134-2.618,0-5.011-.089-7.181-.246,1.1-1.991,3.445-6.264,3.647-6.734.246-.626.515-1.387-.246-1.387s-5.727.515-5.727.515-2.192-3.11-2.931-2.55c-4.743,3.714-6.331,6.644-6.868,8.3a25.075,25.075,0,0,1-4.72-1.633s-1.79,2.931-1.79,5.168.917,3.177,5.839,3.177c1.432,0,2.6-.515,2.8-1.879H30.8c.2,1.365,1.365,1.879,2.8,1.879s2.6-.515,2.8-1.9h.045c.179,1.365,1.365,1.9,2.8,1.9s2.6-.515,2.8-1.9h.045c.2,1.365,1.365,1.9,2.8,1.9s2.618-.515,2.8-1.9h.045c.179,1.387,1.365,1.9,2.8,1.9s2.618-.537,2.8-1.9h.067c.179,1.387,1.342,1.9,2.774,1.9s2.618-.515,2.8-1.9h.045c.179,1.387,1.365,1.9,2.8,1.9s2.6-.515,2.8-1.9h.067c.179,1.387,1.342,1.9,2.774,1.9C74.249,129.533,75.547,129.265,75.547,126.245ZM37.4,118.459a4.856,4.856,0,0,0,1.521.649c1.007.246,4.072-1.029,4.072-1.029s-1.745,3.11-1.9,3.177c-4.7,2.282-5.593-1.007-5.593-1.007Zm-3.58,5.436-.246-.358s.626-1.275.761-1.141c1.991,1.991,6.354.134,6.354.134l-1.119,2.081C37.425,124.41,35.5,124.186,33.823,123.9Zm28.144-5.481a5.088,5.088,0,0,0,1.588.47c1.029.134,3.937-1.477,3.937-1.477s-1.387,3.289-1.544,3.378c-4.407,2.8-5.682-.38-5.682-.38Zm-2.752,6.018-.447-.537s.492-1.342.626-1.23c2.215,1.767,6.331-.6,6.331-.6l-.649,1.611C63.376,123.963,61.43,124.231,59.215,124.432Z" transform="translate(-22.1 -114.499)" fill="#fff"/>
          </g>
        </g>
      </g>
    </g>
  </g>
</svg>
