<svg xmlns="http://www.w3.org/2000/svg" width="32" height="32" viewBox="0 0 32 32">
  <g id="canoeing" transform="translate(0 0)">
    <g id="Z_Base_layer_130mm" transform="translate(0 0)">
      <g id="Group_773" data-name="Group 773" transform="translate(0)">
        <path id="Path_603" data-name="Path 603" d="M31.989,2.1A2.1,2.1,0,0,0,29.9,0H2.09A2.1,2.1,0,0,0,0,2.1V29.9A2.1,2.1,0,0,0,2.09,32H29.91A2.1,2.1,0,0,0,32,29.9V2.1Z" transform="translate(0)" fill="#38598a"/>
        <path id="Path_604" data-name="Path 604" d="M31.989,2.1A2.1,2.1,0,0,0,29.9,0H2.09A2.1,2.1,0,0,0,0,2.1V29.9A2.1,2.1,0,0,0,2.09,32H29.91A2.1,2.1,0,0,0,32,29.9V2.1Z" transform="translate(0)" fill="#38598a"/>
      </g>
    </g>
    <g id="Canoeing-2" data-name="Canoeing" transform="translate(2.503 10.991)">
      <g id="Group_776" data-name="Group 776">
        <g id="Group_775" data-name="Group 775">
          <path id="Path_605" data-name="Path 605" d="M90.344,100.188A1.144,1.144,0,1,0,89.2,99.044,1.138,1.138,0,0,0,90.344,100.188Z" transform="translate(-81.623 -97.8)" fill="#fff"/>
          <path id="Path_606" data-name="Path 606" d="M197.516,99.283a1.134,1.134,0,0,0-.26-2.254,1.143,1.143,0,0,0-1.008,1.257A1.16,1.16,0,0,0,197.516,99.283Z" transform="translate(-176.577 -97.02)" fill="#fff"/>
          <g id="Group_774" data-name="Group 774" transform="translate(0 1.979)">
            <path id="Path_607" data-name="Path 607" d="M223.979,181.8Z" transform="translate(-201.119 -174.178)" fill="#fff"/>
            <path id="Path_608" data-name="Path 608" d="M49.083,120.445a4.077,4.077,0,0,0-1.141-2.231,22.588,22.588,0,0,1-3.524.838c.474-1.144,1.22-3,1.288-3.228.09-.328.181-.736-.2-.691s-2.846.589-2.846.589-1.288-1.438-1.615-1.11c-2.756,2.718-3.027,4.519-3.027,5.119-.9.045-1.852.068-2.88.068-1.321,0-2.53-.045-3.626-.125.553-1.008,1.739-3.171,1.841-3.409.124-.317.26-.7-.124-.7s-2.891.26-2.891.26-1.107-1.574-1.48-1.291c-2.394,1.88-3.2,3.364-3.467,4.2A12.638,12.638,0,0,1,23,117.908a6.407,6.407,0,0,0-.9,2.616c0,1.132.463,1.608,2.948,1.608.723,0,1.31-.26,1.412-.951h.034c.1.691.689.951,1.412.951s1.31-.26,1.412-.963h.023c.09.691.689.963,1.412.963s1.31-.26,1.412-.963h.023c.1.691.689.963,1.412.963s1.321-.26,1.412-.963h.023c.09.7.689.963,1.412.963s1.321-.272,1.412-.963h.034c.09.7.678.963,1.4.963s1.321-.26,1.412-.963h.023c.09.7.689.963,1.412.963s1.31-.26,1.412-.963h.034c.09.7.678.963,1.4.963C48.428,122.11,49.083,121.974,49.083,120.445ZM29.826,116.5a2.449,2.449,0,0,0,.768.328,5.989,5.989,0,0,0,2.056-.521s-.881,1.574-.96,1.608c-2.372,1.155-2.824-.51-2.824-.51Zm-1.807,2.752-.124-.181s.316-.646.384-.578c1.005,1.008,3.208.068,3.208.068l-.565,1.053C29.837,119.516,28.866,119.4,28.018,119.256Zm14.209-2.775a2.564,2.564,0,0,0,.8.238,5.986,5.986,0,0,0,1.988-.747s-.7,1.665-.779,1.71c-2.225,1.416-2.869-.193-2.869-.193Zm-1.389,3.046-.226-.272s.248-.679.316-.623c1.118.895,3.2-.306,3.2-.306l-.328.815C42.939,119.29,41.956,119.426,40.838,119.527Z" transform="translate(-22.1 -114.499)" fill="#fff"/>
          </g>
        </g>
      </g>
    </g>
  </g>
</svg>
