<svg xmlns="http://www.w3.org/2000/svg" width="48" height="47.999" viewBox="0 0 48 47.999">
  <g id="canoeing" transform="translate(0 0)">
    <g id="Z_Base_layer_130mm" transform="translate(0 0)">
      <g id="Group_773" data-name="Group 773">
        <path id="Path_603" data-name="Path 603" d="M47.983,3.143A3.143,3.143,0,0,0,44.847,0H3.136A3.143,3.143,0,0,0,0,3.143V44.855A3.143,3.143,0,0,0,3.136,48H44.864A3.143,3.143,0,0,0,48,44.855V3.143Z" fill="#38598a"/>
        <path id="Path_604" data-name="Path 604" d="M47.983,3.143A3.143,3.143,0,0,0,44.847,0H3.136A3.143,3.143,0,0,0,0,3.143V44.855A3.143,3.143,0,0,0,3.136,48H44.864A3.143,3.143,0,0,0,48,44.855V3.143Z" fill="#38598a"/>
      </g>
    </g>
    <g id="Canoeing-2" data-name="Canoeing" transform="translate(3.755 16.485)">
      <g id="Group_776" data-name="Group 776">
        <g id="Group_775" data-name="Group 775">
          <path id="Path_605" data-name="Path 605" d="M90.916,101.332A1.716,1.716,0,1,0,89.2,99.616,1.708,1.708,0,0,0,90.916,101.332Z" transform="translate(-77.835 -97.751)" fill="#fff"/>
          <path id="Path_606" data-name="Path 606" d="M198.154,100.415a1.7,1.7,0,1,0-.391-3.381,1.714,1.714,0,0,0-1.512,1.886A1.74,1.74,0,0,0,198.154,100.415Z" transform="translate(-166.746 -97.02)" fill="#fff"/>
          <g id="Group_774" data-name="Group 774" transform="translate(0 2.97)">
            <path id="Path_607" data-name="Path 607" d="M224.019,181.8Z" transform="translate(-189.731 -170.365)" fill="#fff"/>
            <path id="Path_608" data-name="Path 608" d="M62.573,123.419c0-1.6-1.711-3.347-1.711-3.347a33.874,33.874,0,0,1-5.286,1.257c.712-1.716,1.83-4.5,1.931-4.842.136-.493.271-1.1-.3-1.036s-4.269.884-4.269.884-1.931-2.158-2.423-1.665c-4.134,4.078-4.54,6.779-4.54,7.68-1.355.068-2.778.1-4.32.1-1.982,0-3.795-.068-5.438-.187.83-1.512,2.609-4.757,2.761-5.114.186-.476.39-1.053-.186-1.053s-4.337.391-4.337.391-1.66-2.362-2.219-1.937c-3.592,2.82-4.794,5.046-5.2,6.3a18.954,18.954,0,0,1-3.575-1.24,9.614,9.614,0,0,0-1.355,3.925c0,1.7.695,2.413,4.422,2.413,1.084,0,1.965-.391,2.118-1.427h.051c.152,1.036,1.033,1.427,2.118,1.427s1.965-.391,2.118-1.444h.034c.136,1.036,1.033,1.444,2.118,1.444s1.965-.391,2.118-1.444h.034c.152,1.036,1.033,1.444,2.118,1.444s1.982-.391,2.118-1.444H41.5c.136,1.053,1.033,1.444,2.118,1.444s1.982-.408,2.118-1.444h.051c.136,1.053,1.016,1.444,2.1,1.444s1.982-.391,2.118-1.444h.034c.136,1.053,1.033,1.444,2.118,1.444s1.965-.391,2.118-1.444h.051c.136,1.053,1.016,1.444,2.1,1.444C61.59,125.917,62.573,125.713,62.573,123.419Zm-28.885-5.913A3.673,3.673,0,0,0,34.84,118c.762.187,3.083-.782,3.083-.782s-1.321,2.362-1.44,2.413c-3.558,1.733-4.235-.765-4.235-.765Zm-2.711,4.129-.186-.272s.474-.968.576-.867c1.508,1.512,4.811.1,4.811.1l-.847,1.58C33.7,122.026,32.248,121.856,30.977,121.635Zm21.312-4.163a3.845,3.845,0,0,0,1.2.357c.779.1,2.982-1.121,2.982-1.121s-1.05,2.5-1.169,2.566c-3.337,2.124-4.3-.289-4.3-.289Zm-2.084,4.57-.339-.408s.373-1.019.474-.934c1.677,1.342,4.794-.459,4.794-.459l-.491,1.223C53.357,121.686,51.883,121.89,50.206,122.043Z" transform="translate(-22.1 -114.499)" fill="#fff"/>
          </g>
        </g>
      </g>
    </g>
  </g>
</svg>
