<svg xmlns="http://www.w3.org/2000/svg" width="32" height="32" viewBox="0 0 32 32">
  <g id="caving" transform="translate(0 0)">
    <g id="Z_Base_layer_130mm" transform="translate(0 0)">
      <g id="Group_781" data-name="Group 781" transform="translate(0)">
        <path id="Path_616" data-name="Path 616" d="M31.989,2.1A2.1,2.1,0,0,0,29.9,0H2.09A2.1,2.1,0,0,0,0,2.1V29.9A2.1,2.1,0,0,0,2.09,32H29.91A2.1,2.1,0,0,0,32,29.9V2.1Z" transform="translate(0)" fill="#fff"/>
        <path id="Path_617" data-name="Path 617" d="M31.989,2.1A2.1,2.1,0,0,0,29.9,0H2.09A2.1,2.1,0,0,0,0,2.1V29.9A2.1,2.1,0,0,0,2.09,32H29.91A2.1,2.1,0,0,0,32,29.9V2.1Z" transform="translate(0)" fill="#38598a"/>
      </g>
    </g>
    <g id="Spelunking" transform="translate(2.979 7.365)">
      <g id="Group_784" data-name="Group 784">
        <g id="Group_783" data-name="Group 783">
          <g id="Group_782" data-name="Group 782">
            <path id="Path_618" data-name="Path 618" d="M142.3,73.984l5.629.679-.736-.679V72.308l-.985.566C146.207,72.886,143.24,70.179,142.3,73.984Z" transform="translate(-129.209 -71.164)" fill="#fff"/>
            <path id="Path_619" data-name="Path 619" d="M142.094,94.9l4.27.68s-.317,2.5-2.6,2.14S142.094,94.9,142.094,94.9Z" transform="translate(-128.955 -91.514)" fill="#fff"/>
            <path id="Path_620" data-name="Path 620" d="M188.3,66.563V67.4l7.769,2.084V65Z" transform="translate(-170.026 -65)" fill="#fff"/>
            <path id="Path_621" data-name="Path 621" d="M91.7,98.1l4.27.215v1.246l-4.168-.1Z" transform="translate(-84.318 -94.351)" fill="#fff"/>
            <path id="Path_622" data-name="Path 622" d="M46.572,122.089l-6.195-6.149s-.2-1.982-1.461-2.14a32.944,32.944,0,0,0-7.508.1c-1.721.419-3.284.827-2.922,3.228.159,1.042,2.809,3.647,2.809,3.647H26.3l.464,1.778h6.557s.8.679-.623.679H26.3l.476,1.755h9.071c.736,0,1.948-.883,1.246-1.8-.759-1.008-3.488-4.53-3.488-4.53s4.326-.159,5.209-.94L40.434,121l5.164,3.386.521-.521-2.718-3,2.82,1.959Z" transform="translate(-26.3 -108.125)" fill="#fff"/>
          </g>
        </g>
      </g>
    </g>
  </g>
</svg>
