<svg xmlns="http://www.w3.org/2000/svg" width="16" height="16" viewBox="0 0 16 16">
  <g id="caving" transform="translate(0 0)">
    <g id="Z_Base_layer_130mm" transform="translate(0 0)">
      <g id="Group_781" data-name="Group 781" transform="translate(0)">
        <path id="Path_616" data-name="Path 616" d="M15.994,1.048A1.048,1.048,0,0,0,14.949,0H1.045A1.048,1.048,0,0,0,0,1.048v13.9A1.048,1.048,0,0,0,1.045,16h13.91A1.048,1.048,0,0,0,16,14.952V1.048Z" transform="translate(0)" fill="#fff"/>
        <path id="Path_617" data-name="Path 617" d="M15.994,1.048A1.048,1.048,0,0,0,14.949,0H1.045A1.048,1.048,0,0,0,0,1.048v13.9A1.048,1.048,0,0,0,1.045,16h13.91A1.048,1.048,0,0,0,16,14.952V1.048Z" transform="translate(0)" fill="#38598a"/>
      </g>
    </g>
    <g id="Spelunking" transform="translate(1.508 3.631)">
      <g id="Group_784" data-name="Group 784">
        <g id="Group_783" data-name="Group 783">
          <g id="Group_782" data-name="Group 782">
            <path id="Path_618" data-name="Path 618" d="M142.3,72.981l2.85.344-.373-.344v-.849l-.5.287C144.278,72.424,142.776,71.054,142.3,72.981Z" transform="translate(-135.801 -71.553)" fill="#fff"/>
            <path id="Path_619" data-name="Path 619" d="M142.056,94.9l2.162.344s-.161,1.267-1.319,1.084S142.056,94.9,142.056,94.9Z" transform="translate(-135.525 -93.186)" fill="#fff"/>
            <path id="Path_620" data-name="Path 620" d="M188.3,65.791v.424l3.933,1.055V65Z" transform="translate(-179.249 -65)" fill="#fff"/>
            <path id="Path_621" data-name="Path 621" d="M91.7,98.1l2.162.109v.631l-2.11-.052Z" transform="translate(-88.031 -96.202)" fill="#fff"/>
            <path id="Path_622" data-name="Path 622" d="M36.563,117.914,33.427,114.8s-.1-1-.74-1.084a16.679,16.679,0,0,0-3.8.052c-.871.212-1.663.419-1.479,1.634.08.527,1.422,1.846,1.422,1.846H26.3l.235.9h3.32s.407.344-.315.344H26.3l.241.889h4.592c.373,0,.986-.447.631-.912-.384-.51-1.766-2.293-1.766-2.293a7.628,7.628,0,0,0,2.637-.476l.82,1.663,2.614,1.714.264-.264-1.376-1.519,1.428.992Z" transform="translate(-26.3 -110.845)" fill="#fff"/>
          </g>
        </g>
      </g>
    </g>
  </g>
</svg>
