<svg xmlns="http://www.w3.org/2000/svg" width="48" height="47.999" viewBox="0 0 48 47.999">
  <g id="caving" transform="translate(0 0)">
    <g id="Z_Base_layer_130mm" transform="translate(0 0)">
      <g id="Group_781" data-name="Group 781">
        <path id="Path_616" data-name="Path 616" d="M47.983,3.143A3.143,3.143,0,0,0,44.847,0H3.136A3.143,3.143,0,0,0,0,3.143V44.855A3.143,3.143,0,0,0,3.136,48H44.864A3.143,3.143,0,0,0,48,44.855V3.143Z" fill="#fff"/>
        <path id="Path_617" data-name="Path 617" d="M47.983,3.143A3.143,3.143,0,0,0,44.847,0H3.136A3.143,3.143,0,0,0,0,3.143V44.855A3.143,3.143,0,0,0,3.136,48H44.864A3.143,3.143,0,0,0,48,44.855V3.143Z" fill="#38598a"/>
      </g>
    </g>
    <g id="Spelunking" transform="translate(4.468 11.044)">
      <g id="Group_784" data-name="Group 784">
        <g id="Group_783" data-name="Group 783">
          <g id="Group_782" data-name="Group 782">
            <path id="Path_618" data-name="Path 618" d="M142.3,75l8.444,1.019L149.64,75V72.486l-1.478.85C148.162,73.353,143.71,69.292,142.3,75Z" transform="translate(-122.666 -70.77)" fill="#fff"/>
            <path id="Path_619" data-name="Path 619" d="M142.133,94.9l6.406,1.019s-.476,3.755-3.908,3.211C141.2,98.57,142.133,94.9,142.133,94.9Z" transform="translate(-122.426 -89.82)" fill="#fff"/>
            <path id="Path_620" data-name="Path 620" d="M188.3,67.345V68.6l11.656,3.126V65Z" transform="translate(-160.893 -65)" fill="#fff"/>
            <path id="Path_621" data-name="Path 621" d="M91.7,98.1l6.406.323v1.869l-6.253-.153Z" transform="translate(-80.628 -92.476)" fill="#fff"/>
            <path id="Path_622" data-name="Path 622" d="M56.713,126.319l-9.294-9.226s-.306-2.973-2.192-3.211c-1.869-.238-8.682-.476-11.265.153s-4.927,1.24-4.384,4.842c.238,1.563,4.214,5.471,4.214,5.471H26.3l.7,2.668h9.838s1.206,1.019-.934,1.019H26.3l.714,2.634h13.61c1.1,0,2.922-1.325,1.869-2.7-1.138-1.512-5.233-6.8-5.233-6.8s6.49-.238,7.816-1.41l2.43,4.927,7.748,5.08.782-.782-4.078-4.5,4.231,2.939Z" transform="translate(-26.3 -105.37)" fill="#fff"/>
          </g>
        </g>
      </g>
    </g>
  </g>
</svg>
