<svg xmlns="http://www.w3.org/2000/svg" width="16" height="16" viewBox="0 0 16 16">
  <g id="climbing" transform="translate(0)">
    <g id="Z_Base_layer_130mm" transform="translate(0 0)">
      <g id="Group_789" data-name="Group 789" transform="translate(0)">
        <path id="Path_629" data-name="Path 629" d="M15.995,1.048A1.048,1.048,0,0,0,14.949,0H1.045A1.048,1.048,0,0,0,0,1.048v13.9A1.048,1.048,0,0,0,1.045,16h13.91A1.048,1.048,0,0,0,16,14.952V1.048Z" transform="translate(0)" fill="#fff"/>
        <path id="Path_630" data-name="Path 630" d="M15.995,1.048A1.048,1.048,0,0,0,14.949,0H1.045A1.048,1.048,0,0,0,0,1.048v13.9A1.048,1.048,0,0,0,1.045,16h13.91A1.048,1.048,0,0,0,16,14.952V1.048Z" transform="translate(0)" fill="#38598a"/>
      </g>
    </g>
    <g id="Climbing-2" data-name="Climbing" transform="translate(2.243 0.679)">
      <g id="Group_792" data-name="Group 792">
        <g id="Group_791" data-name="Group 791">
          <g id="Group_790" data-name="Group 790">
            <path id="Path_631" data-name="Path 631" d="M82.278,33.8a1.09,1.09,0,0,1,.289-1.619,1.306,1.306,0,0,1,1.642.108l.629.26Z" transform="translate(-79.621 -30.826)" fill="#fff"/>
            <path id="Path_632" data-name="Path 632" d="M89.8,54.85a.911.911,0,0,0,1.121.651c.94-.159.81-1.489.838-1.512S89.8,54.85,89.8,54.85Z" transform="translate(-86.956 -51.61)" fill="#fff"/>
            <path id="Path_633" data-name="Path 633" d="M48.261,20.926l-.521.7L45.5,20.349l-1.36.94,1.671,1.2,1.173,1.96-.442.651-1.592-1.665-2.872-1.15v4.152h-.414V22.076s-1.1-.289-.521-2.039L39.6,18.055l2.272-2.062a.715.715,0,0,1,.731-.028c.312.232.912.651.912.651l1.41-.651.572-1.512V12h.391v2.322l.21.1L45.6,16.7,44.058,17.72l-.94,2.141a20.092,20.092,0,0,0,2.43-1.07Zm-7.018-1.773.21-1.541-.731.521Z" transform="translate(-39.6 -12)" fill="#fff"/>
          </g>
          <path id="Path_634" data-name="Path 634" d="M158.753,25.88,159.982,24l-.391-1.019,2.01-2.872V18.834l-1.331-.94V14.031l-1.67-1.172.091-.759h5.883s.221.023.221.181v14.08a.185.185,0,0,1-.181.159c-1.653,0-1.738.006-5.668.006" transform="translate(-151.898 -12.094)" fill="#fff"/>
        </g>
      </g>
    </g>
  </g>
</svg>
