<svg xmlns="http://www.w3.org/2000/svg" width="32" height="32" viewBox="0 0 32 32">
  <g id="climbing" transform="translate(0 0)">
    <g id="Z_Base_layer_130mm" transform="translate(0 0)">
      <g id="Group_789" data-name="Group 789" transform="translate(0)">
        <path id="Path_629" data-name="Path 629" d="M31.989,2.1A2.1,2.1,0,0,0,29.9,0H2.09A2.1,2.1,0,0,0,0,2.1V29.9A2.1,2.1,0,0,0,2.09,32H29.91A2.1,2.1,0,0,0,32,29.9V2.1Z" transform="translate(0)" fill="#fff"/>
        <path id="Path_630" data-name="Path 630" d="M31.989,2.1A2.1,2.1,0,0,0,29.9,0H2.09A2.1,2.1,0,0,0,0,2.1V29.9A2.1,2.1,0,0,0,2.09,32H29.91A2.1,2.1,0,0,0,32,29.9V2.1Z" transform="translate(0)" fill="#38598a"/>
      </g>
    </g>
    <g id="Climbing-2" data-name="Climbing" transform="translate(4.484 1.359)">
      <g id="Group_792" data-name="Group 792">
        <g id="Group_791" data-name="Group 791">
          <g id="Group_790" data-name="Group 790">
            <path id="Path_631" data-name="Path 631" d="M82.531,35.653s-1.461-2.084.578-3.239a2.613,2.613,0,0,1,3.284.215l1.257.521Z" transform="translate(-77.217 -29.696)" fill="#fff"/>
            <path id="Path_632" data-name="Path 632" d="M89.8,55.711a1.822,1.822,0,0,0,2.242,1.3c1.88-.317,1.619-2.978,1.676-3.024S89.8,55.711,89.8,55.711Z" transform="translate(-84.112 -49.232)" fill="#fff"/>
            <path id="Path_633" data-name="Path 633" d="M56.922,29.852l-1.042,1.4L51.394,28.7l-2.719,1.88,3.342,2.4L54.362,36.9l-.884,1.3-3.183-3.33-5.744-2.3v8.3h-.827V32.152s-2.2-.578-1.042-4.078L39.6,24.109l4.543-4.123a1.43,1.43,0,0,1,1.461-.057c.623.464,1.824,1.3,1.824,1.3l2.821-1.3L51.394,16.9V12h.782v4.644l.419.2-1,4.554-3.082,2.039-1.881,4.282a40.184,40.184,0,0,0,4.86-2.141ZM42.885,26.307l.419-3.081-1.461,1.042Z" transform="translate(-39.6 -12)" fill="#fff"/>
          </g>
          <path id="Path_634" data-name="Path 634" d="M158.906,39.66l2.458-3.761-.781-2.039,4.02-5.743V25.569l-2.661-1.88V15.963L158.6,13.618l.181-1.518h11.767s.442.045.442.362V40.623a.369.369,0,0,1-.362.317c-3.307,0-3.477.011-11.336.011" transform="translate(-145.196 -12.089)" fill="#fff"/>
        </g>
      </g>
    </g>
  </g>
</svg>
