<svg xmlns="http://www.w3.org/2000/svg" width="48" height="47.999" viewBox="0 0 48 47.999">
  <g id="climbing" transform="translate(0 0)">
    <g id="Z_Base_layer_130mm" transform="translate(0 0)">
      <g id="Group_789" data-name="Group 789">
        <path id="Path_629" data-name="Path 629" d="M47.983,3.143A3.143,3.143,0,0,0,44.847,0H3.136A3.143,3.143,0,0,0,0,3.143V44.855A3.143,3.143,0,0,0,3.136,48H44.864A3.143,3.143,0,0,0,48,44.855V3.143Z" fill="#fff"/>
        <path id="Path_630" data-name="Path 630" d="M47.983,3.143A3.143,3.143,0,0,0,44.847,0H3.136A3.143,3.143,0,0,0,0,3.143V44.855A3.143,3.143,0,0,0,3.136,48H44.864A3.143,3.143,0,0,0,48,44.855V3.143Z" fill="#38598a"/>
      </g>
    </g>
    <g id="Climbing-2" data-name="Climbing" transform="translate(6.728 2.039)">
      <g id="Group_792" data-name="Group 792">
        <g id="Group_791" data-name="Group 791">
          <g id="Group_790" data-name="Group 790">
            <path id="Path_631" data-name="Path 631" d="M82.785,37.5s-2.192-3.126.867-4.859c3.058-1.716,4.927.323,4.927.323l1.886.782Z" transform="translate(-74.816 -28.565)" fill="#fff"/>
            <path id="Path_632" data-name="Path 632" d="M89.8,56.573a2.734,2.734,0,0,0,3.364,1.954c2.82-.476,2.43-4.469,2.515-4.537C95.747,53.905,89.8,56.573,89.8,56.573Z" transform="translate(-81.271 -46.854)" fill="#fff"/>
            <path id="Path_633" data-name="Path 633" d="M65.579,38.777l-1.563,2.107-6.728-3.84-4.078,2.82,5.012,3.6,3.517,5.879L60.414,51.3l-4.774-5-8.614-3.449V55.309h-1.24V42.226s-3.3-.867-1.563-6.117L39.6,30.163l6.813-6.185a2.144,2.144,0,0,1,2.192-.085c.934.7,2.736,1.954,2.736,1.954l4.231-1.954,1.716-4.537V12H58.46v6.966l.629.306-1.5,6.83-4.622,3.058-2.82,6.422c.867,0,7.289-3.211,7.289-3.211ZM44.527,33.459l.629-4.621L42.964,30.4Z" transform="translate(-39.6 -12)" fill="#fff"/>
          </g>
          <path id="Path_634" data-name="Path 634" d="M159.059,53.438l3.687-5.641-1.172-3.058,6.032-8.614V32.3l-3.993-2.82V17.894L158.6,14.377l.272-2.277h17.653s.663.068.663.544V54.883a.554.554,0,0,1-.544.476c-4.961,0-5.216.017-17.008.017" transform="translate(-138.499 -12.083)" fill="#fff"/>
        </g>
      </g>
    </g>
  </g>
</svg>
