<svg xmlns="http://www.w3.org/2000/svg" width="63.357" height="63.201" viewBox="0 0 63.357 63.201">
  <g id="climbing" transform="translate(0 0)">
    <g id="Z_Base_layer_130mm" transform="translate(0 0)">
      <g id="Group_789" data-name="Group 789">
        <path id="Path_629" data-name="Path 629" d="M63.335,4.139A4.144,4.144,0,0,0,59.2,0H4.139A4.144,4.144,0,0,0,0,4.139V59.062A4.144,4.144,0,0,0,4.139,63.2h55.08a4.144,4.144,0,0,0,4.139-4.139V4.139Z" fill="#fff"/>
        <path id="Path_630" data-name="Path 630" d="M63.335,4.139A4.144,4.144,0,0,0,59.2,0H4.139A4.144,4.144,0,0,0,0,4.139V59.062A4.144,4.144,0,0,0,4.139,63.2h55.08a4.144,4.144,0,0,0,4.139-4.139V4.139Z" fill="#38598a"/>
      </g>
    </g>
    <g id="Climbing-2" data-name="Climbing" transform="translate(8.859 2.684)">
      <g id="Group_792" data-name="Group 792">
        <g id="Group_791" data-name="Group 791">
          <g id="Group_790" data-name="Group 790">
            <path id="Path_631" data-name="Path 631" d="M83.025,39.259s-2.886-4.116,1.141-6.4c4.027-2.26,6.488.425,6.488.425l2.483,1.029Z" transform="translate(-72.533 -27.491)" fill="#fff"/>
            <path id="Path_632" data-name="Path 632" d="M89.8,57.391a3.6,3.6,0,0,0,4.43,2.573c3.714-.626,3.2-5.884,3.311-5.973C97.63,53.879,89.8,57.391,89.8,57.391Z" transform="translate(-78.569 -44.595)" fill="#fff"/>
            <path id="Path_633" data-name="Path 633" d="M73.807,47.258l-2.058,2.774-8.859-5.056L57.52,48.69l6.6,4.743,4.631,7.741-1.745,2.573-6.287-6.577L49.377,52.627v16.4H47.743V51.8s-4.34-1.141-2.058-8.054L39.6,35.916l8.971-8.143s1.656-1.029,2.886-.112,3.6,2.573,3.6,2.573L60.63,27.66l2.26-5.973V12h1.544v9.172l.828.4-1.969,8.993L57.207,34.6l-3.714,8.457c1.141,0,9.6-4.228,9.6-4.228Zm-27.719-7,.828-6.085L44.03,36.229Z" transform="translate(-39.6 -12)" fill="#fff"/>
          </g>
          <path id="Path_634" data-name="Path 634" d="M159.2,66.531l4.855-7.427-1.544-4.027,7.942-11.343V38.7L165.2,34.986V19.729L158.6,15.1l.358-3H182.2s.873.089.873.716V68.432a.729.729,0,0,1-.716.626c-6.533,0-6.868.022-22.394.022" transform="translate(-131.977 -12.078)" fill="#fff"/>
        </g>
      </g>
    </g>
  </g>
</svg>
