<svg xmlns="http://www.w3.org/2000/svg" width="64" height="64" viewBox="0 0 64 64">
  <g id="cycling" transform="translate(0 0)">
    <g id="Z_Base_layer_130mm" transform="translate(0 0)">
      <g id="Group_797" data-name="Group 797">
        <path id="Path_645" data-name="Path 645" d="M63.977,4.191A4.191,4.191,0,0,0,59.8,0H4.181A4.191,4.191,0,0,0,0,4.191V59.809A4.191,4.191,0,0,0,4.181,64H59.819A4.191,4.191,0,0,0,64,59.809V4.191Z" fill="#38598a"/>
        <path id="Path_646" data-name="Path 646" d="M63.977,4.191A4.191,4.191,0,0,0,59.8,0H4.181A4.191,4.191,0,0,0,0,4.191V59.809A4.191,4.191,0,0,0,4.181,64H59.819A4.191,4.191,0,0,0,64,59.809V4.191Z" fill="#38598a"/>
      </g>
    </g>
    <g id="Cycling-2" data-name="Cycling" transform="translate(6.868 7.382)">
      <g id="Group_800" data-name="Group 800">
        <g id="Group_799" data-name="Group 799">
          <g id="Group_798" data-name="Group 798">
            <path id="Path_647" data-name="Path 647" d="M191.95,176.625a8.725,8.725,0,1,1-8.725-8.725A8.722,8.722,0,0,1,191.95,176.625Zm-8.725-6.958a6.98,6.98,0,1,0,6.98,6.98A6.989,6.989,0,0,0,183.225,169.667Z" transform="translate(-141.686 -136.921)" fill="#fff"/>
            <path id="Path_648" data-name="Path 648" d="M48.15,176.725A8.725,8.725,0,1,1,39.425,168,8.722,8.722,0,0,1,48.15,176.725Zm-8.725-6.958a6.98,6.98,0,1,0,6.98,6.98A6.989,6.989,0,0,0,39.425,169.767Z" transform="translate(-30.7 -136.998)" fill="#fff"/>
            <path id="Path_649" data-name="Path 649" d="M163.237,117.172s3.624-.134,3.624.805-1.946,2.416-1.946,2.416l8.792,16.466a.6.6,0,0,0,.895.179.713.713,0,0,0,.134-.984l-8.143-15.437a4.463,4.463,0,0,0,1.7-3.087c0-1.79-5.593-1.432-5.593-1.432Z" transform="translate(-132.662 -96.925)" fill="#fff"/>
            <path id="Path_650" data-name="Path 650" d="M144.7,144.4h7.383l.895,1.7h-7.159Z" transform="translate(-118.8 -119.044)" fill="#fff"/>
            <path id="Path_651" data-name="Path 651" d="M154.27,157.2l.895,1.656-9.665,7.785.224-2.416Z" transform="translate(-119.404 -128.833)" fill="#fff"/>
            <path id="Path_652" data-name="Path 652" d="M99.154,74.85H96.962l-6.533-7.369s-1.521,6-2.6,6.911l6.622,5.813A3.837,3.837,0,0,1,95.8,83.272L94.68,94.715a12.89,12.89,0,0,1,2.1.275,1.639,1.639,0,0,1,.984,1.327v.32H91.548L91.95,84l-9.933-7.644s-1.566-1.373.134-6.133,3.222-8.1,3.222-8.1,2.013-2.655,4.385.32S99.154,74.85,99.154,74.85Z" transform="translate(-69.797 -54.763)" fill="#fff"/>
            <path id="Path_653" data-name="Path 653" d="M113.248,35.774A2.774,2.774,0,1,1,110.474,33,2.788,2.788,0,0,1,113.248,35.774Z" transform="translate(-90.222 -33)" fill="#fff"/>
            <path id="Path_654" data-name="Path 654" d="M70.088,133.6h1.745l5.123,3.893-.716.291,4.027,6.98L80,152.146c-1.3-.626-1.342-1.521-1.342-1.521H68.634c-1.342,0-.984-1.029-.984-1.029l5.19-13.177a2.6,2.6,0,0,0-.537-.85,7.25,7.25,0,0,0-2.215-.38Zm-.895,15.593h9.217a3.182,3.182,0,0,1,1.007-2.17l-5.1-8.7Z" transform="translate(-59.206 -110.294)" fill="#fff"/>
          </g>
        </g>
      </g>
    </g>
  </g>
</svg>
