<svg xmlns="http://www.w3.org/2000/svg" width="32" height="32" viewBox="0 0 32 32">
  <g id="cycling" transform="translate(0)">
    <g id="Z_Base_layer_130mm" transform="translate(0 0)">
      <g id="Group_797" data-name="Group 797" transform="translate(0)">
        <path id="Path_645" data-name="Path 645" d="M31.989,2.1A2.1,2.1,0,0,0,29.9,0H2.09A2.1,2.1,0,0,0,0,2.1V29.9A2.1,2.1,0,0,0,2.09,32H29.91A2.1,2.1,0,0,0,32,29.9V2.1Z" transform="translate(0)" fill="#38598a"/>
        <path id="Path_646" data-name="Path 646" d="M31.989,2.1A2.1,2.1,0,0,0,29.9,0H2.09A2.1,2.1,0,0,0,0,2.1V29.9A2.1,2.1,0,0,0,2.09,32H29.91A2.1,2.1,0,0,0,32,29.9V2.1Z" transform="translate(0)" fill="#38598a"/>
      </g>
    </g>
    <g id="Cycling-2" data-name="Cycling" transform="translate(3.476 3.737)">
      <g id="Group_800" data-name="Group 800">
        <g id="Group_799" data-name="Group 799">
          <g id="Group_798" data-name="Group 798">
            <path id="Path_647" data-name="Path 647" d="M183.334,172.317a4.417,4.417,0,1,1-4.417-4.417A4.415,4.415,0,0,1,183.334,172.317Zm-4.417-3.522a3.533,3.533,0,1,0,3.533,3.533A3.538,3.538,0,0,0,178.917,168.795Z" transform="translate(-158.287 -152.616)" fill="#fff"/>
            <path id="Path_648" data-name="Path 648" d="M39.534,172.416A4.417,4.417,0,1,1,35.117,168,4.415,4.415,0,0,1,39.534,172.416Zm-4.417-3.522a3.533,3.533,0,1,0,3.533,3.533A3.538,3.538,0,0,0,35.117,168.894Z" transform="translate(-30.7 -152.704)" fill="#fff"/>
            <path id="Path_649" data-name="Path 649" d="M162.972,116.628s1.835-.068,1.835.408-.985,1.223-.985,1.223l4.451,8.335a.3.3,0,0,0,.453.091.361.361,0,0,0,.068-.5l-4.122-7.814a2.259,2.259,0,0,0,.861-1.563c0-.906-2.831-.725-2.831-.725Z" transform="translate(-147.808 -106.657)" fill="#fff"/>
            <path id="Path_650" data-name="Path 650" d="M144.7,144.4h3.737l.453.861h-3.624Z" transform="translate(-131.834 -131.78)" fill="#fff"/>
            <path id="Path_651" data-name="Path 651" d="M149.939,157.2l.453.838-4.892,3.941.113-1.223Z" transform="translate(-132.546 -143.129)" fill="#fff"/>
            <path id="Path_652" data-name="Path 652" d="M90.367,67.874h-1.11l-3.307-3.648s-.77,2.968-1.314,3.421l3.352,2.878a1.886,1.886,0,0,1,.68,1.518L88.1,77.708a6.666,6.666,0,0,1,1.065.136.813.813,0,0,1,.5.657v.159H86.517l.2-6.254-5.028-3.784s-.793-.68.068-3.036,1.631-4.011,1.631-4.011a1.317,1.317,0,0,1,2.22.159C86.811,63.207,90.367,67.874,90.367,67.874Z" transform="translate(-75.648 -57.86)" fill="#fff"/>
            <path id="Path_653" data-name="Path 653" d="M110.509,34.4a1.4,1.4,0,1,1-1.4-1.4A1.411,1.411,0,0,1,110.509,34.4Z" transform="translate(-99.008 -33)" fill="#fff"/>
            <path id="Path_654" data-name="Path 654" d="M68.863,133.6h.883l2.593,1.971-.362.147,2.039,3.533-.136,3.737c-.657-.317-.68-.77-.68-.77H68.127c-.68,0-.5-.521-.5-.521l2.627-6.67a1.318,1.318,0,0,0-.272-.43,3.67,3.67,0,0,0-1.121-.193Zm-.453,7.894h4.666a1.611,1.611,0,0,1,.51-1.1L71,135.99Z" transform="translate(-63.443 -122.2)" fill="#fff"/>
          </g>
        </g>
      </g>
    </g>
  </g>
</svg>
