<svg xmlns="http://www.w3.org/2000/svg" width="48" height="47.999" viewBox="0 0 48 47.999">
  <g id="cycling" transform="translate(0)">
    <g id="Z_Base_layer_130mm" transform="translate(0 0)">
      <g id="Group_797" data-name="Group 797" transform="translate(0)">
        <path id="Path_645" data-name="Path 645" d="M47.983,3.143A3.143,3.143,0,0,0,44.847,0H3.136A3.143,3.143,0,0,0,0,3.143V44.856A3.143,3.143,0,0,0,3.136,48H44.864A3.143,3.143,0,0,0,48,44.856V3.143Z" transform="translate(0)" fill="#38598a"/>
        <path id="Path_646" data-name="Path 646" d="M47.983,3.143A3.143,3.143,0,0,0,44.847,0H3.136A3.143,3.143,0,0,0,0,3.143V44.856A3.143,3.143,0,0,0,3.136,48H44.864A3.143,3.143,0,0,0,48,44.856V3.143Z" transform="translate(0)" fill="#38598a"/>
      </g>
    </g>
    <g id="Cycling-2" data-name="Cycling" transform="translate(5.216 5.607)">
      <g id="Group_800" data-name="Group 800">
        <g id="Group_799" data-name="Group 799">
          <g id="Group_798" data-name="Group 798">
            <path id="Path_647" data-name="Path 647" d="M187.753,174.526a6.626,6.626,0,1,1-6.626-6.626A6.624,6.624,0,0,1,187.753,174.526Zm-6.626-5.284a5.3,5.3,0,1,0,5.3,5.3A5.308,5.308,0,0,0,181.126,169.242Z" transform="translate(-150.185 -144.979)" fill="#fff"/>
            <path id="Path_648" data-name="Path 648" d="M43.953,174.626A6.626,6.626,0,1,1,37.326,168,6.624,6.624,0,0,1,43.953,174.626Zm-6.626-5.284a5.3,5.3,0,1,0,5.3,5.3A5.308,5.308,0,0,0,37.326,169.342Z" transform="translate(-30.7 -145.062)" fill="#fff"/>
            <path id="Path_649" data-name="Path 649" d="M163.108,116.907s2.753-.1,2.753.612-1.478,1.835-1.478,1.835l6.677,12.505a.454.454,0,0,0,.68.136.542.542,0,0,0,.1-.748l-6.185-11.724a3.39,3.39,0,0,0,1.291-2.345c0-1.359-4.248-1.087-4.248-1.087Z" transform="translate(-140.365 -101.955)" fill="#fff"/>
            <path id="Path_650" data-name="Path 650" d="M144.7,144.4h5.607l.68,1.291H145.55Z" transform="translate(-125.403 -125.472)" fill="#fff"/>
            <path id="Path_651" data-name="Path 651" d="M152.16,157.2l.68,1.257-7.34,5.913.17-1.835Z" transform="translate(-126.07 -136.097)" fill="#fff"/>
            <path id="Path_652" data-name="Path 652" d="M94.874,71.292H93.209l-4.961-5.471s-1.155,4.452-1.971,5.131l5.029,4.316a2.828,2.828,0,0,1,1.019,2.277l-.85,8.5a10,10,0,0,1,1.6.2,1.22,1.22,0,0,1,.748.985v.238H89.1l.306-9.379-7.544-5.675s-1.189-1.019.1-4.554,2.447-6.015,2.447-6.015,1.529-1.971,3.33.238S94.874,71.292,94.874,71.292Z" transform="translate(-72.794 -56.272)" fill="#fff"/>
            <path id="Path_653" data-name="Path 653" d="M111.914,35.107A2.107,2.107,0,1,1,109.807,33,2.117,2.117,0,0,1,111.914,35.107Z" transform="translate(-94.663 -33)" fill="#fff"/>
            <path id="Path_654" data-name="Path 654" d="M69.491,133.6h1.325l3.891,2.956-.544.221,3.058,5.3-.2,5.607C76.033,147.21,76,146.53,76,146.53H68.387c-1.019,0-.748-.782-.748-.782l3.942-10.008a1.977,1.977,0,0,0-.408-.646,5.506,5.506,0,0,0-1.682-.289Zm-.68,11.843h7a2.417,2.417,0,0,1,.765-1.648L72.7,137.185Z" transform="translate(-61.362 -116.507)" fill="#fff"/>
          </g>
        </g>
      </g>
    </g>
  </g>
</svg>
