<svg xmlns="http://www.w3.org/2000/svg" width="16" height="16" viewBox="0 0 16 16">
  <g id="cycling" transform="translate(0)">
    <g id="Z_Base_layer_130mm" transform="translate(0 0)">
      <g id="Group_797" data-name="Group 797" transform="translate(0)">
        <path id="Path_645" data-name="Path 645" d="M15.994,1.048A1.048,1.048,0,0,0,14.949,0H1.045A1.048,1.048,0,0,0,0,1.048v13.9A1.048,1.048,0,0,0,1.045,16h13.91A1.048,1.048,0,0,0,16,14.952V1.048Z" transform="translate(0)" fill="#38598a"/>
        <path id="Path_646" data-name="Path 646" d="M15.994,1.048A1.048,1.048,0,0,0,14.949,0H1.045A1.048,1.048,0,0,0,0,1.048v13.9A1.048,1.048,0,0,0,1.045,16h13.91A1.048,1.048,0,0,0,16,14.952V1.048Z" transform="translate(0)" fill="#38598a"/>
      </g>
    </g>
    <g id="Cycling-2" data-name="Cycling" transform="translate(1.723 1.852)">
      <g id="Group_800" data-name="Group 800">
        <g id="Group_799" data-name="Group 799">
          <g id="Group_798" data-name="Group 798">
            <path id="Path_647" data-name="Path 647" d="M178.878,170.089a2.189,2.189,0,1,1-2.189-2.189A2.188,2.188,0,0,1,178.878,170.089Zm-2.189-1.746a1.751,1.751,0,1,0,1.751,1.751A1.754,1.754,0,0,0,176.689,168.343Z" transform="translate(-166.325 -160.185)" fill="#fff"/>
            <path id="Path_648" data-name="Path 648" d="M35.078,170.189A2.189,2.189,0,1,1,32.889,168,2.188,2.188,0,0,1,35.078,170.189Zm-2.189-1.746a1.751,1.751,0,1,0,1.751,1.751A1.754,1.754,0,0,0,32.889,168.443Z" transform="translate(-30.7 -160.279)" fill="#fff"/>
            <path id="Path_649" data-name="Path 649" d="M162.835,116.346s.909-.034.909.2-.488.606-.488.606l2.206,4.131a.15.15,0,0,0,.225.045.179.179,0,0,0,.034-.247l-2.043-3.873a1.12,1.12,0,0,0,.427-.775c0-.449-1.4-.359-1.4-.359Z" transform="translate(-155.209 -111.307)" fill="#fff"/>
            <path id="Path_650" data-name="Path 650" d="M144.7,144.4h1.852l.225.427h-1.8Z" transform="translate(-138.237 -138.07)" fill="#fff"/>
            <path id="Path_651" data-name="Path 651" d="M147.7,157.2l.225.415-2.425,1.953.056-.606Z" transform="translate(-138.99 -150.125)" fill="#fff"/>
            <path id="Path_652" data-name="Path 652" d="M85.824,64.479h-.55l-1.639-1.837a6.528,6.528,0,0,1-.651,1.723l1.662,1.449a.954.954,0,0,1,.337.764L84.7,69.431a3.255,3.255,0,0,1,.528.068.409.409,0,0,1,.247.331v.08H83.916l.1-3.149-2.492-1.905s-.393-.342.034-1.529.808-2.02.808-2.02.505-.662,1.1.08S85.824,64.479,85.824,64.479Z" transform="translate(-78.479 -59.462)" fill="#fff"/>
            <path id="Path_653" data-name="Path 653" d="M109.092,33.7a.7.7,0,1,1-.7-.7A.7.7,0,0,1,109.092,33.7Z" transform="translate(-103.337 -33)" fill="#fff"/>
            <path id="Path_654" data-name="Path 654" d="M68.229,133.6h.438l1.285.977-.18.073,1.01,1.751-.067,1.852c-.326-.157-.337-.382-.337-.382H67.864c-.337,0-.247-.258-.247-.258l1.3-3.306a.653.653,0,0,0-.135-.213,1.819,1.819,0,0,0-.556-.1ZM68,137.512h2.313a.8.8,0,0,1,.253-.544l-1.28-2.184Z" transform="translate(-65.512 -127.811)" fill="#fff"/>
          </g>
        </g>
      </g>
    </g>
  </g>
</svg>
