<svg xmlns="http://www.w3.org/2000/svg" width="64" height="64" viewBox="0 0 64 64">
  <g id="e-bikes-permitted" transform="translate(0 0)">
    <g id="background" transform="translate(0 0)">
      <path id="Path_666" data-name="Path 666" d="M64,4.182A4.18,4.18,0,0,0,59.823,0H4.179A4.182,4.182,0,0,0,0,4.182V59.813A4.187,4.187,0,0,0,4.179,64H59.823A4.182,4.182,0,0,0,64,59.813Z" transform="translate(0 0)" fill="#38598a"/>
    </g>
    <g id="e-bike" transform="translate(2.805 6.043)">
      <path id="Path_667" data-name="Path 667" d="M18.56,168.461a8.01,8.01,0,1,0,7.953,13.906l.031-.018a8.009,8.009,0,0,0-7.951-13.906l-.029.018M17.551,166.7a10.067,10.067,0,1,1-3.662,13.736A10.067,10.067,0,0,1,17.551,166.7" transform="translate(-12.539 -133.583)" fill="#fff"/>
      <path id="Path_668" data-name="Path 668" d="M164.117,168.636a7.949,7.949,0,1,0,3.991-1.074,7.864,7.864,0,0,0-3.991,1.074m-1.011-1.763a9.982,9.982,0,0,1,13.647,3.638l.025.043a10.018,10.018,0,1,1-17.3,10.1l-.024-.043a10.067,10.067,0,0,1,3.662-13.736" transform="translate(-124.878 -133.734)" fill="#fff"/>
      <path id="Path_669" data-name="Path 669" d="M84.839,132.55l-3.665,8.792-6.609-6.222q-.711-.537-2.186.224L70.273,133.1l.4-.895,14.166.349m1.606,1.217,3.166,4.083,1.566-1.313-4.186-5.278-1.72-.671L71.2,130.55l1.251-3.018c.067-.447-.188-.787-.767-1.029-.421-.539-.28-.852.425-.935l3.526.152a.907.907,0,0,0,.224-1.479h-.031l-.031-.04-4.3-.136q-.651-.043-1.718,1.119-.926.895.186,1.566.734.385.329,1.273l-1.342,3.492-2.311,5.87a23.448,23.448,0,0,1-2.123,3.239l.47,1.532.275-.383.136.235a23.26,23.26,0,0,0,2.864-3.991l.758-1.541.022.034.729-1.526,7.685,8.32q-.695.7-.322,1.342l2.206,2.477a2.014,2.014,0,0,0,1.682.671l.485,1.928-.447.076.161.951,2.134-.36-.159-.953-.633.107-.291-1.864,1.566-.143q1.191-.252,1.04-1.307l2.94-.5c-.049-.159-.092-.318-.13-.481s-.069-.322-.1-.485-.051-.329-.067-.492-.029-.331-.036-.5l-4.251.671a2,2,0,0,0-.116-.716,2.129,2.129,0,0,0-.154-.331,2,2,0,0,0-.213-.3l3.694-9.329" transform="translate(-52.638 -101.547)" fill="#fff"/>
      <path id="Path_670" data-name="Path 670" d="M224.876,59.4l1.441,1.447a4.209,4.209,0,0,0,.322.277,3.893,3.893,0,0,0,3.132.723,3.6,3.6,0,0,0,.378-.1,3.411,3.411,0,0,0,.367-.134c.121-.051.237-.107.351-.17s.224-.132.333-.2l1.673-1.528a.179.179,0,0,0,.029-.029.186.186,0,0,0,.02-.036.13.13,0,0,0,.013-.038.224.224,0,0,0,0-.123s-.011-.025-.018-.036l-.027-.034-1.318-1.389,2.6-2.631a.224.224,0,0,0,.042-.067.188.188,0,0,0,.016-.078.2.2,0,0,0-.016-.081.223.223,0,0,0-.045-.067l-.273-.273-.031-.025a.291.291,0,0,0-.036-.02h-.04a.206.206,0,0,0-.152.031.182.182,0,0,0-.031.027l-2.6,2.629-2.823-2.855,2.6-2.622a.188.188,0,0,0,.06-.145.193.193,0,0,0-.058-.145l-.273-.275a.271.271,0,0,0-.067-.045h-.157a.114.114,0,0,0-.036.02l-.031.025-2.606,2.62-1.374-1.277a.162.162,0,0,0-.034-.025.108.108,0,0,0-.036-.018h-.119l-.038.013-.034.02-.031.027-1.526,1.633a3.955,3.955,0,0,0,.447,4.982" transform="translate(-175.843 -45.936)" fill="#fff"/>
      <path id="Path_671" data-name="Path 671" d="M40.448,189.066l-1.642-5.347-.754,1L36.6,179.35l-1.031,1.342-1.125-4.452a6.823,6.823,0,0,0-3.331,2.195l3.935,5.539.738-.919,2.085,3.958.655-.843,1.917,2.9" transform="translate(-26.955 -142.051)" fill="#fff"/>
      <path id="Path_672" data-name="Path 672" d="M110.046,77.9l-2.32-4.828-6.1,5.718A1.906,1.906,0,1,1,99.035,76a1.656,1.656,0,0,1,.184-.148l10.146-9.718a2.772,2.772,0,0,1,3.92.083,2.74,2.74,0,0,1,.593.944c.027.067.049.132.069.2s.036.134.051.2.027.139.036.208.018.141.022.21l2.32,10.792q.852,2.237-1.213,2.716l-9.347,2.935,3,8.19-2.327,5.568L105.9,94.26l-.638-.416L101.1,83.931a1.765,1.765,0,0,1-.107-.356,1.859,1.859,0,0,1-.036-.369,1.891,1.891,0,0,1,.043-.371,1.823,1.823,0,0,1,.548-.953,1.7,1.7,0,0,1,.3-.224,1.861,1.861,0,0,1,.338-.159l7.859-3.6" transform="translate(-78.892 -56.406)" fill="#fff"/>
      <path id="Path_673" data-name="Path 673" d="M129.72,30.63l2.049.922,1.45,3.58.564.253a4.186,4.186,0,1,0-4.063-4.754" transform="translate(-103.156 -27.013)" fill="#fff"/>
      <path id="Path_674" data-name="Path 674" d="M182.024,183.041H172.97a5.016,5.016,0,0,1,9.054,0m-9.555,2.2h12.206a7.179,7.179,0,1,0-.626,2.949l-1.964-.884a5.022,5.022,0,0,1-9.62-2.065" transform="translate(-134.362 -143.478)" fill="#fff"/>
      <path id="Path_675" data-name="Path 675" d="M208.6,87.2l1.441,1.447-2.908,2.922a2.09,2.09,0,0,0,0,2.942,6.208,6.208,0,0,1,0,8.741l-2.908,2.92-1.441-1.447,2.908-2.922a4.148,4.148,0,0,0,0-5.841,4.148,4.148,0,0,1,0-5.841l2.908-2.908" transform="translate(-159.563 -73.398)" fill="#fff"/>
      <path id="Path_676" data-name="Path 676" d="M153.261,142.259l-.617,1.519-1.242-.468.515-1.3a8.724,8.724,0,0,0-2.756-.87l2.727-.732a10,10,0,0,0,3.3-.224q1.4,0,.349,1.521-.553.671-2.275.546" transform="translate(-118.201 -114.442)" fill="#fff"/>
    </g>
  </g>
</svg>
