<svg xmlns="http://www.w3.org/2000/svg" width="48" height="47.996" viewBox="0 0 48 47.996">
  <g id="e-bikes-permitted" transform="translate(0 0)">
    <g id="background" transform="translate(0 0)">
      <path id="Path_666" data-name="Path 666" d="M48,3.137A3.135,3.135,0,0,0,44.867,0H3.135A3.136,3.136,0,0,0,0,3.137V44.856A3.14,3.14,0,0,0,3.135,48H44.867A3.136,3.136,0,0,0,48,44.856Z" transform="translate(0 0)" fill="#38598a"/>
    </g>
    <g id="e-bike" transform="translate(2.131 4.59)">
      <path id="Path_667" data-name="Path 667" d="M17.112,167.709a6.083,6.083,0,1,0,6.04,10.561l.024-.014A6.083,6.083,0,1,0,17.137,167.7l-.022.014m-.77-1.341A7.646,7.646,0,1,1,13.564,176.8a7.646,7.646,0,0,1,2.781-10.432" transform="translate(-12.539 -141.83)" fill="#fff"/>
      <path id="Path_668" data-name="Path 668" d="M162.67,167.888a6.037,6.037,0,1,0,3.031-.816,5.972,5.972,0,0,0-3.031.816m-.768-1.339a7.581,7.581,0,0,1,10.364,2.763l.019.032a7.608,7.608,0,1,1-13.143,7.67l-.019-.032a7.646,7.646,0,0,1,2.781-10.432" transform="translate(-133.475 -141.991)" fill="#fff"/>
      <path id="Path_669" data-name="Path 669" d="M79.95,130.509l-2.783,6.677-5.019-4.725q-.54-.408-1.66.17l-1.6-1.708.3-.68,10.759.265m1.22.924,2.4,3.1,1.189-1-3.179-4.008-1.307-.51L69.59,128.99l.95-2.292c.051-.34-.143-.6-.583-.782-.319-.409-.212-.647.323-.71l2.678.116a.689.689,0,0,0,.17-1.123H73.1l-.024-.031-3.269-.1q-.494-.032-1.3.85-.7.68.141,1.189.557.292.25.967l-1.019,2.652-1.755,4.458a17.807,17.807,0,0,1-1.612,2.46l.357,1.164.209-.291.1.178a17.666,17.666,0,0,0,2.175-3.031l.576-1.171.017.025.554-1.159,5.836,6.319q-.528.533-.245,1.019l1.675,1.881a1.529,1.529,0,0,0,1.278.51l.369,1.465-.34.058.122.722,1.621-.274-.121-.724-.481.082L78,142l1.189-.109q.9-.191.79-.992l2.233-.382c-.037-.121-.07-.241-.1-.365s-.053-.245-.073-.369-.039-.25-.051-.374-.022-.251-.027-.377l-3.228.51a1.516,1.516,0,0,0-.088-.544,1.616,1.616,0,0,0-.117-.251,1.517,1.517,0,0,0-.161-.226l2.805-7.085" transform="translate(-55.72 -107.574)" fill="#fff"/>
      <path id="Path_670" data-name="Path 670" d="M224.606,57.474l1.094,1.1a3.2,3.2,0,0,0,.245.211,2.956,2.956,0,0,0,2.379.549,2.731,2.731,0,0,0,.287-.073,2.59,2.59,0,0,0,.279-.1c.092-.039.18-.082.267-.129s.17-.1.253-.155l1.271-1.16a.136.136,0,0,0,.022-.022.142.142,0,0,0,.015-.027.1.1,0,0,0,.01-.029.17.17,0,0,0,0-.093s-.008-.019-.014-.027l-.02-.025-1-1.055,1.971-2a.17.17,0,0,0,.032-.051.143.143,0,0,0,.012-.059.152.152,0,0,0-.012-.061.17.17,0,0,0-.034-.051l-.207-.207-.024-.019-.027-.015h-.031a.156.156,0,0,0-.116.024.138.138,0,0,0-.024.02l-1.971,2-2.144-2.168,1.978-1.991a.143.143,0,0,0,.046-.11.146.146,0,0,0-.044-.11l-.207-.209a.206.206,0,0,0-.051-.034h-.119a.086.086,0,0,0-.027.015l-.024.019-1.979,1.99-1.043-.97a.123.123,0,0,0-.025-.019.082.082,0,0,0-.027-.014h-.09l-.029.01-.025.015-.024.02-1.159,1.24a3,3,0,0,0,.34,3.784" transform="translate(-187.973 -47.248)" fill="#fff"/>
      <path id="Path_671" data-name="Path 671" d="M38.2,185.981l-1.247-4.061-.573.759-1.1-4.078-.783,1.019-.855-3.381a5.182,5.182,0,0,0-2.53,1.667l2.989,4.207.561-.7,1.584,3.006.5-.641,1.456,2.2" transform="translate(-27.955 -150.885)" fill="#fff"/>
      <path id="Path_672" data-name="Path 672" d="M107.251,74.888l-1.762-3.667-4.632,4.343a1.448,1.448,0,1,1-1.969-2.122,1.258,1.258,0,0,1,.139-.112l7.705-7.381a2.105,2.105,0,0,1,2.977.063,2.081,2.081,0,0,1,.45.717c.02.051.037.1.053.153s.027.1.039.155.02.105.027.158.014.107.017.16l1.762,8.2q.647,1.7-.921,2.063l-7.1,2.229,2.277,6.22-1.767,4.229L104.1,87.31l-.484-.316-3.162-7.529a1.34,1.34,0,0,1-.082-.27,1.412,1.412,0,0,1-.027-.28,1.435,1.435,0,0,1,.032-.282,1.385,1.385,0,0,1,.416-.724,1.292,1.292,0,0,1,.228-.17,1.413,1.413,0,0,1,.257-.121l5.969-2.73" transform="translate(-83.885 -58.847)" fill="#fff"/>
      <path id="Path_673" data-name="Path 673" d="M129.72,29.76l1.556.7,1.1,2.719.428.192a3.179,3.179,0,1,0-3.086-3.611" transform="translate(-109.867 -27.013)" fill="#fff"/>
      <path id="Path_674" data-name="Path 674" d="M179.208,181.847h-6.876a3.809,3.809,0,0,1,6.876,0m-7.257,1.672h9.27a5.452,5.452,0,1,0-.476,2.239l-1.492-.671a3.814,3.814,0,0,1-7.306-1.568" transform="translate(-143.616 -152.411)" fill="#fff"/>
      <path id="Path_675" data-name="Path 675" d="M207.2,87.2l1.094,1.1-2.209,2.219a1.587,1.587,0,0,0,0,2.234,4.715,4.715,0,0,1,0,6.638l-2.209,2.217-1.094-1.1,2.209-2.219a3.15,3.15,0,0,0,0-4.436,3.15,3.15,0,0,1,0-4.436l2.209-2.209" transform="translate(-170.564 -76.974)" fill="#fff"/>
      <path id="Path_676" data-name="Path 676" d="M152.274,141.762l-.469,1.154-.943-.355.391-.984a6.626,6.626,0,0,0-2.093-.661l2.071-.556a7.594,7.594,0,0,0,2.508-.17q1.062,0,.265,1.155-.42.51-1.728.415" transform="translate(-126.012 -120.96)" fill="#fff"/>
    </g>
  </g>
</svg>
