<svg xmlns="http://www.w3.org/2000/svg" width="32" height="32" viewBox="0 0 32 32">
  <g id="e-bikes-permitted" transform="translate(0 0)">
    <g id="background" transform="translate(0 0)">
      <path id="Path_666" data-name="Path 666" d="M32,2.091A2.09,2.09,0,0,0,29.911,0H2.09A2.091,2.091,0,0,0,0,2.091V29.907A2.093,2.093,0,0,0,2.09,32H29.911A2.091,2.091,0,0,0,32,29.907Z" transform="translate(0 0)" fill="#38598a"/>
    </g>
    <g id="e-bike" transform="translate(1.42 3.059)">
      <path id="Path_667" data-name="Path 667" d="M15.587,166.916a4.055,4.055,0,1,0,4.026,7.04l.016-.009a4.055,4.055,0,1,0-4.025-7.04l-.015.009m-.513-.894a5.1,5.1,0,1,1-1.854,6.954,5.1,5.1,0,0,1,1.854-6.954" transform="translate(-12.539 -149.658)" fill="#fff"/>
      <path id="Path_668" data-name="Path 668" d="M161.146,167.1a4.024,4.024,0,1,0,2.02-.544,3.981,3.981,0,0,0-2.02.544m-.512-.892a5.053,5.053,0,0,1,6.908,1.841l.012.022a5.071,5.071,0,1,1-8.76,5.112l-.012-.022a5.1,5.1,0,0,1,1.854-6.954" transform="translate(-141.68 -149.83)" fill="#fff"/>
      <path id="Path_669" data-name="Path 669" d="M74.8,128.36l-1.855,4.451L69.6,129.661q-.36-.272-1.106.113l-1.067-1.138.2-.453,7.171.177m.813.616,1.6,2.067.793-.665-2.119-2.672-.871-.34-7.124-.019.633-1.528c.034-.227-.1-.4-.388-.521-.213-.273-.142-.431.215-.473l1.785.077a.459.459,0,0,0,.113-.749h-.016l-.016-.02-2.179-.069q-.33-.021-.87.566-.469.453.094.793.371.195.166.644l-.68,1.768-1.17,2.972a11.867,11.867,0,0,1-1.075,1.64l.238.776.139-.194.069.119a11.774,11.774,0,0,0,1.45-2.02l.384-.78.011.017.369-.772,3.89,4.212q-.352.355-.163.68l1.117,1.254a1.019,1.019,0,0,0,.852.34l.246.976-.227.039.082.481,1.08-.182-.08-.482-.32.054-.147-.943.793-.072c.4-.085.578-.3.527-.661l1.488-.255c-.025-.08-.046-.161-.066-.243s-.035-.163-.049-.246-.026-.166-.034-.249-.015-.168-.018-.251l-2.152.34a1.01,1.01,0,0,0-.059-.362,1.076,1.076,0,0,0-.078-.168,1.012,1.012,0,0,0-.108-.151l1.87-4.723" transform="translate(-58.649 -113.063)" fill="#fff"/>
      <path id="Path_670" data-name="Path 670" d="M224.321,55.446l.729.733a2.126,2.126,0,0,0,.163.14,1.971,1.971,0,0,0,1.586.366,1.823,1.823,0,0,0,.191-.049,1.725,1.725,0,0,0,.186-.068c.061-.026.12-.054.178-.086s.113-.067.169-.1l.847-.774a.09.09,0,0,0,.015-.015.094.094,0,0,0,.01-.018.066.066,0,0,0,.007-.019.113.113,0,0,0,0-.062s-.006-.012-.009-.018l-.014-.017-.667-.7,1.314-1.332a.114.114,0,0,0,.022-.034.1.1,0,0,0,.008-.04.1.1,0,0,0-.008-.041.113.113,0,0,0-.023-.034l-.138-.138-.016-.012-.018-.01h-.02a.1.1,0,0,0-.077.016.093.093,0,0,0-.016.014l-1.314,1.331L226,53.026l1.318-1.327a.1.1,0,0,0,.031-.074.1.1,0,0,0-.029-.074l-.138-.139a.138.138,0,0,0-.034-.023h-.079a.057.057,0,0,0-.018.01l-.016.012-1.319,1.326-.7-.647A.081.081,0,0,0,225,52.08a.054.054,0,0,0-.018-.009h-.06l-.019.007-.017.01-.016.014-.772.827a2,2,0,0,0,.227,2.522" transform="translate(-199.897 -48.629)" fill="#fff"/>
      <path id="Path_671" data-name="Path 671" d="M35.837,182.733l-.831-2.707-.382.506-.736-2.718-.522.68-.57-2.254a3.454,3.454,0,0,0-1.686,1.111l1.992,2.8.374-.465,1.056,2,.332-.427.971,1.467" transform="translate(-29.007 -159.331)" fill="#fff"/>
      <path id="Path_672" data-name="Path 672" d="M104.308,71.715l-1.174-2.445-3.087,2.9a.965.965,0,0,1-1.313-1.415.837.837,0,0,1,.093-.075l5.136-4.922a1.4,1.4,0,0,1,1.984.042,1.388,1.388,0,0,1,.3.478c.014.034.025.067.035.1s.018.068.026.1.014.07.018.105.009.071.011.107l1.174,5.466q.431,1.133-.614,1.376l-4.732,1.487,1.518,4.148-1.178,2.82L102.21,80l-.323-.211L99.78,74.768a.894.894,0,0,1-.054-.18.943.943,0,0,1-.018-.187.958.958,0,0,1,.022-.188.924.924,0,0,1,.277-.483.861.861,0,0,1,.152-.113.942.942,0,0,1,.171-.08l3.979-1.821" transform="translate(-88.73 -61.02)" fill="#fff"/>
      <path id="Path_673" data-name="Path 673" d="M129.72,28.844l1.037.467.734,1.812.285.128a2.119,2.119,0,1,0-2.057-2.407" transform="translate(-116.484 -27.013)" fill="#fff"/>
      <path id="Path_674" data-name="Path 674" d="M176.242,180.59h-4.583a2.539,2.539,0,0,1,4.583,0m-4.837,1.114h6.179a3.634,3.634,0,1,0-.317,1.493l-.994-.447a2.543,2.543,0,0,1-4.87-1.045" transform="translate(-152.513 -160.961)" fill="#fff"/>
      <path id="Path_675" data-name="Path 675" d="M205.725,87.2l.729.733-1.472,1.479a1.058,1.058,0,0,0,0,1.489,3.143,3.143,0,0,1,0,4.425L203.509,96.8l-.729-.733,1.472-1.479a2.1,2.1,0,0,0,0-2.957,2.1,2.1,0,0,1,0-2.957l1.472-1.472" transform="translate(-181.301 -80.38)" fill="#fff"/>
      <path id="Path_676" data-name="Path 676" d="M151.236,141.238l-.313.769-.629-.237.26-.656a4.417,4.417,0,0,0-1.4-.441l1.381-.37a5.062,5.062,0,0,0,1.672-.113q.708,0,.177.77-.28.34-1.152.276" transform="translate(-133.727 -127.368)" fill="#fff"/>
    </g>
  </g>
</svg>
