<svg xmlns="http://www.w3.org/2000/svg" width="16" height="16" viewBox="0 0 16 16">
  <g id="e-bikes-permitted" transform="translate(0 0)">
    <g id="background" transform="translate(0 0)">
      <path id="Path_666" data-name="Path 666" d="M16,1.046A1.045,1.045,0,0,0,14.956,0H1.045A1.046,1.046,0,0,0,0,1.046V14.953A1.047,1.047,0,0,0,1.045,16H14.956A1.046,1.046,0,0,0,16,14.953Z" transform="translate(0 0)" fill="#38598a"/>
    </g>
    <g id="e-bike" transform="translate(0.704 1.516)">
      <path id="Path_667" data-name="Path 667" d="M14.05,166.117a2.01,2.01,0,1,0,2,3.489l.008,0a2.01,2.01,0,1,0-1.995-3.489l-.007,0m-.254-.443a2.526,2.526,0,1,1-.919,3.447,2.526,2.526,0,0,1,.919-3.447" transform="translate(-12.539 -157.424)" fill="#fff"/>
      <path id="Path_668" data-name="Path 668" d="M159.609,166.306a1.994,1.994,0,1,0,1-.269,1.973,1.973,0,0,0-1,.269m-.254-.442a2.5,2.5,0,0,1,3.424.913l.006.011a2.514,2.514,0,1,1-4.342,2.534l-.006-.011a2.526,2.526,0,0,1,.919-3.447" transform="translate(-149.822 -157.607)" fill="#fff"/>
      <path id="Path_669" data-name="Path 669" d="M69.611,126.193l-.919,2.206-1.658-1.561q-.178-.135-.548.056l-.529-.564.1-.225,3.554.088m.4.305.794,1.024.393-.33-1.05-1.324-.432-.168-3.531-.01.314-.757c.017-.112-.047-.2-.193-.258-.106-.135-.07-.214.107-.235l.885.038a.227.227,0,0,0,.056-.371h-.008l-.008-.01-1.08-.034q-.163-.011-.431.281-.232.225.047.393.184.1.083.319l-.337.876-.58,1.473a5.882,5.882,0,0,1-.533.813l.118.385.069-.1.034.059a5.835,5.835,0,0,0,.718-1l.19-.387.006.008.183-.383,1.928,2.088q-.174.176-.081.337l.553.621a.505.505,0,0,0,.422.168l.122.484-.112.019.04.239.536-.09-.04-.239-.159.027-.073-.468.393-.036q.3-.063.261-.328l.738-.126c-.012-.04-.023-.08-.033-.121s-.017-.081-.024-.122-.013-.083-.017-.123-.007-.083-.009-.125l-1.067.168a.5.5,0,0,0-.029-.18.534.534,0,0,0-.039-.083.5.5,0,0,0-.053-.075l.927-2.341" transform="translate(-61.553 -118.472)" fill="#fff"/>
      <path id="Path_670" data-name="Path 670" d="M224.034,53.4l.362.363a1.049,1.049,0,0,0,.081.07.977.977,0,0,0,.786.181.9.9,0,0,0,.095-.024.854.854,0,0,0,.092-.034c.03-.013.06-.027.088-.043s.056-.033.084-.051l.42-.383.007-.007.005-.009a.033.033,0,0,0,0-.01.056.056,0,0,0,0-.031l0-.009-.007-.008-.331-.349.651-.66a.057.057,0,0,0,.011-.017.048.048,0,0,0,0-.02.05.05,0,0,0,0-.02.056.056,0,0,0-.011-.017l-.068-.068-.008-.006-.009-.005h-.01a.052.052,0,0,0-.038.008l-.008.007-.651.66-.708-.716.653-.658a.047.047,0,0,0,.015-.036.055.055,0,0,0,0-.02.056.056,0,0,0-.011-.017l-.068-.069a.068.068,0,0,0-.017-.011h-.039l-.009.005-.008.006-.654.657-.345-.321-.008-.006-.009,0h-.03l-.01,0-.008.005-.008.007-.383.41a.992.992,0,0,0,.112,1.25" transform="translate(-211.789 -50.022)" fill="#fff"/>
      <path id="Path_671" data-name="Path 671" d="M33.453,179.458l-.412-1.342-.189.251-.365-1.347-.259.337-.282-1.117a1.712,1.712,0,0,0-.836.551l.987,1.39.185-.231.523.993.164-.212.481.727" transform="translate(-30.068 -167.72)" fill="#fff"/>
      <path id="Path_672" data-name="Path 672" d="M101.341,68.565l-.582-1.232-1.53,1.46a.472.472,0,0,1-.676-.026.493.493,0,0,1,.025-.688.417.417,0,0,1,.046-.038l2.546-2.481a.687.687,0,0,1,.983.021.7.7,0,0,1,.149.241c.007.017.012.034.017.051s.009.034.013.052.007.035.009.053,0,.036.006.054l.582,2.755q.214.571-.3.693l-2.345.749.752,2.091-.584,1.422-.147-1-.16-.106L99.1,70.1a.457.457,0,0,1-.027-.091.483.483,0,0,1-.009-.094.49.49,0,0,1,.011-.095.467.467,0,0,1,.138-.243.428.428,0,0,1,.075-.057.464.464,0,0,1,.085-.041l1.972-.918" transform="translate(-93.552 -63.21)" fill="#fff"/>
      <path id="Path_673" data-name="Path 673" d="M129.72,27.92l.514.231.364.9.141.063a1.05,1.05,0,1,0-1.019-1.193" transform="translate(-123.086 -27.013)" fill="#fff"/>
      <path id="Path_674" data-name="Path 674" d="M173.253,179.323h-2.272a1.259,1.259,0,0,1,2.272,0m-2.4.552h3.063a1.8,1.8,0,1,0-.157.74l-.493-.222a1.26,1.26,0,0,1-2.414-.518" transform="translate(-161.353 -169.455)" fill="#fff"/>
      <path id="Path_675" data-name="Path 675" d="M204.24,87.2l.361.363-.73.733a.524.524,0,0,0,0,.738,1.558,1.558,0,0,1,0,2.193l-.73.733-.362-.363.73-.733a1.041,1.041,0,0,0,0-1.466,1.041,1.041,0,0,1,0-1.466l.73-.73" transform="translate(-191.995 -83.761)" fill="#fff"/>
      <path id="Path_676" data-name="Path 676" d="M150.189,140.709l-.155.381-.312-.117.129-.325a2.189,2.189,0,0,0-.692-.218l.684-.184a2.509,2.509,0,0,0,.829-.056q.351,0,.088.382-.139.168-.571.137" transform="translate(-141.427 -133.76)" fill="#fff"/>
    </g>
  </g>
</svg>
