<svg xmlns="http://www.w3.org/2000/svg" width="64" height="64" viewBox="0 0 64 64">
  <g id="fishing" transform="translate(0 0)">
    <g id="Z_Base_layer_130mm" transform="translate(0 0)">
      <g id="Group_805" data-name="Group 805">
        <path id="Path_684" data-name="Path 684" d="M63.977,4.191A4.191,4.191,0,0,0,59.8,0H4.181A4.191,4.191,0,0,0,0,4.191V59.809A4.191,4.191,0,0,0,4.181,64H59.819A4.191,4.191,0,0,0,64,59.809V4.191Z" fill="#fff"/>
        <path id="Path_685" data-name="Path 685" d="M63.977,4.191A4.191,4.191,0,0,0,59.8,0H4.181A4.191,4.191,0,0,0,0,4.191V59.809A4.191,4.191,0,0,0,4.181,64H59.819A4.191,4.191,0,0,0,64,59.809V4.191Z" fill="#38598a"/>
      </g>
    </g>
    <g id="Fishing-2" data-name="Fishing" transform="translate(8.141 5.235)">
      <g id="Group_808" data-name="Group 808">
        <g id="Group_807" data-name="Group 807">
          <g id="Group_806" data-name="Group 806">
            <path id="Path_686" data-name="Path 686" d="M222.033,81.7v4.474a1.652,1.652,0,0,1-1.633,1.678,1.7,1.7,0,0,1-1.7-1.678v-.85" transform="translate(-177.271 -68.657)" fill="none" stroke="#fff" stroke-width="6.125"/>
            <path id="Path_687" data-name="Path 687" d="M44.67,126.328c-2.313.045-4.808-2.685-7.393-3.87-.658-.313-1.134.313-.748.716,1.542,1.611,3.175,4.5,3.175,5.615v.067h0v.067c0,1.119-1.633,4-3.175,5.615-.386.4.091,1.029.748.738,2.585-1.186,5.08-3.893,7.393-3.87h.023a1.789,1.789,0,0,1,1,.157c11,7.987,27.735,7.83,38.393-.873-.34-.358-1.383-.582-1.383-1.745,0-.962.93-1.387,1.383-1.745-5.329-4.586-12.223-6.533-18.981-6.734-6.917-.224-13.244,3.557-19.616,5.727a2.6,2.6,0,0,1-.816.134" transform="translate(-36.391 -98.744)" fill="#fff"/>
            <path id="Path_688" data-name="Path 688" d="M216.239,144.982a1.141,1.141,0,1,0-1.141-1.141A1.118,1.118,0,0,0,216.239,144.982Z" transform="translate(-174.474 -116.01)" fill="#4e6086"/>
            <path id="Path_689" data-name="Path 689" d="M223.764,62.7a2.852,2.852,0,1,0-2.864-2.841A2.845,2.845,0,0,0,223.764,62.7Z" transform="translate(-178.979 -49.483)" fill="#fff"/>
            <path id="Path_690" data-name="Path 690" d="M228.865,66.429a1.365,1.365,0,1,0-1.365-1.365A1.37,1.37,0,0,0,228.865,66.429Z" transform="translate(-184.102 -54.684)" fill="#4e6086"/>
            <line id="Line_166" data-name="Line 166" y2="7.718" transform="translate(44.762)" fill="none" stroke="#fff" stroke-width="6.125"/>
          </g>
        </g>
      </g>
    </g>
  </g>
</svg>
