<svg xmlns="http://www.w3.org/2000/svg" width="16.279" height="16" viewBox="0 0 16.279 16">
  <g id="fishing" transform="translate(0)">
    <g id="Z_Base_layer_130mm" transform="translate(0 0)">
      <g id="Group_805" data-name="Group 805" transform="translate(0)">
        <path id="Path_684" data-name="Path 684" d="M15.994,1.048A1.048,1.048,0,0,0,14.949,0H1.045A1.048,1.048,0,0,0,0,1.048v13.9A1.048,1.048,0,0,0,1.045,16h13.91A1.048,1.048,0,0,0,16,14.952V1.048Z" transform="translate(0)" fill="#fff"/>
        <path id="Path_685" data-name="Path 685" d="M15.994,1.048A1.048,1.048,0,0,0,14.949,0H1.045A1.048,1.048,0,0,0,0,1.048v13.9A1.048,1.048,0,0,0,1.045,16h13.91A1.048,1.048,0,0,0,16,14.952V1.048Z" transform="translate(0)" fill="#38598a"/>
      </g>
    </g>
    <g id="Fishing-2" data-name="Fishing" transform="translate(2.043 1.314)">
      <g id="Group_808" data-name="Group 808">
        <g id="Group_807" data-name="Group 807">
          <g id="Group_806" data-name="Group 806">
            <path id="Path_686" data-name="Path 686" d="M219.536,81.7v1.123a.415.415,0,0,1-.41.421.425.425,0,0,1-.427-.421v-.213" transform="translate(-208.363 -78.427)" fill="none" stroke="#fff" stroke-width="6.125"/>
            <path id="Path_687" data-name="Path 687" d="M38.458,121.931c-.578.011-1.2-.674-1.846-.971-.164-.079-.283.079-.187.18a3.161,3.161,0,0,1,.793,1.409v.017h0v.017a3.161,3.161,0,0,1-.793,1.409c-.1.1.023.258.187.185.646-.3,1.268-.977,1.846-.971h.006a.445.445,0,0,1,.249.039,8.1,8.1,0,0,0,9.586-.219c-.085-.09-.345-.146-.345-.438,0-.241.232-.348.345-.438a7.516,7.516,0,0,0-4.739-1.69c-1.727-.056-3.307.893-4.9,1.437a.647.647,0,0,1-.2.034" transform="translate(-36.391 -115.009)" fill="#fff"/>
            <path id="Path_688" data-name="Path 688" d="M215.383,143.273a.286.286,0,1,0-.286-.286A.28.28,0,0,0,215.383,143.273Z" transform="translate(-204.962 -136.003)" fill="#4e6086"/>
            <path id="Path_689" data-name="Path 689" d="M221.619,58.431a.716.716,0,1,0-.718-.713A.714.714,0,0,0,221.619,58.431Z" transform="translate(-210.44 -55.114)" fill="#fff"/>
            <path id="Path_690" data-name="Path 690" d="M227.842,64.385a.342.342,0,1,0-.342-.342A.344.344,0,0,0,227.842,64.385Z" transform="translate(-216.669 -61.438)" fill="#4e6086"/>
            <line id="Line_166" data-name="Line 166" y2="1.937" transform="translate(11.173)" fill="none" stroke="#fff" stroke-width="6.125"/>
          </g>
        </g>
      </g>
    </g>
  </g>
</svg>
