<svg xmlns="http://www.w3.org/2000/svg" width="16" height="16" viewBox="0 0 16 16">
  <g id="hiking" transform="translate(0 0)">
    <g id="Background" transform="translate(0 0)">
      <path id="Path_695" data-name="Path 695" d="M16,1.046A1.045,1.045,0,0,0,14.956,0H1.045A1.046,1.046,0,0,0,0,1.046V14.954A1.046,1.046,0,0,0,1.045,16H14.956A1.046,1.046,0,0,0,16,14.953Z" transform="translate(0 0)" fill="#38598a"/>
    </g>
    <g id="Hiking-2" data-name="Hiking" transform="translate(4.181 1.608)">
      <path id="Path_696" data-name="Path 696" d="M146.238,30.42a.886.886,0,1,0-.838-.885A.863.863,0,0,0,146.238,30.42Z" transform="translate(-141.366 -28.65)" fill="#fff"/>
      <path id="Path_697" data-name="Path 697" d="M87.187,57.638s.613-.224.757.362l-1.251,2.667-.719-.347Z" transform="translate(-85.276 -55.972)" fill="#fff"/>
      <path id="Path_698" data-name="Path 698" d="M79.067,64.152a12.134,12.134,0,0,1-.724-1.935c-.132-.667-1.053-.8-1.053-.8l-.593.3a13.208,13.208,0,0,0-1.35,2.769,4.247,4.247,0,0,0-.132,1.835l-1.678,5.372.674.6,2.157-4.2.922.934.284,1.2-1.078,1.9.4.226.834-1.464.349,1.474.8-.086-.388-2.715L80.462,66.1l.12.059c.4.2.593-.334.593-.334Zm-.688,4.65-.1-.713-1.118-2.4.988-1.468.526,1,1.36.666Z" transform="translate(-73.537 -59.577)" fill="#fff"/>
    </g>
  </g>
</svg>
