<svg xmlns="http://www.w3.org/2000/svg" width="64" height="64" viewBox="0 0 64 64">
  <g id="hiking" transform="translate(0 0)">
    <g id="Background" transform="translate(0 0)">
      <path id="Path_695" data-name="Path 695" d="M64,4.183A4.18,4.18,0,0,0,59.823,0H4.179A4.182,4.182,0,0,0,0,4.183V59.814A4.184,4.184,0,0,0,4.179,64H59.823A4.182,4.182,0,0,0,64,59.814Z" transform="translate(0 0)" fill="#38598a"/>
    </g>
    <g id="Hiking-2" data-name="Hiking" transform="translate(16.78 6.409)">
      <path id="Path_696" data-name="Path 696" d="M148.739,35.7a3.531,3.531,0,1,0-3.339-3.526A3.438,3.438,0,0,0,148.739,35.7Z" transform="translate(-129.323 -28.65)" fill="#fff"/>
      <path id="Path_697" data-name="Path 697" d="M90.808,57.764s2.442-.893,3.018,1.444L88.842,69.837l-2.867-1.383Z" transform="translate(-83.192 -51.121)" fill="#fff"/>
      <path id="Path_698" data-name="Path 698" d="M95.578,72.379a48.772,48.772,0,0,1-2.884-7.754c-.524-2.674-4.2-3.209-4.2-3.209l-2.363,1.2c-1.982,1.86-4.2,8.69-5.38,11.1s-.526,7.354-.526,7.354l-6.69,21.522L76.225,105l8.6-16.843L88.5,91.9l1.13,4.8-4.3,7.619,1.6.9,3.325-5.864,1.39,5.908,3.171-.344L93.266,94.044l7.87-13.879.479.236c1.577.8,2.363-1.338,2.363-1.338ZM92.835,91.011l-.406-2.857-4.457-9.626,3.936-5.883,2.1,4.011,5.421,2.667Z" transform="translate(-73.537 -54.086)" fill="#fff"/>
    </g>
  </g>
</svg>
