<svg xmlns="http://www.w3.org/2000/svg" width="32" height="32" viewBox="0 0 32 32">
  <g id="hiking" transform="translate(0 0)">
    <g id="Background" transform="translate(0 0)">
      <path id="Path_695" data-name="Path 695" d="M32,2.092A2.09,2.09,0,0,0,29.911,0H2.09A2.091,2.091,0,0,0,0,2.092V29.907A2.092,2.092,0,0,0,2.09,32H29.911A2.091,2.091,0,0,0,32,29.907Z" transform="translate(0 0)" fill="#38598a"/>
    </g>
    <g id="Hiking-2" data-name="Hiking" transform="translate(8.296 3.245)">
      <path id="Path_696" data-name="Path 696" d="M147.09,32.22a1.787,1.787,0,1,0-1.69-1.785A1.74,1.74,0,0,0,147.09,32.22Z" transform="translate(-137.262 -28.65)" fill="#fff"/>
      <path id="Path_697" data-name="Path 697" d="M88.421,57.681s1.236-.452,1.528.731l-2.523,5.381-1.451-.7Z" transform="translate(-84.566 -54.318)" fill="#fff"/>
      <path id="Path_698" data-name="Path 698" d="M84.695,66.866a23.98,23.98,0,0,1-1.46-3.855c-.265-1.329-2.125-1.6-2.125-1.6l-1.2.6c-1,.925-2.125,4.32-2.723,5.517a8.356,8.356,0,0,0-.266,3.656l-3.386,10.7,1.361,1.2,4.352-8.373,1.86,1.861.572,2.387-2.175,3.788.809.449L82,80.279l.7,2.937,1.6-.171-.783-5.409,3.984-6.9.242.117c.8.4,1.2-.665,1.2-.665Zm-1.389,9.263-.206-1.42-2.256-4.785L82.837,67,83.9,68.993l2.744,1.326Z" transform="translate(-73.537 -57.705)" fill="#fff"/>
    </g>
  </g>
</svg>
