<svg xmlns="http://www.w3.org/2000/svg" width="48" height="47.989" viewBox="0 0 48 47.989">
  <g id="hiking" transform="translate(0 0)">
    <g id="Background" transform="translate(0 0)">
      <path id="Path_695" data-name="Path 695" d="M48,3.137A3.135,3.135,0,0,0,44.867,0H3.134A3.136,3.136,0,0,0,0,3.137V44.85a3.138,3.138,0,0,0,3.134,3.139H44.867A3.136,3.136,0,0,0,48,44.849Z" transform="translate(0 0)" fill="#38598a"/>
    </g>
    <g id="Hiking-2" data-name="Hiking" transform="translate(12.441 4.868)">
      <path id="Path_696" data-name="Path 696" d="M147.936,34.006a2.682,2.682,0,1,0-2.536-2.678A2.611,2.611,0,0,0,147.936,34.006Z" transform="translate(-133.19 -28.65)" fill="#fff"/>
      <path id="Path_697" data-name="Path 697" d="M89.646,57.724s1.854-.678,2.292,1.1l-3.786,8.073-2.178-1.05Z" transform="translate(-83.861 -52.678)" fill="#fff"/>
      <path id="Path_698" data-name="Path 698" d="M90.277,69.588a35.939,35.939,0,0,1-2.19-5.78c-.4-1.993-3.189-2.392-3.189-2.392l-1.795.9C81.6,63.7,79.915,68.79,79.017,70.584s-.4,5.482-.4,5.482L73.537,92.108,75.579,93.9l6.529-12.555,2.79,2.79.858,3.58L82.493,93.4l1.213.674L86.231,89.7l1.056,4.4,2.408-.256-1.175-8.109L94.5,75.391l.364.176c1.2.6,1.795-1,1.795-1ZM88.193,83.476l-.308-2.129L84.5,74.172l2.989-4.385,1.593,2.99L93.2,74.764Z" transform="translate(-73.537 -55.849)" fill="#fff"/>
    </g>
  </g>
</svg>
