<svg xmlns="http://www.w3.org/2000/svg" width="32" height="32" viewBox="0 0 32 32">
  <g id="horseback-riding" transform="translate(0)">
    <g id="Background" transform="translate(0 0)">
      <path id="Path_702" data-name="Path 702" d="M32,2.092A2.09,2.09,0,0,0,29.911,0H2.09A2.091,2.091,0,0,0,0,2.092V29.907A2.092,2.092,0,0,0,2.09,32H29.911A2.091,2.091,0,0,0,32,29.907Z" fill="#38598a"/>
    </g>
    <g id="Horseback_riding" transform="translate(3.575 2.924)">
      <path id="Path_703" data-name="Path 703" d="M107.089,27.2a1.383,1.383,0,1,1,1.382,1.384A1.383,1.383,0,0,1,107.089,27.2Z" transform="translate(-98.562 -25.817)" fill="#fff"/>
      <path id="Path_704" data-name="Path 704" d="M33.353,70.129c-.081.782-.052,5.57-.094,6.1h.908l.293-5.657a15.605,15.605,0,0,0,1.809-2.889A16.322,16.322,0,0,1,35.681,70l1.6,6.233H38.3l-1.318-6.068s1.813-1.432,1.922-2.809l3.4.386.605,2.038h1.042l-.164-1.763,1.055-.11-.47,8.341h1.151l1.119-7.418,1.826,7.418h1.155l-1.553-8.452s1.576-2.479,1.647-3.69a4.671,4.671,0,0,1,1.341-2.2,4.274,4.274,0,0,0,4.1-.428l-.737-.319a3.037,3.037,0,0,1-2.969.139l.986-.941,1.866.758.934.424.371.209.809-1.005a17.3,17.3,0,0,1-3.236-3.777c-.14-.266.2-.563.366-.858.105-.194-.1-.424-.182-.383-2.22,1.043-3.91,2.624-6.015,4.045l-.564.336-.109.184a3.456,3.456,0,0,1-3.6.766c-.506-.17-.269-1.279-.281-2.02l.082-.468,1.592.578.364-.251,1.892,1.169.094.083.55-.343L47.3,59.74s-4.325-2.578-4.417-2.776c-.4-.872-.446-1.921-.823-2.794-.241-.559-1.49-.861-1.765-.208-.936,2.217-.69,4.859-.464,7.013-1.844.127-3.276-1.283-5.141-.44-1.446.654-3.37,1.418-3.089,3.035.44,2.5.2,4.969,1.107,7.308.179-.312.689-.435.694-.877l.211-.72.055-3.36c-.055.166.481.819.426.875s-.487,2.5-.487,2.5" transform="translate(-31.569 -50.446)" fill="#fff"/>
    </g>
  </g>
</svg>
