<svg id="horseback-riding" xmlns="http://www.w3.org/2000/svg" width="16" height="16" viewBox="0 0 16 16">
  <g id="Background" transform="translate(0 0)">
    <path id="Path_702" data-name="Path 702" d="M16,1.046A1.045,1.045,0,0,0,14.955,0H1.045A1.046,1.046,0,0,0,0,1.046V14.954A1.046,1.046,0,0,0,1.045,16H14.955A1.046,1.046,0,0,0,16,14.954Z" fill="#38598a"/>
  </g>
  <g id="Horseback_riding" transform="translate(1.772 1.449)">
    <path id="Path_703" data-name="Path 703" d="M107.089,26.5a.685.685,0,1,1,.685.686A.686.686,0,0,1,107.089,26.5Z" transform="translate(-102.809 -25.817)" fill="#fff"/>
    <path id="Path_704" data-name="Path 704" d="M32.463,61.89c-.04.392-.026,2.795-.047,3.06h.455l.147-2.839a7.832,7.832,0,0,0,.907-1.45,8.2,8.2,0,0,1-.3,1.161l.8,3.127h.511l-.661-3.045s.909-.718.964-1.409l1.706.193.3,1.023h.522l-.082-.885.529-.055-.236,4.186h.577l.561-3.722.915,3.722h.579l-.778-4.241a6.132,6.132,0,0,0,.825-1.852,2.344,2.344,0,0,1,.672-1.1,2.141,2.141,0,0,0,2.054-.215l-.369-.16a1.521,1.521,0,0,1-1.488.07l.494-.472.935.38.468.213.186.1.406-.5a8.679,8.679,0,0,1-1.622-1.9c-.07-.134.1-.282.184-.431.053-.1-.048-.213-.091-.192a23.248,23.248,0,0,0-3.015,2.03l-.283.169-.054.092a1.731,1.731,0,0,1-1.8.384c-.254-.085-.135-.642-.141-1.014l.041-.235.8.29.182-.126.948.587.047.042.276-.172-.042-.031s-2.168-1.294-2.214-1.393c-.2-.438-.223-.964-.413-1.4-.121-.281-.747-.432-.885-.1a7.265,7.265,0,0,0-.232,3.519c-.924.064-1.642-.644-2.577-.221-.725.328-1.689.712-1.548,1.523a18.946,18.946,0,0,0,.555,3.667c.09-.157.345-.218.348-.44l.106-.361.027-1.686c-.027.083.241.411.213.439s-.244,1.254-.244,1.254" transform="translate(-31.569 -52.032)" fill="#fff"/>
  </g>
</svg>
