<svg id="horseback-riding" xmlns="http://www.w3.org/2000/svg" width="48" height="47.989" viewBox="0 0 48 47.989">
  <g id="Background" transform="translate(0 0)">
    <path id="Path_702" data-name="Path 702" d="M48,3.137A3.135,3.135,0,0,0,44.866,0H3.135A3.136,3.136,0,0,0,0,3.137V44.85a3.138,3.138,0,0,0,3.135,3.139H44.866A3.137,3.137,0,0,0,48,44.85Z" fill="#38598a"/>
  </g>
  <g id="Horseback_riding" transform="translate(5.364 4.387)">
    <path id="Path_703" data-name="Path 703" d="M107.089,27.89a2.074,2.074,0,1,1,2.074,2.076A2.075,2.075,0,0,1,107.089,27.89Z" transform="translate(-94.299 -25.817)" fill="#fff"/>
    <path id="Path_704" data-name="Path 704" d="M34.245,78.388c-.121,1.173-.078,8.351-.141,9.144h1.363l.439-8.482s2.631-3.5,2.714-4.331a24.466,24.466,0,0,1-.884,3.471l2.4,9.345h1.529l-1.977-9.1s2.719-2.146,2.883-4.211l5.106.578.908,3.056h1.563L49.9,75.214l1.583-.165-.705,12.507h1.726l1.678-11.122,2.739,11.122h1.733l-2.33-12.673s2.364-3.717,2.47-5.533c.082-1.4,1.991-3.3,2.012-3.3,3.956,1.285,6.147-.641,6.147-.641l-1.105-.478s-1.53,1.283-4.454.209l1.479-1.41,2.8,1.136,1.4.636.556.313,1.214-1.507c-1.735-1.8-3.674-3.411-4.853-5.663-.21-.4.307-.844.549-1.287.158-.291-.144-.636-.273-.575-3.33,1.564-5.865,3.934-9.022,6.066l-.846.5-.163.275a5.185,5.185,0,0,1-5.395,1.148c-.76-.254-.4-1.918-.421-3.029l.123-.7,2.388.867.545-.377,2.838,1.753.14.125.825-.515-.124-.094s-6.487-3.866-6.626-4.163c-.6-1.308-.668-2.88-1.235-4.189-.361-.839-2.234-1.292-2.647-.312-1.4,3.324-1.035,7.286-.7,10.514-2.766.191-4.914-1.924-7.711-.66-2.169.981-5.054,2.127-4.633,4.55.66,3.745.3,7.45,1.66,10.958.269-.468,1.033-.652,1.04-1.315l.317-1.079.082-5.038c-.082.248.721,1.227.639,1.312s-.731,3.746-.731,3.746" transform="translate(-31.569 -48.872)" fill="#fff"/>
  </g>
</svg>
