<svg xmlns="http://www.w3.org/2000/svg" width="64" height="64" viewBox="0 0 64 64">
  <g id="horseback-riding" transform="translate(0 0)">
    <g id="Background" transform="translate(0 0)">
      <path id="Path_702" data-name="Path 702" d="M64,4.183A4.181,4.181,0,0,0,59.822,0H4.18A4.182,4.182,0,0,0,0,4.183V59.814A4.184,4.184,0,0,0,4.18,64H59.822A4.183,4.183,0,0,0,64,59.814Z" fill="#38598a"/>
    </g>
    <g id="Horseback_riding" transform="translate(7.062 5.776)">
      <path id="Path_703" data-name="Path 703" d="M107.089,28.546a2.731,2.731,0,1,1,2.731,2.734A2.733,2.733,0,0,1,107.089,28.546Z" transform="translate(-89.94 -25.817)" fill="#fff"/>
      <path id="Path_704" data-name="Path 704" d="M35.15,86.835c-.162,1.572-.1,11.2-.189,12.259h1.823l.588-11.372s3.521-4.7,3.632-5.807-.521,3.544-1.182,4.653L43.036,99.1h2.046L42.436,86.9s3.639-2.878,3.858-5.646l6.832.775,1.215,4.1h2.092L56.1,82.58l2.118-.221-.944,16.767h2.31l2.246-14.91L65.5,99.127h2.318L64.7,82.137S67.863,77.153,68,74.72c.11-1.883,2.664-4.425,2.692-4.418,5.294,1.723,8.225-.859,8.225-.859L77.443,68.8s-2.047,1.72-5.96.28l1.978-1.891,3.746,1.523,1.874.852.744.42,1.624-2.021c-2.322-2.41-4.917-4.573-6.495-7.593-.282-.535.411-1.131.735-1.725.211-.391-.193-.852-.365-.771-4.456,2.1-7.848,5.275-12.072,8.132l-1.132.676-.218.369c-1.854,2.08-5.005,2.284-7.219,1.539-1.017-.341-.54-2.572-.563-4.061l.165-.941,3.2,1.162.73-.505,3.8,2.351.188.167,1.1-.69-.166-.126s-8.68-5.183-8.866-5.581c-.806-1.754-.894-3.861-1.652-5.615-.484-1.125-2.99-1.732-3.542-.418-1.878,4.456-1.385,9.768-.931,14.1-3.7.256-6.576-2.579-10.319-.885-2.9,1.315-6.763,2.851-6.2,6.1.883,5.021.4,9.988,2.221,14.691.36-.627,1.382-.874,1.392-1.764l.424-1.447.11-6.754c-.11.333.964,1.645.854,1.758s-.978,5.022-.978,5.022" transform="translate(-31.569 -47.378)" fill="#fff"/>
    </g>
  </g>
</svg>
