<svg xmlns="http://www.w3.org/2000/svg" width="64" height="64" viewBox="0 0 64 64">
  <g id="hunting" transform="translate(0 0)">
    <g id="Z_Base_layer_130mm" transform="translate(0 0)">
      <g id="Group_813" data-name="Group 813">
        <path id="Path_709" data-name="Path 709" d="M63.977,4.191A4.191,4.191,0,0,0,59.8,0H4.181A4.191,4.191,0,0,0,0,4.191V59.809A4.191,4.191,0,0,0,4.181,64H59.819A4.191,4.191,0,0,0,64,59.809V4.191Z" fill="#fff"/>
        <path id="Path_710" data-name="Path 710" d="M63.977,4.191A4.191,4.191,0,0,0,59.8,0H4.181A4.191,4.191,0,0,0,0,4.191V59.809A4.191,4.191,0,0,0,4.181,64H59.819A4.191,4.191,0,0,0,64,59.809V4.191Z" fill="#38598a"/>
      </g>
    </g>
    <g id="hunting-2" data-name="hunting" transform="translate(9.329 17.091)">
      <g id="Group_816" data-name="Group 816">
        <g id="Group_815" data-name="Group 815">
          <g id="Group_814" data-name="Group 814">
            <path id="Path_711" data-name="Path 711" d="M179.082,81.939s-3.423-6.309,3.311-7.293c5.906-.873,4.877,6.331,3.758,7.07C185.816,81.939,179.082,81.939,179.082,81.939Z" transform="translate(-147.029 -74.573)" fill="#fff"/>
            <path id="Path_712" data-name="Path 712" d="M41.7,91.7H69.273v4.653H82.05a5.017,5.017,0,0,1,2.814,4.094c.454,3.2,2.7,17.92,2.02,17.92H71.406s.567-12.439.567-14.05c0-.112-4.72,1.208-4.72,1.208L56.928,95.257H52.139l-1.793-2.215H41.7Z" transform="translate(-41.7 -87.868)" fill="#fff"/>
          </g>
        </g>
      </g>
    </g>
  </g>
</svg>
