<svg xmlns="http://www.w3.org/2000/svg" width="48.115" height="47.996" viewBox="0 0 48.115 47.996">
  <g id="interpretive-programs-outside" transform="translate(0 0)">
    <g id="Background" transform="translate(0 0)">
      <path id="Path_720" data-name="Path 720" d="M59.535,14.917a3.139,3.139,0,0,0-3.14-3.137H14.562a3.14,3.14,0,0,0-3.142,3.137v41.72a3.142,3.142,0,0,0,3.142,3.139H56.395a3.14,3.14,0,0,0,3.14-3.139Z" transform="translate(-11.42 -11.78)" fill="#38598a"/>
    </g>
    <g id="Marine-Accesible_Camping" data-name="Marine-Accesible Camping" transform="translate(8.357 8.955)">
      <path id="Path_721" data-name="Path 721" d="M140.485,70.633a2.6,2.6,0,1,0-2.595-2.593A2.6,2.6,0,0,0,140.485,70.633Z" transform="translate(-124.756 -65.277)" fill="#fff"/>
      <path id="Path_722" data-name="Path 722" d="M67.455,167.207a2.6,2.6,0,1,0-2.595-2.6A2.6,2.6,0,0,0,67.455,167.207Z" transform="translate(-64.136 -145.436)" fill="#fff"/>
      <path id="Path_723" data-name="Path 723" d="M116.8,167.207a2.6,2.6,0,1,0-2.6-2.6A2.6,2.6,0,0,0,116.8,167.207Z" transform="translate(-105.092 -145.436)" fill="#fff"/>
      <path id="Path_724" data-name="Path 724" d="M70.15,59.123H86.059L92.484,52.7l2.141,2.141L86.469,63v2.653h-8.16V61.776H70.15Z" transform="translate(-66.586 -52.7)" fill="#fff"/>
      <rect id="Rectangle_748" data-name="Rectangle 748" width="6.527" height="7.341" transform="translate(0 22.742)" fill="#fff"/>
      <rect id="Rectangle_749" data-name="Rectangle 749" width="6.527" height="7.341" transform="translate(8.362 22.742)" fill="#fff"/>
      <path id="Path_725" data-name="Path 725" d="M213.16,167.207a2.6,2.6,0,1,1,2.6-2.6A2.6,2.6,0,0,1,213.16,167.207Z" transform="translate(-185.077 -145.436)" fill="#fff"/>
      <path id="Path_726" data-name="Path 726" d="M163.808,167.207a2.6,2.6,0,1,1,2.6-2.6A2.6,2.6,0,0,1,163.808,167.207Z" transform="translate(-144.113 -145.436)" fill="#fff"/>
      <rect id="Rectangle_750" data-name="Rectangle 750" width="6.527" height="7.341" transform="translate(24.877 22.742)" fill="#fff"/>
      <rect id="Rectangle_751" data-name="Rectangle 751" width="6.527" height="7.341" transform="translate(16.513 22.742)" fill="#fff"/>
    </g>
  </g>
</svg>
