<svg id="interpretive-programs-outside" xmlns="http://www.w3.org/2000/svg" width="64" height="64" viewBox="0 0 64 64">
  <g id="Background">
    <path id="Path_720" data-name="Path 720" d="M75.42,15.963a4.18,4.18,0,0,0-4.177-4.183H15.6a4.182,4.182,0,0,0-4.179,4.183V71.595A4.185,4.185,0,0,0,15.6,75.78H71.243a4.182,4.182,0,0,0,4.177-4.185Z" transform="translate(-11.42 -11.78)" fill="#38598a"/>
  </g>
  <g id="Marine-Accesible_Camping" data-name="Marine-Accesible Camping" transform="translate(11.33 12.196)">
    <path id="Path_721" data-name="Path 721" d="M141.306,72.277a3.418,3.418,0,1,0-3.416-3.414A3.418,3.418,0,0,0,141.306,72.277Z" transform="translate(-120.599 -65.225)" fill="#fff"/>
    <path id="Path_722" data-name="Path 722" d="M68.276,168.851a3.421,3.421,0,1,0-3.416-3.418A3.421,3.421,0,0,0,68.276,168.851Z" transform="translate(-63.907 -140.191)" fill="#fff"/>
    <path id="Path_723" data-name="Path 723" d="M117.621,168.851a3.421,3.421,0,1,0-3.421-3.418A3.421,3.421,0,0,0,117.621,168.851Z" transform="translate(-102.209 -140.191)" fill="#fff"/>
    <path id="Path_724" data-name="Path 724" d="M70.15,61.157H91.095L99.553,52.7l2.819,2.819L91.634,66.26v3.492H80.891v-5.1H70.15Z" transform="translate(-65.459 -52.7)" fill="#fff"/>
    <rect id="Rectangle_748" data-name="Rectangle 748" width="8.593" height="9.665" transform="translate(0 29.94)" fill="#fff"/>
    <rect id="Rectangle_749" data-name="Rectangle 749" width="8.593" height="9.665" transform="translate(11.009 29.94)" fill="#fff"/>
    <path id="Path_725" data-name="Path 725" d="M213.983,168.851a3.421,3.421,0,1,1,3.418-3.419A3.421,3.421,0,0,1,213.983,168.851Z" transform="translate(-177.011 -140.191)" fill="#fff"/>
    <path id="Path_726" data-name="Path 726" d="M164.631,168.851a3.421,3.421,0,1,1,3.421-3.418A3.421,3.421,0,0,1,164.631,168.851Z" transform="translate(-138.702 -140.191)" fill="#fff"/>
    <rect id="Rectangle_750" data-name="Rectangle 750" width="8.593" height="9.665" transform="translate(32.75 29.94)" fill="#fff"/>
    <rect id="Rectangle_751" data-name="Rectangle 751" width="8.593" height="9.665" transform="translate(21.739 29.94)" fill="#fff"/>
  </g>
</svg>
