<svg xmlns="http://www.w3.org/2000/svg" width="32.08" height="32" viewBox="0 0 32.08 32">
  <g id="interpretive-programs-outside" transform="translate(0 0)">
    <g id="Background" transform="translate(0 0)">
      <path id="Path_720" data-name="Path 720" d="M43.5,13.871a2.093,2.093,0,0,0-2.094-2.092H13.515a2.094,2.094,0,0,0-2.095,2.092V41.688a2.1,2.1,0,0,0,2.095,2.093H41.406A2.094,2.094,0,0,0,43.5,41.688Z" transform="translate(-11.42 -11.78)" fill="#38598a"/>
    </g>
    <g id="Marine-Accesible_Camping" data-name="Marine-Accesible Camping" transform="translate(5.572 5.971)">
      <path id="Path_721" data-name="Path 721" d="M139.62,68.9a1.731,1.731,0,1,0-1.73-1.729A1.731,1.731,0,0,0,139.62,68.9Z" transform="translate(-129.133 -65.331)" fill="#fff"/>
      <path id="Path_722" data-name="Path 722" d="M66.59,165.475a1.732,1.732,0,1,0-1.73-1.731A1.732,1.732,0,0,0,66.59,165.475Z" transform="translate(-64.377 -150.96)" fill="#fff"/>
      <path id="Path_723" data-name="Path 723" d="M115.932,165.475a1.732,1.732,0,1,0-1.732-1.731A1.732,1.732,0,0,0,115.932,165.475Z" transform="translate(-108.127 -150.96)" fill="#fff"/>
      <path id="Path_724" data-name="Path 724" d="M70.15,56.983H80.757L85.041,52.7l1.428,1.428L81.03,59.567v1.769H75.59V58.751H70.15Z" transform="translate(-67.774 -52.7)" fill="#fff"/>
      <rect id="Rectangle_748" data-name="Rectangle 748" width="4.352" height="4.895" transform="translate(0 15.163)" fill="#fff"/>
      <rect id="Rectangle_749" data-name="Rectangle 749" width="4.352" height="4.895" transform="translate(5.575 15.163)" fill="#fff"/>
      <path id="Path_725" data-name="Path 725" d="M212.293,165.475a1.732,1.732,0,1,1,1.731-1.732A1.732,1.732,0,0,1,212.293,165.475Z" transform="translate(-193.57 -150.96)" fill="#fff"/>
      <path id="Path_726" data-name="Path 726" d="M162.942,165.475a1.732,1.732,0,1,1,1.732-1.731A1.732,1.732,0,0,1,162.942,165.475Z" transform="translate(-149.811 -150.96)" fill="#fff"/>
      <rect id="Rectangle_750" data-name="Rectangle 750" width="4.352" height="4.895" transform="translate(16.586 15.163)" fill="#fff"/>
      <rect id="Rectangle_751" data-name="Rectangle 751" width="4.352" height="4.895" transform="translate(11.009 15.163)" fill="#fff"/>
    </g>
  </g>
</svg>
