<svg xmlns="http://www.w3.org/2000/svg" width="16" height="16.001" viewBox="0 0 16 16.001">
  <g id="interpretive-programs-outside" transform="translate(0 0)">
    <g id="Background" transform="translate(0 0)">
      <path id="Path_720" data-name="Path 720" d="M27.42,12.826a1.045,1.045,0,0,0-1.044-1.046H12.465a1.046,1.046,0,0,0-1.045,1.046V26.734a1.046,1.046,0,0,0,1.045,1.046H26.376a1.046,1.046,0,0,0,1.044-1.046Z" transform="translate(-11.42 -11.78)" fill="#38598a"/>
    </g>
    <g id="Marine-Accesible_Camping" data-name="Marine-Accesible Camping" transform="translate(2.765 2.985)">
      <path id="Path_721" data-name="Path 721" d="M138.755,67.171a.866.866,0,1,0-.865-.865A.866.866,0,0,0,138.755,67.171Z" transform="translate(-133.511 -65.386)" fill="#fff"/>
      <path id="Path_722" data-name="Path 722" d="M65.725,163.742a.866.866,0,1,0-.865-.866A.866.866,0,0,0,65.725,163.742Z" transform="translate(-64.619 -156.485)" fill="#fff"/>
      <path id="Path_723" data-name="Path 723" d="M115.066,163.742a.866.866,0,1,0-.866-.866A.866.866,0,0,0,115.066,163.742Z" transform="translate(-111.163 -156.485)" fill="#fff"/>
      <path id="Path_724" data-name="Path 724" d="M70.15,54.841h5.3L77.6,52.7l.714.714-2.719,2.72v.884H72.87V55.726H70.15Z" transform="translate(-68.962 -52.7)" fill="#fff"/>
      <rect id="Rectangle_748" data-name="Rectangle 748" width="2.176" height="2.447" transform="translate(0 7.582)" fill="#fff"/>
      <rect id="Rectangle_749" data-name="Rectangle 749" width="2.176" height="2.447" transform="translate(2.788 7.582)" fill="#fff"/>
      <path id="Path_725" data-name="Path 725" d="M211.427,163.742a.866.866,0,1,1,.866-.866A.866.866,0,0,1,211.427,163.742Z" transform="translate(-202.065 -156.485)" fill="#fff"/>
      <path id="Path_726" data-name="Path 726" d="M162.076,163.742a.866.866,0,1,1,.866-.866A.866.866,0,0,1,162.076,163.742Z" transform="translate(-155.51 -156.485)" fill="#fff"/>
      <rect id="Rectangle_750" data-name="Rectangle 750" width="2.176" height="2.447" transform="translate(8.293 7.582)" fill="#fff"/>
      <rect id="Rectangle_751" data-name="Rectangle 751" width="2.176" height="2.447" transform="translate(5.505 7.582)" fill="#fff"/>
    </g>
  </g>
</svg>
