<svg xmlns="http://www.w3.org/2000/svg" width="48" height="48" viewBox="0 0 48 48">
  <g id="marine-accessible-camping" transform="translate(0)">
    <g id="Background" transform="translate(0 0)">
      <path id="Path_732" data-name="Path 732" d="M48.1,3.138A3.142,3.142,0,0,0,44.962,0H3.238A3.142,3.142,0,0,0,.1,3.138V44.862A3.142,3.142,0,0,0,3.238,48H44.962A3.142,3.142,0,0,0,48.1,44.862Z" transform="translate(-0.1)" fill="#38598a"/>
    </g>
    <g id="Marine-Accesible_Camping" transform="translate(2.864 2.51)">
      <path id="Path_733" data-name="Path 733" d="M59.355,15.732a3.032,3.032,0,0,0-2.071-.832H20.122a3.014,3.014,0,0,0-3.022,3V55.066a3.017,3.017,0,0,0,.815,2.071l.017.017L59.355,15.732ZM33.6,55.083H31.768v1.426H58.319V55.083H56.282L45.06,37.207Zm6.926,0,4.5-6.74,4.3,6.74Z" transform="translate(-17.1 -14.9)" fill="#fff" fill-rule="evenodd"/>
      <g id="Anchor_1_" transform="translate(3.302 3.134)">
        <g id="Group_818" data-name="Group 818" transform="translate(7.565 4.92)">
          <path id="Path_734" data-name="Path 734" d="M82.358,74.966a.755.755,0,0,0,.758-.758V63.458a.755.755,0,0,0-.758-.758h0a.755.755,0,0,0-.758.758V74.208a.777.777,0,0,0,.758.758Z" transform="translate(-81.6 -62.7)" fill="#38598a"/>
        </g>
        <path id="Path_735" data-name="Path 735" d="M69.4,36.331a2.831,2.831,0,1,1,2.831,2.831A2.826,2.826,0,0,1,69.4,36.331Zm2.814,1.23a1.23,1.23,0,1,0-1.23-1.23A1.237,1.237,0,0,0,72.214,37.561Z" transform="translate(-63.89 -33.5)" fill="#38598a"/>
        <path id="Path_736" data-name="Path 736" d="M52.42,99.036a8.463,8.463,0,0,1-14.827,0l-.017-.017-.876.371.59-3.69,2.729,2.275-.876.371.017.017a6.815,6.815,0,0,0,11.76.034l.017-.051-.876-.371L52.791,95.7l.59,3.69L52.47,99Z" transform="translate(-36.7 -85.22)" fill="#38598a"/>
      </g>
    </g>
  </g>
</svg>
