<svg xmlns="http://www.w3.org/2000/svg" width="16.467" height="16.467" viewBox="0 0 16.467 16.467">
  <g id="marine-accessible-camping" transform="translate(0)">
    <g id="Background" transform="translate(0 0)">
      <path id="Path_732" data-name="Path 732" d="M16.567,1.076A1.078,1.078,0,0,0,15.49,0H1.176A1.078,1.078,0,0,0,.1,1.076V15.39a1.078,1.078,0,0,0,1.076,1.076H15.49a1.078,1.078,0,0,0,1.076-1.076Z" transform="translate(-0.1)" fill="#38598a"/>
    </g>
    <g id="Marine-Accesible_Camping" transform="translate(0.996 0.873)">
      <path id="Path_733" data-name="Path 733" d="M31.57,15.185a1.038,1.038,0,0,0-.709-.285H18.135A1.032,1.032,0,0,0,17.1,15.929V28.655a1.033,1.033,0,0,0,.279.709l.006.006L31.57,15.185ZM22.751,28.661h-.628v.488h9.092v-.488h-.7l-3.843-6.122Zm2.372,0,1.541-2.308,1.471,2.308Z" transform="translate(-17.1 -14.9)" fill="#fff" fill-rule="evenodd"/>
      <g id="Anchor_1_" transform="translate(1.148 1.089)">
        <g id="Group_818" data-name="Group 818" transform="translate(2.629 1.71)">
          <path id="Path_734" data-name="Path 734" d="M81.864,66.963a.262.262,0,0,0,.264-.264V62.964a.262.262,0,0,0-.264-.264h0a.262.262,0,0,0-.264.264V66.7a.27.27,0,0,0,.264.264Z" transform="translate(-81.6 -62.7)" fill="#38598a"/>
        </g>
        <path id="Path_735" data-name="Path 735" d="M69.4,34.484a.984.984,0,1,1,.984.984A.982.982,0,0,1,69.4,34.484Zm.978.427a.427.427,0,1,0-.427-.427A.43.43,0,0,0,70.378,34.911Z" transform="translate(-67.485 -33.5)" fill="#38598a"/>
        <path id="Path_736" data-name="Path 736" d="M42.164,96.859a2.941,2.941,0,0,1-5.153,0L37,96.854l-.3.129.2-1.282.949.791-.3.129.006.006a2.369,2.369,0,0,0,4.087.012l.006-.018-.3-.129.949-.791.2,1.282-.316-.135Z" transform="translate(-36.7 -92.058)" fill="#38598a"/>
      </g>
    </g>
  </g>
</svg>
