<svg xmlns="http://www.w3.org/2000/svg" width="64" height="64" viewBox="0 0 64 64">
  <g id="marine-accessible-camping" transform="translate(0 0)">
    <g id="Background" transform="translate(0 0)">
      <path id="Path_732" data-name="Path 732" d="M64.1,4.184A4.189,4.189,0,0,0,59.916,0H4.284A4.189,4.189,0,0,0,.1,4.184V59.816A4.189,4.189,0,0,0,4.284,64H59.916A4.189,4.189,0,0,0,64.1,59.816Z" transform="translate(-0.1)" fill="#38598a"/>
    </g>
    <g id="Marine-Accesible_Camping" transform="translate(3.803 3.333)">
      <path id="Path_733" data-name="Path 733" d="M73.471,16.01a4.045,4.045,0,0,0-2.763-1.11H21.131A4.021,4.021,0,0,0,17.1,18.909V68.485a4.025,4.025,0,0,0,1.087,2.763l.023.023L73.471,16.01Zm-34.357,52.5H36.668v1.9H72.09v-1.9H69.372L54.4,44.66Zm9.24,0,6-8.991,5.73,8.991Z" transform="translate(-17.1 -14.9)" fill="#fff" fill-rule="evenodd"/>
      <g id="Anchor_1_" transform="translate(4.385 4.161)">
        <g id="Group_818" data-name="Group 818" transform="translate(10.045 6.533)">
          <path id="Path_734" data-name="Path 734" d="M82.607,78.987a1,1,0,0,0,1.007-1.007V63.707A1,1,0,0,0,82.607,62.7h0A1,1,0,0,0,81.6,63.707V77.98a1.032,1.032,0,0,0,1.007,1.007Z" transform="translate(-81.6 -62.7)" fill="#38598a"/>
        </g>
        <path id="Path_735" data-name="Path 735" d="M69.4,37.258a3.758,3.758,0,1,1,3.758,3.758A3.752,3.752,0,0,1,69.4,37.258Zm3.736,1.633A1.633,1.633,0,1,0,71.5,37.258,1.642,1.642,0,0,0,73.136,38.892Z" transform="translate(-62.084 -33.5)" fill="#38598a"/>
        <path id="Path_736" data-name="Path 736" d="M57.573,100.13a11.238,11.238,0,0,1-19.687,0l-.022-.022L36.7,100.6l.783-4.9,3.624,3.02-1.163.492.022.022a9.05,9.05,0,0,0,15.616.045l.022-.067-1.163-.492,3.624-3.02.783,4.9-1.208-.515Z" transform="translate(-36.7 -81.785)" fill="#38598a"/>
      </g>
    </g>
  </g>
</svg>
