<svg xmlns="http://www.w3.org/2000/svg" width="64" height="64" viewBox="0 0 64 64">
  <g id="mountain-biking" transform="translate(0 0)">
    <path id="Path_748" data-name="Path 748" d="M64.11,4.676A4.181,4.181,0,0,0,59.934.5H4.376A4.181,4.181,0,0,0,.2,4.676h0V60.1a4.181,4.181,0,0,0,4.176,4.176h55.58A4.181,4.181,0,0,0,64.133,60.1V4.676Z" transform="translate(-0.155 -0.388)" fill="#fff"/>
    <path id="Path_749" data-name="Path 749" d="M64,4.176A4.181,4.181,0,0,0,59.824,0H4.176A4.181,4.181,0,0,0,0,4.176H0V59.8A4.2,4.2,0,0,0,4.176,64H59.824A4.181,4.181,0,0,0,64,59.824Z" transform="translate(0 0)" fill="#38598a"/>
    <path id="Path_750" data-name="Path 750" d="M12.8,49.211,32.91,24.4,48.161,39.667,55.618,32.2,68.723,45.321,71.1,43.059V70.765L12.8,77.46Z" transform="translate(-9.936 -18.941)" fill="#fff"/>
    <path id="Path_751" data-name="Path 751" d="M191.86,172.271a7.869,7.869,0,1,1-8.7-6.935h0A7.885,7.885,0,0,1,191.86,172.271Zm-8.524-5.347a6.28,6.28,0,1,0,6.935,5.548h0a6.283,6.283,0,0,0-6.935-5.548Z" transform="translate(-136.182 -127.864)" fill="#38598a"/>
    <path id="Path_752" data-name="Path 752" d="M63.16,186.858a7.869,7.869,0,1,1-8.7-6.935h0A7.869,7.869,0,0,1,63.16,186.858Zm-8.524-5.347a6.293,6.293,0,1,0,6.958,5.571,6.292,6.292,0,0,0-6.958-5.571Z" transform="translate(-36.723 -139.055)" fill="#38598a"/>
    <path id="Path_753" data-name="Path 753" d="M157.382,124.435s3.222-.492,3.333.358-1.5,2.349-1.5,2.349l9.53,13.871a.54.54,0,0,0,.738.134l.067-.067a.633.633,0,0,0,.022-.895l-8.837-13a3.994,3.994,0,0,0,1.208-2.931c-.179-1.611-5.146-.716-5.146-.716Z" transform="translate(-121.321 -95.36)" fill="#38598a"/>
    <path id="Path_754" data-name="Path 754" d="M143.5,148.838l6.6-.738.984,1.432-6.421.716Z" transform="translate(-111.065 -114.656)" fill="#38598a"/>
    <path id="Path_755" data-name="Path 755" d="M156.458,158.9l.962,1.387-7.875,7.942-.045-2.192Z" transform="translate(-115.707 -122.973)" fill="#38598a"/>
    <path id="Path_756" data-name="Path 756" d="M100.01,91.445l-1.969.224-6.577-5.794s-.761,5.392-1.633,6.309l6.51,4.43a3.336,3.336,0,0,1,1.5,2.55c.022,1.633.134,10.134.134,10.134a13.879,13.879,0,0,1,1.9.022,1.408,1.408,0,0,1,1.007,1.074l.022.291-5.571.626-.872-11.1L84.82,94.532s-1.544-1.051-.492-5.369,2.081-7.427,2.081-7.427,1.544-2.528,3.96-.157S100.01,91.445,100.01,91.445Z" transform="translate(-64.944 -62.223)" fill="#38598a"/>
    <path id="Path_757" data-name="Path 757" d="M105.31,56.258a2.5,2.5,0,1,1-2.752-2.215,2.477,2.477,0,0,1,2.752,2.215Z" transform="translate(-77.661 -41.821)" fill="#38598a"/>
    <path id="Path_758" data-name="Path 758" d="M81.225,147.779l1.566-.179,4.989,2.975-.6.336,4.3,5.839.492,6.622c-1.208-.425-1.365-1.23-1.365-1.23l-8.971,1.007c-1.208.134-.984-.828-.984-.828l3.333-12.327a2.126,2.126,0,0,0-.559-.694,6.646,6.646,0,0,0-2.013-.134Zm.783,14.027,8.255-.94a2.827,2.827,0,0,1,.694-2.058l-5.436-7.271Z" transform="translate(-62.39 -114.18)" fill="#38598a"/>
  </g>
</svg>
