<svg xmlns="http://www.w3.org/2000/svg" width="16" height="16" viewBox="0 0 16 16">
  <g id="mountain-biking" transform="translate(0 0)">
    <path id="Path_748" data-name="Path 748" d="M16.178,1.544A1.045,1.045,0,0,0,15.133.5H1.244A1.045,1.045,0,0,0,.2,1.544h0V15.4a1.045,1.045,0,0,0,1.044,1.044H15.139A1.045,1.045,0,0,0,16.183,15.4V1.544Z" transform="translate(-0.189 -0.472)" fill="#fff"/>
    <path id="Path_749" data-name="Path 749" d="M16,1.044A1.045,1.045,0,0,0,14.956,0H1.044A1.045,1.045,0,0,0,0,1.044H0V14.95A1.05,1.05,0,0,0,1.044,16H14.956A1.045,1.045,0,0,0,16,14.956Z" transform="translate(0 0)" fill="#38598a"/>
    <path id="Path_750" data-name="Path 750" d="M12.8,30.6l5.026-6.2,3.812,3.815L23.5,26.35l3.275,3.278.593-.565v6.923L12.8,37.658Z" transform="translate(-12.082 -23.031)" fill="#fff"/>
    <path id="Path_751" data-name="Path 751" d="M180.1,167.039a1.973,1.973,0,1,1-2.182-1.739h0A1.977,1.977,0,0,1,180.1,167.039Zm-2.137-1.34a1.574,1.574,0,1,0,1.739,1.391h0a1.575,1.575,0,0,0-1.739-1.391Z" transform="translate(-166.191 -155.941)" fill="#38598a"/>
    <path id="Path_752" data-name="Path 752" d="M51.4,181.622a1.973,1.973,0,1,1-2.182-1.739h0A1.973,1.973,0,0,1,51.4,181.622Zm-2.137-1.34a1.577,1.577,0,1,0,1.744,1.4,1.577,1.577,0,0,0-1.744-1.4Z" transform="translate(-44.786 -169.683)" fill="#38598a"/>
    <path id="Path_753" data-name="Path 753" d="M156.946,123.578s.808-.123.836.09-.376.589-.376.589l2.389,3.477a.135.135,0,0,0,.185.034l.017-.017a.159.159,0,0,0,.006-.224l-2.215-3.258a1,1,0,0,0,.3-.735c-.045-.4-1.29-.179-1.29-.179Z" transform="translate(-147.937 -116.316)" fill="#38598a"/>
    <path id="Path_754" data-name="Path 754" d="M143.5,148.285l1.654-.185.247.359-1.61.179Z" transform="translate(-135.395 -139.74)" fill="#38598a"/>
    <path id="Path_755" data-name="Path 755" d="M151.244,158.9l.241.348-1.974,1.991-.011-.55Z" transform="translate(-141.055 -149.922)" fill="#38598a"/>
    <path id="Path_756" data-name="Path 756" d="M87.984,83.291l-.494.056-1.649-1.453a5.708,5.708,0,0,1-.409,1.582l1.632,1.11a.836.836,0,0,1,.376.639c.006.409.034,2.541.034,2.541a3.479,3.479,0,0,1,.477.006.353.353,0,0,1,.252.269l.006.073-1.4.157-.219-2.782-2.417-1.425s-.387-.264-.123-1.346.522-1.862.522-1.862a.588.588,0,0,1,.993-.039C86.173,81.413,87.984,83.291,87.984,83.291Z" transform="translate(-79.211 -75.99)" fill="#38598a"/>
    <path id="Path_757" data-name="Path 757" d="M101.576,54.586a.626.626,0,1,1-.69-.555.621.621,0,0,1,.69.555Z" transform="translate(-94.662 -50.976)" fill="#38598a"/>
    <path id="Path_758" data-name="Path 758" d="M80.777,147.645l.393-.045,1.251.746-.151.084,1.077,1.464.123,1.66c-.3-.107-.342-.308-.342-.308l-2.249.252c-.3.034-.247-.208-.247-.208l.836-3.09a.533.533,0,0,0-.14-.174,1.666,1.666,0,0,0-.5-.034Zm.2,3.516,2.069-.236a.709.709,0,0,1,.174-.516l-1.363-1.823Z" transform="translate(-76.071 -139.252)" fill="#38598a"/>
  </g>
</svg>
