<svg xmlns="http://www.w3.org/2000/svg" width="31.999" height="31.999" viewBox="0 0 31.999 31.999">
  <g id="mountain-biking" transform="translate(0 0)">
    <path id="Path_748" data-name="Path 748" d="M32.155,2.588A2.091,2.091,0,0,0,30.066.5H2.288A2.091,2.091,0,0,0,.2,2.588h0V30.3a2.091,2.091,0,0,0,2.088,2.088H30.078A2.091,2.091,0,0,0,32.166,30.3V2.588Z" transform="translate(-0.178 -0.444)" fill="#fff"/>
    <path id="Path_749" data-name="Path 749" d="M32,2.088A2.091,2.091,0,0,0,29.911,0H2.088A2.091,2.091,0,0,0,0,2.088H0V29.9A2.1,2.1,0,0,0,2.088,32H29.911A2.091,2.091,0,0,0,32,29.911Z" transform="translate(0 0)" fill="#38598a"/>
    <path id="Path_750" data-name="Path 750" d="M12.8,36.805,22.855,24.4l7.626,7.633L34.208,28.3l6.552,6.559,1.186-1.131V47.582L12.8,50.929Z" transform="translate(-11.368 -21.671)" fill="#fff"/>
    <path id="Path_751" data-name="Path 751" d="M184.015,168.78a3.934,3.934,0,1,1-4.351-3.468h0A3.942,3.942,0,0,1,184.015,168.78Zm-4.262-2.673a3.14,3.14,0,1,0,3.468,2.774h0a3.141,3.141,0,0,0-3.468-2.774Z" transform="translate(-156.177 -146.577)" fill="#38598a"/>
    <path id="Path_752" data-name="Path 752" d="M55.315,183.364a3.934,3.934,0,1,1-4.351-3.468h0A3.934,3.934,0,0,1,55.315,183.364Zm-4.262-2.673a3.146,3.146,0,1,0,3.479,2.785,3.146,3.146,0,0,0-3.479-2.785Z" transform="translate(-42.097 -159.464)" fill="#38598a"/>
    <path id="Path_753" data-name="Path 753" d="M157.091,123.863s1.611-.246,1.667.179-.749,1.174-.749,1.174l4.765,6.935a.27.27,0,0,0,.369.067l.034-.034a.317.317,0,0,0,.011-.447l-4.418-6.5a2,2,0,0,0,.6-1.465c-.089-.805-2.573-.358-2.573-.358Z" transform="translate(-139.061 -109.327)" fill="#38598a"/>
    <path id="Path_754" data-name="Path 754" d="M143.5,148.469l3.3-.369.492.716-3.21.358Z" transform="translate(-127.283 -131.379)" fill="#38598a"/>
    <path id="Path_755" data-name="Path 755" d="M152.979,158.9l.481.694-3.937,3.971-.022-1.1Z" transform="translate(-132.604 -140.937)" fill="#38598a"/>
    <path id="Path_756" data-name="Path 756" d="M91.985,86,91,86.116l-3.289-2.9s-.38,2.7-.817,3.154l3.255,2.215a1.668,1.668,0,0,1,.749,1.275c.011.817.067,5.067.067,5.067a6.939,6.939,0,0,1,.951.011.7.7,0,0,1,.5.537l.011.145-2.785.313-.436-5.548L84.39,87.548s-.772-.526-.246-2.685,1.04-3.714,1.04-3.714a1.172,1.172,0,0,1,1.98-.078C88.372,82.257,91.985,86,91.985,86Z" transform="translate(-74.453 -71.394)" fill="#38598a"/>
    <path id="Path_757" data-name="Path 757" d="M102.818,55.142a1.249,1.249,0,1,1-1.376-1.107,1.238,1.238,0,0,1,1.376,1.107Z" transform="translate(-88.994 -47.924)" fill="#38598a"/>
    <path id="Path_758" data-name="Path 758" d="M80.926,147.689l.783-.089,2.494,1.488-.3.168,2.148,2.919.246,3.311c-.6-.213-.682-.615-.682-.615l-4.485.5c-.6.067-.492-.414-.492-.414L82.3,148.8a1.063,1.063,0,0,0-.28-.347,3.323,3.323,0,0,0-1.007-.067Zm.392,7.013,4.128-.47a1.414,1.414,0,0,1,.347-1.029l-2.718-3.635Z" transform="translate(-71.509 -130.891)" fill="#38598a"/>
  </g>
</svg>
