<svg xmlns="http://www.w3.org/2000/svg" width="48" height="48" viewBox="0 0 48 48">
  <g id="mountain-biking" transform="translate(0 0)">
    <path id="Path_748" data-name="Path 748" d="M48.133,3.632A3.136,3.136,0,0,0,45,.5H3.332A3.136,3.136,0,0,0,.2,3.632h0V45.2a3.136,3.136,0,0,0,3.132,3.132H45.017A3.136,3.136,0,0,0,48.15,45.2V3.632Z" transform="translate(-0.167 -0.416)" fill="#fff"/>
    <path id="Path_749" data-name="Path 749" d="M48,3.132A3.136,3.136,0,0,0,44.868,0H3.132A3.136,3.136,0,0,0,0,3.132H0V44.851A3.151,3.151,0,0,0,3.132,48H44.868A3.136,3.136,0,0,0,48,44.868Z" transform="translate(0 0)" fill="#38598a"/>
    <path id="Path_750" data-name="Path 750" d="M12.8,43.008,27.882,24.4,39.321,35.85l5.592-5.6,9.829,9.838,1.779-1.7v20.78L12.8,64.195Z" transform="translate(-10.652 -20.306)" fill="#fff"/>
    <path id="Path_751" data-name="Path 751" d="M187.938,170.526a5.9,5.9,0,1,1-6.527-5.2h0A5.914,5.914,0,0,1,187.938,170.526Zm-6.393-4.01a4.71,4.71,0,1,0,5.2,4.161h0a4.712,4.712,0,0,0-5.2-4.161Z" transform="translate(-146.18 -137.221)" fill="#38598a"/>
    <path id="Path_752" data-name="Path 752" d="M59.238,185.111a5.9,5.9,0,1,1-6.527-5.2h0A5.9,5.9,0,0,1,59.238,185.111Zm-6.393-4.01a4.719,4.719,0,1,0,5.218,4.178,4.719,4.719,0,0,0-5.218-4.178Z" transform="translate(-39.41 -149.259)" fill="#38598a"/>
    <path id="Path_753" data-name="Path 753" d="M157.236,124.149s2.416-.369,2.5.268-1.124,1.762-1.124,1.762l7.148,10.4a.4.4,0,0,0,.554.1l.05-.05a.475.475,0,0,0,.017-.671l-6.628-9.749a3,3,0,0,0,.906-2.2c-.134-1.208-3.859-.537-3.859-.537Z" transform="translate(-130.191 -102.343)" fill="#38598a"/>
    <path id="Path_754" data-name="Path 754" d="M143.5,148.654l4.95-.554.738,1.074-4.816.537Z" transform="translate(-119.174 -123.017)" fill="#38598a"/>
    <path id="Path_755" data-name="Path 755" d="M154.718,158.9l.721,1.04-5.906,5.956-.034-1.644Z" transform="translate(-124.155 -131.955)" fill="#38598a"/>
    <path id="Path_756" data-name="Path 756" d="M96,88.724l-1.477.168-4.933-4.346s-.57,4.044-1.225,4.732L93.246,92.6a2.5,2.5,0,0,1,1.124,1.913c.017,1.225.1,7.6.1,7.6a10.408,10.408,0,0,1,1.426.017,1.056,1.056,0,0,1,.755.805l.017.218-4.178.47L91.837,95.3,84.6,91.04s-1.158-.789-.369-4.027,1.56-5.571,1.56-5.571,1.158-1.9,2.97-.117S96,88.724,96,88.724Z" transform="translate(-69.699 -66.808)" fill="#38598a"/>
    <path id="Path_757" data-name="Path 757" d="M104.064,55.7A1.873,1.873,0,1,1,102,54.039a1.858,1.858,0,0,1,2.064,1.661Z" transform="translate(-83.327 -44.873)" fill="#38598a"/>
    <path id="Path_758" data-name="Path 758" d="M81.075,147.734l1.175-.134,3.742,2.232-.453.252,3.222,4.379.369,4.967c-.906-.319-1.024-.923-1.024-.923l-6.728.755c-.906.1-.738-.621-.738-.621l2.5-9.245a1.6,1.6,0,0,0-.419-.52,4.985,4.985,0,0,0-1.51-.1Zm.587,10.52,6.191-.7a2.121,2.121,0,0,1,.52-1.544L84.3,150.553Z" transform="translate(-66.949 -122.535)" fill="#38598a"/>
  </g>
</svg>
