<svg xmlns="http://www.w3.org/2000/svg" width="31.999" height="31.999" viewBox="0 0 31.999 31.999">
  <g id="pets-on-leash" transform="translate(0 0)">
    <g id="Z_Base_layer_130mm" transform="translate(0 0)">
      <g id="Group_824" data-name="Group 824">
        <path id="Path_765" data-name="Path 765" d="M31.988,2.1A2.1,2.1,0,0,0,29.9,0H2.09A2.1,2.1,0,0,0,0,2.1V29.9A2.1,2.1,0,0,0,2.09,32H29.909A2.1,2.1,0,0,0,32,29.9V2.1Z" fill="#38598a"/>
        <path id="Path_766" data-name="Path 766" d="M31.988,2.1A2.1,2.1,0,0,0,29.9,0H2.09A2.1,2.1,0,0,0,0,2.1V29.9A2.1,2.1,0,0,0,2.09,32H29.909A2.1,2.1,0,0,0,32,29.9V2.1Z" fill="#38598a"/>
      </g>
    </g>
    <g id="Pets_on_Leash" transform="translate(5.838 3.501)">
      <g id="Group_828" data-name="Group 828">
        <g id="Group_827" data-name="Group 827">
          <g id="Group_826" data-name="Group 826">
            <g id="Group_825" data-name="Group 825" transform="translate(0.083)">
              <path id="Path_767" data-name="Path 767" d="M53.021,34.343A1.521,1.521,0,1,0,51.5,32.821,1.523,1.523,0,0,0,53.021,34.343Z" transform="translate(-51.5 -31.3)" fill="#fff"/>
            </g>
            <path id="Path_768" data-name="Path 768" d="M57.831,66.84l1.376-.514-6.678-4.947s-1.879-1.074-1.767.846.716,7.107.716,7.107a22.468,22.468,0,0,1,.168,2.879c-.056,1.017-.66,6.821-.66,6.821l1,1.074,1.264-7.118,4.195,6.478,1-.617-3.367-8.055-1.6-6.49Z" transform="translate(-50.757 -57.748)" fill="#fff"/>
            <path id="Path_769" data-name="Path 769" d="M120.858,110.5s2.148,6.734,6.286,6.79l-.045.738s-4.262.034-6.8-7.248C120.288,110.724,120.858,110.5,120.858,110.5Z" transform="translate(-112.52 -101.433)" fill="#fff"/>
            <path id="Path_770" data-name="Path 770" d="M145.7,141.2l-2.1-.716-.112-.716s-1.868-.872-2.707.112c-.6.716-.28.94-.28.94l-.5,2.148,1.622.28-.056.6-1.566-.112A7.378,7.378,0,0,1,138,146.166a4.56,4.56,0,0,0-2.036,3.255c.056,1,.112,1.32.112,1.32a1.035,1.035,0,0,1-1.163-.884c-.28-1.051-.28,1.454,1.488,1.767,1.544.28,1.655.336,2.483-.112l-.056.391a13.132,13.132,0,0,1,3.031-.168c.772.112-.492-1.275-1.376-.716,0,0,1.779-2.159-.28-2.159-.056,0,1.656-1.163,1.656-1.163a2.911,2.911,0,0,0,.94,1.711c.056.056,1.163,1.879,1.163,1.879l1.051-.056a.879.879,0,0,0-.66-.94c-.772-.28-1.051-2.259-1.051-2.259s.559-3.579-.6-3.579c-.056,0,1.107-1.163,1.107-1.163l-.447-.884s1.107.66,1.6.056A4.332,4.332,0,0,0,145.7,141.2Z" transform="translate(-125.381 -126.919)" fill="#fff"/>
          </g>
        </g>
      </g>
    </g>
  </g>
</svg>
