<svg xmlns="http://www.w3.org/2000/svg" width="31.999" height="31.999" viewBox="0 0 31.999 31.999">
  <g id="sailing" transform="translate(0 0)">
    <g id="Z_Base_layer_130mm" transform="translate(0 0)">
      <g id="Group_833" data-name="Group 833" transform="translate(0 0)">
        <path id="Path_776" data-name="Path 776" d="M31.988,2.1A2.1,2.1,0,0,0,29.9,0H2.09A2.1,2.1,0,0,0,0,2.1V29.9A2.1,2.1,0,0,0,2.09,32H29.909A2.1,2.1,0,0,0,32,29.9V2.1Z" transform="translate(0 0)" fill="#fff"/>
        <path id="Path_777" data-name="Path 777" d="M31.988,2.1A2.1,2.1,0,0,0,29.9,0H2.09A2.1,2.1,0,0,0,0,2.1V29.9A2.1,2.1,0,0,0,2.09,32H29.909A2.1,2.1,0,0,0,32,29.9V2.1Z" transform="translate(0 0)" fill="#38598a"/>
      </g>
    </g>
    <g id="Sail_Boating" transform="translate(2.371 3.736)">
      <g id="Group_836" data-name="Group 836">
        <g id="Group_835" data-name="Group 835">
          <g id="Group_834" data-name="Group 834">
            <path id="Path_778" data-name="Path 778" d="M37.531,53.733,21.2,53.3,37.844,33.4Z" transform="translate(-21.2 -33.4)" fill="#fff"/>
            <path id="Path_779" data-name="Path 779" d="M176.6,69.4V85.407l9.541.213Z" transform="translate(-158.896 -64.973)" fill="#fff"/>
          </g>
          <path id="Path_780" data-name="Path 780" d="M68.723,225.741c-1.689,0-1.823-2.841-1.823-2.841H85.323a21.636,21.636,0,0,1-1.991,2.908h-.056a2.073,2.073,0,0,1-1.868-1.163H81.4a2.106,2.106,0,0,1-1.868,1.163,2.073,2.073,0,0,1-1.868-1.163h-.011a2.09,2.09,0,0,1-3.747,0h-.011a2.073,2.073,0,0,1-1.868,1.163,2.11,2.11,0,0,1-1.879-1.163h-.011a2.073,2.073,0,0,1-1.32,1.085Z" transform="translate(-61.467 -201.303)" fill="#fff"/>
        </g>
      </g>
    </g>
  </g>
</svg>
