<svg xmlns="http://www.w3.org/2000/svg" width="47.998" height="47.998" viewBox="0 0 47.998 47.998">
  <g id="sailing" transform="translate(0 0)">
    <g id="Z_Base_layer_130mm" transform="translate(0 0)">
      <g id="Group_833" data-name="Group 833">
        <path id="Path_776" data-name="Path 776" d="M47.981,3.143A3.143,3.143,0,0,0,44.846,0H3.135A3.143,3.143,0,0,0,0,3.143V44.855A3.143,3.143,0,0,0,3.135,48H44.863A3.143,3.143,0,0,0,48,44.855V3.143Z" fill="#fff"/>
        <path id="Path_777" data-name="Path 777" d="M47.981,3.143A3.143,3.143,0,0,0,44.846,0H3.135A3.143,3.143,0,0,0,0,3.143V44.855A3.143,3.143,0,0,0,3.135,48H44.863A3.143,3.143,0,0,0,48,44.855V3.143Z" fill="#38598a"/>
      </g>
    </g>
    <g id="Sail_Boating" transform="translate(3.557 5.604)">
      <g id="Group_836" data-name="Group 836">
        <g id="Group_835" data-name="Group 835">
          <g id="Group_834" data-name="Group 834">
            <path id="Path_778" data-name="Path 778" d="M45.7,63.9l-24.5-.65L46.166,33.4Z" transform="translate(-21.2 -33.4)" fill="#fff"/>
            <path id="Path_779" data-name="Path 779" d="M176.6,69.4V93.41l14.312.319Z" transform="translate(-150.045 -62.76)" fill="#fff"/>
          </g>
          <path id="Path_780" data-name="Path 780" d="M69.635,227.162c-2.534,0-2.735-4.262-2.735-4.262H94.534a32.453,32.453,0,0,1-2.987,4.362h-.084a3.109,3.109,0,0,1-2.8-1.745h-.017a3.158,3.158,0,0,1-2.8,1.745,3.109,3.109,0,0,1-2.8-1.745h-.017a3.136,3.136,0,0,1-5.621,0h-.017a3.109,3.109,0,0,1-2.8,1.745,3.164,3.164,0,0,1-2.819-1.745h-.017a3.11,3.11,0,0,1-1.98,1.628Z" transform="translate(-58.75 -190.506)" fill="#fff"/>
        </g>
      </g>
    </g>
  </g>
</svg>
