<svg xmlns="http://www.w3.org/2000/svg" width="64" height="64" viewBox="0 0 64 64">
  <g id="scuba-diving" transform="translate(0 0)">
    <g id="Z_Base_layer_130mm" transform="translate(0 0)">
      <g id="Group_842" data-name="Group 842">
        <path id="Path_789" data-name="Path 789" d="M63.977,4.191A4.191,4.191,0,0,0,59.8,0H4.181A4.191,4.191,0,0,0,0,4.191V59.809A4.191,4.191,0,0,0,4.181,64H59.819A4.191,4.191,0,0,0,64,59.809V4.191Z" fill="#fff"/>
        <path id="Path_790" data-name="Path 790" d="M63.977,4.191A4.191,4.191,0,0,0,59.8,0H4.181A4.191,4.191,0,0,0,0,4.191V59.809A4.191,4.191,0,0,0,4.181,64H59.819A4.191,4.191,0,0,0,64,59.809V4.191Z" fill="#38598a"/>
      </g>
    </g>
    <g id="Scuba_Diving" transform="translate(2.863 13.72)">
      <g id="Group_846" data-name="Group 846">
        <g id="Group_845" data-name="Group 845">
          <g id="Group_844" data-name="Group 844">
            <g id="Group_843" data-name="Group 843" transform="translate(0.201 12.036)">
              <path id="Path_791" data-name="Path 791" d="M13.7,113.4l4.474.224s1.9,4.676,2.975,4.676H18.6Z" transform="translate(-13.7 -113.4)" fill="#fff"/>
              <path id="Path_792" data-name="Path 792" d="M40.4,142.1l11.9,12.349,12.752-3.2s2.081-.738.425-3.4c-.85-1.365-1.857-3.8-4.251-2.55-1.611.85-8.3,4.049-8.3,4.049l-10-7.45Z" transform="translate(-34.427 -135.524)" fill="#fff"/>
              <path id="Path_793" data-name="Path 793" d="M171.6,157.873,182.023,170l-1.924.85-8.3-7.025-9.575-2.55a4.952,4.952,0,0,1-2.349-2.774c-.313-.783,1.5-1.5,2.125-1.5C162.671,157.022,171.6,157.873,171.6,157.873Z" transform="translate(-126.502 -147.246)" fill="#fff"/>
              <path id="Path_794" data-name="Path 794" d="M166.526,138.048H155.9a1.014,1.014,0,0,1-.179-.022c-.38-.067-1.32-.38-1.32-1.9,0-1.544.962-1.834,1.342-1.9a.715.715,0,0,1,.157-.022h10.627l.045.022c.38.067,1.342.358,1.342,1.9,0,1.521-.94,1.834-1.32,1.9Z" transform="translate(-122.434 -129.547)" fill="#fff"/>
            </g>
            <path id="Path_795" data-name="Path 795" d="M58.564,62.643s.611,1.991,4.049,1.991,4.253-1.991,4.253-1.991l.045.022s.611,1.991,4.049,1.991V62.128c-3.439,0-4.095-2.506-4.095-2.506l-.045-.022s-.769,2.013-4.208,2.013-4.095-1.991-4.095-1.991h-.045s-.724,1.991-4.162,1.991-4.095-1.991-4.095-1.991h0s-.724,1.946-4.162,1.946-4.095-1.946-4.095-1.946h-.09s-.724,1.946-4.162,1.946-4.095-1.946-4.095-1.946h0s-.724,1.946-4.162,1.946-4.095-1.946-4.095-1.946h-.09s-.724,1.991-4.162,1.991-4.095-1.991-4.095-1.991V59.6s-.769,2.506-4.208,2.506v2.55c3.439,0,4.253-2.013,4.253-2.013h0s.611,1.991,4.049,1.991,4.208-1.991,4.208-1.991h.09s.611,1.991,4.049,1.991,4.208-1.991,4.208-1.991h0s.611,1.991,4.049,1.991,4.208-1.991,4.208-1.991H42s.611,1.991,4.049,1.991,4.208-1.991,4.208-1.991h0s.611,1.991,4.049,1.991,4.208-1.991,4.208-1.991Z" transform="translate(-12.8 -59.6)" fill="#fff"/>
          </g>
          <path id="Path_796" data-name="Path 796" d="M230.985,127.777v-.134a3.043,3.043,0,1,0-3.043,3.043,3.008,3.008,0,0,0,.783-.112l1.342,1.521,2.416-3.244Z" transform="translate(-176.806 -110.058)" fill="#fff"/>
        </g>
      </g>
    </g>
  </g>
</svg>
