<svg xmlns="http://www.w3.org/2000/svg" width="31.999" height="31.999" viewBox="0 0 31.999 31.999">
  <g id="scuba-diving" transform="translate(0 0)">
    <g id="Z_Base_layer_130mm" transform="translate(0 0)">
      <g id="Group_842" data-name="Group 842" transform="translate(0 0)">
        <path id="Path_789" data-name="Path 789" d="M31.988,2.1A2.1,2.1,0,0,0,29.9,0H2.09A2.1,2.1,0,0,0,0,2.1V29.9A2.1,2.1,0,0,0,2.09,32H29.909A2.1,2.1,0,0,0,32,29.9V2.1Z" transform="translate(0 0)" fill="#fff"/>
        <path id="Path_790" data-name="Path 790" d="M31.988,2.1A2.1,2.1,0,0,0,29.9,0H2.09A2.1,2.1,0,0,0,0,2.1V29.9A2.1,2.1,0,0,0,2.09,32H29.909A2.1,2.1,0,0,0,32,29.9V2.1Z" transform="translate(0 0)" fill="#38598a"/>
      </g>
    </g>
    <g id="Scuba_Diving" transform="translate(1.431 6.86)">
      <g id="Group_846" data-name="Group 846">
        <g id="Group_845" data-name="Group 845">
          <g id="Group_844" data-name="Group 844">
            <g id="Group_843" data-name="Group 843" transform="translate(0.101 6.018)">
              <path id="Path_791" data-name="Path 791" d="M13.7,113.4l2.237.112s.951,2.338,1.488,2.338H16.15Z" transform="translate(-13.7 -113.4)" fill="#fff"/>
              <path id="Path_792" data-name="Path 792" d="M40.4,142l5.951,6.175,6.376-1.6s1.04-.369.213-1.7c-.425-.682-.928-1.9-2.125-1.275-.805.425-4.15,2.025-4.15,2.025l-5-3.725Z" transform="translate(-37.413 -138.712)" fill="#fff"/>
              <path id="Path_793" data-name="Path 793" d="M165.718,157.436l5.212,6.063-.962.425-4.15-3.512-4.787-1.275a2.476,2.476,0,0,1-1.174-1.387c-.157-.391.749-.749,1.063-.749C161.255,157.011,165.718,157.436,165.718,157.436Z" transform="translate(-143.171 -152.123)" fill="#fff"/>
              <path id="Path_794" data-name="Path 794" d="M160.463,136.124h-5.313a.506.506,0,0,1-.089-.011c-.19-.034-.66-.19-.66-.951s.481-.917.671-.951a.357.357,0,0,1,.078-.011h5.313l.022.011c.19.034.671.179.671.951s-.47.917-.66.951Z" transform="translate(-138.417 -131.873)" fill="#fff"/>
            </g>
            <path id="Path_795" data-name="Path 795" d="M35.681,61.121s.305,1,2.025,1,2.126-1,2.126-1l.023.011s.305,1,2.025,1V60.864a1.938,1.938,0,0,1-2.047-1.253L39.81,59.6s-.385,1.007-2.1,1.007-2.047-1-2.047-1h-.023s-.362,1-2.081,1-2.047-1-2.047-1h0s-.362.973-2.081.973-2.047-.973-2.047-.973h-.045s-.362.973-2.081.973-2.047-.973-2.047-.973h0s-.362.973-2.081.973-2.047-.973-2.047-.973h-.045s-.362,1-2.081,1-2.047-1-2.047-1V59.6a2.048,2.048,0,0,1-2.1,1.253v1.275c1.719,0,2.126-1.007,2.126-1.007h0s.305,1,2.025,1,2.1-1,2.1-1H19.1s.305,1,2.025,1,2.1-1,2.1-1h0s.305,1,2.025,1,2.1-1,2.1-1H27.4s.305,1,2.025,1,2.1-1,2.1-1h0s.305,1,2.025,1,2.1-1,2.1-1Z" transform="translate(-12.8 -59.6)" fill="#fff"/>
          </g>
          <path id="Path_796" data-name="Path 796" d="M227.943,126.188v-.067a1.521,1.521,0,1,0-1.521,1.521,1.5,1.5,0,0,0,.392-.056l.671.761,1.208-1.622Z" transform="translate(-200.854 -117.329)" fill="#fff"/>
        </g>
      </g>
    </g>
  </g>
</svg>
