<svg xmlns="http://www.w3.org/2000/svg" width="16.2" height="16.2" viewBox="0 0 16.2 16.2">
  <g id="scuba-diving" transform="translate(0)">
    <g id="Z_Base_layer_130mm" transform="translate(0 0)">
      <g id="Group_842" data-name="Group 842" transform="translate(0 0)">
        <path id="Path_789" data-name="Path 789" d="M16.194,1.061A1.061,1.061,0,0,0,15.136,0H1.058A1.061,1.061,0,0,0,0,1.061V15.139A1.061,1.061,0,0,0,1.058,16.2H15.142A1.061,1.061,0,0,0,16.2,15.139V1.061Z" transform="translate(0 0)" fill="#fff"/>
        <path id="Path_790" data-name="Path 790" d="M16.194,1.061A1.061,1.061,0,0,0,15.136,0H1.058A1.061,1.061,0,0,0,0,1.061V15.139A1.061,1.061,0,0,0,1.058,16.2H15.142A1.061,1.061,0,0,0,16.2,15.139V1.061Z" transform="translate(0 0)" fill="#38598a"/>
      </g>
    </g>
    <g id="Scuba_Diving" transform="translate(0.725 3.473)">
      <g id="Group_846" data-name="Group 846">
        <g id="Group_845" data-name="Group 845">
          <g id="Group_844" data-name="Group 844">
            <g id="Group_843" data-name="Group 843" transform="translate(0.051 3.047)">
              <path id="Path_791" data-name="Path 791" d="M13.7,113.4l1.133.057s.481,1.184.753,1.184H14.94Z" transform="translate(-13.7 -113.4)" fill="#fff"/>
              <path id="Path_792" data-name="Path 792" d="M40.4,141.951l3.013,3.126,3.228-.81s.527-.187.108-.861c-.215-.345-.47-.963-1.076-.646-.408.215-2.1,1.025-2.1,1.025L41.04,141.9Z" transform="translate(-38.888 -140.286)" fill="#fff"/>
              <path id="Path_793" data-name="Path 793" d="M162.815,157.221l2.639,3.069-.487.215-2.1-1.778-2.424-.646a1.253,1.253,0,0,1-.595-.7c-.079-.2.379-.379.538-.379S162.815,157.221,162.815,157.221Z" transform="translate(-151.4 -154.531)" fill="#fff"/>
              <path id="Path_794" data-name="Path 794" d="M157.469,135.174h-2.69a.256.256,0,0,1-.045-.006c-.1-.017-.334-.1-.334-.481s.244-.464.34-.481a.181.181,0,0,1,.04-.006h2.69l.011.006c.1.017.34.091.34.481s-.238.464-.334.481Z" transform="translate(-146.309 -133.022)" fill="#fff"/>
            </g>
            <path id="Path_795" data-name="Path 795" d="M24.384,60.37s.155.5,1.025.5,1.077-.5,1.077-.5l.011.006s.155.5,1.025.5v-.64a.981.981,0,0,1-1.036-.634l-.011-.006s-.195.51-1.065.51-1.036-.5-1.036-.5h-.011s-.183.5-1.054.5-1.036-.5-1.036-.5h0s-.183.493-1.054.493-1.036-.493-1.036-.493h-.023s-.183.493-1.054.493-1.036-.493-1.036-.493h0s-.183.493-1.054.493-1.036-.493-1.036-.493h-.023s-.183.5-1.054.5-1.036-.5-1.036-.5V59.6a1.037,1.037,0,0,1-1.065.634v.646c.87,0,1.077-.51,1.077-.51h0s.155.5,1.025.5,1.065-.5,1.065-.5h.023s.155.5,1.025.5,1.065-.5,1.065-.5h0s.155.5,1.025.5,1.065-.5,1.065-.5h.023s.155.5,1.025.5,1.065-.5,1.065-.5h0s.155.5,1.025.5,1.065-.5,1.065-.5Z" transform="translate(-12.8 -59.6)" fill="#fff"/>
          </g>
          <path id="Path_796" data-name="Path 796" d="M226.44,125.4v-.034a.77.77,0,1,0-.77.77.762.762,0,0,0,.2-.028l.34.385.612-.821Z" transform="translate(-212.726 -120.919)" fill="#fff"/>
        </g>
      </g>
    </g>
  </g>
</svg>
