<svg xmlns="http://www.w3.org/2000/svg" width="47.998" height="47.998" viewBox="0 0 47.998 47.998">
  <g id="scuba-diving" transform="translate(0 0)">
    <g id="Z_Base_layer_130mm" transform="translate(0 0)">
      <g id="Group_842" data-name="Group 842">
        <path id="Path_789" data-name="Path 789" d="M47.981,3.143A3.143,3.143,0,0,0,44.846,0H3.135A3.143,3.143,0,0,0,0,3.143V44.855A3.143,3.143,0,0,0,3.135,48H44.863A3.143,3.143,0,0,0,48,44.855V3.143Z" fill="#fff"/>
        <path id="Path_790" data-name="Path 790" d="M47.981,3.143A3.143,3.143,0,0,0,44.846,0H3.135A3.143,3.143,0,0,0,0,3.143V44.855A3.143,3.143,0,0,0,3.135,48H44.863A3.143,3.143,0,0,0,48,44.855V3.143Z" fill="#38598a"/>
      </g>
    </g>
    <g id="Scuba_Diving" transform="translate(2.148 10.29)">
      <g id="Group_846" data-name="Group 846">
        <g id="Group_845" data-name="Group 845">
          <g id="Group_844" data-name="Group 844">
            <g id="Group_843" data-name="Group 843" transform="translate(0.151 9.027)">
              <path id="Path_791" data-name="Path 791" d="M13.7,113.4l3.356.168s1.426,3.507,2.232,3.507H17.374Z" transform="translate(-13.7 -113.4)" fill="#fff"/>
              <path id="Path_792" data-name="Path 792" d="M40.4,142.051l8.926,9.262,9.564-2.4s1.56-.554.319-2.55c-.638-1.023-1.393-2.852-3.188-1.913-1.208.638-6.225,3.037-6.225,3.037L42.3,141.9Z" transform="translate(-35.92 -137.118)" fill="#fff"/>
              <path id="Path_793" data-name="Path 793" d="M168.658,157.654l7.819,9.094-1.443.638-6.225-5.268-7.181-1.913a3.714,3.714,0,0,1-1.762-2.08c-.235-.587,1.124-1.124,1.594-1.124C161.963,157.017,168.658,157.654,168.658,157.654Z" transform="translate(-134.837 -149.685)" fill="#fff"/>
              <path id="Path_794" data-name="Path 794" d="M163.494,137.086h-7.97a.76.76,0,0,1-.134-.017c-.285-.05-.99-.285-.99-1.426,0-1.158.721-1.376,1.007-1.426a.536.536,0,0,1,.117-.017h7.97l.034.017c.285.05,1.007.268,1.007,1.426,0,1.141-.7,1.376-.99,1.426Z" transform="translate(-130.426 -130.71)" fill="#fff"/>
            </g>
            <path id="Path_795" data-name="Path 795" d="M47.122,61.882s.458,1.493,3.037,1.493,3.19-1.493,3.19-1.493l.034.017s.458,1.493,3.037,1.493V61.5a2.908,2.908,0,0,1-3.071-1.879l-.034-.017s-.577,1.51-3.156,1.51-3.071-1.493-3.071-1.493h-.034s-.543,1.493-3.122,1.493-3.071-1.493-3.071-1.493h0s-.543,1.46-3.122,1.46-3.071-1.46-3.071-1.46H34.6s-.543,1.46-3.122,1.46-3.071-1.46-3.071-1.46h0s-.543,1.46-3.122,1.46-3.071-1.46-3.071-1.46h-.068s-.543,1.493-3.122,1.493-3.071-1.493-3.071-1.493V59.6A3.072,3.072,0,0,1,12.8,61.479v1.913c2.579,0,3.19-1.51,3.19-1.51h0s.458,1.493,3.037,1.493,3.156-1.493,3.156-1.493h.068s.458,1.493,3.037,1.493,3.156-1.493,3.156-1.493h0s.458,1.493,3.037,1.493,3.156-1.493,3.156-1.493H34.7s.458,1.493,3.037,1.493S40.9,61.882,40.9,61.882h0s.458,1.493,3.037,1.493,3.156-1.493,3.156-1.493Z" transform="translate(-12.8 -59.6)" fill="#fff"/>
          </g>
          <path id="Path_796" data-name="Path 796" d="M229.464,126.983v-.1a2.282,2.282,0,1,0-2.282,2.282,2.256,2.256,0,0,0,.587-.084l1.007,1.141,1.812-2.433Z" transform="translate(-188.831 -113.694)" fill="#fff"/>
        </g>
      </g>
    </g>
  </g>
</svg>
