<svg xmlns="http://www.w3.org/2000/svg" width="64" height="64" viewBox="0 0 64 64">
  <g id="snowmobiling" transform="translate(0 0)">
    <g id="Z_Base_layer_130mm" transform="translate(0 0)">
      <g id="Group_851" data-name="Group 851">
        <path id="Path_803" data-name="Path 803" d="M63.977,4.191A4.191,4.191,0,0,0,59.8,0H4.181A4.191,4.191,0,0,0,0,4.191V59.809A4.191,4.191,0,0,0,4.181,64H59.819A4.191,4.191,0,0,0,64,59.809V4.191Z" fill="#fff"/>
        <path id="Path_804" data-name="Path 804" d="M63.977,4.191A4.191,4.191,0,0,0,59.8,0H4.181A4.191,4.191,0,0,0,0,4.191V59.809A4.191,4.191,0,0,0,4.181,64H59.819A4.191,4.191,0,0,0,64,59.809V4.191Z" fill="#38598a"/>
      </g>
    </g>
    <g id="Snowmobiling-2" data-name="Snowmobiling" transform="translate(4.899 9.18)">
      <g id="Group_854" data-name="Group 854">
        <g id="Group_853" data-name="Group 853">
          <g id="Group_852" data-name="Group 852">
            <path id="Path_805" data-name="Path 805" d="M125.626,49.549c-1.074,0-3.356-1.857-3.982-3.289-.582-1.387-1.767-2.886,2.282-4.788,4.027-1.9,5.526,2.975,5.526,2.975l-2.55,1.275S126.678,49.549,125.626,49.549Z" transform="translate(-98.531 -41.033)" fill="#fff"/>
            <path id="Path_806" data-name="Path 806" d="M33.3,224.3H57.327s-.582,2.55-2.55,2.55H37.126A3.457,3.457,0,0,1,33.3,224.3Z" transform="translate(-30.75 -183.3)" fill="#fff"/>
            <path id="Path_807" data-name="Path 807" d="M174.279,206.281c0,1.275-3.826,4.251-3.826,4.251H149.2v-1.7s4.9.224,7.651.224c2.774,0,2.55-1.275,2.55-1.275v-3.6s3.02-2.349,3.2.425c.224,3.624-.224,4.676,4.474,4.676a7.5,7.5,0,0,0,6.577-3.826S174.279,205.006,174.279,206.281Z" transform="translate(-120.078 -166.958)" fill="#fff"/>
            <path id="Path_808" data-name="Path 808" d="M39.326,93.874s-.635-13.513,3.014-19.24c1.133-1.79,1.926-1.5,3.241-.425,1.292,1.074,3.444,2.125,3.444,3.4s.657,5.526.657,5.526l6.889,4.027.227-5.951.657-.224L61.1,87.364,72.3,93.091v4.676l-6.05,6.823H21.9s.884-6.2,3.444-9.575c.657-.872-.861-4.474-.861-4.474h2.81l2.153,3.4Zm8.181-3.311,4.532,4.676,3.444-4.877-6.458-3.4Z" transform="translate(-21.9 -66.118)" fill="#fff"/>
          </g>
        </g>
      </g>
    </g>
  </g>
</svg>
