<svg xmlns="http://www.w3.org/2000/svg" width="31.999" height="31.999" viewBox="0 0 31.999 31.999">
  <g id="snowmobiling" transform="translate(0 0)">
    <g id="Z_Base_layer_130mm" transform="translate(0 0)">
      <g id="Group_851" data-name="Group 851" transform="translate(0 0)">
        <path id="Path_803" data-name="Path 803" d="M31.988,2.1A2.1,2.1,0,0,0,29.9,0H2.09A2.1,2.1,0,0,0,0,2.1V29.9A2.1,2.1,0,0,0,2.09,32H29.909A2.1,2.1,0,0,0,32,29.9V2.1Z" transform="translate(0 0)" fill="#fff"/>
        <path id="Path_804" data-name="Path 804" d="M31.988,2.1A2.1,2.1,0,0,0,29.9,0H2.09A2.1,2.1,0,0,0,0,2.1V29.9A2.1,2.1,0,0,0,2.09,32H29.909A2.1,2.1,0,0,0,32,29.9V2.1Z" transform="translate(0 0)" fill="#38598a"/>
      </g>
    </g>
    <g id="Snowmobiling-2" data-name="Snowmobiling" transform="translate(2.45 4.59)">
      <g id="Group_854" data-name="Group 854">
        <g id="Group_853" data-name="Group 853">
          <g id="Group_852" data-name="Group 852">
            <path id="Path_805" data-name="Path 805" d="M123.324,45.291a3.311,3.311,0,0,1-1.991-1.644c-.291-.694-.884-1.443,1.141-2.394s2.763,1.488,2.763,1.488l-1.275.638S123.85,45.291,123.324,45.291Z" transform="translate(-109.777 -41.033)" fill="#fff"/>
            <path id="Path_806" data-name="Path 806" d="M33.3,224.3H45.313s-.291,1.275-1.275,1.275H35.213A1.728,1.728,0,0,1,33.3,224.3Z" transform="translate(-32.025 -203.8)" fill="#fff"/>
            <path id="Path_807" data-name="Path 807" d="M161.739,204.765c0,.638-1.913,2.125-1.913,2.125H149.2v-.85s2.45.112,3.825.112,1.275-.638,1.275-.638v-1.8s1.51-1.174,1.6.213c.112,1.812-.112,2.338,2.237,2.338a3.751,3.751,0,0,0,3.289-1.913S161.739,204.127,161.739,204.765Z" transform="translate(-134.639 -185.104)" fill="#fff"/>
            <path id="Path_808" data-name="Path 808" d="M30.613,83.611s-.317-6.756,1.507-9.62c.567-.895.963-.749,1.62-.213s1.722,1.063,1.722,1.7.329,2.763.329,2.763l3.444,2.013.113-2.975.329-.112L41.5,80.356l5.6,2.864v2.338l-3.025,3.412H21.9a12.561,12.561,0,0,1,1.722-4.787c.329-.436-.431-2.237-.431-2.237h1.4l1.076,1.7Zm4.09-1.655,2.266,2.338,1.722-2.438-3.229-1.7Z" transform="translate(-21.9 -69.733)" fill="#fff"/>
          </g>
        </g>
      </g>
    </g>
  </g>
</svg>
