<svg xmlns="http://www.w3.org/2000/svg" width="47.998" height="47.998" viewBox="0 0 47.998 47.998">
  <g id="snowmobiling" transform="translate(0)">
    <g id="Z_Base_layer_130mm" transform="translate(0 0)">
      <g id="Group_851" data-name="Group 851">
        <path id="Path_803" data-name="Path 803" d="M47.981,3.143A3.143,3.143,0,0,0,44.846,0H3.135A3.143,3.143,0,0,0,0,3.143V44.855A3.143,3.143,0,0,0,3.135,48H44.863A3.143,3.143,0,0,0,48,44.855V3.143Z" fill="#fff"/>
        <path id="Path_804" data-name="Path 804" d="M47.981,3.143A3.143,3.143,0,0,0,44.846,0H3.135A3.143,3.143,0,0,0,0,3.143V44.855A3.143,3.143,0,0,0,3.135,48H44.863A3.143,3.143,0,0,0,48,44.855V3.143Z" fill="#38598a"/>
      </g>
    </g>
    <g id="Snowmobiling-2" data-name="Snowmobiling" transform="translate(3.675 6.885)">
      <g id="Group_854" data-name="Group 854">
        <g id="Group_853" data-name="Group 853">
          <g id="Group_852" data-name="Group 852">
            <path id="Path_805" data-name="Path 805" d="M124.475,47.42c-.805,0-2.517-1.393-2.987-2.466-.436-1.04-1.325-2.164,1.711-3.591,3.02-1.426,4.144,2.232,4.144,2.232l-1.913.956S125.264,47.42,124.475,47.42Z" transform="translate(-104.155 -41.033)" fill="#fff"/>
            <path id="Path_806" data-name="Path 806" d="M33.3,224.3H51.32s-.436,1.913-1.913,1.913H36.169A2.593,2.593,0,0,1,33.3,224.3Z" transform="translate(-31.387 -193.551)" fill="#fff"/>
            <path id="Path_807" data-name="Path 807" d="M168.008,205.523c0,.956-2.869,3.188-2.869,3.188H149.2v-1.275s3.674.168,5.738.168c2.081,0,1.913-.956,1.913-.956v-2.7s2.265-1.762,2.4.319c.168,2.718-.168,3.507,3.356,3.507a5.626,5.626,0,0,0,4.933-2.869S168.008,204.566,168.008,205.523Z" transform="translate(-127.359 -176.032)" fill="#fff"/>
            <path id="Path_808" data-name="Path 808" d="M34.969,88.742s-.476-10.134,2.26-14.429c.85-1.342,1.445-1.124,2.43-.319.969.805,2.583,1.594,2.583,2.55s.493,4.144.493,4.144l5.166,3.02.17-4.463.493-.168L51.3,83.859l8.4,4.3v3.507l-4.538,5.117H21.9s.663-4.648,2.583-7.181c.493-.654-.646-3.356-.646-3.356h2.107l1.615,2.55ZM41.1,86.259l3.4,3.507,2.583-3.658-4.844-2.55Z" transform="translate(-21.9 -67.926)" fill="#fff"/>
          </g>
        </g>
      </g>
    </g>
  </g>
</svg>
