<svg xmlns="http://www.w3.org/2000/svg" width="16.2" height="16.2" viewBox="0 0 16.2 16.2">
  <g id="snowmobiling" transform="translate(0)">
    <g id="Z_Base_layer_130mm" transform="translate(0 0)">
      <g id="Group_851" data-name="Group 851" transform="translate(0 0)">
        <path id="Path_803" data-name="Path 803" d="M16.194,1.061A1.061,1.061,0,0,0,15.136,0H1.058A1.061,1.061,0,0,0,0,1.061V15.139A1.061,1.061,0,0,0,1.058,16.2H15.142A1.061,1.061,0,0,0,16.2,15.139V1.061Z" transform="translate(0 0)" fill="#fff"/>
        <path id="Path_804" data-name="Path 804" d="M16.194,1.061A1.061,1.061,0,0,0,15.136,0H1.058A1.061,1.061,0,0,0,0,1.061V15.139A1.061,1.061,0,0,0,1.058,16.2H15.142A1.061,1.061,0,0,0,16.2,15.139V1.061Z" transform="translate(0 0)" fill="#38598a"/>
      </g>
    </g>
    <g id="Snowmobiling-2" data-name="Snowmobiling" transform="translate(1.24 2.324)">
      <g id="Group_854" data-name="Group 854">
        <g id="Group_853" data-name="Group 853">
          <g id="Group_852" data-name="Group 852">
            <path id="Path_805" data-name="Path 805" d="M122.188,43.189a1.676,1.676,0,0,1-1.008-.832c-.147-.351-.447-.731.578-1.212s1.4.753,1.4.753l-.646.323S122.454,43.189,122.188,43.189Z" transform="translate(-115.329 -41.033)" fill="#fff"/>
            <path id="Path_806" data-name="Path 806" d="M33.3,224.3h6.082s-.147.646-.646.646H34.268A.875.875,0,0,1,33.3,224.3Z" transform="translate(-32.654 -213.922)" fill="#fff"/>
            <path id="Path_807" data-name="Path 807" d="M155.548,204.017c0,.323-.968,1.076-.968,1.076H149.2v-.43s1.24.057,1.937.057.646-.323.646-.323v-.912s.765-.595.81.108c.057.917-.057,1.184,1.133,1.184a1.9,1.9,0,0,0,1.665-.968S155.548,203.694,155.548,204.017Z" transform="translate(-141.828 -194.063)" fill="#fff"/>
            <path id="Path_808" data-name="Path 808" d="M26.311,78.543s-.161-3.42.763-4.87c.287-.453.488-.379.82-.108s.872.538.872.861.166,1.4.166,1.4l1.744,1.019.057-1.506.166-.057.924,1.614,2.834,1.45v1.184l-1.532,1.727H21.9a6.359,6.359,0,0,1,.872-2.424c.166-.221-.218-1.133-.218-1.133h.711l.545.861Zm2.071-.838,1.147,1.184.872-1.235-1.635-.861Z" transform="translate(-21.9 -71.517)" fill="#fff"/>
          </g>
        </g>
      </g>
    </g>
  </g>
</svg>
