<svg xmlns="http://www.w3.org/2000/svg" width="48" height="48" viewBox="0 0 48 48">
  <g id="swimming" transform="translate(0 0)">
    <g id="Z_Base_layer_130mm" transform="translate(0 0)">
      <g id="Group_860" data-name="Group 860">
        <path id="Path_814" data-name="Path 814" d="M47.983,3.143A3.143,3.143,0,0,0,44.847,0H3.136A3.143,3.143,0,0,0,0,3.143V44.856A3.143,3.143,0,0,0,3.136,48H44.864A3.143,3.143,0,0,0,48,44.856V3.143Z" fill="#38598a"/>
        <path id="Path_815" data-name="Path 815" d="M47.983,3.143A3.143,3.143,0,0,0,44.847,0H3.136A3.143,3.143,0,0,0,0,3.143V44.856A3.143,3.143,0,0,0,3.136,48H44.864A3.143,3.143,0,0,0,48,44.856V3.143Z" fill="#38598a"/>
      </g>
    </g>
    <g id="Swimming-2" data-name="Swimming" transform="translate(3.809 12.422)">
      <g id="Group_864" data-name="Group 864">
        <g id="Group_863" data-name="Group 863">
          <g id="Group_862" data-name="Group 862">
            <g id="Group_861" data-name="Group 861" transform="translate(28.268 6.661)">
              <path id="Path_816" data-name="Path 816" d="M192.31,120.02a4.01,4.01,0,1,0-4.01-4.01A4.01,4.01,0,0,0,192.31,120.02Z" transform="translate(-188.3 -112)" fill="#fff"/>
            </g>
            <path id="Path_817" data-name="Path 817" d="M22.7,185.545a3.36,3.36,0,0,0,2.887-1.728h0a3.4,3.4,0,0,0,2.887,1.728,3.311,3.311,0,0,0,2.87-1.728h0a3.407,3.407,0,0,0,2.9,1.711,3.3,3.3,0,0,0,2.853-1.711h.017a3.283,3.283,0,0,0,5.774-.017h0a3.407,3.407,0,0,0,2.9,1.711,3.352,3.352,0,0,0,2.87-1.711h0a3.181,3.181,0,0,0,3.94,1.51,3.258,3.258,0,0,0,1.834-1.51h0a3.451,3.451,0,0,0,2.921,1.728,3.358,3.358,0,0,0,2.887-1.711h.017a3.4,3.4,0,0,0,2.768,1.728v1.98a3.36,3.36,0,0,1-2.768-1.711h.017a3.407,3.407,0,0,1-2.9,1.711,3.443,3.443,0,0,1-2.938-1.728h0a3.34,3.34,0,0,1-2.853,1.728,3.415,3.415,0,0,1-2.921-1.728h0a3.275,3.275,0,0,1-5.774,0h0A3.379,3.379,0,0,1,40,187.508a3.33,3.33,0,0,1-2.87-1.711h0a3.33,3.33,0,0,1-2.87,1.711,3.366,3.366,0,0,1-2.9-1.728h0a3.275,3.275,0,0,1-5.774.034h0a3.379,3.379,0,0,1-2.887,1.711Z" transform="translate(-22.7 -165.092)" fill="#fff"/>
            <path id="Path_818" data-name="Path 818" d="M22.7,90.74c.906,0,2.55-.738,2.852-1.678h.017a3.3,3.3,0,0,0,2.852,1.678,3.221,3.221,0,0,0,2.836-1.678h0a3.357,3.357,0,0,0,2.886,1.678,3.214,3.214,0,0,0,2.819-1.678h.017a3.3,3.3,0,0,0,2.852,1.678,3.254,3.254,0,0,0,2.836-1.678h0a3.329,3.329,0,0,0,2.869,1.678,3.241,3.241,0,0,0,2.836-1.678h0a3.364,3.364,0,0,0,2.9,1.678,1.932,1.932,0,0,0,1.04-.235l.017-.034L39.915,72.3,26.509,78.693l.923.822,11.041-2.483,3.322,4.816L22.717,89.062Z" transform="translate(-22.7 -72.3)" fill="#fff"/>
          </g>
        </g>
      </g>
    </g>
  </g>
</svg>
