<svg xmlns="http://www.w3.org/2000/svg" width="16" height="16" viewBox="0 0 16 16">
  <g id="swimming" transform="translate(0)">
    <g id="Z_Base_layer_130mm" transform="translate(0 0)">
      <g id="Group_860" data-name="Group 860">
        <path id="Path_814" data-name="Path 814" d="M15.994,1.048A1.048,1.048,0,0,0,14.949,0H1.045A1.048,1.048,0,0,0,0,1.048v13.9A1.048,1.048,0,0,0,1.045,16h13.91A1.048,1.048,0,0,0,16,14.952V1.048Z" fill="#38598a"/>
        <path id="Path_815" data-name="Path 815" d="M15.994,1.048A1.048,1.048,0,0,0,14.949,0H1.045A1.048,1.048,0,0,0,0,1.048v13.9A1.048,1.048,0,0,0,1.045,16h13.91A1.048,1.048,0,0,0,16,14.952V1.048Z" fill="#38598a"/>
      </g>
    </g>
    <g id="Swimming-2" data-name="Swimming" transform="translate(1.273 4.131)">
      <g id="Group_864" data-name="Group 864">
        <g id="Group_863" data-name="Group 863">
          <g id="Group_862" data-name="Group 862">
            <g id="Group_861" data-name="Group 861" transform="translate(9.405 2.226)">
              <path id="Path_816" data-name="Path 816" d="M189.64,114.681a1.34,1.34,0,1,0-1.34-1.34A1.34,1.34,0,0,0,189.64,114.681Z" transform="translate(-188.3 -112)" fill="#fff"/>
            </g>
            <path id="Path_817" data-name="Path 817" d="M22.7,184.383a1.119,1.119,0,0,0,.962-.578h0a1.131,1.131,0,0,0,.962.578,1.1,1.1,0,0,0,.956-.578h0a1.135,1.135,0,0,0,.967.572,1.1,1.1,0,0,0,.95-.572H27.5a1.092,1.092,0,0,0,1.924-.006h0a1.135,1.135,0,0,0,.967.572,1.116,1.116,0,0,0,.956-.572h0a1.058,1.058,0,0,0,1.313.5,1.086,1.086,0,0,0,.611-.5h0a1.149,1.149,0,0,0,.973.578,1.118,1.118,0,0,0,.962-.572h.006a1.133,1.133,0,0,0,.922.578v.662a1.119,1.119,0,0,1-.922-.572h.006a1.135,1.135,0,0,1-.967.572,1.146,1.146,0,0,1-.979-.578h0a1.112,1.112,0,0,1-.95.578,1.137,1.137,0,0,1-.973-.578h0a1.09,1.09,0,0,1-1.924,0h0a1.125,1.125,0,0,1-.962.572,1.109,1.109,0,0,1-.956-.572h0a1.109,1.109,0,0,1-.956.572,1.121,1.121,0,0,1-.967-.578h0a1.09,1.09,0,0,1-1.924.011h0a1.125,1.125,0,0,1-.962.572Z" transform="translate(-22.7 -177.547)" fill="#fff"/>
            <path id="Path_818" data-name="Path 818" d="M22.7,78.464a1.163,1.163,0,0,0,.953-.561h.006a1.1,1.1,0,0,0,.953.561,1.077,1.077,0,0,0,.948-.561h0a1.122,1.122,0,0,0,.965.561,1.074,1.074,0,0,0,.942-.561h.006a1.1,1.1,0,0,0,.953.561,1.088,1.088,0,0,0,.948-.561h0a1.113,1.113,0,0,0,.959.561,1.083,1.083,0,0,0,.948-.561h0a1.124,1.124,0,0,0,.97.561.646.646,0,0,0,.348-.079l.006-.011L28.454,72.3l-4.481,2.137.308.275,3.69-.83,1.11,1.61L22.706,77.9Z" transform="translate(-22.7 -72.3)" fill="#fff"/>
          </g>
        </g>
      </g>
    </g>
  </g>
</svg>
