<svg xmlns="http://www.w3.org/2000/svg" width="64" height="64" viewBox="0 0 64 64">
  <g id="swimming" transform="translate(0)">
    <g id="Z_Base_layer_130mm" transform="translate(0 0)">
      <g id="Group_860" data-name="Group 860">
        <path id="Path_814" data-name="Path 814" d="M63.977,4.191A4.191,4.191,0,0,0,59.8,0H4.181A4.191,4.191,0,0,0,0,4.191V59.809A4.191,4.191,0,0,0,4.181,64H59.819A4.191,4.191,0,0,0,64,59.809V4.191Z" fill="#38598a"/>
        <path id="Path_815" data-name="Path 815" d="M63.977,4.191A4.191,4.191,0,0,0,59.8,0H4.181A4.191,4.191,0,0,0,0,4.191V59.809A4.191,4.191,0,0,0,4.181,64H59.819A4.191,4.191,0,0,0,64,59.809V4.191Z" fill="#38598a"/>
      </g>
    </g>
    <g id="Swimming-2" data-name="Swimming" transform="translate(5.079 16.563)">
      <g id="Group_864" data-name="Group 864">
        <g id="Group_863" data-name="Group 863">
          <g id="Group_862" data-name="Group 862">
            <g id="Group_861" data-name="Group 861" transform="translate(37.691 8.882)">
              <path id="Path_816" data-name="Path 816" d="M193.647,122.694a5.347,5.347,0,1,0-5.347-5.347A5.347,5.347,0,0,0,193.647,122.694Z" transform="translate(-188.3 -112)" fill="#fff"/>
            </g>
            <path id="Path_817" data-name="Path 817" d="M22.7,186.127a4.48,4.48,0,0,0,3.849-2.3h0a4.527,4.527,0,0,0,3.849,2.3,4.415,4.415,0,0,0,3.827-2.3h0A4.543,4.543,0,0,0,38.1,186.1a4.4,4.4,0,0,0,3.8-2.282h.023a4.377,4.377,0,0,0,7.7-.022h0a4.543,4.543,0,0,0,3.872,2.282A4.469,4.469,0,0,0,57.32,183.8h0a4.241,4.241,0,0,0,5.253,2.013,4.344,4.344,0,0,0,2.445-2.013h0a4.6,4.6,0,0,0,3.895,2.3,4.477,4.477,0,0,0,3.849-2.282h.023a4.535,4.535,0,0,0,3.691,2.3v2.64a4.48,4.48,0,0,1-3.691-2.282h.023a4.543,4.543,0,0,1-3.872,2.282,4.59,4.59,0,0,1-3.917-2.3h0a4.453,4.453,0,0,1-3.8,2.3,4.553,4.553,0,0,1-3.895-2.3h0a4.367,4.367,0,0,1-7.7,0h0a4.506,4.506,0,0,1-3.849,2.282,4.44,4.44,0,0,1-3.827-2.282h0a4.44,4.44,0,0,1-3.827,2.282,4.488,4.488,0,0,1-3.872-2.3h0a4.367,4.367,0,0,1-7.7.045h0a4.506,4.506,0,0,1-3.849,2.282Z" transform="translate(-22.7 -158.855)" fill="#fff"/>
            <path id="Path_818" data-name="Path 818" d="M22.7,96.887c1.208,0,3.4-.984,3.8-2.237h.022a4.4,4.4,0,0,0,3.8,2.237A4.3,4.3,0,0,0,34.11,94.65h0a4.476,4.476,0,0,0,3.848,2.237,4.286,4.286,0,0,0,3.758-2.237h.022a4.4,4.4,0,0,0,3.8,2.237,4.339,4.339,0,0,0,3.781-2.237h0a4.439,4.439,0,0,0,3.826,2.237,4.321,4.321,0,0,0,3.781-2.237h0a4.485,4.485,0,0,0,3.87,2.237,2.575,2.575,0,0,0,1.387-.313l.022-.045L45.654,72.3,27.778,80.824l1.23,1.1L43.73,78.609l4.43,6.421L22.722,94.65Z" transform="translate(-22.7 -72.3)" fill="#fff"/>
          </g>
        </g>
      </g>
    </g>
  </g>
</svg>
