<svg xmlns="http://www.w3.org/2000/svg" width="31.999" height="31.999" viewBox="0 0 31.999 31.999">
  <g id="swimming" transform="translate(0)">
    <g id="Z_Base_layer_130mm" transform="translate(0 0)">
      <g id="Group_860" data-name="Group 860">
        <path id="Path_814" data-name="Path 814" d="M31.988,2.1A2.1,2.1,0,0,0,29.9,0H2.09A2.1,2.1,0,0,0,0,2.1V29.9A2.1,2.1,0,0,0,2.09,32H29.909A2.1,2.1,0,0,0,32,29.9V2.1Z" fill="#38598a"/>
        <path id="Path_815" data-name="Path 815" d="M31.988,2.1A2.1,2.1,0,0,0,29.9,0H2.09A2.1,2.1,0,0,0,0,2.1V29.9A2.1,2.1,0,0,0,2.09,32H29.909A2.1,2.1,0,0,0,32,29.9V2.1Z" fill="#38598a"/>
      </g>
    </g>
    <g id="Swimming-2" data-name="Swimming" transform="translate(2.539 8.281)">
      <g id="Group_864" data-name="Group 864">
        <g id="Group_863" data-name="Group 863">
          <g id="Group_862" data-name="Group 862">
            <g id="Group_861" data-name="Group 861" transform="translate(18.845 4.441)">
              <path id="Path_816" data-name="Path 816" d="M190.973,117.347a2.673,2.673,0,1,0-2.673-2.673A2.673,2.673,0,0,0,190.973,117.347Z" transform="translate(-188.3 -112)" fill="#fff"/>
            </g>
            <path id="Path_817" data-name="Path 817" d="M22.7,184.963a2.24,2.24,0,0,0,1.925-1.152h0a2.263,2.263,0,0,0,1.925,1.152,2.208,2.208,0,0,0,1.913-1.152h0a2.271,2.271,0,0,0,1.936,1.141,2.2,2.2,0,0,0,1.9-1.141h.011a2.189,2.189,0,0,0,3.849-.011h0a2.271,2.271,0,0,0,1.936,1.141A2.234,2.234,0,0,0,40.01,183.8h0a2.121,2.121,0,0,0,2.626,1.007,2.172,2.172,0,0,0,1.223-1.007h0a2.3,2.3,0,0,0,1.947,1.152,2.238,2.238,0,0,0,1.925-1.141h.011a2.267,2.267,0,0,0,1.845,1.152v1.32a2.24,2.24,0,0,1-1.845-1.141h.011a2.271,2.271,0,0,1-1.936,1.141,2.3,2.3,0,0,1-1.959-1.152h0a2.226,2.226,0,0,1-1.9,1.152,2.277,2.277,0,0,1-1.947-1.152h0a2.184,2.184,0,0,1-3.849,0h0a2.253,2.253,0,0,1-1.925,1.141,2.22,2.22,0,0,1-1.913-1.141h0a2.22,2.22,0,0,1-1.913,1.141,2.244,2.244,0,0,1-1.936-1.152h0a2.184,2.184,0,0,1-3.849.022h0a2.253,2.253,0,0,1-1.925,1.141Z" transform="translate(-22.7 -171.328)" fill="#fff"/>
            <path id="Path_818" data-name="Path 818" d="M22.7,84.593a2.32,2.32,0,0,0,1.9-1.119h.011a2.2,2.2,0,0,0,1.9,1.119,2.147,2.147,0,0,0,1.89-1.119h0a2.238,2.238,0,0,0,1.924,1.119,2.143,2.143,0,0,0,1.879-1.119h.011a2.2,2.2,0,0,0,1.9,1.119,2.17,2.17,0,0,0,1.89-1.119h0a2.22,2.22,0,0,0,1.913,1.119,2.161,2.161,0,0,0,1.89-1.119h0a2.242,2.242,0,0,0,1.935,1.119,1.288,1.288,0,0,0,.694-.157l.011-.022L34.177,72.3l-8.937,4.262.615.548,7.36-1.655,2.215,3.21-12.718,4.81Z" transform="translate(-22.7 -72.3)" fill="#fff"/>
          </g>
        </g>
      </g>
    </g>
  </g>
</svg>
