<svg xmlns="http://www.w3.org/2000/svg" width="32" height="32" viewBox="0 0 32 32">
  <g id="viewpoint-winter-safety" transform="translate(0 0)">
    <g id="Z_Base_layer_130mm" data-name="Z Base layer 130mm" transform="translate(0 0)">
      <path id="Path_825" data-name="Path 825" d="M32,2.09A2.09,2.09,0,0,0,29.911,0H2.09A2.091,2.091,0,0,0,0,2.09V29.907A2.092,2.092,0,0,0,2.09,32H29.911A2.091,2.091,0,0,0,32,29.907Z" transform="translate(0 0)" fill="#fff"/>
      <path id="Path_826" data-name="Path 826" d="M32,2.09A2.09,2.09,0,0,0,29.911,0H2.09A2.091,2.091,0,0,0,0,2.09V29.907A2.092,2.092,0,0,0,2.09,32H29.911A2.091,2.091,0,0,0,32,29.907Z" transform="translate(0 0)" fill="#38598a"/>
    </g>
    <g id="Viewpoint_1" data-name="Viewpoint 1" transform="translate(4.365 3.409)">
      <path id="Path_827" data-name="Path 827" d="M54.406,53.506l-3.182-1.449c-.016.2-.028.308-.033.416-.025.74-.045,1.48-.073,2.22a.543.543,0,0,1-.52.533,9.2,9.2,0,0,1-1.4,0,.379.379,0,0,1-.259-.258c-.046-.739-.063-1.479-.087-2.219v-.7l-3.168,1.444c-.014-.792-.032-1.543-.028-2.29,0-.072.127-.169.216-.214.893-.453,1.792-.893,2.682-1.351a.463.463,0,0,0,.238-.309c.032-1.453.043-2.907.059-4.361a1.9,1.9,0,0,0-.027-.216c-.317.172-.61.316-.888.485-.9.544-1.779,1.109-2.68,1.644a.66.66,0,0,0-.391.7c.073.866.09,1.736.15,2.6a.6.6,0,0,1-.363.679c-.6.29-1.179.629-1.835.987-.056-1.147-.113-2.226-.167-3.388l-3.064,1.659-1.168-1.988,3.044-1.7-2.822-1.99a8.313,8.313,0,0,0,1.168-.686c.532-.434.94-.31,1.443.064.6.453,1.281.8,1.922,1.195a.5.5,0,0,0,.588,0c1.073-.645,2.16-1.268,3.246-1.894a6.016,6.016,0,0,1,.558-.264c.177-.079.2-.193.053-.309a2.93,2.93,0,0,0-.451-.3c-1.045-.552-2.082-1.093-3.117-1.659a.787.787,0,0,0-.882.051c-.728.473-1.465.924-2.2,1.4a.45.45,0,0,1-.529.025c-.564-.315-1.127-.609-1.791-.959l2.789-1.911-3.079-1.81,1.153-1.983,3.032,1.663c.037-1.131.072-2.207.113-3.348.72.386,1.41.746,2.087,1.128.076.043.113.21.113.319q-.023,1.46-.07,2.917A.376.376,0,0,0,45,38.5c1.227.679,2.444,1.365,3.665,2.048a1.624,1.624,0,0,0,.176.067c0-.332,0-.634,0-.935-.01-1.168-.014-2.335-.044-3.5a.539.539,0,0,0-.26-.372q-1.3-.687-2.62-1.328a.418.418,0,0,1-.271-.44c.011-.7,0-1.392,0-2.14l3.186,1.448V29.964c.71,0,1.378-.019,2.042.021.091.006.225.311.233.483.048.808.061,1.617.087,2.426,0,.126.016.25.028.453,1.045-.474,2.053-.932,3.182-1.447,0,.835.009,1.56-.011,2.284,0,.1-.139.226-.242.278q-1.318.679-2.649,1.342a.481.481,0,0,0-.306.5c.01,1.3,0,2.609,0,3.915,0,.121.01.242.017.412l4.009-2.263c-.02-1.107-.042-2.169-.055-3.23a.352.352,0,0,1,.1-.262c.683-.372,1.375-.729,2.107-1.111.043,1.131.082,2.2.125,3.322L60.561,35.4l1.108,2.016-3.091,1.8,2.738,1.9c-.631.348-1.24.694-1.853,1.018a.441.441,0,0,1-.363-.066c-.763-.479-1.511-.986-2.283-1.447a.757.757,0,0,0-.619-.058c-1.223.612-2.432,1.256-3.637,1.9-.381.2-.384.285-.027.487,1.266.714,2.541,1.413,3.809,2.124a.391.391,0,0,0,.464-.035c.751-.5,1.517-.971,2.263-1.471a.554.554,0,0,1,.7-.01c.5.317,1.028.594,1.6.919l-2.782,1.98,3.028,1.719c-.4.679-.765,1.3-1.148,1.956L57.39,48.5c-.064,1.144-.125,2.227-.188,3.366-.72-.4-1.4-.769-2.058-1.16-.076-.044-.113-.215-.113-.326.027-.792.039-1.578.113-2.364a1.132,1.132,0,0,0-.625-1.327c-.957-.5-1.857-1.108-2.784-1.664a5.527,5.527,0,0,0-.521-.241c-.012.139-.03.234-.029.329,0,1.328.019,2.657.012,3.984a.592.592,0,0,0,.4.621c.855.4,1.691.847,2.533,1.265a.427.427,0,0,1,.278.453C54.4,52.091,54.406,52.762,54.406,53.506Z" transform="translate(-38.36 -29.96)" fill="#fff"/>
    </g>
  </g>
</svg>
