<svg xmlns="http://www.w3.org/2000/svg" width="64" height="64" viewBox="0 0 64 64">
  <g id="viewpoint" transform="translate(0 0)">
    <g id="Z_Base_layer_130mm" transform="translate(0 0)">
      <g id="Group_871" data-name="Group 871">
        <path id="Path_828" data-name="Path 828" d="M63.977,4.191A4.191,4.191,0,0,0,59.8,0H4.181A4.191,4.191,0,0,0,0,4.191V59.809A4.191,4.191,0,0,0,4.181,64H59.819A4.191,4.191,0,0,0,64,59.809V4.191Z" fill="#38598a"/>
        <path id="Path_829" data-name="Path 829" d="M63.977,4.191A4.191,4.191,0,0,0,59.8,0H4.181A4.191,4.191,0,0,0,0,4.191V59.809A4.191,4.191,0,0,0,4.181,64H59.819A4.191,4.191,0,0,0,64,59.809V4.191Z" fill="#38598a"/>
      </g>
    </g>
    <g id="Viewpoint-2" data-name="Viewpoint" transform="translate(11.135 6.456)">
      <g id="Group_876" data-name="Group 876">
        <g id="Group_875" data-name="Group 875">
          <g id="Group_874" data-name="Group 874">
            <g id="Group_872" data-name="Group 872" transform="translate(2.651)">
              <path id="Path_830" data-name="Path 830" d="M67.634,41.368A6.434,6.434,0,1,0,61.2,34.934,6.43,6.43,0,0,0,67.634,41.368Z" transform="translate(-61.2 -28.5)" fill="#fff"/>
            </g>
            <path id="Path_831" data-name="Path 831" d="M49.5,51.837H70.071V44.066l-3.126.612V41.869l3.126.408V40.6h5.483v1.676h2.152V44.2H75.553V57.818H65.766V88.9H49.5Z" transform="translate(-49.5 -37.859)" fill="#fff"/>
            <g id="Group_873" data-name="Group 873" transform="translate(20.616 22.519)">
              <path id="Path_832" data-name="Path 832" d="M144.4,135.693a3.9,3.9,0,1,0-3.9-3.9A3.9,3.9,0,0,0,144.4,135.693Z" transform="translate(-140.5 -127.9)" fill="#fff"/>
            </g>
            <path id="Path_833" data-name="Path 833" d="M136.6,188.907h10.285V173.5H158.6v-3.6h-22Z" transform="translate(-116.867 -137.866)" fill="#fff"/>
          </g>
        </g>
      </g>
    </g>
  </g>
</svg>
