<svg xmlns="http://www.w3.org/2000/svg" width="64" height="64" viewBox="0 0 64 64">
  <g id="viewpoint-winter-safety" transform="translate(0 0)">
    <g id="Z_Base_layer_130mm" data-name="Z Base layer 130mm" transform="translate(0 0)">
      <path id="Path_825" data-name="Path 825" d="M64,4.18A4.18,4.18,0,0,0,59.823,0H4.179A4.182,4.182,0,0,0,0,4.18V59.813A4.184,4.184,0,0,0,4.179,64H59.823A4.182,4.182,0,0,0,64,59.813Z" transform="translate(0 0)" fill="#fff"/>
      <path id="Path_826" data-name="Path 826" d="M64,4.18A4.18,4.18,0,0,0,59.823,0H4.179A4.182,4.182,0,0,0,0,4.18V59.813A4.184,4.184,0,0,0,4.179,64H59.823A4.182,4.182,0,0,0,64,59.813Z" transform="translate(0 0)" fill="#38598a"/>
    </g>
    <g id="Viewpoint_1" data-name="Viewpoint 1" transform="translate(8.582 6.702)">
      <path id="Path_827" data-name="Path 827" d="M70.656,77.264l-6.405-2.912c-.032.4-.057.618-.066.837-.05,1.487-.091,2.973-.147,4.46a1.092,1.092,0,0,1-1.046,1.071,18.539,18.539,0,0,1-2.82,0,.763.763,0,0,1-.522-.518c-.093-1.484-.127-2.971-.175-4.458V74.334l-6.376,2.9c-.027-1.591-.064-3.1-.057-4.6,0-.145.256-.339.436-.43,1.8-.909,3.608-1.794,5.4-2.714a.929.929,0,0,0,.479-.621c.064-2.919.086-5.84.118-8.761a3.809,3.809,0,0,0-.054-.434c-.638.346-1.227.634-1.788.975-1.8,1.093-3.58,2.228-5.393,3.3a1.326,1.326,0,0,0-.787,1.414c.147,1.739.182,3.487.3,5.228a1.2,1.2,0,0,1-.731,1.364c-1.209.582-2.373,1.264-3.694,1.982-.113-2.3-.227-4.471-.336-6.806l-6.167,3.332-2.351-3.994,6.126-3.41-5.679-4a16.739,16.739,0,0,0,2.351-1.378c1.071-.873,1.892-.623,2.9.13,1.214.909,2.577,1.6,3.869,2.4a1,1,0,0,0,1.184,0c2.16-1.3,4.347-2.548,6.532-3.805a12.118,12.118,0,0,1,1.123-.53c.356-.159.395-.389.107-.621a5.9,5.9,0,0,0-.908-.593c-2.1-1.109-4.191-2.2-6.274-3.332a1.586,1.586,0,0,0-1.774.1c-1.466.95-2.95,1.857-4.422,2.812a.906.906,0,0,1-1.064.05c-1.134-.632-2.269-1.223-3.605-1.928l5.613-3.839L38.36,44.9l2.321-3.985,6.1,3.342c.075-2.273.145-4.435.227-6.726,1.45.775,2.838,1.5,4.2,2.266.152.086.227.423.227.641q-.045,2.932-.141,5.86a.755.755,0,0,0,.429.823c2.469,1.364,4.919,2.741,7.376,4.114a3.271,3.271,0,0,0,.354.134c0-.666,0-1.273,0-1.878-.02-2.346-.027-4.692-.088-7.035a1.082,1.082,0,0,0-.524-.748q-2.614-1.38-5.273-2.669a.839.839,0,0,1-.545-.884c.023-1.4,0-2.8,0-4.3l6.412,2.91V29.969c1.429,0,2.773-.039,4.109.043.184.011.454.625.47.971.1,1.623.123,3.248.175,4.874,0,.252.032.5.057.909,2.1-.952,4.132-1.873,6.405-2.907,0,1.678.018,3.135-.023,4.589,0,.2-.279.455-.488.559q-2.652,1.364-5.332,2.7a.966.966,0,0,0-.615,1c.02,2.621,0,5.242,0,7.865,0,.243.02.486.034.827L72.3,46.845c-.041-2.223-.084-4.358-.111-6.49a.706.706,0,0,1,.2-.527c1.375-.748,2.768-1.464,4.241-2.232.086,2.273.166,4.414.252,6.674L83.044,40.9l2.23,4.051-6.221,3.612,5.511,3.808c-1.271.7-2.5,1.393-3.73,2.046a.89.89,0,0,1-.731-.132c-1.536-.962-3.04-1.98-4.595-2.907a1.527,1.527,0,0,0-1.246-.116c-2.462,1.23-4.894,2.523-7.32,3.821-.767.409-.774.573-.054.977C69.437,57.492,72,58.9,74.556,60.325a.788.788,0,0,0,.935-.07c1.511-1,3.054-1.95,4.554-2.955a1.116,1.116,0,0,1,1.411-.02c1.01.636,2.069,1.193,3.215,1.846l-5.6,3.978,6.094,3.453c-.8,1.364-1.541,2.621-2.31,3.93l-6.194-3.278c-.129,2.3-.252,4.474-.379,6.763-1.45-.807-2.809-1.546-4.143-2.33-.152-.089-.227-.432-.227-.655.054-1.591.079-3.171.227-4.749a2.274,2.274,0,0,0-1.257-2.666c-1.926-1-3.737-2.225-5.6-3.344a11.137,11.137,0,0,0-1.048-.484c-.025.28-.061.471-.059.661,0,2.669.039,5.337.025,8a1.189,1.189,0,0,0,.8,1.248c1.72.807,3.4,1.7,5.1,2.541a.857.857,0,0,1,.56.909C70.635,74.423,70.656,75.771,70.656,77.264Z" transform="translate(-38.36 -29.96)" fill="#fff" stroke="#fff" stroke-width="1"/>
    </g>
  </g>
</svg>
