<svg xmlns="http://www.w3.org/2000/svg" width="48" height="48" viewBox="0 0 48 48">
  <g id="viewpoint" transform="translate(0 0)">
    <g id="Z_Base_layer_130mm" transform="translate(0 0)">
      <g id="Group_871" data-name="Group 871">
        <path id="Path_828" data-name="Path 828" d="M47.983,3.143A3.143,3.143,0,0,0,44.847,0H3.136A3.143,3.143,0,0,0,0,3.143V44.857A3.143,3.143,0,0,0,3.136,48H44.864A3.143,3.143,0,0,0,48,44.857V3.143Z" fill="#38598a"/>
        <path id="Path_829" data-name="Path 829" d="M47.983,3.143A3.143,3.143,0,0,0,44.847,0H3.136A3.143,3.143,0,0,0,0,3.143V44.857A3.143,3.143,0,0,0,3.136,48H44.864A3.143,3.143,0,0,0,48,44.857V3.143Z" fill="#38598a"/>
      </g>
    </g>
    <g id="Viewpoint-2" data-name="Viewpoint" transform="translate(8.286 4.863)">
      <g id="Group_876" data-name="Group 876">
        <g id="Group_875" data-name="Group 875">
          <g id="Group_874" data-name="Group 874">
            <g id="Group_872" data-name="Group 872" transform="translate(1.996)">
              <path id="Path_830" data-name="Path 830" d="M66.046,38.191A4.846,4.846,0,1,0,61.2,33.346,4.842,4.842,0,0,0,66.046,38.191Z" transform="translate(-61.2 -28.5)" fill="#fff"/>
            </g>
            <path id="Path_831" data-name="Path 831" d="M49.5,49.016H64.992V43.2l-2.355.458v-2.1l2.355.305V40.6h4.129v1.256h1.621V43.3H69.121V53.5H61.75v23.28H49.5Z" transform="translate(-49.5 -38.536)" fill="#fff"/>
            <g id="Group_873" data-name="Group 873" transform="translate(15.526 16.855)">
              <path id="Path_832" data-name="Path 832" d="M143.435,133.769a2.935,2.935,0,1,0-2.935-2.935A2.934,2.934,0,0,0,143.435,133.769Z" transform="translate(-140.5 -127.9)" fill="#fff"/>
            </g>
            <path id="Path_833" data-name="Path 833" d="M136.6,184.215h7.746v-11.6h8.821V169.9H136.6Z" transform="translate(-121.739 -145.974)" fill="#fff"/>
          </g>
        </g>
      </g>
    </g>
  </g>
</svg>
