<svg xmlns="http://www.w3.org/2000/svg" width="16.467" height="16.467" viewBox="0 0 16.467 16.467">
  <g id="viewpoint-winter-safety" transform="translate(0 0)">
    <g id="Z_Base_layer_130mm" data-name="Z Base layer 130mm" transform="translate(0 0)">
      <path id="Path_825" data-name="Path 825" d="M16.467,1.076A1.075,1.075,0,0,0,15.392,0H1.075A1.076,1.076,0,0,0,0,1.076V15.39a1.077,1.077,0,0,0,1.075,1.077H15.392a1.076,1.076,0,0,0,1.075-1.077Z" transform="translate(0 0)" fill="#fff"/>
      <path id="Path_826" data-name="Path 826" d="M16.467,1.076A1.075,1.075,0,0,0,15.392,0H1.075A1.076,1.076,0,0,0,0,1.076V15.39a1.077,1.077,0,0,0,1.075,1.077H15.392a1.076,1.076,0,0,0,1.075-1.077Z" transform="translate(0 0)" fill="#38598a"/>
    </g>
    <g id="Viewpoint_1" data-name="Viewpoint 1" transform="translate(2.246 1.755)">
      <path id="Path_827" data-name="Path 827" d="M46.617,42.076,44.98,41.33c-.008.1-.014.158-.017.214-.013.381-.023.762-.038,1.142a.28.28,0,0,1-.267.274,4.732,4.732,0,0,1-.721,0,.2.2,0,0,1-.133-.133c-.024-.38-.032-.761-.045-1.142v-.361l-1.63.743c-.007-.408-.016-.794-.015-1.178,0-.037.066-.087.111-.11.459-.233.922-.459,1.38-.7a.238.238,0,0,0,.122-.159c.016-.748.022-1.5.03-2.244a.977.977,0,0,0-.014-.111c-.163.088-.314.162-.457.25-.461.28-.915.571-1.379.846a.34.34,0,0,0-.2.362c.038.445.046.893.077,1.339a.306.306,0,0,1-.187.349c-.309.149-.607.324-.944.508-.029-.59-.058-1.145-.086-1.743l-1.577.854-.6-1.023,1.566-.873L38.5,37.415a4.278,4.278,0,0,0,.6-.353c.274-.224.484-.16.743.033.31.233.659.41.989.615a.255.255,0,0,0,.3,0c.552-.332,1.111-.653,1.67-.975A3.1,3.1,0,0,1,43.1,36.6c.091-.041.1-.1.027-.159a1.508,1.508,0,0,0-.232-.152c-.538-.284-1.071-.562-1.6-.854a.4.4,0,0,0-.454.026c-.375.243-.754.476-1.131.72a.231.231,0,0,1-.272.013c-.29-.162-.58-.313-.922-.494l1.435-.983-1.584-.932.593-1.021,1.56.856c.019-.582.037-1.136.058-1.723.371.2.726.384,1.074.58.039.022.058.108.058.164q-.012.751-.036,1.5a.193.193,0,0,0,.11.211c.631.349,1.258.7,1.886,1.054a.836.836,0,0,0,.091.034c0-.171,0-.326,0-.481-.005-.6-.007-1.2-.023-1.8a.277.277,0,0,0-.134-.192q-.668-.353-1.348-.684a.215.215,0,0,1-.139-.226c.006-.358,0-.716,0-1.1l1.639.745v-1.74c.365,0,.709-.01,1.051.011.047,0,.116.16.12.249.025.416.031.832.045,1.248,0,.065.008.129.015.233l1.638-.745c0,.43,0,.8-.006,1.176,0,.05-.071.116-.125.143q-.678.349-1.363.691a.248.248,0,0,0-.157.255c.005.671,0,1.343,0,2.015,0,.062.005.125.009.212l2.063-1.164c-.01-.569-.021-1.116-.028-1.662a.181.181,0,0,1,.05-.135c.352-.192.708-.375,1.084-.572.022.582.042,1.131.064,1.709l1.577-.863.57,1.038-1.591.925,1.409.975c-.325.179-.638.357-.954.524a.227.227,0,0,1-.187-.034c-.393-.246-.777-.507-1.175-.745a.39.39,0,0,0-.318-.03c-.629.315-1.251.646-1.871.979-.2.1-.2.147-.014.25.651.367,1.308.727,1.96,1.093a.2.2,0,0,0,.239-.018c.386-.256.781-.5,1.164-.757a.285.285,0,0,1,.361-.005c.258.163.529.306.822.473l-1.432,1.019,1.558.884c-.2.349-.394.671-.591,1.007l-1.584-.84c-.033.589-.064,1.146-.1,1.732-.371-.207-.718-.4-1.059-.6-.039-.023-.058-.111-.058-.168.014-.408.02-.812.058-1.216a.583.583,0,0,0-.321-.683c-.493-.256-.955-.57-1.433-.856a2.845,2.845,0,0,0-.268-.124c-.006.072-.016.121-.015.169,0,.684.01,1.367.006,2.05a.3.3,0,0,0,.205.32c.44.207.87.436,1.3.651a.22.22,0,0,1,.143.233C46.612,41.349,46.617,41.694,46.617,42.076Z" transform="translate(-38.36 -29.96)" fill="#fff"/>
    </g>
  </g>
</svg>
