<svg xmlns="http://www.w3.org/2000/svg" width="48" height="48" viewBox="0 0 48 48">
  <g id="viewpoint-winter-safety" transform="translate(0 0)">
    <g id="Z_Base_layer_130mm" data-name="Z Base layer 130mm" transform="translate(0 0)">
      <path id="Path_825" data-name="Path 825" d="M48,3.135A3.135,3.135,0,0,0,44.867,0H3.135A3.137,3.137,0,0,0,0,3.135V44.86A3.138,3.138,0,0,0,3.135,48H44.867A3.137,3.137,0,0,0,48,44.86Z" transform="translate(0 0)" fill="#fff"/>
      <path id="Path_826" data-name="Path 826" d="M48,3.135A3.135,3.135,0,0,0,44.867,0H3.135A3.137,3.137,0,0,0,0,3.135V44.86A3.138,3.138,0,0,0,3.135,48H44.867A3.137,3.137,0,0,0,48,44.86Z" transform="translate(0 0)" fill="#38598a"/>
    </g>
    <g id="Viewpoint_1" data-name="Viewpoint 1" transform="translate(6.463 5.048)">
      <path id="Path_827" data-name="Path 827" d="M62.545,65.4l-4.8-2.182c-.024.3-.042.463-.049.627-.037,1.114-.068,2.228-.11,3.341a.818.818,0,0,1-.783.8,13.877,13.877,0,0,1-2.112,0A.572.572,0,0,1,54.3,67.6c-.07-1.112-.1-2.226-.131-3.34V63.2L49.4,65.378c-.02-1.192-.048-2.323-.042-3.447,0-.109.192-.254.326-.322,1.346-.681,2.7-1.344,4.042-2.033a.7.7,0,0,0,.359-.465c.048-2.187.065-4.375.088-6.563a2.854,2.854,0,0,0-.041-.325c-.477.259-.919.475-1.339.731-1.349.819-2.681,1.669-4.039,2.474a.994.994,0,0,0-.59,1.059c.11,1.3.136,2.612.226,3.917a.9.9,0,0,1-.547,1.022c-.906.436-1.777.947-2.766,1.485-.085-1.727-.17-3.35-.251-5.1l-4.618,2.5-1.76-2.992,4.588-2.555-4.253-3a12.533,12.533,0,0,0,1.76-1.032c.8-.654,1.417-.467,2.175.1.909.681,1.93,1.2,2.9,1.8a.748.748,0,0,0,.887,0c1.618-.971,3.256-1.909,4.892-2.851a9.073,9.073,0,0,1,.841-.4c.267-.119.3-.291.08-.465a4.417,4.417,0,0,0-.68-.444c-1.575-.831-3.138-1.645-4.7-2.5a1.187,1.187,0,0,0-1.329.077c-1.1.712-2.209,1.391-3.312,2.107a.678.678,0,0,1-.8.037c-.85-.473-1.7-.916-2.7-1.444L43,43.875,38.36,41.15,40.1,38.165l4.571,2.5c.056-1.7.109-3.323.17-5.039,1.086.581,2.126,1.122,3.145,1.7.114.065.17.317.17.48q-.034,2.2-.105,4.39a.566.566,0,0,0,.321.616c1.849,1.022,3.684,2.054,5.524,3.082a2.449,2.449,0,0,0,.265.1c0-.5,0-.954,0-1.407-.015-1.758-.02-3.515-.066-5.271a.811.811,0,0,0-.392-.56q-1.957-1.034-3.949-2a.629.629,0,0,1-.408-.662c.017-1.047,0-2.095,0-3.22l4.8,2.18v-5.09c1.07,0,2.076-.029,3.077.032.138.009.34.468.352.727.073,1.216.092,2.434.131,3.651,0,.189.024.376.042.681,1.575-.714,3.094-1.4,4.8-2.178,0,1.257.014,2.348-.017,3.438,0,.146-.209.341-.365.419q-1.986,1.022-3.993,2.02a.724.724,0,0,0-.46.746c.015,1.964,0,3.927,0,5.892,0,.182.015.364.025.62l6.042-3.406c-.031-1.666-.063-3.265-.083-4.862a.529.529,0,0,1,.146-.4c1.03-.56,2.073-1.1,3.176-1.672.065,1.7.124,3.307.189,5l4.62-2.526,1.67,3.035L68.834,43.9l4.127,2.853c-.951.525-1.869,1.044-2.793,1.533a.666.666,0,0,1-.547-.1C68.47,47.462,67.344,46.7,66.18,46a1.143,1.143,0,0,0-.933-.087c-1.844.921-3.665,1.89-5.481,2.863-.574.307-.579.429-.041.732,1.908,1.075,3.83,2.127,5.741,3.2a.59.59,0,0,0,.7-.053c1.132-.748,2.287-1.461,3.41-2.214a.835.835,0,0,1,1.057-.015c.756.477,1.55.894,2.408,1.383l-4.193,2.98,4.564,2.587c-.6,1.022-1.154,1.964-1.73,2.945l-4.639-2.456c-.1,1.722-.189,3.352-.284,5.066-1.086-.6-2.1-1.158-3.1-1.746-.114-.066-.17-.324-.17-.49.041-1.192.059-2.376.17-3.558a1.7,1.7,0,0,0-.941-2c-1.443-.749-2.8-1.667-4.2-2.505a8.337,8.337,0,0,0-.785-.363c-.019.209-.046.353-.044.5,0,2,.029,4,.019,6a.891.891,0,0,0,.6.935c1.288.6,2.549,1.276,3.818,1.9a.642.642,0,0,1,.42.681C62.53,63.271,62.545,64.281,62.545,65.4Z" transform="translate(-38.36 -29.96)" fill="#fff"/>
    </g>
  </g>
</svg>
