<svg xmlns="http://www.w3.org/2000/svg" width="48" height="47.999" viewBox="0 0 48 47.999">
  <g id="waterskiing" transform="translate(0)">
    <g id="Z_Base_layer_130mm" transform="translate(0 0)">
      <g id="Group_880" data-name="Group 880">
        <path id="Path_837" data-name="Path 837" d="M47.983,3.143A3.143,3.143,0,0,0,44.847,0H3.136A3.143,3.143,0,0,0,0,3.143V44.855A3.143,3.143,0,0,0,3.136,48H44.864A3.143,3.143,0,0,0,48,44.855V3.143Z" fill="#fff"/>
        <path id="Path_838" data-name="Path 838" d="M47.983,3.143A3.143,3.143,0,0,0,44.847,0H3.136A3.143,3.143,0,0,0,0,3.143V44.855A3.143,3.143,0,0,0,3.136,48H44.864A3.143,3.143,0,0,0,48,44.855V3.143Z" fill="#38598a"/>
      </g>
    </g>
    <g id="water_skiing" transform="translate(7.349 4.034)">
      <g id="Group_882" data-name="Group 882">
        <g id="Group_881" data-name="Group 881">
          <path id="Path_839" data-name="Path 839" d="M43.6,61.321c1.036,1.716,2.939,2.617,4.3,1.036a2.8,2.8,0,0,0,2.447,1.019,3.9,3.9,0,0,0,2.5-.917,4.815,4.815,0,0,0,2.532.917,3.931,3.931,0,0,0,2.209-.425,5.877,5.877,0,0,0,4.689-.374,4.384,4.384,0,0,0,2.905.8,8.172,8.172,0,0,0,2.277-.629,4.735,4.735,0,0,0,2.4.646,8.364,8.364,0,0,0,2.43-.748c2.651,2.294,4.622-1.852,4.639-1.92-.7.289-2.362,1.24-3.347.833A3.213,3.213,0,0,1,72.4,60.4s-2.854,2.277-4.961.17c-1.138,1.223-3.7,1.444-3.959.867,5.76-1.274,8.937-4.3,8.784-5.182a4.966,4.966,0,0,0-.9-1.767c-1.835,2.022-9.6,5.828-14.085,6.2q.561-7.314.459-9.124a90.147,90.147,0,0,0-2.99-8.648c-1.563-4.01-4.554-2.141-4.723.731-.034.442,1.053,2.379,3.262,5.828a9.1,9.1,0,0,1,1.274,4.435c.255,4.621.425,7.136.527,7.833a1.852,1.852,0,0,1-2.26-1.512c-.9,2.09-4.4.884-5.1.034A3.557,3.557,0,0,1,43.6,61.321m1.8-31.076c-.561,1.954.442,4.859,2.973,8.7.272.408.527.833.782,1.257l3.551-1.087V34.493l11.435.884s.595-.917.985-1.529q-11.392-3.594-15.088-3.6Zm1.58-6.422a3,3,0,0,0-2.26,3.058,2.9,2.9,0,0,0,3.942,2.243C52.282,27.968,50.634,23.075,46.981,23.822Z" transform="translate(-43.6 -23.745)" fill="#fff" fill-rule="evenodd"/>
        </g>
      </g>
    </g>
  </g>
</svg>
