<svg xmlns="http://www.w3.org/2000/svg" width="16" height="16" viewBox="0 0 16 16">
  <g id="waterskiing" transform="translate(0 0)">
    <g id="Z_Base_layer_130mm" transform="translate(0 0)">
      <g id="Group_880" data-name="Group 880" transform="translate(0)">
        <path id="Path_837" data-name="Path 837" d="M15.994,1.048A1.048,1.048,0,0,0,14.949,0H1.045A1.048,1.048,0,0,0,0,1.048v13.9A1.048,1.048,0,0,0,1.045,16h13.91A1.048,1.048,0,0,0,16,14.952V1.048Z" transform="translate(0)" fill="#fff"/>
        <path id="Path_838" data-name="Path 838" d="M15.994,1.048A1.048,1.048,0,0,0,14.949,0H1.045A1.048,1.048,0,0,0,0,1.048v13.9A1.048,1.048,0,0,0,1.045,16h13.91A1.048,1.048,0,0,0,16,14.952V1.048Z" transform="translate(0)" fill="#38598a"/>
      </g>
    </g>
    <g id="water_skiing" transform="translate(2.456 1.343)">
      <g id="Group_882" data-name="Group 882">
        <g id="Group_881" data-name="Group 881">
          <path id="Path_839" data-name="Path 839" d="M43.6,36.274c.345.572.979.872,1.431.346a.932.932,0,0,0,.815.34,1.3,1.3,0,0,0,.832-.306,1.6,1.6,0,0,0,.843.306,1.307,1.307,0,0,0,.735-.142,1.954,1.954,0,0,0,1.561-.125,1.458,1.458,0,0,0,.967.266,2.718,2.718,0,0,0,.758-.21,1.575,1.575,0,0,0,.8.215,2.782,2.782,0,0,0,.809-.249c.883.765,1.539-.618,1.544-.64-.232.1-.786.414-1.114.278a1.071,1.071,0,0,1-.39-.385s-.95.759-1.652.057c-.379.408-1.233.482-1.318.289,1.918-.425,2.976-1.433,2.925-1.728a1.656,1.656,0,0,0-.3-.589,10.284,10.284,0,0,1-4.69,2.068q.187-2.439.153-3.042a30.087,30.087,0,0,0-1-2.884c-.52-1.337-1.516-.714-1.573.244a8.432,8.432,0,0,0,1.086,1.943,3.037,3.037,0,0,1,.424,1.479c.085,1.541.141,2.379.175,2.612a.617.617,0,0,1-.752-.5c-.3.7-1.465.295-1.7.011a1.183,1.183,0,0,1-1.375.351m.6-10.361c-.187.651.147,1.62.99,2.9.091.136.175.278.26.419l1.182-.363V27.329l3.807.295s.2-.306.328-.51a21.822,21.822,0,0,0-5.024-1.2Zm.526-2.141a1,1,0,0,0-.752,1.02.966.966,0,0,0,1.312.748A.927.927,0,1,0,44.726,23.771Z" transform="translate(-43.6 -23.745)" fill="#fff" fill-rule="evenodd"/>
        </g>
      </g>
    </g>
  </g>
</svg>
