<svg xmlns="http://www.w3.org/2000/svg" width="32" height="32" viewBox="0 0 32 32">
  <g id="waterskiing" transform="translate(0 0)">
    <g id="Z_Base_layer_130mm" transform="translate(0 0)">
      <g id="Group_880" data-name="Group 880" transform="translate(0)">
        <path id="Path_837" data-name="Path 837" d="M31.989,2.1A2.1,2.1,0,0,0,29.9,0H2.09A2.1,2.1,0,0,0,0,2.1V29.9A2.1,2.1,0,0,0,2.09,32H29.91A2.1,2.1,0,0,0,32,29.9V2.1Z" transform="translate(0)" fill="#fff"/>
        <path id="Path_838" data-name="Path 838" d="M31.989,2.1A2.1,2.1,0,0,0,29.9,0H2.09A2.1,2.1,0,0,0,0,2.1V29.9A2.1,2.1,0,0,0,2.09,32H29.91A2.1,2.1,0,0,0,32,29.9V2.1Z" transform="translate(0)" fill="#38598a"/>
      </g>
    </g>
    <g id="water_skiing" transform="translate(4.901 2.689)">
      <g id="Group_882" data-name="Group 882">
        <g id="Group_881" data-name="Group 881">
          <path id="Path_839" data-name="Path 839" d="M43.6,48.8c.691,1.144,1.959,1.745,2.865.691a1.866,1.866,0,0,0,1.631.68,2.6,2.6,0,0,0,1.665-.612,3.209,3.209,0,0,0,1.687.612,2.619,2.619,0,0,0,1.472-.283,3.916,3.916,0,0,0,3.126-.249,2.921,2.921,0,0,0,1.937.532,5.446,5.446,0,0,0,1.518-.419,3.155,3.155,0,0,0,1.6.43,5.574,5.574,0,0,0,1.619-.5c1.767,1.529,3.08-1.235,3.092-1.28-.464.193-1.574.827-2.231.555a2.142,2.142,0,0,1-.781-.77s-1.9,1.518-3.307.113c-.759.816-2.469.963-2.639.578,3.839-.85,5.957-2.866,5.855-3.455a3.311,3.311,0,0,0-.6-1.178c-1.223,1.348-6.4,3.885-9.388,4.135q.374-4.877.306-6.083a60.113,60.113,0,0,0-1.993-5.766c-1.042-2.673-3.035-1.427-3.148.487-.023.295.7,1.586,2.174,3.885a6.067,6.067,0,0,1,.849,2.957c.17,3.081.283,4.758.351,5.222a1.234,1.234,0,0,1-1.506-1.008c-.6,1.393-2.933.589-3.4.023a2.37,2.37,0,0,1-2.752.7m1.2-20.719c-.374,1.3.294,3.24,1.982,5.8.181.272.351.555.521.838l2.367-.725V30.911l7.622.589s.4-.612.657-1.02q-7.593-2.4-10.057-2.4ZM45.854,23.8a2,2,0,0,0-1.506,2.039,1.934,1.934,0,0,0,2.627,1.5C49.387,26.561,48.289,23.3,45.854,23.8Z" transform="translate(-43.6 -23.745)" fill="#fff" fill-rule="evenodd"/>
        </g>
      </g>
    </g>
  </g>
</svg>
