<svg xmlns="http://www.w3.org/2000/svg" width="63.357" height="63.201" viewBox="0 0 63.357 63.201">
  <g id="waterskiing" transform="translate(0 0)">
    <g id="Z_Base_layer_130mm" transform="translate(0 0)">
      <g id="Group_880" data-name="Group 880">
        <path id="Path_837" data-name="Path 837" d="M63.335,4.139A4.144,4.144,0,0,0,59.2,0H4.139A4.144,4.144,0,0,0,0,4.139V59.062A4.144,4.144,0,0,0,4.139,63.2h55.08a4.144,4.144,0,0,0,4.139-4.139V4.139Z" fill="#fff"/>
        <path id="Path_838" data-name="Path 838" d="M63.335,4.139A4.144,4.144,0,0,0,59.2,0H4.139A4.144,4.144,0,0,0,0,4.139V59.062A4.144,4.144,0,0,0,4.139,63.2h55.08a4.144,4.144,0,0,0,4.139-4.139V4.139Z" fill="#38598a"/>
      </g>
    </g>
    <g id="water_skiing" transform="translate(9.754 5.312)">
      <g id="Group_882" data-name="Group 882">
        <g id="Group_881" data-name="Group 881">
          <path id="Path_839" data-name="Path 839" d="M43.6,73.222c1.365,2.26,3.87,3.445,5.66,1.365a3.687,3.687,0,0,0,3.222,1.342,5.134,5.134,0,0,0,3.289-1.208A6.34,6.34,0,0,0,59.1,75.929a5.175,5.175,0,0,0,2.908-.559c.85.358,2.975.917,6.175-.492a5.772,5.772,0,0,0,3.826,1.051,10.761,10.761,0,0,0,3-.828,6.235,6.235,0,0,0,3.154.85,11.013,11.013,0,0,0,3.2-.984c3.49,3.02,6.085-2.439,6.108-2.528-.917.38-3.11,1.633-4.407,1.1a4.231,4.231,0,0,1-1.544-1.521s-3.758,3-6.533.224c-1.5,1.611-4.877,1.9-5.213,1.141,7.584-1.678,11.768-5.66,11.566-6.823a6.538,6.538,0,0,0-1.186-2.327C77.74,66.89,67.516,71.9,61.609,72.394q.738-9.631.6-12.014c-.045-.626-1.342-4.407-3.937-11.387-2.058-5.28-6-2.819-6.219.962-.045.582,1.387,3.132,4.3,7.674a11.98,11.98,0,0,1,1.678,5.839c.336,6.085.559,9.4.694,10.313-1.879.2-2.528-.649-2.975-1.991-1.186,2.752-5.794,1.163-6.712.045A4.683,4.683,0,0,1,43.6,73.222M45.971,32.3c-.738,2.573.582,6.4,3.915,11.454.358.537.694,1.1,1.029,1.656l4.676-1.432V37.9L70.648,39.06s.783-1.208,1.3-2.013q-15-4.732-19.866-4.743Zm2.081-8.457a3.951,3.951,0,0,0-2.975,4.027,3.82,3.82,0,0,0,5.19,2.953C55.032,29.306,52.862,22.863,48.052,23.847Z" transform="translate(-43.6 -23.745)" fill="#fff" fill-rule="evenodd"/>
        </g>
      </g>
    </g>
  </g>
</svg>
