<svg xmlns="http://www.w3.org/2000/svg" width="16" height="16" viewBox="0 0 16 16">
  <g id="wilderness-camping" transform="translate(0 0)">
    <g id="Z_Base_layer_130mm" data-name="Z Base layer 130mm" transform="translate(0 0)">
      <path id="Path_844" data-name="Path 844" d="M16,1.046A1.045,1.045,0,0,0,14.955,0H1.045A1.046,1.046,0,0,0,0,1.046V14.954A1.046,1.046,0,0,0,1.045,16h13.91A1.046,1.046,0,0,0,16,14.953Z" transform="translate(0 0)" fill="#38598a"/>
      <path id="Path_845" data-name="Path 845" d="M16,1.046A1.045,1.045,0,0,0,14.955,0H1.045A1.046,1.046,0,0,0,0,1.046V14.954A1.046,1.046,0,0,0,1.045,16h13.91A1.046,1.046,0,0,0,16,14.953Z" transform="translate(0 0)" fill="#38598a"/>
    </g>
    <g id="Tent" transform="translate(0.705 1.92)">
      <path id="Mountains" d="M12.569,39.959,17.6,34.241l3.817,2.813,1.866-1.439,3.28,3.294.595-.572v8.608l-14.59.035Z" transform="translate(-12.568 -34.241)" fill="#fff"/>
      <g id="Tent-2" data-name="Tent" transform="translate(0.614 2.662)">
        <path id="Path_846" data-name="Path 846" d="M23.524,88.273H36.885V87.05H34.991l-4.77-8.2-4.786,8.2H23.524Z" transform="translate(-23.524 -78.849)" fill="#38598a"/>
        <path id="Path_847" data-name="Path 847" d="M108.886,154.778l-1.958,3.738h3.886Z" transform="translate(-102.19 -150.52)" fill="#fff"/>
      </g>
    </g>
  </g>
</svg>
