<svg xmlns="http://www.w3.org/2000/svg" width="16" height="16" viewBox="0 0 16 16">
  <g id="wildlife-viewing" transform="translate(0.493 0)">
    <g id="Z_Base_layer_130mm" transform="translate(-0.493 0)">
      <g id="Group_888" data-name="Group 888">
        <path id="Path_853" data-name="Path 853" d="M15.994,1.048A1.048,1.048,0,0,0,14.949,0H1.045A1.048,1.048,0,0,0,0,1.048v13.9A1.048,1.048,0,0,0,1.045,16h13.91A1.048,1.048,0,0,0,16,14.952V1.048Z" fill="#fff"/>
        <path id="Path_854" data-name="Path 854" d="M15.994,1.048A1.048,1.048,0,0,0,14.949,0H1.045A1.048,1.048,0,0,0,0,1.048v13.9A1.048,1.048,0,0,0,1.045,16h13.91A1.048,1.048,0,0,0,16,14.952V1.048Z" fill="#38598a"/>
      </g>
    </g>
    <g id="Viewpoint_1" transform="translate(1.01 2.992)">
      <g id="Group_892" data-name="Group 892">
        <g id="Group_891" data-name="Group 891">
          <g id="Group_890" data-name="Group 890">
            <g id="Group_889" data-name="Group 889">
              <path id="Path_855" data-name="Path 855" d="M33.627,60.3V55.656h.346v-.318h-.318v-.471h.187v-.443h.289v-.7h-.289V53H31.159v.789h-.284v.664h.255v.414h.284v.443H31.13v.312h.25v.443H29.3v.76L28.1,59.6v1.736h.25l-.221.948v.726H32.1l-.006-.76-.2-.942h1.742V60.3" transform="translate(-28.1 -53)" fill="#fff"/>
              <path id="Path_856" data-name="Path 856" d="M123.99,88.7h.335v.312h.409v.318h-.426v1.135h.681v.743h-.567v.9h.267v.636h-.238v.488h.567v.743h-.647v.25h-.817v-.25H122.9v-.743h.573V92.74h-.238V92.1h.267v-.9h-.567v-.743h.681V89.33h-.426v-.318h.409V88.7h.392Z" transform="translate(-117.305 -86.674)" fill="#fff"/>
              <path id="Path_857" data-name="Path 857" d="M149.305,60.3v1.01h1.737l-.21.931-.011.772H154.8v-.726l-.221-.948h.255V59.6l-1.2-2.775v-.76h-2.083v-.443h.255V55.31h-.284v-.443h.284v-.414h.25v-.664h-.284V53h-2.684v.726H148.8v.7h.284v.443h.193v.471h-.318v.318h.346V60.3" transform="translate(-141.521 -53)" fill="#fff"/>
            </g>
          </g>
        </g>
      </g>
    </g>
  </g>
</svg>
