<svg xmlns="http://www.w3.org/2000/svg" width="48" height="48" viewBox="0 0 48 48">
  <g id="wilderness-camping" transform="translate(0 0)">
    <g id="Z_Base_layer_130mm" data-name="Z Base layer 130mm" transform="translate(0 0)">
      <path id="Path_844" data-name="Path 844" d="M48,3.137A3.136,3.136,0,0,0,44.866,0H3.135A3.137,3.137,0,0,0,0,3.137V44.86A3.138,3.138,0,0,0,3.135,48H44.866A3.137,3.137,0,0,0,48,44.86Z" transform="translate(0 0)" fill="#38598a"/>
      <path id="Path_845" data-name="Path 845" d="M48,3.137A3.136,3.136,0,0,0,44.866,0H3.135A3.137,3.137,0,0,0,0,3.137V44.86A3.138,3.138,0,0,0,3.135,48H44.866A3.137,3.137,0,0,0,48,44.86Z" transform="translate(0 0)" fill="#38598a"/>
    </g>
    <g id="Tent" transform="translate(2.109 5.745)">
      <path id="Mountains" d="M12.572,51.406l15.1-17.165,11.454,8.444,5.6-4.321,9.842,9.89,1.784-1.719V72.378l-43.782.1Z" transform="translate(-12.568 -34.241)" fill="#fff"/>
      <g id="Tent-2" data-name="Tent" transform="translate(1.838 8.095)">
        <path id="Path_846" data-name="Path 846" d="M23.524,107.043H63.63v-3.658H57.943L43.625,78.849,29.26,103.379H23.524Z" transform="translate(-23.524 -78.849)" fill="#38598a"/>
        <path id="Path_847" data-name="Path 847" d="M112.785,154.778l-5.857,11.184h11.625Z" transform="translate(-92.688 -142.038)" fill="#fff"/>
      </g>
    </g>
  </g>
</svg>
