<svg xmlns="http://www.w3.org/2000/svg" width="64" height="64" viewBox="0 0 64 64">
  <g id="wind-surfing" transform="translate(0 0)">
    <g id="Z_Base_layer_130mm" transform="translate(0 0)">
      <g id="Group_898" data-name="Group 898">
        <path id="Path_868" data-name="Path 868" d="M63.977,4.191A4.191,4.191,0,0,0,59.8,0H4.181A4.191,4.191,0,0,0,0,4.191V59.809A4.191,4.191,0,0,0,4.181,64H59.819A4.191,4.191,0,0,0,64,59.809V4.191Z" fill="#fff"/>
        <path id="Path_869" data-name="Path 869" d="M63.977,4.191A4.191,4.191,0,0,0,59.8,0H4.181A4.191,4.191,0,0,0,0,4.191V59.809A4.191,4.191,0,0,0,4.181,64H59.819A4.191,4.191,0,0,0,64,59.809V4.191Z" fill="#38598a"/>
      </g>
    </g>
    <g id="Wind_Surfing" transform="translate(16.452 4.72)">
      <g id="Group_902" data-name="Group 902">
        <g id="Group_901" data-name="Group 901">
          <g id="Group_900" data-name="Group 900" transform="translate(3.826)">
            <path id="Path_870" data-name="Path 870" d="M132.726,21.1s-12.953,34.313-20.291,47.487c-.515.91-.246-3.231-.246-3.231s-2.64-2.025-1.365-10.626c.179-1.274-2.26-1.024,1.119-8.51C117.021,34.98,132.726,21.1,132.726,21.1Z" transform="translate(-105.455 -21.1)" fill="#fff"/>
            <path id="Path_871" data-name="Path 871" d="M97.164,185.081l-1.991,4.609,9.083-8.658-2.573-2.8-1.969-.358L101.3,174.7l.984,2.081,5.011.358,2.192,2.192s-4.765,6.219-5.257,6.488c-.492.246-7.137,4.318-7.137,4.318l3.535.783-.694,1.1a5.084,5.084,0,0,0-3.333-.6c-.895.224-1.633.828-2.349.47-.738-.358-1.588-.984-2.327-.626s-1.633,1.007-2.125.38a3.06,3.06,0,0,1-.6-1.3l5.257-.85,1.835-4.765Z" transform="translate(-89.2 -139.537)" fill="#fff"/>
            <g id="Group_899" data-name="Group 899" transform="translate(18.882 34.232)">
              <path id="Path_872" data-name="Path 872" d="M175.5,175.4a1.9,1.9,0,1,0-1.9-1.9A1.9,1.9,0,0,0,175.5,175.4Z" transform="translate(-173.6 -171.6)" fill="#fff"/>
            </g>
          </g>
          <path id="Path_873" data-name="Path 873" d="M72.1,254.361a3.306,3.306,0,0,1,1.924-.694c1.1,0,.895.872,2.439.872s1.141-.94,2.6-.94,1.163.94,2.618.94,1.1-.895,2.64-.895c1.566,0,1.32.962,2.819.962s1.409-.962,2.819-.962a1.97,1.97,0,0,1,.6.179" transform="translate(-72.1 -200.786)" fill="none" stroke="#fff" stroke-width="3.8"/>
        </g>
      </g>
    </g>
  </g>
</svg>
