<svg xmlns="http://www.w3.org/2000/svg" width="16" height="16.532" viewBox="0 0 16 16.532">
  <g id="wind-surfing" transform="translate(0)">
    <g id="Z_Base_layer_130mm" transform="translate(0 0)">
      <g id="Group_898" data-name="Group 898">
        <path id="Path_868" data-name="Path 868" d="M15.994,1.048A1.048,1.048,0,0,0,14.949,0H1.045A1.048,1.048,0,0,0,0,1.048v13.9A1.048,1.048,0,0,0,1.045,16h13.91A1.048,1.048,0,0,0,16,14.952V1.048Z" fill="#fff"/>
        <path id="Path_869" data-name="Path 869" d="M15.994,1.048A1.048,1.048,0,0,0,14.949,0H1.045A1.048,1.048,0,0,0,0,1.048v13.9A1.048,1.048,0,0,0,1.045,16h13.91A1.048,1.048,0,0,0,16,14.952V1.048Z" fill="#38598a"/>
      </g>
    </g>
    <g id="Wind_Surfing" transform="translate(4.102 1.183)">
      <g id="Group_902" data-name="Group 902">
        <g id="Group_901" data-name="Group 901">
          <g id="Group_900" data-name="Group 900" transform="translate(0.959)">
            <path id="Path_870" data-name="Path 870" d="M115.8,21.1s-3.247,8.57-5.087,11.861c-.129.227-.062-.807-.062-.807s-.662-.506-.342-2.654c.045-.318-.566-.256.28-2.125C111.865,24.567,115.8,21.1,115.8,21.1Z" transform="translate(-108.965 -21.1)" fill="#fff"/>
            <path id="Path_871" data-name="Path 871" d="M91.2,177.3l-.5,1.155,2.277-2.17-.645-.7-.494-.09.4-.8.247.522,1.256.09.55.55s-1.195,1.559-1.318,1.626-1.789,1.082-1.789,1.082l.886.2-.174.275a1.274,1.274,0,0,0-.836-.151c-.224.056-.409.207-.589.118s-.4-.247-.583-.157-.409.252-.533.1a.767.767,0,0,1-.151-.325l1.318-.213.46-1.195Z" transform="translate(-89.2 -165.929)" fill="#fff"/>
            <g id="Group_899" data-name="Group 899" transform="translate(4.733 8.551)">
              <path id="Path_872" data-name="Path 872" d="M174.077,172.553a.477.477,0,1,0-.477-.477A.476.476,0,0,0,174.077,172.553Z" transform="translate(-173.6 -171.6)" fill="#fff"/>
            </g>
          </g>
          <path id="Path_873" data-name="Path 873" d="M72.1,253.791a.829.829,0,0,1,.482-.174c.275,0,.224.219.611.219s.286-.236.651-.236.292.236.656.236.275-.224.662-.224.331.241.707.241.353-.241.707-.241a.494.494,0,0,1,.151.045" transform="translate(-72.1 -240.404)" fill="none" stroke="#fff" stroke-width="3.8"/>
        </g>
      </g>
    </g>
  </g>
</svg>
