<svg xmlns="http://www.w3.org/2000/svg" width="48" height="48" viewBox="0 0 48 48">
  <g id="wind-surfing" transform="translate(0)">
    <g id="Z_Base_layer_130mm" transform="translate(0 0)">
      <g id="Group_898" data-name="Group 898">
        <path id="Path_868" data-name="Path 868" d="M47.983,3.143A3.143,3.143,0,0,0,44.847,0H3.136A3.143,3.143,0,0,0,0,3.143V44.856A3.143,3.143,0,0,0,3.136,48H44.864A3.143,3.143,0,0,0,48,44.856V3.143Z" fill="#fff"/>
        <path id="Path_869" data-name="Path 869" d="M47.983,3.143A3.143,3.143,0,0,0,44.847,0H3.136A3.143,3.143,0,0,0,0,3.143V44.856A3.143,3.143,0,0,0,3.136,48H44.864A3.143,3.143,0,0,0,48,44.856V3.143Z" fill="#38598a"/>
      </g>
    </g>
    <g id="Wind_Surfing" transform="translate(12.339 3.54)">
      <g id="Group_902" data-name="Group 902">
        <g id="Group_901" data-name="Group 901">
          <g id="Group_900" data-name="Group 900" transform="translate(2.869)">
            <path id="Path_870" data-name="Path 870" d="M127.08,21.1s-9.715,25.735-15.218,35.615c-.386.683-.185-2.423-.185-2.423s-1.98-1.519-1.024-7.97c.134-.956-1.695-.768.839-6.382C115.3,31.51,127.08,21.1,127.08,21.1Z" transform="translate(-106.626 -21.1)" fill="#fff"/>
            <path id="Path_871" data-name="Path 871" d="M95.173,182.485l-1.493,3.456,6.812-6.493-1.93-2.1-1.477-.268,1.191-2.383.738,1.56,3.758.268,1.644,1.644s-3.574,4.664-3.943,4.866c-.369.185-5.352,3.238-5.352,3.238l2.651.587-.52.822a3.813,3.813,0,0,0-2.5-.453c-.671.168-1.225.621-1.762.352-.554-.268-1.191-.738-1.745-.47s-1.225.755-1.594.285a2.3,2.3,0,0,1-.453-.973l3.943-.638,1.376-3.574Z" transform="translate(-89.2 -148.328)" fill="#fff"/>
            <g id="Group_899" data-name="Group 899" transform="translate(14.161 25.674)">
              <path id="Path_872" data-name="Path 872" d="M175.026,174.452a1.426,1.426,0,1,0-1.426-1.426A1.425,1.425,0,0,0,175.026,174.452Z" transform="translate(-173.6 -171.6)" fill="#fff"/>
            </g>
          </g>
          <path id="Path_873" data-name="Path 873" d="M72.1,254.17a2.48,2.48,0,0,1,1.443-.52c.822,0,.671.654,1.829.654s.856-.7,1.946-.7.873.7,1.963.7.822-.671,1.98-.671c1.175,0,.99.721,2.114.721s1.057-.721,2.114-.721a1.478,1.478,0,0,1,.453.134" transform="translate(-72.1 -213.99)" fill="none" stroke="#fff" stroke-width="3.8"/>
        </g>
      </g>
    </g>
  </g>
</svg>
