<svg xmlns="http://www.w3.org/2000/svg" width="31.999" height="31.999" viewBox="0 0 31.999 31.999">
  <g id="wind-surfing" transform="translate(0 0)">
    <g id="Z_Base_layer_130mm" transform="translate(0 0)">
      <g id="Group_898" data-name="Group 898">
        <path id="Path_868" data-name="Path 868" d="M31.988,2.1A2.1,2.1,0,0,0,29.9,0H2.09A2.1,2.1,0,0,0,0,2.1V29.9A2.1,2.1,0,0,0,2.09,32H29.909A2.1,2.1,0,0,0,32,29.9V2.1Z" fill="#fff"/>
        <path id="Path_869" data-name="Path 869" d="M31.988,2.1A2.1,2.1,0,0,0,29.9,0H2.09A2.1,2.1,0,0,0,0,2.1V29.9A2.1,2.1,0,0,0,2.09,32H29.909A2.1,2.1,0,0,0,32,29.9V2.1Z" fill="#38598a"/>
      </g>
    </g>
    <g id="Wind_Surfing" transform="translate(8.226 2.36)">
      <g id="Group_902" data-name="Group 902">
        <g id="Group_901" data-name="Group 901">
          <g id="Group_900" data-name="Group 900" transform="translate(1.913)">
            <path id="Path_870" data-name="Path 870" d="M121.433,21.1s-6.477,17.156-10.145,23.743c-.257.455-.123-1.615-.123-1.615s-1.32-1.013-.682-5.313c.089-.637-1.13-.512.559-4.255C113.58,28.04,121.433,21.1,121.433,21.1Z" transform="translate(-107.797 -21.1)" fill="#fff"/>
            <path id="Path_871" data-name="Path 871" d="M93.182,179.89l-1,2.3,4.541-4.329-1.286-1.4-.984-.179.794-1.588.492,1.04,2.506.179,1.1,1.1s-2.383,3.11-2.629,3.244-3.568,2.159-3.568,2.159l1.767.392-.347.548a2.542,2.542,0,0,0-1.667-.3c-.447.112-.817.414-1.175.235s-.794-.492-1.163-.313-.817.5-1.063.19a1.53,1.53,0,0,1-.3-.649l2.629-.425.917-2.383Z" transform="translate(-89.2 -157.119)" fill="#fff"/>
            <g id="Group_899" data-name="Group 899" transform="translate(9.441 17.116)">
              <path id="Path_872" data-name="Path 872" d="M174.551,173.5a.951.951,0,1,0-.951-.951A.95.95,0,0,0,174.551,173.5Z" transform="translate(-173.6 -171.6)" fill="#fff"/>
            </g>
          </g>
          <path id="Path_873" data-name="Path 873" d="M72.1,253.98a1.653,1.653,0,0,1,.962-.347c.548,0,.447.436,1.219.436s.57-.47,1.3-.47.582.47,1.309.47.548-.447,1.32-.447.66.481,1.409.481.7-.481,1.409-.481a.985.985,0,0,1,.3.089" transform="translate(-72.1 -227.194)" fill="none" stroke="#fff" stroke-width="3.8"/>
        </g>
      </g>
    </g>
  </g>
</svg>
