<svg xmlns="http://www.w3.org/2000/svg" width="64" height="64" viewBox="0 0 64 64">
  <g id="winter-recreation" transform="translate(0)">
    <g id="Z_Base_layer_130mm" transform="translate(0 0)">
      <g id="Group_904" data-name="Group 904">
        <path id="Path_877" data-name="Path 877" d="M63.977,4.191A4.191,4.191,0,0,0,59.8,0H4.181A4.191,4.191,0,0,0,0,4.191V59.809A4.191,4.191,0,0,0,4.181,64H59.819A4.191,4.191,0,0,0,64,59.809V4.191Z" fill="#fff"/>
        <path id="Path_878" data-name="Path 878" d="M63.977,4.191A4.191,4.191,0,0,0,59.8,0H4.181A4.191,4.191,0,0,0,0,4.191V59.809A4.191,4.191,0,0,0,4.181,64H59.819A4.191,4.191,0,0,0,64,59.809V4.191Z" fill="#38598a"/>
      </g>
    </g>
    <g id="Winter_Rec_Area" transform="translate(7.965 4.34)">
      <path id="Path_879" data-name="Path 879" d="M80.86,52.814l-1.837,3.178L76.6,54.585l1.61-2.792-.59-2.2-2.789.749-1.292,2.247-1.315-.749.975-1.68-1.678-.976L70.769,50.5l-1.315-.749L72.969,47.3l-3.424-2.383,1.315-.749.748,1.317,1.678-.976-.975-1.68,1.315-.749,1.292,2.247,2.789.749.59-2.2-1.61-2.792,2.426-1.407L80.95,41.85,83.2,40.556l.453-6.992-6.258-3.11-2.245,1.294,1.837,3.178-2.426,1.407-1.61-2.792-2.2-.59L70,35.744l1.292,2.247-1.315.749L69,37.061l-1.678.976.748,1.317-1.315.749-.317-4.563-3.945,1.839V35.857h1.5v-2.02h-1.95v-1.5h2.585L66.665,30.3l-1.61-1.612H61.813V25.869h3.651V23.282l-5.8-3.882-5.8,3.882v2.588H57.5v2.792h-3.22l-1.61,1.612,2.041,2.043H57.3v1.521H55.373v1.929h1.5v1.521l-3.945-1.861-.34,4.109-1.315-.749.748-1.317-1.678-.976-.975,1.68-1.315-.749,1.292-2.247-.748-2.792-2.2.59-1.61,2.792-2.426-1.407,1.837-3.178-2.245-1.294L35.713,33.02l.454,6.992,2.245,1.294,1.837-3.178,2.426,1.407-1.61,2.792.59,2.2,2.789-.749,1.292-2.247,1.315.749-.975,1.68,1.678.976.748-1.317,1.315.749L46.28,46.89l3.447,2.52-1.338.772-.748-1.317-1.678.976.975,1.68-1.315.749L44.33,50.022l-2.789-.749-.59,2.2,1.61,2.792-2.426,1.407L38.3,52.5,36.054,53.79,35.6,60.782l6.258,3.11L44.1,62.6,42.267,59.42l2.426-1.407L46.3,60.8l2.2.59L49.25,58.6l-1.292-2.247,1.338-.726.975,1.68,1.678-.976L51.2,55.016l1.315-.749.34,4.268,3.651-1.725v1.5h-1.5v1.929h1.927v1.521H54.352L52.312,63.8l1.61,1.612h3.243V68.2H53.491v2.633l5.828,3.882,5.8-3.882V68.25H61.472V65.458h3.243l1.61-1.612L64.284,61.8H61.7V60.283h1.95V58.353H62.13v-1.5l4.15,1.907.431-4.154,1.315.749-.748,1.317,1.678.976.975-1.68,1.315.749-1.292,2.247.748,2.792,2.2-.59,1.61-2.792,2.426,1.407L75.1,62.961l2.245,1.294,6.258-3.11-.453-6.992Zm-11-5.561-2.9,2.5-4.218-2.429,4.308-2.5Zm6.213-9.375s-10.771,8.081-11.564,6.7C63.695,43.167,76.075,37.878,76.075,37.878ZM59.794,28.344s1.61,13.37,0,13.37S59.794,28.344,59.794,28.344Zm-5.306,9.829,3.7,1.294v4.812l-4.376-2.52Zm-10.816-.545S56.053,42.917,55.237,44.3C54.443,45.709,43.672,37.628,43.672,37.628Zm-.317,18.75s10.771-8.081,11.564-6.7C55.736,51.089,43.355,56.378,43.355,56.378Zm14.421-1.725-3.356,1.18-.726-3.745,4.082-2.361Zm1.5,11.441s-1.61-13.37,0-13.37C60.883,52.7,59.273,66.094,59.273,66.094ZM64.76,56.038l-3.945-1.385V49.8a2.855,2.855,0,0,1-1.383.363,2.993,2.993,0,0,1-2.948-3.042V46.98L52.2,49.455l-2.9-2.5,3.016-2.61,4.195,2.429A2.969,2.969,0,0,1,59.432,44.1a2.785,2.785,0,0,1,1.791.636V39.467l3.583-1.249.771,4-4.354,2.52a3.077,3.077,0,0,1-.295,5.017l4.535,2.633Zm-.2-6.061c.816-1.407,11.564,6.674,11.564,6.674S63.74,51.384,64.556,49.977Z" transform="translate(-35.6 -19.4)" fill="#fff"/>
    </g>
  </g>
</svg>
