<svg xmlns="http://www.w3.org/2000/svg" width="16" height="16" viewBox="0 0 16 16">
  <g id="winter-recreation" transform="translate(0)">
    <g id="Z_Base_layer_130mm" transform="translate(0 0)">
      <g id="Group_904" data-name="Group 904">
        <path id="Path_877" data-name="Path 877" d="M15.994,1.048A1.048,1.048,0,0,0,14.949,0H1.045A1.048,1.048,0,0,0,0,1.048v13.9A1.048,1.048,0,0,0,1.045,16h13.91A1.048,1.048,0,0,0,16,14.952V1.048Z" fill="#fff"/>
        <path id="Path_878" data-name="Path 878" d="M15.994,1.048A1.048,1.048,0,0,0,14.949,0H1.045A1.048,1.048,0,0,0,0,1.048v13.9A1.048,1.048,0,0,0,1.045,16h13.91A1.048,1.048,0,0,0,16,14.952V1.048Z" fill="#38598a"/>
      </g>
    </g>
    <g id="Winter_Rec_Area" transform="translate(1.997 1.088)">
      <path id="Path_879" data-name="Path 879" d="M46.9,27.75l-.459.794-.606-.352.4-.7-.147-.55-.7.187-.323.562-.328-.187.244-.42-.419-.244-.187.329-.328-.187.878-.613-.855-.6.328-.187.187.329.419-.244-.244-.42.328-.187.323.562.7.187.147-.55-.4-.7.606-.352.459.794.561-.323L47.6,22.94l-1.563-.777-.561.323.459.794-.606.352-.4-.7-.549-.147-.187.7.323.562-.328.187-.244-.42-.419.244.187.329-.328.187-.079-1.14-.985.459v-.38h.374v-.5H42.2v-.374h.646l.51-.511-.4-.4h-.81v-.7h.912V20.37l-1.45-.97-1.45.97v.647h.912v.7h-.8l-.4.4.51.511h.646v.38h-.481v.482h.374v.38l-.985-.465-.085,1.027-.328-.187.187-.329-.419-.244-.244.42-.328-.187.323-.562-.187-.7-.549.147-.4.7-.606-.352.459-.794-.561-.323-1.557.783.113,1.747.561.323.459-.794.606.352-.4.7.147.55.7-.187.323-.562.328.187-.244.42.419.244.187-.329.328.187-.884.63.861.63-.334.193-.187-.329-.419.244.244.42-.328.187-.323-.562-.7-.187-.147.55.4.7-.606.352-.459-.794-.561.323L35.6,29.741l1.563.777.561-.323-.459-.794.606-.352.4.7.549.147.187-.7-.323-.562.334-.182.244.42.419-.244L39.5,28.3l.328-.187.085,1.066.912-.431v.374h-.374V29.6h.481v.38h-.646l-.51.511.4.4h.81v.7h-.918v.658l1.456.97,1.45-.97v-.647h-.912v-.7h.81l.4-.4L42.765,30h-.646v-.38h.487v-.482h-.379V28.76l1.036.476.108-1.038.328.187-.187.329.419.244.244-.42.328.187-.323.562.187.7.549-.147.4-.7.606.352-.459.794.561.323,1.563-.777-.113-1.747Zm-2.747-1.39-.725.624-1.053-.607,1.076-.624Zm1.552-2.343s-2.69,2.019-2.888,1.673S45.71,24.017,45.71,24.017Zm-4.066-2.382s.4,3.341,0,3.341S41.643,21.635,41.643,21.635Zm-1.325,2.456.923.323v1.2l-1.093-.63Zm-2.7-.136s3.092,1.322,2.888,1.668S37.616,23.955,37.616,23.955Zm-.079,4.686s2.69-2.019,2.888-1.673S37.537,28.641,37.537,28.641Zm3.6-.431L40.3,28.5l-.181-.936,1.019-.59Zm.374,2.859s-.4-3.341,0-3.341S41.513,31.068,41.513,31.068Zm1.371-2.513-.985-.346V27a.713.713,0,0,1-.345.091.748.748,0,0,1-.736-.76v-.034l-1.07.618-.725-.624.753-.652,1.048.607a.742.742,0,0,1,.731-.669.7.7,0,0,1,.447.159V24.415l.895-.312.193,1L42,25.731a.769.769,0,0,1-.074,1.254l1.133.658Zm-.051-1.515c.2-.352,2.888,1.668,2.888,1.668S42.629,27.393,42.832,27.041Z" transform="translate(-35.6 -19.4)" fill="#fff"/>
    </g>
  </g>
</svg>
