<svg xmlns="http://www.w3.org/2000/svg" width="31.999" height="31.999" viewBox="0 0 31.999 31.999">
  <g id="winter-recreation" transform="translate(0)">
    <g id="Z_Base_layer_130mm" transform="translate(0 0)">
      <g id="Group_904" data-name="Group 904">
        <path id="Path_877" data-name="Path 877" d="M31.988,2.1A2.1,2.1,0,0,0,29.9,0H2.09A2.1,2.1,0,0,0,0,2.1V29.9A2.1,2.1,0,0,0,2.09,32H29.909A2.1,2.1,0,0,0,32,29.9V2.1Z" fill="#fff"/>
        <path id="Path_878" data-name="Path 878" d="M31.988,2.1A2.1,2.1,0,0,0,29.9,0H2.09A2.1,2.1,0,0,0,0,2.1V29.9A2.1,2.1,0,0,0,2.09,32H29.909A2.1,2.1,0,0,0,32,29.9V2.1Z" fill="#38598a"/>
      </g>
    </g>
    <g id="Winter_Rec_Area" transform="translate(3.982 2.17)">
      <path id="Path_879" data-name="Path 879" d="M58.229,36.107,57.311,37.7l-1.213-.7.8-1.4-.295-1.1-1.395.375-.646,1.124-.658-.375.488-.84-.839-.488-.374.658-.658-.375,1.757-1.226-1.712-1.192.658-.375.374.658.839-.488-.488-.84.658-.375.646,1.124,1.395.375.295-1.1-.8-1.4,1.213-.7.918,1.589,1.122-.647.227-3.5-3.129-1.555-1.122.647.918,1.589-1.213.7-.8-1.4-1.1-.3-.374,1.4.646,1.124-.658.375-.488-.84-.839.488.374.658-.658.375-.159-2.281-1.973.919v-.76h.748v-1.01h-.975v-.749h1.292l1.02-1.021-.8-.806H48.706V22.635h1.825V21.341l-2.9-1.941-2.9,1.941v1.294h1.825v1.4h-1.61l-.8.806,1.02,1.021H46.45v.76h-.964v.965h.748v.76l-1.973-.931-.17,2.054-.658-.375.374-.658-.839-.488-.488.84-.658-.375.646-1.124-.374-1.4-1.1.3-.8,1.4-1.213-.7L39.9,25.29l-1.122-.647L35.657,26.21l.227,3.5,1.122.647.918-1.589,1.213.7-.8,1.4.295,1.1,1.394-.375.646-1.124.658.375-.488.84.839.488.374-.658.658.375-1.769,1.26,1.723,1.26-.669.386-.374-.658-.839.488.488.84-.658.375-.646-1.124-1.394-.375-.295,1.1.8,1.4-1.213.7-.918-1.589-1.122.647-.227,3.5,3.129,1.555L39.852,41l-.918-1.589,1.213-.7.8,1.4,1.1.3.374-1.4-.646-1.124.669-.363.488.84.839-.488-.374-.658.658-.375.17,2.134,1.825-.863v.749H45.3v.965h.964v.76H44.976L43.956,41.6l.8.806h1.621v1.4H44.545v1.317l2.914,1.941,2.9-1.941V43.825H48.536v-1.4h1.621l.8-.806L49.942,40.6H48.649v-.76h.975v-.965h-.76v-.749l2.075.953L51.155,37l.658.375-.374.658.839.488.488-.84.658.375-.646,1.124.374,1.4,1.1-.3.8-1.4,1.213.7L55.35,41.18l1.122.647L59.6,40.272l-.227-3.5Zm-5.5-2.781L51.28,34.575,49.171,33.36l2.154-1.248Zm3.106-4.687s-5.385,4.04-5.782,3.348S55.837,28.639,55.837,28.639ZM47.7,23.872s.8,6.685,0,6.685S47.7,23.872,47.7,23.872Zm-2.653,4.914,1.848.647v2.406L44.7,30.579Zm-5.408-.272s6.19,2.644,5.782,3.337S39.636,28.514,39.636,28.514Zm-.159,9.375s5.385-4.04,5.782-3.348S39.477,37.889,39.477,37.889Zm7.211-.863-1.678.59-.363-1.873,2.041-1.18Zm.748,5.72s-.8-6.685,0-6.685S47.436,42.746,47.436,42.746Zm2.744-5.028-1.973-.692V34.6a1.427,1.427,0,0,1-.692.182,1.5,1.5,0,0,1-1.474-1.521V33.19L43.9,34.427l-1.451-1.248,1.508-1.305,2.1,1.214a1.484,1.484,0,0,1,1.463-1.339,1.392,1.392,0,0,1,.9.318V29.433l1.791-.624.385,2-2.177,1.26a1.539,1.539,0,0,1-.147,2.508l2.267,1.317Zm-.1-3.03c.408-.7,5.782,3.337,5.782,3.337S49.67,35.392,50.078,34.688Z" transform="translate(-35.6 -19.4)" fill="#fff"/>
    </g>
  </g>
</svg>
