<svg xmlns="http://www.w3.org/2000/svg" width="48" height="48" viewBox="0 0 48 48">
  <g id="winter-recreation" transform="translate(0)">
    <g id="Z_Base_layer_130mm" transform="translate(0 0)">
      <g id="Group_904" data-name="Group 904">
        <path id="Path_877" data-name="Path 877" d="M47.983,3.143A3.143,3.143,0,0,0,44.847,0H3.136A3.143,3.143,0,0,0,0,3.143V44.856A3.143,3.143,0,0,0,3.136,48H44.864A3.143,3.143,0,0,0,48,44.856V3.143Z" fill="#fff"/>
        <path id="Path_878" data-name="Path 878" d="M47.983,3.143A3.143,3.143,0,0,0,44.847,0H3.136A3.143,3.143,0,0,0,0,3.143V44.856A3.143,3.143,0,0,0,3.136,48H44.864A3.143,3.143,0,0,0,48,44.856V3.143Z" fill="#38598a"/>
      </g>
    </g>
    <g id="Winter_Rec_Area" transform="translate(5.973 3.255)">
      <path id="Path_879" data-name="Path 879" d="M69.545,44.461l-1.378,2.383-1.82-1.056,1.207-2.094-.442-1.651-2.092.562-.969,1.685-.986-.562.731-1.26-1.258-.732-.561.987-.986-.562,2.636-1.839-2.568-1.788.986-.562.561.987,1.258-.732-.731-1.26.986-.562.969,1.685,2.092.562L67.623,37,66.416,34.91l1.82-1.056,1.378,2.383,1.684-.97.34-5.244-4.694-2.332-1.684.97,1.378,2.383L64.817,32.1,63.61,30.007l-1.65-.443L61.4,31.658l.969,1.685-.986.562-.731-1.26-1.258.732.561.987-.986.562L58.729,31.5,55.77,32.884V31.743h1.122V30.228H55.429V29.1h1.939L58.9,27.572l-1.207-1.209H55.259V24.252H58V22.311L53.644,19.4,49.29,22.311v1.941h2.738v2.094H49.613l-1.207,1.209,1.531,1.532h1.939v1.141H50.43v1.447h1.122v1.141l-2.959-1.4L48.338,34.5l-.986-.562.561-.987-1.258-.732-.731,1.26-.986-.562.969-1.685-.561-2.094-1.65.443-1.207,2.094-1.82-1.056,1.378-2.383-1.684-.97-4.677,2.349.34,5.244,1.684.97,1.378-2.383,1.82,1.056L39.7,36.6l.442,1.651,2.092-.562L43.2,36l.986.562-.731,1.26,1.258.732.561-.987.986.562-2.653,1.89,2.585,1.89-1,.579L44.63,41.5l-1.258.732.731,1.26-.986.562-.969-1.685L40.056,41.8l-.442,1.651,1.207,2.094L39,46.606l-1.378-2.383-1.684.97-.34,5.244,4.694,2.332,1.684-.97L40.6,49.415l1.82-1.056,1.207,2.094,1.65.443.561-2.094-.969-1.685,1-.545.731,1.26,1.258-.732-.561-.987.986-.562.255,3.2,2.738-1.294v1.124H50.157v1.447H51.6v1.141H49.664L48.134,52.7l1.207,1.209h2.432V56H49.018v1.975l4.371,2.911,4.354-2.911V56.038H55V53.943h2.432l1.207-1.209L57.113,51.2H55.174V50.062h1.463V48.615H55.5V47.491l3.112,1.43.323-3.116.986.562-.561.987,1.258.732.731-1.26.986.562-.969,1.685.561,2.094,1.65-.443,1.207-2.094,1.82,1.056-1.378,2.383,1.684.97L71.6,50.709l-.34-5.244ZM61.3,40.29,59.12,42.162l-3.163-1.822,3.231-1.873Zm4.66-7.031s-8.078,6.061-8.673,5.022C56.671,37.225,65.956,33.258,65.956,33.258Zm-12.211-7.15s1.207,10.028,0,10.028S53.746,26.108,53.746,26.108ZM49.766,33.48l2.772.97v3.609l-3.282-1.89Zm-8.112-.409s9.285,3.967,8.673,5.005C49.732,39.132,41.654,33.071,41.654,33.071Zm-.238,14.063s8.078-6.061,8.673-5.022C50.7,43.167,41.416,47.134,41.416,47.134ZM52.232,45.84l-2.517.885-.544-2.809,3.061-1.771Zm1.122,8.581s-1.207-10.028,0-10.028C54.562,44.375,53.355,54.42,53.355,54.42Zm4.116-7.542L54.511,45.84V42.2a2.141,2.141,0,0,1-1.037.272,2.245,2.245,0,0,1-2.211-2.281v-.1l-3.214,1.856-2.177-1.873,2.262-1.958,3.146,1.822a2.227,2.227,0,0,1,2.194-2.009,2.089,2.089,0,0,1,1.344.477V34.45l2.687-.936.578,3L54.817,38.4a2.308,2.308,0,0,1-.221,3.763L58,44.137Zm-.153-4.546c.612-1.056,8.673,5.005,8.673,5.005S56.7,43.388,57.317,42.333Z" transform="translate(-35.6 -19.4)" fill="#fff"/>
    </g>
  </g>
</svg>
