<svg id="BC_Parks_Logo" data-name="BC Parks Logo" xmlns="http://www.w3.org/2000/svg" xmlns:xlink="http://www.w3.org/1999/xlink" viewBox="0 0 1080 394.94"><defs><style>.cls-1{fill:none;}.cls-2{clip-path:url(#clip-path);}.cls-3{fill:#fff;}</style><clipPath id="clip-path"><rect class="cls-1" x="109.2" y="102.9" width="861.6" height="189.15"/></clipPath></defs><g class="cls-2"><path class="cls-3" d="M965.87,187A60.21,60.21,0,0,1,970,208c-1,1.8-4.92,2.33-6.21.77-4.4-11.39-12.16-18.89-22.77-18.89-10.09,0-16.57,6.47-16.57,15.78,0,10.62,10.88,16.31,19.94,21.48,13.71,7.77,26.39,16.56,26.39,34.94,0,19.66-18.12,29.49-37.26,29.49-12.17,0-21.22-2.59-27.69-7.76-2.07-4.92-3.62-17.6-3.1-26.13,1.29-1.56,4.65-1.81,6-.26,4.4,14.23,12.67,26.65,27.43,26.65,9.31,0,17.33-5.43,17.33-16.56,0-11.9-10.35-18.38-19.92-23.81-15-8.54-25.63-17.59-25.63-31.82,0-18.89,15.54-29.51,35.2-29.51,10.86,0,20.45,2.6,22.76,4.66"/><path class="cls-3" d="M791.16,142c0-15.26-.26-16.81-8-21.47L780.55,119c-1.3-.79-1.3-4.41,0-5.18,6.46-2.07,18.62-6,27.93-10.87a2.85,2.85,0,0,1,2.6,1.56c-.26,7.76-.77,20.7-.77,32.08v88.75c0,3.37.25,3.88,4.65,3.88,5.7,0,10.61-2.84,17.6-10.09l10.6-11.39c7.25-7.76,9.06-10.6,9.06-11.9s-1.3-2.07-5.7-2.59l-6.2-.77c-2.33-.78-2.33-5.69,0-6.47h5.95a405.15,405.15,0,0,0,41.14-2.07c1.81.78,2.07,5.17.51,6.47l-8.27,1.55c-5.17,1-9.57,3.63-16.3,9.05-10.09,8-18.9,17.35-23.55,21.74-3.11,2.85-3.36,4.14-1.81,6.21,4.4,6,8.53,10.87,17.34,20.7C865.42,261,874.48,271.09,879.65,276c3.62,3.37,8.79,4.92,13.45,5.7l3.63.52c1.81,1.29,1.54,5.68-.52,6.47-7.51-.52-16.31-.79-24.58-.79-10.36,0-19.41.27-26.92.79-2.06-1-2.32-5.44-.51-6.47l4.66-.78c3.88-.52,6.47-1,6.47-2.59s-1-3.37-4.41-7.24l-27.68-32.09a10.52,10.52,0,0,0-8-3.62c-4.66,0-4.91.77-4.91,8.8v14.23c0,18.63.51,21.21,9.83,22.51l6.2.78c1.81,1.29,1.3,5.68-.51,6.47-8.54-.52-16.05-.79-25.11-.79-9.31,0-17.07.27-24.83.79-1.81-.79-2.33-5.18-.26-6.47l5.7-.78c9.57-1.3,9.83-3.88,9.83-22.51Z"/><path class="cls-3" d="M719.14,213.65c0-10.1,0-11.39-7-16l-2.34-1.56c-1-1-1-3.88.27-4.65,5.95-2.07,19.67-8.8,26.13-12.68,1.3.26,2.07.77,2.07,1.81v15c0,1.29.26,2.07.78,2.32,9.06-7.5,18.89-15.53,28.46-15.53,6.46,0,11.65,4.15,11.65,10.36A11.48,11.48,0,0,1,768,204.59a9.86,9.86,0,0,1-5.69-1.81c-3.89-2.59-7.76-4.14-11.39-4.14a11.46,11.46,0,0,0-9.31,5.18c-2.59,3.62-3.37,11.12-3.37,19.91v35.2c0,18.63.52,21.73,10.35,22.51l9.32.77c1.81,1.3,1.3,5.7-.53,6.48-12.15-.52-19.65-.78-28.71-.78-9.32,0-17.08.26-23.8.78-1.82-.78-2.34-5.18-.52-6.48l4.91-.77c9.58-1.55,9.84-3.88,9.84-22.51Z"/><path class="cls-3" d="M636.88,279.89c5.17,0,13.19-3.89,15.78-6.48,3.1-3.1,3.1-6.72,3.37-12.15l.51-15.27c0-2.84-1-3.36-2.58-3.36s-6,1-10.62,2.59c-15.26,5.17-22.77,9.05-22.77,19.14,0,4.4,3.1,15.53,16.31,15.53m16-45.54c3.88-1.3,4.4-3.62,4.4-7.5l.25-11.91c.26-9.57-2.84-22.51-18.89-22.51-7.25,0-16,3.62-16.55,11.65-.26,4.13-.53,7.23-2.6,8.79-3.87,3.11-10.86,4.92-14.74,4.92a3.27,3.27,0,0,1-3.62-3.62c0-13.46,29.24-31.84,48.13-31.84,18.62,0,27.68,10.87,26.91,30.28l-1.56,45c-.52,11.9,1.81,22.5,11.9,22.5a14.8,14.8,0,0,0,6.47-1.55c1.3-.77,2.58-1.81,3.37-1.81,1,0,1.8,1.56,1.8,3.36,0,1.3-9.05,11.39-21.73,11.39a20.66,20.66,0,0,1-16.82-8c-1-1.55-2.58-3.62-4.14-3.62-1.81,0-4.91,2.32-10.09,5.17-5.7,3.11-11.39,6.47-18.63,6.47-7.5,0-13.71-2.07-18.11-5.95a24.2,24.2,0,0,1-8-18.11c0-10.09,4.92-16,21.48-22Z"/><path class="cls-3" d="M524.79,249.09c0,27.18.51,30.54,17.07,32.35l7,.77c1.56,1.3,1,5.69-.51,6.48-14.75-.52-23.3-.79-33.65-.79-10.87,0-20.18.27-31.56.79-1.55-.79-2.07-4.92-.52-6.48l5.43-.77c15-2.07,15.53-5.17,15.53-32.35V153.62c0-22-.52-26.39-12.16-27.69l-9.31-1c-1.82-1.55-1.56-5.43.51-6.46,13.71-1.82,29.76-2.07,51.24-2.07s37.51,2.84,49.68,10.35c11.9,7.5,20.69,21,20.69,38.81,0,23.81-14.75,35.71-25.88,41.14-11.37,5.44-25.09,7.76-35.69,7.76-1.82-.77-1.82-4.66-.27-5.18,28-5.16,38-21,38-43.46,0-25.1-14.75-41.4-41.66-41.4-13.72,0-14,1-14,9.31Z"/><path class="cls-3" d="M289.3,135c18.89-14.76,42.95-22,69.87-22A199.72,199.72,0,0,1,405,119.2c3.11.78,4.92,1.3,7.24,1,.27,6,1.56,22.26,3.63,38.05-1.3,1.8-5.18,2.07-7,.51C405,141.2,393.32,121,355.79,121c-39.59,0-73.22,25.09-73.22,78.66C282.57,254,317,284,359.42,284c33.39,0,48.12-21.74,54.08-37,1.81-1.3,5.69-.78,6.73,1-1.81,13.45-8.54,30.53-12.42,35.45a52.15,52.15,0,0,0-9.06,2.59c-5.7,2.07-24.32,5.94-40.88,5.94-23.29,0-45.55-4.65-64.44-17.33-20.69-14.23-36.74-37.77-36.74-71.16,0-28.71,12.95-53.29,32.61-68.56"/><path class="cls-3" d="M152.81,245.22c0,9.31.52,22.5,5.43,28.2,4.92,5.95,12.68,7.25,20.44,7.25,23,0,40.62-10.35,40.62-36.23,0-20.44-10.35-44.25-51.48-44.25-14,0-15,1.56-15,6.73Zm0-60c0,7.24.25,7.76,13.45,7.24,26.4-1,40.62-8.8,40.62-33.12,0-25.36-18.88-34.93-38.55-34.93-5.69,0-9.57.51-11.9,1.55-2.59.78-3.62,2.07-3.62,6.72Zm-21.22-34.42c0-19.15-1-24.06-12.68-25.1l-8.28-.78c-2.07-1.55-1.81-5.43.26-6.46,14-1.3,31.57-2.07,55.63-2.07,16.31,0,31.83,1.29,43.47,7.24,11.13,5.44,19.67,15.78,19.67,32.34,0,18.63-10.87,28.21-26.4,35.46,0,2.58,2.07,3.35,4.92,3.87,14,2.59,34.67,15.53,34.67,43.22,0,30-22.25,50.2-68.82,50.2-7.51,0-20.19-.78-31.05-.78-11.39,0-20.18.52-29.76.78-1.55-.78-2.07-4.92-.52-6.47l4.66-.78c13.71-2.33,14.23-5.17,14.23-32.34Z"/></g></svg>