<svg width="24" height="24" viewBox="0 0 24 24" fill="none" xmlns="http://www.w3.org/2000/svg">
<path fill-rule="evenodd" clip-rule="evenodd" d="M18.8943 5.10571C20.7228 6.93419 21.75 9.41414 21.75 12C21.75 13.3518 21.4693 14.6747 20.9401 15.8907L18.8116 14.6619C18.9348 14.1327 19 13.5767 19 13C19 9 16 6 16 6L14 8L11 4C11 4 8.73433 5.51045 6.9875 7.83522L4.16046 6.20302C4.44619 5.81662 4.76178 5.44964 5.10571 5.10571C6.93419 3.27723 9.41414 2.25 12 2.25C14.5859 2.25 17.0658 3.27723 18.8943 5.10571ZM3.06039 8.10824L5.82586 9.70489C5.32593 10.7236 5 11.8346 5 13C5 17 8.13196 20 12 20C14.524 20 16.7379 18.7194 17.9696 16.7161L19.8402 17.7961C19.5543 18.1828 19.2385 18.5501 18.8943 18.8943C17.0658 20.7228 14.5859 21.75 12 21.75C9.41414 21.75 6.93419 20.7228 5.10571 18.8943C3.27723 17.0658 2.25 14.5859 2.25 12C2.25 10.6478 2.5309 9.32452 3.06039 8.10824ZM3.51472 3.51472C1.26428 5.76516 0 8.8174 0 12C0 15.1826 1.26428 18.2348 3.51472 20.4853C5.76516 22.7357 8.8174 24 12 24C15.1826 24 18.2348 22.7357 20.4853 20.4853C22.7357 18.2348 24 15.1826 24 12C24 8.8174 22.7357 5.76516 20.4853 3.51472C18.2348 1.26428 15.1826 0 12 0C8.8174 0 5.76516 1.26428 3.51472 3.51472ZM12 18C13.646 18 15.0611 16.9577 15.6747 15.3911L8.59615 11.3043C8.24143 12.0105 8 12.7957 8 13.625C8 16.125 9.78969 18 12 18ZM9.84714 9.48623L15.9669 13.0195C15.7287 10.8283 14.2857 9.25 14.2857 9.25L13.1429 10.5L11.4286 8C11.4286 8 10.6578 8.56203 9.84714 9.48623Z" fill="#003366"/>
</svg>
