<svg width="28" height="28" viewBox="0 0 28 28" fill="none" xmlns="http://www.w3.org/2000/svg">
<path d="M10.9754 2C10.0797 2 9.22157 2.35639 8.58851 2.98945L2.98945 8.58851C2.35639 9.22157 2 10.0797 2 10.9754V17.0246C2 17.9203 2.35639 18.7784 2.98945 19.4115L8.58851 25.0105C9.22157 25.6436 10.0797 26 10.9754 26H17.0246C17.9203 26 18.7784 25.6436 19.4115 25.0105L25.0105 19.4115C25.6436 18.7784 26 17.9203 26 17.0246V10.9754C26 10.0797 25.6436 9.22157 25.0105 8.58851L19.4115 2.98945C18.7784 2.35639 17.9203 2 17.0246 2H10.9754Z" fill="#D8292F"/>
<path fill-rule="evenodd" clip-rule="evenodd" d="M15.5 14.5V8.5C15.5 7.67157 14.8284 7 14 7C13.1716 7 12.5 7.67157 12.5 8.5V14.5C12.5 15.3284 13.1716 16 14 16C14.8284 16 15.5 15.3284 15.5 14.5ZM14 21C14.9665 21 15.75 20.2165 15.75 19.25C15.75 18.2835 14.9665 17.5 14 17.5C13.0335 17.5 12.25 18.2835 12.25 19.25C12.25 20.2165 13.0335 21 14 21Z" fill="white"/>
</svg>
