<svg width="28" height="28" viewBox="0 0 28 28" fill="none" xmlns="http://www.w3.org/2000/svg">
<path d="M15.8858 3.06071C15.4921 2.40179 14.7756 2 13.999 2C13.2224 2 12.5059 2.40179 12.1121 3.06071L0.298784 22.775C-0.0949941 23.4339 -0.100463 24.2589 0.287846 24.9232C0.676155 25.5875 1.40355 26 2.18564 26H25.8123C26.5944 26 27.3218 25.5875 27.7101 24.9232C28.0984 24.2589 28.0984 23.4393 27.6992 22.775L15.8858 3.06071Z" fill="#A5792B"/>
<path fill-rule="evenodd" clip-rule="evenodd" d="M15.5 15.5V9.5C15.5 8.67157 14.8284 8 14 8C13.1716 8 12.5 8.67157 12.5 9.5V15.5C12.5 16.3284 13.1716 17 14 17C14.8284 17 15.5 16.3284 15.5 15.5ZM14 22C14.9665 22 15.75 21.2165 15.75 20.25C15.75 19.2835 14.9665 18.5 14 18.5C13.0335 18.5 12.25 19.2835 12.25 20.25C12.25 21.2165 13.0335 22 14 22Z" fill="white"/>
</svg>
