<?xml version="1.0" encoding="utf-8"?>
<!-- Generator: Adobe Illustrator 17.0.0, SVG Export Plug-In . SVG Version: 6.00 Build 0)  -->
<!DOCTYPE svg PUBLIC "-//W3C//DTD SVG 1.1//EN" "http://www.w3.org/Graphics/SVG/1.1/DTD/svg11.dtd">
<svg version="1.1" id="Amphitheatre" xmlns="http://www.w3.org/2000/svg" xmlns:xlink="http://www.w3.org/1999/xlink" x="0px"
	 y="0px" width="283.141px" height="282.438px" viewBox="0 0 283.141 282.438" enable-background="new 0 0 283.141 282.438"
	 xml:space="preserve">
<g>
	<g>
		<path display="none" fill="#FFFFFF" d="M289.25,263.898c0,13.602-11.039,24.648-24.641,24.648H18.539
			c-13.602,0-24.633-11.047-24.633-24.648V18.516c0-13.602,11.031-24.625,24.633-24.625H264.61
			c13.602,0,24.641,11.023,24.641,24.625V263.898z M283.141,18.453C283.141,8.266,274.868,0,264.657,0H18.492
			C8.281,0,0,8.266,0,18.453v245.508c0,10.195,8.281,18.477,18.492,18.477h246.165c10.211,0,18.484-8.281,18.484-18.477V18.453z"/>
		<path fill="#A6A6A6" d="M283.051,18.226c0-10.206-8.268-18.487-18.473-18.487H18.571c-10.204,0-18.48,8.281-18.48,18.487v245.962
			c0,10.214,8.276,18.511,18.48,18.511h246.007c10.204,0,18.473-8.297,18.473-18.511V18.226z"/>
		<path display="none" fill="none" stroke="#231F20" stroke-width="0.9992" d="M289.25,263.898
			c0,13.602-11.039,24.648-24.641,24.648H18.539c-13.602,0-24.633-11.047-24.633-24.648V18.516
			c0-13.602,11.031-24.625,24.633-24.625H264.61c13.602,0,24.641,11.023,24.641,24.625V263.898z"/>
	</g>
	<g>
		<g>
			<g>
				<polygon fill="#FFFFFF" points="221.78,224.867 221.78,196.367 207.295,181.883 193.764,195.414 193.764,243.867 
					211.342,243.867 				"/>
				<path fill="#FFFFFF" d="M214.123,188.992l22.188-18.547c0,0,17.672-2.844,17.672,3.438c0,6.25,1.141,35.891,1.141,42.734
					c0,6.844,0.438,33.094,4.984,39.938c1.016,1.5-7.875,6.453-7.875,6.453s0.031-6.484-1.109-9.328
					c-1.141-2.859-7.406-25.656-7.406-25.656l-17.531,34.953h-10.25c0,0,4.406-4.172,6.109-8.172
					c1.719-3.984,12.547-31.344,11.406-44.453c-0.781-9.094-1.141-22.797-1.141-22.797l-12.641,6.922L214.123,188.992z"/>
				<g>
					<path fill="#FFFFFF" d="M239.155,166.664c4.453,0,8.062-3.781,8.062-8.469s-3.609-8.469-8.062-8.469
						c-4.453,0-8.047,3.781-8.047,8.469S234.702,166.664,239.155,166.664z"/>
				</g>
				<path fill="#FFFFFF" d="M22.968,167.008l16.109,4.609c0,0,7.367-23.094,22.406-43c16.625-22.016,52.172-51.641,88.203-70.219
					c45.5-23.484,78.656-22.984,78.656-22.984l0.141-15.984c0,0-19.562,0.5-35.828,5.031c-7.016,1.953-53.609,17.062-92.007,45.859
					C93.983,75.32,34.077,120.617,22.968,167.008z"/>
				<g>
					<rect x="117.562" y="64.211" fill="#FFFFFF" width="5.266" height="33.469"/>
				</g>
				<g>
					<rect x="137.046" y="109.32" fill="#FFFFFF" width="5.297" height="33.469"/>
				</g>
				<path fill="#FFFFFF" d="M67.483,212.508l-16.898-4.891c0,0,3.695-13.703,7.602-20.062c3.914-6.359,15.172-35.234,51.375-67.016
					c6.031-5.312,28.375-24.469,43.546-33.266c15.172-8.812,37.234-19.109,58.203-22.812c5.312-0.938,21.688-1.875,21.688-1.875
					v15.375c0,0-12.891-0.172-25.156,2.766c-12.359,2.953-38.109,12.406-69.906,37.359c-8.234,6.469-27.391,22.984-49.898,51.859
					C82.202,177.445,71.405,193.914,67.483,212.508z"/>
				<path fill="#FFFFFF" d="M98.765,246.852l-16.078-5.234c0,0,5-16,9.727-25.109c4.57-8.797,22.992-38.156,42.555-55.766
					c8.75-7.875,32.124-27.984,55.781-42.578c23.594-14.547,46.437-14.766,46.437-14.766l0.031,14.188
					c0,0-10.266,0.578-18.094,3.516c-7.828,2.938-31.312,11.75-52.844,30.344c-6.812,5.875-23.484,19.359-39.125,39.906
					C121.952,198.164,105.624,221.883,98.765,246.852z"/>
				<g>
					<rect x="214.42" y="24.102" fill="#FFFFFF" width="5.281" height="33.453"/>
				</g>
				<g>
					<rect x="44.655" y="140.539" fill="#FFFFFF" width="5.281" height="33.469"/>
				</g>
				<g>
					<rect x="75.608" y="178.117" fill="#FFFFFF" width="5.281" height="33.453"/>
				</g>
				<g>
					<rect x="218.827" y="69.102" fill="#FFFFFF" width="5.281" height="30.266"/>
				</g>
				<g>
					<rect x="223.264" y="110.367" fill="#FFFFFF" width="5.266" height="33.469"/>
				</g>
				<g>
					<rect x="155.233" y="152.758" fill="#FFFFFF" width="5.266" height="33.469"/>
				</g>
				<g>
					<rect x="106.788" y="213.914" fill="#FFFFFF" width="5.273" height="33.469"/>
				</g>
			</g>
		</g>
	</g>
</g>
</svg>
