<svg enable-background="new 0 0 283.141 282.437" height="282.437" viewBox="0 0 283.141 282.437" width="283.141" xmlns="http://www.w3.org/2000/svg"><path d="m283.141 18.461c0-10.192-8.274-18.461-18.485-18.461h-246.164c-10.211 0-18.492 8.269-18.492 18.461v245.504c0 10.195 8.281 18.473 18.492 18.473h246.164c10.211 0 18.484-8.277 18.484-18.473v-245.504z" fill="#4d5f85"/><path d="m124.875 134.75c-.094.105-.188.211-.281.32l-.039.027-29.5-6.125s-22.727-2.648-35.422-15.344c-7.398-7.41-11.109-29.074-11.109-29.074l45.492 8.98 21.125-14.797 2.398 7.648-11.914 9.266 139.078 28.547-22.234 31.203-62.867-13.043-.039-.082c-.031-.086-.062-.176-.094-.262-2.945-8.219-10.555-14.074-19.469-14.074-5.961.001-11.336 2.619-15.125 6.81z" fill="#fff"/><path d="m239.242 199.82c16 0 22.352-5.809 22.352-5.809l-240.031-49.18v54.988h86.203 19.703c13.812 0 13.531-9.512 13.531-9.512s.281 9.512 14.422 9.512c13.812 0 13.516-9.512 13.516-9.512s.297 9.512 14.422 9.512c13.828 0 13.531-9.512 13.531-9.512s.297 9.512 14.43 9.512c13.805 0 13.5-9.512 13.5-9.512s.304 9.513 14.421 9.513z" fill="#fff"/><path d="m69.148 130.031 48.672 9.992" fill="none" stroke="#fff" stroke-width="4.2209"/><path d="m163.812 149.504 59.727 12.777" fill="none" stroke="#fff" stroke-width="4.2209"/><path d="m122.039 149.586c0-10.324 8.055-18.699 17.961-18.699 9.922 0 17.938 8.375 17.938 18.699 0 10.316-8.016 18.691-17.938 18.691-9.906 0-17.961-8.375-17.961-18.691zm17.961 11.949c6.359 0 11.484-5.336 11.484-11.949 0-6.598-5.125-11.977-11.484-11.977-6.344 0-11.484 5.379-11.484 11.977 0 6.613 5.14 11.949 11.484 11.949z" fill="#fff"/></svg>