<?xml version="1.0" encoding="utf-8"?>
<!-- Generator: Adobe Illustrator 17.0.0, SVG Export Plug-In . SVG Version: 6.00 Build 0)  -->
<!DOCTYPE svg PUBLIC "-//W3C//DTD SVG 1.1//EN" "http://www.w3.org/Graphics/SVG/1.1/DTD/svg11.dtd">
<svg version="1.1" xmlns="http://www.w3.org/2000/svg" xmlns:xlink="http://www.w3.org/1999/xlink" x="0px" y="0px"
	 width="283.141px" height="282.437px" viewBox="0 0 283.141 282.437" enable-background="new 0 0 283.141 282.437"
	 xml:space="preserve">
<g id="Background">
	<path display="none" fill="#FFFFFF" d="M289.25,263.902c0,13.605-11.039,24.645-24.641,24.645H18.539
		c-13.602,0-24.633-11.039-24.633-24.645V18.516c0-13.598,11.031-24.625,24.633-24.625h246.07c13.602,0,24.641,11.027,24.641,24.625
		V263.902z M283.141,18.461C283.141,8.269,274.867,0,264.656,0H18.492C8.281,0,0,8.269,0,18.461v245.504
		c0,10.195,8.281,18.473,18.492,18.473h246.164c10.211,0,18.484-8.277,18.484-18.473V18.461z"/>
	<path fill="#4D5F85" d="M283.141,18.461C283.141,8.269,274.867,0,264.656,0H18.492C8.281,0,0,8.269,0,18.461v245.504
		c0,10.195,8.281,18.473,18.492,18.473h246.164c10.211,0,18.484-8.277,18.484-18.473V18.461z"/>
	<path display="none" fill="none" stroke="#231F20" stroke-width="0.9992" d="M289.25,263.902c0,13.605-11.039,24.645-24.641,24.645
		H18.539c-13.602,0-24.633-11.039-24.633-24.645V18.516c0-13.598,11.031-24.625,24.633-24.625h246.07
		c13.602,0,24.641,11.027,24.641,24.625V263.902z"/>
</g>
<g id="Boat_Launch">
	<path fill="#FFFFFF" d="M124.875,134.75c-0.094,0.105-0.188,0.211-0.281,0.32l-0.039,0.027l-29.5-6.125
		c0,0-22.727-2.648-35.422-15.344c-7.398-7.41-11.109-29.074-11.109-29.074l45.492,8.98l21.125-14.797l2.398,7.648l-11.914,9.266
		l139.078,28.547l-22.234,31.203l-62.867-13.043l-0.039-0.082c-0.031-0.086-0.062-0.176-0.094-0.262
		c-2.945-8.219-10.555-14.074-19.469-14.074C134.039,127.941,128.664,130.559,124.875,134.75z"/>
	<path fill="#FFFFFF" d="M239.242,199.82c16,0,22.352-5.809,22.352-5.809l-240.031-49.18v54.988h86.203h19.703
		c13.812,0,13.531-9.512,13.531-9.512s0.281,9.512,14.422,9.512c13.812,0,13.516-9.512,13.516-9.512s0.297,9.512,14.422,9.512
		c13.828,0,13.531-9.512,13.531-9.512s0.297,9.512,14.43,9.512c13.805,0,13.5-9.512,13.5-9.512S225.125,199.82,239.242,199.82z"/>
	<line fill="none" stroke="#FFFFFF" stroke-width="4.2209" x1="69.148" y1="130.031" x2="117.82" y2="140.023"/>
	<line fill="none" stroke="#FFFFFF" stroke-width="4.2209" x1="163.812" y1="149.504" x2="223.539" y2="162.281"/>
	<path fill="#FFFFFF" d="M122.039,149.586c0-10.324,8.055-18.699,17.961-18.699c9.922,0,17.938,8.375,17.938,18.699
		c0,10.316-8.016,18.691-17.938,18.691C130.094,168.277,122.039,159.902,122.039,149.586z M140,161.535
		c6.359,0,11.484-5.336,11.484-11.949c0-6.598-5.125-11.977-11.484-11.977c-6.344,0-11.484,5.379-11.484,11.977
		C128.516,156.199,133.656,161.535,140,161.535z"/>
</g>
</svg>
