<svg enable-background="new 0 0 283.14 282.438" height="282.438" viewBox="0 0 283.14 282.438" width="283.14" xmlns="http://www.w3.org/2000/svg"><path d="m283.14 18.453c0-10.187-8.265-18.453-18.484-18.453h-246.156c-10.219 0-18.5 8.266-18.5 18.453v245.508c0 10.195 8.281 18.477 18.5 18.477h246.156c10.219 0 18.484-8.281 18.484-18.477z" fill="#a6a6a6"/><g fill="#fff"><path d="m142.806 17.75s3.406 13.953-17.32 52.484c-20.727 38.516-31.898 50.219-28.836 69.953s10.203 41.906 31.961 57.734 10.156-1.641 10.156-1.641-4.641-9.562 9.148-23.344c12.906-12.906 28.586-36.5 29.203-57.578.617-21.092-2.679-60.858-34.312-97.608z"/><path d="m127.228 202.844s-32.234-18.641-36.656-39.078c-5.656-26.141-2.125-19.828-.766-42.906s-4-19.641-5.086-11.875c-1.086 7.75-6.484 19.797-10.945 31.734-4.453 11.953-1.492 30.734 8.422 43.047 9.913 12.328 16.39 19.281 45.031 19.078z"/><path d="m149.36 204.313s-4.953-19.547 5.469-29.25c10.43-9.719 25.922-25.703 28.289-39.328s2.883-62.406 2.883-62.406 14.273 27.375 19.117 44.766c4.109 14.75 7.711 36.438-2.211 50.875-9.922 14.438-24.328 22.656-40.085 27.219-15.758 4.545-13.462 8.124-13.462 8.124z"/><path d="m190.422 261.406-112.577-36.578s-9.008-3.781-4.133-15.484c2.672-6.406 7.93-7.312 16.008-4.938 2.297.672 111.015 32.875 110.203 32.766-7.008-.891-18.477 15.906-9.501 24.234z"/><path d="m198.258 263.922c4.648 1.312 9.828-2.922 11.57-9.453 1.727-6.516-.633-12.875-5.281-14.156-4.641-1.312-9.82 2.906-11.562 9.438-1.734 6.515.625 12.874 5.273 14.171z"/><path d="m143.314 217.281 41.999 11.594s26.516-8.203 28.859-8.797c2.344-.594 9.391-20.719-6.461-20.797-5.312-.031-18.195 4.203-18.195 4.203z"/><path d="m78.165 262.391c5.227-1.25 8.188-7.672 6.609-14.359-1.586-6.672-7.109-11.078-12.352-9.828-5.242 1.234-8.195 7.656-6.602 14.328 1.579 6.687 7.103 11.093 12.345 9.859z"/><path d="m81.165 235.281s8.984 3.016 10.281 11.109c.984 6.188.125 9.094-3.156 12.156l40.422-12.672-38.398-13z"/></g></svg>