<?xml version="1.0" encoding="utf-8"?>
<!-- Generator: Adobe Illustrator 22.1.0, SVG Export Plug-In . SVG Version: 6.00 Build 0)  -->
<svg version="1.1" xmlns="http://www.w3.org/2000/svg" xmlns:xlink="http://www.w3.org/1999/xlink" x="0px" y="0px"
	 viewBox="0 0 283.1 282.4" style="enable-background:new 0 0 283.1 282.4;" xml:space="preserve">
<style type="text/css">
	.st0{fill:#A7A6A6;}
	.st1{fill:#FFFFFF;}
</style>
<g id="Z_Base_layer_130mm">
	<g>
		<path class="st0" d="M283.1,18.5c0-10.2-8.3-18.5-18.5-18.5H18.5C8.3,0,0,8.3,0,18.5V264c0,10.2,8.3,18.5,18.5,18.5h246.2
			c10.2,0,18.5-8.3,18.5-18.5V18.5z"/>
		<path class="st0" d="M283.1,18.5c0-10.2-8.3-18.5-18.5-18.5H18.5C8.3,0,0,8.3,0,18.5V264c0,10.2,8.3,18.5,18.5,18.5h246.2
			c10.2,0,18.5-8.3,18.5-18.5V18.5z"/>
	</g>
</g>
<g id="Canoeing">
	<g>
		<g>
			<path class="st1" d="M99.3,118.1c5.5,0,10-4.5,10-10.1c0-5.6-4.5-10.1-10-10.1c-5.5,0-10.1,4.5-10.1,10.1
				C89.2,113.6,93.7,118.1,99.3,118.1z"/>
			<path class="st1" d="M207.5,117c5.5-0.6,9.5-5.6,8.8-11.1c-0.6-5.5-5.6-9.5-11.1-8.8c-5.5,0.6-9.5,5.6-8.9,11.1
				C197,113.6,202,117.6,207.5,117z"/>
			<g>
				<path class="st1" d="M224.6,181.8C224.6,181.8,224.6,181.8,224.6,181.8c-0.2,0-0.5,0-0.7,0H224.6z"/>
				<path class="st1" d="M261,167c0-9.4-10.1-19.7-10.1-19.7s-10.4,3.8-31.2,7.4c4.2-10.1,10.8-26.5,11.4-28.5
					c0.8-2.9,1.6-6.5-1.8-6.1c-3.4,0.4-25.2,5.2-25.2,5.2s-11.4-12.7-14.3-9.8c-24.4,24-26.8,39.9-26.8,45.2
					c-8,0.4-16.4,0.6-25.5,0.6c-11.7,0-22.4-0.4-32.1-1.1c4.9-8.9,15.4-28,16.3-30.1c1.1-2.8,2.3-6.2-1.1-6.2
					c-3.4,0-25.6,2.3-25.6,2.3s-9.8-13.9-13.1-11.4c-21.2,16.6-28.3,29.7-30.7,37.1c-14.4-3.8-21.1-7.3-21.1-7.3s-8,13.1-8,23.1
					s4.1,14.2,26.1,14.2c6.4,0,11.6-2.3,12.5-8.4H61c0.9,6.1,6.1,8.4,12.5,8.4c6.4,0,11.6-2.3,12.5-8.5l0.2,0
					c0.8,6.1,6.1,8.5,12.5,8.5c6.4,0,11.6-2.3,12.5-8.5l0.2,0c0.9,6.1,6.1,8.5,12.5,8.5c6.4,0,11.7-2.3,12.5-8.5l0.2,0
					c0.8,6.2,6.1,8.5,12.5,8.5c6.4,0,11.7-2.4,12.5-8.5l0.3,0c0.8,6.2,6,8.5,12.4,8.5c6.4,0,11.7-2.3,12.5-8.5l0.2,0
					c0.8,6.2,6.1,8.5,12.5,8.5c6.4,0,11.6-2.3,12.5-8.5l0.3,0c0.8,6.2,6,8.5,12.4,8.5C255.2,181.7,261,180.5,261,167z M90.5,132.2
					c0,0,2.3,1.7,6.8,2.9c4.5,1.1,18.2-4.6,18.2-4.6s-7.8,13.9-8.5,14.2c-21,10.2-25-4.5-25-4.5L90.5,132.2z M74.5,156.5l-1.1-1.6
					c0,0,2.8-5.7,3.4-5.1c8.9,8.9,28.4,0.6,28.4,0.6l-5,9.3C90.6,158.8,82,157.8,74.5,156.5z M200.3,132c0,0,2.5,1.4,7.1,2.1
					c4.6,0.6,17.6-6.6,17.6-6.6s-6.2,14.7-6.9,15.1c-19.7,12.5-25.4-1.7-25.4-1.7L200.3,132z M188,158.9l-2-2.4c0,0,2.2-6,2.8-5.5
					c9.9,7.9,28.3-2.7,28.3-2.7l-2.9,7.2C206.6,156.8,197.9,158,188,158.9z"/>
			</g>
		</g>
	</g>
</g>
</svg>
