<svg enable-background="new 0 0 283.1 282.4" viewBox="0 0 283.1 282.4" xmlns="http://www.w3.org/2000/svg"><path d="m283.1 18.5c0-10.2-8.3-18.5-18.5-18.5h-246.1c-10.2 0-18.5 8.3-18.5 18.5v245.5c0 10.2 8.3 18.5 18.5 18.5h246.2c10.2 0 18.5-8.3 18.5-18.5v-245.5z" fill="#fff"/><path d="m283.1 18.5c0-10.2-8.3-18.5-18.5-18.5h-246.1c-10.2 0-18.5 8.3-18.5 18.5v245.5c0 10.2 8.3 18.5 18.5 18.5h246.2c10.2 0 18.5-8.3 18.5-18.5v-245.5z" fill="#a7a6a6"/><g fill="#fff"><path d="m142.3 89.9 49.7 6-6.5-6v-14.8l-8.7 5c0 .1-26.2-23.8-34.5 9.8z"/><path d="m142.7 94.9 37.7 6s-2.8 22.1-23 18.9c-20.2-3.3-14.7-24.9-14.7-24.9z"/><path d="m188.3 78.8v7.4l68.6 18.4v-39.6z"/><path d="m91.7 98.1 37.7 1.9v11l-36.8-.9z"/><path d="m205.3 188.3-54.7-54.3s-1.8-17.5-12.9-18.9c-11-1.4-51.1-2.8-66.3.9s-29 7.3-25.8 28.5c1.4 9.2 24.8 32.2 24.8 32.2h-44.1l4.1 15.7h57.9s7.1 6-5.5 6h-56.5l4.2 15.5h80.1c6.5 0 17.2-7.8 11-15.9-6.7-8.9-30.8-40-30.8-40s38.2-1.4 46-8.3l14.3 29 45.6 29.9 4.6-4.6-24-26.5 24.9 17.3z"/></g></svg>