<?xml version="1.0" encoding="utf-8"?>
<!-- Generator: Adobe Illustrator 22.1.0, SVG Export Plug-In . SVG Version: 6.00 Build 0)  -->
<svg version="1.1" xmlns="http://www.w3.org/2000/svg" xmlns:xlink="http://www.w3.org/1999/xlink" x="0px" y="0px"
	 viewBox="0 0 283.1 282.4" style="enable-background:new 0 0 283.1 282.4;" xml:space="preserve">
<style type="text/css">
	.st0{fill:#FFFFFF;}
	.st1{fill:#A7A6A6;}
</style>
<g id="Z_Base_layer_130mm">
	<g>
		<path class="st0" d="M283.1,18.5c0-10.2-8.3-18.5-18.5-18.5H18.5C8.3,0,0,8.3,0,18.5V264c0,10.2,8.3,18.5,18.5,18.5h246.2
			c10.2,0,18.5-8.3,18.5-18.5V18.5z"/>
		<path class="st1" d="M283.1,18.5c0-10.2-8.3-18.5-18.5-18.5H18.5C8.3,0,0,8.3,0,18.5V264c0,10.2,8.3,18.5,18.5,18.5h246.2
			c10.2,0,18.5-8.3,18.5-18.5V18.5z"/>
	</g>
</g>
<g id="Spelunking">
	<g>
		<g>
			<g>
				<path class="st0" d="M142.3,89.9l49.7,6l-6.5-6V75.1l-8.7,5C176.8,80.2,150.6,56.3,142.3,89.9z"/>
				<path class="st0" d="M142.7,94.9l37.7,6c0,0-2.8,22.1-23,18.9C137.2,116.5,142.7,94.9,142.7,94.9z"/>
				<polygon class="st0" points="188.3,78.8 188.3,86.2 256.9,104.6 256.9,65 				"/>
				<polygon class="st0" points="91.7,98.1 129.4,100 129.4,111 92.6,110.1 				"/>
				<path class="st0" d="M205.3,188.3L150.6,134c0,0-1.8-17.5-12.9-18.9c-11-1.4-51.1-2.8-66.3,0.9c-15.2,3.7-29,7.3-25.8,28.5
					c1.4,9.2,24.8,32.2,24.8,32.2H26.3l4.1,15.7h57.9c0,0,7.1,6-5.5,6c0,0-56.5,0-56.5,0l4.2,15.5c0,0,75.2,0,80.1,0
					c6.5,0,17.2-7.8,11-15.9c-6.7-8.9-30.8-40-30.8-40s38.2-1.4,46-8.3l14.3,29l45.6,29.9l4.6-4.6l-24-26.5l24.9,17.3L205.3,188.3z"
					/>
			</g>
		</g>
	</g>
</g>
</svg>
