<?xml version="1.0" encoding="utf-8"?>
<!-- Generator: Adobe Illustrator 22.1.0, SVG Export Plug-In . SVG Version: 6.00 Build 0)  -->
<svg version="1.1" xmlns="http://www.w3.org/2000/svg" xmlns:xlink="http://www.w3.org/1999/xlink" x="0px" y="0px"
	 viewBox="0 0 283.1 282.4" style="enable-background:new 0 0 283.1 282.4;" xml:space="preserve">
<style type="text/css">
	.st0{fill:#FFFFFF;}
	.st1{fill:#A7A6A6;}
</style>
<g id="Z_Base_layer_130mm">
	<g>
		<path class="st0" d="M283.1,18.5c0-10.2-8.3-18.5-18.5-18.5H18.5C8.3,0,0,8.3,0,18.5V264c0,10.2,8.3,18.5,18.5,18.5h246.2
			c10.2,0,18.5-8.3,18.5-18.5V18.5z"/>
		<path class="st1" d="M283.1,18.5c0-10.2-8.3-18.5-18.5-18.5H18.5C8.3,0,0,8.3,0,18.5V264c0,10.2,8.3,18.5,18.5,18.5h246.2
			c10.2,0,18.5-8.3,18.5-18.5V18.5z"/>
	</g>
</g>
<g id="Climbing">
	<g>
		<g>
			<g>
				<path class="st0" d="M86.5,64.6c0,0-12.9-18.4,5.1-28.6c18-10.1,29,1.9,29,1.9l11.1,4.6L86.5,64.6z"/>
				<path class="st0" d="M89.8,69.2c0,0,3.2,14.3,19.8,11.5c16.6-2.8,14.3-26.3,14.8-26.7C124.8,53.5,89.8,69.2,89.8,69.2z"/>
				<path class="st0" d="M192.5,169.6l-9.2,12.4l-39.6-22.6l-24,16.6l29.5,21.2l20.7,34.6l-7.8,11.5L134,213.9l-50.7-20.3v73.3H76
					v-77c0,0-19.4-5.1-9.2-36l-27.2-35l40.1-36.4c0,0,7.4-4.6,12.9-0.5c5.5,4.1,16.1,11.5,16.1,11.5l24.9-11.5l10.1-26.7V12h6.9v41
					l3.7,1.8L145.5,95l-27.2,18l-16.6,37.8c5.1,0,42.9-18.9,42.9-18.9L192.5,169.6z M68.6,138.3l3.7-27.2l-12.9,9.2L68.6,138.3z"/>
			</g>
			<path class="st0" d="M161.3,255.4l21.7-33.2l-6.9-18l35.5-50.7V131l-23.5-16.6V46.2l-29.5-20.7l1.6-13.4h103.9
				c0,0,3.9,0.4,3.9,3.2c0,2.8,0,248.6,0,248.6s-0.4,2.8-3.2,2.8c-29.2,0-30.7,0.1-100.1,0.1"/>
		</g>
	</g>
</g>
</svg>
