<svg enable-background="new 0 0 283.1 282.4" viewBox="0 0 283.1 282.4" xmlns="http://www.w3.org/2000/svg"><path d="m283.1 18.5c0-10.2-8.3-18.5-18.5-18.5h-246.1c-10.2 0-18.5 8.3-18.5 18.5v245.5c0 10.2 8.3 18.5 18.5 18.5h246.2c10.2 0 18.5-8.3 18.5-18.5v-245.5z" fill="#4e6086"/><path d="m283.1 18.5c0-10.2-8.3-18.5-18.5-18.5h-246.1c-10.2 0-18.5 8.3-18.5 18.5v245.5c0 10.2 8.3 18.5 18.5 18.5h246.2c10.2 0 18.5-8.3 18.5-18.5v-245.5z" fill="#4e6086"/><g fill="#fff"><path d="m252.5 206.9c0 21.6-17.5 39-39 39s-39-17.5-39-39c0-21.6 17.5-39 39-39s39 17.4 39 39zm-39-31.1c-17.2 0-31.2 14-31.2 31.2s14 31.2 31.2 31.2 31.2-14 31.2-31.2-14-31.2-31.2-31.2z"/><path d="m108.7 207c0 21.6-17.5 39-39 39-21.6 0-39-17.5-39-39 0-21.6 17.5-39 39-39 21.5-.1 39 17.4 39 39zm-39-31.1c-17.2 0-31.2 14-31.2 31.2s14 31.2 31.2 31.2 31.2-14 31.2-31.2-14-31.2-31.2-31.2z"/><path d="m165.1 121s16.2-.6 16.2 3.6-8.7 10.8-8.7 10.8l39.3 73.6s1.6 2.6 4 .8.6-4.4.6-4.4l-36.4-69s7.6-5.8 7.6-13.8-25-6.4-25-6.4z"/><path d="m144.7 144.4h33l4 7.6h-32z"/><path d="m184.7 157.2 4 7.4-43.2 34.8 1-10.8z"/><path d="m160.9 121.4h-9.8l-29.2-32.2s-6.8 26.2-11.6 30.2l29.6 25.4s6.8 5.4 6 13.4-5 50-5 50 7 .4 9.4 1.2 4.4 3.8 4.4 5.8v1.4h-27.8l1.8-55.2-44.4-33.4s-7-6 .6-26.8 14.4-35.4 14.4-35.4 9-11.6 19.6 1.4 42 54.2 42 54.2z"/><path d="m132.5 45.4c0 6.8-5.6 12.4-12.4 12.4-6.9 0-12.4-5.6-12.4-12.4s5.5-12.4 12.4-12.4c6.8 0 12.4 5.5 12.4 12.4z"/><path d="m78.7 133.6h7.8l22.9 17.4-3.2 1.3 18 31.2-1.2 33c-5.8-2.8-6-6.8-6-6.8s-38.1 0-44.8 0c-6 0-4.4-4.6-4.4-4.6l23.2-58.9s-.9-2.4-2.4-3.8c-1.5-1.3-9.9-1.7-9.9-1.7zm-4 69.7h41.2c.7-6.8 4.5-9.7 4.5-9.7l-22.8-38.9z"/></g></svg>