<?xml version="1.0" encoding="utf-8"?>
<!-- Generator: Adobe Illustrator 22.1.0, SVG Export Plug-In . SVG Version: 6.00 Build 0)  -->
<svg version="1.1" xmlns="http://www.w3.org/2000/svg" xmlns:xlink="http://www.w3.org/1999/xlink" x="0px" y="0px"
	 viewBox="0 0 283.1 282.4" style="enable-background:new 0 0 283.1 282.4;" xml:space="preserve">
<style type="text/css">
	.st0{fill:#4E6086;}
	.st1{fill:#FFFFFF;}
</style>
<g id="Z_Base_layer_130mm">
	<g>
		<path class="st0" d="M283.1,18.5c0-10.2-8.3-18.5-18.5-18.5H18.5C8.3,0,0,8.3,0,18.5V264c0,10.2,8.3,18.5,18.5,18.5h246.2
			c10.2,0,18.5-8.3,18.5-18.5V18.5z"/>
		<path class="st0" d="M283.1,18.5c0-10.2-8.3-18.5-18.5-18.5H18.5C8.3,0,0,8.3,0,18.5V264c0,10.2,8.3,18.5,18.5,18.5h246.2
			c10.2,0,18.5-8.3,18.5-18.5V18.5z"/>
	</g>
</g>
<g id="Cycling">
	<g>
		<g>
			<g>
				<path class="st1" d="M252.5,206.9c0,21.6-17.5,39-39,39s-39-17.5-39-39c0-21.6,17.5-39,39-39S252.5,185.3,252.5,206.9z
					 M213.5,175.8c-17.2,0-31.2,14-31.2,31.2c0,17.2,14,31.2,31.2,31.2c17.2,0,31.2-14,31.2-31.2
					C244.7,189.8,230.7,175.8,213.5,175.8z"/>
				<path class="st1" d="M108.7,207c0,21.6-17.5,39-39,39c-21.6,0-39-17.5-39-39c0-21.6,17.5-39,39-39
					C91.2,167.9,108.7,185.4,108.7,207z M69.7,175.9c-17.2,0-31.2,14-31.2,31.2c0,17.2,14,31.2,31.2,31.2s31.2-14,31.2-31.2
					C100.9,189.9,86.9,175.9,69.7,175.9z"/>
				<path class="st1" d="M165.1,121c0,0,16.2-0.6,16.2,3.6c0,4.2-8.7,10.8-8.7,10.8l39.3,73.6c0,0,1.6,2.6,4,0.8
					c2.4-1.8,0.6-4.4,0.6-4.4l-36.4-69c0,0,7.6-5.8,7.6-13.8s-25-6.4-25-6.4L165.1,121z"/>
				<polygon class="st1" points="144.7,144.4 177.7,144.4 181.7,152 149.7,152 				"/>
				<polygon class="st1" points="184.7,157.2 188.7,164.6 145.5,199.4 146.5,188.6 				"/>
				<path class="st1" d="M160.9,121.4h-9.8l-29.2-32.2c0,0-6.8,26.2-11.6,30.2l29.6,25.4c0,0,6.8,5.4,6,13.4c-0.8,8-5,50-5,50
					s7,0.4,9.4,1.2c2.4,0.8,4.4,3.8,4.4,5.8c0,2,0,1.4,0,1.4h-27.8l1.8-55.2L84.3,128c0,0-7-6,0.6-26.8
					c7.6-20.8,14.4-35.4,14.4-35.4s9-11.6,19.6,1.4C129.5,80.2,160.9,121.4,160.9,121.4z"/>
				<path class="st1" d="M132.5,45.4c0,6.8-5.6,12.4-12.4,12.4c-6.9,0-12.4-5.6-12.4-12.4S113.2,33,120.1,33
					C126.9,33,132.5,38.5,132.5,45.4z"/>
				<path class="st1" d="M78.7,133.6l7.8,0l22.9,17.4l-3.2,1.3l18,31.2l-1.2,33c-5.8-2.8-6-6.8-6-6.8s-38.1,0-44.8,0
					c-6,0-4.4-4.6-4.4-4.6L91,146.2c0,0-0.9-2.4-2.4-3.8c-1.5-1.3-9.9-1.7-9.9-1.7V133.6z M74.7,203.3h41.2c0.7-6.8,4.5-9.7,4.5-9.7
					l-22.8-38.9L74.7,203.3z"/>
			</g>
		</g>
	</g>
</g>
</svg>
