<?xml version="1.0" encoding="utf-8"?>
<!-- Generator: Adobe Illustrator 17.0.0, SVG Export Plug-In . SVG Version: 6.00 Build 0)  -->
<!DOCTYPE svg PUBLIC "-//W3C//DTD SVG 1.1//EN" "http://www.w3.org/Graphics/SVG/1.1/DTD/svg11.dtd">
<svg version="1.1" xmlns="http://www.w3.org/2000/svg" xmlns:xlink="http://www.w3.org/1999/xlink" x="0px" y="0px"
	 width="283.14px" height="282.438px" viewBox="0 0 283.14 282.438" enable-background="new 0 0 283.14 282.438"
	 xml:space="preserve">
<g id="Background">
	<path display="none" fill="#FFFFFF" d="M289.249,263.906c0,13.594-11.039,24.641-24.641,24.641H18.539
		c-13.602,0-24.633-11.047-24.633-24.641V18.516c0-13.594,11.031-24.625,24.633-24.625h246.07c13.602,0,24.641,11.031,24.641,24.625
		V263.906z M283.14,18.453C283.14,8.266,274.867,0,264.656,0H18.492C8.281,0,0,8.266,0,18.453v245.516
		c0,10.188,8.281,18.469,18.492,18.469h246.164c10.211,0,18.484-8.281,18.484-18.469V18.453z"/>
	<path fill="#A6A6A6" d="M283.14,18.453C283.14,8.266,274.867,0,264.656,0H18.492C8.281,0,0,8.266,0,18.453v245.516
		c0,10.188,8.281,18.469,18.492,18.469h246.164c10.211,0,18.484-8.281,18.484-18.469V18.453z"/>
	<path display="none" fill="none" stroke="#231F20" stroke-width="0.9992" d="M289.249,263.906
		c0,13.594-11.039,24.641-24.641,24.641H18.539c-13.602,0-24.633-11.047-24.633-24.641V18.516c0-13.594,11.031-24.625,24.633-24.625
		h246.07c13.602,0,24.641,11.031,24.641,24.625V263.906z"/>
</g>
<g id="Drinking_Water">
	<path fill="#FFFFFF" d="M86.451,171.238c-3.43,4.719-18.391,19.25-18.391,27.375c0,14.969,10.266,18.812,18.391,18.812
		c8.688,0,17.352-3.219,17.352-19.016C103.802,189.426,86.451,171.238,86.451,171.238z"/>
	<polygon fill="#FFFFFF" points="117.588,236.838 61.07,236.838 49.781,155.441 36.354,155.441 49.487,250.139 129.782,250.139 
		138.026,155.441 124.675,155.441 	"/>
	<path fill="#FFFFFF" d="M246.802,72.504l-22.227,22.234h-46.32V63.082H160.88V42.129h33.688v-9.828h-77.727v9.844h34.195v20.938
		h-17.094v31.656c-32.914,0-61.984,0.469-61.984,45.312c0,5.125,0,24.375,0,24.375h28.211c0-10.281-0.5-33.797,17.102-33.797
		c20.516,0,107.203,0,107.203,0l22.297,24.234L246.802,72.504z"/>
</g>
</svg>
