<svg enable-background="new 0 0 283.14 282.438" height="282.438" viewBox="0 0 283.14 282.438" width="283.14" xmlns="http://www.w3.org/2000/svg"><path d="m283.14 18.453c0-10.187-8.273-18.453-18.484-18.453h-246.164c-10.211 0-18.492 8.266-18.492 18.453v245.516c0 10.188 8.281 18.469 18.492 18.469h246.164c10.211 0 18.484-8.281 18.484-18.469z" fill="#4d5f85"/><g fill="#fff"><path d="m86.451 171.238c-3.43 4.719-18.391 19.25-18.391 27.375 0 14.969 10.266 18.812 18.391 18.812 8.688 0 17.352-3.219 17.352-19.016-.001-8.983-17.352-27.171-17.352-27.171z"/><path d="m117.588 236.838h-56.518l-11.289-81.397h-13.427l13.133 94.698h80.295l8.244-94.698h-13.351z"/><path d="m246.802 72.504-22.227 22.234h-46.32v-31.656h-17.375v-20.953h33.688v-9.828h-77.727v9.844h34.195v20.938h-17.094v31.656c-32.914 0-61.984.469-61.984 45.312v24.375h28.211c0-10.281-.5-33.797 17.102-33.797h107.203l22.297 24.234z"/></g></svg>