<svg enable-background="new 0 0 283.141 282.437" height="282.437" viewBox="0 0 283.141 282.437" width="283.141" xmlns="http://www.w3.org/2000/svg"><path d="m283.141 18.453c0-10.187-8.274-18.453-18.485-18.453h-246.164c-10.211 0-18.492 8.266-18.492 18.453v245.508c0 10.195 8.281 18.477 18.492 18.477h246.164c10.211 0 18.484-8.281 18.484-18.477v-245.508z" fill="#a6a6a6"/><path clip-rule="evenodd" d="m194.164 97.266c10.742-7.922 47.891-35.609 85.328-44.938l6.086-2.414.836-23.32-7.219 1.406c-.344.094-.68.156-1.016.25-24.781 5.875-61.469 19.422-102.547 50.531-19.898-5.312-49.148-20.953-93.336 21.984-11.102-3.688-15.445-3.422-15.445-3.422l-16.289 18.391 22.469 19.906c-1.992 1.5-3.938 3.172-5.719 5.203l-20.383 23c-8.992 10.156-11.141 22.953-4.797 28.578 6.352 5.625 18.797 1.938 27.797-8.219l20.375-22.984c1.789-2.031 3.226-4.156 4.461-6.297l32.906 29.141c-.375.375-.75.672-1.094 1.078l-24.453 27.594c-8.992 10.141-11.148 22.953-4.789 28.578 6.344 5.625 18.773 1.953 27.797-8.219l24.445-27.578c.336-.391.609-.812.938-1.203l19.617 17.359 17.312-19.547-7.422-14.781c.001.001 47.033-32.234 14.142-90.077" fill="#fff" fill-rule="evenodd"/></svg>