<svg enable-background="new 0 0 283.1 282.4" viewBox="0 0 283.1 282.4" xmlns="http://www.w3.org/2000/svg"><path d="m283.1 18.5c0-10.2-8.3-18.5-18.5-18.5h-246.1c-10.2 0-18.5 8.3-18.5 18.5v245.5c0 10.2 8.3 18.5 18.5 18.5h246.2c10.2 0 18.5-8.3 18.5-18.5v-245.5z" fill="#fff"/><path d="m283.1 18.5c0-10.2-8.3-18.5-18.5-18.5h-246.1c-10.2 0-18.5 8.3-18.5 18.5v245.5c0 10.2 8.3 18.5 18.5 18.5h246.2c10.2 0 18.5-8.3 18.5-18.5v-245.5z" fill="#a7a6a6"/><path d="m233.6 81.7v19.9.1c0 4.1-3.2 7.5-7.3 7.5s-7.6-3.3-7.6-7.5v-3.8" fill="none" stroke="#fff" stroke-width="6.1254"/><path d="m72.9 146.7c-10.2.2-21.2-12-32.6-17.3-2.9-1.4-5 1.4-3.3 3.2 6.8 7.2 14 20.1 14 25.1v.3.3c0 5-7.2 17.9-14 25.1-1.7 1.8.4 4.6 3.3 3.3 11.4-5.3 22.4-17.4 32.6-17.3h.1c2.5 0 2.9 0 4.4.7 48.5 35.7 122.3 35 169.3-3.9-1.5-1.6-6.1-2.6-6.1-7.8 0-4.3 4.1-6.2 6.1-7.8-23.5-20.5-53.9-29.2-83.7-30.1-30.5-1-58.4 15.9-86.5 25.6-1.2.4-2.4.6-3.6.6" fill="#fff"/><path d="m220.2 152.9c2.8 0 5.1-2.3 5.1-5.1s-2.3-5.1-5.1-5.1-5.1 2.3-5.1 5.1c-.1 2.8 2.2 5.1 5.1 5.1z" fill="#a7a6a6"/><path d="m233.7 82.5c7 0 12.7-5.7 12.7-12.7s-5.7-12.8-12.7-12.8-12.8 5.7-12.8 12.8c0 7 5.7 12.7 12.8 12.7z" fill="#fff"/><path d="m233.6 75.9c3.4 0 6.1-2.7 6.1-6.1s-2.7-6.1-6.1-6.1-6.1 2.7-6.1 6.1c0 3.3 2.7 6.1 6.1 6.1z" fill="#a7a6a6"/><path d="m233.6 23.4v34.5" fill="none" stroke="#fff" stroke-width="6.1254"/></svg>