<?xml version="1.0" encoding="utf-8"?>
<!-- Generator: Adobe Illustrator 22.1.0, SVG Export Plug-In . SVG Version: 6.00 Build 0)  -->
<svg version="1.1" xmlns="http://www.w3.org/2000/svg" xmlns:xlink="http://www.w3.org/1999/xlink" x="0px" y="0px"
	 viewBox="0 0 283.1 282.4" style="enable-background:new 0 0 283.1 282.4;" xml:space="preserve">
<style type="text/css">
	.st0{fill:#FFFFFF;}
	.st1{fill:#4E6086;}
	.st2{fill:none;stroke:#FFFFFF;stroke-width:6.1254;}
</style>
<g id="Z_Base_layer_130mm">
	<g>
		<path class="st0" d="M283.1,18.5c0-10.2-8.3-18.5-18.5-18.5H18.5C8.3,0,0,8.3,0,18.5V264c0,10.2,8.3,18.5,18.5,18.5h246.2
			c10.2,0,18.5-8.3,18.5-18.5V18.5z"/>
		<path class="st1" d="M283.1,18.5c0-10.2-8.3-18.5-18.5-18.5H18.5C8.3,0,0,8.3,0,18.5V264c0,10.2,8.3,18.5,18.5,18.5h246.2
			c10.2,0,18.5-8.3,18.5-18.5V18.5z"/>
	</g>
</g>
<g id="Fishing">
	<g>
		<g>
			<g>
				<path class="st2" d="M233.6,81.7v19.9v0.1c0,4.1-3.2,7.5-7.3,7.5c-4.1,0-7.6-3.3-7.6-7.5v-3.8"/>
				<path class="st0" d="M72.9,146.7c-10.2,0.2-21.2-12-32.6-17.3c-2.9-1.4-5,1.4-3.3,3.2c6.8,7.2,14,20.1,14,25.1
					c0,0.1,0,0.2,0,0.3V158c0,0.1,0,0.2,0,0.3c0,5-7.2,17.9-14,25.1c-1.7,1.8,0.4,4.6,3.3,3.3c11.4-5.3,22.4-17.4,32.6-17.3H73
					c2.5,0,2.9,0,4.4,0.7c48.5,35.7,122.3,35,169.3-3.9c-1.5-1.6-6.1-2.6-6.1-7.8c0-4.3,4.1-6.2,6.1-7.8
					c-23.5-20.5-53.9-29.2-83.7-30.1c-30.5-1-58.4,15.9-86.5,25.6C75.3,146.5,74.1,146.7,72.9,146.7"/>
				<path class="st1" d="M220.2,152.9c2.8,0,5.1-2.3,5.1-5.1c0-2.8-2.3-5.1-5.1-5.1c-2.8,0-5.1,2.3-5.1,5.1
					C215,150.6,217.3,152.9,220.2,152.9z"/>
				<path class="st0" d="M233.7,82.5c7,0,12.7-5.7,12.7-12.7c0-7-5.7-12.8-12.7-12.8c-7,0-12.8,5.7-12.8,12.8
					C220.9,76.8,226.6,82.5,233.7,82.5z"/>
				<path class="st1" d="M233.6,75.9c3.4,0,6.1-2.7,6.1-6.1c0-3.4-2.7-6.1-6.1-6.1c-3.4,0-6.1,2.7-6.1,6.1
					C227.5,73.1,230.2,75.9,233.6,75.9z"/>
				<line class="st2" x1="233.6" y1="23.4" x2="233.6" y2="57.9"/>
			</g>
		</g>
	</g>
</g>
</svg>
