<?xml version="1.0" encoding="utf-8"?>
<!-- Generator: Adobe Illustrator 17.0.0, SVG Export Plug-In . SVG Version: 6.00 Build 0)  -->
<!DOCTYPE svg PUBLIC "-//W3C//DTD SVG 1.1//EN" "http://www.w3.org/Graphics/SVG/1.1/DTD/svg11.dtd">
<svg version="1.1" xmlns="http://www.w3.org/2000/svg" xmlns:xlink="http://www.w3.org/1999/xlink" x="0px" y="0px"
	 width="283.141px" height="282.438px" viewBox="0 0 283.141 282.438" enable-background="new 0 0 283.141 282.438"
	 xml:space="preserve">
<g id="Background">
	<path display="none" fill="#FFFFFF" d="M289.25,263.906c0,13.594-11.039,24.641-24.641,24.641H18.539
		c-13.602,0-24.633-11.047-24.633-24.641V18.516c0-13.594,11.031-24.625,24.633-24.625h246.07c13.602,0,24.641,11.031,24.641,24.625
		V263.906z M283.141,18.453C283.141,8.266,274.867,0,264.656,0H18.492C8.281,0,0,8.266,0,18.453v245.516
		c0,10.188,8.281,18.469,18.492,18.469h246.164c10.211,0,18.484-8.281,18.484-18.469V18.453z"/>
	<path fill="#4D5F85" d="M283.141,18.453C283.141,8.266,274.867,0,264.656,0H18.492C8.281,0,0,8.266,0,18.453v245.516
		c0,10.188,8.281,18.469,18.492,18.469h246.164c10.211,0,18.484-8.281,18.484-18.469V18.453z"/>
	<path display="none" fill="none" stroke="#231F20" stroke-width="0.9992" d="M289.25,263.906c0,13.594-11.039,24.641-24.641,24.641
		H18.539c-13.602,0-24.633-11.047-24.633-24.641V18.516c0-13.594,11.031-24.625,24.633-24.625h246.07
		c13.602,0,24.641,11.031,24.641,24.625V263.906z"/>
</g>
<g id="Shelter">
	<polygon fill="#FFFFFF" points="141.581,255.68 220.099,255.68 220.099,141.614 241.078,147.192 241.078,130.458 142.287,18.98 
		42.078,130.458 42.078,147.192 63.063,141.614 63.063,255.68 	"/>
	<rect x="94.023" y="145.135" fill="#4D5F85" width="96.89" height="57.347"/>
	<g>
		<path fill="#FFFFFF" d="M154.664,247.207c0,2.904-2.357,5.262-5.266,5.262c-2.904,0-5.262-2.357-5.262-5.262v-16.353h-5.356
			v16.051c0,2.914-2.357,5.262-5.266,5.262c-2.904,0-5.262-2.348-5.262-5.262v-51.421c0,0.113-0.156-1.047-1.664-1.103
			c-1.212-0.047-1.669,1.16-1.669,1.16c0,1.32,0,1.311,0,31.221c0,0,0.165,2.951-4.111,2.951c-4.606,0-4.597-3.281-4.597-3.281
			v-40.763c0,0-0.057-8.204,9.882-8.204c6.242,0,32.494,0,32.494,0s8.359,0.66,8.359,8.222c0,7.553,0,40.744,0,40.744
			s-0.278,2.291-4.182,2.291c-4.389,0-4.663-2.291-4.663-2.291v-30.825c0,0-0.217-1.226-1.763-1.226
			c-0.764,0-1.674,0.801-1.674,1.396V247.207z"/>
		<path fill="#FFFFFF" d="M141.939,174.495c5.893,0,10.669-4.771,10.669-10.674c0-5.893-4.776-10.674-10.669-10.674
			c-5.898,0-10.674,4.781-10.674,10.674C131.265,169.723,136.041,174.495,141.939,174.495z"/>
	</g>
</g>
</svg>
