<?xml version="1.0" encoding="utf-8"?>
<!-- Generator: Adobe Illustrator 22.1.0, SVG Export Plug-In . SVG Version: 6.00 Build 0)  -->
<svg version="1.1" id="Group_Camping" xmlns="http://www.w3.org/2000/svg" xmlns:xlink="http://www.w3.org/1999/xlink" x="0px"
	 y="0px" viewBox="0 0 283.1 282.4" style="enable-background:new 0 0 283.1 282.4;" xml:space="preserve">
<style type="text/css">
	.st0{fill:#4E6086;}
	.st1{fill:#A7A6A6;}
	.st2{fill:#FFFFFF;}
</style>
<g>
	<path class="st0" d="M283.1,18.5c0-10.2-8.3-18.5-18.5-18.5H18.5C8.3,0,0,8.3,0,18.5V264c0,10.2,8.3,18.5,18.5,18.5h246.2
		c10.2,0,18.5-8.3,18.5-18.5V18.5z"/>
	<path class="st1" d="M283.1,18.5c0-10.2-8.3-18.5-18.5-18.5H18.5C8.3,0,0,8.3,0,18.5V264c0,10.2,8.3,18.5,18.5,18.5h246.2
		c10.2,0,18.5-8.3,18.5-18.5V18.5z"/>
</g>
<g>
	<g>
		<g>
			<polygon class="st2" points="16.9,232.5 133,232.5 133,221.8 116.5,221.8 75.1,149.9 33.5,221.8 16.9,221.8 			"/>
			<polygon class="st1" points="75.1,187 56.8,221.8 93,221.8 			"/>
		</g>
		<g>
			<polygon class="st2" points="150.2,232.5 266.3,232.5 266.3,221.8 249.8,221.8 208.4,149.9 166.8,221.8 150.2,221.8 			"/>
			<polygon class="st1" points="208.4,187 190.1,221.8 226.3,221.8 			"/>
		</g>
		<g>
			<polygon class="st2" points="83.4,132.5 199.5,132.5 199.5,121.8 183,121.8 141.6,49.9 100,121.8 83.4,121.8 			"/>
			<polygon class="st1" points="141.6,87 123.4,121.8 159.5,121.8 			"/>
		</g>
	</g>
</g>
</svg>
