<svg enable-background="new 0 0 283.1 282.4" viewBox="0 0 283.1 282.4" xmlns="http://www.w3.org/2000/svg"><path d="m283.1 18.5c0-10.2-8.3-18.5-18.5-18.5h-246.1c-10.2 0-18.5 8.3-18.5 18.5v245.5c0 10.2 8.3 18.5 18.5 18.5h246.2c10.2 0 18.5-8.3 18.5-18.5v-245.5z" fill="#a6a6a6"/><g fill="#fff"><path d="m107.1 38c0-6.7 5.5-12.2 12.2-12.2s12.2 5.5 12.2 12.2-5.5 12.2-12.2 12.2-12.2-5.4-12.2-12.2z"/><path d="m47.4 199.5c-.7 6.9-.5 49.2-.8 53.8h8l2.6-49.9s15.5-20.6 16-25.5-2.3 15.6-5.2 20.4l14.2 55h9l-11.7-53.6s16.1-12.6 17-24.8l30.1 3.4 5.4 18h9.2l-1.5-15.6 9.3-1-4.2 73.6h10.2l9.9-65.5 16.2 65.5h10.2l-13.8-74.6s14-21.9 14.6-32.6c.5-8.3 11.8-19.4 11.9-19.4 23.4 7.6 36.3-3.8 36.3-3.8l-6.5-2.8s-9 7.6-26.3 1.2l8.7-8.3 16.5 6.7 8.3 3.7 3.3 1.8 7.2-8.9c-10.2-10.6-21.7-20.1-28.6-33.3-1.2-2.3 1.8-5 3.2-7.6.9-1.7-.9-3.7-1.6-3.4-19.7 9.2-34.6 23.2-53.3 35.7l-5 3-1 1.6c-8.2 9.1-22.1 10-31.8 6.8-4.5-1.5-2.4-11.3-2.5-17.8l.7-4.1 14.1 5.1 3.2-2.2 16.8 10.3.8.7 4.9-3-.7-.6s-38.3-22.8-39.1-24.5c-3.6-7.7-3.9-16.9-7.3-24.7-2.1-4.9-13.2-7.6-15.6-1.8-8.3 19.6-6.1 42.9-4.1 61.9-16.3 1.1-29-11.3-45.5-3.9-12.8 5.8-29.8 12.5-27.3 26.8 3.9 22 1.8 43.8 9.8 64.5 1.6-2.8 6.1-3.8 6.1-7.7l1.9-6.4.5-29.7c-.5 1.5 4.3 7.2 3.8 7.7s-4.3 22-4.3 22"/></g></svg>