<svg enable-background="new 0 0 283.14 282.437" height="282.437" viewBox="0 0 283.14 282.437" width="283.14" xmlns="http://www.w3.org/2000/svg"><path d="m283.14 18.461c0-10.192-8.273-18.461-18.484-18.461h-246.164c-10.211 0-18.492 8.269-18.492 18.461v245.503c0 10.195 8.281 18.473 18.492 18.473h246.164c10.211 0 18.484-8.277 18.484-18.473z" fill="#4d5f85"/><g fill="#fff"><path d="m125.408 83.449c8.047 5.422 19.836 2.172 26.336-7.246 6.484-9.418 5.242-21.453-2.805-26.871-8.055-5.418-19.844-2.18-26.336 7.25-6.508 9.426-5.25 21.453 2.805 26.867z"/><path d="m55.485 141.785 46.172-39.238 11.078-13.688 26.782 2.738s3.695 9.125 7.391 6.387c3.695-2.734 42.476-35.586 42.476-35.586l14.773 10.039-73.875 83.949 12.93 98.554h-22.165s-13.852-69.352-16.617-62.965c-2.773 6.387-35.094 62.965-35.094 62.965h-21.241l39.711-114.98-28.625 17.34z"/><path d="m216.455 23.18c-1.203.359-6.016 4.707-8.781 8.484-5.703 7.797-5.43 17.691.602 22.109 6.039 4.418 15.555 1.68 21.258-6.109 2.758-3.77 5.75-9.422 5.516-10.887l-6.336-4.625-2.297 3.137c.805 2.605.195 5.93-1.867 8.746-3.07 4.195-8.203 5.668-11.453 3.289s-3.391-7.707-.32-11.902c2.062-2.824 5.055-4.414 7.789-4.43l2.32-3.172z"/></g></svg>