<?xml version="1.0" encoding="utf-8"?>
<!-- Generator: Adobe Illustrator 22.1.0, SVG Export Plug-In . SVG Version: 6.00 Build 0)  -->
<svg version="1.1" xmlns="http://www.w3.org/2000/svg" xmlns:xlink="http://www.w3.org/1999/xlink" x="0px" y="0px"
	 viewBox="0 0 283.1 282.4" style="enable-background:new 0 0 283.1 282.4;" xml:space="preserve">
<style type="text/css">
	.st0{display:none;fill:#FFFFFF;}
	.st1{fill:#A6A6A6;}
	.st2{display:none;fill:none;stroke:#231F20;stroke-width:0.9992;}
	.st3{fill:#FFFFFF;}
</style>
<g id="Background">
	<path class="st0" d="M289.2,263.9c0,13.6-11,24.6-24.6,24.6H18.5c-13.6,0-24.6-11-24.6-24.6V18.5c0-13.6,11-24.6,24.6-24.6h246.1
		c13.6,0,24.6,11,24.6,24.6V263.9z M283.1,18.5c0-10.2-8.3-18.5-18.5-18.5H18.5C8.3,0,0,8.3,0,18.5V264c0,10.2,8.3,18.5,18.5,18.5
		h246.2c10.2,0,18.5-8.3,18.5-18.5V18.5z"/>
	<path class="st1" d="M283.1,18.5c0-10.2-8.3-18.5-18.5-18.5H18.5C8.3,0,0,8.3,0,18.5V264c0,10.2,8.3,18.5,18.5,18.5h246.2
		c10.2,0,18.5-8.3,18.5-18.5V18.5z"/>
	<path class="st2" d="M289.2,263.9c0,13.6-11,24.6-24.6,24.6H18.5c-13.6,0-24.6-11-24.6-24.6V18.5c0-13.6,11-24.6,24.6-24.6h246.1
		c13.6,0,24.6,11,24.6,24.6V263.9z"/>
</g>
<g id="Horseback_riding">
	<path class="st3" d="M107.1,38c0-6.7,5.5-12.2,12.2-12.2s12.2,5.5,12.2,12.2c0,6.7-5.5,12.2-12.2,12.2S107.1,44.8,107.1,38z"/>
	<path class="st3" d="M47.4,199.5c-0.7,6.9-0.5,49.2-0.8,53.8h8l2.6-49.9c0,0,15.5-20.6,16-25.5c0.5-4.9-2.3,15.6-5.2,20.4l14.2,55
		h9l-11.7-53.6c0,0,16.1-12.6,17-24.8l30.1,3.4l5.4,18h9.2l-1.5-15.6l9.3-1l-4.2,73.6h10.2l9.9-65.5l16.2,65.5h10.2l-13.8-74.6
		c0,0,14-21.9,14.6-32.6c0.5-8.3,11.8-19.4,11.9-19.4c23.4,7.6,36.3-3.8,36.3-3.8l-6.5-2.8c0,0-9,7.6-26.3,1.2l8.7-8.3l16.5,6.7
		l8.3,3.7l3.3,1.8l7.2-8.9c-10.2-10.6-21.7-20.1-28.6-33.3c-1.2-2.3,1.8-5,3.2-7.6c0.9-1.7-0.9-3.7-1.6-3.4
		c-19.7,9.2-34.6,23.2-53.3,35.7l-5,3l-1,1.6c-8.2,9.1-22.1,10-31.8,6.8c-4.5-1.5-2.4-11.3-2.5-17.8l0.7-4.1l14.1,5.1l3.2-2.2
		l16.8,10.3l0.8,0.7l4.9-3l-0.7-0.6c0,0-38.3-22.8-39.1-24.5c-3.6-7.7-3.9-16.9-7.3-24.7c-2.1-4.9-13.2-7.6-15.6-1.8
		c-8.3,19.6-6.1,42.9-4.1,61.9c-16.3,1.1-29-11.3-45.5-3.9c-12.8,5.8-29.8,12.5-27.3,26.8c3.9,22,1.8,43.8,9.8,64.5
		c1.6-2.8,6.1-3.8,6.1-7.7l1.9-6.4l0.5-29.7c-0.5,1.5,4.3,7.2,3.8,7.7c-0.5,0.5-4.3,22-4.3,22"/>
</g>
</svg>
