<?xml version="1.0" encoding="utf-8"?>
<!-- Generator: Adobe Illustrator 22.1.0, SVG Export Plug-In . SVG Version: 6.00 Build 0)  -->
<svg version="1.1" xmlns="http://www.w3.org/2000/svg" xmlns:xlink="http://www.w3.org/1999/xlink" x="0px" y="0px"
	 viewBox="0 0 283.1 282.4" style="enable-background:new 0 0 283.1 282.4;" xml:space="preserve">
<style type="text/css">
	.st0{fill:#FFFFFF;}
	.st1{fill:#4E6086;}
</style>
<g id="Z_Base_layer_130mm">
	<g>
		<path class="st0" d="M283.1,18.5c0-10.2-8.3-18.5-18.5-18.5H18.5C8.3,0,0,8.3,0,18.5V264c0,10.2,8.3,18.5,18.5,18.5h246.2
			c10.2,0,18.5-8.3,18.5-18.5V18.5z"/>
		<path class="st1" d="M283.1,18.5c0-10.2-8.3-18.5-18.5-18.5H18.5C8.3,0,0,8.3,0,18.5V264c0,10.2,8.3,18.5,18.5,18.5h246.2
			c10.2,0,18.5-8.3,18.5-18.5V18.5z"/>
	</g>
</g>
<g id="Viewpoint_1">
	<g>
		<g>
			<polygon class="st0" points="202.7,124.9 213.3,113.6 221.2,120.6 225.1,117.1 231.8,123.1 233.2,124.5 233.2,240 202.7,240 			
				"/>
		</g>
		<g>
			<polygon class="st0" points="47.8,124.9 58.2,113.6 66,120.6 70,117.1 76.9,123.1 78,124.5 78,240 47.8,240 			"/>
		</g>
		<g>
			<path class="st0" d="M222.3,121.9v118H58.4v-118L78,141.5v78.8h124.7v-78.8L222.3,121.9z"/>
		</g>
		<g>
			<path class="st0" d="M84,166.7c-4.6,0-9-1.6-12.2-4.6c-2.5-2.3-5.5-6.7-5.5-13.8h6.9c0,3.9,1.2,6.9,3.2,8.8
				c1.8,1.8,4.4,2.8,7.4,2.8c6,0,12.4-4.1,12.4-11.5h6.9c0,7.1,5.5,10.8,10.8,10.8c2.5,0,4.8-0.9,6.7-2.3c1.8-1.8,3-4.4,3-7.6h6.9
				c0,3.2,1.2,6,3.2,8.1c5.3,4.8,17.1,3.2,17.1-8.1h6.9c0,6.9,5.3,10.6,10.4,10.6c2.5,0,5.1-0.9,6.7-2.5c2.1-1.8,3-4.8,3-8.5h6.9
				c0,3.2,1.2,5.5,3.2,7.4c1.8,1.6,4.6,2.5,7.8,2.5c5.5,0,11.5-3,11.5-8.5h6.9c0,10.1-9.5,15.4-18.4,15.4c-4.6,0-9-1.4-12.2-3.9
				c-0.7-0.5-1.4-1.2-1.8-1.8c-0.7,1.2-1.4,1.8-2.1,2.5c-3,3-7.1,4.6-11.5,4.6c-5.1,0-10.4-2.3-13.8-6.5c-3.2,4.4-8.3,6.7-13.6,6.7
				c-4.4,0-8.5-1.6-11.8-4.4c-0.7-0.7-1.4-1.4-1.8-2.1c-0.5,0.7-1.2,1.4-1.6,1.8c-3,2.8-6.9,4.1-11.3,4.1c-5.3,0-10.8-2.3-14.3-6.9
				C96.2,163.9,90,166.7,84,166.7z"/>
		</g>
		<g>
			<path class="st0" d="M84,192.5c-4.6,0-9-1.6-12.2-4.6c-2.5-2.3-5.5-6.7-5.5-13.8h6.9c0,3.9,1.2,6.9,3.2,8.8
				c1.8,1.8,4.4,2.8,7.4,2.8c6,0,12.4-4.1,12.4-11.5h6.9c0,7.1,5.5,10.8,10.8,10.8c2.5,0,4.8-0.9,6.7-2.3c1.8-1.8,3-4.4,3-7.6h6.9
				c0,3.2,1.2,6,3.2,8.1c5.3,4.8,17.1,3.2,17.1-8.1h6.9c0,6.9,5.3,10.6,10.4,10.6c2.5,0,5.1-0.9,6.7-2.5c2.1-1.8,3-4.8,3-8.5h6.9
				c0,3.2,1.2,5.5,3.2,7.4c1.8,1.6,4.6,2.5,7.8,2.5c5.5,0,11.5-3,11.5-8.5h6.9c0,10.1-9.5,15.4-18.4,15.4c-4.6,0-9-1.4-12.2-3.9
				c-0.7-0.5-1.4-1.2-1.8-1.8c-0.7,1.2-1.4,1.8-2.1,2.5c-3,3-7.1,4.6-11.5,4.6c-5.1,0-10.4-2.3-13.8-6.5c-3.2,4.4-8.3,6.7-13.6,6.7
				c-4.4,0-8.5-1.6-11.8-4.4c-0.7-0.7-1.4-1.4-1.8-2.1c-0.5,0.7-1.2,1.4-1.6,1.8c-3,2.8-6.9,4.1-11.3,4.1c-5.3,0-10.8-2.3-14.3-6.9
				C96.2,189.7,90,192.5,84,192.5z"/>
		</g>
		<g>
			<path class="st0" d="M84,216c-4.6,0-9-1.6-12.2-4.6c-2.5-2.3-5.5-6.7-5.5-13.8h6.9c0,3.9,1.2,6.9,3.2,8.8
				c1.8,1.8,4.4,2.8,7.4,2.8c6,0,12.4-4.1,12.4-11.5h6.9c0,7.1,5.5,10.8,10.8,10.8c2.5,0,4.8-0.9,6.7-2.3c1.8-1.8,3-4.4,3-7.6h6.9
				c0,3.2,1.2,6,3.2,8.1c5.3,4.8,17.1,3.2,17.1-8.1h6.9c0,6.9,5.3,10.6,10.4,10.6c2.5,0,5.1-0.9,6.7-2.5c2.1-1.8,3-4.8,3-8.5h6.9
				c0,3.2,1.2,5.5,3.2,7.4c1.8,1.6,4.6,2.5,7.8,2.5c5.5,0,11.5-3,11.5-8.5h6.9c0,10.1-9.5,15.4-18.4,15.4c-4.6,0-9-1.4-12.2-3.9
				c-0.7-0.5-1.4-1.2-1.8-1.8c-0.7,1.2-1.4,1.8-2.1,2.5c-3,3-7.1,4.6-11.5,4.6c-5.1,0-10.4-2.3-13.8-6.5c-3.2,4.4-8.3,6.7-13.6,6.7
				c-4.4,0-8.5-1.6-11.8-4.4c-0.7-0.7-1.4-1.4-1.8-2.1c-0.5,0.7-1.2,1.4-1.6,1.8c-3,2.8-6.9,4.1-11.3,4.1c-5.3,0-10.8-2.3-14.3-6.9
				C96.2,213.2,90,216,84,216z"/>
		</g>
		<g>
			<path class="st0" d="M96.6,91.5l-3.6-5.9c11.8-7.2,9-12.7,4.7-21C93.3,56,87.3,44.2,106,33l3.6,5.9c-13.1,7.9-10.2,13.7-5.7,22.5
				C108.1,69.6,113.9,80.9,96.6,91.5z"/>
		</g>
		<g>
			<path class="st0" d="M137.9,91.5l-3.6-5.9c11.9-7.2,9.1-12.7,4.8-21.1c-4.4-8.5-10.4-20.2,8.1-31.5l3.6,5.9
				c-13,7.9-10,13.7-5.5,22.4C149.5,69.6,155.4,80.9,137.9,91.5z"/>
		</g>
		<g>
			<path class="st0" d="M179.4,91.5l-3.6-5.9c11.9-7.2,9.1-12.7,4.8-21.1c-4.4-8.5-10.4-20.2,8.1-31.5l3.6,5.9
				c-13,7.9-10,13.7-5.5,22.4C191,69.6,196.9,80.9,179.4,91.5z"/>
		</g>
		<g>
			<circle class="st0" cx="115.4" cy="115" r="10.4"/>
			<path class="st0" d="M120.9,161.1h-11.3c-5.3,0-9.7-4.4-9.7-9.7v-11.3c0-5.3,4.4-9.7,9.7-9.7h11.3c5.3,0,9.7,4.4,9.7,9.7v11.3
				C130.6,156.7,126.2,161.1,120.9,161.1z"/>
			<path class="st0" d="M116.8,139h-3c-1.4,0-2.5-3-2.5-6.7v-7.8c0-3.7,1.2-6.7,2.5-6.7h3c1.4,0,2.5,3,2.5,6.7v7.8
				C119.3,136,118.1,139,116.8,139z"/>
		</g>
		<g>
			<circle class="st0" cx="166.1" cy="115" r="10.4"/>
			<path class="st0" d="M171.6,161.1h-11.3c-5.3,0-9.7-4.4-9.7-9.7v-11.3c0-5.3,4.4-9.7,9.7-9.7h11.3c5.3,0,9.7,4.4,9.7,9.7v11.3
				C181.3,156.7,176.9,161.1,171.6,161.1z"/>
			<path class="st0" d="M167.5,139h-3c-1.4,0-2.5-3-2.5-6.7v-7.8c0-3.7,1.2-6.7,2.5-6.7h3c1.4,0,2.5,3,2.5,6.7v7.8
				C170,136,168.9,139,167.5,139z"/>
		</g>
		<polygon class="st0" points="60.3,209.3 60.3,230.1 218,230.1 218,202.4 195.8,214.4 181.3,202.4 170,212.8 153.4,202.4 
			141,215.8 125.7,202.4 111.4,213.2 100.2,202.4 86.6,213.9 		"/>
	</g>
</g>
</svg>
