<svg enable-background="new 0 0 283.1 282.4" viewBox="0 0 283.1 282.4" xmlns="http://www.w3.org/2000/svg"><path d="m283.1 18.5c0-10.2-8.3-18.5-18.5-18.5h-246.1c-10.2 0-18.5 8.3-18.5 18.5v245.5c0 10.2 8.3 18.5 18.5 18.5h246.2c10.2 0 18.5-8.3 18.5-18.5v-245.5z" fill="#fff"/><path d="m283.1 18.5c0-10.2-8.3-18.5-18.5-18.5h-246.1c-10.2 0-18.5 8.3-18.5 18.5v245.5c0 10.2 8.3 18.5 18.5 18.5h246.2c10.2 0 18.5-8.3 18.5-18.5v-245.5z" fill="#4e6086"/><g fill="#fff"><path d="m202.7 124.9 10.6-11.3 7.9 7 3.9-3.5 6.7 6 1.4 1.4v115.5h-30.5z"/><path d="m47.8 124.9 10.4-11.3 7.8 7 4-3.5 6.9 6 1.1 1.4v115.5h-30.2z"/><path d="m222.3 121.9v118h-163.9v-118l19.6 19.6v78.8h124.7v-78.8z"/><path d="m84 166.7c-4.6 0-9-1.6-12.2-4.6-2.5-2.3-5.5-6.7-5.5-13.8h6.9c0 3.9 1.2 6.9 3.2 8.8 1.8 1.8 4.4 2.8 7.4 2.8 6 0 12.4-4.1 12.4-11.5h6.9c0 7.1 5.5 10.8 10.8 10.8 2.5 0 4.8-.9 6.7-2.3 1.8-1.8 3-4.4 3-7.6h6.9c0 3.2 1.2 6 3.2 8.1 5.3 4.8 17.1 3.2 17.1-8.1h6.9c0 6.9 5.3 10.6 10.4 10.6 2.5 0 5.1-.9 6.7-2.5 2.1-1.8 3-4.8 3-8.5h6.9c0 3.2 1.2 5.5 3.2 7.4 1.8 1.6 4.6 2.5 7.8 2.5 5.5 0 11.5-3 11.5-8.5h6.9c0 10.1-9.5 15.4-18.4 15.4-4.6 0-9-1.4-12.2-3.9-.7-.5-1.4-1.2-1.8-1.8-.7 1.2-1.4 1.8-2.1 2.5-3 3-7.1 4.6-11.5 4.6-5.1 0-10.4-2.3-13.8-6.5-3.2 4.4-8.3 6.7-13.6 6.7-4.4 0-8.5-1.6-11.8-4.4-.7-.7-1.4-1.4-1.8-2.1-.5.7-1.2 1.4-1.6 1.8-3 2.8-6.9 4.1-11.3 4.1-5.3 0-10.8-2.3-14.3-6.9-3.7 4.1-9.9 6.9-15.9 6.9z"/><path d="m84 192.5c-4.6 0-9-1.6-12.2-4.6-2.5-2.3-5.5-6.7-5.5-13.8h6.9c0 3.9 1.2 6.9 3.2 8.8 1.8 1.8 4.4 2.8 7.4 2.8 6 0 12.4-4.1 12.4-11.5h6.9c0 7.1 5.5 10.8 10.8 10.8 2.5 0 4.8-.9 6.7-2.3 1.8-1.8 3-4.4 3-7.6h6.9c0 3.2 1.2 6 3.2 8.1 5.3 4.8 17.1 3.2 17.1-8.1h6.9c0 6.9 5.3 10.6 10.4 10.6 2.5 0 5.1-.9 6.7-2.5 2.1-1.8 3-4.8 3-8.5h6.9c0 3.2 1.2 5.5 3.2 7.4 1.8 1.6 4.6 2.5 7.8 2.5 5.5 0 11.5-3 11.5-8.5h6.9c0 10.1-9.5 15.4-18.4 15.4-4.6 0-9-1.4-12.2-3.9-.7-.5-1.4-1.2-1.8-1.8-.7 1.2-1.4 1.8-2.1 2.5-3 3-7.1 4.6-11.5 4.6-5.1 0-10.4-2.3-13.8-6.5-3.2 4.4-8.3 6.7-13.6 6.7-4.4 0-8.5-1.6-11.8-4.4-.7-.7-1.4-1.4-1.8-2.1-.5.7-1.2 1.4-1.6 1.8-3 2.8-6.9 4.1-11.3 4.1-5.3 0-10.8-2.3-14.3-6.9-3.7 4.1-9.9 6.9-15.9 6.9z"/><path d="m84 216c-4.6 0-9-1.6-12.2-4.6-2.5-2.3-5.5-6.7-5.5-13.8h6.9c0 3.9 1.2 6.9 3.2 8.8 1.8 1.8 4.4 2.8 7.4 2.8 6 0 12.4-4.1 12.4-11.5h6.9c0 7.1 5.5 10.8 10.8 10.8 2.5 0 4.8-.9 6.7-2.3 1.8-1.8 3-4.4 3-7.6h6.9c0 3.2 1.2 6 3.2 8.1 5.3 4.8 17.1 3.2 17.1-8.1h6.9c0 6.9 5.3 10.6 10.4 10.6 2.5 0 5.1-.9 6.7-2.5 2.1-1.8 3-4.8 3-8.5h6.9c0 3.2 1.2 5.5 3.2 7.4 1.8 1.6 4.6 2.5 7.8 2.5 5.5 0 11.5-3 11.5-8.5h6.9c0 10.1-9.5 15.4-18.4 15.4-4.6 0-9-1.4-12.2-3.9-.7-.5-1.4-1.2-1.8-1.8-.7 1.2-1.4 1.8-2.1 2.5-3 3-7.1 4.6-11.5 4.6-5.1 0-10.4-2.3-13.8-6.5-3.2 4.4-8.3 6.7-13.6 6.7-4.4 0-8.5-1.6-11.8-4.4-.7-.7-1.4-1.4-1.8-2.1-.5.7-1.2 1.4-1.6 1.8-3 2.8-6.9 4.1-11.3 4.1-5.3 0-10.8-2.3-14.3-6.9-3.7 4.1-9.9 6.9-15.9 6.9z"/><path d="m96.6 91.5-3.6-5.9c11.8-7.2 9-12.7 4.7-21-4.4-8.6-10.4-20.4 8.3-31.6l3.6 5.9c-13.1 7.9-10.2 13.7-5.7 22.5 4.2 8.2 10 19.5-7.3 30.1z"/><path d="m137.9 91.5-3.6-5.9c11.9-7.2 9.1-12.7 4.8-21.1-4.4-8.5-10.4-20.2 8.1-31.5l3.6 5.9c-13 7.9-10 13.7-5.5 22.4 4.2 8.3 10.1 19.6-7.4 30.2z"/><path d="m179.4 91.5-3.6-5.9c11.9-7.2 9.1-12.7 4.8-21.1-4.4-8.5-10.4-20.2 8.1-31.5l3.6 5.9c-13 7.9-10 13.7-5.5 22.4 4.2 8.3 10.1 19.6-7.4 30.2z"/><circle cx="115.4" cy="115" r="10.4"/><path d="m120.9 161.1h-11.3c-5.3 0-9.7-4.4-9.7-9.7v-11.3c0-5.3 4.4-9.7 9.7-9.7h11.3c5.3 0 9.7 4.4 9.7 9.7v11.3c0 5.3-4.4 9.7-9.7 9.7z"/><path d="m116.8 139h-3c-1.4 0-2.5-3-2.5-6.7v-7.8c0-3.7 1.2-6.7 2.5-6.7h3c1.4 0 2.5 3 2.5 6.7v7.8c0 3.7-1.2 6.7-2.5 6.7z"/><circle cx="166.1" cy="115" r="10.4"/><path d="m171.6 161.1h-11.3c-5.3 0-9.7-4.4-9.7-9.7v-11.3c0-5.3 4.4-9.7 9.7-9.7h11.3c5.3 0 9.7 4.4 9.7 9.7v11.3c0 5.3-4.4 9.7-9.7 9.7z"/><path d="m167.5 139h-3c-1.4 0-2.5-3-2.5-6.7v-7.8c0-3.7 1.2-6.7 2.5-6.7h3c1.4 0 2.5 3 2.5 6.7v7.8c0 3.7-1.1 6.7-2.5 6.7z"/><path d="m60.3 209.3v20.8h157.7v-27.7l-22.2 12-14.5-12-11.3 10.4-16.6-10.4-12.4 13.4-15.3-13.4-14.3 10.8-11.2-10.8-13.6 11.5z"/></g></svg>