<?xml version="1.0" encoding="utf-8"?>
<!-- Generator: Adobe Illustrator 22.1.0, SVG Export Plug-In . SVG Version: 6.00 Build 0)  -->
<svg version="1.1" xmlns="http://www.w3.org/2000/svg" xmlns:xlink="http://www.w3.org/1999/xlink" x="0px" y="0px"
	 viewBox="0 0 283.1 282.4" style="enable-background:new 0 0 283.1 282.4;" xml:space="preserve">
<style type="text/css">
	.st0{fill:#FFFFFF;}
	.st1{fill:#4E6086;}
</style>
<g id="Z_Base_layer_130mm">
	<g>
		<path class="st0" d="M283.1,18.5c0-10.2-8.3-18.5-18.5-18.5H18.5C8.3,0,0,8.3,0,18.5V264c0,10.2,8.3,18.5,18.5,18.5h246.2
			c10.2,0,18.5-8.3,18.5-18.5V18.5z"/>
		<path class="st1" d="M283.1,18.5c0-10.2-8.3-18.5-18.5-18.5H18.5C8.3,0,0,8.3,0,18.5V264c0,10.2,8.3,18.5,18.5,18.5h246.2
			c10.2,0,18.5-8.3,18.5-18.5V18.5z"/>
	</g>
</g>
<g id="hunting">
	<g>
		<g>
			<g>
				<path class="st0" d="M182.1,107.5c0,0-15.3-28.2,14.8-32.6c26.4-3.9,21.8,28.3,16.8,31.6C212.2,107.5,182.1,107.5,182.1,107.5z"
					/>
				<path class="st0" d="M41.7,91.7h121.5v20.8h56.3c0,0,10.4,4,12.4,18.3c2,14.3,11.9,80.1,8.9,80.1c-3,0-68.2,0-68.2,0
					s2.5-55.6,2.5-62.8c0-0.5-20.8,5.4-20.8,5.4l-45.5-45.9H87.7l-7.9-9.9H41.7V91.7z"/>
			</g>
		</g>
	</g>
</g>
</svg>
