<?xml version="1.0" encoding="utf-8"?>
<!-- Generator: Adobe Illustrator 17.0.0, SVG Export Plug-In . SVG Version: 6.00 Build 0)  -->
<!DOCTYPE svg PUBLIC "-//W3C//DTD SVG 1.1//EN" "http://www.w3.org/Graphics/SVG/1.1/DTD/svg11.dtd">
<svg version="1.1" xmlns="http://www.w3.org/2000/svg" xmlns:xlink="http://www.w3.org/1999/xlink" x="0px" y="0px"
	 width="283.141px" height="282.438px" viewBox="0 0 283.141 282.438" enable-background="new 0 0 283.141 282.438"
	 xml:space="preserve">
<g id="Background">
	<path display="none" fill="#FFFFFF" d="M289.25,263.906c0,13.594-11.039,24.641-24.641,24.641H18.539
		c-13.602,0-24.633-11.047-24.633-24.641V18.516c0-13.594,11.031-24.625,24.633-24.625h246.07c13.602,0,24.641,11.031,24.641,24.625
		V263.906z M283.141,18.453C283.141,8.266,274.867,0,264.656,0H18.492C8.281,0,0,8.266,0,18.453v245.516
		c0,10.188,8.281,18.469,18.492,18.469h246.164c10.211,0,18.484-8.281,18.484-18.469V18.453z"/>
	<path fill="#A6A6A6" d="M283.141,18.453C283.141,8.266,274.867,0,264.656,0H18.492C8.281,0,0,8.266,0,18.453v245.516
		c0,10.188,8.281,18.469,18.492,18.469h246.164c10.211,0,18.484-8.281,18.484-18.469V18.453z"/>
	<path display="none" fill="none" stroke="#231F20" stroke-width="0.9992" d="M289.25,263.906c0,13.594-11.039,24.641-24.641,24.641
		H18.539c-13.602,0-24.633-11.047-24.633-24.641V18.516c0-13.594,11.031-24.625,24.633-24.625h246.07
		c13.602,0,24.641,11.031,24.641,24.625V263.906z"/>
</g>
<g id="Shelter">
	<polygon fill="#FFFFFF" points="141.582,255.68 239.793,255.68 239.793,92.727 252.066,98.305 252.066,81.57 142.465,26.758 
		31.09,81.57 31.09,98.305 43.371,92.727 43.371,255.68 	"/>
	<rect x="56.754" y="97.195" fill="#A6A6A6" width="171.875" height="143.969"/>
</g>
<g id="Information">
	<path fill="#FFFFFF" d="M130.475,197.7h24.255v-11.518c0,0-0.403-3.292,3.705-4.933c4.118-1.651,24.678-14.81,24.265-32.903
		c-0.283-12.503-5.615-42.054-42.358-41.537c-29.193,0.418-39.473,25.095-39.891,40.711h24.672c0,0-0.403-16.859,16.049-17.675
		c16.437-0.826,16.854,15.626,16.854,15.626s-0.597,8.445-9.459,13.159c-18.809,9.986-18.028,19.475-18.028,19.475L130.475,197.7z"
		/>
	<rect x="130.057" y="206.891" fill="#FFFFFF" width="24.473" height="24.469"/>
</g>
</svg>
