<svg enable-background="new 0 0 283.141 282.438" height="282.438" viewBox="0 0 283.141 282.438" width="283.141" xmlns="http://www.w3.org/2000/svg"><path d="m283.141 18.453c0-10.187-8.274-18.453-18.485-18.453h-246.164c-10.211 0-18.492 8.266-18.492 18.453v245.516c0 10.188 8.281 18.469 18.492 18.469h246.164c10.211 0 18.484-8.281 18.484-18.469v-245.516z" fill="#4d5f85"/><path d="m141.582 255.68h98.211v-162.953l12.273 5.578v-16.735l-109.601-54.812-111.375 54.812v16.735l12.281-5.578v162.953z" fill="#fff"/><path d="m56.754 97.195h171.875v143.969h-171.875z" fill="#4d5f85"/><g fill="#fff"><path d="m130.475 197.7h24.255v-11.518s-.403-3.292 3.705-4.933c4.118-1.651 24.678-14.81 24.265-32.903-.283-12.503-5.615-42.054-42.358-41.537-29.193.418-39.473 25.095-39.891 40.711h24.672s-.403-16.859 16.049-17.675c16.437-.826 16.854 15.626 16.854 15.626s-.597 8.445-9.459 13.159c-18.809 9.986-18.028 19.475-18.028 19.475z"/><path d="m130.057 206.891h24.473v24.469h-24.473z"/></g></svg>