<?xml version="1.0" encoding="utf-8"?>
<!-- Generator: Adobe Illustrator 22.1.0, SVG Export Plug-In . SVG Version: 6.00 Build 0)  -->
<svg version="1.1" id="Information" xmlns="http://www.w3.org/2000/svg" xmlns:xlink="http://www.w3.org/1999/xlink" x="0px"
	 y="0px" viewBox="0 0 283.1 282.4" style="enable-background:new 0 0 283.1 282.4;" xml:space="preserve">
<style type="text/css">
	.st0{fill:#FFFFFF;}
	.st1{fill:#A7A6A6;}
</style>
<g>
	<g>
		<path class="st0" d="M283.1,18.5c0-10.2-8.3-18.5-18.5-18.5H18.5C8.3,0,0,8.3,0,18.5V264c0,10.2,8.3,18.5,18.5,18.5h246.2
			c10.2,0,18.5-8.3,18.5-18.5V18.5z"/>
		<path class="st1" d="M283.1,18.5c0-10.2-8.3-18.5-18.5-18.5H18.5C8.3,0,0,8.3,0,18.5V264c0,10.2,8.3,18.5,18.5,18.5h246.2
			c10.2,0,18.5-8.3,18.5-18.5V18.5z"/>
	</g>
	<g>
		<g>
			<g>
				<path class="st0" d="M124.1,186.2h38.1v-18.1c0,0-0.6-5.2,5.8-7.8c6.5-2.6,38.8-23.3,38.1-51.7c-0.4-19.6-8.8-66.1-66.5-65.3
					c-45.9,0.7-62,39.4-62.7,64h38.8c0,0-0.6-26.5,25.2-27.8c25.8-1.3,26.5,24.5,26.5,24.5s-0.9,13.3-14.9,20.7
					c-29.5,15.7-28.3,30.6-28.3,30.6L124.1,186.2z"/>
				<g>
					<rect x="123.5" y="200.6" class="st0" width="38.4" height="38.4"/>
				</g>
			</g>
		</g>
	</g>
</g>
</svg>
