<?xml version="1.0" encoding="UTF-8"?>
<svg xmlns="http://www.w3.org/2000/svg" viewBox="0 0 295.34 294.66">
  <defs>
    <style>
      .cls-1 {
        fill: #4e6086;
      }

      .cls-2 {
        fill: #fff;
      }
    </style>
  </defs>
  <g id="Background">
    <path class="cls-1" d="M289.23,24.57c0-10.19-8.27-18.46-18.48-18.46H24.59C14.38,6.11,6.09,14.38,6.09,24.57v245.5c0,10.2,8.28,18.47,18.49,18.47h246.16c10.21,0,18.48-8.28,18.48-18.47V24.57Z"/>
  </g>
  <g id="Kayaking">
    <g>
      <path class="cls-2" d="M123.72,146.01l2.38-7.64h10.03l-2.39,5.73-10.02,1.91Zm31.17,8.36l7.03-12.66,11.47,7.64,30.56-15.29,5.73-.95s5.73,3.82,9.55,2.86c3.83-.95,15.29-5.25,15.29-5.25l-3.82-10.51s-18.63-.96-19.59,1.91c-.95,2.87-4.3,5.73-4.3,5.73l-32,8.12-28.66-10.03-24.36,1.43-8.12,21.49-8.6,2.39s-5.25-3.34-10.5-1.91c-5.26,1.43-11.95,4.78-11.95,4.78v8.12l22.93,.48,.95-7.16,7.16-1.19,15.76-2.63-1.21,2.63-4.04,8.84-5.26,.48s-.21,2.54-2.59,3.49c-2.31,.92-77.13-1.87-83.46,6.97l.02,.34c0,3.4,4.13,14.2,26.07,14.2,6.36,0,11.62-2.32,12.48-8.45h.24c.85,6.13,6.11,8.45,12.48,8.45s11.63-2.32,12.48-8.46h.23c.84,6.13,6.11,8.46,12.48,8.46s11.65-2.34,12.48-8.49l.23,.02c.84,6.14,6.11,8.46,12.48,8.46s11.66-2.34,12.49-8.5h.23c.83,6.15,6.1,8.5,12.48,8.5s11.67-2.36,12.49-8.53l.3,.02c.82,6.16,6.02,8.5,12.41,8.5s11.66-2.35,12.48-8.5h.23c.83,6.16,6.11,8.5,12.48,8.5s11.64-2.33,12.48-8.47h.25c.76,6.2,6.03,8.47,12.47,8.47l.63-.04c9.99-1.04,23.94-7.9,26.21-10.63,2.39-2.87-12.89-7.16-25.79-7.64-12.89-.48-77.59-3.65-77.59-3.65,0,0-3.61-.54-3.45-3.15,0-.07-5.4-.36-5.4-.36l4.91-8.84Z"/>
      <path class="cls-2" d="M173.99,111.98c-1.84-2.7-4.95-4.83-8.77-5.65-6.96-1.51-13.61,1.91-14.85,7.62-1.24,5.72,3.4,11.58,10.36,13.09,.92,.2,1.84,.31,2.74,.34v-11.7l10.52-3.71Z"/>
    </g>
  </g>
</svg>