<?xml version="1.0" encoding="utf-8"?>
<!-- Generator: Adobe Illustrator 22.1.0, SVG Export Plug-In . SVG Version: 6.00 Build 0)  -->
<svg version="1.1" xmlns="http://www.w3.org/2000/svg" xmlns:xlink="http://www.w3.org/1999/xlink" x="0px" y="0px"
	 viewBox="0 0 283.1 282.4" style="enable-background:new 0 0 283.1 282.4;" xml:space="preserve">
<style type="text/css">
	.st0{fill:#A7A6A6;}
	.st1{fill:#FFFFFF;}
</style>
<g id="Z_Base_layer_130mm">
	<g>
		<path class="st0" d="M283.1,18.5c0-10.2-8.3-18.5-18.5-18.5H18.5C8.3,0,0,8.3,0,18.5V264c0,10.2,8.3,18.5,18.5,18.5h246.2
			c10.2,0,18.5-8.3,18.5-18.5V18.5z"/>
		<path class="st0" d="M283.1,18.5c0-10.2-8.3-18.5-18.5-18.5H18.5C8.3,0,0,8.3,0,18.5V264c0,10.2,8.3,18.5,18.5,18.5h246.2
			c10.2,0,18.5-8.3,18.5-18.5V18.5z"/>
	</g>
</g>
<g id="Pets_on_Leash">
	<g>
		<g>
			<g>
				<g>
					<path class="st1" d="M65.1,58.5c7.5,0,13.6-6.1,13.6-13.6c0-7.5-6.1-13.6-13.6-13.6c-7.5,0-13.6,6.1-13.6,13.6
						C51.5,52.4,57.6,58.5,65.1,58.5z"/>
				</g>
				<path class="st1" d="M114,111.5l12.3-4.5L66.6,63.7c0,0-16.8-9.4-15.8,7.4c1,16.8,6.4,62.2,6.4,62.2s2,16.3,1.5,25.2
					c-0.5,8.9-5.9,59.7-5.9,59.7l8.9,9.4L73,165.3l37.5,56.7l8.9-5.4l-30.1-70.5L75,89.3L114,111.5z"/>
				<path class="st1" d="M125.3,110.5c0,0,19.2,60.2,56.2,60.7l-0.4,6.6c0,0-38.1,0.3-60.8-64.8
					C120.2,112.5,125.3,110.5,125.3,110.5z"/>
				<path class="st1" d="M232.4,155.4l-18.8-6.4l-1-6.4c0,0-16.7-7.8-24.2,1c-5.4,6.4-2.5,8.4-2.5,8.4l-4.5,19.2l14.5,2.5l-0.5,5.4
					l-14-1c0,0-8.9,16.8-17.8,21.7c-8.9,4.9-18.7,20.2-18.2,29.1c0.5,8.9,1,11.8,1,11.8s-7.9,1.5-10.4-7.9
					c-2.5-9.4-2.5,13,13.3,15.8c13.8,2.5,14.8,3,22.2-1l-0.5,3.5c0,0,17.2-2.9,27.1-1.5c6.9,1-4.4-11.4-12.3-6.4
					c0,0,15.9-19.3-2.5-19.3c-0.5,0,14.8-10.4,14.8-10.4s0.4,7.3,8.4,15.3c0.5,0.5,10.4,16.8,10.4,16.8l9.4-0.5c0,0,1-5.9-5.9-8.4
					c-6.9-2.5-9.4-20.2-9.4-20.2s5-32-5.4-32c-0.5,0,9.9-10.4,9.9-10.4l-4-7.9c0,0,9.9,5.9,14.3,0.5
					C230.4,161.3,232.4,155.4,232.4,155.4z"/>
			</g>
		</g>
	</g>
</g>
</svg>
