<svg enable-background="new 0 0 283.1 282.4" viewBox="0 0 283.1 282.4" xmlns="http://www.w3.org/2000/svg"><path d="m283.1 18.5c0-10.2-8.3-18.5-18.5-18.5h-246.1c-10.2 0-18.5 8.3-18.5 18.5v245.5c0 10.2 8.3 18.5 18.5 18.5h246.2c10.2 0 18.5-8.3 18.5-18.5v-245.5z" fill="#a7a6a6"/><path d="m283.1 18.5c0-10.2-8.3-18.5-18.5-18.5h-246.1c-10.2 0-18.5 8.3-18.5 18.5v245.5c0 10.2 8.3 18.5 18.5 18.5h246.2c10.2 0 18.5-8.3 18.5-18.5v-245.5z" fill="#a7a6a6"/><g fill="#fff"><path d="m65.1 58.5c7.5 0 13.6-6.1 13.6-13.6s-6.1-13.6-13.6-13.6-13.6 6.1-13.6 13.6 6.1 13.6 13.6 13.6z"/><path d="m114 111.5 12.3-4.5-59.7-43.3s-16.8-9.4-15.8 7.4 6.4 62.2 6.4 62.2 2 16.3 1.5 25.2-5.9 59.7-5.9 59.7l8.9 9.4 11.3-62.3 37.5 56.7 8.9-5.4-30.1-70.5-14.3-56.8z"/><path d="m125.3 110.5s19.2 60.2 56.2 60.7l-.4 6.6s-38.1.3-60.8-64.8c-.1-.5 5-2.5 5-2.5z"/><path d="m232.4 155.4-18.8-6.4-1-6.4s-16.7-7.8-24.2 1c-5.4 6.4-2.5 8.4-2.5 8.4l-4.5 19.2 14.5 2.5-.5 5.4-14-1s-8.9 16.8-17.8 21.7-18.7 20.2-18.2 29.1 1 11.8 1 11.8-7.9 1.5-10.4-7.9-2.5 13 13.3 15.8c13.8 2.5 14.8 3 22.2-1l-.5 3.5s17.2-2.9 27.1-1.5c6.9 1-4.4-11.4-12.3-6.4 0 0 15.9-19.3-2.5-19.3-.5 0 14.8-10.4 14.8-10.4s.4 7.3 8.4 15.3c.5.5 10.4 16.8 10.4 16.8l9.4-.5s1-5.9-5.9-8.4-9.4-20.2-9.4-20.2 5-32-5.4-32c-.5 0 9.9-10.4 9.9-10.4l-4-7.9s9.9 5.9 14.3.5c4.6-5.4 6.6-11.3 6.6-11.3z"/></g></svg>