<svg enable-background="new 0 0 283.141 282.437" height="282.437" viewBox="0 0 283.141 282.437" width="283.141" xmlns="http://www.w3.org/2000/svg"><path d="m283.141 18.453c0-10.187-8.274-18.453-18.485-18.453h-246.164c-10.211 0-18.492 8.266-18.492 18.453v245.516c0 10.188 8.281 18.469 18.492 18.469h246.164c10.211 0 18.484-8.281 18.484-18.469v-245.516z" fill="#a6a6a6"/><g fill="#fff"><path d="m141.617 36.469 121.188 63.187v31.828l-22.328-10.922v125.407h-30.407v-139.657l-68.484-32.343-68.516 32.343v139.657h-30.39v-125.407l-22.329 10.922v-31.828l121.219-63.187z"/><path d="m107.008 139.625h69.531v8.812h-69.531z"/><path d="m84.477 165.812h21.547v8.328h-21.547z"/><path d="m175.07 165.812h21.547v8.328h-21.547z"/><path d="m84.477 178.797h112.141v8.328h-112.141z"/><path d="m134.43 151.375h-11.766l-21.937 67.375h12.484z"/><path d="m149.117 151.375h11.75l18.985 67.562h-12.5z"/></g></svg>