<?xml version="1.0" encoding="utf-8"?>
<!-- Generator: Adobe Illustrator 17.0.0, SVG Export Plug-In . SVG Version: 6.00 Build 0)  -->
<!DOCTYPE svg PUBLIC "-//W3C//DTD SVG 1.1//EN" "http://www.w3.org/Graphics/SVG/1.1/DTD/svg11.dtd">
<svg version="1.1" xmlns="http://www.w3.org/2000/svg" xmlns:xlink="http://www.w3.org/1999/xlink" x="0px" y="0px"
	 width="283.141px" height="282.437px" viewBox="0 0 283.141 282.437" enable-background="new 0 0 283.141 282.437"
	 xml:space="preserve">
<g id="Background">
	<path display="none" fill="#FFFFFF" d="M289.25,263.902c0,13.605-11.039,24.645-24.641,24.645H18.539
		c-13.601,0-24.633-11.039-24.633-24.645V18.516c0-13.598,11.031-24.625,24.633-24.625h246.07c13.602,0,24.641,11.027,24.641,24.625
		V263.902z M283.141,18.461C283.141,8.269,274.867,0,264.656,0H18.492C8.281,0,0,8.269,0,18.461v245.503
		c0,10.195,8.281,18.473,18.492,18.473h246.164c10.211,0,18.484-8.277,18.484-18.473V18.461z"/>
	<path fill="#A6A6A6" d="M283.141,18.461C283.141,8.269,274.867,0,264.656,0H18.492C8.281,0,0,8.269,0,18.461v245.503
		c0,10.195,8.281,18.473,18.492,18.473h246.164c10.211,0,18.484-8.277,18.484-18.473V18.461z"/>
	<path display="none" fill="none" stroke="#231F20" stroke-width="0.9992" d="M289.25,263.902c0,13.605-11.039,24.645-24.641,24.645
		H18.539c-13.601,0-24.633-11.039-24.633-24.645V18.516c0-13.598,11.031-24.625,24.633-24.625h246.07
		c13.602,0,24.641,11.027,24.641,24.625V263.902z"/>
</g>
<g id="Playground">
	<path fill="#FFFFFF" d="M37.984,150.844c7.023,0,12.719-5.695,12.719-12.719l0,0c0-7.016-5.695-12.727-12.719-12.727l0,0
		c-7.031,0-12.734,5.711-12.734,12.727l0,0C25.25,145.148,30.953,150.844,37.984,150.844L37.984,150.844z"/>
	<path fill="#FFFFFF" d="M197.812,70.727c7.031,0,12.719-5.695,12.719-12.727l0,0c0-7.016-5.688-12.711-12.719-12.711l0,0
		c-7.023,0-12.719,5.695-12.719,12.711l0,0C185.094,65.031,190.789,70.727,197.812,70.727L197.812,70.727z"/>
	<path fill="#FFFFFF" d="M45.047,159.75H24.125c0,0-8.828,25.531,0,52.016C24.695,213.469,36,207.25,36,207.25l40.141,26.016
		l8.477-9.625L49,198.766l-9.609-24.875c0,0,1.125-3.391,2.828-1.125c1.688,2.25,12.438,22.039,12.438,22.039l7.922-3.953
		L45.047,159.75z"/>
	<path fill="#FFFFFF" d="M226.555,119.062l-5.562,3.391l-6.781-48.055l9.609-11.867l28.836,8.477c0,0,13.57,2.82,5.648,19.227
		c-7.914,16.391-12.437,24.867-12.437,24.867s-3.391,10.172-2.266,22.617c1.133,12.438,1.133,12.438,1.133,12.438l-7.914,0.562
		c0,0-4.516-10.172-4.516-32.226c0-22.047,0.016-35.617,0.016-35.617h-5.797L226.555,119.062z"/>
	<polygon fill="#FFFFFF" points="136.688,173.594 136.688,192.344 128.203,192.344 128.203,233.734 151.078,233.734 
		151.078,192.609 141.312,192.609 141.312,172.828 	"/>
	<polygon fill="#FFFFFF" points="63.344,201.141 71.055,206.797 226.703,136.172 227.219,126.406 	"/>
	<polygon fill="#FFFFFF" points="36.766,213.422 15.672,222.641 18.75,230.359 44.734,218.57 	"/>
	<path fill="#FFFFFF" d="M254.383,114.75l9.766-4.891l3.336,7.203l-15.156,7.453C252.328,124.516,251.555,118.601,254.383,114.75z"
		/>
</g>
</svg>
