<svg enable-background="new 0 0 283.141 282.437" height="282.437" viewBox="0 0 283.141 282.437" width="283.141" xmlns="http://www.w3.org/2000/svg"><path d="m283.141 18.461c0-10.192-8.274-18.461-18.485-18.461h-246.164c-10.211 0-18.492 8.269-18.492 18.461v245.503c0 10.195 8.281 18.473 18.492 18.473h246.164c10.211 0 18.484-8.277 18.484-18.473v-245.503z" fill="#4d5f85"/><g fill="#fff"><path d="m37.984 150.844c7.023 0 12.719-5.695 12.719-12.719 0-7.016-5.695-12.727-12.719-12.727-7.031 0-12.734 5.711-12.734 12.727 0 7.023 5.703 12.719 12.734 12.719z"/><path d="m197.812 70.727c7.031 0 12.719-5.695 12.719-12.727 0-7.016-5.688-12.711-12.719-12.711-7.023 0-12.719 5.695-12.719 12.711.001 7.031 5.696 12.727 12.719 12.727z"/><path d="m45.047 159.75h-20.922s-8.828 25.531 0 52.016c.57 1.703 11.875-4.516 11.875-4.516l40.141 26.016 8.477-9.625-35.618-24.875-9.609-24.875s1.125-3.391 2.828-1.125c1.688 2.25 12.438 22.039 12.438 22.039l7.922-3.953z"/><path d="m226.555 119.062-5.562 3.391-6.781-48.055 9.609-11.867 28.836 8.477s13.57 2.82 5.648 19.227c-7.914 16.391-12.437 24.867-12.437 24.867s-3.391 10.172-2.266 22.617c1.133 12.438 1.133 12.438 1.133 12.438l-7.914.562s-4.516-10.172-4.516-32.226c0-22.047.016-35.617.016-35.617h-5.797z"/><path d="m136.688 173.594v18.75h-8.485v41.39h22.875v-41.125h-9.766v-19.781z"/><path d="m63.344 201.141 7.711 5.656 155.648-70.625.516-9.766z"/><path d="m36.766 213.422-21.094 9.219 3.078 7.718 25.984-11.789z"/><path d="m254.383 114.75 9.766-4.891 3.336 7.203-15.156 7.453c-.001.001-.774-5.914 2.054-9.765z"/></g></svg>