<?xml version="1.0" encoding="utf-8"?>
<!-- Generator: Adobe Illustrator 17.0.0, SVG Export Plug-In . SVG Version: 6.00 Build 0)  -->
<!DOCTYPE svg PUBLIC "-//W3C//DTD SVG 1.1//EN" "http://www.w3.org/Graphics/SVG/1.1/DTD/svg11.dtd">
<svg version="1.1" xmlns="http://www.w3.org/2000/svg" xmlns:xlink="http://www.w3.org/1999/xlink" x="0px" y="0px"
	 width="283.141px" height="282.438px" viewBox="0 0 283.141 282.438" enable-background="new 0 0 283.141 282.438"
	 xml:space="preserve">
<g id="Background">
	<path display="none" fill="#FFFFFF" d="M289.25,263.906c0,13.594-11.031,24.641-24.641,24.641H18.547
		c-13.609,0-24.641-11.047-24.641-24.641V18.516c0-13.594,11.031-24.625,24.641-24.625H264.61c13.609,0,24.641,11.031,24.641,24.625
		V263.906z M283.141,18.453C283.141,8.266,274.875,0,264.657,0H18.5C8.281,0,0,8.266,0,18.453v245.516
		c0,10.188,8.281,18.469,18.5,18.469h246.157c10.219,0,18.484-8.281,18.484-18.469V18.453z"/>
	<path fill="#4D5F85" d="M283.141,18.453C283.141,8.266,274.875,0,264.657,0H18.5C8.281,0,0,8.266,0,18.453v245.516
		c0,10.188,8.281,18.469,18.5,18.469h246.157c10.219,0,18.484-8.281,18.484-18.469V18.453z"/>
	<path display="none" fill="none" stroke="#231F20" stroke-width="0.9992" d="M289.25,263.906c0,13.594-11.031,24.641-24.641,24.641
		H18.547c-13.609,0-24.641-11.047-24.641-24.641V18.516c0-13.594,11.031-24.625,24.641-24.625H264.61
		c13.609,0,24.641,11.031,24.641,24.625V263.906z"/>
</g>
<g id="Recycling">
	<path fill="#FFFFFF" d="M36.842,119.461l16.195,9.359l4.312,2.469l-12.633,21.828c-1.148,1.938-1.727,4.141-1.727,6.375
		c0,2.125,0.531,4.25,1.68,6.172c0,0,11.047,19.203,20.039,34.75c0.688-2.188,1.492-4.391,2.641-6.391l24.672-42.641l4.273,2.453
		l16.211,9.375l-25.234-43.672L36.842,119.461z"/>
	<path fill="#FFFFFF" d="M85.076,180.586c-2.242,3.812-10.242,17.641-10.242,17.641c-1.391,2.344-2.047,5-2.047,7.609
		c0,2.625,0.656,5.172,2,7.453c2.656,4.641,7.68,7.484,13.016,7.422h49.82v-40.125H85.076z"/>
	<path fill="#FFFFFF" d="M217.686,55.008l-16.219,9.344l-4.289,2.5l-12.562-21.859c-1.117-1.984-2.781-3.594-4.609-4.641
		c-1.852-1.125-3.969-1.641-6.219-1.641h-40.109c1.562,1.641,3,3.422,4.141,5.422l24.609,42.656l-4.219,2.531l-16.266,9.344h50.477
		L217.686,55.008z"/>
	<path fill="#FFFFFF" d="M140.599,66.195c-2.172-3.797-10.117-17.672-10.117-17.672c-1.391-2.344-3.32-4.266-5.609-5.609
		c-2.242-1.266-4.758-1.969-7.414-2.031c-5.344,0.062-10.312,2.938-12.898,7.641c0,0-21.023,36.313-24.977,43.141
		c6.25,3.578,28.531,16.453,34.781,20.047C118.092,105.164,138.381,70.133,140.599,66.195"/>
	<path fill="#FFFFFF" d="M182.029,243.727V225.07v-4.953l25.148,0.047c2.312,0,4.531-0.578,6.407-1.703
		c1.883-1.047,3.469-2.609,4.539-4.516c0,0,11.141-19.188,20.047-34.75c-2.172,0.5-4.438,0.891-6.734,0.891l-49.352-0.047v-4.938
		l0.047-18.719l-25.289,43.672L182.029,243.727z"/>
	<path fill="#FFFFFF" d="M210.904,171.477h20.36c2.711,0,5.367-0.656,7.672-2.031c2.188-1.281,4.094-3.062,5.438-5.406
		c2.633-4.656,2.578-10.375-0.102-14.953c0,0-20.977-36.375-24.93-43.203c-6.172,3.578-28.532,16.453-34.727,20.031
		C188.349,132.414,208.584,167.492,210.904,171.477"/>
</g>
</svg>
