<svg enable-background="new 0 0 283.1 282.4" viewBox="0 0 283.1 282.4" xmlns="http://www.w3.org/2000/svg"><path d="m283.1 18.5c0-10.2-8.3-18.5-18.5-18.5h-246.1c-10.2 0-18.5 8.3-18.5 18.5v245.5c0 10.2 8.3 18.5 18.5 18.5h246.2c10.2 0 18.5-8.3 18.5-18.5v-245.5z" fill="#fff"/><path d="m283.1 18.5c0-10.2-8.3-18.5-18.5-18.5h-246.1c-10.2 0-18.5 8.3-18.5 18.5v245.5c0 10.2 8.3 18.5 18.5 18.5h246.2c10.2 0 18.5-8.3 18.5-18.5v-245.5z" fill="#4e6086"/><g fill="#fff"><path d="m167.2 211.6-146-3.8 148.8-174.4z"/><path d="m176.6 69.4v143.1l85.3 1.9z"/><path d="m83.2 248.3c-15.1 0-16.3-25.4-16.3-25.4h164.7s-11.5 19.7-17.8 26h-.5c-7.3 0-13.7-4.2-16.7-10.4h-.1c-3.1 6.1-9.4 10.4-16.7 10.4s-13.7-4.2-16.7-10.4h-.1c-3.1 6.2-9.4 10.4-16.7 10.4-7.4 0-13.7-4.2-16.8-10.4h-.1c-3 6.2-9.4 10.4-16.7 10.4-7.4 0-13.7-4.3-16.8-10.4h-.1c-2.3 4.7-6.6 8.3-11.8 9.7z"/></g></svg>