<?xml version="1.0" encoding="utf-8"?>
<!-- Generator: Adobe Illustrator 22.1.0, SVG Export Plug-In . SVG Version: 6.00 Build 0)  -->
<svg version="1.1" xmlns="http://www.w3.org/2000/svg" xmlns:xlink="http://www.w3.org/1999/xlink" x="0px" y="0px"
	 viewBox="0 0 283.1 282.4" style="enable-background:new 0 0 283.1 282.4;" xml:space="preserve">
<style type="text/css">
	.st0{fill:#FFFFFF;}
	.st1{fill:#A7A6A6;}
</style>
<g id="Z_Base_layer_130mm">
	<g>
		<path class="st0" d="M283.1,18.5c0-10.2-8.3-18.5-18.5-18.5H18.5C8.3,0,0,8.3,0,18.5V264c0,10.2,8.3,18.5,18.5,18.5h246.2
			c10.2,0,18.5-8.3,18.5-18.5V18.5z"/>
		<path class="st1" d="M283.1,18.5c0-10.2-8.3-18.5-18.5-18.5H18.5C8.3,0,0,8.3,0,18.5V264c0,10.2,8.3,18.5,18.5,18.5h246.2
			c10.2,0,18.5-8.3,18.5-18.5V18.5z"/>
	</g>
</g>
<g id="Sail_Boating">
	<g>
		<g>
			<g>
				<polygon class="st0" points="167.2,211.6 21.2,207.8 170,33.4 				"/>
				<polygon class="st0" points="176.6,69.4 176.6,212.5 261.9,214.4 				"/>
			</g>
			<path class="st0" d="M83.2,248.3c-15.1,0-16.3-25.4-16.3-25.4h164.7c0,0-11.5,19.7-17.8,26h-0.5c-7.3,0-13.7-4.2-16.7-10.4
				l-0.1,0c-3.1,6.1-9.4,10.4-16.7,10.4c-7.3,0-13.7-4.2-16.7-10.4h-0.1c-3.1,6.2-9.4,10.4-16.7,10.4c-7.4,0-13.7-4.2-16.8-10.4
				l-0.1,0c-3,6.2-9.4,10.4-16.7,10.4c-7.4,0-13.7-4.3-16.8-10.4l-0.1,0c-2.3,4.7-6.6,8.3-11.8,9.7L83.2,248.3z"/>
		</g>
	</g>
</g>
</svg>
