<svg enable-background="new 0 0 283.1 282.4" viewBox="0 0 283.1 282.4" xmlns="http://www.w3.org/2000/svg"><path d="m283.1 18.5c0-10.2-8.3-18.5-18.5-18.5h-246.1c-10.2 0-18.5 8.3-18.5 18.5v245.5c0 10.2 8.3 18.5 18.5 18.5h246.2c10.2 0 18.5-8.3 18.5-18.5v-245.5z" fill="#fff"/><path d="m283.1 18.5c0-10.2-8.3-18.5-18.5-18.5h-246.1c-10.2 0-18.5 8.3-18.5 18.5v245.5c0 10.2 8.3 18.5 18.5 18.5h246.2c10.2 0 18.5-8.3 18.5-18.5v-245.5z" fill="#4e6086"/><g fill="#fff"><path d="m13.7 113.4 20 1s8.5 20.9 13.3 20.9h-11.4z"/><path d="m40.4 142.8 53.2 55.2 57-14.3s9.3-3.3 1.9-15.2c-3.8-6.1-8.3-17-19-11.4-7.2 3.8-37.1 18.1-37.1 18.1l-44.7-33.3z"/><path d="m212.4 160.9 46.6 54.2-8.6 3.8-37.1-31.4-42.8-11.4s-6.7-2.8-10.5-12.4c-1.4-3.5 6.7-6.7 9.5-6.7 3 .1 42.9 3.9 42.9 3.9z"/><path d="m208.6 151.4h-47.5s-.3 0-.8-.1c-1.7-.3-5.9-1.7-5.9-8.5 0-6.9 4.3-8.2 6-8.5.4-.1.7-.1.7-.1h47.5l.2.1c1.7.3 6 1.6 6 8.5 0 6.8-4.2 8.2-5.9 8.5z"/><path d="m215.1 73.2s2.7 8.9 17.9 8.9 18.8-8.9 18.8-8.9l.2.1s2.7 8.9 17.9 8.9v-11.3c-15.2 0-18.1-11.2-18.1-11.2l-.2-.1s-3.4 9-18.6 9-18.1-8.9-18.1-8.9h-.2s-3.2 8.9-18.4 8.9-18.1-8.9-18.1-8.9-3.2 8.7-18.4 8.7-18.1-8.7-18.1-8.7h-.4s-3.2 8.7-18.4 8.7-18.1-8.7-18.1-8.7-3.2 8.7-18.4 8.7-18.1-8.7-18.1-8.7h-.4s-3.2 8.9-18.4 8.9-18.1-8.9-18.1-8.9v-.1s-3.4 11.2-18.6 11.2v11.4c15.2 0 18.8-9 18.8-9s2.7 8.9 17.9 8.9 18.6-8.9 18.6-8.9h.4s2.7 8.9 17.9 8.9 18.6-8.9 18.6-8.9 2.7 8.9 17.9 8.9 18.6-8.9 18.6-8.9h.4s2.7 8.9 17.9 8.9 18.6-8.9 18.6-8.9 2.7 8.9 17.9 8.9 18.6-8.9 18.6-8.9z"/><path d="m252.1 138.8c0-.2 0-.4 0-.6 0-7.5-6.1-13.6-13.6-13.6s-13.6 6.1-13.6 13.6 6.1 13.6 13.6 13.6c1.2 0 2.4-.2 3.5-.5l6 6.8 10.8-14.5z"/></g></svg>