<?xml version="1.0" encoding="utf-8"?>
<!-- Generator: Adobe Illustrator 22.1.0, SVG Export Plug-In . SVG Version: 6.00 Build 0)  -->
<svg version="1.1" xmlns="http://www.w3.org/2000/svg" xmlns:xlink="http://www.w3.org/1999/xlink" x="0px" y="0px"
	 viewBox="0 0 283.1 282.4" style="enable-background:new 0 0 283.1 282.4;" xml:space="preserve">
<style type="text/css">
	.st0{fill:#FFFFFF;}
	.st1{fill:#4E6086;}
</style>
<g id="Z_Base_layer_130mm">
	<g>
		<path class="st0" d="M283.1,18.5c0-10.2-8.3-18.5-18.5-18.5H18.5C8.3,0,0,8.3,0,18.5V264c0,10.2,8.3,18.5,18.5,18.5h246.2
			c10.2,0,18.5-8.3,18.5-18.5V18.5z"/>
		<path class="st1" d="M283.1,18.5c0-10.2-8.3-18.5-18.5-18.5H18.5C8.3,0,0,8.3,0,18.5V264c0,10.2,8.3,18.5,18.5,18.5h246.2
			c10.2,0,18.5-8.3,18.5-18.5V18.5z"/>
	</g>
</g>
<g id="Scuba_Diving">
	<g>
		<g>
			<g>
				<g>
					<path class="st0" d="M13.7,113.4l20,1c0,0,8.5,20.9,13.3,20.9c1.9,0-11.4,0-11.4,0L13.7,113.4z"/>
					<path class="st0" d="M40.4,142.8L93.6,198l57-14.3c0,0,9.3-3.3,1.9-15.2c-3.8-6.1-8.3-17-19-11.4c-7.2,3.8-37.1,18.1-37.1,18.1
						l-44.7-33.3L40.4,142.8z"/>
					<path class="st0" d="M212.4,160.9l46.6,54.2l-8.6,3.8l-37.1-31.4l-42.8-11.4c0,0-6.7-2.8-10.5-12.4c-1.4-3.5,6.7-6.7,9.5-6.7
						C172.5,157.1,212.4,160.9,212.4,160.9z"/>
					<path class="st0" d="M208.6,151.4h-47.5c0,0-0.3,0-0.8-0.1c-1.7-0.3-5.9-1.7-5.9-8.5c0-6.9,4.3-8.2,6-8.5
						c0.4-0.1,0.7-0.1,0.7-0.1h47.5l0.2,0.1c1.7,0.3,6,1.6,6,8.5c0,6.8-4.2,8.2-5.9,8.5L208.6,151.4z"/>
				</g>
				<path class="st0" d="M215.1,73.2c0,0,2.7,8.9,17.9,8.9c15.2,0,18.8-8.9,18.8-8.9l0.2,0.1c0,0,2.7,8.9,17.9,8.9V70.9
					c-15.2,0-18.1-11.2-18.1-11.2l-0.2-0.1c0,0-3.4,9-18.6,9c-15.2,0-18.1-8.9-18.1-8.9l-0.2,0c0,0-3.2,8.9-18.4,8.9
					c-15.2,0-18.1-8.9-18.1-8.9l0,0c0,0-3.2,8.7-18.4,8.7c-15.2,0-18.1-8.7-18.1-8.7l-0.4,0c0,0-3.2,8.7-18.4,8.7
					c-15.2,0-18.1-8.7-18.1-8.7l0,0c0,0-3.2,8.7-18.4,8.7c-15.2,0-18.1-8.7-18.1-8.7l-0.4,0c0,0-3.2,8.9-18.4,8.9
					c-15.2,0-18.1-8.9-18.1-8.9l0-0.1c0,0-3.4,11.2-18.6,11.2v11.4c15.2,0,18.8-9,18.8-9l0,0c0,0,2.7,8.9,17.9,8.9
					c15.2,0,18.6-8.9,18.6-8.9l0.4,0c0,0,2.7,8.9,17.9,8.9c15.2,0,18.6-8.9,18.6-8.9l0,0c0,0,2.7,8.9,17.9,8.9
					c15.2,0,18.6-8.9,18.6-8.9l0.4,0c0,0,2.7,8.9,17.9,8.9c15.2,0,18.6-8.9,18.6-8.9l0,0c0,0,2.7,8.9,17.9,8.9
					c15.2,0,18.6-8.9,18.6-8.9L215.1,73.2z"/>
			</g>
			<path class="st0" d="M252.1,138.8c0-0.2,0-0.4,0-0.6c0-7.5-6.1-13.6-13.6-13.6c-7.5,0-13.6,6.1-13.6,13.6
				c0,7.5,6.1,13.6,13.6,13.6c1.2,0,2.4-0.2,3.5-0.5l6,6.8l10.8-14.5L252.1,138.8z"/>
		</g>
	</g>
</g>
</svg>
