<svg enable-background="new 0 0 283.1 282.4" viewBox="0 0 283.1 282.4" xmlns="http://www.w3.org/2000/svg"><path d="m283.1 18.5c0-10.2-8.3-18.5-18.5-18.5h-246.1c-10.2 0-18.5 8.3-18.5 18.5v245.5c0 10.2 8.3 18.5 18.5 18.5h246.2c10.2 0 18.5-8.3 18.5-18.5v-245.5z" fill="#fff"/><path d="m283.1 18.5c0-10.2-8.3-18.5-18.5-18.5h-246.1c-10.2 0-18.5 8.3-18.5 18.5v245.5c0 10.2 8.3 18.5 18.5 18.5h246.2c10.2 0 18.5-8.3 18.5-18.5v-245.5z" fill="#a7a6a6"/><g fill="#fff"><path d="m133.7 19.9h11.6l25.8 25.8h-63.2z"/><path d="m110.2 70.2c1.8 0 3.3-1.5 3.3-3.3s-1.5-3.3-3.3-3.3-3.3 1.5-3.3 3.3 1.5 3.3 3.3 3.3z"/><path d="m102.1 97.2c2 0 3.7-1.6 3.7-3.7 0-2-1.6-3.6-3.7-3.6-2 0-3.6 1.6-3.6 3.6-.1 2.1 1.6 3.7 3.6 3.7z"/><path d="m93.9 124.5c2.3 0 4.2-1.9 4.2-4.2s-1.9-4.2-4.2-4.2-4.2 1.9-4.2 4.2c0 2.4 1.8 4.2 4.2 4.2z"/><path d="m195.2 151.5c2.7 0 4.8-2.2 4.8-4.8 0-2.7-2.2-4.8-4.8-4.8-2.7 0-4.8 2.2-4.8 4.8-.1 2.6 2.1 4.8 4.8 4.8z"/><path d="m96.8 178.9c3.1 0 5.6-2.5 5.6-5.6s-2.5-5.5-5.6-5.5-5.6 2.5-5.6 5.5c0 3.1 2.5 5.6 5.6 5.6z"/><ellipse cx="69.8" cy="198.4" rx="6.4" ry="6.4" transform="matrix(.3827 -.9239 .9239 .3827 -140.1975 186.8983)"/><path d="m62.3 230.1c3.9 0 7-3.1 7-7s-3.1-7-7-7-7 3.1-7 7c.1 3.9 3.2 7 7 7z"/><path d="m220.3 230.2c3.9 0 7-3.2 7-7 0-3.9-3.1-7-7-7s-7 3.1-7 7c0 3.8 3.1 7 7 7z"/><path d="m54.6 256.2c4.5 0 8-3.6 8-8s-3.6-8-8-8-8 3.6-8 8c-.1 4.4 3.5 8 8 8z"/><path d="m79.6 256.3c4.4 0 8-3.6 8-8.1 0-4.4-3.6-8-8-8s-8 3.6-8 8c0 4.5 3.6 8.1 8 8.1z"/><path d="m198.8 256.5c4.4 0 8-3.6 8-8 0-4.5-3.6-8-8-8-4.5 0-8.1 3.6-8.1 8 .1 4.4 3.7 8 8.1 8z"/><path d="m228.6 256.1c4.4 0 8-3.6 8-8s-3.6-8-8-8-8 3.6-8 8c-.1 4.4 3.5 8 8 8z"/><path d="m138.5 202.3c12.7 0 23-10.3 23-23s-10.3-23-23-23-23 10.3-23 23 10.3 23 23 23z"/><path d="m158.5 189.4 70.2.1-53.8 70.8h-65l-53.2-119.8 10.6-4.3s11.8 32.5 25.1 48.5c9.9 12 38.5 35.9 70.5 32.1 29.8-3.5 34.8-12.5 34.8-12.5l-41.9-11.3z"/><path d="m119.2 70.2c1.8 0 3.3-1.5 3.3-3.3s-1.5-3.3-3.3-3.3-3.3 1.5-3.3 3.3 1.5 3.3 3.3 3.3z"/><path d="m130.4 70.4c1.8 0 3.3-1.5 3.3-3.3s-1.5-3.3-3.3-3.3-3.3 1.5-3.3 3.3 1.5 3.3 3.3 3.3z"/><path d="m147.3 70.4c1.8 0 3.3-1.5 3.3-3.3s-1.5-3.3-3.3-3.3-3.3 1.5-3.3 3.3c-.1 1.8 1.4 3.3 3.3 3.3z"/><path d="m158.9 70.6c1.8 0 3.3-1.5 3.3-3.3s-1.5-3.3-3.3-3.3-3.3 1.5-3.3 3.3 1.5 3.3 3.3 3.3z"/><path d="m169.1 70.2c1.8 0 3.3-1.5 3.3-3.3s-1.5-3.3-3.3-3.3-3.3 1.5-3.3 3.3 1.5 3.3 3.3 3.3z"/><path d="m113.5 97c2 0 3.7-1.6 3.7-3.7 0-2-1.6-3.6-3.7-3.6-2 0-3.6 1.6-3.6 3.6-.1 2.1 1.6 3.7 3.6 3.7z"/><path d="m128 97.2c2 0 3.7-1.6 3.7-3.7 0-2-1.6-3.6-3.7-3.6-2 0-3.6 1.6-3.6 3.6-.1 2.1 1.5 3.7 3.6 3.7z"/><path d="m149.6 97.2c2 0 3.7-1.6 3.7-3.7 0-2-1.6-3.6-3.7-3.6s-3.6 1.6-3.6 3.6c-.1 2.1 1.6 3.7 3.6 3.7z"/><path d="m164.5 97.2c2 0 3.7-1.6 3.7-3.7 0-2-1.6-3.6-3.7-3.6-2 0-3.6 1.6-3.6 3.6 0 2.1 1.6 3.7 3.6 3.7z"/><path d="m177.8 97.2c2 0 3.7-1.6 3.7-3.7 0-2-1.6-3.6-3.7-3.6-2 0-3.6 1.6-3.6 3.6 0 2.1 1.6 3.7 3.6 3.7z"/><path d="m107.9 124.5c2.3 0 4.2-1.9 4.2-4.2s-1.9-4.2-4.2-4.2-4.2 1.9-4.2 4.2c0 2.4 1.9 4.2 4.2 4.2z"/><path d="m125.7 124.5c2.3 0 4.2-1.9 4.2-4.2s-1.9-4.2-4.2-4.2-4.2 1.9-4.2 4.2c0 2.4 1.9 4.2 4.2 4.2z"/><path d="m152.1 124.5c2.3 0 4.2-1.9 4.2-4.2s-1.9-4.2-4.2-4.2-4.2 1.9-4.2 4.2c0 2.4 1.8 4.2 4.2 4.2z"/><path d="m170.6 124.5c2.3 0 4.2-1.9 4.2-4.2s-1.9-4.2-4.2-4.2-4.2 1.9-4.2 4.2c0 2.4 1.9 4.2 4.2 4.2z"/><path d="m186.7 124.5c2.3 0 4.2-1.9 4.2-4.2s-1.9-4.2-4.2-4.2-4.2 1.9-4.2 4.2c0 2.4 1.9 4.2 4.2 4.2z"/><path d="m176.2 151.7c2.7 0 4.8-2.2 4.8-4.8 0-2.7-2.2-4.8-4.8-4.8-2.7 0-4.8 2.2-4.8 4.8-.1 2.6 2.1 4.8 4.8 4.8z"/><path d="m154.3 151.7c2.7 0 4.8-2.2 4.8-4.8 0-2.7-2.2-4.8-4.8-4.8-2.7 0-4.8 2.2-4.8 4.8s2.2 4.8 4.8 4.8z"/><path d="m123.2 151.7c2.7 0 4.8-2.2 4.8-4.8 0-2.7-2.2-4.8-4.8-4.8-2.7 0-4.8 2.2-4.8 4.8s2.1 4.8 4.8 4.8z"/><path d="m101.8 151.7c2.7 0 4.8-2.2 4.8-4.8 0-2.7-2.2-4.8-4.8-4.8-2.7 0-4.8 2.2-4.8 4.8s2.2 4.8 4.8 4.8z"/><path d="m85.4 151.7c2.7 0 4.8-2.2 4.8-4.8 0-2.7-2.2-4.8-4.8-4.8-2.7 0-4.8 2.2-4.8 4.8s2.2 4.8 4.8 4.8z"/><path d="m182 179.4c3.1 0 5.6-2.5 5.6-5.5 0-3.1-2.5-5.5-5.6-5.5s-5.6 2.5-5.6 5.5c.1 3 2.6 5.5 5.6 5.5z"/><path d="m204.1 179.4c3.1 0 5.6-2.5 5.6-5.5 0-3.1-2.5-5.5-5.6-5.5s-5.6 2.5-5.6 5.5c.1 3 2.6 5.5 5.6 5.5z"/></g></svg>