<svg enable-background="new 0 0 283.1 282.4" viewBox="0 0 283.1 282.4" xmlns="http://www.w3.org/2000/svg"><path d="m283.1 18.5c0-10.2-8.3-18.5-18.5-18.5h-246.1c-10.2 0-18.5 8.3-18.5 18.5v245.5c0 10.2 8.3 18.5 18.5 18.5h246.2c10.2 0 18.5-8.3 18.5-18.5v-245.5z" fill="#a7a6a6"/><path d="m283.1 18.5c0-10.2-8.3-18.5-18.5-18.5h-246.1c-10.2 0-18.5 8.3-18.5 18.5v245.5c0 10.2 8.3 18.5 18.5 18.5h246.2c10.2 0 18.5-8.3 18.5-18.5v-245.5z" fill="#a7a6a6"/><g fill="#fff"><path d="m141.6 79.1c-4.8 0-15-8.3-17.8-14.7-2.6-6.2-7.9-12.9 10.2-21.4 18-8.5 24.7 13.3 24.7 13.3l-11.4 5.7s-1 17.1-5.7 17.1z"/><path d="m33.3 224.3h107.4s-2.6 11.4-11.4 11.4c-8.6 0-78.9 0-78.9 0s-12.4 2.3-17.1-11.4z"/><path d="m261.3 216.8c0 5.7-17.1 19-17.1 19h-95v-7.6s21.9 1 34.2 1c12.4 0 11.4-5.7 11.4-5.7v-16.1s13.5-10.5 14.3 1.9c1 16.2-1 20.9 20 20.9 20.9 0 29.4-17.1 29.4-17.1s2.8-2 2.8 3.7z"/><path d="m98.8 165.1s-2.8-60.4 13.3-86c5-8 8.5-6.7 14.3-1.9 5.7 4.8 15.2 9.5 15.2 15.2s2.9 24.7 2.9 24.7l30.4 18 1-26.6 2.9-1 16.1 28.5 49.4 25.6v20.9l-26.7 30.5h-195.7s3.9-27.7 15.2-42.8c2.9-3.9-3.8-20-3.8-20h12.4l9.5 15.2zm36.1-14.8 20 20.9 15.2-21.8-28.5-15.2z"/></g></svg>