<?xml version="1.0" encoding="utf-8"?>
<!-- Generator: Adobe Illustrator 22.1.0, SVG Export Plug-In . SVG Version: 6.00 Build 0)  -->
<svg version="1.1" xmlns="http://www.w3.org/2000/svg" xmlns:xlink="http://www.w3.org/1999/xlink" x="0px" y="0px"
	 viewBox="0 0 283.1 282.4" style="enable-background:new 0 0 283.1 282.4;" xml:space="preserve">
<style type="text/css">
	.st0{fill:#A7A6A6;}
	.st1{fill:#FFFFFF;}
</style>
<g id="Z_Base_layer_130mm">
	<g>
		<path class="st0" d="M283.1,18.5c0-10.2-8.3-18.5-18.5-18.5H18.5C8.3,0,0,8.3,0,18.5V264c0,10.2,8.3,18.5,18.5,18.5h246.2
			c10.2,0,18.5-8.3,18.5-18.5V18.5z"/>
		<path class="st0" d="M283.1,18.5c0-10.2-8.3-18.5-18.5-18.5H18.5C8.3,0,0,8.3,0,18.5V264c0,10.2,8.3,18.5,18.5,18.5h246.2
			c10.2,0,18.5-8.3,18.5-18.5V18.5z"/>
	</g>
</g>
<g id="Snowmobiling">
	<g>
		<g>
			<g>
				<path class="st1" d="M141.6,79.1c-4.8,0-15-8.3-17.8-14.7c-2.6-6.2-7.9-12.9,10.2-21.4c18-8.5,24.7,13.3,24.7,13.3L147.3,62
					C147.3,62,146.3,79.1,141.6,79.1z"/>
				<path class="st1" d="M33.3,224.3h107.4c0,0-2.6,11.4-11.4,11.4c-8.6,0-78.9,0-78.9,0S38,238,33.3,224.3z"/>
				<path class="st1" d="M261.3,216.8c0,5.7-17.1,19-17.1,19h-95v-7.6c0,0,21.9,1,34.2,1c12.4,0,11.4-5.7,11.4-5.7v-16.1
					c0,0,13.5-10.5,14.3,1.9c1,16.2-1,20.9,20,20.9c20.9,0,29.4-17.1,29.4-17.1S261.3,211.1,261.3,216.8z"/>
				<path class="st1" d="M98.8,165.1c0,0-2.8-60.4,13.3-86c5-8,8.5-6.7,14.3-1.9c5.7,4.8,15.2,9.5,15.2,15.2
					c0,5.7,2.9,24.7,2.9,24.7l30.4,18l1-26.6l2.9-1l16.1,28.5l49.4,25.6v20.9L217.6,213H21.9c0,0,3.9-27.7,15.2-42.8
					c2.9-3.9-3.8-20-3.8-20h12.4l9.5,15.2L98.8,165.1z M134.9,150.3l20,20.9l15.2-21.8l-28.5-15.2L134.9,150.3z"/>
			</g>
		</g>
	</g>
</g>
</svg>
