<svg enable-background="new 0 0 283.1 282.4" viewBox="0 0 283.1 282.4" xmlns="http://www.w3.org/2000/svg"><path d="m283.1 18.5c0-10.2-8.3-18.5-18.5-18.5h-246.1c-10.2 0-18.5 8.3-18.5 18.5v245.5c0 10.2 8.3 18.5 18.5 18.5h246.2c10.2 0 18.5-8.3 18.5-18.5v-245.5z" fill="#4e6086"/><path d="m283.1 18.5c0-10.2-8.3-18.5-18.5-18.5h-246.1c-10.2 0-18.5 8.3-18.5 18.5v245.5c0 10.2 8.3 18.5 18.5 18.5h246.2c10.2 0 18.5-8.3 18.5-18.5v-245.5z" fill="#4e6086"/><g fill="#fff"><path d="m212.2 159.8c13.2 0 23.9-10.7 23.9-23.9s-10.7-23.9-23.9-23.9-23.9 10.7-23.9 23.9 10.7 23.9 23.9 23.9z"/><path d="m22.7 194.2c7.3 0 13.6-4.3 17-10.3 3.4 5.9 9.7 10.3 17 10.3s13.6-4.3 16.9-10.3c3.4 5.9 9.8 10.2 17.1 10.2s13.5-4.3 16.8-10.2h.1c3.4 5.9 9.6 10.2 17 10.2 7.3 0 13.6-4.3 17-10.3 3.4 5.9 9.8 10.2 17.1 10.2s13.5-4.3 16.9-10.2c3.4 5.9 9.9 10.2 17.2 10.2 2.1 0 4.1-.6 6-1.2 4.7-1.5 8.4-4.8 10.8-9 3.4 5.9 9.9 10.3 17.2 10.3s13.7-4.3 17-10.2h.1c3.4 5.9 9.4 10 16.3 10.3v11.8c-6.9-.3-13-4.3-16.3-10.2h.1c-3.4 5.9-9.8 10.2-17.1 10.2s-13.9-4.3-17.3-10.3c-3.4 5.9-9.5 10.3-16.8 10.3s-13.8-4.3-17.2-10.3c-3.4 5.9-9.6 10.3-16.9 10.3s-13.7-4.3-17.1-10.3c-3.4 5.9-9.7 10.2-17 10.2s-13.6-4.3-16.9-10.2c-3.4 5.9-9.5 10.2-16.9 10.2-7.3 0-13.8-4.3-17.1-10.3-3.4 6.1-9.7 10.4-17 10.4s-13.7-4.3-17-10.2c-3.4 5.9-9.7 10.2-17 10.2z"/><path d="m22.7 182.2c5.4 0 15.2-4.4 17-10h.1c3.4 5.9 9.7 10 17 10s13.6-4 16.9-10c3.4 5.9 9.9 10 17.2 10s13.4-4 16.8-10h.1c3.4 5.9 9.7 10 17 10s13.6-4.1 16.9-10c3.4 5.9 9.8 10 17.1 10s13.5-4 16.9-10c3.4 5.9 9.9 10 17.3 10 2.1 0 4.2-.2 6.2-1.4l.1-.2-74-108.3-79.9 38.1 5.5 4.9 65.8-14.8 19.8 28.7-113.7 43z"/></g></svg>