<?xml version="1.0" encoding="utf-8"?>
<!-- Generator: Adobe Illustrator 22.1.0, SVG Export Plug-In . SVG Version: 6.00 Build 0)  -->
<svg version="1.1" xmlns="http://www.w3.org/2000/svg" xmlns:xlink="http://www.w3.org/1999/xlink" x="0px" y="0px"
	 viewBox="0 0 283.1 282.4" style="enable-background:new 0 0 283.1 282.4;" xml:space="preserve">
<style type="text/css">
	.st0{fill:#A7A6A6;}
	.st1{fill:#FFFFFF;}
</style>
<g id="Z_Base_layer_130mm">
	<g>
		<path class="st0" d="M283.1,18.5c0-10.2-8.3-18.5-18.5-18.5H18.5C8.3,0,0,8.3,0,18.5V264c0,10.2,8.3,18.5,18.5,18.5h246.2
			c10.2,0,18.5-8.3,18.5-18.5V18.5z"/>
		<path class="st0" d="M283.1,18.5c0-10.2-8.3-18.5-18.5-18.5H18.5C8.3,0,0,8.3,0,18.5V264c0,10.2,8.3,18.5,18.5,18.5h246.2
			c10.2,0,18.5-8.3,18.5-18.5V18.5z"/>
	</g>
</g>
<g id="Swimming">
	<g>
		<g>
			<g>
				<g>
					<path class="st1" d="M212.2,159.8c13.2,0,23.9-10.7,23.9-23.9c0-13.2-10.7-23.9-23.9-23.9c-13.2,0-23.9,10.7-23.9,23.9
						C188.3,149.1,199,159.8,212.2,159.8z"/>
				</g>
				<path class="st1" d="M22.7,194.2c7.3,0,13.6-4.3,17-10.3h0c3.4,5.9,9.7,10.3,17,10.3c7.3,0,13.6-4.3,16.9-10.3h0
					c3.4,5.9,9.8,10.2,17.1,10.2c7.3,0,13.5-4.3,16.8-10.2h0.1c3.4,5.9,9.6,10.2,17,10.2c7.3,0,13.6-4.3,17-10.3h0
					c3.4,5.9,9.8,10.2,17.1,10.2c7.3,0,13.5-4.3,16.9-10.2h0c3.4,5.9,9.9,10.2,17.2,10.2c2.1,0,4.1-0.6,6-1.2
					c4.7-1.5,8.4-4.8,10.8-9h0c3.4,5.9,9.9,10.3,17.2,10.3c7.3,0,13.7-4.3,17-10.2l0.1,0c3.4,5.9,9.4,10,16.3,10.3l0,11.8
					c-6.9-0.3-13-4.3-16.3-10.2H244c-3.4,5.9-9.8,10.2-17.1,10.2c-7.3,0-13.9-4.3-17.3-10.3h0c-3.4,5.9-9.5,10.3-16.8,10.3
					c-7.3,0-13.8-4.3-17.2-10.3h0c-3.4,5.9-9.6,10.3-16.9,10.3c-7.3,0-13.7-4.3-17.1-10.3h0c-3.4,5.9-9.7,10.2-17,10.2
					c-7.3,0-13.6-4.3-16.9-10.2h0c-3.4,5.9-9.5,10.2-16.9,10.2c-7.3,0-13.8-4.3-17.1-10.3h0C70.3,201.7,64,206,56.7,206
					c-7.3,0-13.7-4.3-17-10.2h0c-3.4,5.9-9.7,10.2-17,10.2V194.2z"/>
				<path class="st1" d="M22.7,182.2c5.4,0,15.2-4.4,17-10h0.1c3.4,5.9,9.7,10,17,10c7.3,0,13.6-4,16.9-10h0c3.4,5.9,9.9,10,17.2,10
					c7.3,0,13.4-4,16.8-10h0.1c3.4,5.9,9.7,10,17,10c7.3,0,13.6-4.1,16.9-10h0c3.4,5.9,9.8,10,17.1,10c7.3,0,13.5-4,16.9-10h0
					c3.4,5.9,9.9,10,17.3,10c2.1,0,4.2-0.2,6.2-1.4l0.1-0.2l-74-108.3l-79.9,38.1l5.5,4.9l65.8-14.8l19.8,28.7l-113.7,43L22.7,182.2
					z"/>
			</g>
		</g>
	</g>
</g>
</svg>
