<?xml version="1.0" encoding="utf-8"?>
<!-- Generator: Adobe Illustrator 17.0.0, SVG Export Plug-In . SVG Version: 6.00 Build 0)  -->
<!DOCTYPE svg PUBLIC "-//W3C//DTD SVG 1.1//EN" "http://www.w3.org/Graphics/SVG/1.1/DTD/svg11.dtd">
<svg version="1.1" xmlns="http://www.w3.org/2000/svg" xmlns:xlink="http://www.w3.org/1999/xlink" x="0px" y="0px"
	 width="283.141px" height="282.438px" viewBox="0 0 283.141 282.438" enable-background="new 0 0 283.141 282.438"
	 xml:space="preserve">
<g id="Background">
	<path display="none" fill="#FFFFFF" d="M289.25,263.906c0,13.594-11.031,24.641-24.641,24.641H18.547
		c-13.609,0-24.641-11.047-24.641-24.641V18.516c0-13.594,11.031-24.625,24.641-24.625h246.062
		c13.609,0,24.641,11.031,24.641,24.625V263.906z M283.141,18.453C283.141,8.266,274.875,0,264.656,0H18.5C8.281,0,0,8.266,0,18.453
		v245.516c0,10.188,8.281,18.469,18.5,18.469h246.156c10.219,0,18.484-8.281,18.484-18.469V18.453z"/>
	<path fill="#A6A6A6" d="M283.141,18.453C283.141,8.266,274.875,0,264.656,0H18.5C8.281,0,0,8.266,0,18.453v245.516
		c0,10.188,8.281,18.469,18.5,18.469h246.156c10.219,0,18.484-8.281,18.484-18.469V18.453z"/>
	<path display="none" fill="none" stroke="#231F20" stroke-width="0.9992" d="M289.25,263.906c0,13.594-11.031,24.641-24.641,24.641
		H18.547c-13.609,0-24.641-11.047-24.641-24.641V18.516c0-13.594,11.031-24.625,24.641-24.625h246.062
		c13.609,0,24.641,11.031,24.641,24.625V263.906z"/>
</g>
<g id="Toilets">
	<polygon fill="#FFFFFF" points="20.246,259.578 262.91,259.578 262.91,53.5 141.574,25.078 20.246,53.141 	"/>
	<polygon fill="#A6A6A6" points="144.465,260.047 138.684,260.047 138.684,24.813 144.465,24.813 144.465,260.047 	"/>
	<path fill="#A6A6A6" d="M202.035,94.078c8.062,0,14.609-6.531,14.609-14.609s-6.547-14.609-14.609-14.609
		c-8.078,0-14.617,6.531-14.617,14.609S193.957,94.078,202.035,94.078z"/>
	<path fill="#A6A6A6" d="M183.465,234.672c0,3.938,3.195,7.125,7.125,7.125c3.937,0,7.125-3.188,7.125-7.125v-45.516h7.25v45.906
		c0,3.938,3.195,7.125,7.125,7.125c3.938,0,7.125-3.188,7.125-7.125v-45.953h18.312c0,0-15.336-61.469-16.586-66.438
		c-0.258-1.016,0.133-2.516,1.633-2.891c2.102-0.531,2.844,1.438,2.844,1.438s10.844,36,12.336,39.969
		c0.289,0.781,2.25,2.625,6.445,1.359c4.523-1.359,3.5-4.469,3.5-4.469s-12.914-44.906-14.664-50.766
		c-2.812-9.406-10.789-9.328-10.789-9.328s-36.398,0-41.781,0c-6.688,0-9.891,10.672-9.891,10.672L157.582,158.5
		c0,0-0.625,2.969,4.172,4.25c5.484,1.453,6.609-1.562,6.609-1.562s8.969-35.625,10.031-39.625c0.359-1.359,1.648-2.156,2.93-1.75
		c2.102,0.672,1.688,2.766,1.688,2.766l-15.711,66.516h16.164V234.672z"/>
	<path fill="#A6A6A6" d="M81.481,93.594c7.984,0,14.453-6.469,14.453-14.469c0-7.984-6.469-14.469-14.453-14.469
		c-8,0-14.477,6.484-14.477,14.469C67.004,87.125,73.481,93.594,81.481,93.594z"/>
	<path fill="#A6A6A6" d="M98.887,235.625c0,3.938-3.188,7.125-7.125,7.125c-3.93,0-7.125-3.188-7.125-7.125v-65.562h-7.25v65.172
		c0,3.938-3.188,7.125-7.125,7.125c-3.93,0-7.125-3.188-7.125-7.125V122.188c0,0.156-0.211-1.406-2.25-1.484
		c-1.641-0.062-2.258,1.562-2.258,1.578c0,1.766,0,1.766,0,42.25c0,0,0.219,4-5.57,4c-6.234,0-6.219-4.453-6.219-4.453v-55.172
		c0,0-0.078-11.109,13.375-11.109c8.453,0,43.984,0,43.984,0s11.312,0.906,11.312,11.125c0,10.234,0,55.156,0,55.156
		s-0.375,3.109-5.656,3.109c-5.945,0-6.312-3.109-6.312-3.109v-41.719c0,0-0.297-1.656-2.391-1.656
		c-1.031,0-2.266,1.094-2.266,1.891V235.625z"/>
</g>
</svg>
