<svg enable-background="new 0 0 283.141 282.438" height="282.438" viewBox="0 0 283.141 282.438" width="283.141" xmlns="http://www.w3.org/2000/svg"><path d="m283.141 18.453c0-10.187-8.266-18.453-18.485-18.453h-246.156c-10.219 0-18.5 8.266-18.5 18.453v245.516c0 10.188 8.281 18.469 18.5 18.469h246.156c10.219 0 18.484-8.281 18.484-18.469v-245.516z" fill="#a6a6a6"/><path d="m20.246 259.578h242.664v-206.078l-121.336-28.422-121.328 28.063z" fill="#fff"/><g fill="#a6a6a6"><path d="m144.465 260.047h-5.781v-235.234h5.781z"/><path d="m202.035 94.078c8.062 0 14.609-6.531 14.609-14.609s-6.547-14.609-14.609-14.609c-8.078 0-14.617 6.531-14.617 14.609s6.539 14.609 14.617 14.609z"/><path d="m183.465 234.672c0 3.938 3.195 7.125 7.125 7.125 3.937 0 7.125-3.188 7.125-7.125v-45.516h7.25v45.906c0 3.938 3.195 7.125 7.125 7.125 3.938 0 7.125-3.188 7.125-7.125v-45.953h18.312s-15.336-61.469-16.586-66.438c-.258-1.016.133-2.516 1.633-2.891 2.102-.531 2.844 1.438 2.844 1.438s10.844 36 12.336 39.969c.289.781 2.25 2.625 6.445 1.359 4.523-1.359 3.5-4.469 3.5-4.469s-12.914-44.906-14.664-50.766c-2.812-9.406-10.789-9.328-10.789-9.328s-36.398 0-41.781 0c-6.688 0-9.891 10.672-9.891 10.672l-12.992 49.845s-.625 2.969 4.172 4.25c5.484 1.453 6.609-1.562 6.609-1.562s8.969-35.625 10.031-39.625c.359-1.359 1.648-2.156 2.93-1.75 2.102.672 1.688 2.766 1.688 2.766l-15.711 66.516h16.164z"/><path d="m81.481 93.594c7.984 0 14.453-6.469 14.453-14.469 0-7.984-6.469-14.469-14.453-14.469-8 0-14.477 6.484-14.477 14.469 0 8 6.477 14.469 14.477 14.469z"/><path d="m98.887 235.625c0 3.938-3.188 7.125-7.125 7.125-3.93 0-7.125-3.188-7.125-7.125v-65.562h-7.25v65.172c0 3.938-3.188 7.125-7.125 7.125-3.93 0-7.125-3.188-7.125-7.125v-113.047c0 .156-.211-1.406-2.25-1.484-1.641-.062-2.258 1.562-2.258 1.578v42.25s.219 4-5.57 4c-6.234 0-6.219-4.453-6.219-4.453v-55.172s-.078-11.109 13.375-11.109h43.984s11.312.906 11.312 11.125v55.156s-.375 3.109-5.656 3.109c-5.945 0-6.312-3.109-6.312-3.109v-41.719s-.297-1.656-2.391-1.656c-1.031 0-2.266 1.094-2.266 1.891v113.03z"/></g></svg>