<svg enable-background="new 0 0 283.141 282.438" height="282.438" viewBox="0 0 283.141 282.438" width="283.141" xmlns="http://www.w3.org/2000/svg"><path d="m283.141 18.453c0-10.187-8.266-18.453-18.485-18.453h-246.156c-10.219 0-18.5 8.266-18.5 18.453v245.516c0 10.188 8.281 18.469 18.5 18.469h246.156c10.219 0 18.484-8.281 18.484-18.469v-245.516z" fill="#4d5f85"/><path d="m260.883 9.865h-233.301c-9.678 0-17.526 7.838-17.526 17.496v232.677c0 4.915 2.038 9.354 5.308 12.534l257.736-257.737c-3.156-3.071-7.461-4.97-12.217-4.97z" fill="#fff"/><path d="m51.817 118.25-28.809.047v-67.031s-.481-23.063 28.328-23.063h97.961l-18.258 89.812h13.445v7.672h-17.766v-7.203h-38.511s-.523 18.562-18.453 18.562c0 .001-17.937-.249-17.937-18.796z" fill="#4d5f85"/><path d="m52.723 48.656h41.332v18.422h-41.332z" fill="#fff"/><path d="m100.906 254.234h159.243v-14.703h-22.586l-56.844-98.625-57.039 98.61h-22.774z" fill="#fff"/><path d="m180.571 191.781-25.008 47.735h49.64z" fill="#4d5f85"/></svg>