<?xml version="1.0" encoding="utf-8"?>
<!-- Generator: Adobe Illustrator 17.0.0, SVG Export Plug-In . SVG Version: 6.00 Build 0)  -->
<!DOCTYPE svg PUBLIC "-//W3C//DTD SVG 1.1//EN" "http://www.w3.org/Graphics/SVG/1.1/DTD/svg11.dtd">
<svg version="1.1" xmlns="http://www.w3.org/2000/svg" xmlns:xlink="http://www.w3.org/1999/xlink" x="0px" y="0px"
	 width="283.141px" height="282.438px" viewBox="0 0 283.141 282.438" enable-background="new 0 0 283.141 282.438"
	 xml:space="preserve">
<g id="Background">
	<path display="none" fill="#FFFFFF" d="M289.25,263.906c0,13.594-11.031,24.641-24.641,24.641H18.547
		c-13.609,0-24.641-11.047-24.641-24.641V18.516c0-13.594,11.031-24.625,24.641-24.625h246.062
		c13.609,0,24.641,11.031,24.641,24.625V263.906z M283.141,18.453C283.141,8.266,274.875,0,264.656,0H18.5C8.281,0,0,8.266,0,18.453
		v245.516c0,10.188,8.281,18.469,18.5,18.469h246.156c10.219,0,18.484-8.281,18.484-18.469V18.453z"/>
	<path fill="#4D5F85" d="M283.141,18.453C283.141,8.266,274.875,0,264.656,0H18.5C8.281,0,0,8.266,0,18.453v245.516
		c0,10.188,8.281,18.469,18.5,18.469h246.156c10.219,0,18.484-8.281,18.484-18.469V18.453z"/>
	<path display="none" fill="none" stroke="#231F20" stroke-width="0.9992" d="M289.25,263.906c0,13.594-11.031,24.641-24.641,24.641
		H18.547c-13.609,0-24.641-11.047-24.641-24.641V18.516c0-13.594,11.031-24.625,24.641-24.625h246.062
		c13.609,0,24.641,11.031,24.641,24.625V263.906z"/>
</g>
<g id="Vehicle-Accessible_Camping">
	<path fill="#FFFFFF" d="M260.883,9.865H27.582c-9.678,0-17.526,7.838-17.526,17.496v232.677c0,4.915,2.038,9.354,5.308,12.534
		L273.1,14.835C269.944,11.764,265.639,9.865,260.883,9.865z"/>
	<path fill="#4D5F85" d="M51.817,118.25l-28.809,0.047V51.266c0,0-0.481-23.063,28.328-23.063c27.848,0,97.961,0,97.961,0
		l-18.258,89.812h13.445v7.672h-17.766v-7.203H88.207c0,0-0.523,18.562-18.453,18.562C69.754,137.047,51.817,136.797,51.817,118.25z
		"/>
	<rect x="52.723" y="48.656" fill="#FFFFFF" width="41.332" height="18.422"/>
	<polygon fill="#FFFFFF" points="100.906,254.234 260.149,254.234 260.149,239.531 237.563,239.531 180.719,140.906 123.68,239.516 
		100.906,239.516 	"/>
	<polygon fill="#4D5F85" points="180.571,191.781 155.563,239.516 205.203,239.516 	"/>
</g>
</svg>
