<svg enable-background="new 0 0 283.1 282.4" viewBox="0 0 283.1 282.4" xmlns="http://www.w3.org/2000/svg"><path d="m283.1 18.5c0-10.2-8.3-18.5-18.5-18.5h-246.1c-10.2 0-18.5 8.3-18.5 18.5v245.5c0 10.2 8.3 18.5 18.5 18.5h246.2c10.2 0 18.5-8.3 18.5-18.5v-245.5z" fill="#fff"/><path d="m283.1 18.5c0-10.2-8.3-18.5-18.5-18.5h-246.1c-10.2 0-18.5 8.3-18.5 18.5v245.5c0 10.2 8.3 18.5 18.5 18.5h246.2c10.2 0 18.5-8.3 18.5-18.5v-245.5z" fill="#4e6086"/><g fill="#fff"><path d="m89.6 85.3c15.7 0 28.4-12.7 28.4-28.4s-12.7-28.4-28.4-28.4-28.4 12.7-28.4 28.4c0 15.8 12.7 28.4 28.4 28.4z"/><path d="m49.5 90.2h90.8v-34.3l-13.8 2.7v-12.4l13.8 1.8v-7.4h24.2v7.4h9.5v8.5h-9.5v60.1h-43.2v137.2h-71.8z"/><path d="m157.7 162.3c9.5 0 17.2-7.7 17.2-17.2s-7.7-17.2-17.2-17.2-17.2 7.7-17.2 17.2 7.7 17.2 17.2 17.2z"/><path d="m136.6 253.8h45.4v-68h51.7v-15.9h-97.1z"/></g></svg>