<?xml version="1.0" encoding="utf-8"?>
<!-- Generator: Adobe Illustrator 17.0.0, SVG Export Plug-In . SVG Version: 6.00 Build 0)  -->
<!DOCTYPE svg PUBLIC "-//W3C//DTD SVG 1.1//EN" "http://www.w3.org/Graphics/SVG/1.1/DTD/svg11.dtd">
<svg version="1.1" xmlns="http://www.w3.org/2000/svg" xmlns:xlink="http://www.w3.org/1999/xlink" x="0px" y="0px"
	 width="283.129px" height="282.438px" viewBox="0 0 283.129 282.438" enable-background="new 0 0 283.129 282.438"
	 xml:space="preserve">
<g id="Background">
	<path display="none" fill="#FFFFFF" d="M289.239,263.906c0,13.594-11.031,24.641-24.633,24.641H18.535
		c-13.606,0-24.637-11.047-24.637-24.641V18.516c0-13.594,11.031-24.625,24.637-24.625h246.071
		c13.602,0,24.633,11.031,24.633,24.625V263.906z M283.129,18.453C283.129,8.266,274.864,0,264.653,0H18.488
		C8.281,0,0,8.266,0,18.453v245.516c0,10.188,8.281,18.469,18.488,18.469h246.165c10.211,0,18.477-8.281,18.477-18.469V18.453z"/>
	<path fill="#4D5F85" d="M283.129,18.453C283.129,8.266,274.864,0,264.653,0H18.488C8.281,0,0,8.266,0,18.453v245.516
		c0,10.188,8.281,18.469,18.488,18.469h246.165c10.211,0,18.477-8.281,18.477-18.469V18.453z"/>
	<path display="none" fill="none" stroke="#231F20" stroke-width="0.9992" d="M289.239,263.906
		c0,13.594-11.031,24.641-24.633,24.641H18.535c-13.606,0-24.637-11.047-24.637-24.641V18.516c0-13.594,11.031-24.625,24.637-24.625
		h246.071c13.602,0,24.633,11.031,24.633,24.625V263.906z"/>
</g>
<g id="Tents">
	<polygon fill="#FFFFFF" points="25.51,223.82 257.628,223.82 257.628,202.383 224.713,202.383 141.846,58.617 58.709,202.352 
		25.51,202.352 	"/>
	<polygon fill="#4D5F85" points="141.846,132.773 105.393,202.383 177.744,202.383 	"/>
</g>
</svg>
