<?xml version="1.0" encoding="utf-8"?>
<!-- Generator: Adobe Illustrator 22.1.0, SVG Export Plug-In . SVG Version: 6.00 Build 0)  -->
<svg version="1.1" xmlns="http://www.w3.org/2000/svg" xmlns:xlink="http://www.w3.org/1999/xlink" x="0px" y="0px"
	 viewBox="0 0 283.1 282.4" style="enable-background:new 0 0 283.1 282.4;" xml:space="preserve">
<style type="text/css">
	.st0{fill:#FFFFFF;}
	.st1{fill:#4E6086;}
	.st2{fill-rule:evenodd;clip-rule:evenodd;fill:#FFFFFF;}
</style>
<g id="Z_Base_layer_130mm">
	<g>
		<path class="st0" d="M283.1,18.5c0-10.2-8.3-18.5-18.5-18.5H18.5C8.3,0,0,8.3,0,18.5V264c0,10.2,8.3,18.5,18.5,18.5h246.2
			c10.2,0,18.5-8.3,18.5-18.5V18.5z"/>
		<path class="st1" d="M283.1,18.5c0-10.2-8.3-18.5-18.5-18.5H18.5C8.3,0,0,8.3,0,18.5V264c0,10.2,8.3,18.5,18.5,18.5h246.2
			c10.2,0,18.5-8.3,18.5-18.5V18.5z"/>
	</g>
</g>
<g id="water_skiing">
	<g>
		<g>
			<path class="st2" d="M43.6,244.9c6.1,10.1,17.3,15.4,25.3,6.1c3.8,3.8,6.3,6,14.4,6c8.1,0,11.9-3.6,14.7-5.4
				c0,0,7.1,5.4,14.9,5.4c7.8,0,7.3-0.3,13-2.5c3.8,1.6,13.3,4.1,27.6-2.2c4.2,2.5,9.6,5.6,17.1,4.7c7.5-0.9,13.4-3.7,13.4-3.7
				c4.2,2.5,9.2,3.8,14.1,3.8c4.9,0,14.3-4.4,14.3-4.4c15.6,13.5,27.2-10.9,27.3-11.3c-4.1,1.7-13.9,7.3-19.7,4.9
				c-3.1-1.3-6.9-6.3-6.9-6.8c0,0-16.8,13.4-29.2,1c-6.7,7.2-21.8,8.5-23.3,5.1c33.9-7.5,52.6-25.3,51.7-30.5
				c-0.5-2.8-3.6-8.7-5.3-10.4c-10.8,11.9-56.5,34.3-82.9,36.5c2.2-28.7,3.1-46.6,2.7-53.7c-0.2-2.8-6-19.7-17.6-50.9
				C100,113,82.4,124,81.4,140.9c-0.2,2.6,6.2,14,19.2,34.3c4.4,6.9,6.9,15.6,7.5,26.1c1.5,27.2,2.5,42,3.1,46.1
				c-8.4,0.9-11.3-2.9-13.3-8.9c-5.3,12.3-25.9,5.2-30,0.2C65,243.4,55.2,249.1,43.6,244.9 M54.2,62c-3.3,11.5,2.6,28.6,17.5,51.2
				c1.6,2.4,3.1,4.9,4.6,7.4l20.9-6.4V87l67.3,5.2c0,0,3.5-5.4,5.8-9C125.6,69.1,96,62,81.5,62H54.2z M63.5,24.2
				c-7.4,1.5-14.5,10.2-13.3,18c1.7,11.3,12.7,16.6,23.2,13.2C94.7,48.6,85,19.8,63.5,24.2z"/>
		</g>
	</g>
</g>
</svg>
