<svg enable-background="new 0 0 283.1 282.4" viewBox="0 0 283.1 282.4" xmlns="http://www.w3.org/2000/svg"><path d="m283.1 18.5c0-10.2-8.3-18.5-18.5-18.5h-246.1c-10.2 0-18.5 8.3-18.5 18.5v245.5c0 10.2 8.3 18.5 18.5 18.5h246.2c10.2 0 18.5-8.3 18.5-18.5v-245.5z" fill="#fff"/><path d="m283.1 18.5c0-10.2-8.3-18.5-18.5-18.5h-246.1c-10.2 0-18.5 8.3-18.5 18.5v245.5c0 10.2 8.3 18.5 18.5 18.5h246.2c10.2 0 18.5-8.3 18.5-18.5v-245.5z" fill="#4e6086"/><g fill="#fff"><path d="m125.5 181.6v-81.8h5 1.1v-5.6h-5.6v-8.3h3.3v-7.8h5.1v-12.3h-5.1v-12.8h-47.3v13.9h-5v11.7h4.5v7.3h5v7.8h-5v5.5h4.4v7.8h-36.7v13.4l-21.1 48.9v30.6h4.4l-3.9 16.7v12.8h69.9l-.1-13.4-3.6-16.6h30.7z"/><path d="m142.1 88.7h5.9v5.5h7.2v5.6h-7.5v20h12v13.1h-10v15.8h4.7v11.2h-4.2v8.6h10v13.1h-9.2-2.2v4.4h-6.9-.6-6.9v-4.4h-2.3-9.2v-13.1h10.1v-8.6h-4.2v-11.2h4.7v-15.8h-10v-13.1h12v-20h-7.5v-5.6h7.2v-5.5h5.8z"/><path d="m157.7 181.6v17.8h30.6l-3.7 16.4-.2 13.6h70.1v-12.8l-3.9-16.7h4.5v-30.6l-21.2-48.9v-13.4h-36.7v-7.8h4.5v-5.5h-5v-7.8h5v-7.3h4.4v-11.7h-5v-13.9h-47.3v12.8h-5v12.3h5v7.8h3.4v8.3h-5.6v5.6h1.1 5z"/></g></svg>