<?xml version="1.0" encoding="utf-8"?>
<!-- Generator: Adobe Illustrator 22.1.0, SVG Export Plug-In . SVG Version: 6.00 Build 0)  -->
<svg version="1.1" id="Layer_1" xmlns="http://www.w3.org/2000/svg" xmlns:xlink="http://www.w3.org/1999/xlink" x="0px" y="0px"
	 viewBox="0 0 283.1 282.4" style="enable-background:new 0 0 283.1 282.4;" xml:space="preserve">
<style type="text/css">
	.st0{clip-path:url(#SVGID_2_);}
	.st1{fill:#FFFFFF;}
	.st2{fill:#A7A6A6;}
</style>
<g>
	<g>
		<defs>
			<polyline id="SVGID_1_" points="441.2,621.1 -170.8,621.1 -170.8,-170.9 441.2,-170.9 			"/>
		</defs>
		<clipPath id="SVGID_2_">
			<use xlink:href="#SVGID_1_"  style="overflow:visible;"/>
		</clipPath>
		<g class="st0">
			<defs>
				<polyline id="SVGID_3_" points="441.2,-170.9 -170.8,-170.9 -170.8,621.1 441.2,621.1 				"/>
			</defs>
			<clipPath id="SVGID_4_">
				<use xlink:href="#SVGID_3_"  style="overflow:visible;"/>
			</clipPath>
		</g>
		<g class="st0">
			<defs>
				<polyline id="SVGID_5_" points="441.2,-170.9 -170.8,-170.9 -170.8,621.1 441.2,621.1 				"/>
			</defs>
			<clipPath id="SVGID_6_">
				<use xlink:href="#SVGID_5_"  style="overflow:visible;"/>
			</clipPath>
		</g>
		<g class="st0">
			<path class="st1" d="M283.1,18.5c0-10.2-8.3-18.5-18.5-18.5H18.5C8.3,0,0,8.3,0,18.5V264c0,10.2,8.3,18.5,18.5,18.5h246.2
				c10.2,0,18.5-8.3,18.5-18.5V18.5z"/>
			<path class="st2" d="M283.1,18.5c0-10.2-8.3-18.5-18.5-18.5H18.5C8.3,0,0,8.3,0,18.5V264c0,10.2,8.3,18.5,18.5,18.5h246.2
				c10.2,0,18.5-8.3,18.5-18.5V18.5z"/>
		</g>
		<g class="st0">
			<path class="st1" d="M211.1,21.1c0,0-57.9,150.8-90.7,208.7c-2.3,4-1.1-14.2-1.1-14.2s-11.8-8.9-6.1-46.7
				c0.8-5.6-10.1-4.5,5-37.4C140.9,82.1,211.1,21.1,211.1,21.1"/>
			<path class="st1" d="M124.8,221.1l-8.9,20.6l40.6-38.7L145,190.5l-8.8-1.6l7.1-14.2l4.4,9.3l22.4,1.6l9.8,9.8
				c0,0-21.3,27.8-23.5,29c-2.2,1.1-31.9,19.3-31.9,19.3l15.8,3.5l-3.1,4.9c0,0-7.6-4.5-14.9-2.7c-4,1-7.3,3.7-10.5,2.1
				c-3.3-1.6-7.1-4.4-10.4-2.8c-3.3,1.6-7.3,4.5-9.5,1.7c-2.2-2.7-2.7-5.8-2.7-5.8l23.5-3.8l8.2-21.3L124.8,221.1z"/>
			<path class="st1" d="M182.1,188.6c4.7,0,8.5-3.8,8.5-8.5c0-4.7-3.8-8.5-8.5-8.5c-4.7,0-8.5,3.8-8.5,8.5
				C173.6,184.8,177.4,188.6,182.1,188.6"/>
			<path class="st1" d="M70.9,255.6c0.1-0.1,1.1-0.9,2.8-1.8c1.7-0.9,4.1-1.8,7-1.8c1.5,0,2.7,0.3,3.7,0.8c0.7,0.4,1.3,0.8,1.7,1.2
				c0.7,0.6,1.2,1,2,1.3c0.8,0.3,1.8,0.6,3.6,0.6c1.6,0,2.5-0.2,3.1-0.5c0.5-0.2,0.8-0.4,1.2-0.8c0.3-0.2,0.6-0.5,1-0.9
				c0.6-0.5,1.4-1,2.4-1.4c1-0.4,2.3-0.6,3.8-0.6c1.8,0,3.3,0.3,4.4,0.8c0.9,0.4,1.6,0.9,2.1,1.3c0.8,0.7,1.4,1.1,2.1,1.5
				c0.7,0.3,1.5,0.6,3.1,0.6c1.4,0,2.3-0.2,2.9-0.5c0.5-0.2,0.8-0.4,1.2-0.8c0.6-0.5,1.4-1.2,2.7-1.8c1.2-0.6,2.9-1,5-1
				c1.9,0,3.5,0.3,4.7,0.8c0.9,0.4,1.7,0.9,2.3,1.3c0.9,0.7,1.6,1.2,2.3,1.6c0.7,0.4,1.7,0.6,3.3,0.6c1.5,0,2.4-0.2,3.2-0.5
				c0.6-0.2,1.1-0.5,1.6-0.9c0.8-0.5,1.7-1.3,2.9-1.9c1.3-0.6,2.9-1,4.9-1h0.1l0.1,0c0.2,0,1.6,0.1,3.4,1l-1.6,3.4
				c-0.6-0.3-1.1-0.4-1.5-0.5c-0.2,0-0.3-0.1-0.4-0.1l-0.1,0l0,0l0.1-1l-0.1,1l0,0l0.1-1l-0.1,1l0.1-1.9v1.9c-1.4,0-2.2,0.2-3,0.5
				c-0.5,0.2-1,0.5-1.6,0.9c-0.8,0.5-1.7,1.3-3,1.9c-1.3,0.6-3,1-5.1,1c-1.9,0-3.4-0.3-4.6-0.8c-0.9-0.4-1.6-0.9-2.2-1.3
				c-0.9-0.7-1.5-1.2-2.3-1.6c-0.8-0.4-1.8-0.6-3.5-0.7c-1.6,0-2.5,0.2-3.1,0.5c-0.5,0.2-0.9,0.4-1.3,0.8c-0.3,0.2-0.7,0.5-1.1,0.8
				c-0.6,0.5-1.4,1-2.5,1.3c-1,0.4-2.3,0.6-3.8,0.6c-1.8,0-3.3-0.3-4.4-0.8c-0.9-0.4-1.6-0.9-2.1-1.3c-0.8-0.7-1.4-1.1-2.1-1.5
				c-0.7-0.3-1.5-0.6-3.1-0.6c-1.4,0-2.2,0.2-2.8,0.5c-0.4,0.2-0.8,0.4-1.2,0.8c-0.6,0.5-1.4,1.3-2.6,1.9c-0.6,0.3-1.3,0.6-2.2,0.7
				c-0.8,0.2-1.8,0.3-2.8,0.3c-1.9,0-3.4-0.3-4.6-0.7c-0.9-0.3-1.6-0.8-2.2-1.2c-0.9-0.6-1.5-1.2-2-1.5c-0.3-0.2-0.5-0.3-0.8-0.4
				c-0.3-0.1-0.7-0.1-1.3-0.1c-2,0-3.9,0.7-5.3,1.4c-0.7,0.3-1.2,0.7-1.6,0.9c-0.2,0.1-0.3,0.2-0.4,0.3l-0.1,0.1l0,0l-0.3-0.4
				l0.3,0.4l0,0l-0.3-0.4l0.3,0.4L70.9,255.6L70.9,255.6z"/>
		</g>
	</g>
</g>
</svg>
