<svg enable-background="new 0 0 283.141 282.438" height="282.438" viewBox="0 0 283.141 282.438" width="283.141" xmlns="http://www.w3.org/2000/svg"><path d="m283.141 18.461c0-10.192-8.274-18.461-18.485-18.461h-246.164c-10.211 0-18.492 8.269-18.492 18.461v245.504c0 10.195 8.281 18.473 18.492 18.473h246.164c10.211 0 18.484-8.277 18.484-18.473v-245.504z" fill="#a6a6a6"/><path clip-rule="evenodd" d="m265.953 19.519c-3.219-3.047-7.484-4.879-12.188-4.879h-218.906c-9.828 0-17.75 7.949-17.75 17.723v218.938c0 4.746 1.844 8.988 4.844 12.16.047.039.094.109.141.148l243.953-244.011c-.039-.028-.07-.079-.094-.079zm-151.687 231.782h-10.828v8.41h156.359v-8.41h-12.039l-66.148-105.262zm40.875.015 26.453-39.688 25.281 39.688z" fill="#fff" fill-rule="evenodd"/><path d="m102.84 85.533-2.494 4.318-3.302-1.912 2.202-3.805-.806-3.004-3.808 1.022-1.759 3.044-1.773-1.027 1.315-2.287-2.283-1.316-1.03 1.78-1.775-1.028 4.777-3.341-4.646-3.234 1.777-1.027 1.025 1.775 2.289-1.316-1.322-2.287 1.778-1.022 1.76 3.044 3.806 1.023.804-3.006-2.197-3.811 3.303-1.905 2.494 4.316 3.045-1.76.616-9.499-8.533-4.216-3.049 1.756 2.494 4.322-3.302 1.905-2.2-3.811-3.006-.806-1.021 3.807 1.762 3.043-1.781 1.033-1.317-2.285-2.289 1.315 1.027 1.78-1.777 1.027-.441-6.203-5.373 2.503v-2.054h2.053v-2.64h-2.643v-2.05h3.521l2.784-2.788-2.197-2.199h-4.398v-3.812h4.984v-3.521l-7.918-5.278-7.919 5.278v3.521h4.986v3.812h-4.4l-2.201 2.199 2.788 2.788h3.519v2.05h-2.639v2.64h2.052v2.054l-5.397-2.546-.46 5.59-1.78-1.026 1.029-1.775-2.287-1.322-1.318 2.286-1.78-1.026 1.761-3.05-1.018-3.806-3.009.806-2.199 3.811-3.303-1.905 2.495-4.316-3.049-1.761-8.528 4.216.613 9.503 3.048 1.756 2.488-4.317 3.302 1.905-2.196 3.811.805 3.005 3.805-1.022 1.759-3.043 1.779 1.022-1.319 2.285 2.286 1.323 1.025-1.78 1.78 1.027-4.829 3.43 4.68 3.42-1.775 1.022-1.03-1.781-2.286 1.321 1.322 2.287-1.78 1.026-1.759-3.049-3.808-1.018-.806 3.001 2.202 3.81-3.302 1.91-2.494-4.316-3.049 1.761-.612 9.494 8.534 4.215 3.045-1.756-2.491-4.316 3.299-1.905 2.2 3.806 3.006.806 1.022-3.807-1.762-3.048 1.778-1.022 1.318 2.28 2.287-1.315-1.027-1.78 1.777-1.027.473 5.792 4.986-2.344v2.05h-2.054v2.639h2.639v2.055h-3.518l-2.785 2.784 2.199 2.205h4.399v3.81h-4.988v3.522l7.921 5.276 7.919-5.276v-3.522h-4.985v-3.81h4.4l2.2-2.202-2.789-2.79h-3.519v-2.055h2.641v-2.639h-2.055v-2.05l5.656 2.585.579-5.648 1.777 1.023-1.024 1.784 2.283 1.317 1.322-2.287 1.774 1.027-1.76 3.045 1.022 3.811 3.005-.807 2.197-3.81 3.302 1.904-2.491 4.318 3.046 1.76 8.534-4.216-.613-9.497zm-14.994-7.561-3.939 3.403-5.732-3.31 5.866-3.381zm8.467-12.746s-14.649 10.998-15.749 9.094c-1.097-1.903 15.749-9.094 15.749-9.094zm-22.153-12.958s2.202 18.186 0 18.186c-2.198 0 0-18.186 0-18.186zm-7.229 13.355 5.031 1.748v6.543l-5.959-3.44zm-14.721-.74s16.85 7.183 15.747 9.089c-1.1 1.904-15.747-9.089-15.747-9.089zm-.441 25.513s14.649-10.999 15.749-9.094c1.097 1.906-15.749 9.094-15.749 9.094zm19.644-2.344-4.581 1.593-.976-5.094 5.557-3.211zm2.017 15.543s-2.202-18.187 0-18.187c2.196 0 0 18.187 0 18.187zm7.469-13.675-5.379-1.868v-6.598c-.562.31-1.203.486-1.886.486-2.214 0-4.009-1.848-4.009-4.13 0-.062.006-.122.01-.184l-5.832 3.367-3.956-3.42 4.104-3.545 5.706 3.293c.233-2.055 1.923-3.641 3.978-3.641.916 0 1.758.318 2.433.85v-7.16l4.876-1.694 1.043 5.448-5.912 3.411c.953.755 1.571 1.937 1.571 3.274 0 1.515-.792 2.834-1.972 3.552l6.181 3.568zm-.265-8.232c1.1-1.909 15.747 9.088 15.747 9.088s-16.85-7.186-15.747-9.088z" fill="#a6a6a6"/></svg>