<?xml version="1.0" encoding="utf-8"?>
<!-- Generator: Adobe Illustrator 17.0.0, SVG Export Plug-In . SVG Version: 6.00 Build 0)  -->
<!DOCTYPE svg PUBLIC "-//W3C//DTD SVG 1.1//EN" "http://www.w3.org/Graphics/SVG/1.1/DTD/svg11.dtd">
<svg version="1.1" xmlns="http://www.w3.org/2000/svg" xmlns:xlink="http://www.w3.org/1999/xlink" x="0px" y="0px"
	 width="283.141px" height="282.438px" viewBox="0 0 283.141 282.438" enable-background="new 0 0 283.141 282.438"
	 xml:space="preserve">
<g id="Background">
	<path display="none" fill="#FFFFFF" d="M289.25,263.902c0,13.605-11.039,24.645-24.641,24.645H18.539
		c-13.602,0-24.633-11.039-24.633-24.645V18.516c0-13.598,11.031-24.625,24.633-24.625h246.07c13.602,0,24.641,11.027,24.641,24.625
		V263.902z M283.141,18.461C283.141,8.269,274.867,0,264.656,0H18.492C8.281,0,0,8.269,0,18.461v245.504
		c0,10.195,8.281,18.473,18.492,18.473h246.164c10.211,0,18.484-8.277,18.484-18.473V18.461z"/>
	<path fill="#A6A6A6" d="M283.141,18.461C283.141,8.269,274.867,0,264.656,0H18.492C8.281,0,0,8.269,0,18.461v245.504
		c0,10.195,8.281,18.473,18.492,18.473h246.164c10.211,0,18.484-8.277,18.484-18.473V18.461z"/>
	<path display="none" fill="none" stroke="#231F20" stroke-width="0.9992" d="M289.25,263.902c0,13.605-11.039,24.645-24.641,24.645
		H18.539c-13.602,0-24.633-11.039-24.633-24.645V18.516c0-13.598,11.031-24.625,24.633-24.625h246.07
		c13.602,0,24.641,11.027,24.641,24.625V263.902z"/>
</g>
<g id="Winter_Camping">
	<path fill-rule="evenodd" clip-rule="evenodd" fill="#FFFFFF" d="M265.953,19.519c-3.219-3.047-7.484-4.879-12.188-4.879H34.859
		c-9.828,0-17.75,7.949-17.75,17.723v218.938c0,4.746,1.844,8.988,4.844,12.16c0.047,0.039,0.094,0.109,0.141,0.148L266.047,19.598
		C266.008,19.57,265.977,19.519,265.953,19.519z M114.266,251.301h-10.828v8.41h156.359v-8.41h-12.039l-66.148-105.262
		L114.266,251.301z M155.141,251.316l26.453-39.688l25.281,39.688H155.141z"/>
	<path fill="#A6A6A6" d="M102.84,85.533l-2.494,4.318l-3.302-1.912l2.202-3.805L98.44,81.13l-3.808,1.022l-1.759,3.044L91.1,84.169
		l1.315-2.287l-2.283-1.316l-1.03,1.78l-1.775-1.028l4.777-3.341l-4.646-3.234l1.777-1.027l1.025,1.775l2.289-1.316l-1.322-2.287
		l1.778-1.022l1.76,3.044l3.806,1.023l0.804-3.006l-2.197-3.811l3.303-1.905l2.494,4.316l3.045-1.76l0.616-9.499l-8.533-4.216
		l-3.049,1.756l2.494,4.322l-3.302,1.905l-2.2-3.811l-3.006-0.806l-1.021,3.807l1.762,3.043L88,66.301l-1.317-2.285l-2.289,1.315
		l1.027,1.78l-1.777,1.027l-0.441-6.203l-5.373,2.503v-2.054h2.053v-2.64H77.24v-2.05h3.521l2.784-2.788l-2.197-2.199h-4.398v-3.812
		h4.984v-3.521l-7.918-5.278l-7.919,5.278v3.521h4.986v3.812h-4.4l-2.201,2.199l2.788,2.788h3.519v2.05H68.15v2.64h2.052v2.054
		l-5.397-2.546l-0.46,5.59l-1.78-1.026l1.029-1.775l-2.287-1.322l-1.318,2.286l-1.78-1.026l1.761-3.05l-1.018-3.806l-3.009,0.806
		l-2.199,3.811l-3.303-1.905l2.495-4.316l-3.049-1.761l-8.528,4.216l0.613,9.503l3.048,1.756l2.488-4.317l3.302,1.905l-2.196,3.811
		l0.805,3.005l3.805-1.022l1.759-3.043l1.779,1.022l-1.319,2.285l2.286,1.323l1.025-1.78l1.78,1.027l-4.829,3.43l4.68,3.42
		l-1.775,1.022L57.58,80.18l-2.286,1.321l1.322,2.287l-1.78,1.026l-1.759-3.049l-3.808-1.018l-0.806,3.001l2.202,3.81l-3.302,1.91
		l-2.494-4.316l-3.049,1.761l-0.612,9.494l8.534,4.215l3.045-1.756l-2.491-4.316l3.299-1.905l2.2,3.806l3.006,0.806l1.022-3.807
		l-1.762-3.048l1.778-1.022l1.318,2.28l2.287-1.315l-1.027-1.78l1.777-1.027l0.473,5.792l4.986-2.344v2.05h-2.054v2.639h2.639v2.055
		h-3.518l-2.785,2.784l2.199,2.205h4.399v3.81h-4.988v3.522l7.921,5.276l7.919-5.276v-3.522H76.4v-3.81h4.4L83,100.517l-2.789-2.79
		h-3.519v-2.055h2.641v-2.639h-2.055v-2.05l5.656,2.585l0.579-5.648l1.777,1.023l-1.024,1.784l2.283,1.317l1.322-2.287l1.774,1.027
		l-1.76,3.045l1.022,3.811l3.005-0.807l2.197-3.81l3.302,1.904l-2.491,4.318l3.046,1.76l8.534-4.216l-0.613-9.497L102.84,85.533z
		 M87.846,77.972l-3.939,3.403l-5.732-3.31l5.866-3.381L87.846,77.972z M96.313,65.226c0,0-14.649,10.998-15.749,9.094
		C79.467,72.417,96.313,65.226,96.313,65.226z M74.16,52.268c0,0,2.202,18.186,0,18.186C71.962,70.454,74.16,52.268,74.16,52.268z
		 M66.931,65.623l5.031,1.748v6.543l-5.959-3.44L66.931,65.623z M52.21,64.883c0,0,16.85,7.183,15.747,9.089
		C66.857,75.876,52.21,64.883,52.21,64.883z M51.769,90.396c0,0,14.649-10.999,15.749-9.094
		C68.615,83.208,51.769,90.396,51.769,90.396z M71.413,88.052l-4.581,1.593l-0.976-5.094l5.557-3.211V88.052z M73.43,103.595
		c0,0-2.202-18.187,0-18.187C75.626,85.408,73.43,103.595,73.43,103.595z M80.899,89.92l-5.379-1.868v-6.598
		c-0.562,0.31-1.203,0.486-1.886,0.486c-2.214,0-4.009-1.848-4.009-4.13c0-0.062,0.006-0.122,0.01-0.184l-5.832,3.367l-3.956-3.42
		l4.104-3.545l5.706,3.293c0.233-2.055,1.923-3.641,3.978-3.641c0.916,0,1.758,0.318,2.433,0.85v-7.16l4.876-1.694l1.043,5.448
		l-5.912,3.411c0.953,0.755,1.571,1.937,1.571,3.274c0,1.515-0.792,2.834-1.972,3.552l6.181,3.568L80.899,89.92z M80.634,81.688
		c1.1-1.909,15.747,9.088,15.747,9.088S79.531,83.59,80.634,81.688z"/>
</g>
</svg>
