<?xml version="1.0" encoding="utf-8"?>
<!-- Generator: Adobe Illustrator 22.1.0, SVG Export Plug-In . SVG Version: 6.00 Build 0)  -->
<svg version="1.1" xmlns="http://www.w3.org/2000/svg" xmlns:xlink="http://www.w3.org/1999/xlink" x="0px" y="0px"
	 viewBox="0 0 283.1 282.4" style="enable-background:new 0 0 283.1 282.4;" xml:space="preserve">
<style type="text/css">
	.st0{fill:#FFFFFF;}
	.st1{fill:#4E6086;}
</style>
<g id="Z_Base_layer_130mm">
	<g>
		<path class="st0" d="M283.1,18.5c0-10.2-8.3-18.5-18.5-18.5H18.5C8.3,0,0,8.3,0,18.5V264c0,10.2,8.3,18.5,18.5,18.5h246.2
			c10.2,0,18.5-8.3,18.5-18.5V18.5z"/>
		<path class="st1" d="M283.1,18.5c0-10.2-8.3-18.5-18.5-18.5H18.5C8.3,0,0,8.3,0,18.5V264c0,10.2,8.3,18.5,18.5,18.5h246.2
			c10.2,0,18.5-8.3,18.5-18.5V18.5z"/>
	</g>
</g>
<g id="Winter_Rec_Area">
	<path class="st0" d="M235.2,166.6l-8.1,14l-10.7-6.2l7.1-12.3l-2.6-9.7l-12.3,3.3l-5.7,9.9l-5.8-3.3l4.3-7.4l-7.4-4.3l-3.3,5.8
		l-5.8-3.3l15.5-10.8l-15.1-10.5l5.8-3.3l3.3,5.8l7.4-4.3l-4.3-7.4l5.8-3.3l5.7,9.9l12.3,3.3l2.6-9.7l-7.1-12.3l10.7-6.2l8.1,14
		l9.9-5.7l2-30.8l-27.6-13.7l-9.9,5.7l8.1,14l-10.7,6.2l-7.1-12.3l-9.7-2.6l-3.3,12.3l5.7,9.9l-5.8,3.3l-4.3-7.4l-7.4,4.3l3.3,5.8
		l-5.8,3.3l-1.4-20.1l-17.4,8.1v-6.7h6.6V83h-8.6v-6.6h11.4l9-9l-7.1-7.1h-14.3V47.9h16.1V36.5l-25.6-17.1l-25.6,17.1v11.4h16.1
		v12.3h-14.2l-7.1,7.1l9,9h11.4V83h-8.5v8.5h6.6v6.7L112,90l-1.5,18.1l-5.8-3.3l3.3-5.8l-7.4-4.3l-4.3,7.4l-5.8-3.3l5.7-9.9
		l-3.3-12.3l-9.7,2.6l-7.1,12.3l-10.7-6.2l8.1-14l-9.9-5.7L36.1,79.4l2,30.8l9.9,5.7l8.1-14l10.7,6.2l-7.1,12.3l2.6,9.7l12.3-3.3
		l5.7-9.9l5.8,3.3l-4.3,7.4l7.4,4.3l3.3-5.8l5.8,3.3l-15.6,11.1l15.2,11.1L92,155l-3.3-5.8l-7.4,4.3l4.3,7.4l-5.8,3.3l-5.7-9.9
		l-12.3-3.3l-2.6,9.7l7.1,12.3l-10.7,6.2l-8.1-14l-9.9,5.7l-2,30.8l27.6,13.7l9.9-5.7l-8.1-14l10.7-6.2l7.1,12.3l9.7,2.6l3.3-12.3
		l-5.7-9.9L96,179l4.3,7.4l7.4-4.3l-3.3-5.8l5.8-3.3l1.5,18.8l16.1-7.6v6.6h-6.6v8.5h8.5v6.7h-11.4l-9,9l7.1,7.1h14.3v12.3h-16.2
		V246l25.7,17.1l25.6-17.1v-11.4h-16.1v-12.3h14.3l7.1-7.1l-9-9h-11.4v-6.7h8.6v-8.5h-6.7v-6.6l18.3,8.4l1.9-18.3l5.8,3.3l-3.3,5.8
		l7.4,4.3l4.3-7.4l5.8,3.3l-5.7,9.9l3.3,12.3l9.7-2.6l7.1-12.3l10.7,6.2l-8.1,14l9.9,5.7l27.6-13.7l-2-30.8L235.2,166.6z
		 M186.7,142.1l-12.8,11l-18.6-10.7l19-11L186.7,142.1z M214.1,100.8c0,0-47.5,35.6-51,29.5C159.5,124.1,214.1,100.8,214.1,100.8z
		 M142.3,58.8c0,0,7.1,58.9,0,58.9C135.2,117.7,142.3,58.8,142.3,58.8z M118.9,102.1l16.3,5.7v21.2l-19.3-11.1L118.9,102.1z
		 M71.2,99.7c0,0,54.6,23.3,51,29.4C118.7,135.3,71.2,99.7,71.2,99.7z M69.8,182.3c0,0,47.5-35.6,51-29.5
		C124.4,159,69.8,182.3,69.8,182.3z M133.4,174.7l-14.8,5.2l-3.2-16.5l18-10.4V174.7z M140,225.1c0,0-7.1-58.9,0-58.9
		C147.1,166.1,140,225.1,140,225.1z M164.2,180.8l-17.4-6.1v-21.4c-1.8,1-3.9,1.6-6.1,1.6c-7.2,0-13-6-13-13.4c0-0.2,0-0.4,0-0.6
		l-18.9,10.9L96,140.8l13.3-11.5l18.5,10.7c0.8-6.7,6.2-11.8,12.9-11.8c3,0,5.7,1,7.9,2.8v-23.2l15.8-5.5l3.4,17.6l-19.2,11.1
		c3.1,2.4,5.1,6.3,5.1,10.6c0,4.9-2.6,9.2-6.4,11.5l20,11.6L164.2,180.8z M163.3,154.1c3.6-6.2,51,29.4,51,29.4
		S159.7,160.3,163.3,154.1z"/>
</g>
</svg>
