<svg id="BC_Parks_Logo" data-name="BC Parks Logo" xmlns="http://www.w3.org/2000/svg" xmlns:xlink="http://www.w3.org/1999/xlink" viewBox="0 0 1080 470.75"><defs><style>.cls-1{fill:none;}.cls-2{clip-path:url(#clip-path);}.cls-3{fill:#fff;}.cls-4{fill:#fdb913;}.cls-5{fill:#4b6ea7;}</style><clipPath id="clip-path"><rect class="cls-1" x="65.05" y="90.61" width="949.91" height="289.52"/></clipPath></defs><g class="cls-2"><path class="cls-3" d="M1012,317.56a35.92,35.92,0,0,1,2.47,12.49c-.61,1.07-2.93,1.38-3.7.46-2.62-6.78-7.24-11.26-13.56-11.26-6,0-9.87,3.86-9.87,9.41,0,6.32,6.48,9.71,11.87,12.79,8.17,4.63,15.72,9.86,15.72,20.81,0,11.71-10.79,17.57-22.19,17.57-7.25,0-12.64-1.54-16.49-4.62-1.24-2.93-2.16-10.49-1.85-15.57a2.61,2.61,0,0,1,3.54-.16c2.63,8.48,7.55,15.88,16.34,15.88,5.55,0,10.33-3.24,10.33-9.86,0-7.09-6.17-10.95-11.87-14.19-8.94-5.08-15.26-10.48-15.26-18.95,0-11.25,9.25-17.58,21-17.58,6.47,0,12.18,1.55,13.56,2.78"/><path class="cls-3" d="M908,290.74c0-9.09-.16-10-4.78-12.79l-1.55-.92c-.77-.47-.77-2.63,0-3.09,3.86-1.23,11.1-3.54,16.65-6.47a1.69,1.69,0,0,1,1.54.93c-.15,4.62-.46,12.33-.46,19.1v52.87c0,2,.15,2.31,2.78,2.31,3.39,0,6.31-1.69,10.48-6l6.32-6.78c4.31-4.62,5.39-6.32,5.39-7.09s-.77-1.23-3.4-1.54l-3.69-.46c-1.39-.47-1.39-3.39,0-3.85h3.55a239.5,239.5,0,0,0,24.5-1.24c1.08.46,1.24,3.08.31,3.85l-4.93.93c-3.08.62-5.7,2.16-9.71,5.39-6,4.78-11.26,10.33-14,12.95-1.85,1.7-2,2.47-1.08,3.7a157.85,157.85,0,0,0,10.33,12.33c6,6.78,11.41,12.79,14.49,15.72,2.16,2,5.24,2.93,8,3.4l2.16.3c1.08.77.92,3.39-.31,3.86-4.47-.31-9.71-.47-14.64-.47-6.17,0-11.56.16-16,.47-1.23-.62-1.39-3.24-.3-3.86l2.77-.46c2.31-.31,3.85-.62,3.85-1.55s-.62-2-2.62-4.31l-16.49-19.11a6.26,6.26,0,0,0-4.78-2.16c-2.78,0-2.93.46-2.93,5.24v8.48c0,11.09.31,12.64,5.86,13.41l3.69.46c1.08.77.78,3.39-.3,3.86-5.09-.31-9.56-.47-15-.47-5.55,0-10.18.16-14.8.47-1.08-.47-1.39-3.09-.15-3.86l3.39-.46c5.7-.77,5.86-2.32,5.86-13.41Z"/><path class="cls-3" d="M865.05,333.44c0-6,0-6.79-4.17-9.56l-1.39-.93c-.61-.61-.61-2.31.16-2.77a118.73,118.73,0,0,0,15.57-7.55c.77.15,1.23.46,1.23,1.08v8.94c0,.77.15,1.23.46,1.38,5.4-4.47,11.26-9.25,17-9.25,3.86,0,6.95,2.47,6.95,6.17a6.84,6.84,0,0,1-6.64,7.09,5.84,5.84,0,0,1-3.38-1.08A12.68,12.68,0,0,0,884,324.5a6.85,6.85,0,0,0-5.56,3.08c-1.54,2.16-2,6.63-2,11.86v21c0,11.09.31,12.95,6.17,13.41l5.55.46c1.07.77.77,3.39-.32,3.86-7.24-.31-11.7-.47-17.1-.47s-10.18.16-14.18.47c-1.08-.47-1.39-3.09-.31-3.86l2.93-.46c5.7-.93,5.86-2.32,5.86-13.41Z"/><path class="cls-3" d="M816.05,372.89c3.08,0,7.86-2.31,9.4-3.85,1.84-1.85,1.84-4,2-7.24l.31-9.1c0-1.69-.62-2-1.54-2a28.62,28.62,0,0,0-6.32,1.54c-9.1,3.08-13.57,5.4-13.57,11.4a9.29,9.29,0,0,0,9.72,9.25m9.55-27.12c2.31-.77,2.62-2.16,2.62-4.47l.15-7.09c.16-5.71-1.69-13.41-11.25-13.41-4.32,0-9.55,2.15-9.86,6.93-.16,2.47-.31,4.32-1.55,5.24a16.54,16.54,0,0,1-8.78,2.93,2,2,0,0,1-2.16-2.15c0-8,17.42-19,28.67-19,11.1,0,16.5,6.48,16,18l-.93,26.82c-.31,7.09,1.09,13.41,7.09,13.41a8.73,8.73,0,0,0,3.86-.93c.77-.46,1.54-1.08,2-1.08.62,0,1.08.93,1.08,2,0,.77-5.39,6.78-12.94,6.78a12.34,12.34,0,0,1-10-4.78c-.61-.92-1.53-2.16-2.46-2.16s-2.92,1.39-6,3.08c-3.39,1.86-6.79,3.86-11.1,3.86-4.47,0-8.17-1.23-10.79-3.55a14.39,14.39,0,0,1-4.78-10.78c0-6,2.94-9.56,12.8-13.11Z"/><path class="cls-3" d="M749.28,354.55c0,16.19.3,18.19,10.17,19.27l4.16.46c.93.77.62,3.39-.31,3.86-8.78-.31-13.87-.47-20-.47-6.48,0-12,.16-18.8.47-.93-.47-1.24-2.93-.32-3.86l3.24-.46c8.94-1.24,9.25-3.08,9.25-19.27V297.68c0-13.1-.31-15.72-7.25-16.49l-5.54-.62c-1.08-.93-.93-3.24.3-3.85,8.17-1.08,17.73-1.24,30.52-1.24s22.35,1.7,29.6,6.17c7.08,4.47,12.33,12.48,12.33,23.12,0,14.18-8.79,21.27-15.42,24.51a52.11,52.11,0,0,1-21.26,4.62c-1.09-.46-1.09-2.78-.16-3.09,16.65-3.08,22.65-12.48,22.65-25.88,0-15-8.78-24.67-24.81-24.67-8.17,0-8.32.62-8.32,5.55Z"/><path class="cls-3" d="M609,286.58c11.26-8.79,25.59-13.1,41.62-13.1a118.57,118.57,0,0,1,27.28,3.7,11.53,11.53,0,0,0,4.31.61c.16,3.55.93,13.26,2.16,22.66-.77,1.08-3.08,1.24-4.16.31-2.31-10.48-9.25-22.5-31.6-22.5C625,278.26,605,293.21,605,325.12c0,32.36,20.49,50.24,45.77,50.24,19.89,0,28.67-12.95,32.21-22,1.08-.77,3.4-.46,4,.62-1.07,8-5.08,18.18-7.4,21.11a31.19,31.19,0,0,0-5.39,1.54c-3.39,1.24-14.49,3.55-24.35,3.55-13.87,0-27.13-2.78-38.38-10.33-12.33-8.48-21.89-22.5-21.89-42.39,0-17.1,7.71-31.75,19.42-40.84"/><path class="cls-3" d="M527.7,352.24c0,5.55.31,13.41,3.24,16.8s7.55,4.32,12.17,4.32c13.72,0,24.2-6.17,24.2-21.58,0-12.18-6.17-26.36-30.67-26.36-8.33,0-8.94.93-8.94,4Zm0-35.76c0,4.32.15,4.63,8,4.32,15.73-.62,24.2-5.25,24.2-19.73,0-15.11-11.25-20.81-23-20.81-3.39,0-5.69.31-7.08.93-1.55.46-2.16,1.23-2.16,4ZM515.06,296c0-11.4-.62-14.33-7.55-15l-4.93-.46c-1.24-.93-1.08-3.24.15-3.85,8.32-.78,18.8-1.24,33.14-1.24,9.71,0,19,.77,25.89,4.32,6.63,3.23,11.72,9.4,11.72,19.26,0,11.1-6.48,16.8-15.73,21.12,0,1.54,1.24,2,2.93,2.31a25.5,25.5,0,0,1,20.65,25.74c0,17.88-13.25,29.91-41,29.91-4.47,0-12-.47-18.5-.47-6.78,0-12,.31-17.72.47-.92-.47-1.23-2.93-.31-3.86l2.77-.46c8.17-1.39,8.48-3.08,8.48-19.27Z"/></g><rect class="cls-4" x="452.7" y="90.78" width="3.04" height="287.03"/><g class="cls-2"><path class="cls-3" d="M383.13,361.24h-7.84c-.27,0-2.45.25-2.45-.38a2.68,2.68,0,0,1,.21-.77l4.7-11.64c.13-.32.61-1.92,1.15-1.92s1,1.66,1.09,1.92l4.63,10.87c0,.13.48,1.15.48,1.41,0,.7-1.56.51-2,.51m17.58,14.92-.23-.18c-.33,0-.63-.07-.91-.12-2.61-.58-3.63-3.72-4.59-5.95l-13.42-31.78c-.13-.38-.4-1.2-.93-1.2-.73,0-.93.88-1.13,1.39L366.68,370c-.47,1.2-1.67,4.11-2.53,5a3.7,3.7,0,0,1-2.44.91l-1.07.1-1.58.17a1.08,1.08,0,0,0,.14,1.5l2.48-.09c1.75,0,3.51-.24,5.26-.24,1.48,0,2.95.16,4.43.22l2.48.09a1.09,1.09,0,0,0,.14-1.51l-1.68-.18-.91-.09c-1.54-.16-3.46-.45-3.46-2.14a10.38,10.38,0,0,1,.93-3.48l2-4.75c1-2.28.6-2.53,3.26-2.53h9c3.19,0,2.73,0,4.13,3.23L389.4,371a10.54,10.54,0,0,1,.93,3.1c0,1.6-1.74,1.7-3.36,1.83l-1,.08-1.61.12a1.07,1.07,0,0,0,.13,1.5c.9,0,2.48-.09,2.48-.09,1.89-.07,3.79-.21,5.62-.21,2.33,0,4.65.16,7,.22.76,0,.11.05,1,.08a1.09,1.09,0,0,0,.14-1.51"/><path class="cls-3" d="M344,346.88c0-6.39-.13-7.41-4-7.72l-1.63-.11c-.39-.25-.26-1.33.13-1.52,3.26.13,5.47.18,8.21.18s4.82,0,8.08-.18c.38.19.52,1.27.12,1.52l-1.63.11c-3.84.31-4,1.33-4,7.72v21.48c0,6.38.13,7.23,4,7.66l1.63.18c.4.24.26,1.32-.12,1.5-3.26-.12-5.48-.18-8.08-.18s-5,.06-8.21.18a1.1,1.1,0,0,1-.13-1.5L340,376c3.84-.43,4-1.28,4-7.66Z"/><path class="cls-3" d="M310.29,367.41c0,2.19.14,5.3,1.48,6.64s3.46,1.71,5.59,1.71c6.28,0,11.09-2.44,11.09-8.53,0-4.82-2.83-10.42-14.06-10.42-3.82,0-4.1.37-4.1,1.58Zm0-14.13c0,1.71.07,1.82,3.67,1.71,7.21-.24,11.1-2.08,11.1-7.81,0-6-5.16-8.22-10.53-8.22a9.73,9.73,0,0,0-3.25.37c-.71.18-1,.49-1,1.58Zm-5.8-8.11c0-4.5-.28-5.66-3.46-5.9l-2.26-.22c-.26-.23-.39-1.46.07-1.49,3.82-.28,8.62-.48,15.19-.48,4.45,0,8.69.3,11.88,1.7,3,1.28,5.36,3.71,5.36,7.61,0,4.39-3,6.64-7.2,8.36,0,.6.56.78,1.34.91,3.81.6,9.47,3.65,9.47,10.17,0,7.06-6.08,11.82-18.8,11.82-2.05,0-5.51-.19-8.48-.19s-5.51.12-8.12.19a1.07,1.07,0,0,1-.15-1.53l1.28-.18c3.74-.55,3.88-1.22,3.88-7.61Z"/><path class="cls-3" d="M291.93,376l-1-.09a2.48,2.48,0,0,1-1.79-.7c-.84-.89-.77-3.45-.77-4.47V344.31c0-1.16-.28-3.65.56-4.54a3.1,3.1,0,0,1,2.09-.6h0c.47,0,.48,0,.9-.05l1.67-.13c.41-.24.27-1.32-.13-1.51-.89,0-1.71,0-2.48,0h-7.11c-.78,0-1.48,0-1.91.83l-14.5,30.2-12.81-29.18c-.42-1-.49-1.85-1.83-1.85h-7.4c-.78,0-1.63,0-2.52-.06-.4.19-.54,1.27-.14,1.51l1.68.13,1,.07c2.77.18,3,.79,2.7,3.72L246,371.24c-.19,2.86-.34,4.35-3.32,4.63,0,0-.64.09-1,.12l-1.67.18a1.06,1.06,0,0,0,.13,1.5l2.45-.07c1.51-.07,3.05-.21,4.59-.21s3.32.16,5,.22l2.48.09a1.09,1.09,0,0,0,.13-1.51l-1.67-.18-.93-.08c-4.31-.29-4.21-3.33-3.94-7.05l2-26.37h.49L264.62,375c.14.45.35,1.21,1.05,1.21s.85-.7,1.06-1.15l15.63-33.28h.49v29c0,1.15.14,3.52-1.06,4.41a9,9,0,0,1-2.66.75l-.9.12-1.68.18a1.07,1.07,0,0,0,.14,1.5l2.44-.08c2.27-.06,4.58-.23,6.89-.23,1.65,0,4.9.16,4.9.16.78,0,1.66.11,2.55.14a1.09,1.09,0,0,0,.14-1.51Z"/><path class="cls-3" d="M230.18,352.71c0-3.74-.12-10.68-1.21-12.48-.45-.73-1.6-1.15-3.2-1.27l-1.59-.12a1,1,0,0,1,.12-1.45c2.43.12,4.8.18,7.29.18,2.69,0,4.41-.06,6.72-.18a1,1,0,0,1,.12,1.45l-1.53.12c-1.6.12-2.82.66-3.2,1.45-.89,2-.89,8.92-.89,12.3v6.82c0,5.25-.9,10.79-4.48,14.41-2.75,2.83-7.48,4.41-12.21,4.41-4.41,0-8.82-.79-12-3.33-3.39-2.64-5-7-5-14.23V346.56c0-6.28-.13-7.3-3.84-7.6l-1.6-.12c-.38-.24-.25-1.27.13-1.45,3.2.12,5.37.18,7.93.18s4.73-.06,7.86-.18c.38.18.51,1.21.13,1.45l-1.53.12c-3.71.3-3.84,1.32-3.84,7.6v13c0,9.71,3.2,16.1,13,16.1,9.27,0,12.78-6.88,12.78-16Z"/><path class="cls-3" d="M166.25,346.77c0-6.34-.13-7.3-4.31-7.61l-1.66-.11c-.4-.25-.26-1.33.14-1.52,3.71.13,6,.18,8.62.18s4.84,0,8.16-.18c.4.19.53,1.27.13,1.52l-1.59.11c-3.91.31-4.05,1.27-4.05,7.61v21c0,3.8.2,5.37,1.4,6.52.73.66,2,1.39,7.23,1.39,5.64,0,7-.25,8.09-.79,1.33-.73,3.05-2.9,4.38-6,.4-.29,1.66-.05,1.66.37a44.92,44.92,0,0,1-2.79,8.44c-3.38-.12-9.68-.18-16.52-.18H169c-2.79,0-4.91.06-8.62.18a1.08,1.08,0,0,1-.14-1.5l2-.18c3.85-.36,4-1.21,4-7.54Z"/><path class="cls-3" d="M152.41,359.16c0-10-4.62-20.68-16.72-20.68-6.59,0-15.14,4.27-15.14,17.48,0,8.93,4.56,20.51,17,20.51,7.6,0,14.82-5.42,14.82-17.31m-38.19-1.26c0-12.07,9.5-21.3,22.55-21.3,14.62,0,22,10.08,22,20.69,0,12.18-9.76,21.06-22,21.06-14.06,0-22.55-9.6-22.55-20.45"/><path class="cls-3" d="M74.25,334.34c5.34-4.15,12.13-6.18,19.73-6.18a57,57,0,0,1,12.94,1.74,5.32,5.32,0,0,0,2,.29c.08,1.68.44,6.27,1,10.71a1.55,1.55,0,0,1-2,.14c-1.09-5-4.38-10.63-15-10.63-11.18,0-20.68,7.06-20.68,22.14,0,15.29,9.72,23.73,21.7,23.73,9.43,0,13.6-6.11,15.28-10.41a1.53,1.53,0,0,1,1.9.3c-.51,3.78-2.41,8.58-3.51,10a14.14,14.14,0,0,0-2.55.73,43.39,43.39,0,0,1-11.55,1.67c-6.58,0-12.86-1.31-18.2-4.88a23.45,23.45,0,0,1-10.37-20,24.18,24.18,0,0,1,9.2-19.3"/><path class="cls-3" d="M329.42,301.43c-3.11,0-3.24.12-3.24,1.93v8.5c0,6.34.32,7.18,4,7.54l1.88.19c.39.23.26,1.32-.13,1.5-3.51-.12-5.71-.18-8.24-.18-2.8,0-5,.12-7.53.18a1.1,1.1,0,0,1-.13-1.5l1.1-.19c3.64-.6,3.76-1.2,3.76-7.54V290.15c0-6.33-.45-7.36-3.82-7.6l-1.69-.12c-.39-.24-.26-1.33.13-1.51,3.18.06,5.38.18,8.18.18,2.53,0,4.73-.06,7.52-.18.39.18.52,1.27.13,1.51l-1.23.12c-3.76.36-3.89,1.27-3.89,7.6v6.94c0,1.86.13,1.93,3.24,1.93H348c3.12,0,3.25-.07,3.25-1.93v-6.94c0-6.33-.13-7.24-4-7.6l-1.23-.12c-.39-.24-.26-1.33.13-1.51,3,.12,5.19.18,7.85.18s4.73-.06,7.66-.18c.39.18.52,1.27.12,1.51l-1.36.12c-3.76.36-3.89,1.27-3.89,7.6v21.71c0,6.34.13,7.12,3.89,7.54l1.56.19c.39.23.26,1.32-.13,1.5-3.12-.12-5.32-.18-7.85-.18s-5,.06-7.85.18a1.1,1.1,0,0,1-.13-1.5l1.23-.19c4-.6,4-1.2,4-7.54v-8.5c0-1.81-.13-1.93-3.25-1.93Z"/><path class="cls-3" d="M293.6,321.71a25.41,25.41,0,0,1-11.1-2.23c-.86-1.33-1.78-5.61-1.92-8.45.35-.42,1.42-.54,1.71-.18,1.06,3.08,4,9,12.23,9,6,0,8.9-3.32,8.9-6.94,0-2.65-.64-5.61-5.84-8.44l-6.76-3.75c-3.56-2-7.68-5.42-7.68-10.36,0-5.73,5.27-10.38,14.52-10.38a32.2,32.2,0,0,1,6.61.78,11.3,11.3,0,0,0,2.5.36,22.82,22.82,0,0,1,1.28,7.37,1.61,1.61,0,0,1-1.78.18c-.93-2.9-2.85-6.82-9.68-6.82s-8.47,3.92-8.47,6.69c0,3.51,3.42,6,6.05,7.42l5.69,3c4.49,2.35,8.9,5.85,8.9,11.58,0,6.63-5.91,11.16-15.16,11.16"/><path class="cls-3" d="M263.6,290.27c0-6.4-.14-7.42-4.09-7.72l-1.67-.13c-.4-.23-.27-1.32.14-1.5,3.34.12,5.62.18,8.43.18s5-.06,8.3-.18c.41.18.54,1.27.14,1.5l-1.68.13c-3.94.3-4.08,1.32-4.08,7.72v21.47c0,6.39.14,7.24,4.08,7.66l1.68.18c.4.24.27,1.33-.14,1.51-3.34-.12-5.62-.18-8.3-.18s-5.09.06-8.43.18a1.08,1.08,0,0,1-.14-1.51l1.67-.18c3.95-.42,4.09-1.27,4.09-7.66Z"/><path class="cls-3" d="M236.72,311.86c0,6.34.12,7.24,3.76,7.54l2,.18c.37.24.25,1.33-.13,1.51-3.58-.12-5.7-.18-8.22-.18s-4.7.06-8.71.18a1,1,0,0,1,0-1.51l2.26-.18c3.57-.3,3.88-1.2,3.88-7.54v-27c0-1.87,0-1.93-1.88-1.93h-3.45c-2.7,0-6.15.12-7.71,1.51a10.81,10.81,0,0,0-2.82,4.16,1.24,1.24,0,0,1-1.64-.42,60.48,60.48,0,0,0,2.38-9,1.66,1.66,0,0,1,1.2,0c.37,1.93,2.44,1.87,5.33,1.87h25.4c3.39,0,4-.12,4.89-1.68.32-.13,1-.07,1.13.17a35.11,35.11,0,0,0-.94,9.17c-.25.49-1.31.49-1.63.12-.19-1.51-.62-3.74-1.57-4.4-1.44-1-3.82-1.51-7.27-1.51h-4.46c-1.87,0-1.81.06-1.81,2Z"/><path class="cls-3" d="M199.57,290.27c0-6.4-.13-7.42-4.08-7.72l-1.67-.13c-.41-.23-.27-1.32.13-1.5,3.35.12,5.62.18,8.44.18s5-.06,8.3-.18c.4.18.53,1.27.13,1.5l-1.67.13c-4,.3-4.09,1.32-4.09,7.72v21.47c0,6.39.14,7.24,4.09,7.66l1.67.18c.4.24.27,1.33-.13,1.51-3.35-.12-5.63-.18-8.3-.18s-5.09.06-8.44.18a1.08,1.08,0,0,1-.13-1.51l1.67-.18c3.95-.42,4.08-1.27,4.08-7.66Z"/><path class="cls-3" d="M164.94,299.76c-1.21,0-3.65.45-3.65-1.16V287c0-4.52.15-5.17,5.58-5.17,6.36,0,10.3,3.23,10.3,9.18a7.6,7.6,0,0,1-3.29,6.59c-2.72,1.88-5.65,2.13-8.94,2.13m24.4,19.82-1.67-.14-.93-.12c-2.45-.44-3.43-2.62-4.58-4.65l-5.79-10.08c-1-1.68-2.07-3.94-4.36-4.26,5.93-.71,11.29-4.14,11.29-10,0-6.79-6.72-9.82-13.51-9.82-4.07,0-7.79.11-11.93.11-2.28,0-5-.11-7.29-.11-1.27,0-1.29.25-1.29,1,0,1,.44.75,1.79.83,4.83.27,4.64,1.17,4.64,5.3V314c0,3.78.33,4.91-3.64,5.26l-1,.11-1.68.17a1.09,1.09,0,0,0,.14,1.51l2.48-.1c2.2-.06,4.4-.23,6.59-.23s4.33.17,6.5.23h0l2.48.09a1.09,1.09,0,0,0,.14-1.51l-1.7-.16-.94-.09c-4-.27-3.76-1.4-3.76-5.28v-9.95c0-.59-.07-2.14.36-2.59s1-.32,1.57-.32c5.43,0,5.36.51,7.93,5l7,12.6c.57,1,1,2.2,2.43,2.2h6.08c.77,0,1.58,0,2.46.08a1.08,1.08,0,0,0,.14-1.51"/><path class="cls-3" d="M117.82,309.09c0,2.54.16,6.14,1.65,7.7s3.84,2,6.19,2c7,0,12.31-2.83,12.31-9.89,0-5.58-3.14-12.08-15.6-12.08-4.23,0-4.55.43-4.55,1.84Zm0-16.38c0,2,.08,2.12,4.08,2,8-.29,12.31-2.41,12.31-9,0-6.92-5.73-9.53-11.68-9.53a10.74,10.74,0,0,0-3.61.42c-.78.21-1.1.57-1.1,1.84Zm-6.42-9.39c0-5.23-.37-6.61-3.9-6.89l-2.45-.17c-.4-.32-.29-1.73.08-1.76,4.23-.38,9.56-.57,16.85-.57,4.94,0,9.64.35,13.17,2a9.23,9.23,0,0,1,5.95,8.82c0,5.09-3.29,7.7-8,9.67,0,.71.63.93,1.49,1.07,4.23.7,10.5,4.23,10.5,11.79,0,8.19-6.74,13.7-20.85,13.7-2.27,0-6.11-.22-9.4-.22-3.45,0-6.12.14-9,.22a1.27,1.27,0,0,1-.15-1.77l1.41-.21c4.15-.64,4.31-1.42,4.31-8.83Z"/><path class="cls-3" d="M139.12,238.68c42.4,0,101,23.87,143.6,23.87,30.37,0,60-8.1,76.87-20a130.62,130.62,0,0,0,1.8-21.54,129,129,0,1,0-256.29,21.3c4.66-.86,20.47-3.59,34-3.59"/></g><polygon class="cls-4" points="315.72 191.14 320.82 193.25 332.13 185.36 315.72 191.14"/><g class="cls-2"><path class="cls-4" d="M125.62,182.33l-13.41-4.72.67-1.64L128,181l.06,0,2-1.13.8-.5-16.47-7,.7-1.72,36.76,14.87L153,185l-36.46-17.76.82-1.67,38.62,18,.54-.28L119.1,162l.77-1.59L174,189.84c.44-.82,1.37-2.31,1.84-3.12a482.46,482.46,0,0,0-40.4-33.85A482.48,482.48,0,0,0,181,179.25c.83-1,1.52-1.88,2.4-2.86l-46.14-40.62,1.24-1.27,37.24,31.73-34.5-34.55,1.29-1.33,38.74,37.43-36.06-40,1.38-1.24,33.33,35.68-30.42-38.32,1.31-1.2,39,47.45c1-.86,1.84-1.52,2.9-2.33A479.66,479.66,0,0,0,168,121.52a481,481,0,0,0,32.21,41.31c1.13-.63,2.28-1.25,3.45-1.82l-.2-.12-27.33-54.54,1.63-.72L200.41,149l-19-45,1.7-.75L205,152.52,186.51,101.9l1.74-.63,17.54,45.57L191.94,99.91l1.66-.61,18.23,58.21,0,.15,0,0c1.21-.41,2.45-.76,3.69-1.1A481.58,481.58,0,0,0,210,104.66a483.22,483.22,0,0,0,14.31,50.14c1.28-.15,2.56-.29,3.86-.38l0-.06h.16l-.09-.13-4.91-60.8,1.78-.06,4.74,48.71L229,93.25l1.86-.06L232.71,147l1.86-53.84,1.86.06-.82,48.83,4.74-48.7,1.77.05-4.9,60.8-.1.13h0v0h.08c1.26.08,2.53.21,3.78.36a484.12,484.12,0,0,0,14.28-50.08,480.42,480.42,0,0,0-5.52,51.76c1.25.33,2.49.69,3.71,1.09l18.16-58,1.67.61-13.85,46.94L277,101.47l1.74.64-18.44,50.62,21.89-49.23,1.7.76-19.05,45,22.64-43.38,1.63.71L261.87,160.9l0,0c1.13.54,2.22,1.12,3.31,1.73a481.74,481.74,0,0,0,32-41.13,480.57,480.57,0,0,0-24.56,46c1.06.79,2.09,1.61,3.08,2.46l38.54-46.93,1.31,1.19-30.42,38.33,33.33-35.69,1.38,1.24-36.07,40,38.74-37.43,1.29,1.33-34.5,34.56,37.25-31.74,1.23,1.27L282.3,176.31l0,0c.8.89,1.56,1.8,2.31,2.73a480.76,480.76,0,0,0,45.26-26.2,481.27,481.27,0,0,0-40.11,33.57c.56.94,1.46,2.54,2,3.5l53.32-29,.77,1.6-42.56,24.14L347.56,166l.81,1.67-41.24,20.1.8.27,41.95-17,.71,1.73-39,16.58.73.31,26-8.67,3.91-2.73,1.3,1,8.56-2.85.67,1.64-7.4,2.6L356,188.87l3.43,1.91a130.71,130.71,0,0,0-254.88,3l.49-.23,1.56-.71,1-.45Z"/><path class="cls-5" d="M103.85,245.06s19.27-3.85,35.37-3.85c42.39,0,101,23.87,143.6,23.87,31.21,0,61.66-8.56,78.25-21a131.5,131.5,0,0,0-1.61-53.25l-17.74-9.89-20.82,14.6-14-5.46c-4.74,2.4-34,21.95-34,21.95l-11.22-8.12-12-2.38-16.07-11.7-18.41,12.65s-20.56,11.93-21.26,11.93-24.8-19.09-24.8-19.09L158,183.58c-1.89,1.19-9.44,4.65-9.44,4.65l-.38.11-7.31-2.26L132,181.37l-26.94,12.22-.48.23a131.19,131.19,0,0,0-.74,51.24"/></g></svg>