<svg id="BC_Parks_Logo" data-name="BC Parks Logo" xmlns="http://www.w3.org/2000/svg" viewBox="64.92 90.53 950.01 289.53"><defs><style>.cls-1{fill:#043673;}.cls-2{fill:#fdb913;}.cls-3{fill:#fff;}</style></defs><path class="cls-1" d="M1012,317.47a36,36,0,0,1,2.47,12.49c-.61,1.08-2.93,1.39-3.7.46-2.62-6.78-7.24-11.25-13.56-11.25-6,0-9.87,3.86-9.87,9.4,0,6.32,6.48,9.71,11.87,12.79,8.17,4.63,15.72,9.87,15.72,20.81,0,11.72-10.79,17.58-22.19,17.58-7.25,0-12.64-1.55-16.49-4.63-1.24-2.93-2.16-10.48-1.85-15.56a2.6,2.6,0,0,1,3.54-.16c2.62,8.48,7.55,15.88,16.34,15.88,5.55,0,10.33-3.24,10.33-9.87,0-7.09-6.17-10.94-11.87-14.18-8.94-5.09-15.26-10.48-15.26-19,0-11.25,9.25-17.57,21-17.57,6.47,0,12.18,1.54,13.56,2.77"/><path class="cls-1" d="M908,290.66c0-9.1-.16-10-4.78-12.79l-1.55-.93c-.77-.47-.77-2.62,0-3.08,3.86-1.24,11.1-3.55,16.65-6.48a1.69,1.69,0,0,1,1.54.93c-.15,4.62-.46,12.33-.46,19.11v52.87c0,2,.15,2.31,2.78,2.31,3.39,0,6.31-1.7,10.48-6l6.31-6.79c4.32-4.62,5.4-6.31,5.4-7.08s-.77-1.24-3.4-1.55l-3.69-.46c-1.39-.46-1.39-3.39,0-3.85h3.55a242.16,242.16,0,0,0,24.5-1.23c1.08.46,1.23,3.08.3,3.85l-4.92.92c-3.08.62-5.7,2.16-9.71,5.4-6,4.78-11.26,10.33-14,12.95-1.85,1.69-2,2.46-1.08,3.69a157.6,157.6,0,0,0,10.33,12.34c6,6.77,11.41,12.79,14.49,15.72,2.15,2,5.24,2.92,8,3.39l2.16.3c1.08.78.92,3.39-.31,3.86-4.47-.31-9.71-.47-14.64-.47-6.17,0-11.56.16-16,.47-1.23-.62-1.39-3.24-.3-3.86l2.77-.46c2.31-.31,3.85-.61,3.85-1.54s-.62-2-2.62-4.31l-16.49-19.12a6.25,6.25,0,0,0-4.78-2.15c-2.78,0-2.93.46-2.93,5.24v8.48c0,11.09.31,12.63,5.86,13.4l3.69.46c1.08.78.77,3.39-.3,3.86-5.09-.31-9.56-.47-15-.47-5.55,0-10.18.16-14.8.47-1.08-.47-1.39-3.08-.15-3.86l3.39-.46c5.7-.77,5.86-2.31,5.86-13.4Z"/><path class="cls-1" d="M865.05,333.35c0-6,0-6.78-4.17-9.55l-1.39-.93c-.61-.62-.61-2.31.16-2.77a118.85,118.85,0,0,0,15.57-7.56c.77.16,1.23.46,1.23,1.08v8.94c0,.77.15,1.24.46,1.39,5.4-4.47,11.26-9.25,17-9.25,3.86,0,6.95,2.46,6.95,6.17a6.85,6.85,0,0,1-6.64,7.09,5.9,5.9,0,0,1-3.39-1.08,12.56,12.56,0,0,0-6.77-2.47,6.86,6.86,0,0,0-5.56,3.09c-1.54,2.15-2,6.62-2,11.86v21c0,11.09.31,12.94,6.16,13.4l5.56.46c1.07.78.77,3.39-.32,3.86-7.24-.31-11.71-.47-17.1-.47-5.55,0-10.18.16-14.18.47-1.08-.47-1.39-3.08-.31-3.86l2.93-.46c5.7-.92,5.86-2.31,5.86-13.4Z"/><path class="cls-1" d="M816,372.81c3.09,0,7.87-2.32,9.41-3.86,1.84-1.84,1.84-4,2-7.24l.31-9.09c0-1.7-.62-2-1.54-2a28.83,28.83,0,0,0-6.32,1.55c-9.1,3.08-13.57,5.39-13.57,11.4a9.29,9.29,0,0,0,9.71,9.25m9.56-27.13c2.31-.77,2.62-2.15,2.62-4.47l.15-7.09c.16-5.7-1.69-13.41-11.25-13.41-4.32,0-9.55,2.16-9.86,6.94-.16,2.46-.31,4.31-1.55,5.24a16.54,16.54,0,0,1-8.78,2.93,2,2,0,0,1-2.16-2.16c0-8,17.42-19,28.67-19,11.1,0,16.49,6.47,16,18l-.93,26.82c-.31,7.09,1.09,13.41,7.09,13.41a8.88,8.88,0,0,0,3.86-.92c.77-.46,1.54-1.08,2-1.08.62,0,1.08.93,1.08,2,0,.77-5.39,6.79-12.94,6.79a12.32,12.32,0,0,1-10-4.79c-.61-.92-1.53-2.15-2.46-2.15s-2.92,1.38-6,3.08c-3.39,1.85-6.79,3.86-11.1,3.86-4.47,0-8.17-1.24-10.79-3.55a14.43,14.43,0,0,1-4.78-10.79c0-6,2.94-9.55,12.8-13.1Z"/><path class="cls-1" d="M749.28,354.47c0,16.18.3,18.19,10.17,19.26l4.16.46c.93.78.62,3.39-.31,3.86-8.78-.31-13.87-.47-20-.47-6.48,0-12,.16-18.8.47-.93-.47-1.24-2.93-.32-3.86l3.24-.46c8.94-1.23,9.25-3.08,9.25-19.26V297.59c0-13.1-.31-15.72-7.25-16.49l-5.54-.62c-1.08-.92-.93-3.23.3-3.85,8.17-1.08,17.73-1.23,30.52-1.23s22.35,1.69,29.6,6.16c7.08,4.47,12.33,12.49,12.33,23.12,0,14.18-8.79,21.27-15.42,24.51a52,52,0,0,1-21.26,4.62c-1.09-.46-1.09-2.77-.16-3.08,16.65-3.08,22.65-12.48,22.65-25.89,0-14.95-8.78-24.66-24.81-24.66-8.17,0-8.32.61-8.32,5.54Z"/><path class="cls-1" d="M609,286.5c11.26-8.79,25.59-13.11,41.62-13.11a119.11,119.11,0,0,1,27.28,3.7,11.36,11.36,0,0,0,4.31.62c.16,3.54.93,13.26,2.16,22.66-.77,1.07-3.08,1.23-4.16.3-2.31-10.48-9.25-22.5-31.6-22.5C625,278.17,605,293.12,605,325c0,32.36,20.49,50.24,45.77,50.24,19.89,0,28.67-12.95,32.21-22,1.08-.77,3.4-.46,4,.62-1.07,8-5.08,18.19-7.4,21.12a30.32,30.32,0,0,0-5.39,1.54c-3.39,1.23-14.49,3.54-24.35,3.54-13.87,0-27.13-2.77-38.38-10.33-12.33-8.47-21.89-22.5-21.89-42.38,0-17.11,7.71-31.75,19.42-40.84"/><path class="cls-1" d="M527.7,352.16c0,5.54.31,13.4,3.24,16.79,2.92,3.55,7.55,4.32,12.17,4.32,13.72,0,24.2-6.16,24.2-21.58,0-12.17-6.17-26.36-30.67-26.36-8.33,0-8.94.93-8.94,4Zm0-35.76c0,4.31.15,4.62,8,4.31,15.73-.61,24.2-5.24,24.2-19.73,0-15.1-11.25-20.8-23-20.8-3.39,0-5.69.3-7.08.92-1.55.46-2.16,1.24-2.16,4Zm-12.64-20.5c0-11.41-.62-14.34-7.55-15l-4.93-.46c-1.24-.92-1.08-3.24.15-3.85,8.32-.77,18.8-1.23,33.14-1.23,9.71,0,19,.77,25.89,4.31,6.63,3.24,11.72,9.4,11.72,19.27,0,11.1-6.48,16.8-15.73,21.12,0,1.54,1.24,2,2.93,2.31a25.5,25.5,0,0,1,20.65,25.74c0,17.88-13.25,29.9-41,29.9-4.47,0-12-.47-18.5-.47-6.78,0-12,.31-17.72.47-.92-.47-1.23-2.93-.31-3.86l2.77-.46c8.17-1.38,8.48-3.08,8.48-19.26Z"/><rect class="cls-2" x="452.7" y="90.7" width="3.04" height="287.03"/><path class="cls-1" d="M383.13,361.15h-7.84c-.27,0-2.45.26-2.45-.38a3.16,3.16,0,0,1,.21-.77l4.7-11.64c.13-.32.61-1.92,1.15-1.92s1,1.67,1.09,1.92l4.63,10.87c0,.13.48,1.15.48,1.41,0,.71-1.56.51-2,.51m17.58,14.93-.23-.18-.91-.12c-2.61-.58-3.62-3.73-4.59-6l-13.42-31.77c-.13-.38-.4-1.21-.93-1.21-.73,0-.93.89-1.13,1.39L366.68,370c-.47,1.19-1.67,4.11-2.53,5a3.64,3.64,0,0,1-2.44.9l-1.07.11-1.58.16a1.09,1.09,0,0,0,.14,1.51l2.48-.09c1.75,0,3.51-.24,5.26-.24,1.48,0,2.95.15,4.43.22l2.48.09a1.09,1.09,0,0,0,.14-1.51l-1.68-.18-.91-.09c-1.54-.17-3.46-.45-3.46-2.14a10.5,10.5,0,0,1,.93-3.49l2-4.75c1-2.27.6-2.53,3.26-2.53h9c3.19,0,2.73,0,4.13,3.23L389.4,371a10.6,10.6,0,0,1,.93,3.11c0,1.59-1.73,1.69-3.36,1.83l-1,.08-1.61.11a1.09,1.09,0,0,0,.13,1.51l2.48-.09c1.89-.07,3.79-.21,5.62-.21,2.33,0,4.65.15,7,.22.76,0,.11.05,1,.07a1.08,1.08,0,0,0,.14-1.5"/><path class="cls-1" d="M344,346.79c0-6.38-.13-7.41-4-7.71l-1.63-.12c-.39-.24-.26-1.33.13-1.51,3.26.12,5.47.18,8.21.18s4.82-.06,8.08-.18c.39.18.52,1.27.12,1.51l-1.62.12c-3.85.3-4,1.33-4,7.71v21.49c0,6.38.13,7.23,4,7.65l1.62.18c.4.24.27,1.33-.12,1.51-3.26-.12-5.48-.18-8.08-.18s-5,.06-8.21.18a1.11,1.11,0,0,1-.13-1.51l1.63-.18c3.84-.42,4-1.27,4-7.65Z"/><path class="cls-1" d="M310.29,367.33c0,2.18.14,5.29,1.48,6.64s3.46,1.7,5.59,1.7c6.28,0,11.09-2.43,11.09-8.53,0-4.81-2.83-10.41-14.06-10.41-3.82,0-4.1.36-4.1,1.58Zm0-14.14c0,1.71.07,1.83,3.67,1.71,7.21-.24,11.1-2.07,11.1-7.8,0-6-5.16-8.22-10.53-8.22a10.08,10.08,0,0,0-3.25.36c-.71.19-1,.49-1,1.59Zm-5.8-8.1c0-4.51-.28-5.66-3.46-5.91l-2.26-.22c-.26-.23-.39-1.45.07-1.49,3.82-.28,8.62-.48,15.19-.48,4.45,0,8.69.3,11.88,1.7,3,1.28,5.36,3.72,5.36,7.62,0,4.39-3,6.64-7.2,8.35,0,.61.56.79,1.34.91,3.82.61,9.47,3.65,9.47,10.17,0,7.07-6.08,11.82-18.8,11.82-2.05,0-5.51-.18-8.48-.18s-5.51.12-8.12.18a1.06,1.06,0,0,1-.15-1.52l1.28-.19c3.74-.55,3.88-1.21,3.88-7.61Z"/><path class="cls-1" d="M291.94,375.92l-1-.09a2.53,2.53,0,0,1-1.78-.7c-.85-.9-.78-3.45-.78-4.48V344.22c0-1.15-.28-3.64.56-4.54a3,3,0,0,1,2.09-.59h0l.9-.06,1.68-.12c.4-.24.26-1.33-.14-1.51-.89,0-1.71,0-2.48,0h-7.11c-.78,0-1.48,0-1.91.83l-14.5,30.2-12.81-29.18c-.42-1-.49-1.85-1.83-1.85h-7.4c-.78,0-1.63,0-2.52-.05-.4.18-.54,1.27-.14,1.51l1.68.12,1,.07c2.77.18,3,.8,2.7,3.73L246,371.16c-.19,2.85-.34,4.35-3.32,4.63l-1,.11-1.67.19a1.06,1.06,0,0,0,.13,1.5l2.45-.07c1.51-.07,3.05-.21,4.59-.21s3.33.15,5,.22l2.48.09a1.09,1.09,0,0,0,.13-1.51l-1.67-.18-.93-.08c-4.31-.29-4.21-3.34-3.94-7.06l2-26.36h.49l13.87,32.45c.14.44.35,1.21,1.05,1.21s.85-.71,1.06-1.15l15.63-33.28h.49v29c0,1.15.14,3.52-1.06,4.41a8.67,8.67,0,0,1-2.66.75c-.28,0-.57.09-.9.12l-1.68.18a1.08,1.08,0,0,0,.14,1.51c.88,0,2.44-.08,2.44-.08,2.27-.07,4.58-.23,6.89-.23,1.65,0,4.9.15,4.9.15.78,0,1.66.11,2.55.15a1.1,1.1,0,0,0,.14-1.52Z"/><path class="cls-1" d="M230.18,352.63c0-3.74-.12-10.68-1.21-12.49-.45-.73-1.6-1.15-3.2-1.27l-1.59-.12a1,1,0,0,1,.12-1.45c2.43.13,4.8.18,7.29.18,2.69,0,4.41-.05,6.72-.18a1,1,0,0,1,.12,1.45l-1.53.12c-1.6.12-2.82.67-3.2,1.45-.89,2-.89,8.92-.89,12.31v6.81c0,5.25-.9,10.79-4.48,14.41-2.75,2.84-7.48,4.41-12.21,4.41-4.41,0-8.82-.79-12-3.32-3.39-2.65-5-7.06-5-14.24V346.47c0-6.27-.13-7.29-3.84-7.6l-1.6-.12c-.38-.24-.25-1.26.13-1.45,3.2.13,5.37.18,7.93.18s4.73-.05,7.86-.18c.38.19.51,1.21.13,1.45l-1.53.12c-3.71.31-3.84,1.33-3.84,7.6v13c0,9.7,3.2,16.09,13,16.09,9.27,0,12.78-6.87,12.78-16Z"/><path class="cls-1" d="M166.25,346.68c0-6.33-.13-7.3-4.31-7.6l-1.66-.12c-.4-.24-.26-1.33.14-1.51,3.71.12,6,.18,8.62.18s4.84-.06,8.16-.18c.4.18.53,1.27.13,1.51l-1.59.12c-3.91.3-4,1.27-4,7.6v21c0,3.81.19,5.37,1.39,6.52.73.67,2,1.39,7.23,1.39,5.64,0,7-.24,8.09-.79,1.33-.72,3.05-2.89,4.38-6,.4-.3,1.66-.06,1.66.37a45.16,45.16,0,0,1-2.79,8.44c-3.38-.12-9.68-.18-16.52-.18H169c-2.79,0-4.91.06-8.62.18a1.09,1.09,0,0,1-.14-1.51l2-.18c3.85-.36,4-1.21,4-7.54Z"/><path class="cls-1" d="M152.41,359.08c0-9.95-4.62-20.69-16.72-20.69-6.59,0-15.14,4.28-15.14,17.49,0,8.93,4.56,20.51,17,20.51,7.6,0,14.82-5.43,14.82-17.31m-38.19-1.27c0-12.06,9.5-21.3,22.55-21.3,14.62,0,22,10.08,22,20.7,0,12.18-9.75,21.05-22,21.05-14.06,0-22.55-9.59-22.55-20.45"/><path class="cls-1" d="M74.25,334.26c5.34-4.16,12.14-6.19,19.73-6.19a57,57,0,0,1,12.94,1.74,5.35,5.35,0,0,0,2,.29c.08,1.68.44,6.27,1,10.71a1.55,1.55,0,0,1-2,.15c-1.09-5-4.38-10.63-15-10.63-11.19,0-20.69,7.06-20.69,22.13,0,15.29,9.72,23.74,21.71,23.74,9.42,0,13.59-6.12,15.27-10.42a1.55,1.55,0,0,1,1.9.3c-.51,3.79-2.41,8.59-3.51,10a15.25,15.25,0,0,0-2.55.72,42.88,42.88,0,0,1-11.55,1.68c-6.58,0-12.86-1.31-18.2-4.88a23.46,23.46,0,0,1-10.37-20,24.15,24.15,0,0,1,9.2-19.3"/><path class="cls-1" d="M329.42,301.34c-3.11,0-3.24.13-3.24,1.93v8.51c0,6.33.32,7.18,4,7.53l1.88.19c.39.24.26,1.32-.13,1.51-3.5-.13-5.71-.19-8.24-.19-2.8,0-5,.12-7.53.19a1.11,1.11,0,0,1-.13-1.51l1.1-.19c3.64-.59,3.76-1.2,3.76-7.53V290.06c0-6.33-.45-7.35-3.82-7.6l-1.69-.12c-.39-.23-.26-1.32.13-1.51,3.18.06,5.38.19,8.18.19,2.53,0,4.74-.06,7.53-.19.38.19.51,1.28.12,1.51l-1.23.12c-3.76.37-3.89,1.27-3.89,7.6V297c0,1.87.13,1.93,3.24,1.93H348c3.12,0,3.25-.06,3.25-1.93v-6.94c0-6.33-.13-7.23-4-7.6l-1.23-.12c-.39-.23-.26-1.32.13-1.51,3,.13,5.19.19,7.85.19s4.74-.06,7.66-.19c.39.19.52,1.28.12,1.51l-1.36.12c-3.76.37-3.89,1.27-3.89,7.6v21.72c0,6.33.13,7.12,3.89,7.53l1.56.19c.39.24.26,1.32-.13,1.51-3.11-.13-5.32-.19-7.85-.19s-5,.06-7.85.19a1.11,1.11,0,0,1-.13-1.51l1.23-.19c4-.59,4-1.2,4-7.53v-8.51c0-1.8-.13-1.93-3.25-1.93Z"/><path class="cls-1" d="M293.6,321.62a25.26,25.26,0,0,1-11.1-2.23c-.86-1.33-1.78-5.61-1.92-8.45a1.44,1.44,0,0,1,1.71-.18c1.06,3.09,4,9,12.24,9,6,0,8.89-3.32,8.89-6.93,0-2.66-.64-5.61-5.84-8.45l-6.75-3.74c-3.56-2-7.69-5.42-7.69-10.37,0-5.73,5.27-10.38,14.52-10.38a32.18,32.18,0,0,1,6.61.79,11.3,11.3,0,0,0,2.5.36,22.76,22.76,0,0,1,1.28,7.36,1.61,1.61,0,0,1-1.78.18c-.93-2.89-2.85-6.81-9.68-6.81s-8.47,3.92-8.47,6.69c0,3.5,3.42,6,6.05,7.42l5.69,3c4.49,2.36,8.9,5.85,8.9,11.58,0,6.64-5.91,11.16-15.16,11.16"/><path class="cls-1" d="M263.6,290.18c0-6.39-.14-7.41-4.09-7.72l-1.67-.12c-.4-.23-.26-1.32.14-1.51,3.34.12,5.62.19,8.43.19s5-.07,8.3-.19c.41.19.54,1.28.14,1.51l-1.68.12c-3.94.31-4.08,1.33-4.08,7.72v21.48c0,6.39.14,7.24,4.08,7.65l1.68.19c.4.24.27,1.32-.14,1.51-3.34-.13-5.62-.19-8.3-.19s-5.09.06-8.43.19a1.09,1.09,0,0,1-.14-1.51l1.67-.19c3.95-.41,4.09-1.26,4.09-7.65Z"/><path class="cls-1" d="M236.72,311.78c0,6.33.12,7.24,3.76,7.53l2,.19c.37.24.25,1.32-.13,1.51-3.58-.13-5.7-.19-8.22-.19s-4.7.06-8.71.19a1,1,0,0,1,0-1.51l2.26-.19c3.57-.29,3.88-1.2,3.88-7.53v-27c0-1.86,0-1.92-1.88-1.92h-3.45c-2.7,0-6.15.12-7.71,1.51a10.78,10.78,0,0,0-2.82,4.15,1.24,1.24,0,0,1-1.64-.41,59.7,59.7,0,0,0,2.38-9,1.77,1.77,0,0,1,1.2,0c.37,1.94,2.44,1.88,5.33,1.88h25.4c3.39,0,4-.12,4.89-1.69.32-.12,1-.06,1.13.18a35.07,35.07,0,0,0-.94,9.17c-.25.48-1.31.48-1.63.12-.18-1.51-.62-3.75-1.57-4.4-1.44-1-3.82-1.51-7.27-1.51h-4.46c-1.87,0-1.81.06-1.81,2.05Z"/><path class="cls-1" d="M199.57,290.18c0-6.39-.13-7.41-4.08-7.72l-1.67-.12c-.41-.23-.27-1.32.13-1.51,3.35.12,5.62.19,8.44.19s5-.07,8.3-.19c.4.19.53,1.28.13,1.51l-1.67.12c-4,.31-4.09,1.33-4.09,7.72v21.48c0,6.39.14,7.24,4.09,7.65l1.67.19c.4.24.27,1.32-.13,1.51-3.35-.13-5.63-.19-8.3-.19s-5.09.06-8.44.19a1.08,1.08,0,0,1-.13-1.51l1.67-.19c3.95-.41,4.08-1.26,4.08-7.65Z"/><path class="cls-1" d="M164.94,299.68c-1.21,0-3.65.45-3.65-1.17V287c0-4.53.15-5.18,5.58-5.18,6.36,0,10.3,3.24,10.3,9.18a7.6,7.6,0,0,1-3.29,6.6c-2.72,1.87-5.65,2.13-8.94,2.13m24.4,19.82-1.67-.15-.93-.12c-2.45-.43-3.43-2.62-4.58-4.64l-5.79-10.08c-1-1.68-2.07-3.94-4.36-4.27,5.93-.71,11.29-4.13,11.29-10,0-6.8-6.72-9.83-13.51-9.83-4.07,0-7.79.11-11.93.11-2.28,0-5-.11-7.29-.11-1.27,0-1.29.26-1.29,1,0,1.05.44.75,1.79.83,4.83.27,4.64,1.17,4.64,5.31v26.43c0,3.78.33,4.92-3.64,5.27l-1,.1-1.68.17a1.09,1.09,0,0,0,.14,1.51l2.48-.09c2.2-.07,4.4-.24,6.59-.24s4.33.17,6.51.24h0l2.47.08a1.07,1.07,0,0,0,.14-1.5l-1.69-.17-.95-.09c-4-.27-3.76-1.4-3.76-5.28V304c0-.59-.07-2.13.36-2.59s1-.32,1.57-.32c5.43,0,5.36.52,7.93,5l7,12.61c.57,1,1,2.19,2.43,2.19h6.08l2.46.09a1.09,1.09,0,0,0,.14-1.51"/><path class="cls-1" d="M117.82,309c0,2.54.16,6.14,1.65,7.69s3.84,2,6.19,2c7,0,12.31-2.82,12.31-9.89,0-5.57-3.14-12.07-15.6-12.07-4.23,0-4.55.42-4.55,1.84Zm0-16.39c0,2,.08,2.12,4.08,2,8-.28,12.31-2.4,12.31-9,0-6.92-5.72-9.53-11.68-9.53a10.74,10.74,0,0,0-3.61.42c-.78.22-1.1.57-1.1,1.84Zm-6.42-9.39c0-5.22-.37-6.61-3.9-6.89l-2.45-.17c-.4-.32-.28-1.73.08-1.76,4.23-.38,9.56-.57,16.85-.57,4.94,0,9.64.35,13.17,2a9.24,9.24,0,0,1,5.95,8.83c0,5.08-3.29,7.69-8,9.67,0,.7.63.92,1.49,1.06,4.23.7,10.5,4.23,10.5,11.79,0,8.19-6.74,13.7-20.85,13.7-2.27,0-6.11-.21-9.4-.21-3.45,0-6.12.14-9,.21a1.27,1.27,0,0,1-.15-1.77l1.41-.21c4.15-.63,4.31-1.41,4.31-8.83Z"/><path class="cls-3" d="M139.12,238.6c42.4,0,101,23.86,143.6,23.86,30.37,0,60-8.1,76.87-20a130.59,130.59,0,0,0,1.8-21.53,129,129,0,1,0-256.29,21.3c4.66-.87,20.47-3.59,34-3.59"/><polygon class="cls-2" points="315.72 191.05 320.82 193.17 332.14 185.28 315.72 191.05"/><path class="cls-2" d="M125.62,182.24l-13.41-4.72.67-1.64,15.11,5,.06,0,2-1.13.8-.5-16.47-7,.7-1.73,36.76,14.87,1.21-.5-36.46-17.77.82-1.67,38.63,18,.53-.27L119.1,161.92l.77-1.6L174,189.75c.44-.82,1.37-2.31,1.84-3.11a480.13,480.13,0,0,0-40.4-33.85A483.76,483.76,0,0,0,181,179.16c.84-1,1.52-1.87,2.41-2.86l-46.15-40.62,1.24-1.27,37.24,31.74-34.5-34.55,1.29-1.34,38.74,37.44-36.06-40,1.38-1.25,33.33,35.69-30.42-38.33,1.31-1.19,39,47.45c1-.87,1.84-1.52,2.9-2.33A479.14,479.14,0,0,0,168,121.43a481.94,481.94,0,0,0,32.21,41.32c1.13-.64,2.28-1.25,3.45-1.82l-.2-.13-27.33-54.54,1.63-.71,22.64,43.38-19-45,1.7-.76L205,152.43l-18.44-50.61,1.74-.64,17.54,45.58L191.94,99.82l1.66-.61,18.23,58.21,0,.16,0,0c1.2-.41,2.44-.77,3.68-1.1A481.58,481.58,0,0,0,210,104.58a484,484,0,0,0,14.31,50.14c1.28-.16,2.56-.29,3.86-.38l0-.06h.16l-.09-.13-4.91-60.81,1.78,0,4.74,48.7L229,93.17l1.86-.06L232.71,147l1.86-53.84,1.86.06L235.61,142l4.74-48.7,1.77,0-4.9,60.81-.1.13h0v0h.08c1.27.08,2.53.21,3.78.35a484.36,484.36,0,0,0,14.28-50.07,480,480,0,0,0-5.52,51.75c1.25.33,2.49.7,3.71,1.1l18.17-58,1.66.61L259.45,147,277,101.39l1.74.64-18.44,50.61,21.89-49.22,1.7.75-19.05,45,22.64-43.38,1.63.71-27.23,54.34,0,0c1.13.55,2.22,1.13,3.31,1.73a479.93,479.93,0,0,0,32-41.13,483.22,483.22,0,0,0-24.56,46c1.06.8,2.09,1.62,3.08,2.47L314.33,123l1.31,1.19L285.22,162.5l33.33-35.69,1.38,1.25-36.07,40,38.74-37.44,1.3,1.34-34.51,34.55,37.25-31.74,1.23,1.27L282.3,176.23l0,0c.8.89,1.56,1.81,2.31,2.74a483.35,483.35,0,0,0,45.26-26.2,478.92,478.92,0,0,0-40.11,33.57c.56.94,1.46,2.53,2,3.49l53.32-29,.77,1.6-42.56,24.14L347.56,166l.81,1.67-41.24,20.09.8.28,41.95-17,.71,1.72-39,16.59.73.3,26-8.67,3.92-2.73,1.29,1,8.56-2.86.67,1.65-7.4,2.6L356,188.79l3.43,1.91a130.71,130.71,0,0,0-254.87,3l.48-.23,1.56-.71,1-.45Z"/><path class="cls-1" d="M103.85,245s19.27-3.85,35.37-3.85c42.39,0,101,23.87,143.6,23.87,31.21,0,61.66-8.57,78.25-21.05a131.5,131.5,0,0,0-1.61-53.25l-17.74-9.9L320.9,195.4l-14-5.45c-4.74,2.39-34,22-34,22l-11.22-8.12-12-2.39L233.58,189.7l-18.41,12.64s-20.56,11.94-21.26,11.94-24.8-19.09-24.8-19.09L158,183.49c-1.89,1.19-9.44,4.66-9.44,4.66l-.38.1L140.88,186l-8.87-4.7-26.94,12.22-.48.23a131.19,131.19,0,0,0-.74,51.24"/></svg>