<svg enable-background="new 0 0 283.141 282.438" height="282.438" viewBox="0 0 283.141 282.438" width="283.141" xmlns="http://www.w3.org/2000/svg"><path d="m283.051 18.226c0-10.206-8.268-18.487-18.473-18.487h-246.007c-10.204 0-18.48 8.281-18.48 18.487v245.962c0 10.214 8.276 18.511 18.48 18.511h246.007c10.204 0 18.473-8.297 18.473-18.511z" fill="#a6a6a6"/><g fill="#fff"><path d="m221.78 224.867v-28.5l-14.485-14.484-13.531 13.531v48.453h17.578z"/><path d="m214.123 188.992 22.188-18.547s17.672-2.844 17.672 3.438c0 6.25 1.141 35.891 1.141 42.734 0 6.844.438 33.094 4.984 39.938 1.016 1.5-7.875 6.453-7.875 6.453s.031-6.484-1.109-9.328c-1.141-2.859-7.406-25.656-7.406-25.656l-17.531 34.953h-10.25s4.406-4.172 6.109-8.172c1.719-3.984 12.547-31.344 11.406-44.453-.781-9.094-1.141-22.797-1.141-22.797l-12.641 6.922z"/><path d="m239.155 166.664c4.453 0 8.062-3.781 8.062-8.469s-3.609-8.469-8.062-8.469-8.047 3.781-8.047 8.469 3.594 8.469 8.047 8.469z"/><path d="m22.968 167.008 16.109 4.609s7.367-23.094 22.406-43c16.625-22.016 52.172-51.641 88.203-70.219 45.5-23.484 78.656-22.984 78.656-22.984l.141-15.984s-19.562.5-35.828 5.031c-7.016 1.953-53.609 17.062-92.007 45.859-6.665 5-66.571 50.297-77.68 96.688z"/><path d="m117.562 64.211h5.266v33.469h-5.266z"/><path d="m137.046 109.32h5.297v33.469h-5.297z"/><path d="m67.483 212.508-16.898-4.891s3.695-13.703 7.602-20.062c3.914-6.359 15.172-35.234 51.375-67.016 6.031-5.312 28.375-24.469 43.546-33.266 15.172-8.812 37.234-19.109 58.203-22.812 5.312-.938 21.688-1.875 21.688-1.875v15.375s-12.891-.172-25.156 2.766c-12.359 2.953-38.109 12.406-69.906 37.359-8.234 6.469-27.391 22.984-49.898 51.859-5.837 7.5-16.634 23.969-20.556 42.563z"/><path d="m98.765 246.852-16.078-5.234s5-16 9.727-25.109c4.57-8.797 22.992-38.156 42.555-55.766 8.75-7.875 32.124-27.984 55.781-42.578 23.594-14.547 46.437-14.766 46.437-14.766l.031 14.188s-10.266.578-18.094 3.516-31.312 11.75-52.844 30.344c-6.812 5.875-23.484 19.359-39.125 39.906-5.203 6.811-21.531 30.53-28.39 55.499z"/><path d="m214.42 24.102h5.281v33.453h-5.281z"/><path d="m44.655 140.539h5.281v33.469h-5.281z"/><path d="m75.608 178.117h5.281v33.453h-5.281z"/><path d="m218.827 69.102h5.281v30.266h-5.281z"/><path d="m223.264 110.367h5.266v33.469h-5.266z"/><path d="m155.233 152.758h5.266v33.469h-5.266z"/><path d="m106.788 213.914h5.273v33.469h-5.273z"/></g></svg>