<?xml version="1.0" encoding="UTF-8"?>
<svg xmlns="http://www.w3.org/2000/svg" viewBox="0 0 283.14 282.44">
  <defs>
    <style>
      .cls-1 {
        fill: #fff;
      }

      .cls-1, .cls-2 {
        stroke-width: 0px;
      }

      .cls-2 {
        fill: #4e6086;
      }
    </style>
  </defs>
  <g id="Background">
    <path class="cls-1" d="m283.14,18.46c0-10.19-8.27-18.46-18.48-18.46H18.49C8.28,0,0,8.27,0,18.46v245.5c0,10.2,8.28,18.47,18.49,18.47h246.16c10.21,0,18.48-8.28,18.48-18.47V18.46Z"/>
    <path class="cls-2" d="m283.14,18.46c0-10.19-8.27-18.46-18.48-18.46H18.49C8.28,0,0,8.27,0,18.46v245.5c0,10.2,8.28,18.47,18.49,18.47h246.16c10.21,0,18.48-8.28,18.48-18.47V18.46Z"/>
  </g>
  <g id="Mooring_Buoy" data-name="Mooring Buoy">
    <g id="Mooring_Buoy-2" data-name="Mooring Buoy">
      <g>
        <path class="cls-1" d="m130.71,65.28l12.62-22.23h57.27l-2.91,7.73h-14.56l-4.84,14.49h-47.58Zm34.95,0l4.86-14h-20.85l-7.78,14h23.77Z"/>
        <polygon class="cls-1" points="98.37 78.83 86.03 168.37 81.23 167.71 94.15 74.03 98.37 78.83"/>
        <path class="cls-1" d="m88.02,65.28h161.09l-12.61,31.9h-125.19l-23.3-31.9Zm10.35,13.55l1.3-10.63-4.9-.03-.62,5.86,4.23,4.8Z"/>
        <path class="cls-2" d="m183.73,103.06c-8.67,0-8.84-6.2-8.84-6.2,0,0,.2,6.2-8.3,6.2s-8.82-6.2-8.82-6.2c0,0,.17,6.2-8.3,6.2s-8.86-6.2-8.86-6.2c0,0,.2,6.2-8.29,6.2s-8.83-6.2-8.83-6.2c0,0,.19,6.2-8.3,6.2v-5.88c8.48,0,8.3-5.58,8.3-5.58,0,0,.19,5.58,8.83,5.58s8.29-5.58,8.29-5.58c0,0,.2,5.58,8.86,5.58s8.3-5.58,8.3-5.58c0,0,.17,5.58,8.82,5.58s8.3-5.58,8.3-5.58c0,0,.17,5.58,8.84,5.58"/>
        <path class="cls-2" d="m183.73,97.18c8.46,0,8.3-5.58,8.3-5.58,0,0,.16,5.58,8.82,5.58s8.3-5.58,8.3-5.58c0,0,.19,5.58,8.84,5.58s8.3-5.58,8.3-5.58c0,0,.16,5.58,8.84,5.58v5.88c-8.67,0-8.84-6.2-8.84-6.2,0,0,.16,6.2-8.3,6.2s-8.84-6.2-8.84-6.2c0,0,.19,6.2-8.3,6.2s-8.82-6.2-8.82-6.2c0,0,.16,6.2-8.3,6.2"/>
      </g>
    </g>
    <g id="Marina">
      <g>
        <path class="cls-1" d="m82.2,227.12c1.45,0,2.63-1.18,2.63-2.63v-37.39c0-1.45-1.17-2.63-2.63-2.63h0c-1.45,0-2.63,1.18-2.63,2.63v37.39c0,1.45,1.18,2.63,2.63,2.63h0Z"/>
        <path class="cls-1" d="m72.37,177.21c0-5.43,4.4-9.84,9.83-9.84s9.84,4.41,9.84,9.84-4.4,9.83-9.84,9.83-9.83-4.4-9.83-9.83Zm9.83,4.26c2.35,0,4.26-1.91,4.26-4.26s-1.91-4.26-4.26-4.26-4.26,1.91-4.26,4.26,1.91,4.26,4.26,4.26Z"/>
        <path class="cls-1" d="m107.94,215.42c-5.01,9.08-14.68,15.23-25.79,15.23s-20.79-6.22-25.82-15.27l-.03-.08-3.05,1.3,2.02-12.82,9.5,7.92-3.07,1.3.05.07c4.11,7.04,11.74,11.76,20.48,11.76s16.31-4.69,20.43-11.68l.06-.17-3.03-1.29,9.5-7.92,2.03,12.82-3.19-1.36-.07.19Z"/>
      </g>
    </g>
  </g>
</svg>