<svg enable-background="new 0 0 283.141 282.438" height="282.438" viewBox="0 0 283.141 282.438" width="283.141" xmlns="http://www.w3.org/2000/svg"><path d="m283.141 18.453c0-10.187-8.273-18.453-18.484-18.453h-246.165c-10.211 0-18.492 8.266-18.492 18.453v245.508c0 10.195 8.281 18.477 18.492 18.477h246.165c10.211 0 18.484-8.281 18.484-18.477z" fill="#a6a6a6"/><g fill="#fff"><path d="m99.017 159.187c1.477-1.944 2.966-3.905 4.521-5.952 2.332 2.872 4.141 5.904 5.235 9.269 4.99 15.341 1.927 28.907-9.562 40.263-5.901 5.833-13.265 8.782-21.64 8.359-10.164-.513-17.907-5.438-23.149-14.052-8.199-13.476-6.472-31.537 3.896-43.378 5.099-5.824 11.334-9.656 19.031-10.87 7.063-1.114 13.564.459 19.666 4.385-1.542 2.048-3.019 4.009-4.522 6.006-3.255-1.899-6.684-3.02-10.369-3.12-7.354-.2-13.335 2.788-18.342 8.032-9.029 9.455-10.251 25.156-2.748 35.862 7.542 10.761 22.084 12.773 32.316 4.472 10.843-8.798 13.995-23.85 7.552-36.156-.552-1.052-1.228-2.038-1.885-3.12z"/><path d="m139.52 72.18c1.174-8.246 7.003-12.984 15.185-12.463 9.97.635 17.125 5.721 22.119 14.143.712 1.202 1.268 2.496 2.036 4.027-3.381-.468-6.464-.895-9.698-1.342-.383 4.644-2.283 8.377-6.363 10.715-2.655 1.522-5.525 2.032-8.57 1.417-7.019-1.418-10.403-6.801-9.743-15.7-1.619-.26-3.255-.522-4.966-.797z"/><path d="m149.85 153.962c-.662 1.333-1.25 2.615-1.938 3.841-.183.326-.639.579-1.022.698-1.937.604-3.885 1.175-5.842 1.712-.828.227-1.221.561-1.159 1.547.312 4.987.536 9.979.787 14.969.131 2.602-.575 4.922-2.527 6.706-.44.402-1.263.654-1.853.571-1.789-.25-3.563-.648-5.314-1.101-.466-.121-1.019-.565-1.206-1.001-2.09-4.86-4.12-9.746-6.148-14.632-.166-.399-.255-.852-.278-1.285-.194-3.709-.378-7.42-.537-11.131-.086-2.014.452-3.866 1.737-5.431.271-.33.902-.639 1.287-.56 7.784 1.588 15.557 3.233 23.33 4.871.199.044.39.129.683.226z"/><path d="m150.574 239.817c-1.565 2.226-2.978 4.235-4.404 6.264 5.214 3.236 10.83 4.692 16.94 4.854-.146 1.779-.278 3.392-.421 5.134-7.117 0-13.564-2.074-19.611-5.657-1.895 2.65-3.712 5.19-5.667 7.923-3.165-6.922-6.243-13.655-9.443-20.655 7.602.719 14.957 1.414 22.606 2.137z"/><path d="m252.813 99.286c2.774.913 5.527 1.82 8.559 2.818-5.686 5.09-11.222 10.046-16.943 15.167-1.569-7.498-3.09-14.767-4.657-22.259 2.762.9 5.3 1.727 8.048 2.622 1.922-5.488 3.823-10.916 5.767-16.467 1.588.47 3.175.939 4.979 1.473-1.923 5.563-3.814 11.034-5.753 16.646z"/><path d="m134.073 27.555c6.695 3.824 13.152 7.512 19.767 11.29-6.574 3.838-12.996 7.586-19.649 11.47 0-3.109 0-5.956 0-8.906-5.955-.375-11.722-1.057-17.471-2.678.417-1.669.819-3.275 1.187-4.748 5.375.806 10.671 1.6 16.166 2.423 0-3.118 0-5.835 0-8.851z"/><path d="m30.434 123.391c-2.541.692-4.91 1.337-7.54 2.053 1.929-7.401 3.803-14.588 5.727-21.969 5.266 5.464 10.413 10.803 15.525 16.106-2.488.7-5.419 1.523-8.471 2.381.403 6.049-.104 12.001-1.7 17.983-1.666-.395-3.275-.777-5.013-1.189 1.114-5.047 1.941-10.043 1.472-15.365z"/><path d="m34.319 49.663c-1.248-1.012-2.54-2.059-4.105-3.328 5.846-5.546 11.6-11.005 17.464-16.568 1.191 1.431 2.255 2.709 3.364 4.04-5.548 5.26-11.057 10.484-16.723 15.856z"/><path d="m240.755 218.564c1.655.777 3.124 1.467 4.709 2.211-3.288 7.741-9.461 13.09-15.073 18.896-1.269-1.24-2.46-2.403-3.69-3.604 5.079-5.51 10.922-10.327 14.054-17.503z"/><path d="m233.448 25.043c-.243 1.761-.47 3.407-.712 5.164-7.599-.952-15.126-1.193-22.807-.352-.209-1.7-.41-3.343-.632-5.152 8.089-.969 16.07-.704 24.151.34z"/><path d="m262.045 58.889c-1.698 0-3.32 0-5.061 0-.496-7.153-.488-14.484-4.929-20.881 1.31-1.021 2.616-2.038 3.91-3.046 3.634 3.035 6.842 15.611 6.08 23.927z"/><path d="m241.004 126.642c1.79.157 3.405.299 4.88.429.434 7.655.863 15.213 1.304 22.982-1.447.179-3.084.381-4.91.607-.944-7.954-1.616-15.834-1.274-24.018z"/><path d="m122.768 230.98c-.852 1.513-1.65 2.929-2.545 4.517-6.44-3.881-13.322-5.588-20.978-4.097-.201-1.807-.384-3.446-.576-5.168 8.697-1.666 16.585.228 24.099 4.748z"/><path d="m75.504 230.036c.268 1.536.553 3.17.861 4.936-7.85 1.366-15.636 2.541-23.704 2.864 0-1.775 0-3.429 0-4.955 7.523-.937 15.126-1.884 22.843-2.845z"/><path d="m186.168 29.498c.411 1.599.814 3.169 1.301 5.063-7.667 1.803-15.306 3.599-23.149 5.444-.311-1.962-.575-3.625-.822-5.176 7.599-1.787 15.049-3.539 22.67-5.331z"/><path d="m71.09 29.993c.2-1.661.397-3.305.624-5.193 7.861 1.053 15.614 2.092 23.464 3.143-.328 1.886-.606 3.479-.895 5.138-7.726-1.028-15.391-2.049-23.193-3.088z"/><path d="m186.198 251.845c7.529-.404 14.99-.689 22.227-3.266.628 1.622 1.227 3.167 1.972 5.091-3.173.729-6.175 1.655-9.245 2.069-4.59.618-9.228.873-13.845 1.289-.767.069-1.15-.182-1.122-1.029.047-1.361.013-2.725.013-4.154z"/><path d="m23.378 161.628c1.988.289 3.628.528 5.179.754-.742 7.77-1.471 15.403-2.212 23.17-1.593-.075-3.238-.152-5.218-.245.752-7.912 1.49-15.674 2.251-23.679z"/><path d="m31.054 92.475c-1.749.395-3.362.759-5.063 1.144-1.847-7.849-3.467-15.607-3.364-23.712h5.215c-.08 7.668 1.511 15.072 3.212 22.568z"/><path d="m250.534 196.967c-1.847 0-3.466 0-5.005 0-.17-7.767-.336-15.391-.508-23.239 1.473-.132 3.115-.28 4.991-.448.54 7.928.833 15.791.522 23.687z"/><path d="m28.643 232.384c-3.285-2.532-5.24-5.75-6.43-9.501-1.226-3.864-1.017-7.867-1.198-11.833-.032-.697-.005-1.396-.005-2.214h5.385c0 2.169-.011 4.323.002 6.477.031 5.012 1.267 9.535 5.445 12.95-1.062 1.368-2.078 2.676-3.199 4.121z"/><path d="m157.778 142.088c-.877 1.129-1.794 2.23-2.616 3.397-.439.623-.833.809-1.626.634-4.43-.978-8.879-1.874-13.359-3.077 2.153-.654 4.305-1.311 6.459-1.96 2.366-.713 4.742-1.393 7.098-2.136 1.248-.394 2.228-1.079 2.123-2.611-.29-4.26-.577-8.52-.887-13.102-6.268 4.272-12.662 7.259-19.675 8.789-.34 3.068-2.875 3.906-5.386 2.146-4.767-3.34-9.717-6.417-14.751-9.707-1.444 4.637-2.853 9.165-4.332 13.917 7.088 1.5 14.097 2.996 21.111 4.463 7.044 1.474 14.094 2.918 21.29 4.407-.928 1.549-1.772 3.034-2.713 4.456-.165.249-.765.384-1.11.313-10.984-2.269-21.961-4.571-32.94-6.864-1.333-.278-2.669-.538-4.279-.862 1.022 2.463 1.948 4.713 2.886 6.957 4.457 10.66 8.906 21.323 13.406 31.965.211.5.824 1.041 1.345 1.165 2.921.696 5.865 1.297 8.813 1.867.778.15 1.032.447.936 1.233-.171 1.4-.25 2.81-.385 4.428-1.696-.332-3.321-.638-4.942-.97-2.509-.514-5.012-1.05-7.52-1.567-1.159-.239-1.983-.811-2.462-1.964-5.671-13.642-11.368-27.274-17.062-40.907-.048-.115-.152-.208-.33-.444-2.079 2.734-4.117 5.418-6.158 8.099-6.133 8.052-12.27 16.1-18.396 24.157-.709.933-1.617 1.387-2.761 1.186-1.158-.203-2.017-.973-2.096-2.099-.058-.834.213-1.869.711-2.536 4.648-6.236 9.375-12.413 14.082-18.605 3.478-4.574 7.065-9.07 10.386-13.756 1.194-1.685 1.909-3.768 2.571-5.76 1.599-4.815 3.013-9.692 4.563-14.523.273-.851.071-1.249-.637-1.706-5.195-3.351-10.385-6.712-15.52-10.153-.744-.498-1.406-1.356-1.721-2.192-.374-.99.031-2.026.927-2.714.91-.699 1.929-.857 2.986-.35.551.264 1.068.598 1.682.947.159-.277.304-.53.45-.783 1.336-2.317 3.771-3.314 6.357-2.536 15.432 4.643 29.376 1.174 42.332-7.731 4.114-2.828 8.625-3.617 13.52-2.756 2.652.466 5.345.672 7.754 2.05 3.965 2.268 6.416 5.735 7.863 9.964 2.676 7.819 4.414 15.821 4.456 24.128.017 3.307.289 6.655-.124 9.912-.622 4.901-3.017 9.148-6.377 12.712-5.216 5.532-8.846 11.971-11.497 19.019-3.389 9.009-4.757 18.363-4.656 27.957.029 2.775-.931 5.107-3.145 6.836-2.731 2.132-5.742 2.458-8.841 1.009-3.087-1.443-4.713-4.081-4.748-7.408-.211-20.167 4.8-38.719 17.268-54.916.219-.284.246-.716.362-1.078-.229-.116-.457-.228-.685-.34zm-5.897-37.51c-5.926 3.965-12.218 6.879-18.962 8.812-6.832 1.958-13.794 2.537-20.977 2.179 4.657 3.045 9.314 6.089 13.948 9.12 1.81-1.951 2.569-2.435 4.407-2.706 8.181-1.205 15.269-4.76 21.556-10.025.327-.274.673-.796.647-1.177-.138-2.023-.391-4.038-.619-6.203z"/><path d="m179.24 168.578c-1.344-3.516-2.692-7.091-4.099-10.643-.126-.317-.601-.588-.969-.697-.88-.261-1.793-.412-2.827-.637 2.861-3.648 5.644-7.197 8.582-10.942 2.272.797 4.847 1.801 6.701 4.029 1.109 1.332.846 2.991-.78 3.601-1.869.702-3.887 1.007-6.009 1.525 1.45 3.826 2.985 7.879 4.569 12.058 1.202-.205 2.401-.428 3.606-.613 13.299-2.045 27.202 4.342 34.159 15.924 6.546 10.898 7.252 22.349 1.484 33.647-6.483 12.697-17.311 19.12-31.586 18.973-16.522-.171-30.432-12.39-33.173-28.677-.313-1.86-.489-3.682.086-5.62.474-1.595.413-3.406.309-5.104-.252-4.096 1.327-7.671 3.136-11.117 3.697-7.044 9.255-12.19 16.55-15.425.071-.031.117-.124.261-.282zm-12.626 29.101c-1.452 9.864 4.117 21.844 15.385 26.904 11.251 5.053 24.612 1.689 32.02-8.096 7.462-9.855 7.163-23.6-.657-33.025-7.754-9.346-19.568-10.839-25.978-8.823.985 2.591 1.966 5.176 2.95 7.761 2.165 5.688 4.356 11.367 6.484 17.069.915 2.452-.701 4.306-3.234 3.817-.824-.159-1.649-.312-2.47-.483-8.165-1.705-16.331-3.415-24.5-5.124zm15.489-21.574c-7.084 3.401-11.937 8.658-14.486 16.215 7.513 1.567 14.854 3.097 22.45 4.681-2.731-7.163-5.333-13.993-7.964-20.896z"/></g></svg>