<svg width="24" height="24" viewBox="0 0 24 24" fill="none" xmlns="http://www.w3.org/2000/svg">
<rect width="24" height="24" rx="3" fill="#38598A"/>
<path d="M12.0853 3.51465C12.0853 3.51465 12.2928 4.36491 11.0299 6.71289C9.7668 9.05996 9.08607 9.77311 9.27266 10.9757C9.45925 12.1782 9.8944 13.5293 11.2203 14.4938C12.5462 15.4583 11.8392 14.3938 11.8392 14.3938C11.8392 14.3938 11.5564 13.8111 12.3966 12.9713C13.1831 12.1848 14.1386 10.7471 14.1762 9.46264C14.2138 8.17734 14.0129 5.7541 12.0853 3.51465Z" fill="white"/>
<path d="M12.4857 14.8832C12.4857 14.8832 12.1839 13.6921 12.819 13.1008C13.4546 12.5085 14.3986 11.5345 14.5429 10.7042C14.6871 9.87396 14.7185 6.90137 14.7185 6.90137C14.7185 6.90137 15.5883 8.56953 15.8835 9.62929C16.1339 10.5281 16.3534 11.8497 15.7488 12.7295C15.1441 13.6093 14.2663 14.1101 13.3061 14.3881C12.3458 14.6651 12.4857 14.8832 12.4857 14.8832Z" fill="white"/>
<path d="M12.1172 15.674L14.6765 16.3805C14.6765 16.3805 16.2923 15.8807 16.4351 15.8445C16.5779 15.8083 17.0074 14.5819 16.0414 14.5772C15.7177 14.5753 14.9326 14.8333 14.9326 14.8333L12.1172 15.674Z" fill="white"/>
<path d="M14.9892 18.3629L8.12908 16.1339C8.12908 16.1339 7.58015 15.9035 7.87722 15.1904C8.04005 14.8 8.36046 14.7448 8.85271 14.8895C8.99269 14.9304 15.6177 16.8928 15.5682 16.8862C15.1412 16.8319 14.4423 17.8554 14.9892 18.3629Z" fill="white"/>
<path d="M15.4654 18.5157C15.7486 18.5957 16.0643 18.3377 16.1704 17.9397C16.2757 17.5426 16.1319 17.1551 15.8486 17.0771C15.5658 16.9971 15.2502 17.2542 15.1441 17.6522C15.0384 18.0492 15.1822 18.4367 15.4654 18.5157Z" fill="white"/>
<path d="M8.14577 18.4224C8.46429 18.3462 8.64472 17.9548 8.5485 17.5474C8.45186 17.1408 8.1153 16.8723 7.7958 16.9485C7.47637 17.0237 7.29642 17.415 7.39349 17.8216C7.48971 18.2291 7.82633 18.4976 8.14577 18.4224Z" fill="white"/>
<path d="M8.32812 16.7707C8.32812 16.7707 8.87559 16.9545 8.95462 17.4477C9.01459 17.8247 8.96224 18.0018 8.7623 18.1884L11.2255 17.4162L8.88564 16.624L8.32812 16.7707Z" fill="white"/>
<path d="M11.1381 14.794C11.1381 14.794 9.17385 13.658 8.90439 12.4127C8.55972 10.8197 8.7749 11.2044 8.85771 9.79808C8.94052 8.39176 8.61396 8.60121 8.54778 9.07445C8.4816 9.54671 8.15266 10.2808 7.88082 11.0082C7.60947 11.7366 7.7899 12.8811 8.39404 13.6314C8.99811 14.3827 9.3928 14.8063 11.1381 14.794Z" fill="white"/>
<line x1="5.68934" y1="18.163" x2="18.6081" y2="5.24422" stroke="#38598A" stroke-width="3"/>
<line x1="4.54289" y1="17.4618" x2="17.4616" y2="4.54309" stroke="white" stroke-width="2"/>
<circle cx="12" cy="12" r="8.75" stroke="white" stroke-width="2"/>
</svg>
