<svg enable-background="new 0 0 283.1 282.4" viewBox="0 0 283.1 282.4" xmlns="http://www.w3.org/2000/svg"><path d="m283.1 18.5c0-10.2-8.3-18.5-18.5-18.5h-246.1c-10.2 0-18.5 8.3-18.5 18.5v245.5c0 10.2 8.3 18.5 18.5 18.5h246.2c10.2 0 18.5-8.3 18.5-18.5v-245.5z" fill="#4e6086"/><path d="m283.1 18.5c0-10.2-8.3-18.5-18.5-18.5h-246.1c-10.2 0-18.5 8.3-18.5 18.5v245.5c0 10.2 8.3 18.5 18.5 18.5h246.2c10.2 0 18.5-8.3 18.5-18.5v-245.5z" fill="#4e6086"/><g fill="#fff"><path d="m99.3 118.1c5.5 0 10-4.5 10-10.1s-4.5-10.1-10-10.1-10.1 4.5-10.1 10.1 4.5 10.1 10.1 10.1z"/><path d="m207.5 117c5.5-.6 9.5-5.6 8.8-11.1-.6-5.5-5.6-9.5-11.1-8.8-5.5.6-9.5 5.6-8.9 11.1.7 5.4 5.7 9.4 11.2 8.8z"/><path d="m224.6 181.8c-.2 0-.5 0-.7 0z"/><path d="m261 167c0-9.4-10.1-19.7-10.1-19.7s-10.4 3.8-31.2 7.4c4.2-10.1 10.8-26.5 11.4-28.5.8-2.9 1.6-6.5-1.8-6.1s-25.2 5.2-25.2 5.2-11.4-12.7-14.3-9.8c-24.4 24-26.8 39.9-26.8 45.2-8 .4-16.4.6-25.5.6-11.7 0-22.4-.4-32.1-1.1 4.9-8.9 15.4-28 16.3-30.1 1.1-2.8 2.3-6.2-1.1-6.2s-25.6 2.3-25.6 2.3-9.8-13.9-13.1-11.4c-21.2 16.6-28.3 29.7-30.7 37.1-14.4-3.8-21.1-7.3-21.1-7.3s-8 13.1-8 23.1 4.1 14.2 26.1 14.2c6.4 0 11.6-2.3 12.5-8.4h.3c.9 6.1 6.1 8.4 12.5 8.4s11.6-2.3 12.5-8.5h.2c.8 6.1 6.1 8.5 12.5 8.5s11.6-2.3 12.5-8.5h.2c.9 6.1 6.1 8.5 12.5 8.5s11.7-2.3 12.5-8.5h.2c.8 6.2 6.1 8.5 12.5 8.5s11.7-2.4 12.5-8.5h.3c.8 6.2 6 8.5 12.4 8.5s11.7-2.3 12.5-8.5h.2c.8 6.2 6.1 8.5 12.5 8.5s11.6-2.3 12.5-8.5h.3c.8 6.2 6 8.5 12.4 8.5 30.5-.2 36.3-1.4 36.3-14.9zm-170.5-34.8s2.3 1.7 6.8 2.9c4.5 1.1 18.2-4.6 18.2-4.6s-7.8 13.9-8.5 14.2c-21 10.2-25-4.5-25-4.5zm-16 24.3-1.1-1.6s2.8-5.7 3.4-5.1c8.9 8.9 28.4.6 28.4.6l-5 9.3c-9.6-.9-18.2-1.9-25.7-3.2zm125.8-24.5s2.5 1.4 7.1 2.1c4.6.6 17.6-6.6 17.6-6.6s-6.2 14.7-6.9 15.1c-19.7 12.5-25.4-1.7-25.4-1.7zm-12.3 26.9-2-2.4s2.2-6 2.8-5.5c9.9 7.9 28.3-2.7 28.3-2.7l-2.9 7.2c-7.6 1.3-16.3 2.5-26.2 3.4z"/></g></svg>