<svg enable-background="new 0 0 283.1 282.4" viewBox="0 0 283.1 282.4" xmlns="http://www.w3.org/2000/svg"><path d="m283.1 18.5c0-10.2-8.3-18.5-18.5-18.5h-246.1c-10.2 0-18.5 8.3-18.5 18.5v245.5c0 10.2 8.3 18.5 18.5 18.5h246.2c10.2 0 18.5-8.3 18.5-18.5v-245.5z" fill="#fff"/><path d="m283.1 18.5c0-10.2-8.3-18.5-18.5-18.5h-246.1c-10.2 0-18.5 8.3-18.5 18.5v245.5c0 10.2 8.3 18.5 18.5 18.5h246.2c10.2 0 18.5-8.3 18.5-18.5v-245.5z" fill="#4e6086"/><g fill="#fff"><path d="m86.5 64.6s-12.9-18.4 5.1-28.6c18-10.1 29 1.9 29 1.9l11.1 4.6z"/><path d="m89.8 69.2s3.2 14.3 19.8 11.5 14.3-26.3 14.8-26.7c.4-.5-34.6 15.2-34.6 15.2z"/><path d="m192.5 169.6-9.2 12.4-39.6-22.6-24 16.6 29.5 21.2 20.7 34.6-7.8 11.5-28.1-29.4-50.7-20.3v73.3h-7.3v-77s-19.4-5.1-9.2-36l-27.2-35 40.1-36.4s7.4-4.6 12.9-.5 16.1 11.5 16.1 11.5l24.9-11.5 10.1-26.7v-43.3h6.9v41l3.7 1.8-8.8 40.2-27.2 18-16.6 37.8c5.1 0 42.9-18.9 42.9-18.9zm-123.9-31.3 3.7-27.2-12.9 9.2z"/><path d="m161.3 255.4 21.7-33.2-6.9-18 35.5-50.7v-22.5l-23.5-16.6v-68.2l-29.5-20.7 1.6-13.4h103.9s3.9.4 3.9 3.2v248.6s-.4 2.8-3.2 2.8c-29.2 0-30.7.1-100.1.1"/></g></svg>