<?xml version="1.0" encoding="utf-8"?>
<!-- Generator: Adobe Illustrator 27.3.1, SVG Export Plug-In . SVG Version: 6.00 Build 0)  -->
<svg version="1.1" id="Layer_1" xmlns="http://www.w3.org/2000/svg" xmlns:xlink="http://www.w3.org/1999/xlink" x="0px" y="0px"
	 viewBox="0 0 283 282" style="enable-background:new 0 0 283 282;" xml:space="preserve">
<style type="text/css">
	.st0{clip-path:url(#SVGID_00000147215960127150814000000004942104289438771075_);}
	.st1{fill:#FFFFFF;}
	.st2{clip-path:url(#SVGID_00000065774674684274677550000012899482957457791910_);}
	.st3{clip-path:url(#SVGID_00000117664432753029895320000002200716009807468430_);}
	.st4{fill:#4D5F85;}
	.st5{fill:none;}
	.st6{clip-path:url(#SVGID_00000072987782345181252980000010537822096106724775_);}
	.st7{clip-path:url(#SVGID_00000166661308262982522480000003808980790753408914_);}
	.st8{clip-path:url(#SVGID_00000169529362187247975700000016822104380809129109_);}
	.st9{clip-path:url(#SVGID_00000183225618083107995070000003914320608583155840_);}
	.st10{clip-path:url(#SVGID_00000142870649470643124700000018131475776126197658_);}
	.st11{fill:#FFFFFF;stroke:#FFFFFF;stroke-width:2;stroke-miterlimit:10;}
	.st12{clip-path:url(#SVGID_00000176735295200875172590000012401522587314897046_);}
	.st13{clip-path:url(#SVGID_00000181078077954781424080000009212545998603981977_);}
	.st14{clip-path:url(#SVGID_00000180351440262228587850000014756647248536477843_);}
	.st15{clip-path:url(#SVGID_00000011731271279420135250000007476077733124104383_);}
	.st16{clip-path:url(#SVGID_00000020367795931501425750000014934557709323292339_);}
	.st17{clip-path:url(#SVGID_00000153681922782988395980000016717366072490799257_);}
</style>
<g>
	<g>
		<g>
			<defs>
				<rect id="SVGID_1_" y="0.2" width="282" height="281"/>
			</defs>
			<clipPath id="SVGID_00000075877927783036988410000009508961309899503286_">
				<use xlink:href="#SVGID_1_"  style="overflow:visible;"/>
			</clipPath>
			<g style="clip-path:url(#SVGID_00000075877927783036988410000009508961309899503286_);">
				<path class="st1" d="M0,0.2h282v281H0V0.2z"/>
				<path class="st1" d="M0,0.2h282v281H0V0.2z"/>
			</g>
		</g>
	</g>
</g>
<g>
	<g>
		<defs>
			<rect id="SVGID_00000099660331325290256650000014171707311698501025_" x="0.5" y="0.5" width="282" height="281"/>
		</defs>
		<clipPath id="SVGID_00000026842471264438237220000006723047311408654748_">
			<use xlink:href="#SVGID_00000099660331325290256650000014171707311698501025_"  style="overflow:visible;"/>
		</clipPath>
		<g style="clip-path:url(#SVGID_00000026842471264438237220000006723047311408654748_);">
			<g>
				<g>
					<g>
						<defs>
							<path id="SVGID_00000040570209424749796960000010365351869656028308_" d="M16.4,0.5h250.1c4.2,0,8.3,1.7,11.3,4.7
								s4.7,7,4.7,11.3v249.1c0,4.2-1.7,8.3-4.7,11.3s-7,4.7-11.3,4.7H16.4c-4.2,0-8.3-1.7-11.3-4.7s-4.7-7-4.7-11.3V16.4
								c0-4.2,1.7-8.3,4.7-11.3S12.2,0.5,16.4,0.5"/>
						</defs>
						<clipPath id="SVGID_00000018957762687719782430000001580327054708635828_">
							<use xlink:href="#SVGID_00000040570209424749796960000010365351869656028308_"  style="overflow:visible;"/>
						</clipPath>
						<g style="clip-path:url(#SVGID_00000018957762687719782430000001580327054708635828_);">
							<g>
								<g>
									<path class="st4" d="M0.5,0.4h282v281H0.5V0.4z"/>
								</g>
							</g>
						</g>
					</g>
				</g>
			</g>
		</g>
	</g>
</g>
<path class="st1" d="M227.7,146.1c-0.1,0.3-0.2,0.6-0.3,1c-0.1,0.3-0.3,0.7-0.4,1c-0.3,0.7-0.8,1.4-1.3,2.1
	c-0.5,0.7-1.2,1.4-1.9,2.2c-0.7,0.7-1.5,1.4-2.3,2.2c-0.9,0.7-1.8,1.4-2.8,2.1c-1,0.7-2.1,1.3-3.2,2c-0.6,0.3-1.1,0.6-1.7,0.9
	c-0.6,0.3-1.2,0.6-1.8,0.9c-0.6,0.3-1.3,0.6-1.9,0.8c-0.3,0.1-0.7,0.3-1,0.4c-0.3,0.1-0.7,0.2-1,0.4c-1.4,0.5-2.7,0.9-4.2,1.3
	c-1.4,0.4-2.9,0.7-4.4,0.9s-3.1,0.3-4.7,0.3c-0.8,0-1.6-0.1-2.4-0.2c-0.8-0.1-1.6-0.3-2.4-0.6c-0.8-0.3-1.6-0.6-2.3-1.2
	c-0.4-0.3-0.7-0.6-1-1s-0.5-0.8-0.7-1.3c0-0.2-0.1-0.2-0.1-0.3v-0.2v-0.2c0-0.1,0-0.2-0.1-0.4c0-0.1,0-0.2,0-0.4c0-0.5,0-1,0.1-1.4
	c0.2-0.9,0.6-1.7,1-2.5c0.9-1.5,2-2.7,3.1-3.8c2.3-2.2,4.9-3.9,7.5-5.4c2.6-1.4,5.2-2.6,7.7-3.5s5-1.7,7.3-2.2s4.4-0.8,6.4-0.8
	c1.9,0,3.7,0.2,5.1,0.7c0.3,0.1,0.7,0.3,1,0.4c0.3,0.2,0.6,0.3,0.8,0.5c0.5,0.3,0.9,0.7,1.2,1.1c0.3,0.4,0.5,0.7,0.6,0.9
	c0.1,0.1,0.1,0.2,0.1,0.3s0,0.1,0,0.1l0,0c0,0,0,0,0,0.1v0.1c0,0,0,0,0,0.1v0.1c0,0.1,0,0.1,0.1,0.2c0,0.1,0,0.2,0.1,0.2
	c0,0.1,0,0.2,0,0.3s0,0.2,0,0.3C227.9,144.9,227.8,145.5,227.7,146.1z M233.3,143.6c-2.5-6.8-16.1-7.7-30.2-1.9
	c-14.2,5.8-23.6,16.1-21.1,22.9c2.5,6.8,16.1,7.7,30.2,1.9C226.4,160.7,235.8,150.4,233.3,143.6"/>
<path class="st1" d="M212,152.3l-5.2-0.3l-3.6,4l0.4-4.1l-5.2-0.3l5.5-2.2l0.4-4.1l3,2.8l5.5-2.2l-3.6,4L212,152.3z M226,144.6
	c0-0.1,0-0.1,0-0.2c0-0.1,0-0.1,0-0.2c0-0.1,0-0.1,0-0.1V144l0,0c0,0,0,0,0-0.1v-0.1v-0.1l0,0c0,0,0-0.1-0.1-0.2
	c-0.1-0.1-0.2-0.3-0.3-0.6c-0.2-0.2-0.4-0.5-0.8-0.8c-0.4-0.3-0.8-0.5-1.4-0.8c-0.6-0.2-1.3-0.4-2-0.6c-0.8-0.1-1.6-0.2-2.5-0.3
	c-0.9,0-1.9,0-2.9,0.1s-2.1,0.2-3.2,0.4c-0.6,0.1-1.1,0.2-1.7,0.3c-0.3,0.1-0.6,0.1-0.9,0.2c-0.3,0.1-0.6,0.2-0.9,0.2
	c-0.6,0.2-1.2,0.3-1.8,0.5s-1.2,0.4-1.8,0.6c-0.3,0.1-0.6,0.2-0.9,0.4c-0.3,0.1-0.6,0.3-0.9,0.4c-0.6,0.3-1.3,0.5-1.9,0.8
	c-1.3,0.6-2.5,1.3-3.8,2s-2.5,1.5-3.7,2.4c-0.6,0.4-1.2,0.9-1.8,1.4s-1.1,1-1.7,1.5c-0.3,0.3-0.5,0.5-0.8,0.8s-0.5,0.6-0.7,0.9
	c-0.5,0.6-0.9,1.2-1.2,1.9s-0.6,1.3-0.7,2c-0.1,0.3-0.1,0.7-0.1,1c0,0.1,0,0.2,0,0.2c0,0.1,0,0.2,0,0.2v0.1v0.1l0.1,0.2
	c0.2,0.6,0.6,1.1,1.2,1.4c0.5,0.4,1.2,0.7,1.8,0.8c1.4,0.4,2.8,0.5,4.3,0.5c0.7,0,1.5-0.1,2.2-0.1c0.7-0.1,1.4-0.2,2.2-0.3
	c1.4-0.2,2.8-0.6,4.2-0.9c1.4-0.4,2.7-0.8,4-1.3c0.3-0.1,0.6-0.2,1-0.4c0.3-0.1,0.6-0.2,0.9-0.4c0.6-0.3,1.2-0.5,1.8-0.8
	c2.4-1.1,4.6-2.3,6.5-3.5s3.6-2.5,4.9-3.8c1.3-1.3,2.3-2.5,2.9-3.6c0.1-0.3,0.3-0.5,0.4-0.8c0.1-0.3,0.2-0.5,0.2-0.7
	C226,145.2,226,144.9,226,144.6"/>
<polygon class="st5" points="76.2,21.6 212.1,20.6 212,257.7 76.1,258.7 "/>
<g>
	<g>
		<g>
			<defs>
				<rect id="SVGID_00000179641082396960277320000005144348338500064947_" x="135" y="24.9" width="4.2" height="3.9"/>
			</defs>
			<clipPath id="SVGID_00000179644517932736795270000003559300429773320090_">
				<use xlink:href="#SVGID_00000179641082396960277320000005144348338500064947_"  style="overflow:visible;"/>
			</clipPath>
			<g style="clip-path:url(#SVGID_00000179644517932736795270000003559300429773320090_);">
				<path class="st1" d="M136.8,28.7c-1,0-1.7-0.8-1.7-1.7c0-0.9,0.8-1.7,1.7-1.7s1.7,0.8,1.7,1.7C138.5,28,137.8,28.7,136.8,28.7"
					/>
			</g>
		</g>
	</g>
</g>
<g>
	<g>
		<g>
			<defs>
				<rect id="SVGID_00000145749704675110277090000010739873091119996832_" x="134.7" y="24.9" width="4.6" height="5.4"/>
			</defs>
			<clipPath id="SVGID_00000000185273138453658280000007543760335543815299_">
				<use xlink:href="#SVGID_00000145749704675110277090000010739873091119996832_"  style="overflow:visible;"/>
			</clipPath>
			<g style="clip-path:url(#SVGID_00000000185273138453658280000007543760335543815299_);">
				<path class="st1" d="M136.8,24.9c-1.2,0-2.1,0.9-2.1,2.1s1,2.1,2.1,2.1c1.2,0,2.1-0.9,2.1-2.1C138.9,25.9,138,24.9,136.8,24.9z
					 M136.8,25.7c0.8,0,1.4,0.6,1.4,1.3c0,0.7-0.6,1.3-1.4,1.3s-1.4-0.6-1.4-1.3C135.4,26.3,136,25.7,136.8,25.7"/>
			</g>
		</g>
	</g>
</g>
<g>
	<g>
		<g>
			<defs>
				<rect id="SVGID_00000012472486404668742130000014408987111067569588_" x="136.4" y="27.6" width="27.7" height="22.6"/>
			</defs>
			<clipPath id="SVGID_00000118392364485451682720000008948166889848322198_">
				<use xlink:href="#SVGID_00000012472486404668742130000014408987111067569588_"  style="overflow:visible;"/>
			</clipPath>
			<g style="clip-path:url(#SVGID_00000118392364485451682720000008948166889848322198_);">
				<path class="st1" d="M136.8,49.1L136.8,49.1c-0.3,0-0.4-0.2-0.4-0.4V30.3c0-0.1,0-0.2,0.1-0.3c0.1-0.1,2-2.1,6.1-2.1
					c2.4,0,5.1,0.7,8,2.2c2.5,1.3,4.7,1.9,6.7,1.9c3.9,0,5.5-2.5,5.5-2.5c0.1-0.1,0.2-0.2,0.3-0.2h0.1c0.2,0.1,0.3,0.2,0.3,0.4
					c0,0.1-0.5,3.6-2.1,7.2c-2.1,4.8-5.1,7.3-8.7,7.3c-0.8,0-1.6-0.1-2.4-0.3c-1.4-0.4-2.8-0.6-4-0.6c-2.8,0-5.2,0.9-7.1,2.7
					c-1.4,1.3-2.1,2.7-2.1,2.7C137.1,49,137,49.1,136.8,49.1"/>
			</g>
		</g>
	</g>
</g>
<g>
	<g>
		<g>
			<defs>
				<rect id="SVGID_00000085937398925890866960000017362866900093625486_" x="135" y="26" width="29" height="23.9"/>
			</defs>
			<clipPath id="SVGID_00000122720981019895667100000016592614239015593629_">
				<use xlink:href="#SVGID_00000085937398925890866960000017362866900093625486_"  style="overflow:visible;"/>
			</clipPath>
			<g style="clip-path:url(#SVGID_00000122720981019895667100000016592614239015593629_);">
				<path class="st1" d="M142.6,27.3c-4.2,0-6.3,2.2-6.4,2.2c-0.1,0.1-0.2,0.3-0.2,0.5v18.3c0,0.4,0.3,0.7,0.6,0.7
					c0.1,0,0.1,0,0.2,0c0.3,0,0.6-0.2,0.7-0.5c0,0,0.6-1.3,2-2.6c1.8-1.7,4.1-2.6,6.8-2.6c1.2,0,2.6,0.2,3.9,0.6
					c0.8,0.2,1.7,0.4,2.5,0.4c2.1,0,4-0.8,5.7-2.4c1.3-1.2,2.4-3,3.4-5.1c1.6-3.6,2.1-7.1,2.1-7.3c0.1-0.4-0.2-0.7-0.5-0.8
					c-0.1,0-0.2,0-0.3,0c-0.3,0-0.5,0.1-0.7,0.4c-0.1,0.1-1.5,2.3-5.2,2.3c-1.9,0-4.1-0.6-6.5-1.9C147.9,28.1,145.1,27.3,142.6,27.3
					z M142.6,28.1c2,0,4.6,0.5,7.8,2.2c2.8,1.4,5.1,1.9,6.9,1.9c4.2,0,5.8-2.7,5.8-2.7s-2.1,14.2-10.5,14.2c-0.7,0-1.5-0.1-2.3-0.3
					c-1.5-0.4-2.9-0.6-4.1-0.6c-7,0-9.5,5.6-9.5,5.6V30.1C136.8,30.1,138.7,28.1,142.6,28.1"/>
			</g>
		</g>
	</g>
</g>
<path class="st1" d="M136.1,66.6c-0.2,0-0.4-0.2-0.4-0.4v-37c0-0.2,0.2-0.4,0.4-0.4h1.4c0.2,0,0.4,0.2,0.4,0.4v37
	c0,0.2-0.2,0.4-0.4,0.4H136.1"/>
<g>
	<g>
		<g>
			<defs>
				<rect id="SVGID_00000166674783999793745500000012593950256270201781_" x="135" y="26.8" width="4.2" height="39.7"/>
			</defs>
			<clipPath id="SVGID_00000147937727052481821960000005090354897250936965_">
				<use xlink:href="#SVGID_00000166674783999793745500000012593950256270201781_"  style="overflow:visible;"/>
			</clipPath>
			<g style="clip-path:url(#SVGID_00000147937727052481821960000005090354897250936965_);">
				<path class="st1" d="M137.5,28h-1.4c-0.4,0-0.8,0.3-0.8,0.8v37.1c0,0.4,0.3,0.8,0.8,0.8h1.4c0.4,0,0.8-0.3,0.8-0.8V28.8
					C138.2,28.3,137.9,28,137.5,28z M137.5,28.8v37.1h-1.4V28.8H137.5"/>
			</g>
		</g>
	</g>
</g>
<rect x="104.4" y="180.1" class="st1" width="62.8" height="2.7"/>
<polygon class="st11" points="128.5,200.8 127,182.7 124.4,182.7 125.9,200.8 "/>
<polygon class="st11" points="146,182.7 144.6,200.8 144.6,201.6 147.2,201.6 147.2,200.8 148.7,182.7 "/>
<g>
	<g>
		<defs>
			<rect id="SVGID_00000094614419866854988800000012387030769362990489_" x="85.2" y="79.7" width="49.5" height="102.9"/>
		</defs>
		<clipPath id="SVGID_00000144314568003403389760000015566223344977197483_">
			<use xlink:href="#SVGID_00000094614419866854988800000012387030769362990489_"  style="overflow:visible;"/>
		</clipPath>
		<g style="clip-path:url(#SVGID_00000144314568003403389760000015566223344977197483_);">
			<g>
				<g>
					<defs>
						
							<rect id="SVGID_00000168094300698317596610000008947860316167838636_" x="83.7" y="79.4" transform="matrix(0.8546 -0.5193 0.5193 0.8546 -55.7452 72.5646)" width="36" height="112.9"/>
					</defs>
					<clipPath id="SVGID_00000102510193311582709460000013539330472619046038_">
						<use xlink:href="#SVGID_00000168094300698317596610000008947860316167838636_"  style="overflow:visible;"/>
					</clipPath>
					<g style="clip-path:url(#SVGID_00000102510193311582709460000013539330472619046038_);">
						<g>
							<g>
								<defs>
									
										<rect id="SVGID_00000046340063138783247330000004567125582021735339_" x="83.7" y="79.4" transform="matrix(0.8546 -0.5193 0.5193 0.8546 -55.7452 72.5646)" width="36" height="112.9"/>
								</defs>
								<clipPath id="SVGID_00000149348532405344062150000014850707125246595996_">
									<use xlink:href="#SVGID_00000046340063138783247330000004567125582021735339_"  style="overflow:visible;"/>
								</clipPath>
								<g style="clip-path:url(#SVGID_00000149348532405344062150000014850707125246595996_);">
									<path class="st1" d="M133.6,181.5c-0.6,0.4-1.6,0.3-2.3-0.2c-48.7-42.3-45.9-99-45.9-99.7c0.1-0.9,1-1.7,2-1.7
										c1.1,0,1.8,0.9,1.7,2.1c0,0.4-2.7,55.4,44.8,96.4c0.8,0.6,0.9,1.9,0.3,2.7C134.1,181.2,133.9,181.3,133.6,181.5z"/>
								</g>
							</g>
						</g>
					</g>
				</g>
			</g>
		</g>
	</g>
</g>
<g>
	<g>
		<defs>
			<rect id="SVGID_00000042713532822538068680000004657734564290225027_" x="139.2" y="79.7" width="49.8" height="102.9"/>
		</defs>
		<clipPath id="SVGID_00000014600885152797547000000017061474910212772484_">
			<use xlink:href="#SVGID_00000042713532822538068680000004657734564290225027_"  style="overflow:visible;"/>
		</clipPath>
		<g style="clip-path:url(#SVGID_00000014600885152797547000000017061474910212772484_);">
			<g>
				<g>
					<defs>
						<polygon id="SVGID_00000148651023316647896840000004447171529236742045_" points="217.5,96.9 186.5,78.3 127.4,174.7 
							158.4,193.4 						"/>
					</defs>
					<clipPath id="SVGID_00000031917236027552744900000005940621470621838243_">
						<use xlink:href="#SVGID_00000148651023316647896840000004447171529236742045_"  style="overflow:visible;"/>
					</clipPath>
					<g style="clip-path:url(#SVGID_00000031917236027552744900000005940621470621838243_);">
						<g>
							<g>
								<defs>
									<polygon id="SVGID_00000053525279673466047950000016291258706094127804_" points="217.5,96.9 186.5,78.3 127.4,174.7 
										158.4,193.4 									"/>
								</defs>
								<clipPath id="SVGID_00000147213760199985679810000010241065707293739940_">
									<use xlink:href="#SVGID_00000053525279673466047950000016291258706094127804_"  style="overflow:visible;"/>
								</clipPath>
								<g style="clip-path:url(#SVGID_00000147213760199985679810000010241065707293739940_);">
									<path class="st1" d="M140.3,181.5c0.6,0.4,1.6,0.3,2.3-0.2c49.1-42.3,46.3-99,46.2-99.7c-0.1-0.9-1-1.7-2.1-1.7
										s-1.9,0.9-1.7,2.1c0,0.4,2.8,55.4-45.1,96.4c-0.8,0.6-0.9,1.9-0.3,2.7C139.8,181.2,139.9,181.3,140.3,181.5z"/>
								</g>
							</g>
						</g>
					</g>
				</g>
			</g>
		</g>
	</g>
</g>
<path class="st1" d="M135.6,181.2c-0.7,0.3-1.6,0.1-2.2-0.5c-41.9-49-30.8-104.7-30.6-105.4c0.2-0.9,1.2-1.5,2.3-1.4
	s1.7,1.1,1.4,2.3c0,0.4-10.9,54.3,30,101.9c0.7,0.7,0.6,2-0.1,2.7C136.1,180.9,136,181,135.6,181.2z"/>
<path class="st1" d="M139.7,179.3c0.9,0.1,2-0.3,2.8-1c47-59,27.2-111,27-111.6c-0.7,0.4-1.2,0.2-2.6,0.6c-1.3,0.4-3-1-2.5,0.1
	c0.1,0.4,19.9,51.8-26.1,109.1c-0.8,0.9-0.6,2.1,0.4,2.7C139,179.2,139.3,179.2,139.7,179.3z"/>
<path class="st1" d="M138.5,179C107.1,123,125.7,57.4,125,69.2c0.5-1.1,0-2.2-1-2.6s-2,0.1-2.3,1c-0.1,0.2-4.4,6.8-5.4,17.9
	c-1.8,21.4-2.2,57.7,18.9,95.6c0.5,0.7,1.3,1.1,2,0.9c0.3-0.1,0.5-0.1,0.7-0.2C138.9,181.1,139.1,179.8,138.5,179z"/>
<path class="st1" d="M123.8,85.9"/>
<path class="st1" d="M153.9,85.9"/>
<path class="st1" d="M135.2,177.7c32-56.2,12.8-121.7,13.5-109.9c-0.5-1.1,0.5-0.5,1.5-0.9s1,0.4,1.8,0.1c0.1,0.2,4.6,6,5.6,17.1
	c1.9,21.4,2.4,57.7-19.1,95.7c-0.5,0.7-1.4,1.1-2.1,0.9c-0.3-0.1-0.5-0.1-0.7-0.2C134.9,179.9,134.6,178.6,135.2,177.7z"/>
<g>
	<path class="st11" d="M199.3,180.8c-0.4-0.5-1.1-0.8-1.7-0.8l-23.7-0.1h-6.5l-2.9,0.1v0.1h-6.7h-3h-5l-1.4-0.1h-3.2h-3.7h-0.8v-6.2
		v-0.6V85.5h8.1h5.2h4h2.9l0,0h4.4h5.1h3.7h2.2h9.6l0,0h3.9c0.1,0,0.1,0,0.1,0c1.2-0.5,1.9-1.8,1.9-3.1V69.7c0-1.8-1.4-3.3-3.2-3.3
		h-48.1V54.9c0-0.8-0.6-1.4-1.4-1.4h-1.6h-1.6h-1.6c-0.7,0-1.3,0.6-1.3,1.4v11.4H84.9c-1.8,0-3.2,1.5-3.2,3.3v12.6
		c0,1.3,0.8,2.3,1.9,3c0.1,0,0.1,0.1,0.2,0.1l4.1,0.1l0,0h10.9h1.5h3.6h9.9h2.1l0,0h0.7h2.9H133v87.8v6.7h-0.1H132h-2.9
		c0,0,0,0.1,0.1,0.1H126h-1.3h-4.9h-5.3H111c-0.1-0.1-0.2-0.1-0.3-0.2H106h-6.3H75.9c-0.7,0-1.3,0.3-1.7,0.8
		c-0.4,0.5-0.6,1.2-0.5,1.8l5.6,39.7c0.1,1,1,1.8,2,2h0.1l51.5,6.1v20.9c0,0.7,0.6,1.4,1.3,1.4h4.8c0.7,0,1.4-0.6,1.4-1.4v-20.9
		l51.5-6.1h0.1c1-0.1,1.8-0.9,2-2l5.6-39.7C199.9,181.9,199.7,181.3,199.3,180.8z M79,200.8l-2.6-18.1h22.3l2,18.1H79z M82,221.6
		l-2.6-18.1H101l2,18.1H82z M105.6,221.6l-2-18.1h22.6l1.5,18.1H105.6z M133,221.6h-2.7l-1.5-18.1h4.2V221.6z M133,197.8v3h-4.5
		v-0.1h-2.6v0.1l0,0h-22.7l-1.9-18.1h2h5h5.9h0.8h5.4h0.6c1.2,0,3.6,0,3.6,0h2.5h2.9h3V197.8z M142.9,221.6h-2.4v-18.1h3.8
		L142.9,221.6z M167.6,221.6h-22.1l1.5-18.1h22.6L167.6,221.6z M147.2,200.8L147.2,200.8h-2.7h-3.9v-18.3l25,0.2l0,0h6.1l-2,18.1
		H147.2z M191.5,221.6h-21.3l2-18.1h21.9L191.5,221.6z M194.5,200.8h-22l2-18.1h22.6L194.5,200.8z"/>
	<polygon class="st1" points="167.9,181.5 105.7,181.5 105.6,178.8 167.9,178.9 	"/>
</g>
<path class="st1" d="M111.1,179"/>
</svg>
