<?xml version="1.0" encoding="UTF-8"?>
<svg xmlns="http://www.w3.org/2000/svg" viewBox="0 0 283.14 282.44">
  <defs>
    <style>
      .cls-1 {
        fill: #4e6086;
      }

      .cls-2 {
        fill: #fff;
      }
    </style>
  </defs>
  <g id="Background">
    <path class="cls-2" d="m283.14,18.46c0-10.19-8.27-18.46-18.48-18.46H18.49C8.28,0,0,8.27,0,18.46v245.5c0,10.2,8.28,18.47,18.49,18.47h246.16c10.21,0,18.48-8.28,18.48-18.47V18.46Z"/>
    <path class="cls-1" d="m283.14,18.46c0-10.19-8.27-18.46-18.48-18.46H18.49C8.28,0,0,8.27,0,18.46v245.5c0,10.2,8.28,18.47,18.49,18.47h246.16c10.21,0,18.48-8.28,18.48-18.47V18.46Z"/>
  </g>
  <g id="Mooring_Buoy" data-name="Mooring Buoy">
    <g>
      <rect class="cls-2" x="22.96" y="17.61" width="237.22" height="237.22"/>
      <path id="Dock" class="cls-1" d="m261.61,12.84H21.52c-1.81,0-3.33,1.53-3.33,3.34v240.09c0,1.81,1.52,3.33,3.33,3.33h240.09c1.81,0,3.34-1.52,3.34-3.33V16.18c0-1.81-1.53-3.34-3.34-3.34m-72,78.38c-3.79.45-8.65,1.04-12.93,1.56.36-1.14.52-2.33.45-3.55-.06-.82-.21-1.62-.45-2.4,5.1,1.04,9.49,2.74,12.94,4.4m-22.7-5.4c1.51,0,2.98.08,4.41.21.83.96,1.36,2.19,1.44,3.46.07,1.04-.15,2.49-1.37,3.91-2.86.35-4.78.58-4.79.58-1.04.01-2.1.09-3.17.21-1.3.16-2.62.41-3.95.72-.14.03-.28.07-.42.1.01-.1.03-.2.04-.31.09-.92.14-1.89.11-2.86-.04-1.81-.31-3.63-.9-5.18-.04-.09-.08-.16-.11-.24,2.89-.39,5.8-.61,8.71-.61m17.27,30.08c2.84,1.71,5.61,2.93,8.06,3.27,1.5,2.47,3.04,6.35,2.58,9.78-.13.95-.41,1.82-.83,2.6-.98.32-2.03.53-3.14.61-2.53.17-5.51.36-9.15-.73,1.94-2.3,3.09-5.09,3.34-8.24.19-2.45-.18-4.95-.87-7.3m-.9,27.84v3.62h-81.99v-3.62c.43-.49,1.55-1.27,2.14-1.67l1.05-.74s4.1-3.02,4.12-3.04c1.7-1.26,2.74-3.04,2.99-5.08,3.34-2.01,6.98-4.94,10.97-9.17,4.77-5.06,12.04-11.12,19.89-16,7.85,4.89,15.11,10.95,19.89,16,3.84,4.06,7.34,6.92,10.58,8.92.21,2.14,1.25,4.01,3.04,5.34l1.35.98s2.78,2.05,2.76,2.03l1.07.75c.58.4,1.69,1.17,2.13,1.66m-83.28-20.7c.24,3.19,1.42,6.02,3.43,8.34-3.73,1.16-6.76.96-9.35.79-1.01-.06-1.96-.24-2.87-.51-.51-.85-.84-1.8-.99-2.87-.46-3.36,1.01-7.15,2.48-9.62,2.47-.35,5.27-1.59,8.13-3.31-.66,2.31-1.02,4.77-.83,7.18m19.97-3.69c-.39.4-.77.78-1.14,1.17-2.58,2.74-4.97,4.86-7.16,6.49-1.39,1.03-2.7,1.86-3.95,2.54-2.02-1.8-3.15-4.1-3.36-6.84-.16-2.14.23-4.34.88-6.37.7-2.14,1.69-4.07,2.62-5.49,1.56-1.25,3.06-2.55,4.47-3.82,1.39-1.25,3.11-2.62,5.09-4.04-1.64,5.63-.8,11.12,2.55,16.37m27.49-14.2c3.7-1.98,7.43-3.61,11.03-4.67.99-.29,1.97-.55,2.94-.75.14.25.28.5.41.75,2.94,5.58,2.95,10.8.03,15.89-3.98-3.66-8.97-7.64-14.4-11.21m33.23,17.71c-.21,2.72-1.32,4.99-3.29,6.78-1.41-.75-2.92-1.71-4.51-2.92-2.1-1.59-4.35-3.61-6.79-6.2-.32-.34-.65-.68-1-1.04,3.36-5.27,4.19-10.77,2.52-16.44,1.95,1.4,3.64,2.75,5.01,3.98,1.41,1.27,2.91,2.57,4.47,3.83.92,1.38,1.91,3.27,2.63,5.38.71,2.1,1.15,4.4.98,6.63m-40.87-22.38c-.02-3.47.18-7.37.34-9.42.76-.28,1.53-.55,2.31-.82,1.33-.45,2.68-.88,4.04-1.28,1.39-.41,2.8-.78,4.22-1.12.99-.23,1.97-.45,2.96-.65.19.26.38.6.55,1.04.16.41.28.86.38,1.33.19.95.27,1.98.26,2.99-.01.98-.1,1.94-.23,2.78-.06.4-.13.76-.21,1.1-3.04,1.08-6.09,2.46-9.1,4.05-.96.51-1.91,1.04-2.86,1.59-.85.49-1.7.99-2.53,1.51,0,0-.01,0-.02.01v-.03c-.06-.9-.08-1.92-.09-2.97-.07-.04-.14-.08-.21-.11h.21,0Zm-4.39,0c0,.26,0,.51.01.77.03,1.02.08,2.01.15,2.94.06.74.14,1.44.24,2.07-4.74,3.24-9.08,6.74-12.63,9.99-2.91-5.04-2.94-10.23-.08-15.76.13-.24.25-.5.4-.75.2-.36.42-.73.65-1.1.56-.33,1.14-.65,1.72-.98,1.03-.58,2.1-1.15,3.19-1.71,2.08-1.07,4.28-2.1,6.56-3.08-.1,1.62-.19,3.57-.21,5.56-.01.68,0,1.37,0,2.06m-23.14-10.81c.09-1.36.68-2.67,1.61-3.66,1.34-.12,2.72-.19,4.14-.19,5.45,0,10.9.76,16.17,2.01-4.62,1.94-8.9,4.13-12.71,6.36-1.07-.13-2.13-.2-3.16-.21,0,0-1.94-.23-4.82-.58-1.09-1.37-1.29-2.75-1.23-3.74m-3.82-2.89c-.29.85-.48,1.72-.54,2.6-.08,1.17.06,2.31.39,3.39-4.29-.51-9.18-1.1-12.99-1.56,3.49-1.68,7.96-3.4,13.14-4.44m-45.54-9.89c2.77,3.44,5.68,6.95,8.65,10.42-3.79-.47-7.32-.9-10.28-1.27,0,0,1.63-9.15,1.63-9.15Zm-3.63-4.55l-2.34,13.17c-1.82-.22-3.16-.39-3.85-.47l.33.06c-1.41-.3-2.8-.34-4.15-.16-.95-1.14-1.91-2.28-2.89-3.43l3.75-21.07c2.65,3.55,5.75,7.61,9.13,11.91m-19.41.43v-25.33c2.07,2.75,4.31,5.69,6.68,8.77l-3.71,20.2c-1.04-1.27-2.03-2.47-2.97-3.64m9.96,29.08c-2.21-.47-3.72-2.43-3.72-4.61,0-.33.04-.66.11-.99.54-2.53,3.06-4.15,5.6-3.61l.16.04.17.02c2.47.3,5.08.63,7.77.96,6.28.77,12.99,1.6,19.4,2.4,15.48,1.92,29.14,3.63,30.23,3.81,1,.18,1.94.3,2.87.4-1.32,1.02-2.52,2.01-3.57,2.95-6.12,5.53-11.26,8.9-14.61,10.26l-25.87-6.77-18.46-4.83s-.08-.02-.08-.02Zm35.97,26.59c-3.12-2.99-5.13-7.38-6.02-11.9,2.73.7,6.38,1.62,8.26,2.11-1.35,2.75-2.47,6.27-2.24,9.79m99.98,107.92h-87.3v-41.02h87.3v41.02Zm48.03-48.2H51.37v-32.66h182.44v32.66h0Zm-36.9-69.52c1.88-.48,5.51-1.41,8.22-2.1-.88,4.45-2.84,8.79-5.88,11.77.15-3.49-1-6.98-2.35-9.67m40.77-18.83c-.68,1.05-1.73,1.78-2.96,2.05l-.08.02-.08.03s-27.59,7.21-44.03,11.51c-3.34-1.39-8.43-4.74-14.47-10.19-1.05-.95-2.27-1.96-3.62-2.99.82-.09,1.66-.21,2.53-.36,1.74-.29,35.29-4.45,57.41-7.17l.16-.02.16-.04c2.56-.54,5.08,1.08,5.62,3.61h0c.27,1.24.04,2.5-.65,3.56"/>
    </g>
  </g>
</svg>