<?xml version="1.0" encoding="utf-8"?>
<!-- Generator: Adobe Illustrator 27.9.4, SVG Export Plug-In . SVG Version: 9.03 Build 54784)  -->
<svg version="1.1" id="Layer_1" xmlns="http://www.w3.org/2000/svg" xmlns:xlink="http://www.w3.org/1999/xlink" x="0px" y="0px"
	 viewBox="0 0 283 282" style="enable-background:new 0 0 283 282;" xml:space="preserve">
<style type="text/css">
	.st0{clip-path:url(#SVGID_00000156565415386683057910000010630849803533094831_);}
	.st1{clip-path:url(#SVGID_00000181070836628948112410000014216596667516205749_);}
	.st2{fill:#4D5F85;}
	.st3{fill:#FFFFFF;}
	.st4{fill:#4B5F85;}
</style>
<g>
	<g>
		<g>
			<g>
				<g>
					<defs>
						<rect id="SVGID_1_" x="0.5" y="0.5" width="282" height="281"/>
					</defs>
					<clipPath id="SVGID_00000181065500423132751080000003478016639479164600_">
						<use xlink:href="#SVGID_1_"  style="overflow:visible;"/>
					</clipPath>
					<g style="clip-path:url(#SVGID_00000181065500423132751080000003478016639479164600_);">
						<g>
							<g>
								<g>
									<g>
										<g>
											<g>
												<defs>
													<path id="SVGID_00000115503407309411370390000017202562960987532980_" d="M16.4,0.5h250.1c4.2,0,8.3,1.7,11.3,4.7
														s4.7,7,4.7,11.3v249.1c0,4.2-1.7,8.3-4.7,11.3s-7,4.7-11.3,4.7H16.4c-4.2,0-8.3-1.7-11.3-4.7s-4.7-7-4.7-11.3V16.4
														c0-4.2,1.7-8.3,4.7-11.3S12.2,0.5,16.4,0.5z"/>
												</defs>
												<clipPath id="SVGID_00000021089575442482906600000013620147845939447228_">
													<use xlink:href="#SVGID_00000115503407309411370390000017202562960987532980_"  style="overflow:visible;"/>
												</clipPath>
												<g style="clip-path:url(#SVGID_00000021089575442482906600000013620147845939447228_);">
													<g>
														<g>
															<path class="st2" d="M0.5,0.4h282v281H0.5V0.4z"/>
														</g>
													</g>
												</g>
											</g>
										</g>
									</g>
								</g>
							</g>
						</g>
					</g>
				</g>
			</g>
		</g>
	</g>
</g>
<g>
	<path class="st3" d="M85.7,49.7c0-3.6,3.1-6.6,6.8-6.6h73.4c3.7,0,6.8,3,6.8,6.6v169.2h-87V49.7"/>
	<path class="st3" d="M173.3,219.6h-88V49.7c0-4,3.4-6.9,7.1-6.9h73.4c4.1,0,7.1,3.3,7.1,6.9C173.3,49.7,173.3,219.6,173.3,219.6z
		 M86,218.6h86.3V49.7c0-3.3-3.1-6.3-6.5-6.3H92.5c-3.4,0-6.5,3-6.5,6.3V218.6z"/>
	<rect x="62.9" y="219.6" class="st3" width="157" height="15.2"/>
	<path class="st3" d="M220.2,235.1h-158v-15.8h158V235.1z M63.3,234.4h156.3v-14.5H63.3V234.4z"/>
	<path class="st4" d="M95.5,58c0-3.6,3.1-6.6,6.8-6.6H156c3.7,0,6.8,3,6.8,6.6v34.6c0,3.6-3.1,6.6-6.8,6.6h-53.7
		c-3.7,0-6.8-3-6.8-6.6V58"/>
	<path class="st3" d="M156.3,99.8h-54c-4.1,0-7.1-3.3-7.1-6.9V58c0-4,3.4-6.9,7.1-6.9H156c4.1,0,7.1,3.3,7.1,6.9v34.6
		C163.5,96.5,160.4,99.8,156.3,99.8z M102.3,51.7c-3.4,0-6.5,3-6.5,6.3v34.6c0,3.3,3.1,6.3,6.5,6.3H156c3.4,0,6.5-3,6.5-6.3V58
		c0-3.3-3.1-6.3-6.5-6.3H102.3z"/>
	<polygon class="st4" points="144.8,152.6 114.9,152.6 114.9,113.7 143.8,113.7 143.8,121.6 123,121.6 123,128.5 134.9,128.5 
		134.9,136.1 123,136.1 123,144.7 144.8,144.7 	"/>
	<polygon class="st4" points="147.8,166.8 133.2,205.7 125.4,205.7 110.8,166.8 119.3,166.8 129.2,193.5 139.4,166.8 	"/>
	<path class="st3" d="M206.6,138.4c-0.7-5.6,0-21.4,0.7-34.3c0.3-5.6,0.3-10.9,0.3-12.5h7.8c0,2-0.3,6.9-0.3,12.9
		c-0.3,11.2-1,28-0.7,33.3L206.6,138.4z"/>
	<path class="st3" d="M186.2,137.8h-7.8c0-6.9-0.3-9.9-0.3-10.9c-0.3,0-0.3,0-0.7,0c-0.3,0-1,0-1.4,0v-7.6c0.3,0,0.7,0,1,0
		c1.7,0,4.4,0,6.5,1.6C185.9,122.9,186.2,126.6,186.2,137.8z"/>
	<path class="st3" d="M177.7,189.6c-0.3-4.6,0-9.2,0-16.5c0.3-7.9,0.7-18.8,0.7-35.6h7.8c0,16.8-0.3,28-0.7,35.9
		c-0.3,6.9-0.3,11.5,0,15.8C185.6,189.2,177.7,189.6,177.7,189.6z"/>
	<path class="st3" d="M217.2,194.8h-7.8c0-9.2-0.7-33.3-2.7-58.7l7.8-0.7C216.1,158.2,217.2,183,217.2,194.8z"/>
	<path class="st3" d="M194.7,216.3c-4.1,0-7.5-1.3-10.2-3.6c-6.5-5.6-7.1-16.2-7.1-23.7h7.8c0,9.2,1.7,15.5,4.4,18.1
		c1.4,1.3,3.1,2,5.4,1.6l0.3,7.6C195.8,216.3,195.4,216.3,194.7,216.3L194.7,216.3z"/>
	<path class="st3" d="M196.8,216.3c-0.7,0-1.4,0-2,0l0.7-7.6c2.4,0.3,6.1-0.3,8.8-3c3.1-2.6,4.8-6.9,4.8-12.5h7.8
		c0,9.9-4.1,15.5-7.5,18.1C206.3,214.6,201.5,216.3,196.8,216.3z"/>
	<rect x="173" y="119" class="st3" width="3.1" height="7.6"/>
	<rect x="201.9" y="35.9" class="st3" width="4.4" height="16.8"/>
	<rect x="217.8" y="35.9" class="st3" width="4.4" height="17.8"/>
	<path class="st3" d="M227,71.8V52h-30.6v19.8c0,1,0.3,2,0.7,2.6l10.5,16.2h8.2l10.5-16.2C226.7,73.8,227,73.5,227,71.8"/>
	<path class="st3" d="M215.8,91.3h-8.2l0,0l-10.5-16.2c-0.3-0.7-0.3-1.6-0.7-2.6V52.4h30.9v20.1c0,1.3-0.3,2-0.7,2.6L215.8,91.3
		L215.8,91.3z M208,90.6h7.8l10.5-16.2c0.3-0.7,0.3-1.3,0.7-2.6V52.4h-30.2v19.5c0,1,0.3,2,0.7,2.6C197.5,74.4,208,90.6,208,90.6z"
		/>
	<rect x="208" y="90.6" class="st3" width="7.8" height="1.6"/>
	<rect x="217.8" y="51.7" class="st3" width="4.4" height="0.7"/>
	<rect x="201.9" y="51.7" class="st3" width="4.1" height="0.7"/>
	<rect x="208" y="90.3" class="st3" width="7.8" height="0.7"/>
</g>
</svg>
