<svg enable-background="new 0 0 283.141 282.438" height="282.438" viewBox="0 0 283.141 282.438" width="283.141" xmlns="http://www.w3.org/2000/svg"><path d="m283.141 18.453c0-10.187-8.274-18.453-18.485-18.453h-246.164c-10.211 0-18.492 8.266-18.492 18.453v245.508c0 10.195 8.281 18.477 18.492 18.477h246.164c10.211 0 18.484-8.281 18.484-18.477v-245.508z" fill="#a6a6a6"/><path d="m38.023 41.639h207.047" fill="none" stroke="#fff" stroke-width="3.3128"/><path d="m145.633 120.514s-3.969 1.578-4.766 2.688c-.781 1.109-1.266 2.219-1.109 6.5.156 4.297.156 5.719-1.109 7.781s-2.859 3.5-4.281 1.109c-1.438-2.375-9.359-18.406-10.312-21.109-.969-2.672-1.109-3.969-1.438-4.594-.312-.641-4.281-1.422-5.234-1.906-.953-.469-2.375-2.062-3.172 4.609-.781 6.672-.469 8.562.953 14.266 1.438 5.719 6.031 20.797 6.984 23.172.938 2.391 1.266 4.766 1.266 4.766s-3.953 16.188-3.812 21.906c.172 5.703.812 11.422 5.875 20.453.281.5-1.578 15.562.797 24.453 1.266 4.719 3.812 10.297 5.875 13.156 2.062 2.859 3.641 4.609 3.641 4.609l-.938 4.594s-4.469 4.125-4.609 4.906c-.312 1.75 4.609 4.609 5.391 4.781.797.156 7.625-1.594 9.359-2.547 1.75-.938 2.547-5.875 2.703-7.141.156-1.281.953-3.812.953-3.812l3.016-.953 1.266 5.875s-.797 2.062-2.062 3.172c-1.266 1.109-.625 2.375-.625 2.375s1.891 1.594 6.328.797c4.453-.797 7.797-3 7.938-3.641.172-.641 0-4.766 0-4.766s-2.531-3.172-1.906-6.656c.641-3.5 1.906-5.078 1.906-5.078v-5.719s1.609-3.172 2.391-3.953c.797-.812 1.75-1.922.938-3.188 0 0-9.344-12.062-10.469-40.938-.266-7.297-.141-25.859.797-30.469.953-4.594 1.75-6.812 1.75-6.812s1.75-.328 2.547-.484c.781-.156 1.109-1.906.312-2.547-.797-.625-2.859-2.688-2.859-2.688s-5.562-7.453-6.984-8.406-2.375-1.266-2.375-1.266-3.817-6.357-4.926-7.295z" fill="#fff"/><path d="m61.211 27.561v183.594 33.672s1.375 8.828 3.312 10.219c1.922 1.375 2.203 2.484 2.203 2.484s-4.406 0-6.344-1.109c-1.938-1.094-2.484-1.656-2.484-1.656l-3.094 2.781-4.922-2.781-5.031 2.781-2.969-2.781s-2.172 1.453-4.125 2.5c-1.5.797-4.641.016-4.641.016s.219-.859 2.141-2.234c1.938-1.391 3.312-10.219 3.312-10.219v-33.408-183.859s6.625-4.141 9.938-1.375 8.828 3.594 12.703 1.656v-.281z" fill="#fff"/><path d="m221.883 27.155v190.062 27.203s-1.375 8.828-3.312 10.203-2.203 2.484-2.203 2.484 4.406 0 6.344-1.109c1.938-1.094 2.484-1.641 2.484-1.641l3.031 3.031 4.969-3.031 4.984 3.031 3.031-3.031s.547.547 2.484 1.641c1.938 1.109 6.344 1.109 6.344 1.109s-.266-1.109-2.203-2.484-3.312-10.203-3.312-10.203v-217.265s-6.625-4.156-9.938-1.391c-3.312 2.75-8.828 3.594-12.703 1.656z" fill="#fff"/><path d="m245.07 46.436h-207.047v-9.594h207.047z" fill="#a6a6a6"/><path d="m245.07 43.295h-207.047v-3.312h207.047z" fill="#fff"/><path d="m65.07 201.592h-27.047v-9.593h27.047z" fill="#a6a6a6"/><path d="m245.633 201.592h-27.61v-9.593h27.61z" fill="#a6a6a6"/><g fill="#fff"><path d="m65.07 198.452h-27.047v-3.313h27.047z"/><path d="m245.633 198.452h-27.61v-3.313h27.61z"/><path d="m66.445 200.311c1.953 0 3.516-1.578 3.516-3.516 0-1.953-1.562-3.516-3.516-3.516-1.938 0-3.5 1.562-3.5 3.516 0 1.938 1.563 3.516 3.5 3.516z"/><path d="m216.367 200.577c1.938 0 3.5-1.578 3.5-3.5 0-1.953-1.562-3.531-3.5-3.531-1.953 0-3.531 1.578-3.531 3.531 0 1.922 1.578 3.5 3.531 3.5z"/><path d="m108.133 64.28h-4.406s-3.859 8.281-5.25 11.047c-1.391 2.75-3.719 8.562-1.25 11.719 2.484 3.188 9.531 3.453 9.531 3.453h.562s7.031-.266 9.516-3.453c2.484-3.156.141-8.969-1.234-11.719-1.391-2.766-5.25-11.047-5.25-11.047h-.547z"/><path d="m177.43 64.28h-4.406s-3.875 8.281-5.25 11.047c-1.375 2.75-3.719 8.562-1.25 11.719 2.484 3.188 9.531 3.453 9.531 3.453h.547s7.047-.266 9.531-3.453c2.484-3.156.141-8.969-1.234-11.719-1.391-2.766-5.25-11.047-5.25-11.047h-.547z"/><path d="m68.07 197.139-3.234-.703c1.281-5.859 31.5-143.625 32.047-145.578.953-3.359 3.312-5.359 6.297-5.359 3.156 0 4.766 2.578 5.172 3.953l.062 17.047h-3.312v-16.547c-.031.078-.5-1.141-1.922-1.141-1.875 0-2.719 1.594-3.109 2.953-.532 2.016-21.173 95.985-32.001 145.375z"/><path d="m214.758 197.42c-10.828-49.375-31.438-143.296-32.016-145.39-.312-1.094-1.125-2.938-3.094-2.938-1.5 0-2 1.578-2 1.594l.062 16.078h-3.312v-16.562c.5-1.844 2.109-4.422 5.25-4.422 2.984 0 5.328 2 6.281 5.344.562 1.922 28.844 130.891 32.062 145.594z"/></g><path d="m102.898 40.936v8.844" fill="none" stroke="#fff" stroke-width="3.3128"/><path d="m179.648 41.233v8.828" fill="none" stroke="#fff" stroke-width="3.3128"/></svg>