<svg enable-background="new 0 0 283.129 282.438" height="282.438" viewBox="0 0 283.129 282.438" width="283.129" xmlns="http://www.w3.org/2000/svg"><path d="m283.129 18.453c0-10.187-8.266-18.453-18.477-18.453h-246.164c-10.207 0-18.488 8.266-18.488 18.453v245.516c0 10.188 8.281 18.469 18.488 18.469h246.164c10.211 0 18.477-8.281 18.477-18.469z" fill="#a6a6a6"/><g fill="#fff"><path d="m62.467 174h7.14l7.594 72.672h35.617l7.133-72.203h8.063l-9.008 77.906h-48.453z"/><path d="m92.865 175.891 6.649 7.125-10.446 9.5-7.117-8.078z"/><path d="m100.467 190.141-5.703 4.75 4.75 6.171.953 8.079 7.601-2.375-1.898-9.5z"/><path d="m81.467 207.25 12.836-.484.953 11.875-9.5 1.421z"/><path d="m98.107 222.438s13.297 2.375 12.344 4.281c-.945 1.906-7.594 9.031-7.594 9.031l-3.805-4.281-6.188 1.906-4.75-6.188z"/><path d="m176.826 61.047c10.297 0 18.625-8.344 18.625-18.641s-8.328-18.641-18.625-18.641-18.633 8.344-18.633 18.641 8.336 18.641 18.633 18.641z"/><path d="m111.256 140.812 20.961-60.031s4.133-14.312 17.219-14.312h56.664s14.57 1.156 14.57 14.328 0 71.031 0 71.031-.477 4-7.289 4c-7.648 0-8.125-4-8.125-4v-53.734s-.391-2.141-3.078-2.141c-1.336 0-2.922 1.406-2.922 2.438v146.828s-.711 7.438-8.453 7.438c-8.602 0-9.492-7.766-9.492-7.766v-85.344h-9.719l-.016 85.875s-.516 7.234-9.297 7.234c-7.734 0-9-5.797-9-8.156s-.062-146.625-.062-146.625c-.008.234.227-1.922-4.867-1.922-4.898 0-5.328 4.078-5.336 4.094-1.867 5.594-3.195 6.656-17.711 46.563 0 0-1.516 4.938-8.508 2.359-7.547-2.797-5.539-8.157-5.539-8.157z"/></g></svg>