<svg enable-background="new 0 0 283.141 282.438" height="282.438" viewBox="0 0 283.141 282.438" width="283.141" xmlns="http://www.w3.org/2000/svg"><path d="m283.141 18.453c0-10.187-8.274-18.453-18.485-18.453h-246.164c-10.211 0-18.492 8.266-18.492 18.453v245.516c0 10.188 8.281 18.469 18.492 18.469h246.164c10.211 0 18.484-8.281 18.484-18.469v-245.516z" fill="#4d5f85"/><path d="m141.581 255.68h78.518v-114.066l20.979 5.578v-16.734l-98.791-111.478-100.209 111.478v16.734l20.985-5.578v114.066z" fill="#fff"/><path d="m94.023 145.135h96.89v57.347h-96.89z" fill="#4d5f85"/><g fill="#fff"><path d="m154.664 247.207c0 2.904-2.357 5.262-5.266 5.262-2.904 0-5.262-2.357-5.262-5.262v-16.353h-5.356v16.051c0 2.914-2.357 5.262-5.266 5.262-2.904 0-5.262-2.348-5.262-5.262v-51.421c0 .113-.156-1.047-1.664-1.103-1.212-.047-1.669 1.16-1.669 1.16v31.221s.165 2.951-4.111 2.951c-4.606 0-4.597-3.281-4.597-3.281v-40.763s-.057-8.204 9.882-8.204h32.494s8.359.66 8.359 8.222v40.744s-.278 2.291-4.182 2.291c-4.389 0-4.663-2.291-4.663-2.291v-30.825s-.217-1.226-1.763-1.226c-.764 0-1.674.801-1.674 1.396z"/><path d="m141.939 174.495c5.893 0 10.669-4.771 10.669-10.674 0-5.893-4.776-10.674-10.669-10.674-5.898 0-10.674 4.781-10.674 10.674 0 5.902 4.776 10.674 10.674 10.674z"/></g></svg>