<svg enable-background="new 0 0 283.1 282.4" viewBox="0 0 283.1 282.4" xmlns="http://www.w3.org/2000/svg"><path d="m283.1 18.5c0-10.2-8.3-18.5-18.5-18.5h-246.1c-10.2 0-18.5 8.3-18.5 18.5v245.5c0 10.2 8.3 18.5 18.5 18.5h246.2c10.2 0 18.5-8.3 18.5-18.5v-245.5z" fill="#4e6086"/><path d="m283.1 18.5c0-10.2-8.3-18.5-18.5-18.5h-246.1c-10.2 0-18.5 8.3-18.5 18.5v245.5c0 10.2 8.3 18.5 18.5 18.5h246.2c10.2 0 18.5-8.3 18.5-18.5v-245.5z" fill="#a7a6a6"/><path d="m16.9 232.5h116.1v-10.7h-16.5l-41.4-71.9-41.6 71.9h-16.6z" fill="#fff"/><path d="m75.1 187-18.3 34.8h36.2z" fill="#a7a6a6"/><path d="m150.2 232.5h116.1v-10.7h-16.5l-41.4-71.9-41.6 71.9h-16.6z" fill="#fff"/><path d="m208.4 187-18.3 34.8h36.2z" fill="#a7a6a6"/><path d="m83.4 132.5h116.1v-10.7h-16.5l-41.4-71.9-41.6 71.9h-16.6z" fill="#fff"/><path d="m141.6 87-18.2 34.8h36.1z" fill="#a7a6a6"/></svg>