<svg enable-background="new 0 0 283.133 282.437" height="282.437" viewBox="0 0 283.133 282.437" width="283.133" xmlns="http://www.w3.org/2000/svg"><path d="m283.133 18.461c0-10.191-8.27-18.461-18.48-18.461h-246.165c-10.207 0-18.488 8.269-18.488 18.461v245.503c0 10.195 8.281 18.473 18.488 18.473h246.165c10.211 0 18.48-8.277 18.48-18.473z" fill="#a6a6a6"/><g fill="#fff"><path d="m160.323 60.17c8.25 0 14.938-7.059 14.938-15.762 0-8.707-6.688-15.758-14.938-15.758-8.234 0-14.923 7.051-14.923 15.758 0 8.703 6.688 15.762 14.923 15.762z"/><path d="m107.58 58.346s10.914-3.992 13.492 6.453l-22.281 47.512-12.816-6.18z"/><path d="m172.057 109.51s-10.547-22.285-12.891-34.016c-2.344-11.73-18.766-14.078-18.766-14.078l-10.562 5.281c-8.859 8.16-18.766 38.121-24.047 48.68-5.27 10.555-2.352 32.262-2.352 32.262l-29.902 94.417 12.016 10.551 38.426-73.89 16.422 16.421 5.051 21.067-19.207 33.425 7.141 3.965 14.864-25.726 6.215 25.917 14.172-1.508-6.914-47.727 35.18-60.885 2.141 1.034c7.047 3.516 10.562-5.871 10.562-5.871zm-12.263 81.739-1.815-12.532-19.922-42.227 17.594-25.809 9.375 17.598 24.231 11.699z"/></g></svg>