<svg enable-background="new 0 0 283.14 282.437" height="282.437" viewBox="0 0 283.14 282.437" width="283.14" xmlns="http://www.w3.org/2000/svg"><path d="m283.14 18.461c0-10.192-8.273-18.461-18.484-18.461h-246.164c-10.211 0-18.492 8.269-18.492 18.461v245.504c0 10.195 8.281 18.472 18.492 18.472h246.164c10.211 0 18.484-8.277 18.484-18.472z" fill="#4d5f85"/><g fill="#fff"><path d="m107.089 38.016c0-6.727 5.473-12.199 12.207-12.199s12.211 5.473 12.211 12.199c0 6.746-5.477 12.219-12.211 12.219s-12.207-5.473-12.207-12.219z"/><path d="m47.366 199.531c-.715 6.902-.461 49.152-.832 53.816h8.043l2.594-49.922s15.531-20.625 16.02-25.492c.488-4.855-2.297 15.559-5.215 20.426l14.176 55h9.023l-11.668-53.551s16.051-12.633 17.02-24.785l30.137 3.402 5.359 17.984h9.227l-1.453-15.555 9.344-.969-4.164 73.609h10.188l9.906-65.457 16.165 65.457h10.227l-13.75-74.586s13.954-21.879 14.579-32.562c.484-8.266 11.75-19.426 11.875-19.395 23.352 7.562 36.281-3.773 36.281-3.773l-6.523-2.816s-9.031 7.551-26.289 1.23l8.727-8.301 16.523 6.688 8.266 3.742 3.281 1.844 7.164-8.871c-10.242-10.578-21.688-20.074-28.648-33.332-1.242-2.348 1.812-4.965 3.242-7.574.93-1.715-.852-3.742-1.609-3.383-19.656 9.207-34.617 23.156-53.251 35.699l-4.992 2.969-.961 1.621c-8.18 9.133-22.078 10.027-31.844 6.758-4.484-1.496-2.383-11.289-2.484-17.828l.727-4.133 14.094 5.102 3.219-2.219 16.75 10.32.828.734 4.867-3.031-.734-.551s-38.289-22.754-39.109-24.5c-3.555-7.699-3.945-16.949-7.289-24.652-2.133-4.937-13.188-7.602-15.625-1.836-8.285 19.563-6.109 42.883-4.105 61.883-16.328 1.125-29.008-11.324-45.516-3.883-12.805 5.774-29.832 12.516-27.344 26.781 3.895 22.043 1.781 43.848 9.797 64.492 1.586-2.754 6.098-3.836 6.141-7.742l1.871-6.352.484-29.652c-.484 1.461 4.254 7.223 3.769 7.719-.488.48-4.312 22.047-4.312 22.047"/></g></svg>