<svg enable-background="new 0 0 283.1 282.4" viewBox="0 0 283.1 282.4" xmlns="http://www.w3.org/2000/svg"><path d="m283.1 18.5c0-10.2-8.3-18.5-18.5-18.5h-246.1c-10.2 0-18.5 8.3-18.5 18.5v245.5c0 10.2 8.3 18.5 18.5 18.5h246.2c10.2 0 18.5-8.3 18.5-18.5v-245.5z" fill="#fff"/><path d="m283.1 18.5c0-10.2-8.3-18.5-18.5-18.5h-246.1c-10.2 0-18.5 8.3-18.5 18.5v245.5c0 10.2 8.3 18.5 18.5 18.5h246.2c10.2 0 18.5-8.3 18.5-18.5v-245.5z" fill="#4e6086"/><g fill="#fff"><path d="m182.1 107.5s-15.3-28.2 14.8-32.6c26.4-3.9 21.8 28.3 16.8 31.6-1.5 1-31.6 1-31.6 1z"/><path d="m41.7 91.7h121.5v20.8h56.3s10.4 4 12.4 18.3 11.9 80.1 8.9 80.1-68.2 0-68.2 0 2.5-55.6 2.5-62.8c0-.5-20.8 5.4-20.8 5.4l-45.5-45.9h-21.1l-7.9-9.9h-38.1z"/></g></svg>