<svg enable-background="new 0 0 283.1 282.4" viewBox="0 0 283.1 282.4" xmlns="http://www.w3.org/2000/svg"><path d="m283.1 18.5c0-10.2-8.3-18.5-18.5-18.5h-246.1c-10.2 0-18.5 8.3-18.5 18.5v245.5c0 10.2 8.3 18.5 18.5 18.5h246.2c10.2 0 18.5-8.3 18.5-18.5v-245.5z" fill="#fff"/><path d="m283.1 18.5c0-10.2-8.3-18.5-18.5-18.5h-246.1c-10.2 0-18.5 8.3-18.5 18.5v245.5c0 10.2 8.3 18.5 18.5 18.5h246.2c10.2 0 18.5-8.3 18.5-18.5v-245.5z" fill="#a7a6a6"/><g fill="#fff"><path d="m124.1 186.2h38.1v-18.1s-.6-5.2 5.8-7.8c6.5-2.6 38.8-23.3 38.1-51.7-.4-19.6-8.8-66.1-66.5-65.3-45.9.7-62 39.4-62.7 64h38.8s-.6-26.5 25.2-27.8 26.5 24.5 26.5 24.5-.9 13.3-14.9 20.7c-29.5 15.7-28.3 30.6-28.3 30.6z"/><path d="m123.5 200.6h38.4v38.4h-38.4z"/></g></svg>