<svg enable-background="new 0 0 283.1 282.4" viewBox="0 0 283.1 282.4" xmlns="http://www.w3.org/2000/svg"><path d="m283.1 18.5c0-10.2-8.3-18.5-18.5-18.5h-246.1c-10.2 0-18.5 8.3-18.5 18.5v245.5c0 10.2 8.3 18.5 18.5 18.5h246.2c10.2 0 18.5-8.3 18.5-18.5v-245.5z" fill="#fff"/><path d="m283.1 18.5c0-10.2-8.3-18.5-18.5-18.5h-246.1c-10.2 0-18.5 8.3-18.5 18.5v245.5c0 10.2 8.3 18.5 18.5 18.5h246.2c10.2 0 18.5-8.3 18.5-18.5v-245.5z" fill="#4e6086"/><path clip-rule="evenodd" d="m266 19.5c-3.2-3-7.5-4.9-12.2-4.9h-218.9c-9.8 0-17.8 7.9-17.8 17.7v218.9c0 4.7 1.8 9 4.8 12.2 0 0 .1.1.1.1zm-151.7 231.8h-10.8v8.4h156.4v-8.4h-12l-66.3-105.3zm40.8 0 26.5-39.7 25.3 39.7z" fill="#fff" fill-rule="evenodd"/><g fill="#4e6086"><path d="m86.1 135.2c2.5 0 4.5-2 4.5-4.5v-63.8c0-2.5-2-4.5-4.5-4.5-2.5 0-4.5 2-4.5 4.5v63.8c.1 2.5 2.1 4.5 4.5 4.5z"/><path d="m69.4 50.1c0-9.3 7.5-16.8 16.8-16.8s16.8 7.5 16.8 16.8-7.5 16.8-16.8 16.8c-9.3-.1-16.8-7.6-16.8-16.8zm16.7 7.2c4 0 7.3-3.3 7.3-7.3s-3.3-7.3-7.3-7.3-7.3 3.3-7.3 7.3 3.3 7.3 7.3 7.3z"/><path d="m130 115.2c-8.6 15.5-25 26-44 26-18.9 0-35.5-10.6-44-26l-.1-.1-5.2 2.2 3.5-21.9 16.2 13.5-5.2 2.2.1.1c7 12 20 20.1 34.9 20.1 14.8 0 27.8-8 34.9-19.9l.1-.3-5.2-2.2 16.2-13.5 3.5 21.9-5.4-2.3z"/></g></svg>