<?xml version="1.0" encoding="UTF-8"?>
<svg xmlns="http://www.w3.org/2000/svg" viewBox="0 0 283.14 282.44">
  <defs>
    <style>
      .cls-1 {
        fill: #4e6086;
      }

      .cls-2 {
        fill: #fff;
      }
    </style>
  </defs>
  <g id="Background">
    <path class="cls-2" d="m283.14,18.46c0-10.19-8.27-18.46-18.48-18.46H18.49C8.28,0,0,8.27,0,18.46v245.5c0,10.2,8.28,18.47,18.49,18.47h246.16c10.21,0,18.48-8.28,18.48-18.47V18.46Z"/>
    <path class="cls-1" d="m283.14,18.46c0-10.19-8.27-18.46-18.48-18.46H18.49C8.28,0,0,8.27,0,18.46v245.5c0,10.2,8.28,18.47,18.49,18.47h246.16c10.21,0,18.48-8.28,18.48-18.47V18.46Z"/>
  </g>
  <g id="Mooring_Buoy" data-name="Mooring Buoy">
    <g id="Mooring_Buoy-2" data-name="Mooring Buoy">
      <g>
        <path class="cls-2" d="m137.6,63.41l12.62-22.23h57.27l-2.91,7.73h-14.56l-4.84,14.49h-47.58Zm34.95,0l4.86-14h-20.85l-7.78,14h23.77Z"/>
        <polygon class="cls-2" points="105.26 76.97 92.92 166.51 88.11 165.85 101.04 72.16 105.26 76.97"/>
        <path class="cls-2" d="m94.91,63.41h161.09l-12.61,31.9h-125.19l-23.3-31.9Zm10.35,13.55l1.3-10.63-4.9-.03-.62,5.86,4.23,4.8Z"/>
        <path class="cls-2" d="m73.36,179.75c0-8.59,6.99-15.55,15.62-15.55s15.59,6.97,15.59,15.55-6.98,15.53-15.59,15.53-15.62-6.95-15.62-15.53Zm15.62,11.33c6.28,0,11.38-5.08,11.38-11.33s-5.09-11.35-11.38-11.35-11.38,5.09-11.38,11.35,5.09,11.33,11.38,11.33Z"/>
        <path class="cls-2" d="m135.48,237.52c.56-2.93.83-5.64.83-8.72,0-26.23-21.37-47.48-47.7-47.48s-47.7,21.25-47.7,47.48c0,2.59.44,6.25.84,8.72h93.73Z"/>
        <path class="cls-1" d="m133.78,211.32s-25.28,13.01-44.68,13.01-46.09-11.59-46.09-11.59l4.36-8.23s22.33,10.63,41.73,10.63,39.81-12.52,39.81-12.52l4.87,8.7Z"/>
        <path class="cls-1" d="m110.41,244.8c-10.53,0-10.73-7.53-10.73-7.53,0,0,.2,7.53-10.08,7.53s-10.73-7.53-10.73-7.53c0,0,.2,7.53-10.08,7.53s-10.74-7.53-10.74-7.53c0,0,.21,7.53-10.07,7.53s-10.74-7.53-10.74-7.53c0,0,.21,7.53-10.09,7.53v-7.16c10.3,0,10.09-6.77,10.09-6.77,0,0,.21,6.77,10.74,6.77s10.07-6.77,10.07-6.77c0,0,.21,6.77,10.74,6.77s10.08-6.77,10.08-6.77c0,0,.2,6.77,10.73,6.77s10.08-6.77,10.08-6.77c0,0,.2,6.77,10.73,6.77"/>
        <path class="cls-1" d="m110.41,237.64c10.28,0,10.08-6.77,10.08-6.77,0,0,.2,6.77,10.71,6.77s10.1-6.77,10.1-6.77c0,0,.2,6.77,10.73,6.77s10.08-6.77,10.08-6.77c0,0,.21,6.77,10.72,6.77v7.16c-10.51,0-10.72-7.53-10.72-7.53,0,0,.21,7.53-10.08,7.53s-10.73-7.53-10.73-7.53c0,0,.2,7.53-10.1,7.53s-10.71-7.53-10.71-7.53c0,0,.2,7.53-10.08,7.53"/>
        <path class="cls-1" d="m190.62,101.2c-8.67,0-8.84-6.2-8.84-6.2,0,0,.2,6.2-8.3,6.2s-8.82-6.2-8.82-6.2c0,0,.17,6.2-8.3,6.2s-8.86-6.2-8.86-6.2c0,0,.2,6.2-8.29,6.2s-8.83-6.2-8.83-6.2c0,0,.19,6.2-8.3,6.2v-5.88c8.48,0,8.3-5.58,8.3-5.58,0,0,.19,5.58,8.83,5.58s8.29-5.58,8.29-5.58c0,0,.2,5.58,8.86,5.58s8.3-5.58,8.3-5.58c0,0,.17,5.58,8.82,5.58s8.3-5.58,8.3-5.58c0,0,.17,5.58,8.84,5.58"/>
        <path class="cls-1" d="m190.62,95.31c8.46,0,8.3-5.58,8.3-5.58,0,0,.16,5.58,8.82,5.58s8.3-5.58,8.3-5.58c0,0,.19,5.58,8.84,5.58s8.3-5.58,8.3-5.58c0,0,.16,5.58,8.84,5.58v5.88c-8.67,0-8.84-6.2-8.84-6.2,0,0,.16,6.2-8.3,6.2s-8.84-6.2-8.84-6.2c0,0,.19,6.2-8.3,6.2s-8.82-6.2-8.82-6.2c0,0,.16,6.2-8.3,6.2"/>
      </g>
    </g>
  </g>
</svg>