<svg enable-background="new 0 0 283.141 282.438" height="282.438" viewBox="0 0 283.141 282.438" width="283.141" xmlns="http://www.w3.org/2000/svg"><path d="m283.141 18.453c0-10.187-8.266-18.453-18.485-18.453h-246.156c-10.219 0-18.5 8.266-18.5 18.453v245.516c0 10.188 8.281 18.469 18.5 18.469h246.156c10.219 0 18.484-8.281 18.484-18.469v-245.516z" fill="#4d5f85"/><path d="m148.562 47.797c35.023 0 63.359 28.359 63.359 63.328 0 35.047-28.336 63.406-63.359 63.406l-40.781-.047v60.156h-36.547v-186.843zm.571 90.656c15.5 0 28.016-12.547 28.016-28.016 0-15.531-12.516-28.094-28.016-28.094l-41.352-.047v56.156h41.352z" fill="#fff"/></svg>