<svg enable-background="new 0 0 283.141 282.438" height="282.438" viewBox="0 0 283.141 282.438" width="283.141" xmlns="http://www.w3.org/2000/svg"><path d="m283.141 18.453c0-10.187-8.274-18.453-18.485-18.453h-246.164c-10.211 0-18.492 8.266-18.492 18.453v245.516c0 10.188 8.281 18.469 18.492 18.469h246.164c10.211 0 18.484-8.281 18.484-18.469v-245.516z" fill="#4d5f85"/><g fill="#fff"><path d="m75.59 62.672h136.797v17.344h-136.797z"/><path d="m31.269 114.219h42.383v16.375h-42.383z"/><path d="m209.504 114.219h42.383v16.375h-42.383z"/><path d="m31.27 139.75h220.617v16.375h-220.617z"/><path d="m129.535 85.797h-23.117l-43.344 132.953h24.547c0 1.438 41.914-132.953 41.914-132.953z"/><path d="m158.441 85.797h23.125l37.313 132.906h-24.563z"/></g></svg>