<svg enable-background="new 0 0 283.141 282.438" height="282.438" viewBox="0 0 283.141 282.438" width="283.141" xmlns="http://www.w3.org/2000/svg"><path d="m283.141 18.453c0-10.187-8.266-18.453-18.484-18.453h-246.157c-10.219 0-18.5 8.266-18.5 18.453v245.516c0 10.188 8.281 18.469 18.5 18.469h246.157c10.219 0 18.484-8.281 18.484-18.469z" fill="#4d5f85"/><g fill="#fff"><path d="m36.842 119.461 16.195 9.359 4.312 2.469-12.633 21.828c-1.148 1.938-1.727 4.141-1.727 6.375 0 2.125.531 4.25 1.68 6.172 0 0 11.047 19.203 20.039 34.75.688-2.188 1.492-4.391 2.641-6.391l24.672-42.641 4.273 2.453 16.211 9.375-25.234-43.672z"/><path d="m85.076 180.586c-2.242 3.812-10.242 17.641-10.242 17.641-1.391 2.344-2.047 5-2.047 7.609 0 2.625.656 5.172 2 7.453 2.656 4.641 7.68 7.484 13.016 7.422h49.82v-40.125z"/><path d="m217.686 55.008-16.219 9.344-4.289 2.5-12.562-21.859c-1.117-1.984-2.781-3.594-4.609-4.641-1.852-1.125-3.969-1.641-6.219-1.641h-40.109c1.562 1.641 3 3.422 4.141 5.422l24.609 42.656-4.219 2.531-16.266 9.344h50.477z"/><path d="m140.599 66.195c-2.172-3.797-10.117-17.672-10.117-17.672-1.391-2.344-3.32-4.266-5.609-5.609-2.242-1.266-4.758-1.969-7.414-2.031-5.344.062-10.312 2.938-12.898 7.641 0 0-21.023 36.313-24.977 43.141 6.25 3.578 28.531 16.453 34.781 20.047 3.727-6.548 24.016-41.579 26.234-45.517"/><path d="m182.029 243.727v-18.657-4.953l25.148.047c2.312 0 4.531-.578 6.407-1.703 1.883-1.047 3.469-2.609 4.539-4.516 0 0 11.141-19.188 20.047-34.75-2.172.5-4.438.891-6.734.891l-49.352-.047v-4.938l.047-18.719-25.289 43.672z"/><path d="m210.904 171.477h20.36c2.711 0 5.367-.656 7.672-2.031 2.188-1.281 4.094-3.062 5.438-5.406 2.633-4.656 2.578-10.375-.102-14.953 0 0-20.977-36.375-24.93-43.203-6.172 3.578-28.532 16.453-34.727 20.031 3.734 6.499 23.969 41.577 26.289 45.562"/></g></svg>