<svg width="40" height="40" viewBox="0 0 40 40" fill="none" xmlns="http://www.w3.org/2000/svg">
<rect width="40" height="40" rx="3" fill="#4E6086"/>
<path d="M29.7913 17.3334V6.11092H24.0969V3.33301H21.2495V6.11092H12.7078V3.33301H9.8604V6.11092H4.16602V31.1109H19.3776C20.9809 34.3889 24.4021 36.6663 28.3672 36.6663C33.8615 36.6663 38.3326 32.3043 38.3326 26.9441C38.3328 22.0558 34.6124 18.0114 29.7909 17.3331L29.7913 17.3334ZM9.86078 8.88879V11.6667H12.7082V8.88879H21.2499V11.6667H24.0973V8.88879H26.9447V13.0556L7.01353 13.0555V8.88867L9.86078 8.88879ZM7.0134 28.333V15.8329H26.9442V17.3329C22.1227 18.0112 18.4025 22.0557 18.4025 26.9439C18.4025 27.4158 18.4498 27.877 18.5165 28.3329L7.0134 28.333ZM28.3679 33.8888C24.4434 33.8888 21.2498 30.7719 21.2498 26.9441C21.2498 23.1138 24.4434 19.9997 28.3679 19.9997C32.2924 19.9997 35.486 23.1138 35.486 26.9441C35.4862 30.7719 32.2927 33.8888 28.3679 33.8888Z" fill="white"/>
<path d="M26.1115 27.7581L24.2707 25.962L22.2578 27.9263L26.1115 31.6859L32.8125 25.1484L30.7995 23.1846L26.1115 27.7581Z" fill="white"/>
</svg>
