<svg enable-background="new 0 0 283.14 282.438" height="282.438" viewBox="0 0 283.14 282.438" width="283.14" xmlns="http://www.w3.org/2000/svg"><path d="m289.249 263.906c0 13.594-11.039 24.641-24.641 24.641h-246.069c-13.601 0-24.633-11.047-24.633-24.641v-245.39c0-13.594 11.031-24.625 24.633-24.625h246.069c13.602 0 24.641 11.031 24.641 24.625zm-6.109-245.453c0-10.187-8.274-18.453-18.485-18.453h-246.163c-10.211 0-18.492 8.266-18.492 18.453v245.516c0 10.188 8.281 18.469 18.492 18.469h246.163c10.211 0 18.484-8.281 18.484-18.469v-245.516z" fill="#fff"/><path d="m283.14 18.453c0-10.187-8.274-18.453-18.485-18.453h-246.163c-10.211 0-18.492 8.266-18.492 18.453v245.516c0 10.188 8.281 18.469 18.492 18.469h246.163c10.211 0 18.484-8.281 18.484-18.469v-245.516z" fill="#4d5f85"/><g fill="#fff"><path d="m206.172 149.179h-160.812s0-91.094 0-103.891c0-12.812 11.391-28.453 34.172-28.453h156.539zm-55.492-76.844v-29.89h-68.304v29.891h68.304z"/><path d="m117.938 131.273c13.609 0 24.664 11.047 24.664 24.656s-11.055 24.641-24.664 24.641-24.672-11.031-24.672-24.641c0-13.609 11.063-24.656 24.672-24.656z"/><path d="m226.719 162.07v-12.578h-25.781l.188 12.578z"/><path d="m57.204 149.82h7.531v38.672h-7.531z"/><path d="m270.712 188.492v46.484c.195 14.984-16.055 30.766-34.711 30.625h-190.247c-21.773-.312-32.922-14.703-33.312-29.703v-47.406m71.098 44.484v-36.281h-58.305v36.281z"/><path d="m57.204 196.695h7.531v14.953h-7.531z"/><path d="m51.079 211.164 9.89 9.89 9.86-9.89z"/></g><path d="m57.172 188.507h7.539v8.328h-7.539z" fill="#4d5f85"/></svg>