<svg enable-background="new 0 0 283.1 282.4" viewBox="0 0 283.1 282.4" xmlns="http://www.w3.org/2000/svg"><path d="m283.1 18.5c0-10.2-8.3-18.5-18.5-18.5h-246.1c-10.2 0-18.5 8.3-18.5 18.5v245.5c0 10.2 8.3 18.5 18.5 18.5h246.2c10.2 0 18.5-8.3 18.5-18.5v-245.5z" fill="#fff"/><path d="m283.1 18.5c0-10.2-8.3-18.5-18.5-18.5h-246.1c-10.2 0-18.5 8.3-18.5 18.5v245.5c0 10.2 8.3 18.5 18.5 18.5h246.2c10.2 0 18.5-8.3 18.5-18.5v-245.5z" fill="#4e6086"/><path clip-rule="evenodd" d="m43.6 244.9c6.1 10.1 17.3 15.4 25.3 6.1 3.8 3.8 6.3 6 14.4 6s11.9-3.6 14.7-5.4c0 0 7.1 5.4 14.9 5.4s7.3-.3 13-2.5c3.8 1.6 13.3 4.1 27.6-2.2 4.2 2.5 9.6 5.6 17.1 4.7s13.4-3.7 13.4-3.7c4.2 2.5 9.2 3.8 14.1 3.8s14.3-4.4 14.3-4.4c15.6 13.5 27.2-10.9 27.3-11.3-4.1 1.7-13.9 7.3-19.7 4.9-3.1-1.3-6.9-6.3-6.9-6.8 0 0-16.8 13.4-29.2 1-6.7 7.2-21.8 8.5-23.3 5.1 33.9-7.5 52.6-25.3 51.7-30.5-.5-2.8-3.6-8.7-5.3-10.4-10.8 11.9-56.5 34.3-82.9 36.5 2.2-28.7 3.1-46.6 2.7-53.7-.2-2.8-6-19.7-17.6-50.9-9.2-23.6-26.8-12.6-27.8 4.3-.2 2.6 6.2 14 19.2 34.3 4.4 6.9 6.9 15.6 7.5 26.1 1.5 27.2 2.5 42 3.1 46.1-8.4.9-11.3-2.9-13.3-8.9-5.3 12.3-25.9 5.2-30 .2-2.9 4.7-12.7 10.4-24.3 6.2m10.6-182.9c-3.3 11.5 2.6 28.6 17.5 51.2 1.6 2.4 3.1 4.9 4.6 7.4l20.9-6.4v-27.2l67.3 5.2s3.5-5.4 5.8-9c-44.7-14.1-74.3-21.2-88.8-21.2zm9.3-37.8c-7.4 1.5-14.5 10.2-13.3 18 1.7 11.3 12.7 16.6 23.2 13.2 21.3-6.8 11.6-35.6-9.9-31.2z" fill="#fff" fill-rule="evenodd"/></svg>