<svg enable-background="new 0 0 283.1 282.4" viewBox="0 0 283.1 282.4" xmlns="http://www.w3.org/2000/svg" xmlns:xlink="http://www.w3.org/1999/xlink"><clipPath id="a"><path d="m441.2 621.1h-612v-792h612"/></clipPath><g clip-path="url(#a)"><path d="m283.1 18.5c0-10.2-8.3-18.5-18.5-18.5h-246.1c-10.2 0-18.5 8.3-18.5 18.5v245.5c0 10.2 8.3 18.5 18.5 18.5h246.2c10.2 0 18.5-8.3 18.5-18.5v-245.5z" fill="#fff"/><path d="m283.1 18.5c0-10.2-8.3-18.5-18.5-18.5h-246.1c-10.2 0-18.5 8.3-18.5 18.5v245.5c0 10.2 8.3 18.5 18.5 18.5h246.2c10.2 0 18.5-8.3 18.5-18.5v-245.5z" fill="#a7a6a6"/></g><g clip-path="url(#a)" fill="#fff"><path d="m211.1 21.1s-57.9 150.8-90.7 208.7c-2.3 4-1.1-14.2-1.1-14.2s-11.8-8.9-6.1-46.7c.8-5.6-10.1-4.5 5-37.4 22.7-49.4 92.9-110.4 92.9-110.4"/><path d="m124.8 221.1-8.9 20.6 40.6-38.7-11.5-12.5-8.8-1.6 7.1-14.2 4.4 9.3 22.4 1.6 9.8 9.8s-21.3 27.8-23.5 29c-2.2 1.1-31.9 19.3-31.9 19.3l15.8 3.5-3.1 4.9s-7.6-4.5-14.9-2.7c-4 1-7.3 3.7-10.5 2.1-3.3-1.6-7.1-4.4-10.4-2.8s-7.3 4.5-9.5 1.7c-2.2-2.7-2.7-5.8-2.7-5.8l23.5-3.8 8.2-21.3z"/><path d="m182.1 188.6c4.7 0 8.5-3.8 8.5-8.5s-3.8-8.5-8.5-8.5-8.5 3.8-8.5 8.5 3.8 8.5 8.5 8.5"/><path d="m70.9 255.6c.1-.1 1.1-.9 2.8-1.8s4.1-1.8 7-1.8c1.5 0 2.7.3 3.7.8.7.4 1.3.8 1.7 1.2.7.6 1.2 1 2 1.3s1.8.6 3.6.6c1.6 0 2.5-.2 3.1-.5.5-.2.8-.4 1.2-.8.3-.2.6-.5 1-.9.6-.5 1.4-1 2.4-1.4s2.3-.6 3.8-.6c1.8 0 3.3.3 4.4.8.9.4 1.6.9 2.1 1.3.8.7 1.4 1.1 2.1 1.5.7.3 1.5.6 3.1.6 1.4 0 2.3-.2 2.9-.5.5-.2.8-.4 1.2-.8.6-.5 1.4-1.2 2.7-1.8 1.2-.6 2.9-1 5-1 1.9 0 3.5.3 4.7.8.9.4 1.7.9 2.3 1.3.9.7 1.6 1.2 2.3 1.6s1.7.6 3.3.6c1.5 0 2.4-.2 3.2-.5.6-.2 1.1-.5 1.6-.9.8-.5 1.7-1.3 2.9-1.9 1.3-.6 2.9-1 4.9-1h.1.1c.2 0 1.6.1 3.4 1l-1.6 3.4c-.6-.3-1.1-.4-1.5-.5-.2 0-.3-.1-.4-.1h-.1l.1-1-.1 1 .1-1-.1 1 .1-1.9v1.9c-1.4 0-2.2.2-3 .5-.5.2-1 .5-1.6.9-.8.5-1.7 1.3-3 1.9s-3 1-5.1 1c-1.9 0-3.4-.3-4.6-.8-.9-.4-1.6-.9-2.2-1.3-.9-.7-1.5-1.2-2.3-1.6s-1.8-.6-3.5-.7c-1.6 0-2.5.2-3.1.5-.5.2-.9.4-1.3.8-.3.2-.7.5-1.1.8-.6.5-1.4 1-2.5 1.3-1 .4-2.3.6-3.8.6-1.8 0-3.3-.3-4.4-.8-.9-.4-1.6-.9-2.1-1.3-.8-.7-1.4-1.1-2.1-1.5-.7-.3-1.5-.6-3.1-.6-1.4 0-2.2.2-2.8.5-.4.2-.8.4-1.2.8-.6.5-1.4 1.3-2.6 1.9-.6.3-1.3.6-2.2.7-.8.2-1.8.3-2.8.3-1.9 0-3.4-.3-4.6-.7-.9-.3-1.6-.8-2.2-1.2-.9-.6-1.5-1.2-2-1.5-.3-.2-.5-.3-.8-.4s-.7-.1-1.3-.1c-2 0-3.9.7-5.3 1.4-.7.3-1.2.7-1.6.9-.2.1-.3.2-.4.3l-.1.1-.3-.4.3.4-.3-.4.3.4z"/></g></svg>