<svg enable-background="new 0 0 283.1 282.4" viewBox="0 0 283.1 282.4" xmlns="http://www.w3.org/2000/svg"><path d="m283.1 18.5c0-10.2-8.3-18.5-18.5-18.5h-246.1c-10.2 0-18.5 8.3-18.5 18.5v245.5c0 10.2 8.3 18.5 18.5 18.5h246.2c10.2 0 18.5-8.3 18.5-18.5v-245.5z" fill="#fff"/><path d="m283.1 18.5c0-10.2-8.3-18.5-18.5-18.5h-246.1c-10.2 0-18.5 8.3-18.5 18.5v245.5c0 10.2 8.3 18.5 18.5 18.5h246.2c10.2 0 18.5-8.3 18.5-18.5v-245.5z" fill="#4e6086"/><g fill="#fff"><path d="m211.1 21.1s-57.9 150.8-90.7 208.7c-2.3 4-1.1-14.2-1.1-14.2s-11.8-8.9-6.1-46.7c.8-5.6-10.1-4.5 5-37.4 22.7-49.4 92.9-110.4 92.9-110.4z"/><path d="m124.8 221.1-8.9 20.6 40.6-38.7-11.5-12.5-8.8-1.6 7.1-14.2 4.4 9.3 22.4 1.6 9.8 9.8s-21.3 27.8-23.5 29c-2.2 1.1-31.9 19.3-31.9 19.3l15.8 3.5-3.1 4.9s-7.6-4.5-14.9-2.7c-4 1-7.3 3.7-10.5 2.1-3.3-1.6-7.1-4.4-10.4-2.8s-7.3 4.5-9.5 1.7c-2.2-2.7-2.7-5.8-2.7-5.8l23.5-3.8 8.2-21.3z"/><path d="m182.1 188.6c4.7 0 8.5-3.8 8.5-8.5s-3.8-8.5-8.5-8.5-8.5 3.8-8.5 8.5 3.8 8.5 8.5 8.5z"/></g><path d="m72.1 257s3.7-3.1 8.6-3.1 4 3.9 10.9 3.9 5.1-4.2 11.6-4.2 5.2 4.2 11.7 4.2 4.9-4 11.8-4c7 0 5.9 4.3 12.6 4.3s6.3-4.3 12.6-4.3c0 0 1.2.1 2.7.8" fill="none" stroke="#fff" stroke-width="3.8"/></svg>