<svg enable-background="new 0 0 283.1 282.4" viewBox="0 0 283.1 282.4" xmlns="http://www.w3.org/2000/svg"><path d="m283.1 18.5c0-10.2-8.3-18.5-18.5-18.5h-246.1c-10.2 0-18.5 8.3-18.5 18.5v245.5c0 10.2 8.3 18.5 18.5 18.5h246.2c10.2 0 18.5-8.3 18.5-18.5v-245.5z" fill="#fff"/><path d="m283.1 18.5c0-10.2-8.3-18.5-18.5-18.5h-246.1c-10.2 0-18.5 8.3-18.5 18.5v245.5c0 10.2 8.3 18.5 18.5 18.5h246.2c10.2 0 18.5-8.3 18.5-18.5v-245.5z" fill="#4e6086"/><path d="m235.2 166.6-8.1 14-10.7-6.2 7.1-12.3-2.6-9.7-12.3 3.3-5.7 9.9-5.8-3.3 4.3-7.4-7.4-4.3-3.3 5.8-5.8-3.3 15.5-10.8-15.1-10.5 5.8-3.3 3.3 5.8 7.4-4.3-4.3-7.4 5.8-3.3 5.7 9.9 12.3 3.3 2.6-9.7-7.1-12.3 10.7-6.2 8.1 14 9.9-5.7 2-30.8-27.6-13.7-9.9 5.7 8.1 14-10.7 6.2-7.1-12.3-9.7-2.6-3.3 12.3 5.7 9.9-5.8 3.3-4.3-7.4-7.4 4.3 3.3 5.8-5.8 3.3-1.4-20.1-17.4 8.1v-6.7h6.6v-8.9h-8.6v-6.6h11.4l9-9-7.1-7.1h-14.3v-12.4h16.1v-11.4l-25.6-17.1-25.6 17.1v11.4h16.1v12.3h-14.2l-7.1 7.1 9 9h11.4v6.7h-8.5v8.5h6.6v6.7l-17.4-8.2-1.5 18.1-5.8-3.3 3.3-5.8-7.4-4.3-4.3 7.4-5.8-3.3 5.7-9.9-3.3-12.3-9.7 2.6-7.1 12.3-10.7-6.2 8.1-14-9.9-5.7-27.5 13.8 2 30.8 9.9 5.7 8.1-14 10.7 6.2-7.1 12.3 2.6 9.7 12.3-3.3 5.7-9.9 5.8 3.3-4.3 7.4 7.4 4.3 3.3-5.8 5.8 3.3-15.6 11.1 15.2 11.1-5.9 3.4-3.3-5.8-7.4 4.3 4.3 7.4-5.8 3.3-5.7-9.9-12.3-3.3-2.6 9.7 7.1 12.3-10.7 6.2-8.1-14-9.9 5.7-2 30.8 27.6 13.7 9.9-5.7-8.1-14 10.7-6.2 7.1 12.3 9.7 2.6 3.3-12.3-5.7-9.9 5.9-3.2 4.3 7.4 7.4-4.3-3.3-5.8 5.8-3.3 1.5 18.8 16.1-7.6v6.6h-6.6v8.5h8.5v6.7h-11.4l-9 9 7.1 7.1h14.3v12.3h-16.2v11.6l25.7 17.1 25.6-17.1v-11.4h-16.1v-12.3h14.3l7.1-7.1-9-9h-11.4v-6.7h8.6v-8.5h-6.7v-6.6l18.3 8.4 1.9-18.3 5.8 3.3-3.3 5.8 7.4 4.3 4.3-7.4 5.8 3.3-5.7 9.9 3.3 12.3 9.7-2.6 7.1-12.3 10.7 6.2-8.1 14 9.9 5.7 27.6-13.7-2-30.8zm-48.5-24.5-12.8 11-18.6-10.7 19-11zm27.4-41.3s-47.5 35.6-51 29.5c-3.6-6.2 51-29.5 51-29.5zm-71.8-42s7.1 58.9 0 58.9 0-58.9 0-58.9zm-23.4 43.3 16.3 5.7v21.2l-19.3-11.1zm-47.7-2.4s54.6 23.3 51 29.4c-3.5 6.2-51-29.4-51-29.4zm-1.4 82.6s47.5-35.6 51-29.5c3.6 6.2-51 29.5-51 29.5zm63.6-7.6-14.8 5.2-3.2-16.5 18-10.4zm6.6 50.4s-7.1-58.9 0-58.9c7.1-.1 0 58.9 0 58.9zm24.2-44.3-17.4-6.1v-21.4c-1.8 1-3.9 1.6-6.1 1.6-7.2 0-13-6-13-13.4 0-.2 0-.4 0-.6l-18.9 10.9-12.8-11 13.3-11.5 18.5 10.7c.8-6.7 6.2-11.8 12.9-11.8 3 0 5.7 1 7.9 2.8v-23.2l15.8-5.5 3.4 17.6-19.2 11.1c3.1 2.4 5.1 6.3 5.1 10.6 0 4.9-2.6 9.2-6.4 11.5l20 11.6zm-.9-26.7c3.6-6.2 51 29.4 51 29.4s-54.6-23.2-51-29.4z" fill="#fff"/></svg>