<svg width="272" height="220" viewBox="0 0 272 220" fill="none" xmlns="http://www.w3.org/2000/svg">
<g clip-path="url(#clip0_13898_192421)">
<path d="M169.513 212.71V212.01L169.844 211.677H170.561L170.321 211.273L169.255 210.591V209.761L168.152 209.061V209.539L168.446 209.89V210.387H168.207L167.749 210.184L165.827 207.75L166.303 206.79L165.348 205.561L163.181 203.558L161.088 202.464L158.75 201.922L158.223 201.663L157.939 201.682L157.965 201.7L157.133 201.148L156.08 200.337L155.272 199.549L153.766 197.472L152.945 196.893V196.378L153.458 196.658H153.716L154.011 196.378V195.849L153.497 195.297H152.91V194.818L151.881 193.97V193.492L150.57 192.657V191.882L150.062 191.092L150.32 190.577L150.062 190.024L148.74 188.743V188.18L148.464 187.408L148.169 187.12V186.335L147.884 185.783L146.855 185.027L146.165 185.212L144.567 185.312L144.017 184.768H142.382L141.655 183.983L140.544 183.457H139.533L139.251 183.177H136.642L136.384 182.685H134.989L133.715 182.144H132.675L131.535 181.308H129.918V180.867L128.57 180.278L126.588 178.716L124.213 177.389L122.204 176.768L121.496 176.057H119.829L118.8 176.567L117.623 177.355H116.375L115.641 177.624L116.075 178.362L116.599 178.528L116.636 179.458L117.131 179.966L117.426 181.248L118.189 182.077L118.971 182.889L119.824 183.203L119.75 182.614L119.795 182.107L120.301 182.373V182.87L121.238 182.788L121.714 183.23L121.117 184.226L120.29 185.008L120.548 185.82L121.072 185.812L121.349 185.259H121.872L122.13 185.582V186.293L122.71 186.615V187.411L121.08 188.727V189.517L122.183 190.019L123.665 188.999L124.242 188.986L125.6 189.81H126.066L126.888 190.561L127.941 190.302L128.186 189.319L127.891 188.484L128.16 188.47L128.441 188.74L128.773 189.232L129.41 189.353L129.766 188.973L130.268 188.959L130.282 189.514L129.034 190.323L129.242 190.828L129.768 190.804V191.137L128.739 191.629L128.984 192.686L129.779 193.484H131.09V192.918L131.566 193.214H131.872V192.686L132.14 192.427L132.372 193.225L132.941 192.836L132.885 191.602L133.425 191.898L133.638 192.802L133.07 193.484L131.869 194.012L132.138 194.517H132.896L132.956 194.784L132.148 195.336L131.89 196.129L132.459 196.655H132.946L133.222 196.914V197.44L134.241 197.966L134.747 197.958L135.297 196.917V196.391L135.555 196.124H136.116L136.898 195.561V195.091L136.632 194.546H137.377L137.661 195.302L136.898 196.121L136.879 196.674L137.661 196.904L137.946 196.645L138.743 196.83L138.504 197.189L138.154 197.448H137.685L137.143 197.171L136.087 198.23L136.634 199.821H137.672V200.625L138.749 201.658H138.993L139.238 201.153L138.993 200.611L139.251 200.096L139.773 200.884L140.341 201.412L139.773 201.671V201.949L140.031 202.446V202.974L141.097 203.516V202.263L140.821 201.967L141.042 201.322L141.61 202.189H142.179V201.674L142.637 201.766V202.689L141.903 203.204V203.756H142.379L142.985 202.977L143.206 203.26H143.664L143.94 202.726L144.254 203.556H144.749V205.141L145.317 205.675V206.653L147.229 209.087L147.632 209.105L148.79 207.98V207.242H149.793V208.55H150.572L150.867 208.017H152.007L152.394 207.758L153.166 208.017L153.018 208.532L151.641 210.118L151.31 210.947L151.604 211.722L152.945 212.718L154.506 213.271L155.791 214.653L156.599 214.875L158.215 214.893L158.492 215.686L159.813 215.964L164.552 218.046L166.187 218.305L167.435 218.876H168.225L168.52 218.561V218.102L169.31 216.994H169.786V217.364L170.189 217.824L171.274 217.75L171.403 216.569L170.3 212.716H169.51L169.513 212.71Z" fill="#C1B59B" stroke="#736C5D" stroke-linecap="round" stroke-linejoin="round"/>
<path d="M269.843 205.382L269.09 204.848H267.758L267.281 203.521L264.59 200.876V200.35L265.399 199.557V198.497L264.058 198.764L263.498 197.445L264.085 196.893V196.137H264.819V193.74L264.535 192.155V190.339L263.782 189.509V187.968L263.524 186.605L262.974 185.838L263.25 185.286L262.231 184.467V183.719L260.625 181.322L259.836 180.777L259.322 181.597L258.377 182.067L257.469 180.822V178.94L255.613 178.415L254.299 175.769V174.984L253.232 173.665H252.451L252.716 172.846L249.768 172.08L250.118 171.001L249.841 170.217L247.996 169.397V168.9H246.93L246.672 168.1V166.514L245.616 165.729V164.936L244.818 163.377L243.523 162.851V161.773L242.98 161.239V160.309H241.696L241.153 162.013H239.821L239.574 160.187L239.042 159.653V158.575L238.27 158.298L237.417 157.026L236.109 155.705L235.864 153.517L235.079 154.389L232.936 154.635L232.239 153.823V153.281H230.88L230.34 152.803L230.119 151.992L231.159 151.167L231.612 150.332L231.122 149.582H230.106L228.258 148.009L227.708 148.797L227.684 149.645L225.646 150.396V149.079L226.394 148.527V148.086H225.672L225.341 147.753V146.701H224.556V145.871L225.217 145.379V144.568L224.83 143.529L223.79 143.271V142.742L224.298 142.464V141.82H223.495L223.25 140.622L221.929 141.391L221.689 140.107L220.857 139.555L221.689 139.198L221.407 138.492L220.115 138.247L220.328 136.666L218.503 135.326V134.816L217.187 134.798L217.474 136.407L217.198 136.912L215.876 135.332L215.607 135.609H214.823L213.793 133.653V132.977L213.488 132.448H210.315L209.42 131.772V131.034L208.954 129.805H207.988L207.767 129.573L208.257 129.031L207.485 128.183L207.643 127.741L209.31 128.566L209.665 127.398L208.728 126.145H207.809L207.956 124.911H207.075L206.798 124.409V1.13232H1.13281L1.70149 1.64767L4.97141 3.34435L5.46111 5.85238L17.1928 18.0701L18.1222 22.4836L17.8826 24.6031H18.4328L25.3123 19.2831H28.1399L29.1772 12.9483L30.4989 13.2337L31.839 11.6216L30.4884 10.0624L32.0944 8.99204L34.4639 8.73304L39.7531 5.58017L42.6545 7.91377L44.766 10.8367V12.7263L43.9129 13.5192L44.9871 14.571L44.5 15.3638L45.5295 16.6905L48.4124 17.2059V18.5431L49.734 19.8698H50.516L51.5533 21.6854V23.2791L53.1408 25.3986L57.6587 28.5779L62.3714 34.3868L61.5895 35.4201L68.0003 46.0416L74.7323 59.2239L73.4475 61.5945L74.4848 62.1283L76.8543 62.4058V63.7061L76.3304 63.9836L76.0645 66.0952L78.6815 67.147L78.9474 69.2666V71.3782H82.1252L87.0537 75.2023L90.4579 76.0744L92.393 77.9984L93.9464 78.2389L94.336 80.3584H95.0758L96.0684 81.4208L97.6612 80.6333L98.738 82.7608V85.1076L97.3901 87.2218V88.8075L97.8929 92.7902L98.4326 93.5646L98.4458 95.6788L99.2672 96.7491L97.1742 99.5875L94.9705 104.382L91.8665 106.263V106.797L92.1061 107.048H94.0043L95.0443 107.294V108.88H94.7625L94.2491 109.176L94.236 111.832L94.7494 112.091V112.632H93.72V113.653L94.7599 114.71L94.4545 115.006H93.9516V115.51L94.2018 115.761H94.9784L95.2733 116.076V116.605L95.7999 117.133L96.0579 117.611L95.813 117.931L96.3633 118.399H96.8582L98.1562 118.851L97.9429 120.223V122.398L97.3374 122.675H96.3633L96.0684 122.086V120.759L95.5629 120.04L94.7099 119.173H94.0122L93.4619 119.469L92.8933 119.985L92.3983 120.281L92.1219 121.055V121.57L93.225 122.678H93.6647V123.434L94.4729 123.711H95.1153L95.813 123.952H96.853V125.556L96.3501 125.815V124.808H95.8104V125.582H95.5629L95.0153 125.815L94.7467 126.135V127.141H95.2601V127.411L95.8236 127.953L96.3369 128.212H97.1084V128.74H97.9535L97.6349 127.942H97.3769V126.37L97.9166 126.137V127.379L98.4432 127.712V128.191L98.7249 128.46H99.2146L99.7648 128.214L99.9965 128.447V128.743L99.7648 129.013L99.52 129.282L98.9803 129.787V130.056H99.2383V130.352H99.7648L100.299 130.593H100.823V131.1H100.299V131.875L101.861 133.468L102.669 134.795L103.174 135.329H103.706V135.606L103.44 135.855V137.181L103.954 137.422H104.23V137.985L105.012 138.778L105.573 139.594L105.802 139.848H106.592V138.788H106.334V137.977L104.736 135.894L104.488 134.835H104.241V133.746L105.049 133.201L105.307 132.961L105.554 133.495L105.562 133.772V134.824L105.839 135.073V135.588H106.097V136.381L106.592 137.192L107.097 137.459V138.233H107.621L107.41 138.537V140.316L108.798 140.99L108.448 142.427L108.743 143.479L110.457 145.2L111.023 145.398L111.354 144.883H111.705L112.144 146.154L112.242 147.034L111.623 146.714H111.354V147.771L112.144 149.394L112.531 150.033L112.679 151.225L112.91 151.717L113.424 151.458V149.367L113.956 148.834L114.766 149.064H115.235V147.745L116.349 148.569L116.091 149.603H115.577V150.131L115.014 150.697L115.835 151.725L116.349 152L115.564 152.541L114.793 153.575V154.09L115.564 154.865H116.03L116.349 155.406H116.862L116.996 156.315L117.657 156.487L117.889 156.204H118.439V155.43L119.284 154.902L119.511 155.129H121.085L121.662 155.171L121.883 156.178L121.614 157.003V157.814L121.993 157.875L122.141 158.305L121.664 158.379L121.433 158.797L121.899 162.534L122.217 163.123L123.455 162.84V163.345L122.928 164.18V164.759L123.441 164.439L124.263 165.436H124.789L125.548 164.957V165.732L125.008 165.991L124.505 166.815L123.715 167.066L122.889 167.613L123.157 168.634L124.811 168.657L125.545 168.361L126.904 167.341L125.6 168.327L126.095 168.644H126.622V169.159L126.082 169.712L124.784 169.958L123.718 169.712L123.186 170.505V171.001L124.179 171.998L125.074 172.262L124.505 171.556H126.072L126.622 172.061L125.827 172.074V172.331L126.377 172.64L126.082 172.886L125.556 173.93L126.082 174.471H126.548L126.927 175.296H127.662L128.42 175.529L129.215 176.316L130.587 177.091H131.003L131.59 176.575L132.13 176.306V175.727L132.706 174.767L133.22 174.754L133.686 174.976L133.491 175.764L134.225 176.033H135.265L136.392 175.259L136.653 175.558L136.11 176.073V176.847L136.653 177.091H137.682L138.978 176.575L139.28 176.832L140.244 176.913L140.023 177.918H141.089L141.639 177.355H141.879V177.918L140.547 178.933H140.07L139.786 179.485L140.062 179.707H140.568L140.815 179.495L141.881 180.312L141.342 181.086H140.607L140.068 181.591V182.157L140.349 182.672L140.876 182.918L142.627 183.016L143.73 182.646L144.514 182.817L144.796 183.716H145.799L146.607 183.446L148.187 183.46L149.559 183.975V185.008L149.79 185.598L150.833 186.065V186.618L151.618 187.416L152.684 186.901C152.881 186.961 153.11 187.146 153.11 187.146L153.476 187.902L154.598 188.973L154.977 190.355L155.156 191.185L157.891 193.5V194.274L158.223 194.557L158.75 194.742L160.071 195.048L160.574 195.331L161.909 196.658L163.47 198.225L163.965 198.925L164.866 199.774L167.125 200.419L168.165 201.156L168.997 200.86V199.065L171.616 197.712V196.951L171.911 196.423H172.93L172.166 197.197V198.222L171.677 198.756L171.872 199.827L171.1 201.449V202.2L171.677 202.459L171.664 203.27L172.398 204.314L172.661 206.428L173.243 206.994V207.922H270.864V206.954L269.835 205.387L269.843 205.382Z" fill="#C1B59B" stroke="#736C5D" stroke-linecap="round" stroke-linejoin="round"/>
<path d="M87.6549 154.629L87.4022 153.837L87.9209 153.308L86.5887 152.782L86.3412 152.523L87.131 152.251V151.722L86.3333 151.204H86.07L85.5645 151.712L85.7988 152.238H85.2933L85.0011 151.725H84.5035L84.2376 151.455V150.398L84.8221 150.644L85.0327 150.39L84.7431 150.137V149.883H85.009L85.2723 149.346L85.5434 148.966L85.0195 148.826L84.2376 149.344L84.2429 149.883L83.7189 150.393V149.888L83.4241 149.352L83.453 148.551L82.9133 147.803L81.9971 147.232L81.6022 147.499L80.528 145.95V145.38L80.2858 144.833L80.8123 144.846L81.3758 145.388V146.172L82.1472 146.154L82.9186 145.633L83.1871 145.11L83.1766 144.058L82.9133 143.802H82.6553L82.3867 144.053L81.6074 144.33L81.0809 144.28L79.4907 144.071L79.7724 143.001L80.8176 142.198L80.8071 141.281L81.3336 140.353V139.811L80.8071 139.018L80.7992 137.441L79.7592 135.596L78.9562 134.552L78.1585 133.471V129.776L78.4613 128.476L78.1664 127.435L78.6903 126.346L78.8009 124.451L80.5148 121.721L81.0098 120.347L81.2941 117.701L81.0703 116.98L79.8645 119.16H78.9694L78.1743 120.009H76.3129L75.8232 120.55H74.9886L74.7569 120.244V119.493L74.4989 118.962L73.2378 118.706L71.1079 118.941L70.2628 117.884H69.7599L69.1596 118.423H68.1565L66.3189 117.133H66.0635L65.8186 117.931L65.5238 118.399V118.695L66.0556 119.226V120.27L65.2552 120.833L65.0156 122.123V123.183L65.4922 124.227L65.2736 124.52V124.768L66.1451 125.305L66.8428 126.087L67.3667 127.673L66.8533 128.191V128.466L67.422 128.992V129.536L69.5072 132.974L69.8047 134.261L70.7841 134.301L71.6108 136.074L71.3343 137.419L71.8767 138.239L73.7038 139.298L73.7328 139.843L74.6779 141.651L74.7701 142.203L77.3766 145.134H77.6714L79.5091 147.256L80.0225 147.777L80.757 147.999L81.5653 149.069L81.797 150.419H82.3499L82.5947 151.429L83.7321 153.052L84.0033 153.247L84.1981 152.793H84.4666V153.321L84.9827 154.365L85.7646 154.119L86.0726 154.365H86.8809V155.681L87.0889 156.456V156.923L87.3706 157.291H87.9077V157.008L87.6339 156.733V155.977L87.9077 155.694H88.4237L88.7291 155.385V154.931H88.2026L87.6549 154.629Z" fill="#C1B59B" stroke="#736C5D" stroke-linecap="round" stroke-linejoin="round"/>
<path d="M195.715 207.916L195.115 206.405L195.997 205.871V204.8H194.823L193.499 204.026L193.978 203.289L195.273 203.804L195.631 202.773L194.915 201.703V199.232L195.631 198.217V197.498H195.602L194.739 198.217L194.252 197.702V197.168L194.502 196.909V196.116L194.004 195.849L193.48 195.331V194.789L193.72 194.52H194.336L194.805 194.004V193.204H194.262L193.491 193.471H192.443V192.971L192.985 192.16V191.396L192.417 190.566V189.276L192.941 188.98V187.672H191.111L188.991 187.154L188.475 187.662V188.436H187.685L186.896 187.662H186.116V188.196L185.308 188.999V189.75H184.789L184.279 189.239H182.415L181.909 188.751V188.37L181.396 188.721L181.891 189.755L184.537 191.354V191.882L185.332 192.939L184.574 193.468L184.818 194.279L183.494 195.569H175.585L175.059 195.04H174.616L174.006 196.121H173.221L172.168 197.192V198.217L171.678 198.754L171.873 199.821L171.102 201.444V202.195L171.678 202.454L171.665 203.265L172.4 204.309L172.663 206.423L173.245 206.989V207.916H195.715Z" fill="#003366"/>
<rect width="129" height="24" transform="translate(93 154)" fill="white"/>
<path d="M102.26 171V161.004H104.374V169.25H108.434V171H102.26ZM116.952 167.164C116.952 168.433 116.616 169.413 115.944 170.104C115.281 170.795 114.376 171.14 113.228 171.14C112.519 171.14 111.884 170.986 111.324 170.678C110.773 170.37 110.339 169.922 110.022 169.334C109.705 168.737 109.546 168.013 109.546 167.164C109.546 165.895 109.877 164.919 110.54 164.238C111.203 163.557 112.113 163.216 113.27 163.216C113.989 163.216 114.623 163.37 115.174 163.678C115.725 163.986 116.159 164.434 116.476 165.022C116.793 165.61 116.952 166.324 116.952 167.164ZM111.674 167.164C111.674 167.92 111.795 168.494 112.038 168.886C112.29 169.269 112.696 169.46 113.256 169.46C113.807 169.46 114.203 169.269 114.446 168.886C114.698 168.494 114.824 167.92 114.824 167.164C114.824 166.408 114.698 165.843 114.446 165.47C114.203 165.087 113.802 164.896 113.242 164.896C112.691 164.896 112.29 165.087 112.038 165.47C111.795 165.843 111.674 166.408 111.674 167.164ZM119.796 163.356L120.678 166.744C120.725 166.921 120.767 167.127 120.804 167.36C120.851 167.593 120.888 167.831 120.916 168.074C120.953 168.307 120.986 168.531 121.014 168.746C121.051 168.951 121.079 169.119 121.098 169.25H121.154C121.163 169.119 121.182 168.947 121.21 168.732C121.247 168.508 121.285 168.284 121.322 168.06C121.359 167.827 121.392 167.612 121.42 167.416C121.457 167.22 121.485 167.089 121.504 167.024L122.442 163.356H124.738L125.634 167.024C125.653 167.117 125.681 167.262 125.718 167.458C125.755 167.654 125.788 167.864 125.816 168.088C125.853 168.312 125.886 168.531 125.914 168.746C125.942 168.951 125.961 169.119 125.97 169.25H126.026C126.045 169.138 126.068 168.979 126.096 168.774C126.124 168.559 126.157 168.331 126.194 168.088C126.241 167.845 126.287 167.607 126.334 167.374C126.381 167.131 126.427 166.921 126.474 166.744L127.384 163.356H129.428L127.23 171H124.962L124.374 168.326C124.337 168.177 124.281 167.943 124.206 167.626C124.131 167.299 124.052 166.963 123.968 166.618C123.884 166.263 123.805 165.932 123.73 165.624C123.665 165.307 123.618 165.083 123.59 164.952H123.534C123.506 165.083 123.455 165.307 123.38 165.624C123.315 165.932 123.24 166.263 123.156 166.618C123.072 166.963 122.993 167.299 122.918 167.626C122.843 167.953 122.787 168.195 122.75 168.354L122.134 171H119.894L117.724 163.356H119.796ZM133.816 163.216C134.871 163.216 135.706 163.519 136.322 164.126C136.938 164.723 137.246 165.577 137.246 166.688V167.696H132.318C132.337 168.284 132.51 168.746 132.836 169.082C133.172 169.418 133.634 169.586 134.222 169.586C134.708 169.586 135.151 169.539 135.552 169.446C135.963 169.343 136.383 169.189 136.812 168.984V170.594C136.43 170.781 136.033 170.916 135.622 171C135.212 171.093 134.712 171.14 134.124 171.14C133.359 171.14 132.682 171 132.094 170.72C131.506 170.431 131.044 170.001 130.708 169.432C130.372 168.853 130.204 168.121 130.204 167.234C130.204 166.347 130.354 165.605 130.652 165.008C130.96 164.411 131.385 163.963 131.926 163.664C132.468 163.365 133.098 163.216 133.816 163.216ZM133.83 164.7C133.42 164.7 133.084 164.831 132.822 165.092C132.561 165.353 132.407 165.759 132.36 166.31H135.286C135.277 165.853 135.151 165.47 134.908 165.162C134.675 164.854 134.316 164.7 133.83 164.7ZM143.208 163.216C143.31 163.216 143.432 163.221 143.572 163.23C143.712 163.239 143.824 163.253 143.908 163.272L143.754 165.232C143.679 165.213 143.581 165.199 143.46 165.19C143.338 165.171 143.231 165.162 143.138 165.162C142.783 165.162 142.442 165.227 142.116 165.358C141.789 165.479 141.523 165.68 141.318 165.96C141.122 166.24 141.024 166.623 141.024 167.108V171H138.938V163.356H140.52L140.828 164.644H140.926C141.15 164.252 141.458 163.916 141.85 163.636C142.242 163.356 142.694 163.216 143.208 163.216ZM149.1 161.004H151.984L154.35 168.648H154.392L156.898 161.004H159.782V171H157.808V166.268C157.808 166.044 157.813 165.783 157.822 165.484C157.831 165.176 157.841 164.877 157.85 164.588C157.859 164.289 157.869 164.014 157.878 163.762C157.887 163.501 157.897 163.305 157.906 163.174H157.85L155.274 171H153.328L150.92 163.16H150.864C150.873 163.291 150.883 163.487 150.892 163.748C150.911 164 150.925 164.28 150.934 164.588C150.953 164.887 150.967 165.195 150.976 165.512C150.985 165.829 150.99 166.109 150.99 166.352V171H149.1V161.004ZM165.051 166.282L166.381 166.24V165.904C166.381 165.503 166.274 165.209 166.059 165.022C165.854 164.835 165.564 164.742 165.191 164.742C164.818 164.742 164.454 164.798 164.099 164.91C163.744 165.013 163.39 165.143 163.035 165.302L162.349 163.888C162.75 163.683 163.203 163.519 163.707 163.398C164.211 163.267 164.734 163.202 165.275 163.202C166.311 163.202 167.1 163.421 167.641 163.86C168.182 164.299 168.453 164.98 168.453 165.904V171H166.997L166.591 169.964H166.535C166.367 170.169 166.199 170.347 166.031 170.496C165.872 170.645 165.695 170.767 165.499 170.86C165.303 170.953 165.084 171.023 164.841 171.07C164.598 171.117 164.318 171.14 164.001 171.14C163.665 171.14 163.352 171.093 163.063 171C162.774 170.897 162.522 170.748 162.307 170.552C162.102 170.356 161.938 170.109 161.817 169.81C161.696 169.502 161.635 169.138 161.635 168.718C161.635 167.906 161.92 167.309 162.489 166.926C163.058 166.543 163.912 166.329 165.051 166.282ZM163.777 168.732C163.777 169.049 163.87 169.278 164.057 169.418C164.244 169.549 164.486 169.614 164.785 169.614C165.233 169.614 165.611 169.483 165.919 169.222C166.227 168.951 166.381 168.573 166.381 168.088V167.458L165.569 167.486C164.897 167.505 164.43 167.626 164.169 167.85C163.908 168.074 163.777 168.368 163.777 168.732ZM171.638 160.36C171.946 160.36 172.212 160.435 172.436 160.584C172.66 160.724 172.772 160.99 172.772 161.382C172.772 161.765 172.66 162.031 172.436 162.18C172.212 162.329 171.946 162.404 171.638 162.404C171.321 162.404 171.05 162.329 170.826 162.18C170.611 162.031 170.504 161.765 170.504 161.382C170.504 160.99 170.611 160.724 170.826 160.584C171.05 160.435 171.321 160.36 171.638 160.36ZM172.674 163.356V171H170.588V163.356H172.674ZM174.854 163.356H176.45L176.73 164.336H176.842C177.084 163.944 177.416 163.659 177.836 163.482C178.265 163.305 178.718 163.216 179.194 163.216C180.015 163.216 180.673 163.44 181.168 163.888C181.662 164.327 181.91 165.036 181.91 166.016V171H179.824V166.534C179.824 165.974 179.726 165.559 179.53 165.288C179.334 165.017 179.021 164.882 178.592 164.882C177.957 164.882 177.523 165.101 177.29 165.54C177.056 165.969 176.94 166.59 176.94 167.402V171H174.854V163.356ZM186.141 171H184.055V160.36H186.141V171ZM191.233 166.282L192.563 166.24V165.904C192.563 165.503 192.455 165.209 192.241 165.022C192.035 164.835 191.746 164.742 191.373 164.742C190.999 164.742 190.635 164.798 190.281 164.91C189.926 165.013 189.571 165.143 189.217 165.302L188.531 163.888C188.932 163.683 189.385 163.519 189.889 163.398C190.393 163.267 190.915 163.202 191.457 163.202C192.493 163.202 193.281 163.421 193.823 163.86C194.364 164.299 194.635 164.98 194.635 165.904V171H193.179L192.773 169.964H192.717C192.549 170.169 192.381 170.347 192.213 170.496C192.054 170.645 191.877 170.767 191.681 170.86C191.485 170.953 191.265 171.023 191.023 171.07C190.78 171.117 190.5 171.14 190.183 171.14C189.847 171.14 189.534 171.093 189.245 171C188.955 170.897 188.703 170.748 188.489 170.552C188.283 170.356 188.12 170.109 187.999 169.81C187.877 169.502 187.817 169.138 187.817 168.718C187.817 167.906 188.101 167.309 188.671 166.926C189.24 166.543 190.094 166.329 191.233 166.282ZM189.959 168.732C189.959 169.049 190.052 169.278 190.239 169.418C190.425 169.549 190.668 169.614 190.967 169.614C191.415 169.614 191.793 169.483 192.101 169.222C192.409 168.951 192.563 168.573 192.563 168.088V167.458L191.751 167.486C191.079 167.505 190.612 167.626 190.351 167.85C190.089 168.074 189.959 168.368 189.959 168.732ZM196.77 163.356H198.366L198.646 164.336H198.758C199 163.944 199.332 163.659 199.752 163.482C200.181 163.305 200.634 163.216 201.11 163.216C201.931 163.216 202.589 163.44 203.084 163.888C203.578 164.327 203.826 165.036 203.826 166.016V171H201.74V166.534C201.74 165.974 201.642 165.559 201.446 165.288C201.25 165.017 200.937 164.882 200.508 164.882C199.873 164.882 199.439 165.101 199.206 165.54C198.972 165.969 198.856 166.59 198.856 167.402V171H196.77V163.356ZM208.393 171.14C207.544 171.14 206.848 170.809 206.307 170.146C205.775 169.474 205.509 168.489 205.509 167.192C205.509 165.885 205.78 164.896 206.321 164.224C206.862 163.552 207.572 163.216 208.449 163.216C209 163.216 209.452 163.323 209.807 163.538C210.162 163.753 210.442 164.019 210.647 164.336H210.717C210.689 164.187 210.656 163.972 210.619 163.692C210.582 163.403 210.563 163.109 210.563 162.81V160.36H212.649V171H211.053L210.647 170.006H210.563C210.358 170.323 210.082 170.594 209.737 170.818C209.392 171.033 208.944 171.14 208.393 171.14ZM209.121 169.474C209.69 169.474 210.092 169.306 210.325 168.97C210.558 168.625 210.684 168.111 210.703 167.43V167.206C210.703 166.469 210.586 165.904 210.353 165.512C210.129 165.111 209.709 164.91 209.093 164.91C208.636 164.91 208.276 165.111 208.015 165.512C207.754 165.904 207.623 166.473 207.623 167.22C207.623 167.967 207.754 168.531 208.015 168.914C208.276 169.287 208.645 169.474 209.121 169.474Z" fill="#003366"/>
</g>
<defs>
<clipPath id="clip0_13898_192421">
<rect width="272" height="220" fill="white"/>
</clipPath>
</defs>
</svg>
