<svg width="272" height="220" viewBox="0 0 272 220" fill="none" xmlns="http://www.w3.org/2000/svg">
<g clip-path="url(#clip0_13898_192736)">
<path d="M169.513 212.71V212.01L169.844 211.677H170.561L170.321 211.273L169.255 210.591V209.761L168.152 209.061V209.539L168.446 209.89V210.387H168.207L167.749 210.184L165.827 207.75L166.303 206.79L165.348 205.561L163.181 203.558L161.088 202.464L158.75 201.922L158.223 201.663L157.939 201.682L157.965 201.7L157.133 201.148L156.08 200.337L155.272 199.549L153.766 197.472L152.945 196.893V196.378L153.458 196.658H153.716L154.011 196.378V195.849L153.497 195.297H152.91V194.818L151.881 193.97V193.492L150.57 192.657V191.882L150.062 191.092L150.32 190.577L150.062 190.024L148.74 188.743V188.18L148.464 187.408L148.169 187.12V186.335L147.884 185.783L146.855 185.027L146.165 185.212L144.567 185.312L144.017 184.768H142.382L141.655 183.983L140.544 183.457H139.533L139.251 183.177H136.642L136.384 182.685H134.989L133.715 182.144H132.675L131.535 181.308H129.918V180.867L128.57 180.278L126.588 178.716L124.213 177.389L122.204 176.768L121.496 176.057H119.829L118.8 176.567L117.623 177.355H116.375L115.641 177.624L116.075 178.362L116.599 178.528L116.636 179.458L117.131 179.966L117.426 181.248L118.189 182.077L118.971 182.889L119.824 183.203L119.75 182.614L119.795 182.107L120.301 182.373V182.87L121.238 182.788L121.714 183.23L121.117 184.226L120.29 185.008L120.548 185.82L121.072 185.812L121.349 185.259H121.872L122.13 185.582V186.293L122.71 186.615V187.411L121.08 188.727V189.517L122.183 190.019L123.665 188.999L124.242 188.986L125.6 189.81H126.066L126.888 190.561L127.941 190.302L128.186 189.319L127.891 188.484L128.16 188.47L128.441 188.74L128.773 189.232L129.41 189.353L129.766 188.973L130.268 188.959L130.282 189.514L129.034 190.323L129.242 190.828L129.768 190.804V191.137L128.739 191.629L128.984 192.686L129.779 193.484H131.09V192.918L131.566 193.214H131.872V192.686L132.14 192.427L132.372 193.225L132.941 192.836L132.885 191.602L133.425 191.898L133.638 192.802L133.07 193.484L131.869 194.012L132.138 194.517H132.896L132.956 194.784L132.148 195.336L131.89 196.129L132.459 196.655H132.946L133.222 196.914V197.44L134.241 197.966L134.747 197.958L135.297 196.917V196.391L135.555 196.124H136.116L136.898 195.561V195.091L136.632 194.546H137.377L137.661 195.302L136.898 196.121L136.879 196.674L137.661 196.904L137.946 196.645L138.743 196.83L138.504 197.189L138.154 197.448H137.685L137.143 197.171L136.087 198.23L136.634 199.821H137.672V200.625L138.749 201.658H138.993L139.238 201.153L138.993 200.611L139.251 200.096L139.773 200.884L140.341 201.412L139.773 201.671V201.949L140.031 202.446V202.974L141.097 203.516V202.263L140.821 201.967L141.042 201.322L141.61 202.189H142.179V201.674L142.637 201.766V202.689L141.903 203.204V203.756H142.379L142.985 202.977L143.206 203.26H143.664L143.94 202.726L144.254 203.556H144.749V205.141L145.317 205.675V206.653L147.229 209.087L147.632 209.105L148.79 207.98V207.242H149.793V208.55H150.572L150.867 208.017H152.007L152.394 207.758L153.166 208.017L153.018 208.532L151.641 210.118L151.31 210.947L151.604 211.722L152.945 212.718L154.506 213.271L155.791 214.653L156.599 214.875L158.215 214.893L158.492 215.686L159.813 215.964L164.552 218.046L166.187 218.305L167.435 218.876H168.225L168.52 218.561V218.102L169.31 216.994H169.786V217.364L170.189 217.824L171.274 217.75L171.403 216.569L170.3 212.716H169.51L169.513 212.71Z" fill="#C1B59B" stroke="#736C5D" stroke-linecap="round" stroke-linejoin="round"/>
<path d="M269.843 205.382L269.09 204.848H267.758L267.281 203.521L264.59 200.876V200.35L265.399 199.557V198.497L264.059 198.764L263.498 197.445L264.085 196.893V196.137H264.819V193.74L264.535 192.155V190.339L263.782 189.509V187.968L263.524 186.605L262.974 185.838L263.25 185.286L262.231 184.467V183.719L260.625 181.322L259.836 180.777L259.322 181.596L258.377 182.067L257.469 180.822V178.94L255.613 178.415L254.299 175.769V174.984L253.232 173.665H252.451L252.716 172.846L249.768 172.08L250.118 171.001L249.841 170.217L247.996 169.397V168.9H246.93L246.672 168.1V166.514L245.616 165.729V164.936L244.818 163.377L243.523 162.851V161.773L242.98 161.239V160.309H241.696L241.153 162.013H239.821L239.574 160.187L239.042 159.653V158.575L238.27 158.298L237.417 157.026L236.109 155.705L235.864 153.517L235.079 154.389L232.936 154.635L232.239 153.823V153.281H230.88L230.34 152.803L230.119 151.992L231.159 151.167L231.612 150.332L231.122 149.582H230.106L228.258 148.009L227.708 148.797L227.684 149.645L225.646 150.396V149.079L226.394 148.527V148.086H225.673L225.341 147.753V146.701H224.556V145.871L225.217 145.379V144.568L224.83 143.529L223.79 143.271V142.742L224.298 142.464V141.82H223.495L223.25 140.622L221.929 141.391L221.689 140.107L220.857 139.555L221.689 139.198L221.407 138.492L220.115 138.247L220.328 136.666L218.503 135.326V134.816L217.187 134.798L217.474 136.407L217.198 136.912L215.876 135.331L215.607 135.609H214.823L213.793 133.653V132.977L213.488 132.448H210.315L209.42 131.772V131.034L208.954 129.805H207.988L207.767 129.573L208.257 129.031L207.485 128.183L207.643 127.741L209.31 128.566L209.665 127.398L208.728 126.145H207.809L207.956 124.911H207.074L206.798 124.409V1.13232H1.13281L1.70149 1.64767L4.97141 3.34435L5.46111 5.85238L17.1928 18.0701L18.1222 22.4836L17.8826 24.6031H18.4328L25.3123 19.2831H28.1399L29.1772 12.9483L30.4989 13.2337L31.839 11.6216L30.4884 10.0624L32.0944 8.99204L34.4639 8.73304L39.7531 5.58017L42.6545 7.91377L44.766 10.8367V12.7263L43.9129 13.5192L44.9871 14.571L44.5 15.3638L45.5295 16.6905L48.4124 17.2059V18.5431L49.734 19.8698H50.516L51.5533 21.6854V23.2791L53.1408 25.3986L57.6587 28.5779L62.3714 34.3868L61.5895 35.4201L68.0003 46.0416L74.7323 59.2239L73.4475 61.5945L74.4848 62.1283L76.8543 62.4058V63.7061L76.3304 63.9836L76.0645 66.0952L78.6815 67.147L78.9474 69.2666V71.3782H82.1252L87.0537 75.2023L90.4579 76.0744L92.393 77.9984L93.9464 78.2389L94.336 80.3584H95.0758L96.0684 81.4208L97.6612 80.6333L98.738 82.7607V85.1076L97.3901 87.2218V88.8075L97.8929 92.7902L98.4326 93.5646L98.4458 95.6788L99.2672 96.7491L97.1742 99.5875L94.9705 104.382L91.8665 106.263V106.797L92.1061 107.048H94.0043L95.0443 107.294V108.88H94.7625L94.2491 109.176L94.236 111.832L94.7494 112.091V112.632H93.72V113.653L94.7599 114.71L94.4545 115.006H93.9516V115.51L94.2018 115.761H94.9784L95.2733 116.076V116.605L95.7999 117.133L96.0579 117.611L95.813 117.931L96.3633 118.399H96.8582L98.1562 118.851L97.9429 120.223V122.398L97.3374 122.675H96.3633L96.0684 122.086V120.759L95.5629 120.04L94.7099 119.173H94.0122L93.4619 119.469L92.8933 119.985L92.3983 120.281L92.1219 121.055V121.57L93.225 122.678H93.6647V123.434L94.4729 123.711H95.1153L95.813 123.952H96.853V125.556L96.3501 125.815V124.808H95.8104V125.582H95.5629L95.0153 125.815L94.7467 126.135V127.141H95.2601V127.411L95.8236 127.953L96.3369 128.212H97.1084V128.74H97.9535L97.6349 127.942H97.3769V126.37L97.9166 126.137V127.379L98.4432 127.712V128.191L98.7249 128.46H99.2146L99.7648 128.214L99.9965 128.447V128.743L99.7648 129.013L99.52 129.282L98.9803 129.787V130.056H99.2383V130.352H99.7648L100.299 130.593H100.823V131.1H100.299V131.875L101.861 133.468L102.669 134.795L103.174 135.329H103.706V135.606L103.44 135.855V137.181L103.954 137.422H104.23V137.985L105.012 138.778L105.573 139.594L105.802 139.848H106.592V138.788H106.334V137.977L104.736 135.894L104.488 134.835H104.241V133.746L105.049 133.201L105.307 132.961L105.554 133.495L105.562 133.772V134.824L105.839 135.073V135.588H106.097V136.381L106.592 137.192L107.097 137.459V138.233H107.621L107.41 138.537V140.316L108.798 140.99L108.448 142.427L108.743 143.479L110.457 145.2L111.023 145.398L111.354 144.883H111.705L112.144 146.154L112.242 147.034L111.623 146.714H111.354V147.771L112.144 149.394L112.531 150.033L112.679 151.225L112.91 151.717L113.424 151.458V149.367L113.956 148.834L114.766 149.064H115.235V147.745L116.349 148.569L116.091 149.603H115.577V150.131L115.014 150.697L115.835 151.725L116.349 152L115.564 152.541L114.793 153.575V154.09L115.564 154.865H116.03L116.349 155.406H116.862L116.996 156.315L117.657 156.487L117.889 156.204H118.439V155.43L119.284 154.902L119.511 155.129H121.085L121.662 155.171L121.883 156.178L121.614 157.003V157.814L121.993 157.875L122.141 158.305L121.664 158.379L121.433 158.797L121.899 162.534L122.217 163.123L123.455 162.84V163.345L122.928 164.18V164.759L123.441 164.439L124.263 165.436H124.789L125.548 164.957V165.732L125.008 165.991L124.505 166.815L123.715 167.066L122.889 167.613L123.157 168.634L124.811 168.657L125.545 168.361L126.904 167.341L125.6 168.327L126.095 168.644H126.622V169.159L126.082 169.712L124.784 169.958L123.718 169.712L123.186 170.505V171.001L124.179 171.998L125.074 172.262L124.505 171.556H126.072L126.622 172.061L125.827 172.074V172.331L126.377 172.64L126.082 172.886L125.556 173.93L126.082 174.471H126.548L126.927 175.296H127.662L128.42 175.529L129.215 176.316L130.587 177.091H131.003L131.59 176.575L132.13 176.306V175.727L132.706 174.767L133.22 174.754L133.686 174.976L133.491 175.764L134.225 176.033H135.265L136.392 175.259L136.653 175.558L136.11 176.073V176.847L136.653 177.091H137.682L138.978 176.575L139.28 176.832L140.244 176.913L140.023 177.918H141.089L141.639 177.355H141.879V177.918L140.547 178.933H140.07L139.786 179.485L140.062 179.707H140.568L140.815 179.495L141.881 180.312L141.342 181.086H140.607L140.068 181.591V182.157L140.349 182.672L140.876 182.918L142.627 183.016L143.73 182.646L144.514 182.817L144.796 183.716H145.799L146.607 183.446L148.187 183.46L149.559 183.975V185.008L149.79 185.598L150.833 186.066V186.618L151.618 187.416L152.684 186.901C152.881 186.961 153.11 187.146 153.11 187.146L153.476 187.902L154.598 188.973L154.977 190.355L155.156 191.185L157.891 193.5V194.274L158.223 194.557L158.75 194.742L160.071 195.048L160.574 195.331L161.909 196.658L163.47 198.225L163.965 198.925L164.866 199.774L167.125 200.419L168.165 201.156L168.997 200.86V199.065L171.616 197.712V196.951L171.911 196.423H172.93L172.166 197.197V198.222L171.677 198.756L171.872 199.827L171.1 201.449V202.2L171.677 202.459L171.664 203.27L172.398 204.314L172.661 206.428L173.243 206.994V207.922H270.864V206.954L269.835 205.387L269.843 205.382Z" fill="#C1B59B" stroke="#736C5D" stroke-linecap="round" stroke-linejoin="round"/>
<path d="M87.6549 154.629L87.4022 153.837L87.9209 153.308L86.5887 152.782L86.3412 152.523L87.131 152.251V151.722L86.3333 151.204H86.07L85.5645 151.712L85.7988 152.238H85.2933L85.0011 151.725H84.5035L84.2376 151.455V150.398L84.8221 150.644L85.0327 150.39L84.7431 150.137V149.883H85.009L85.2723 149.346L85.5434 148.966L85.0195 148.826L84.2376 149.344L84.2429 149.883L83.7189 150.393V149.888L83.4241 149.352L83.453 148.551L82.9133 147.803L81.9971 147.232L81.6022 147.499L80.528 145.95V145.38L80.2858 144.833L80.8123 144.846L81.3758 145.388V146.172L82.1472 146.154L82.9186 145.633L83.1871 145.11L83.1766 144.058L82.9133 143.802H82.6553L82.3867 144.053L81.6074 144.33L81.0809 144.28L79.4907 144.071L79.7724 143.001L80.8176 142.198L80.8071 141.281L81.3336 140.353V139.811L80.8071 139.018L80.7992 137.441L79.7592 135.596L78.9562 134.552L78.1585 133.471V129.776L78.4613 128.476L78.1664 127.435L78.6903 126.346L78.8009 124.451L80.5148 121.721L81.0098 120.347L81.2941 117.701L81.0704 116.98L79.8645 119.16H78.9694L78.1743 120.009H76.3129L75.8232 120.55H74.9886L74.7569 120.244V119.493L74.4989 118.962L73.2378 118.706L71.1079 118.941L70.2628 117.884H69.7599L69.1596 118.423H68.1565L66.3189 117.133H66.0635L65.8186 117.931L65.5238 118.399V118.695L66.0556 119.226V120.27L65.2552 120.833L65.0156 122.123V123.183L65.4922 124.227L65.2736 124.52V124.768L66.1451 125.305L66.8428 126.087L67.3667 127.673L66.8533 128.191V128.466L67.422 128.992V129.536L69.5072 132.974L69.8047 134.261L70.7841 134.301L71.6108 136.074L71.3343 137.419L71.8767 138.239L73.7038 139.298L73.7328 139.843L74.6779 141.651L74.7701 142.203L77.3766 145.134H77.6714L79.5091 147.256L80.0225 147.777L80.757 147.999L81.5653 149.069L81.797 150.419H82.3499L82.5947 151.429L83.7321 153.052L84.0033 153.247L84.1981 152.793H84.4666V153.321L84.9827 154.365L85.7646 154.119L86.0726 154.365H86.8809V155.681L87.0889 156.456V156.923L87.3706 157.291H87.9077V157.008L87.6339 156.733V155.977L87.9077 155.694H88.4237L88.7291 155.385V154.931H88.2026L87.6549 154.629Z" fill="#C1B59B" stroke="#736C5D" stroke-linecap="round" stroke-linejoin="round"/>
<path d="M128.28 1L128.807 1.90913L128.317 3.28603L126.898 5.15449L128.367 6.3094L130.228 6.40983L130.621 9.03942L127.706 11.1537L126.432 12.8741V13.9313L127.216 13.6855L127.045 15.4562L125.966 15.8499V18.0118L124.913 18.3315L124.62 19.4627L123.715 20.126L122.856 19.7824L122.169 18.9949L121.116 19.5869L120.482 18.9711H119.55L117.957 20.2502L118.423 20.7656L117.957 21.9945L118.178 22.8296L115.461 23.1256V24.3069H114.798L113.573 26.9127L111.812 27.4519L110.685 27.9434V28.7548L108.063 31.8521L108.308 33.5488H107.647L106.986 34.0166V34.9257L106.373 35.3697H105.004V34.8279L104.619 34.4447H104.029V35.5706L103 37.0479V37.9121L103.821 38.1658L104.598 37.9121L105.638 36.6409L107.492 37.1536V37.9465L109.35 38.4856L109.887 39.0247H110.725V38.2134L110.943 37.994L111.738 38.2319L112.804 37.9412V37.1748H113.576V38.4882L114.371 39.0247L114.637 40.3329H115.932L116.185 39.5136L117.249 39.2732L116.977 36.3317L117.254 35.5626L117.488 34.5214H118.828V34.9944H119.371L119.895 34.5293V33.9902H120.666L121.464 34.524L122.525 34.783L122.788 36.115H123.573V35.5759H124.102L124.634 36.6224V37.2673H123.509V37.6769L123.973 38.0601L123.583 39.2811L124.086 40.066H125.418L126.466 40.8641H126.985V41.39L126.208 41.9186V42.9599H125.681L125.144 43.499V44.017H125.663L126.2 45.0715H127.532V44.5429L128.059 44.2971H128.57V45.6106L128.293 46.414L129.175 47.2069H130.694L131.2 46.9347L131.476 45.6185H132.016V44.5614L131.466 44.0831L131.721 43.2321L132.919 42.9863L133.701 43.5439L134.886 43.1317L135.162 44.5561L138.321 44.8283L138.988 46.1735L139.63 45.6238V44.5535L141.454 44.9499V44.017L142.289 43.24L144.095 43.7686L144.906 46.1339H145.683L146.212 44.5641L147.007 45.082L148.56 43.4911H150.422V42.7114H151.993L152.267 43.2427H153.831L153.565 44.8204L154.937 45.97L155.948 45.267L156.467 46.2132L157.006 48.2534L156.912 49.8047L158.833 50.1113V51.4327L159.634 52.7568H160.468V53.5602L161.745 53.2774L162.269 54.3345L162.804 56.4673V57.2363L161.756 57.5059V58.2934L162.533 59.0784V59.8659L164.365 61.4622L163.852 63.3121L164.639 64.6388L165.697 64.8873L166.224 67.0174L165.695 67.5459V68.0903L166.224 68.4815V69.935H167.006L167.39 70.8521L166.719 71.7956L167.019 73.1249L168.593 73.6323V74.9643H167.79V76.2751L168.593 76.5288L168.338 77.327H167.329L166.753 76.9411L166.218 78.9126H165.176L164.647 80.2314V81.5555L165.168 81.8092L165.702 83.6882H167L167.264 84.9832L168.535 85.4827L169.428 84.999L170.452 85.7919L170.96 87.0921L170.544 87.7872V88.6937L171.634 88.9553L172.282 88.1598H173.066V89.2487L172.785 89.7349L173.84 91.6008H174.38L174.654 90.8158H175.159V93.4481H174.37V94.5079L175.689 94.0057L177.295 95.8187L178.69 94.7536L180.428 97.6766L182.526 98.1972L183.321 100.055L184.398 100.327L186.749 102.973V104.825L187.449 105.328L188.347 104.276L190.974 106.937L190.419 108.79L191.604 111.689L194.152 112.445V113.533L197.275 113.14V111.942L198.088 111.67V113.412H199.41L199.792 114.334L198.897 115.14L200.463 115.391V117.244L202.061 116.707V115.888L204.544 115.772L205.057 114.992L206.908 116.713V1H128.28Z" fill="#003366"/>
<rect width="57" height="24" transform="translate(92 61)" fill="white"/>
<path d="M101.26 68.004H104.452C105.74 68.004 106.678 68.284 107.266 68.844C107.863 69.3947 108.162 70.1553 108.162 71.126C108.162 71.5647 108.097 71.9847 107.966 72.386C107.835 72.7873 107.616 73.142 107.308 73.45C107.009 73.7487 106.613 73.9913 106.118 74.178C105.623 74.3553 105.012 74.444 104.284 74.444H103.374V78H101.26V68.004ZM103.374 69.74V72.708H104.074C104.671 72.708 105.143 72.5913 105.488 72.358C105.843 72.1153 106.02 71.728 106.02 71.196C106.02 70.2253 105.46 69.74 104.34 69.74H103.374ZM113.033 70.216C114.088 70.216 114.923 70.5193 115.539 71.126C116.155 71.7233 116.463 72.5773 116.463 73.688V74.696H111.535C111.554 75.284 111.726 75.746 112.053 76.082C112.389 76.418 112.851 76.586 113.439 76.586C113.924 76.586 114.368 76.5393 114.769 76.446C115.18 76.3433 115.6 76.1893 116.029 75.984V77.594C115.646 77.7807 115.25 77.916 114.839 78C114.428 78.0933 113.929 78.14 113.341 78.14C112.576 78.14 111.899 78 111.311 77.72C110.723 77.4307 110.261 77.0013 109.925 76.432C109.589 75.8533 109.421 75.1207 109.421 74.234C109.421 73.3473 109.57 72.6053 109.869 72.008C110.177 71.4107 110.602 70.9627 111.143 70.664C111.684 70.3653 112.314 70.216 113.033 70.216ZM113.047 71.7C112.636 71.7 112.3 71.8307 112.039 72.092C111.778 72.3533 111.624 72.7593 111.577 73.31H114.503C114.494 72.8527 114.368 72.47 114.125 72.162C113.892 71.854 113.532 71.7 113.047 71.7ZM121.067 73.282L122.397 73.24V72.904C122.397 72.5027 122.289 72.2087 122.075 72.022C121.869 71.8353 121.58 71.742 121.207 71.742C120.833 71.742 120.469 71.798 120.115 71.91C119.76 72.0127 119.405 72.1433 119.051 72.302L118.365 70.888C118.766 70.6827 119.219 70.5193 119.723 70.398C120.227 70.2673 120.749 70.202 121.291 70.202C122.327 70.202 123.115 70.4213 123.657 70.86C124.198 71.2987 124.469 71.98 124.469 72.904V78H123.013L122.607 76.964H122.551C122.383 77.1693 122.215 77.3467 122.047 77.496C121.888 77.6453 121.711 77.7667 121.515 77.86C121.319 77.9533 121.099 78.0233 120.857 78.07C120.614 78.1167 120.334 78.14 120.017 78.14C119.681 78.14 119.368 78.0933 119.079 78C118.789 77.8973 118.537 77.748 118.323 77.552C118.117 77.356 117.954 77.1087 117.833 76.81C117.711 76.502 117.651 76.138 117.651 75.718C117.651 74.906 117.935 74.3087 118.505 73.926C119.074 73.5433 119.928 73.3287 121.067 73.282ZM119.793 75.732C119.793 76.0493 119.886 76.278 120.073 76.418C120.259 76.5487 120.502 76.614 120.801 76.614C121.249 76.614 121.627 76.4833 121.935 76.222C122.243 75.9513 122.397 75.5733 122.397 75.088V74.458L121.585 74.486C120.913 74.5047 120.446 74.626 120.185 74.85C119.923 75.074 119.793 75.368 119.793 75.732ZM129.712 78.14C128.573 78.14 127.691 77.8273 127.066 77.202C126.45 76.5767 126.142 75.5827 126.142 74.22C126.142 73.2867 126.3 72.526 126.618 71.938C126.935 71.35 127.374 70.916 127.934 70.636C128.503 70.356 129.156 70.216 129.894 70.216C130.416 70.216 130.869 70.2673 131.252 70.37C131.644 70.4727 131.984 70.594 132.274 70.734L131.658 72.344C131.331 72.2133 131.023 72.106 130.734 72.022C130.454 71.938 130.174 71.896 129.894 71.896C128.811 71.896 128.27 72.666 128.27 74.206C128.27 74.9713 128.41 75.536 128.69 75.9C128.979 76.264 129.38 76.446 129.894 76.446C130.332 76.446 130.72 76.39 131.056 76.278C131.392 76.1567 131.718 75.9933 132.036 75.788V77.566C131.718 77.7713 131.382 77.916 131.028 78C130.682 78.0933 130.244 78.14 129.712 78.14ZM136.945 70.216C138 70.216 138.835 70.5193 139.451 71.126C140.067 71.7233 140.375 72.5773 140.375 73.688V74.696H135.447C135.466 75.284 135.638 75.746 135.965 76.082C136.301 76.418 136.763 76.586 137.351 76.586C137.836 76.586 138.28 76.5393 138.681 76.446C139.092 76.3433 139.512 76.1893 139.941 75.984V77.594C139.558 77.7807 139.162 77.916 138.751 78C138.34 78.0933 137.841 78.14 137.253 78.14C136.488 78.14 135.811 78 135.223 77.72C134.635 77.4307 134.173 77.0013 133.837 76.432C133.501 75.8533 133.333 75.1207 133.333 74.234C133.333 73.3473 133.482 72.6053 133.781 72.008C134.089 71.4107 134.514 70.9627 135.055 70.664C135.596 70.3653 136.226 70.216 136.945 70.216ZM136.959 71.7C136.548 71.7 136.212 71.8307 135.951 72.092C135.69 72.3533 135.536 72.7593 135.489 73.31H138.415C138.406 72.8527 138.28 72.47 138.037 72.162C137.804 71.854 137.444 71.7 136.959 71.7Z" fill="#003366"/>
</g>
<defs>
<clipPath id="clip0_13898_192736">
<rect width="272" height="220" fill="white"/>
</clipPath>
</defs>
</svg>
