<svg width="272" height="220" viewBox="0 0 272 220" fill="none" xmlns="http://www.w3.org/2000/svg">
<g clip-path="url(#clip0_13898_192666)">
<path d="M169.513 212.71V212.01L169.844 211.677H170.561L170.321 211.273L169.255 210.591V209.761L168.152 209.061V209.539L168.446 209.89V210.387H168.207L167.749 210.184L165.827 207.75L166.303 206.79L165.348 205.561L163.181 203.558L161.088 202.464L158.75 201.922L158.223 201.663L157.939 201.682L157.965 201.7L157.133 201.148L156.08 200.337L155.272 199.549L153.766 197.472L152.945 196.893V196.378L153.458 196.658H153.716L154.011 196.378V195.849L153.497 195.297H152.91V194.818L151.881 193.97V193.492L150.57 192.657V191.882L150.062 191.092L150.32 190.577L150.062 190.024L148.74 188.743V188.18L148.464 187.408L148.169 187.12V186.335L147.884 185.783L146.855 185.027L146.165 185.212L144.567 185.312L144.017 184.768H142.382L141.655 183.983L140.544 183.457H139.533L139.251 183.177H136.642L136.384 182.685H134.989L133.715 182.144H132.675L131.535 181.308H129.918V180.867L128.57 180.278L126.588 178.716L124.213 177.389L122.204 176.768L121.496 176.057H119.829L118.8 176.567L117.623 177.355H116.375L115.641 177.624L116.075 178.362L116.599 178.528L116.636 179.458L117.131 179.966L117.426 181.248L118.189 182.077L118.971 182.889L119.824 183.203L119.75 182.614L119.795 182.107L120.301 182.373V182.87L121.238 182.788L121.714 183.23L121.117 184.226L120.29 185.008L120.548 185.82L121.072 185.812L121.349 185.259H121.872L122.13 185.582V186.293L122.71 186.615V187.411L121.08 188.727V189.517L122.183 190.019L123.665 188.999L124.242 188.986L125.6 189.81H126.066L126.888 190.561L127.941 190.302L128.186 189.319L127.891 188.484L128.16 188.47L128.441 188.74L128.773 189.232L129.41 189.353L129.766 188.973L130.268 188.959L130.282 189.514L129.034 190.323L129.242 190.828L129.768 190.804V191.137L128.739 191.629L128.984 192.686L129.779 193.484H131.09V192.918L131.566 193.214H131.872V192.686L132.14 192.427L132.372 193.225L132.941 192.836L132.885 191.602L133.425 191.898L133.638 192.802L133.07 193.484L131.869 194.012L132.138 194.517H132.896L132.956 194.784L132.148 195.336L131.89 196.129L132.459 196.655H132.946L133.222 196.914V197.44L134.241 197.966L134.747 197.958L135.297 196.917V196.391L135.555 196.124H136.116L136.898 195.561V195.091L136.632 194.546H137.377L137.661 195.302L136.898 196.121L136.879 196.674L137.661 196.904L137.946 196.645L138.743 196.83L138.504 197.189L138.154 197.448H137.685L137.143 197.171L136.087 198.23L136.634 199.821H137.672V200.625L138.749 201.658H138.993L139.238 201.153L138.993 200.611L139.251 200.096L139.773 200.884L140.341 201.412L139.773 201.671V201.949L140.031 202.446V202.974L141.097 203.516V202.263L140.821 201.967L141.042 201.322L141.61 202.189H142.179V201.674L142.637 201.766V202.689L141.903 203.204V203.756H142.379L142.985 202.977L143.206 203.26H143.664L143.94 202.726L144.254 203.556H144.749V205.141L145.317 205.675V206.653L147.229 209.087L147.632 209.105L148.79 207.98V207.242H149.793V208.55H150.572L150.867 208.017H152.007L152.394 207.758L153.166 208.017L153.018 208.532L151.641 210.118L151.31 210.947L151.604 211.722L152.945 212.718L154.506 213.271L155.791 214.653L156.599 214.875L158.215 214.893L158.492 215.686L159.813 215.964L164.552 218.046L166.187 218.305L167.435 218.876H168.225L168.52 218.561V218.102L169.31 216.994H169.786V217.364L170.189 217.824L171.274 217.75L171.403 216.569L170.3 212.716H169.51L169.513 212.71Z" fill="#C1B59B" stroke="#736C5D" stroke-linecap="round" stroke-linejoin="round"/>
<path d="M269.843 205.382L269.09 204.848H267.758L267.281 203.521L264.59 200.876V200.35L265.399 199.557V198.497L264.059 198.764L263.498 197.445L264.085 196.893V196.137H264.819V193.74L264.535 192.155V190.339L263.782 189.509V187.968L263.524 186.605L262.974 185.838L263.25 185.286L262.231 184.467V183.719L260.625 181.322L259.836 180.777L259.322 181.596L258.377 182.067L257.469 180.822V178.94L255.613 178.415L254.299 175.769V174.984L253.232 173.665H252.451L252.716 172.846L249.768 172.08L250.118 171.001L249.841 170.217L247.996 169.397V168.9H246.93L246.672 168.1V166.514L245.616 165.729V164.936L244.818 163.377L243.523 162.851V161.773L242.98 161.239V160.309H241.696L241.153 162.013H239.821L239.574 160.187L239.042 159.653V158.575L238.27 158.298L237.417 157.026L236.109 155.705L235.864 153.517L235.079 154.389L232.936 154.635L232.239 153.823V153.281H230.88L230.34 152.803L230.119 151.992L231.159 151.167L231.612 150.332L231.122 149.582H230.106L228.258 148.009L227.708 148.797L227.684 149.645L225.646 150.396V149.079L226.394 148.527V148.086H225.673L225.341 147.753V146.701H224.556V145.871L225.217 145.379V144.568L224.83 143.529L223.79 143.271V142.742L224.298 142.464V141.82H223.495L223.25 140.622L221.929 141.391L221.689 140.107L220.857 139.555L221.689 139.198L221.407 138.492L220.115 138.247L220.328 136.666L218.503 135.326V134.816L217.187 134.798L217.474 136.407L217.198 136.912L215.876 135.331L215.607 135.609H214.823L213.793 133.653V132.977L213.488 132.448H210.315L209.42 131.772V131.034L208.954 129.805H207.988L207.767 129.573L208.257 129.031L207.485 128.183L207.643 127.741L209.31 128.566L209.665 127.398L208.728 126.145H207.809L207.956 124.911H207.074L206.798 124.409V1.13232H1.13281L1.70149 1.64767L4.97141 3.34435L5.46111 5.85238L17.1928 18.0701L18.1222 22.4836L17.8826 24.6031H18.4328L25.3123 19.2831H28.1399L29.1772 12.9483L30.4989 13.2337L31.839 11.6216L30.4884 10.0624L32.0944 8.99204L34.4639 8.73304L39.7531 5.58017L42.6545 7.91377L44.766 10.8367V12.7263L43.9129 13.5192L44.9871 14.571L44.5 15.3638L45.5295 16.6905L48.4124 17.2059V18.5431L49.734 19.8698H50.516L51.5533 21.6854V23.2791L53.1408 25.3986L57.6587 28.5779L62.3714 34.3868L61.5895 35.4201L68.0003 46.0416L74.7323 59.2239L73.4475 61.5945L74.4848 62.1283L76.8543 62.4058V63.7061L76.3304 63.9836L76.0645 66.0952L78.6815 67.147L78.9474 69.2666V71.3782H82.1252L87.0537 75.2023L90.4579 76.0744L92.393 77.9984L93.9464 78.2389L94.336 80.3584H95.0758L96.0684 81.4208L97.6612 80.6333L98.738 82.7607V85.1076L97.3901 87.2218V88.8075L97.8929 92.7902L98.4326 93.5646L98.4458 95.6788L99.2672 96.7491L97.1742 99.5875L94.9705 104.382L91.8665 106.263V106.797L92.1061 107.048H94.0043L95.0443 107.294V108.88H94.7625L94.2491 109.176L94.236 111.832L94.7494 112.091V112.632H93.72V113.653L94.7599 114.71L94.4545 115.006H93.9516V115.51L94.2018 115.761H94.9784L95.2733 116.076V116.605L95.7999 117.133L96.0579 117.611L95.813 117.931L96.3633 118.399H96.8582L98.1562 118.851L97.9429 120.223V122.398L97.3374 122.675H96.3633L96.0684 122.086V120.759L95.5629 120.04L94.7099 119.173H94.0122L93.4619 119.469L92.8933 119.985L92.3983 120.281L92.1219 121.055V121.57L93.225 122.678H93.6647V123.434L94.4729 123.711H95.1153L95.813 123.952H96.853V125.556L96.3501 125.815V124.808H95.8104V125.582H95.5629L95.0153 125.815L94.7467 126.135V127.141H95.2601V127.411L95.8236 127.953L96.3369 128.212H97.1084V128.74H97.9535L97.6349 127.942H97.3769V126.37L97.9166 126.137V127.379L98.4432 127.712V128.191L98.7249 128.46H99.2146L99.7648 128.214L99.9965 128.447V128.743L99.7648 129.013L99.52 129.282L98.9803 129.787V130.056H99.2383V130.352H99.7648L100.299 130.593H100.823V131.1H100.299V131.875L101.861 133.468L102.669 134.795L103.174 135.329H103.706V135.606L103.44 135.855V137.181L103.954 137.422H104.23V137.985L105.012 138.778L105.573 139.594L105.802 139.848H106.592V138.788H106.334V137.977L104.736 135.894L104.488 134.835H104.241V133.746L105.049 133.201L105.307 132.961L105.554 133.495L105.562 133.772V134.824L105.839 135.073V135.588H106.097V136.381L106.592 137.192L107.097 137.459V138.233H107.621L107.41 138.537V140.316L108.798 140.99L108.448 142.427L108.743 143.479L110.457 145.2L111.023 145.398L111.354 144.883H111.705L112.144 146.154L112.242 147.034L111.623 146.714H111.354V147.771L112.144 149.394L112.531 150.033L112.679 151.225L112.91 151.717L113.424 151.458V149.367L113.956 148.834L114.766 149.064H115.235V147.745L116.349 148.569L116.091 149.603H115.577V150.131L115.014 150.697L115.835 151.725L116.349 152L115.564 152.541L114.793 153.575V154.09L115.564 154.865H116.03L116.349 155.406H116.862L116.996 156.315L117.657 156.487L117.889 156.204H118.439V155.43L119.284 154.902L119.511 155.129H121.085L121.662 155.171L121.883 156.178L121.614 157.003V157.814L121.993 157.875L122.141 158.305L121.664 158.379L121.433 158.797L121.899 162.534L122.217 163.123L123.455 162.84V163.345L122.928 164.18V164.759L123.441 164.439L124.263 165.436H124.789L125.548 164.957V165.732L125.008 165.991L124.505 166.815L123.715 167.066L122.889 167.613L123.157 168.634L124.811 168.657L125.545 168.361L126.904 167.341L125.6 168.327L126.095 168.644H126.622V169.159L126.082 169.712L124.784 169.958L123.718 169.712L123.186 170.505V171.001L124.179 171.998L125.074 172.262L124.505 171.556H126.072L126.622 172.061L125.827 172.074V172.331L126.377 172.64L126.082 172.886L125.556 173.93L126.082 174.471H126.548L126.927 175.296H127.662L128.42 175.529L129.215 176.316L130.587 177.091H131.003L131.59 176.575L132.13 176.306V175.727L132.706 174.767L133.22 174.754L133.686 174.976L133.491 175.764L134.225 176.033H135.265L136.392 175.259L136.653 175.558L136.11 176.073V176.847L136.653 177.091H137.682L138.978 176.575L139.28 176.832L140.244 176.913L140.023 177.918H141.089L141.639 177.355H141.879V177.918L140.547 178.933H140.07L139.786 179.485L140.062 179.707H140.568L140.815 179.495L141.881 180.312L141.342 181.086H140.607L140.068 181.591V182.157L140.349 182.672L140.876 182.918L142.627 183.016L143.73 182.646L144.514 182.817L144.796 183.716H145.799L146.607 183.446L148.187 183.46L149.559 183.975V185.008L149.79 185.598L150.833 186.066V186.618L151.618 187.416L152.684 186.901C152.881 186.961 153.11 187.146 153.11 187.146L153.476 187.902L154.598 188.973L154.977 190.355L155.156 191.185L157.891 193.5V194.274L158.223 194.557L158.75 194.742L160.071 195.048L160.574 195.331L161.909 196.658L163.47 198.225L163.965 198.925L164.866 199.774L167.125 200.419L168.165 201.156L168.997 200.86V199.065L171.616 197.712V196.951L171.911 196.423H172.93L172.166 197.197V198.222L171.677 198.756L171.872 199.827L171.1 201.449V202.2L171.677 202.459L171.664 203.27L172.398 204.314L172.661 206.428L173.243 206.994V207.922H270.864V206.954L269.835 205.387L269.843 205.382Z" fill="#C1B59B" stroke="#736C5D" stroke-linecap="round" stroke-linejoin="round"/>
<path d="M87.6549 154.629L87.4022 153.837L87.9209 153.308L86.5887 152.782L86.3412 152.523L87.131 152.251V151.722L86.3333 151.204H86.07L85.5645 151.712L85.7988 152.238H85.2933L85.0011 151.725H84.5035L84.2376 151.455V150.398L84.8221 150.644L85.0327 150.39L84.7431 150.137V149.883H85.009L85.2723 149.346L85.5434 148.966L85.0195 148.826L84.2376 149.344L84.2429 149.883L83.7189 150.393V149.888L83.4241 149.352L83.453 148.551L82.9133 147.803L81.9971 147.232L81.6022 147.499L80.528 145.95V145.38L80.2858 144.833L80.8123 144.846L81.3758 145.388V146.172L82.1472 146.154L82.9186 145.633L83.1871 145.11L83.1766 144.058L82.9133 143.802H82.6553L82.3867 144.053L81.6074 144.33L81.0809 144.28L79.4907 144.071L79.7724 143.001L80.8176 142.198L80.8071 141.281L81.3336 140.353V139.811L80.8071 139.018L80.7992 137.441L79.7592 135.596L78.9562 134.552L78.1585 133.471V129.776L78.4613 128.476L78.1664 127.435L78.6903 126.346L78.8009 124.451L80.5148 121.721L81.0098 120.347L81.2941 117.701L81.0704 116.98L79.8645 119.16H78.9694L78.1743 120.009H76.3129L75.8232 120.55H74.9886L74.7569 120.244V119.493L74.4989 118.962L73.2378 118.706L71.1079 118.941L70.2628 117.884H69.7599L69.1596 118.423H68.1565L66.3189 117.133H66.0635L65.8186 117.931L65.5238 118.399V118.695L66.0556 119.226V120.27L65.2552 120.833L65.0156 122.123V123.183L65.4922 124.227L65.2736 124.52V124.768L66.1451 125.305L66.8428 126.087L67.3667 127.673L66.8533 128.191V128.466L67.422 128.992V129.536L69.5072 132.974L69.8047 134.261L70.7841 134.301L71.6108 136.074L71.3343 137.419L71.8767 138.239L73.7038 139.298L73.7328 139.843L74.6779 141.651L74.7701 142.203L77.3766 145.134H77.6714L79.5091 147.256L80.0225 147.777L80.757 147.999L81.5653 149.069L81.797 150.419H82.3499L82.5947 151.429L83.7321 153.052L84.0033 153.247L84.1981 152.793H84.4666V153.321L84.9827 154.365L85.7646 154.119L86.0726 154.365H86.8809V155.681L87.0889 156.456V156.923L87.3706 157.291H87.9077V157.008L87.6339 156.733V155.977L87.9077 155.694H88.4237L88.7291 155.385V154.931H88.2026L87.6549 154.629Z" fill="#C1B59B" stroke="#736C5D" stroke-linecap="round" stroke-linejoin="round"/>
<path d="M158.731 134.803V133.746H158.213L156.896 132.43V131.909H158.2L158.486 131.38L157.423 130.588L157.678 129.211V128.183L156.865 128.386L155.867 128.196L155.151 128.484L153.253 128.423L152.939 127.371L153.737 125.841L153.21 125.498L153.719 122.929L155.867 121.65L155.053 120.254H153.21V119.224L155.059 118.166H156.38L156.657 116.79L157.747 116.726L157.636 115.743L155.04 114.958L154.514 113.999L155.064 113.642L155.04 112.585L155.898 111.982L155.127 111.012L153.729 110.531L153.202 111.626L152.176 112.08L151.612 110.753L147.129 111.023L146.615 109.659H145.82L145.354 110.212L144.767 109.45V108.639L143.946 108.087L143.443 107.04H144.559V105.996L142.832 105.235V104.226L141.668 103.367L140.273 101.903V99.4686L138.496 97.2936L137.922 95.9537L138.717 95.4489L139.257 95.9669L139.525 95.1555L138.693 94.5635H138.204L137.677 92.8193L137.687 90.964H136.953L136.648 89.8699L133.72 88.049V86.9919L132.656 85.9242L131.1 82.47L130.805 80.6386L131.614 79.5682L132.667 80.9081V81.9785L133.438 82.7264H134.799L135.326 81.9283V80.8949L135.876 79.3092L135.497 78.5243L135.252 77.1712L136.611 76.9386L137.701 77.713L138.814 77.4778L140.347 76.3599V75.5987L141.229 74.7134L139.733 73.7038V73.1885L140.786 72.8079L140.541 71.357L139.746 70.2629L139.035 69.7846L137.114 70.3237L136.574 68.923L135.558 67.9029H133.464V68.96L132.962 69.7713H131.798L130.121 71.061L129.276 70.3131V69.256L128.836 68.812H127.401V69.3168L126.693 69.8083L126.361 69.1926L125.284 69.7343V68.8754L126.361 67.4113L127.683 67.0678V66.3542H128.994V64.5095L130.574 63.2066V62.3847L131.1 61.8429L130.819 60.54L129.839 59.8265L129.007 60.5268V61.8429H125.835L124.782 60.5268L125.848 60.0115L126.338 59.1261L125.284 58.402L126.116 56.0287L127.954 54.9584L127.659 51.787H128.725L129.289 51.0629L129.765 51.8372V52.8944L130.708 53.6449L131.137 52.8944H132.153L133.464 52.083V51.2955H132.411L132.938 49.464L131.59 49.0967L131.614 47.6325H132.693V46.3931L131.909 45.7509H131.369L131.092 47.067L130.587 47.3392H129.068L128.186 46.5463L128.462 45.7429V44.4295H127.951L127.425 44.6752V45.2038H126.093L125.556 44.1493H125.037V43.6313L125.574 43.0922H126.101V42.0509L126.877 41.5224V40.9964H126.359L125.311 40.1983H123.979L123.476 39.4134L123.865 38.1924L123.402 37.8092V37.3996H124.526V36.7547L123.994 35.7082H123.465V36.2473H122.681L122.417 34.9153L121.356 34.6563L120.559 34.1225H119.787V34.6616L119.263 35.1268H118.721V34.6537H117.381L117.146 35.695L116.87 36.464L117.141 39.4055L116.078 39.646L115.825 40.4652H114.53L114.264 39.1571L113.468 38.6206V37.3071H112.697V38.0735L111.631 38.3642L110.836 38.1264L110.617 38.3457V39.1571H109.78L109.243 38.6179L107.384 38.0788V37.2859L105.531 36.7732L104.491 38.0444L103.714 38.2981L102.893 38.0444V37.1802L103.922 35.7029V34.5771H104.512L104.896 34.9603V35.502H106.265L106.879 35.0581V34.1489L107.539 33.6812H108.2L107.955 31.9845L110.578 28.8871V28.0758L111.705 27.5842L113.466 27.0451L114.69 24.4393H115.354V23.2579L118.071 22.9619L117.849 22.1268L118.315 20.8979L117.849 20.3825L119.442 19.1034H120.374L121.009 19.7192L122.062 19.1272L122.749 19.9148L123.607 20.2583L124.513 19.595L124.805 18.4639L125.858 18.1441V15.9823L126.938 15.5885L127.109 13.8178L126.324 14.0636V13.0065L127.599 11.286L130.513 9.17175L130.121 6.54215L128.259 6.44173L126.79 5.28682L128.209 3.41835L128.699 2.04145L128.173 1.13232H1.13281L1.70149 1.64767L4.97141 3.34435L5.46111 5.85238L17.1928 18.0701L18.1222 22.4836L17.8852 24.6031H18.4355L25.3149 19.2858H28.1426L29.1799 12.951L30.5042 13.2364L31.8443 11.6243L30.4936 10.065L32.1023 8.99732L34.4718 8.73833L39.761 5.58546L42.6624 7.91641L44.7765 10.8394V12.729L43.9208 13.5218L44.995 14.5736L44.5106 15.3665L45.5374 16.6932L48.4229 17.2112V18.5484L49.7446 19.8751H50.5239L51.5638 21.6907V23.287L53.1514 25.4065L57.6692 28.5858L62.3819 34.3947L61.6 35.4281L68.0108 46.0469L74.7429 59.2318L73.4581 61.5998L74.4954 62.1363L76.8649 62.4111V63.7114L76.341 63.9889L76.075 66.1005L78.692 67.1497L78.9579 69.2719V71.3808H82.1357L87.0643 75.205L90.4685 76.0771L92.4036 78.0011L93.9569 78.2415L94.3466 80.3611H95.8025L96.0789 78.0143L95.2707 77.2029V75.6833L95.8157 74.8244H97.1189L97.1373 73.4898L97.6507 72.6917H98.1852L98.9434 73.2123L99.5121 72.1816L100.91 71.9094L101.876 72.1737L102.39 71.6451H103.193L105.299 73.4951V74.5654H106.847L107.142 74.0316H108.195L107.926 71.9094L108.727 71.3755V70.8655L107.392 70.3237L107.1 69.5124L108.19 69.0102L110.783 70.3026V71.1509L113.758 71.3808L116.578 71.912L118.147 74.0183L117.678 76.1194L120.048 83.292V84.5922L117.157 88.8339L113.979 91.2019L114.208 91.4424L116.578 91.2019L119.287 94.9097L120.048 96.7624V98.5621L120.582 99.9417L119.763 101.501L120.582 102.32L119.021 105.225L119.516 107.04L120.351 106.276H121.343L122.436 108.903L123.723 109.982V110.719L122.923 111.023V112.894L123.723 114.472L121.896 116.335L122.144 117.662L120.553 118.177V119.21L119.782 122.641L121.398 124.253V125.286L122.417 125.794L122.915 129.02L125.2 129.25L125.569 130.844L126.372 130.038L127.156 131.129V132.144L127.667 133.238H128.204V134.555H129.02L129.908 134.819L130.574 133.495L131.598 133.754V134.552L130.832 135.067L131.374 136.386L130.84 136.93L130.834 137.972H132.414V137.446L132.948 136.93L133.457 137.184V139.026L133.981 139.565L134.799 138.516H135.323V139.589H135.837L136.916 138.511L137.416 137.174H138.996L140.878 135.223H144.52V139.039L146.102 138.511L147.437 137.205V136.402L148.745 135.583V134.808H150.301L150.596 133.759L151.373 133.23L153.202 134.023L153.479 136.402H155.58L155.862 136.936H158.5L159.003 136.138L158.157 135.331L158.731 134.803Z" fill="#003366"/>
<rect width="100" height="24" transform="translate(136 16)" fill="white"/>
<path d="M151.154 30.228C151.154 31.1147 150.832 31.824 150.188 32.356C149.553 32.8787 148.648 33.14 147.472 33.14C146.417 33.14 145.475 32.9393 144.644 32.538V30.564C145.12 30.7693 145.61 30.9607 146.114 31.138C146.627 31.306 147.136 31.39 147.64 31.39C148.163 31.39 148.531 31.292 148.746 31.096C148.97 30.8907 149.082 30.634 149.082 30.326C149.082 30.074 148.993 29.8593 148.816 29.682C148.648 29.5047 148.419 29.3413 148.13 29.192C147.841 29.0333 147.509 28.8653 147.136 28.688C146.903 28.576 146.651 28.4453 146.38 28.296C146.109 28.1373 145.848 27.946 145.596 27.722C145.353 27.4887 145.153 27.2087 144.994 26.882C144.835 26.5553 144.756 26.1633 144.756 25.706C144.756 24.81 145.059 24.1147 145.666 23.62C146.273 23.116 147.099 22.864 148.144 22.864C148.667 22.864 149.161 22.9247 149.628 23.046C150.095 23.1673 150.589 23.34 151.112 23.564L150.426 25.216C149.969 25.0293 149.558 24.8847 149.194 24.782C148.83 24.6793 148.457 24.628 148.074 24.628C147.673 24.628 147.365 24.7213 147.15 24.908C146.935 25.0947 146.828 25.3373 146.828 25.636C146.828 25.9907 146.987 26.2707 147.304 26.476C147.621 26.6813 148.093 26.9333 148.718 27.232C149.231 27.4747 149.665 27.7267 150.02 27.988C150.384 28.2493 150.664 28.5573 150.86 28.912C151.056 29.2667 151.154 29.7053 151.154 30.228ZM152.803 22.36H154.889V27.12C154.889 27.4093 154.875 27.6987 154.847 27.988C154.828 28.268 154.805 28.5527 154.777 28.842H154.805C154.842 28.786 154.87 28.7487 154.889 28.73C155.02 28.5433 155.15 28.366 155.281 28.198C155.412 28.0207 155.556 27.848 155.715 27.68L157.857 25.356H160.209L157.171 28.674L160.391 33H157.983L155.785 29.906L154.889 30.62V33H152.803V22.36ZM164.635 25.216C165.689 25.216 166.525 25.5193 167.141 26.126C167.757 26.7233 168.065 27.5773 168.065 28.688V29.696H163.137C163.155 30.284 163.328 30.746 163.655 31.082C163.991 31.418 164.453 31.586 165.041 31.586C165.526 31.586 165.969 31.5393 166.371 31.446C166.781 31.3433 167.201 31.1893 167.631 30.984V32.594C167.248 32.7807 166.851 32.916 166.441 33C166.03 33.0933 165.531 33.14 164.943 33.14C164.177 33.14 163.501 33 162.913 32.72C162.325 32.4307 161.863 32.0013 161.527 31.432C161.191 30.8533 161.023 30.1207 161.023 29.234C161.023 28.3473 161.172 27.6053 161.471 27.008C161.779 26.4107 162.203 25.9627 162.745 25.664C163.286 25.3653 163.916 25.216 164.635 25.216ZM164.649 26.7C164.238 26.7 163.902 26.8307 163.641 27.092C163.379 27.3533 163.225 27.7593 163.179 28.31H166.105C166.095 27.8527 165.969 27.47 165.727 27.162C165.493 26.854 165.134 26.7 164.649 26.7ZM172.906 25.216C173.961 25.216 174.796 25.5193 175.412 26.126C176.028 26.7233 176.336 27.5773 176.336 28.688V29.696H171.408C171.427 30.284 171.599 30.746 171.926 31.082C172.262 31.418 172.724 31.586 173.312 31.586C173.797 31.586 174.241 31.5393 174.642 31.446C175.053 31.3433 175.473 31.1893 175.902 30.984V32.594C175.519 32.7807 175.123 32.916 174.712 33C174.301 33.0933 173.802 33.14 173.214 33.14C172.449 33.14 171.772 33 171.184 32.72C170.596 32.4307 170.134 32.0013 169.798 31.432C169.462 30.8533 169.294 30.1207 169.294 29.234C169.294 28.3473 169.443 27.6053 169.742 27.008C170.05 26.4107 170.475 25.9627 171.016 25.664C171.557 25.3653 172.187 25.216 172.906 25.216ZM172.92 26.7C172.509 26.7 172.173 26.8307 171.912 27.092C171.651 27.3533 171.497 27.7593 171.45 28.31H174.376C174.367 27.8527 174.241 27.47 173.998 27.162C173.765 26.854 173.405 26.7 172.92 26.7ZM178.028 25.356H179.624L179.904 26.336H180.016C180.258 25.944 180.59 25.6593 181.01 25.482C181.439 25.3047 181.892 25.216 182.368 25.216C183.189 25.216 183.847 25.44 184.342 25.888C184.836 26.3267 185.084 27.036 185.084 28.016V33H182.998V28.534C182.998 27.974 182.9 27.5587 182.704 27.288C182.508 27.0173 182.195 26.882 181.766 26.882C181.131 26.882 180.697 27.1013 180.464 27.54C180.23 27.9693 180.114 28.59 180.114 29.402V33H178.028V25.356ZM190.141 28.282L191.471 28.24V27.904C191.471 27.5027 191.363 27.2087 191.149 27.022C190.943 26.8353 190.654 26.742 190.281 26.742C189.907 26.742 189.543 26.798 189.189 26.91C188.834 27.0127 188.479 27.1433 188.125 27.302L187.439 25.888C187.84 25.6827 188.293 25.5193 188.797 25.398C189.301 25.2673 189.823 25.202 190.365 25.202C191.401 25.202 192.189 25.4213 192.731 25.86C193.272 26.2987 193.543 26.98 193.543 27.904V33H192.087L191.681 31.964H191.625C191.457 32.1693 191.289 32.3467 191.121 32.496C190.962 32.6453 190.785 32.7667 190.589 32.86C190.393 32.9533 190.173 33.0233 189.931 33.07C189.688 33.1167 189.408 33.14 189.091 33.14C188.755 33.14 188.442 33.0933 188.153 33C187.863 32.8973 187.611 32.748 187.397 32.552C187.191 32.356 187.028 32.1087 186.907 31.81C186.785 31.502 186.725 31.138 186.725 30.718C186.725 29.906 187.009 29.3087 187.579 28.926C188.148 28.5433 189.002 28.3287 190.141 28.282ZM188.867 30.732C188.867 31.0493 188.96 31.278 189.147 31.418C189.333 31.5487 189.576 31.614 189.875 31.614C190.323 31.614 190.701 31.4833 191.009 31.222C191.317 30.9513 191.471 30.5733 191.471 30.088V29.458L190.659 29.486C189.987 29.5047 189.52 29.626 189.259 29.85C188.997 30.074 188.867 30.368 188.867 30.732ZM199.483 23.004H205.237V24.74H201.597V26.938H204.985V28.674H201.597V31.25H205.237V33H199.483V23.004ZM210.061 28.282L211.391 28.24V27.904C211.391 27.5027 211.283 27.2087 211.069 27.022C210.863 26.8353 210.574 26.742 210.201 26.742C209.827 26.742 209.463 26.798 209.109 26.91C208.754 27.0127 208.399 27.1433 208.045 27.302L207.359 25.888C207.76 25.6827 208.213 25.5193 208.717 25.398C209.221 25.2673 209.743 25.202 210.285 25.202C211.321 25.202 212.109 25.4213 212.651 25.86C213.192 26.2987 213.463 26.98 213.463 27.904V33H212.007L211.601 31.964H211.545C211.377 32.1693 211.209 32.3467 211.041 32.496C210.882 32.6453 210.705 32.7667 210.509 32.86C210.313 32.9533 210.093 33.0233 209.851 33.07C209.608 33.1167 209.328 33.14 209.011 33.14C208.675 33.14 208.362 33.0933 208.073 33C207.783 32.8973 207.531 32.748 207.317 32.552C207.111 32.356 206.948 32.1087 206.827 31.81C206.705 31.502 206.645 31.138 206.645 30.718C206.645 29.906 206.929 29.3087 207.499 28.926C208.068 28.5433 208.922 28.3287 210.061 28.282ZM208.787 30.732C208.787 31.0493 208.88 31.278 209.067 31.418C209.253 31.5487 209.496 31.614 209.795 31.614C210.243 31.614 210.621 31.4833 210.929 31.222C211.237 30.9513 211.391 30.5733 211.391 30.088V29.458L210.579 29.486C209.907 29.5047 209.44 29.626 209.179 29.85C208.917 30.074 208.787 30.368 208.787 30.732ZM220.932 30.732C220.932 31.5067 220.657 32.104 220.106 32.524C219.565 32.9347 218.753 33.14 217.67 33.14C217.138 33.14 216.681 33.1027 216.298 33.028C215.915 32.9627 215.533 32.8507 215.15 32.692V30.97C215.561 31.1567 216.004 31.3107 216.48 31.432C216.956 31.5533 217.376 31.614 217.74 31.614C218.141 31.614 218.431 31.5533 218.608 31.432C218.785 31.3107 218.874 31.152 218.874 30.956C218.874 30.8253 218.837 30.7087 218.762 30.606C218.697 30.5033 218.547 30.3867 218.314 30.256C218.081 30.1253 217.717 29.9573 217.222 29.752C216.737 29.5467 216.34 29.346 216.032 29.15C215.733 28.9447 215.509 28.702 215.36 28.422C215.211 28.1327 215.136 27.7733 215.136 27.344C215.136 26.6347 215.411 26.1027 215.962 25.748C216.513 25.3933 217.245 25.216 218.16 25.216C218.636 25.216 219.089 25.2627 219.518 25.356C219.947 25.4493 220.391 25.6033 220.848 25.818L220.218 27.316C219.845 27.1573 219.49 27.0267 219.154 26.924C218.818 26.812 218.477 26.756 218.132 26.756C217.516 26.756 217.208 26.924 217.208 27.26C217.208 27.3813 217.245 27.4933 217.32 27.596C217.404 27.6893 217.558 27.792 217.782 27.904C218.015 28.016 218.356 28.1653 218.804 28.352C219.243 28.5293 219.621 28.716 219.938 28.912C220.255 29.0987 220.498 29.3367 220.666 29.626C220.843 29.9153 220.932 30.284 220.932 30.732ZM222.935 25.342L223.537 23.732H224.867V25.356H227.009V26.924H224.867V30.606C224.867 30.8953 224.951 31.1147 225.119 31.264C225.287 31.404 225.506 31.474 225.777 31.474C226.01 31.474 226.234 31.4553 226.449 31.418C226.664 31.3713 226.878 31.3107 227.093 31.236V32.79C226.869 32.8927 226.589 32.9767 226.253 33.042C225.926 33.1073 225.567 33.14 225.175 33.14C224.839 33.14 224.522 33.098 224.223 33.014C223.934 32.9393 223.682 32.8087 223.467 32.622C223.252 32.426 223.084 32.1647 222.963 31.838C222.842 31.5113 222.781 31.1007 222.781 30.606V26.924H221.787V26.042L222.935 25.342Z" fill="#003366"/>
</g>
<defs>
<clipPath id="clip0_13898_192666">
<rect width="272" height="220" fill="white"/>
</clipPath>
</defs>
</svg>
