<svg width="272" height="220" viewBox="0 0 272 220" fill="none" xmlns="http://www.w3.org/2000/svg">
<g clip-path="url(#clip0_13898_192631)">
<path d="M169.513 212.71V212.01L169.844 211.677H170.561L170.321 211.273L169.255 210.591V209.761L168.152 209.061V209.539L168.446 209.89V210.387H168.207L167.749 210.184L165.827 207.75L166.303 206.79L165.348 205.561L163.181 203.558L161.088 202.464L158.75 201.922L158.223 201.663L157.939 201.682L157.965 201.7L157.133 201.148L156.08 200.337L155.272 199.549L153.766 197.472L152.945 196.893V196.378L153.458 196.658H153.716L154.011 196.378V195.849L153.497 195.297H152.91V194.818L151.881 193.97V193.492L150.57 192.657V191.882L150.062 191.092L150.32 190.577L150.062 190.024L148.74 188.743V188.18L148.464 187.408L148.169 187.12V186.335L147.884 185.783L146.855 185.027L146.165 185.212L144.567 185.312L144.017 184.768H142.382L141.655 183.983L140.544 183.457H139.533L139.251 183.177H136.642L136.384 182.685H134.989L133.715 182.144H132.675L131.535 181.308H129.918V180.867L128.57 180.278L126.588 178.716L124.213 177.389L122.204 176.768L121.496 176.057H119.829L118.8 176.567L117.623 177.355H116.375L115.641 177.624L116.075 178.362L116.599 178.528L116.636 179.458L117.131 179.966L117.426 181.248L118.189 182.077L118.971 182.889L119.824 183.203L119.75 182.614L119.795 182.107L120.301 182.373V182.87L121.238 182.788L121.714 183.23L121.117 184.226L120.29 185.008L120.548 185.82L121.072 185.812L121.349 185.259H121.872L122.13 185.582V186.293L122.71 186.615V187.411L121.08 188.727V189.517L122.183 190.019L123.665 188.999L124.242 188.986L125.6 189.81H126.066L126.888 190.561L127.941 190.302L128.186 189.319L127.891 188.484L128.16 188.47L128.441 188.74L128.773 189.232L129.41 189.353L129.766 188.973L130.268 188.959L130.282 189.514L129.034 190.323L129.242 190.828L129.768 190.804V191.137L128.739 191.629L128.984 192.686L129.779 193.484H131.09V192.918L131.566 193.214H131.872V192.686L132.14 192.427L132.372 193.225L132.941 192.836L132.885 191.602L133.425 191.898L133.638 192.802L133.07 193.484L131.869 194.012L132.138 194.517H132.896L132.956 194.784L132.148 195.336L131.89 196.129L132.459 196.655H132.946L133.222 196.914V197.44L134.241 197.966L134.747 197.958L135.297 196.917V196.391L135.555 196.124H136.116L136.898 195.561V195.091L136.632 194.546H137.377L137.661 195.302L136.898 196.121L136.879 196.674L137.661 196.904L137.946 196.645L138.743 196.83L138.504 197.189L138.154 197.448H137.685L137.143 197.171L136.087 198.23L136.634 199.821H137.672V200.625L138.749 201.658H138.993L139.238 201.153L138.993 200.611L139.251 200.096L139.773 200.884L140.341 201.412L139.773 201.671V201.949L140.031 202.446V202.974L141.097 203.516V202.263L140.821 201.967L141.042 201.322L141.61 202.189H142.179V201.674L142.637 201.766V202.689L141.903 203.204V203.756H142.379L142.985 202.977L143.206 203.26H143.664L143.94 202.726L144.254 203.556H144.749V205.141L145.317 205.675V206.653L147.229 209.087L147.632 209.105L148.79 207.98V207.242H149.793V208.55H150.572L150.867 208.017H152.007L152.394 207.758L153.166 208.017L153.018 208.532L151.641 210.118L151.31 210.947L151.604 211.722L152.945 212.718L154.506 213.271L155.791 214.653L156.599 214.875L158.215 214.893L158.492 215.686L159.813 215.964L164.552 218.046L166.187 218.305L167.435 218.876H168.225L168.52 218.561V218.102L169.31 216.994H169.786V217.364L170.189 217.824L171.274 217.75L171.403 216.569L170.3 212.716H169.51L169.513 212.71Z" fill="#C1B59B" stroke="#736C5D" stroke-linecap="round" stroke-linejoin="round"/>
<path d="M269.843 205.382L269.09 204.848H267.758L267.281 203.521L264.59 200.876V200.35L265.399 199.557V198.497L264.059 198.764L263.498 197.445L264.085 196.893V196.137H264.819V193.74L264.535 192.155V190.339L263.782 189.509V187.968L263.524 186.605L262.974 185.838L263.25 185.286L262.231 184.467V183.719L260.625 181.322L259.836 180.777L259.322 181.596L258.377 182.067L257.469 180.822V178.94L255.613 178.415L254.299 175.769V174.984L253.232 173.665H252.451L252.716 172.846L249.768 172.08L250.118 171.001L249.841 170.217L247.996 169.397V168.9H246.93L246.672 168.1V166.514L245.616 165.729V164.936L244.818 163.377L243.523 162.851V161.773L242.98 161.239V160.309H241.696L241.153 162.013H239.821L239.574 160.187L239.042 159.653V158.575L238.27 158.298L237.417 157.026L236.109 155.705L235.864 153.517L235.079 154.389L232.936 154.635L232.239 153.823V153.281H230.88L230.34 152.803L230.119 151.992L231.159 151.167L231.612 150.332L231.122 149.582H230.106L228.258 148.009L227.708 148.797L227.684 149.645L225.646 150.396V149.079L226.394 148.527V148.086H225.673L225.341 147.753V146.701H224.556V145.871L225.217 145.379V144.568L224.83 143.529L223.79 143.271V142.742L224.298 142.464V141.82H223.495L223.25 140.622L221.929 141.391L221.689 140.107L220.857 139.555L221.689 139.198L221.407 138.492L220.115 138.247L220.328 136.666L218.503 135.326V134.816L217.187 134.798L217.474 136.407L217.198 136.912L215.876 135.331L215.607 135.609H214.823L213.793 133.653V132.977L213.488 132.448H210.315L209.42 131.772V131.034L208.954 129.805H207.988L207.767 129.573L208.257 129.031L207.485 128.183L207.643 127.741L209.31 128.566L209.665 127.398L208.728 126.145H207.809L207.956 124.911H207.074L206.798 124.409V1.13232H1.13281L1.70149 1.64767L4.97141 3.34435L5.46111 5.85238L17.1928 18.0701L18.1222 22.4836L17.8826 24.6031H18.4328L25.3123 19.2831H28.1399L29.1772 12.9483L30.4989 13.2337L31.839 11.6216L30.4884 10.0624L32.0944 8.99204L34.4639 8.73304L39.7531 5.58017L42.6545 7.91377L44.766 10.8367V12.7263L43.9129 13.5192L44.9871 14.571L44.5 15.3638L45.5295 16.6905L48.4124 17.2059V18.5431L49.734 19.8698H50.516L51.5533 21.6854V23.2791L53.1408 25.3986L57.6587 28.5779L62.3714 34.3868L61.5895 35.4201L68.0003 46.0416L74.7323 59.2239L73.4475 61.5945L74.4848 62.1283L76.8543 62.4058V63.7061L76.3304 63.9836L76.0645 66.0952L78.6815 67.147L78.9474 69.2666V71.3782H82.1252L87.0537 75.2023L90.4579 76.0744L92.393 77.9984L93.9464 78.2389L94.336 80.3584H95.0758L96.0684 81.4208L97.6612 80.6333L98.738 82.7607V85.1076L97.3901 87.2218V88.8075L97.8929 92.7902L98.4326 93.5646L98.4458 95.6788L99.2672 96.7491L97.1742 99.5875L94.9705 104.382L91.8665 106.263V106.797L92.1061 107.048H94.0043L95.0443 107.294V108.88H94.7625L94.2491 109.176L94.236 111.832L94.7494 112.091V112.632H93.72V113.653L94.7599 114.71L94.4545 115.006H93.9516V115.51L94.2018 115.761H94.9784L95.2733 116.076V116.605L95.7999 117.133L96.0579 117.611L95.813 117.931L96.3633 118.399H96.8582L98.1562 118.851L97.9429 120.223V122.398L97.3374 122.675H96.3633L96.0684 122.086V120.759L95.5629 120.04L94.7099 119.173H94.0122L93.4619 119.469L92.8933 119.985L92.3983 120.281L92.1219 121.055V121.57L93.225 122.678H93.6647V123.434L94.4729 123.711H95.1153L95.813 123.952H96.853V125.556L96.3501 125.815V124.808H95.8104V125.582H95.5629L95.0153 125.815L94.7467 126.135V127.141H95.2601V127.411L95.8236 127.953L96.3369 128.212H97.1084V128.74H97.9535L97.6349 127.942H97.3769V126.37L97.9166 126.137V127.379L98.4432 127.712V128.191L98.7249 128.46H99.2146L99.7648 128.214L99.9965 128.447V128.743L99.7648 129.013L99.52 129.282L98.9803 129.787V130.056H99.2383V130.352H99.7648L100.299 130.593H100.823V131.1H100.299V131.875L101.861 133.468L102.669 134.795L103.174 135.329H103.706V135.606L103.44 135.855V137.181L103.954 137.422H104.23V137.985L105.012 138.778L105.573 139.594L105.802 139.848H106.592V138.788H106.334V137.977L104.736 135.894L104.488 134.835H104.241V133.746L105.049 133.201L105.307 132.961L105.554 133.495L105.562 133.772V134.824L105.839 135.073V135.588H106.097V136.381L106.592 137.192L107.097 137.459V138.233H107.621L107.41 138.537V140.316L108.798 140.99L108.448 142.427L108.743 143.479L110.457 145.2L111.023 145.398L111.354 144.883H111.705L112.144 146.154L112.242 147.034L111.623 146.714H111.354V147.771L112.144 149.394L112.531 150.033L112.679 151.225L112.91 151.717L113.424 151.458V149.367L113.956 148.834L114.766 149.064H115.235V147.745L116.349 148.569L116.091 149.603H115.577V150.131L115.014 150.697L115.835 151.725L116.349 152L115.564 152.541L114.793 153.575V154.09L115.564 154.865H116.03L116.349 155.406H116.862L116.996 156.315L117.657 156.487L117.889 156.204H118.439V155.43L119.284 154.902L119.511 155.129H121.085L121.662 155.171L121.883 156.178L121.614 157.003V157.814L121.993 157.875L122.141 158.305L121.664 158.379L121.433 158.797L121.899 162.534L122.217 163.123L123.455 162.84V163.345L122.928 164.18V164.759L123.441 164.439L124.263 165.436H124.789L125.548 164.957V165.732L125.008 165.991L124.505 166.815L123.715 167.066L122.889 167.613L123.157 168.634L124.811 168.657L125.545 168.361L126.904 167.341L125.6 168.327L126.095 168.644H126.622V169.159L126.082 169.712L124.784 169.958L123.718 169.712L123.186 170.505V171.001L124.179 171.998L125.074 172.262L124.505 171.556H126.072L126.622 172.061L125.827 172.074V172.331L126.377 172.64L126.082 172.886L125.556 173.93L126.082 174.471H126.548L126.927 175.296H127.662L128.42 175.529L129.215 176.316L130.587 177.091H131.003L131.59 176.575L132.13 176.306V175.727L132.706 174.767L133.22 174.754L133.686 174.976L133.491 175.764L134.225 176.033H135.265L136.392 175.259L136.653 175.558L136.11 176.073V176.847L136.653 177.091H137.682L138.978 176.575L139.28 176.832L140.244 176.913L140.023 177.918H141.089L141.639 177.355H141.879V177.918L140.547 178.933H140.07L139.786 179.485L140.062 179.707H140.568L140.815 179.495L141.881 180.312L141.342 181.086H140.607L140.068 181.591V182.157L140.349 182.672L140.876 182.918L142.627 183.016L143.73 182.646L144.514 182.817L144.796 183.716H145.799L146.607 183.446L148.187 183.46L149.559 183.975V185.008L149.79 185.598L150.833 186.066V186.618L151.618 187.416L152.684 186.901C152.881 186.961 153.11 187.146 153.11 187.146L153.476 187.902L154.598 188.973L154.977 190.355L155.156 191.185L157.891 193.5V194.274L158.223 194.557L158.75 194.742L160.071 195.048L160.574 195.331L161.909 196.658L163.47 198.225L163.965 198.925L164.866 199.774L167.125 200.419L168.165 201.156L168.997 200.86V199.065L171.616 197.712V196.951L171.911 196.423H172.93L172.166 197.197V198.222L171.677 198.756L171.872 199.827L171.1 201.449V202.2L171.677 202.459L171.664 203.27L172.398 204.314L172.661 206.428L173.243 206.994V207.922H270.864V206.954L269.835 205.387L269.843 205.382Z" fill="#C1B59B" stroke="#736C5D" stroke-linecap="round" stroke-linejoin="round"/>
<path d="M87.6549 154.629L87.4022 153.837L87.9209 153.308L86.5887 152.782L86.3412 152.523L87.131 152.251V151.722L86.3333 151.204H86.07L85.5645 151.712L85.7988 152.238H85.2933L85.0011 151.725H84.5035L84.2376 151.455V150.398L84.8221 150.644L85.0327 150.39L84.7431 150.137V149.883H85.009L85.2723 149.346L85.5434 148.966L85.0195 148.826L84.2376 149.344L84.2429 149.883L83.7189 150.393V149.888L83.4241 149.352L83.453 148.551L82.9133 147.803L81.9971 147.232L81.6022 147.499L80.528 145.95V145.38L80.2858 144.833L80.8123 144.846L81.3758 145.388V146.172L82.1472 146.154L82.9186 145.633L83.1871 145.11L83.1766 144.058L82.9133 143.802H82.6553L82.3867 144.053L81.6074 144.33L81.0809 144.28L79.4907 144.071L79.7724 143.001L80.8176 142.198L80.8071 141.281L81.3336 140.353V139.811L80.8071 139.018L80.7992 137.441L79.7592 135.596L78.9562 134.552L78.1585 133.471V129.776L78.4613 128.476L78.1664 127.435L78.6903 126.346L78.8009 124.451L80.5148 121.721L81.0098 120.347L81.2941 117.701L81.0704 116.98L79.8645 119.16H78.9694L78.1743 120.009H76.3129L75.8232 120.55H74.9886L74.7569 120.244V119.493L74.4989 118.962L73.2378 118.706L71.1079 118.941L70.2628 117.884H69.7599L69.1596 118.423H68.1565L66.3189 117.133H66.0635L65.8186 117.931L65.5238 118.399V118.695L66.0556 119.226V120.27L65.2552 120.833L65.0156 122.123V123.183L65.4922 124.227L65.2736 124.52V124.768L66.1451 125.305L66.8428 126.087L67.3667 127.673L66.8533 128.191V128.466L67.422 128.992V129.536L69.5072 132.974L69.8047 134.261L70.7841 134.301L71.6108 136.074L71.3343 137.419L71.8767 138.239L73.7038 139.298L73.7328 139.843L74.6779 141.651L74.7701 142.203L77.3766 145.134H77.6714L79.5091 147.256L80.0225 147.777L80.757 147.999L81.5653 149.069L81.797 150.419H82.3499L82.5947 151.429L83.7321 153.052L84.0033 153.247L84.1981 152.793H84.4666V153.321L84.9827 154.365L85.7646 154.119L86.0726 154.365H86.8809V155.681L87.0889 156.456V156.923L87.3706 157.291H87.9077V157.008L87.6339 156.733V155.977L87.9077 155.694H88.4237L88.7291 155.385V154.931H88.2026L87.6549 154.629Z" fill="#C1B59B" stroke="#736C5D" stroke-linecap="round" stroke-linejoin="round"/>
<path d="M128.476 141.695L127.942 140.591L128.676 140.091V138.239L127.905 137.731H126.372L125.841 136.394L127.125 135.104L128.2 134.555V133.238H127.663L127.152 132.144V131.129L126.367 130.038L125.564 130.844L125.196 129.25L122.91 129.021L122.413 125.794L121.394 125.286V124.253L119.777 122.641L120.549 119.21V118.177L122.139 117.662L121.891 116.335L123.719 114.472L122.918 112.894V111.023L123.719 110.719V109.982L122.431 108.903L121.339 106.277H120.346L119.511 107.04L119.016 105.225L120.578 102.32L119.759 101.501L120.578 99.9417L120.043 98.5621V96.7624L119.282 94.9098L116.573 91.2019L114.204 91.4424L113.975 91.2019L117.152 88.834L120.043 84.5923V83.292L117.674 76.1194L118.142 74.0184L116.573 71.9121L113.754 71.3809L110.778 71.1509V70.3026L108.185 69.0103L107.095 69.5124L107.387 70.3237L108.722 70.8655V71.3756L107.922 71.9094L108.19 74.0316H107.137L106.842 74.5654H105.294V73.4951L103.188 71.6451H102.385L101.872 72.1737L100.906 71.9094L99.5075 72.1816L98.9389 73.2123L98.1806 72.6917H97.6462L97.1328 73.4898L97.1143 74.8244H95.8111L95.2661 75.6833V77.203L96.0744 78.0143L95.7979 80.3611H95.0818L96.0744 81.4235L97.6646 80.6386L98.744 82.7634V85.1129L97.396 87.2271V88.8128L97.8989 92.7955L98.436 93.5699L98.4492 95.6841L99.2706 96.7518L97.1749 99.5928L94.9712 104.387L91.8672 106.266V106.802L92.1068 107.053H94.005L95.045 107.299V108.885H94.7633L94.2499 109.181L94.2367 111.834L94.7501 112.093V112.635H93.7233V113.655L94.7633 114.712L94.4578 115.006H93.955V115.51L94.2051 115.762H94.4947H94.9844L95.2766 116.076V116.605L95.8032 117.133L96.0612 117.611L95.8164 117.931L96.3666 118.399H96.8642L98.1622 118.851L97.9463 120.225V122.4L97.3408 122.678H96.3666L96.0744 122.086V120.759L95.5689 120.04L94.7132 119.173H94.0155L93.4653 119.469L92.8966 119.985L92.399 120.281L92.1252 121.055V121.57L93.2257 122.678H93.668V123.434L94.4763 123.708H95.1187L95.8164 123.949H96.8563V125.553L96.3561 125.812V124.803H95.8164V125.577H95.5689L95.0213 125.812L94.7501 126.132V127.139H95.2661V127.408L95.8295 127.95L96.3429 128.209H97.1143V128.738H97.9595L97.6409 127.937H97.3829V126.364L97.9226 126.132V127.371L98.4492 127.704V128.183L98.7309 128.455H99.2206L99.7708 128.209L100.005 128.442V128.738L99.7708 129.007L99.526 129.277L98.9889 129.782V130.051H99.2443V130.347H99.7708L100.308 130.588H100.832V131.092H100.308V131.869L101.869 133.463L102.677 134.79L103.183 135.326H103.715V135.601L103.449 135.85V137.179L103.962 137.419H104.239V137.98L105.018 138.772L105.579 139.589L105.808 139.843H106.598V138.783H106.342V137.972L104.744 135.887L104.497 134.827H104.247V133.741L105.055 133.196L105.313 132.956L105.56 133.49L105.571 133.767V134.819L105.845 135.067V135.583H106.103V136.375L106.598 137.187L107.103 137.454V138.228H107.627L107.416 138.535V140.313L108.804 140.987L109.767 140.091L110.347 138.698H111.605V137.464H112.421L113.451 136.671H113.983L114.507 137.705V138.239H116.105L118.969 137.742L119.522 138.294L120.796 138.543V139.547L121.349 140.884L122.405 141.669V143.255L123.176 143.522L124.508 142.985V144.333L125.601 145.126H126.325L127.125 144.048V142.755L128.75 142.462L128.989 141.695H128.476Z" fill="#003366"/>
<rect width="105" height="24" transform="translate(36 40)" fill="white"/>
<path d="M51.154 54.228C51.154 55.1147 50.832 55.824 50.188 56.356C49.5533 56.8787 48.648 57.14 47.472 57.14C46.4173 57.14 45.4747 56.9393 44.644 56.538V54.564C45.12 54.7693 45.61 54.9607 46.114 55.138C46.6273 55.306 47.136 55.39 47.64 55.39C48.1627 55.39 48.5313 55.292 48.746 55.096C48.97 54.8907 49.082 54.634 49.082 54.326C49.082 54.074 48.9933 53.8593 48.816 53.682C48.648 53.5047 48.4193 53.3413 48.13 53.192C47.8407 53.0333 47.5093 52.8653 47.136 52.688C46.9027 52.576 46.6507 52.4453 46.38 52.296C46.1093 52.1373 45.848 51.946 45.596 51.722C45.3533 51.4887 45.1527 51.2087 44.994 50.882C44.8353 50.5553 44.756 50.1633 44.756 49.706C44.756 48.81 45.0593 48.1147 45.666 47.62C46.2727 47.116 47.0987 46.864 48.144 46.864C48.6667 46.864 49.1613 46.9247 49.628 47.046C50.0947 47.1673 50.5893 47.34 51.112 47.564L50.426 49.216C49.9687 49.0293 49.558 48.8847 49.194 48.782C48.83 48.6793 48.4567 48.628 48.074 48.628C47.6727 48.628 47.3647 48.7213 47.15 48.908C46.9353 49.0947 46.828 49.3373 46.828 49.636C46.828 49.9907 46.9867 50.2707 47.304 50.476C47.6213 50.6813 48.0927 50.9333 48.718 51.232C49.2313 51.4747 49.6653 51.7267 50.02 51.988C50.384 52.2493 50.664 52.5573 50.86 52.912C51.056 53.2667 51.154 53.7053 51.154 54.228ZM52.8029 46.36H54.8889V51.12C54.8889 51.4093 54.8749 51.6987 54.8469 51.988C54.8283 52.268 54.8049 52.5527 54.7769 52.842H54.8049C54.8423 52.786 54.8703 52.7487 54.8889 52.73C55.0196 52.5433 55.1503 52.366 55.2809 52.198C55.4116 52.0207 55.5563 51.848 55.7149 51.68L57.8569 49.356H60.2089L57.1709 52.674L60.3909 57H57.9829L55.7849 53.906L54.8889 54.62V57H52.8029V46.36ZM64.6346 49.216C65.6892 49.216 66.5246 49.5193 67.1406 50.126C67.7566 50.7233 68.0646 51.5773 68.0646 52.688V53.696H63.1366C63.1552 54.284 63.3279 54.746 63.6546 55.082C63.9906 55.418 64.4526 55.586 65.0406 55.586C65.5259 55.586 65.9692 55.5393 66.3706 55.446C66.7812 55.3433 67.2012 55.1893 67.6306 54.984V56.594C67.2479 56.7807 66.8512 56.916 66.4406 57C66.0299 57.0933 65.5306 57.14 64.9426 57.14C64.1772 57.14 63.5006 57 62.9126 56.72C62.3246 56.4307 61.8626 56.0013 61.5266 55.432C61.1906 54.8533 61.0226 54.1207 61.0226 53.234C61.0226 52.3473 61.1719 51.6053 61.4706 51.008C61.7786 50.4107 62.2032 49.9627 62.7446 49.664C63.2859 49.3653 63.9159 49.216 64.6346 49.216ZM64.6486 50.7C64.2379 50.7 63.9019 50.8307 63.6406 51.092C63.3792 51.3533 63.2252 51.7593 63.1786 52.31H66.1046C66.0952 51.8527 65.9692 51.47 65.7266 51.162C65.4932 50.854 65.1339 50.7 64.6486 50.7ZM72.9061 49.216C73.9607 49.216 74.7961 49.5193 75.4121 50.126C76.0281 50.7233 76.3361 51.5773 76.3361 52.688V53.696H71.4081C71.4267 54.284 71.5994 54.746 71.9261 55.082C72.2621 55.418 72.7241 55.586 73.3121 55.586C73.7974 55.586 74.2407 55.5393 74.6421 55.446C75.0527 55.3433 75.4727 55.1893 75.9021 54.984V56.594C75.5194 56.7807 75.1227 56.916 74.7121 57C74.3014 57.0933 73.8021 57.14 73.2141 57.14C72.4487 57.14 71.7721 57 71.1841 56.72C70.5961 56.4307 70.1341 56.0013 69.7981 55.432C69.4621 54.8533 69.2941 54.1207 69.2941 53.234C69.2941 52.3473 69.4434 51.6053 69.7421 51.008C70.0501 50.4107 70.4747 49.9627 71.0161 49.664C71.5574 49.3653 72.1874 49.216 72.9061 49.216ZM72.9201 50.7C72.5094 50.7 72.1734 50.8307 71.9121 51.092C71.6507 51.3533 71.4967 51.7593 71.4501 52.31H74.3761C74.3667 51.8527 74.2407 51.47 73.9981 51.162C73.7647 50.854 73.4054 50.7 72.9201 50.7ZM78.0275 49.356H79.6235L79.9035 50.336H80.0155C80.2582 49.944 80.5895 49.6593 81.0095 49.482C81.4389 49.3047 81.8915 49.216 82.3675 49.216C83.1889 49.216 83.8469 49.44 84.3415 49.888C84.8362 50.3267 85.0835 51.036 85.0835 52.016V57H82.9975V52.534C82.9975 51.974 82.8995 51.5587 82.7035 51.288C82.5075 51.0173 82.1949 50.882 81.7655 50.882C81.1309 50.882 80.6969 51.1013 80.4635 51.54C80.2302 51.9693 80.1135 52.59 80.1135 53.402V57H78.0275V49.356ZM90.1407 52.282L91.4707 52.24V51.904C91.4707 51.5027 91.3634 51.2087 91.1487 51.022C90.9434 50.8353 90.6541 50.742 90.2807 50.742C89.9074 50.742 89.5434 50.798 89.1887 50.91C88.8341 51.0127 88.4794 51.1433 88.1247 51.302L87.4387 49.888C87.8401 49.6827 88.2927 49.5193 88.7967 49.398C89.3007 49.2673 89.8234 49.202 90.3647 49.202C91.4007 49.202 92.1894 49.4213 92.7307 49.86C93.2721 50.2987 93.5427 50.98 93.5427 51.904V57H92.0867L91.6807 55.964H91.6247C91.4567 56.1693 91.2887 56.3467 91.1207 56.496C90.9621 56.6453 90.7847 56.7667 90.5887 56.86C90.3927 56.9533 90.1734 57.0233 89.9307 57.07C89.6881 57.1167 89.4081 57.14 89.0907 57.14C88.7547 57.14 88.4421 57.0933 88.1527 57C87.8634 56.8973 87.6114 56.748 87.3967 56.552C87.1914 56.356 87.0281 56.1087 86.9067 55.81C86.7854 55.502 86.7247 55.138 86.7247 54.718C86.7247 53.906 87.0094 53.3087 87.5787 52.926C88.1481 52.5433 89.0021 52.3287 90.1407 52.282ZM88.8667 54.732C88.8667 55.0493 88.9601 55.278 89.1467 55.418C89.3334 55.5487 89.5761 55.614 89.8747 55.614C90.3227 55.614 90.7007 55.4833 91.0087 55.222C91.3167 54.9513 91.4707 54.5733 91.4707 54.088V53.458L90.6587 53.486C89.9867 53.5047 89.5201 53.626 89.2587 53.85C88.9974 54.074 88.8667 54.368 88.8667 54.732ZM98.2227 47.004H100.309L101.583 52.464C101.629 52.6133 101.676 52.8047 101.723 53.038C101.769 53.2713 101.816 53.514 101.863 53.766C101.909 54.0087 101.951 54.2513 101.989 54.494C102.026 54.7273 102.054 54.9233 102.073 55.082C102.091 54.914 102.119 54.7133 102.157 54.48C102.194 54.2467 102.236 54.0133 102.283 53.78C102.329 53.5373 102.371 53.3133 102.409 53.108C102.455 52.8933 102.497 52.7253 102.535 52.604L103.991 47.004H105.993L107.449 52.604C107.477 52.7253 107.514 52.8933 107.561 53.108C107.607 53.3133 107.649 53.5373 107.687 53.78C107.733 54.0227 107.775 54.2607 107.813 54.494C107.859 54.7273 107.892 54.9233 107.911 55.082C107.929 54.914 107.957 54.7133 107.995 54.48C108.041 54.2467 108.088 54.0087 108.135 53.766C108.181 53.5233 108.228 53.29 108.275 53.066C108.321 52.8327 108.363 52.632 108.401 52.464L109.675 47.004H111.761L109.213 57H106.805L105.447 51.75C105.419 51.6567 105.381 51.5073 105.335 51.302C105.288 51.0873 105.237 50.8633 105.181 50.63C105.134 50.3873 105.092 50.154 105.055 49.93C105.017 49.706 104.994 49.5333 104.985 49.412C104.975 49.5333 104.952 49.706 104.915 49.93C104.877 50.154 104.831 50.3827 104.775 50.616C104.728 50.8493 104.681 51.0733 104.635 51.288C104.588 51.4933 104.551 51.652 104.523 51.764L103.179 57H100.771L98.2227 47.004ZM115.726 49.216C116.781 49.216 117.616 49.5193 118.232 50.126C118.848 50.7233 119.156 51.5773 119.156 52.688V53.696H114.228C114.247 54.284 114.42 54.746 114.746 55.082C115.082 55.418 115.544 55.586 116.132 55.586C116.618 55.586 117.061 55.5393 117.462 55.446C117.873 55.3433 118.293 55.1893 118.722 54.984V56.594C118.34 56.7807 117.943 56.916 117.532 57C117.122 57.0933 116.622 57.14 116.034 57.14C115.269 57.14 114.592 57 114.004 56.72C113.416 56.4307 112.954 56.0013 112.618 55.432C112.282 54.8533 112.114 54.1207 112.114 53.234C112.114 52.3473 112.264 51.6053 112.562 51.008C112.87 50.4107 113.295 49.9627 113.836 49.664C114.378 49.3653 115.008 49.216 115.726 49.216ZM115.74 50.7C115.33 50.7 114.994 50.8307 114.732 51.092C114.471 51.3533 114.317 51.7593 114.27 52.31H117.196C117.187 51.8527 117.061 51.47 116.818 51.162C116.585 50.854 116.226 50.7 115.74 50.7ZM126.182 54.732C126.182 55.5067 125.907 56.104 125.356 56.524C124.815 56.9347 124.003 57.14 122.92 57.14C122.388 57.14 121.931 57.1027 121.548 57.028C121.165 56.9627 120.783 56.8507 120.4 56.692V54.97C120.811 55.1567 121.254 55.3107 121.73 55.432C122.206 55.5533 122.626 55.614 122.99 55.614C123.391 55.614 123.681 55.5533 123.858 55.432C124.035 55.3107 124.124 55.152 124.124 54.956C124.124 54.8253 124.087 54.7087 124.012 54.606C123.947 54.5033 123.797 54.3867 123.564 54.256C123.331 54.1253 122.967 53.9573 122.472 53.752C121.987 53.5467 121.59 53.346 121.282 53.15C120.983 52.9447 120.759 52.702 120.61 52.422C120.461 52.1327 120.386 51.7733 120.386 51.344C120.386 50.6347 120.661 50.1027 121.212 49.748C121.763 49.3933 122.495 49.216 123.41 49.216C123.886 49.216 124.339 49.2627 124.768 49.356C125.197 49.4493 125.641 49.6033 126.098 49.818L125.468 51.316C125.095 51.1573 124.74 51.0267 124.404 50.924C124.068 50.812 123.727 50.756 123.382 50.756C122.766 50.756 122.458 50.924 122.458 51.26C122.458 51.3813 122.495 51.4933 122.57 51.596C122.654 51.6893 122.808 51.792 123.032 51.904C123.265 52.016 123.606 52.1653 124.054 52.352C124.493 52.5293 124.871 52.716 125.188 52.912C125.505 53.0987 125.748 53.3367 125.916 53.626C126.093 53.9153 126.182 54.284 126.182 54.732ZM128.185 49.342L128.787 47.732H130.117V49.356H132.259V50.924H130.117V54.606C130.117 54.8953 130.201 55.1147 130.369 55.264C130.537 55.404 130.756 55.474 131.027 55.474C131.26 55.474 131.484 55.4553 131.699 55.418C131.914 55.3713 132.128 55.3107 132.343 55.236V56.79C132.119 56.8927 131.839 56.9767 131.503 57.042C131.176 57.1073 130.817 57.14 130.425 57.14C130.089 57.14 129.772 57.098 129.473 57.014C129.184 56.9393 128.932 56.8087 128.717 56.622C128.502 56.426 128.334 56.1647 128.213 55.838C128.092 55.5113 128.031 55.1007 128.031 54.606V50.924H127.037V50.042L128.185 49.342Z" fill="#003366"/>
</g>
<defs>
<clipPath id="clip0_13898_192631">
<rect width="272" height="220" fill="white"/>
</clipPath>
</defs>
</svg>
