<svg width="272" height="220" viewBox="0 0 272 220" fill="none" xmlns="http://www.w3.org/2000/svg">
<g clip-path="url(#clip0_13898_192351)">
<path d="M169.513 212.71V212.01L169.844 211.677H170.561L170.321 211.273L169.255 210.591V209.761L168.152 209.061V209.539L168.446 209.89V210.387H168.207L167.749 210.184L165.827 207.75L166.303 206.79L165.348 205.561L163.181 203.558L161.088 202.464L158.75 201.922L158.223 201.663L157.939 201.682L157.965 201.7L157.133 201.148L156.08 200.337L155.272 199.549L153.766 197.472L152.945 196.893V196.378L153.458 196.658H153.716L154.011 196.378V195.849L153.497 195.297H152.91V194.818L151.881 193.97V193.492L150.57 192.657V191.882L150.062 191.092L150.32 190.577L150.062 190.024L148.74 188.743V188.18L148.464 187.408L148.169 187.12V186.335L147.884 185.783L146.855 185.027L146.165 185.212L144.567 185.312L144.017 184.768H142.382L141.655 183.983L140.544 183.457H139.533L139.251 183.177H136.642L136.384 182.685H134.989L133.715 182.144H132.675L131.535 181.308H129.918V180.867L128.57 180.278L126.588 178.716L124.213 177.389L122.204 176.768L121.496 176.057H119.829L118.8 176.567L117.623 177.355H116.375L115.641 177.624L116.075 178.362L116.599 178.528L116.636 179.458L117.131 179.966L117.426 181.248L118.189 182.077L118.971 182.889L119.824 183.203L119.75 182.614L119.795 182.107L120.301 182.373V182.87L121.238 182.788L121.714 183.23L121.117 184.226L120.29 185.008L120.548 185.82L121.072 185.812L121.349 185.259H121.872L122.13 185.582V186.293L122.71 186.615V187.411L121.08 188.727V189.517L122.183 190.019L123.665 188.999L124.242 188.986L125.6 189.81H126.066L126.888 190.561L127.941 190.302L128.186 189.319L127.891 188.484L128.16 188.47L128.441 188.74L128.773 189.232L129.41 189.353L129.766 188.973L130.268 188.959L130.282 189.514L129.034 190.323L129.242 190.828L129.768 190.804V191.137L128.739 191.629L128.984 192.686L129.779 193.484H131.09V192.918L131.566 193.214H131.872V192.686L132.14 192.427L132.372 193.225L132.941 192.836L132.885 191.602L133.425 191.898L133.638 192.802L133.07 193.484L131.869 194.012L132.138 194.517H132.896L132.956 194.784L132.148 195.336L131.89 196.129L132.459 196.655H132.946L133.222 196.914V197.44L134.241 197.966L134.747 197.958L135.297 196.917V196.391L135.555 196.124H136.116L136.898 195.561V195.091L136.632 194.546H137.377L137.661 195.302L136.898 196.121L136.879 196.674L137.661 196.904L137.946 196.645L138.743 196.83L138.504 197.189L138.154 197.448H137.685L137.143 197.171L136.087 198.23L136.634 199.821H137.672V200.625L138.749 201.658H138.993L139.238 201.153L138.993 200.611L139.251 200.096L139.773 200.884L140.341 201.412L139.773 201.671V201.949L140.031 202.446V202.974L141.097 203.516V202.263L140.821 201.967L141.042 201.322L141.61 202.189H142.179V201.674L142.637 201.766V202.689L141.903 203.204V203.756H142.379L142.985 202.977L143.206 203.26H143.664L143.94 202.726L144.254 203.556H144.749V205.141L145.317 205.675V206.653L147.229 209.087L147.632 209.105L148.79 207.98V207.242H149.793V208.55H150.572L150.867 208.017H152.007L152.394 207.758L153.166 208.017L153.018 208.532L151.641 210.118L151.31 210.947L151.604 211.722L152.945 212.718L154.506 213.271L155.791 214.653L156.599 214.875L158.215 214.893L158.492 215.686L159.813 215.964L164.552 218.046L166.187 218.305L167.435 218.876H168.225L168.52 218.561V218.102L169.31 216.994H169.786V217.364L170.189 217.824L171.274 217.75L171.403 216.569L170.3 212.716H169.51L169.513 212.71Z" fill="#C1B59B" stroke="#736C5D" stroke-linecap="round" stroke-linejoin="round"/>
<path d="M269.843 205.382L269.09 204.848H267.758L267.281 203.521L264.59 200.876V200.35L265.399 199.557V198.497L264.058 198.764L263.498 197.445L264.085 196.893V196.137H264.819V193.74L264.535 192.155V190.339L263.782 189.509V187.968L263.524 186.605L262.974 185.838L263.25 185.286L262.231 184.467V183.719L260.625 181.322L259.836 180.777L259.322 181.597L258.377 182.067L257.469 180.822V178.94L255.613 178.415L254.299 175.769V174.984L253.232 173.665H252.451L252.716 172.846L249.768 172.08L250.118 171.001L249.841 170.217L247.996 169.397V168.9H246.93L246.672 168.1V166.514L245.616 165.729V164.936L244.818 163.377L243.523 162.851V161.773L242.98 161.239V160.309H241.696L241.153 162.013H239.821L239.574 160.187L239.042 159.653V158.575L238.27 158.298L237.417 157.026L236.109 155.705L235.864 153.517L235.079 154.389L232.936 154.635L232.239 153.823V153.281H230.88L230.34 152.803L230.119 151.992L231.159 151.167L231.612 150.332L231.122 149.582H230.106L228.258 148.009L227.708 148.797L227.684 149.645L225.646 150.396V149.079L226.394 148.527V148.086H225.672L225.341 147.753V146.701H224.556V145.871L225.217 145.379V144.568L224.83 143.529L223.79 143.271V142.742L224.298 142.464V141.82H223.495L223.25 140.622L221.929 141.391L221.689 140.107L220.857 139.555L221.689 139.198L221.407 138.492L220.115 138.247L220.328 136.666L218.503 135.326V134.816L217.187 134.798L217.474 136.407L217.198 136.912L215.876 135.332L215.607 135.609H214.823L213.793 133.653V132.977L213.488 132.448H210.315L209.42 131.772V131.034L208.954 129.805H207.988L207.767 129.573L208.257 129.031L207.485 128.183L207.643 127.741L209.31 128.566L209.665 127.398L208.728 126.145H207.809L207.956 124.911H207.075L206.798 124.409V1.13232H1.13281L1.70149 1.64767L4.97141 3.34435L5.46111 5.85238L17.1928 18.0701L18.1222 22.4836L17.8826 24.6031H18.4328L25.3123 19.2831H28.1399L29.1772 12.9483L30.4989 13.2337L31.839 11.6216L30.4884 10.0624L32.0944 8.99204L34.4639 8.73304L39.7531 5.58017L42.6545 7.91377L44.766 10.8367V12.7263L43.9129 13.5192L44.9871 14.571L44.5 15.3638L45.5295 16.6905L48.4124 17.2059V18.5431L49.734 19.8698H50.516L51.5533 21.6854V23.2791L53.1408 25.3986L57.6587 28.5779L62.3714 34.3868L61.5895 35.4201L68.0003 46.0416L74.7323 59.2239L73.4475 61.5945L74.4848 62.1283L76.8543 62.4058V63.7061L76.3304 63.9836L76.0645 66.0952L78.6815 67.147L78.9474 69.2666V71.3782H82.1252L87.0537 75.2023L90.4579 76.0744L92.393 77.9984L93.9464 78.2389L94.336 80.3584H95.0758L96.0684 81.4208L97.6612 80.6333L98.738 82.7608V85.1076L97.3901 87.2218V88.8075L97.8929 92.7902L98.4326 93.5646L98.4458 95.6788L99.2672 96.7491L97.1742 99.5875L94.9705 104.382L91.8665 106.263V106.797L92.1061 107.048H94.0043L95.0443 107.294V108.88H94.7625L94.2491 109.176L94.236 111.832L94.7494 112.091V112.632H93.72V113.653L94.7599 114.71L94.4545 115.006H93.9516V115.51L94.2018 115.761H94.9784L95.2733 116.076V116.605L95.7999 117.133L96.0579 117.611L95.813 117.931L96.3633 118.399H96.8582L98.1562 118.851L97.9429 120.223V122.398L97.3374 122.675H96.3633L96.0684 122.086V120.759L95.5629 120.04L94.7099 119.173H94.0122L93.4619 119.469L92.8933 119.985L92.3983 120.281L92.1219 121.055V121.57L93.225 122.678H93.6647V123.434L94.4729 123.711H95.1153L95.813 123.952H96.853V125.556L96.3501 125.815V124.808H95.8104V125.582H95.5629L95.0153 125.815L94.7467 126.135V127.141H95.2601V127.411L95.8236 127.953L96.3369 128.212H97.1084V128.74H97.9535L97.6349 127.942H97.3769V126.37L97.9166 126.137V127.379L98.4432 127.712V128.191L98.7249 128.46H99.2146L99.7648 128.214L99.9965 128.447V128.743L99.7648 129.013L99.52 129.282L98.9803 129.787V130.056H99.2383V130.352H99.7648L100.299 130.593H100.823V131.1H100.299V131.875L101.861 133.468L102.669 134.795L103.174 135.329H103.706V135.606L103.44 135.855V137.181L103.954 137.422H104.23V137.985L105.012 138.778L105.573 139.594L105.802 139.848H106.592V138.788H106.334V137.977L104.736 135.894L104.488 134.835H104.241V133.746L105.049 133.201L105.307 132.961L105.554 133.495L105.562 133.772V134.824L105.839 135.073V135.588H106.097V136.381L106.592 137.192L107.097 137.459V138.233H107.621L107.41 138.537V140.316L108.798 140.99L108.448 142.427L108.743 143.479L110.457 145.2L111.023 145.398L111.354 144.883H111.705L112.144 146.154L112.242 147.034L111.623 146.714H111.354V147.771L112.144 149.394L112.531 150.033L112.679 151.225L112.91 151.717L113.424 151.458V149.367L113.956 148.834L114.766 149.064H115.235V147.745L116.349 148.569L116.091 149.603H115.577V150.131L115.014 150.697L115.835 151.725L116.349 152L115.564 152.541L114.793 153.575V154.09L115.564 154.865H116.03L116.349 155.406H116.862L116.996 156.315L117.657 156.487L117.889 156.204H118.439V155.43L119.284 154.902L119.511 155.129H121.085L121.662 155.171L121.883 156.178L121.614 157.003V157.814L121.993 157.875L122.141 158.305L121.664 158.379L121.433 158.797L121.899 162.534L122.217 163.123L123.455 162.84V163.345L122.928 164.18V164.759L123.441 164.439L124.263 165.436H124.789L125.548 164.957V165.732L125.008 165.991L124.505 166.815L123.715 167.066L122.889 167.613L123.157 168.634L124.811 168.657L125.545 168.361L126.904 167.341L125.6 168.327L126.095 168.644H126.622V169.159L126.082 169.712L124.784 169.958L123.718 169.712L123.186 170.505V171.001L124.179 171.998L125.074 172.262L124.505 171.556H126.072L126.622 172.061L125.827 172.074V172.331L126.377 172.64L126.082 172.886L125.556 173.93L126.082 174.471H126.548L126.927 175.296H127.662L128.42 175.529L129.215 176.316L130.587 177.091H131.003L131.59 176.575L132.13 176.306V175.727L132.706 174.767L133.22 174.754L133.686 174.976L133.491 175.764L134.225 176.033H135.265L136.392 175.259L136.653 175.558L136.11 176.073V176.847L136.653 177.091H137.682L138.978 176.575L139.28 176.832L140.244 176.913L140.023 177.918H141.089L141.639 177.355H141.879V177.918L140.547 178.933H140.07L139.786 179.485L140.062 179.707H140.568L140.815 179.495L141.881 180.312L141.342 181.086H140.607L140.068 181.591V182.157L140.349 182.672L140.876 182.918L142.627 183.016L143.73 182.646L144.514 182.817L144.796 183.716H145.799L146.607 183.446L148.187 183.46L149.559 183.975V185.008L149.79 185.598L150.833 186.065V186.618L151.618 187.416L152.684 186.901C152.881 186.961 153.11 187.146 153.11 187.146L153.476 187.902L154.598 188.973L154.977 190.355L155.156 191.185L157.891 193.5V194.274L158.223 194.557L158.75 194.742L160.071 195.048L160.574 195.331L161.909 196.658L163.47 198.225L163.965 198.925L164.866 199.774L167.125 200.419L168.165 201.156L168.997 200.86V199.065L171.616 197.712V196.951L171.911 196.423H172.93L172.166 197.197V198.222L171.677 198.756L171.872 199.827L171.1 201.449V202.2L171.677 202.459L171.664 203.27L172.398 204.314L172.661 206.428L173.243 206.994V207.922H270.864V206.954L269.835 205.387L269.843 205.382Z" fill="#C1B59B" stroke="#736C5D" stroke-linecap="round" stroke-linejoin="round"/>
<path d="M87.6549 154.629L87.4022 153.837L87.9209 153.308L86.5887 152.782L86.3412 152.523L87.131 152.251V151.722L86.3333 151.204H86.07L85.5645 151.712L85.7988 152.238H85.2933L85.0011 151.725H84.5035L84.2376 151.455V150.398L84.8221 150.644L85.0327 150.39L84.7431 150.137V149.883H85.009L85.2723 149.346L85.5434 148.966L85.0195 148.826L84.2376 149.344L84.2429 149.883L83.7189 150.393V149.888L83.4241 149.352L83.453 148.551L82.9133 147.803L81.9971 147.232L81.6022 147.499L80.528 145.95V145.38L80.2858 144.833L80.8123 144.846L81.3758 145.388V146.172L82.1472 146.154L82.9186 145.633L83.1871 145.11L83.1766 144.058L82.9133 143.802H82.6553L82.3867 144.053L81.6074 144.33L81.0809 144.28L79.4907 144.071L79.7724 143.001L80.8176 142.198L80.8071 141.281L81.3336 140.353V139.811L80.8071 139.018L80.7992 137.441L79.7592 135.596L78.9562 134.552L78.1585 133.471V129.776L78.4613 128.476L78.1664 127.435L78.6903 126.346L78.8009 124.451L80.5148 121.721L81.0098 120.347L81.2941 117.701L81.0703 116.98L79.8645 119.16H78.9694L78.1743 120.009H76.3129L75.8232 120.55H74.9886L74.7569 120.244V119.493L74.4989 118.962L73.2378 118.706L71.1079 118.941L70.2628 117.884H69.7599L69.1596 118.423H68.1565L66.3189 117.133H66.0635L65.8186 117.931L65.5238 118.399V118.695L66.0556 119.226V120.27L65.2552 120.833L65.0156 122.123V123.183L65.4922 124.227L65.2736 124.52V124.768L66.1451 125.305L66.8428 126.087L67.3667 127.673L66.8533 128.191V128.466L67.422 128.992V129.536L69.5072 132.974L69.8047 134.261L70.7841 134.301L71.6108 136.074L71.3343 137.419L71.8767 138.239L73.7038 139.298L73.7328 139.843L74.6779 141.651L74.7701 142.203L77.3766 145.134H77.6714L79.5091 147.256L80.0225 147.777L80.757 147.999L81.5653 149.069L81.797 150.419H82.3499L82.5947 151.429L83.7321 153.052L84.0033 153.247L84.1981 152.793H84.4666V153.321L84.9827 154.365L85.7646 154.119L86.0726 154.365H86.8809V155.681L87.0889 156.456V156.923L87.3706 157.291H87.9077V157.008L87.6339 156.733V155.977L87.9077 155.694H88.4237L88.7291 155.385V154.931H88.2026L87.6549 154.629Z" fill="#C1B59B" stroke="#736C5D" stroke-linecap="round" stroke-linejoin="round"/>
<path d="M154.267 177.069V176.356L153.214 176.025L152.933 174.955L151.819 174.45L150.3 174.733L149.27 173.628L150.287 172.878L149.542 172.373V171.189L149.223 170.726V169.976L150.276 169.165V168.107L149.234 167.333V166.818L150.276 165.428L149.797 164.162L150.568 163.586L150.281 160.702L149.552 160.451L149.26 159.923H148.744L147.667 160.462L146.946 159.785V160.697H146.332L145.524 159.933V159.135L144.531 158.63H142.707L142.351 159.872V160.734L141.875 161.495L142.096 162.293H142.646V163.35L142.415 163.905H141.348L140.872 164.936V166.265L140.05 166.794L137.16 165.737L136.425 167.064L135.543 167.04L134.208 165.737H128.969L129.298 166.522H129.914V167.19L128.951 167.597L128.674 167.05L126.91 167.333L125.61 168.319L126.102 168.636H126.628V169.154L126.091 169.706L124.793 169.952L123.727 169.706L123.195 170.499V170.996L124.185 171.992L125.08 172.257L124.512 171.551H126.078L126.628 172.053L125.833 172.066V172.32L126.384 172.632L126.091 172.878L125.565 173.922L126.091 174.463H126.555L126.936 175.288H127.671L128.429 175.521L129.224 176.308L130.596 177.082H131.012L131.602 176.564L132.139 176.295V175.716L132.715 174.759L133.229 174.746L133.695 174.968L133.5 175.753L134.235 176.025H135.275L136.401 175.251L136.662 175.547L136.12 176.065V176.839L136.662 177.082H137.691L138.984 176.564L139.287 176.821L140.253 176.903L140.032 177.907H141.098L141.648 177.347H141.888V177.907L140.556 178.922H140.077L139.792 179.474L140.069 179.696H140.574L140.822 179.485L141.888 180.301L141.348 181.076H140.614L140.074 181.581V182.146L140.356 182.661L140.882 182.907L142.633 183.005L143.736 182.638L144.521 182.809L144.803 183.708H145.806L146.614 183.436L148.194 183.449L149.565 183.964V184.998L149.797 185.587L150.84 186.055V186.607L151.621 187.408L152.688 186.89L151.095 185.021V184.237H151.88V183.19L153.973 181.594V179.503L154.267 178.705L153.435 177.881V177.376L154.267 177.069Z" fill="#003366"/>
<rect width="155" height="24" transform="translate(45 126)" fill="white"/>
<path d="M60.154 140.228C60.154 141.115 59.832 141.824 59.188 142.356C58.5533 142.879 57.648 143.14 56.472 143.14C55.4173 143.14 54.4747 142.939 53.644 142.538V140.564C54.12 140.769 54.61 140.961 55.114 141.138C55.6273 141.306 56.136 141.39 56.64 141.39C57.1627 141.39 57.5313 141.292 57.746 141.096C57.97 140.891 58.082 140.634 58.082 140.326C58.082 140.074 57.9933 139.859 57.816 139.682C57.648 139.505 57.4193 139.341 57.13 139.192C56.8407 139.033 56.5093 138.865 56.136 138.688C55.9027 138.576 55.6507 138.445 55.38 138.296C55.1093 138.137 54.848 137.946 54.596 137.722C54.3533 137.489 54.1527 137.209 53.994 136.882C53.8353 136.555 53.756 136.163 53.756 135.706C53.756 134.81 54.0593 134.115 54.666 133.62C55.2727 133.116 56.0987 132.864 57.144 132.864C57.6667 132.864 58.1613 132.925 58.628 133.046C59.0947 133.167 59.5893 133.34 60.112 133.564L59.426 135.216C58.9687 135.029 58.558 134.885 58.194 134.782C57.83 134.679 57.4567 134.628 57.074 134.628C56.6727 134.628 56.3647 134.721 56.15 134.908C55.9353 135.095 55.828 135.337 55.828 135.636C55.828 135.991 55.9867 136.271 56.304 136.476C56.6213 136.681 57.0927 136.933 57.718 137.232C58.2313 137.475 58.6653 137.727 59.02 137.988C59.384 138.249 59.664 138.557 59.86 138.912C60.056 139.267 60.154 139.705 60.154 140.228ZM68.7469 139.164C68.7469 140.433 68.4109 141.413 67.7389 142.104C67.0763 142.795 66.1709 143.14 65.0229 143.14C64.3136 143.14 63.6789 142.986 63.1189 142.678C62.5683 142.37 62.1343 141.922 61.8169 141.334C61.4996 140.737 61.3409 140.013 61.3409 139.164C61.3409 137.895 61.6723 136.919 62.3349 136.238C62.9976 135.557 63.9076 135.216 65.0649 135.216C65.7836 135.216 66.4183 135.37 66.9689 135.678C67.5196 135.986 67.9536 136.434 68.2709 137.022C68.5883 137.61 68.7469 138.324 68.7469 139.164ZM63.4689 139.164C63.4689 139.92 63.5903 140.494 63.8329 140.886C64.0849 141.269 64.4909 141.46 65.0509 141.46C65.6016 141.46 65.9983 141.269 66.2409 140.886C66.4929 140.494 66.6189 139.92 66.6189 139.164C66.6189 138.408 66.4929 137.843 66.2409 137.47C65.9983 137.087 65.5969 136.896 65.0369 136.896C64.4863 136.896 64.0849 137.087 63.8329 137.47C63.5903 137.843 63.4689 138.408 63.4689 139.164ZM70.4289 140.34V135.356H72.5149V139.822C72.5149 140.382 72.6129 140.797 72.8089 141.068C73.0049 141.339 73.3176 141.474 73.7469 141.474C74.3816 141.474 74.8156 141.259 75.0489 140.83C75.2822 140.391 75.3989 139.766 75.3989 138.954V135.356H77.4849V143H75.8889L75.6089 142.02H75.4969C75.2542 142.412 74.9182 142.697 74.4889 142.874C74.0689 143.051 73.6209 143.14 73.1449 143.14C72.3236 143.14 71.6656 142.921 71.1709 142.482C70.6762 142.034 70.4289 141.32 70.4289 140.34ZM80.0501 135.342L80.6521 133.732H81.9821V135.356H84.1241V136.924H81.9821V140.606C81.9821 140.895 82.0661 141.115 82.2341 141.264C82.4021 141.404 82.6214 141.474 82.8921 141.474C83.1254 141.474 83.3494 141.455 83.5641 141.418C83.7787 141.371 83.9934 141.311 84.2081 141.236V142.79C83.9841 142.893 83.7041 142.977 83.3681 143.042C83.0414 143.107 82.6821 143.14 82.2901 143.14C81.9541 143.14 81.6367 143.098 81.3381 143.014C81.0487 142.939 80.7967 142.809 80.5821 142.622C80.3674 142.426 80.1994 142.165 80.0781 141.838C79.9567 141.511 79.8961 141.101 79.8961 140.606V136.924H78.9021V136.042L80.0501 135.342ZM85.7424 132.36H87.8284V134.53C87.8284 134.922 87.8144 135.286 87.7864 135.622C87.7677 135.958 87.7491 136.196 87.7304 136.336H87.8424C88.0851 135.944 88.3931 135.659 88.7664 135.482C89.1491 135.305 89.5784 135.216 90.0544 135.216C90.4651 135.216 90.8384 135.272 91.1744 135.384C91.5104 135.487 91.7997 135.655 92.0424 135.888C92.2851 136.112 92.4717 136.401 92.6024 136.756C92.7331 137.101 92.7984 137.521 92.7984 138.016V143H90.7124V138.534C90.7124 137.433 90.3017 136.882 89.4804 136.882C88.8551 136.882 88.4211 137.097 88.1784 137.526C87.9451 137.955 87.8284 138.581 87.8284 139.402V143H85.7424V132.36ZM102.99 134.628C102.178 134.628 101.558 134.931 101.128 135.538C100.699 136.145 100.484 136.975 100.484 138.03C100.484 139.094 100.68 139.92 101.072 140.508C101.474 141.087 102.113 141.376 102.99 141.376C103.392 141.376 103.798 141.329 104.208 141.236C104.619 141.143 105.062 141.012 105.538 140.844V142.622C105.1 142.799 104.666 142.93 104.236 143.014C103.807 143.098 103.326 143.14 102.794 143.14C101.758 143.14 100.909 142.93 100.246 142.51C99.5836 142.081 99.0936 141.483 98.7763 140.718C98.4589 139.943 98.3003 139.043 98.3003 138.016C98.3003 137.008 98.4823 136.117 98.8463 135.342C99.2103 134.567 99.7376 133.961 100.428 133.522C101.128 133.083 101.982 132.864 102.99 132.864C103.485 132.864 103.98 132.929 104.474 133.06C104.978 133.181 105.459 133.349 105.916 133.564L105.23 135.286C104.857 135.109 104.479 134.955 104.096 134.824C103.723 134.693 103.354 134.628 102.99 134.628ZM110.644 135.216C111.699 135.216 112.534 135.519 113.15 136.126C113.766 136.723 114.074 137.577 114.074 138.688V139.696H109.146C109.165 140.284 109.338 140.746 109.664 141.082C110 141.418 110.462 141.586 111.05 141.586C111.536 141.586 111.979 141.539 112.38 141.446C112.791 141.343 113.211 141.189 113.64 140.984V142.594C113.258 142.781 112.861 142.916 112.45 143C112.04 143.093 111.54 143.14 110.952 143.14C110.187 143.14 109.51 143 108.922 142.72C108.334 142.431 107.872 142.001 107.536 141.432C107.2 140.853 107.032 140.121 107.032 139.234C107.032 138.347 107.182 137.605 107.48 137.008C107.788 136.411 108.213 135.963 108.754 135.664C109.296 135.365 109.926 135.216 110.644 135.216ZM110.658 136.7C110.248 136.7 109.912 136.831 109.65 137.092C109.389 137.353 109.235 137.759 109.188 138.31H112.114C112.105 137.853 111.979 137.47 111.736 137.162C111.503 136.854 111.144 136.7 110.658 136.7ZM115.766 135.356H117.362L117.642 136.336H117.754C117.996 135.944 118.328 135.659 118.748 135.482C119.177 135.305 119.63 135.216 120.106 135.216C120.927 135.216 121.585 135.44 122.08 135.888C122.574 136.327 122.822 137.036 122.822 138.016V143H120.736V138.534C120.736 137.974 120.638 137.559 120.442 137.288C120.246 137.017 119.933 136.882 119.504 136.882C118.869 136.882 118.435 137.101 118.202 137.54C117.968 137.969 117.852 138.59 117.852 139.402V143H115.766V135.356ZM125.345 135.342L125.947 133.732H127.277V135.356H129.419V136.924H127.277V140.606C127.277 140.895 127.361 141.115 127.529 141.264C127.697 141.404 127.916 141.474 128.187 141.474C128.42 141.474 128.644 141.455 128.859 141.418C129.074 141.371 129.288 141.311 129.503 141.236V142.79C129.279 142.893 128.999 142.977 128.663 143.042C128.336 143.107 127.977 143.14 127.585 143.14C127.249 143.14 126.932 143.098 126.633 143.014C126.344 142.939 126.092 142.809 125.877 142.622C125.662 142.426 125.494 142.165 125.373 141.838C125.252 141.511 125.191 141.101 125.191 140.606V136.924H124.197V136.042L125.345 135.342ZM135.307 135.216C135.41 135.216 135.531 135.221 135.671 135.23C135.811 135.239 135.923 135.253 136.007 135.272L135.853 137.232C135.779 137.213 135.681 137.199 135.559 137.19C135.438 137.171 135.331 137.162 135.237 137.162C134.883 137.162 134.542 137.227 134.215 137.358C133.889 137.479 133.623 137.68 133.417 137.96C133.221 138.24 133.123 138.623 133.123 139.108V143H131.037V135.356H132.619L132.927 136.644H133.025C133.249 136.252 133.557 135.916 133.949 135.636C134.341 135.356 134.794 135.216 135.307 135.216ZM140.033 138.282L141.363 138.24V137.904C141.363 137.503 141.256 137.209 141.041 137.022C140.836 136.835 140.547 136.742 140.173 136.742C139.8 136.742 139.436 136.798 139.081 136.91C138.727 137.013 138.372 137.143 138.017 137.302L137.331 135.888C137.733 135.683 138.185 135.519 138.689 135.398C139.193 135.267 139.716 135.202 140.257 135.202C141.293 135.202 142.082 135.421 142.623 135.86C143.165 136.299 143.435 136.98 143.435 137.904V143H141.979L141.573 141.964H141.517C141.349 142.169 141.181 142.347 141.013 142.496C140.855 142.645 140.677 142.767 140.481 142.86C140.285 142.953 140.066 143.023 139.823 143.07C139.581 143.117 139.301 143.14 138.983 143.14C138.647 143.14 138.335 143.093 138.045 143C137.756 142.897 137.504 142.748 137.289 142.552C137.084 142.356 136.921 142.109 136.799 141.81C136.678 141.502 136.617 141.138 136.617 140.718C136.617 139.906 136.902 139.309 137.471 138.926C138.041 138.543 138.895 138.329 140.033 138.282ZM138.759 140.732C138.759 141.049 138.853 141.278 139.039 141.418C139.226 141.549 139.469 141.614 139.767 141.614C140.215 141.614 140.593 141.483 140.901 141.222C141.209 140.951 141.363 140.573 141.363 140.088V139.458L140.551 139.486C139.879 139.505 139.413 139.626 139.151 139.85C138.89 140.074 138.759 140.368 138.759 140.732ZM147.657 143H145.571V132.36H147.657V143ZM157.883 134.628C157.071 134.628 156.45 134.931 156.021 135.538C155.592 136.145 155.377 136.975 155.377 138.03C155.377 139.094 155.573 139.92 155.965 140.508C156.366 141.087 157.006 141.376 157.883 141.376C158.284 141.376 158.69 141.329 159.101 141.236C159.512 141.143 159.955 141.012 160.431 140.844V142.622C159.992 142.799 159.558 142.93 159.129 143.014C158.7 143.098 158.219 143.14 157.687 143.14C156.651 143.14 155.802 142.93 155.139 142.51C154.476 142.081 153.986 141.483 153.669 140.718C153.352 139.943 153.193 139.043 153.193 138.016C153.193 137.008 153.375 136.117 153.739 135.342C154.103 134.567 154.63 133.961 155.321 133.522C156.021 133.083 156.875 132.864 157.883 132.864C158.378 132.864 158.872 132.929 159.367 133.06C159.871 133.181 160.352 133.349 160.809 133.564L160.123 135.286C159.75 135.109 159.372 134.955 158.989 134.824C158.616 134.693 158.247 134.628 157.883 134.628ZM169.331 139.164C169.331 140.433 168.995 141.413 168.323 142.104C167.66 142.795 166.755 143.14 165.607 143.14C164.898 143.14 164.263 142.986 163.703 142.678C163.152 142.37 162.718 141.922 162.401 141.334C162.084 140.737 161.925 140.013 161.925 139.164C161.925 137.895 162.256 136.919 162.919 136.238C163.582 135.557 164.492 135.216 165.649 135.216C166.368 135.216 167.002 135.37 167.553 135.678C168.104 135.986 168.538 136.434 168.855 137.022C169.172 137.61 169.331 138.324 169.331 139.164ZM164.053 139.164C164.053 139.92 164.174 140.494 164.417 140.886C164.669 141.269 165.075 141.46 165.635 141.46C166.186 141.46 166.582 141.269 166.825 140.886C167.077 140.494 167.203 139.92 167.203 139.164C167.203 138.408 167.077 137.843 166.825 137.47C166.582 137.087 166.181 136.896 165.621 136.896C165.07 136.896 164.669 137.087 164.417 137.47C164.174 137.843 164.053 138.408 164.053 139.164ZM173.967 138.282L175.297 138.24V137.904C175.297 137.503 175.19 137.209 174.975 137.022C174.77 136.835 174.48 136.742 174.107 136.742C173.734 136.742 173.37 136.798 173.015 136.91C172.66 137.013 172.306 137.143 171.951 137.302L171.265 135.888C171.666 135.683 172.119 135.519 172.623 135.398C173.127 135.267 173.65 135.202 174.191 135.202C175.227 135.202 176.016 135.421 176.557 135.86C177.098 136.299 177.369 136.98 177.369 137.904V143H175.913L175.507 141.964H175.451C175.283 142.169 175.115 142.347 174.947 142.496C174.788 142.645 174.611 142.767 174.415 142.86C174.219 142.953 174 143.023 173.757 143.07C173.514 143.117 173.234 143.14 172.917 143.14C172.581 143.14 172.268 143.093 171.979 143C171.69 142.897 171.438 142.748 171.223 142.552C171.018 142.356 170.854 142.109 170.733 141.81C170.612 141.502 170.551 141.138 170.551 140.718C170.551 139.906 170.836 139.309 171.405 138.926C171.974 138.543 172.828 138.329 173.967 138.282ZM172.693 140.732C172.693 141.049 172.786 141.278 172.973 141.418C173.16 141.549 173.402 141.614 173.701 141.614C174.149 141.614 174.527 141.483 174.835 141.222C175.143 140.951 175.297 140.573 175.297 140.088V139.458L174.485 139.486C173.813 139.505 173.346 139.626 173.085 139.85C172.824 140.074 172.693 140.368 172.693 140.732ZM184.838 140.732C184.838 141.507 184.563 142.104 184.012 142.524C183.471 142.935 182.659 143.14 181.576 143.14C181.044 143.14 180.587 143.103 180.204 143.028C179.821 142.963 179.439 142.851 179.056 142.692V140.97C179.467 141.157 179.91 141.311 180.386 141.432C180.862 141.553 181.282 141.614 181.646 141.614C182.047 141.614 182.337 141.553 182.514 141.432C182.691 141.311 182.78 141.152 182.78 140.956C182.78 140.825 182.743 140.709 182.668 140.606C182.603 140.503 182.453 140.387 182.22 140.256C181.987 140.125 181.623 139.957 181.128 139.752C180.643 139.547 180.246 139.346 179.938 139.15C179.639 138.945 179.415 138.702 179.266 138.422C179.117 138.133 179.042 137.773 179.042 137.344C179.042 136.635 179.317 136.103 179.868 135.748C180.419 135.393 181.151 135.216 182.066 135.216C182.542 135.216 182.995 135.263 183.424 135.356C183.853 135.449 184.297 135.603 184.754 135.818L184.124 137.316C183.751 137.157 183.396 137.027 183.06 136.924C182.724 136.812 182.383 136.756 182.038 136.756C181.422 136.756 181.114 136.924 181.114 137.26C181.114 137.381 181.151 137.493 181.226 137.596C181.31 137.689 181.464 137.792 181.688 137.904C181.921 138.016 182.262 138.165 182.71 138.352C183.149 138.529 183.527 138.716 183.844 138.912C184.161 139.099 184.404 139.337 184.572 139.626C184.749 139.915 184.838 140.284 184.838 140.732ZM186.841 135.342L187.443 133.732H188.773V135.356H190.915V136.924H188.773V140.606C188.773 140.895 188.857 141.115 189.025 141.264C189.193 141.404 189.412 141.474 189.683 141.474C189.916 141.474 190.14 141.455 190.355 141.418C190.57 141.371 190.784 141.311 190.999 141.236V142.79C190.775 142.893 190.495 142.977 190.159 143.042C189.832 143.107 189.473 143.14 189.081 143.14C188.745 143.14 188.428 143.098 188.129 143.014C187.84 142.939 187.588 142.809 187.373 142.622C187.158 142.426 186.99 142.165 186.869 141.838C186.748 141.511 186.687 141.101 186.687 140.606V136.924H185.693V136.042L186.841 135.342Z" fill="#003366"/>
</g>
<defs>
<clipPath id="clip0_13898_192351">
<rect width="272" height="220" fill="white"/>
</clipPath>
</defs>
</svg>
