<svg width="272" height="220" viewBox="0 0 272 220" fill="none" xmlns="http://www.w3.org/2000/svg">
<g clip-path="url(#clip0_13898_192281)">
<path d="M169.513 212.71V212.01L169.844 211.677H170.561L170.321 211.273L169.255 210.591V209.761L168.152 209.061V209.539L168.446 209.89V210.387H168.207L167.749 210.184L165.827 207.75L166.303 206.79L165.348 205.561L163.181 203.558L161.088 202.464L158.75 201.922L158.223 201.663L157.939 201.682L157.965 201.7L157.133 201.148L156.08 200.337L155.272 199.549L153.766 197.472L152.945 196.893V196.378L153.458 196.658H153.716L154.011 196.378V195.849L153.497 195.297H152.91V194.818L151.881 193.97V193.492L150.57 192.657V191.882L150.062 191.092L150.32 190.577L150.062 190.024L148.74 188.743V188.18L148.464 187.408L148.169 187.12V186.335L147.884 185.783L146.855 185.027L146.165 185.212L144.567 185.312L144.017 184.768H142.382L141.655 183.983L140.544 183.457H139.533L139.251 183.177H136.642L136.384 182.685H134.989L133.715 182.144H132.675L131.535 181.308H129.918V180.867L128.57 180.278L126.588 178.716L124.213 177.389L122.204 176.768L121.496 176.057H119.829L118.8 176.567L117.623 177.355H116.375L115.641 177.624L116.075 178.362L116.599 178.528L116.636 179.458L117.131 179.966L117.426 181.248L118.189 182.077L118.971 182.889L119.824 183.203L119.75 182.614L119.795 182.107L120.301 182.373V182.87L121.238 182.788L121.714 183.23L121.117 184.226L120.29 185.008L120.548 185.82L121.072 185.812L121.349 185.259H121.872L122.13 185.582V186.293L122.71 186.615V187.411L121.08 188.727V189.517L122.183 190.019L123.665 188.999L124.242 188.986L125.6 189.81H126.066L126.888 190.561L127.941 190.302L128.186 189.319L127.891 188.484L128.16 188.47L128.441 188.74L128.773 189.232L129.41 189.353L129.766 188.973L130.268 188.959L130.282 189.514L129.034 190.323L129.242 190.828L129.768 190.804V191.137L128.739 191.629L128.984 192.686L129.779 193.484H131.09V192.918L131.566 193.214H131.872V192.686L132.14 192.427L132.372 193.225L132.941 192.836L132.885 191.602L133.425 191.898L133.638 192.802L133.07 193.484L131.869 194.012L132.138 194.517H132.896L132.956 194.784L132.148 195.336L131.89 196.129L132.459 196.655H132.946L133.222 196.914V197.44L134.241 197.966L134.747 197.958L135.297 196.917V196.391L135.555 196.124H136.116L136.898 195.561V195.091L136.632 194.546H137.377L137.661 195.302L136.898 196.121L136.879 196.674L137.661 196.904L137.946 196.645L138.743 196.83L138.504 197.189L138.154 197.448H137.685L137.143 197.171L136.087 198.23L136.634 199.821H137.672V200.625L138.749 201.658H138.993L139.238 201.153L138.993 200.611L139.251 200.096L139.773 200.884L140.341 201.412L139.773 201.671V201.949L140.031 202.446V202.974L141.097 203.516V202.263L140.821 201.967L141.042 201.322L141.61 202.189H142.179V201.674L142.637 201.766V202.689L141.903 203.204V203.756H142.379L142.985 202.977L143.206 203.26H143.664L143.94 202.726L144.254 203.556H144.749V205.141L145.317 205.675V206.653L147.229 209.087L147.632 209.105L148.79 207.98V207.242H149.793V208.55H150.572L150.867 208.017H152.007L152.394 207.758L153.166 208.017L153.018 208.532L151.641 210.118L151.31 210.947L151.604 211.722L152.945 212.718L154.506 213.271L155.791 214.653L156.599 214.875L158.215 214.893L158.492 215.686L159.813 215.964L164.552 218.046L166.187 218.305L167.435 218.876H168.225L168.52 218.561V218.102L169.31 216.994H169.786V217.364L170.189 217.824L171.274 217.75L171.403 216.569L170.3 212.716H169.51L169.513 212.71Z" fill="#C1B59B" stroke="#736C5D" stroke-linecap="round" stroke-linejoin="round"/>
<path d="M269.843 205.382L269.09 204.848H267.758L267.281 203.521L264.59 200.876V200.35L265.399 199.557V198.497L264.058 198.764L263.498 197.445L264.085 196.893V196.137H264.819V193.74L264.535 192.155V190.339L263.782 189.509V187.968L263.524 186.605L262.974 185.838L263.25 185.286L262.231 184.467V183.719L260.625 181.322L259.836 180.777L259.322 181.597L258.377 182.067L257.469 180.822V178.94L255.613 178.415L254.299 175.769V174.984L253.232 173.665H252.451L252.716 172.846L249.768 172.08L250.118 171.001L249.841 170.217L247.996 169.397V168.9H246.93L246.672 168.1V166.514L245.616 165.729V164.936L244.818 163.377L243.523 162.851V161.773L242.98 161.239V160.309H241.696L241.153 162.013H239.821L239.574 160.187L239.042 159.653V158.575L238.27 158.298L237.417 157.026L236.109 155.705L235.864 153.517L235.079 154.389L232.936 154.635L232.239 153.823V153.281H230.88L230.34 152.803L230.119 151.992L231.159 151.167L231.612 150.332L231.122 149.582H230.106L228.258 148.009L227.708 148.797L227.684 149.645L225.646 150.396V149.079L226.394 148.527V148.086H225.672L225.341 147.753V146.701H224.556V145.871L225.217 145.379V144.568L224.83 143.529L223.79 143.271V142.742L224.298 142.464V141.82H223.495L223.25 140.622L221.929 141.391L221.689 140.107L220.857 139.555L221.689 139.198L221.407 138.492L220.115 138.247L220.328 136.666L218.503 135.326V134.816L217.187 134.798L217.474 136.407L217.198 136.912L215.876 135.332L215.607 135.609H214.823L213.793 133.653V132.977L213.488 132.448H210.315L209.42 131.772V131.034L208.954 129.805H207.988L207.767 129.573L208.257 129.031L207.485 128.183L207.643 127.741L209.31 128.566L209.665 127.398L208.728 126.145H207.809L207.956 124.911H207.075L206.798 124.409V1.13232H1.13281L1.70149 1.64767L4.97141 3.34435L5.46111 5.85238L17.1928 18.0701L18.1222 22.4836L17.8826 24.6031H18.4328L25.3123 19.2831H28.1399L29.1772 12.9483L30.4989 13.2337L31.839 11.6216L30.4884 10.0624L32.0944 8.99204L34.4639 8.73304L39.7531 5.58017L42.6545 7.91377L44.766 10.8367V12.7263L43.9129 13.5192L44.9871 14.571L44.5 15.3638L45.5295 16.6905L48.4124 17.2059V18.5431L49.734 19.8698H50.516L51.5533 21.6854V23.2791L53.1408 25.3986L57.6587 28.5779L62.3714 34.3868L61.5895 35.4201L68.0003 46.0416L74.7323 59.2239L73.4475 61.5945L74.4848 62.1283L76.8543 62.4058V63.7061L76.3304 63.9836L76.0645 66.0952L78.6815 67.147L78.9474 69.2666V71.3782H82.1252L87.0537 75.2023L90.4579 76.0744L92.393 77.9984L93.9464 78.2389L94.336 80.3584H95.0758L96.0684 81.4208L97.6612 80.6333L98.738 82.7608V85.1076L97.3901 87.2218V88.8075L97.8929 92.7902L98.4326 93.5646L98.4458 95.6788L99.2672 96.7491L97.1742 99.5875L94.9705 104.382L91.8665 106.263V106.797L92.1061 107.048H94.0043L95.0443 107.294V108.88H94.7625L94.2491 109.176L94.236 111.832L94.7494 112.091V112.632H93.72V113.653L94.7599 114.71L94.4545 115.006H93.9516V115.51L94.2018 115.761H94.9784L95.2733 116.076V116.605L95.7999 117.133L96.0579 117.611L95.813 117.931L96.3633 118.399H96.8582L98.1562 118.851L97.9429 120.223V122.398L97.3374 122.675H96.3633L96.0684 122.086V120.759L95.5629 120.04L94.7099 119.173H94.0122L93.4619 119.469L92.8933 119.985L92.3983 120.281L92.1219 121.055V121.57L93.225 122.678H93.6647V123.434L94.4729 123.711H95.1153L95.813 123.952H96.853V125.556L96.3501 125.815V124.808H95.8104V125.582H95.5629L95.0153 125.815L94.7467 126.135V127.141H95.2601V127.411L95.8236 127.953L96.3369 128.212H97.1084V128.74H97.9535L97.6349 127.942H97.3769V126.37L97.9166 126.137V127.379L98.4432 127.712V128.191L98.7249 128.46H99.2146L99.7648 128.214L99.9965 128.447V128.743L99.7648 129.013L99.52 129.282L98.9803 129.787V130.056H99.2383V130.352H99.7648L100.299 130.593H100.823V131.1H100.299V131.875L101.861 133.468L102.669 134.795L103.174 135.329H103.706V135.606L103.44 135.855V137.181L103.954 137.422H104.23V137.985L105.012 138.778L105.573 139.594L105.802 139.848H106.592V138.788H106.334V137.977L104.736 135.894L104.488 134.835H104.241V133.746L105.049 133.201L105.307 132.961L105.554 133.495L105.562 133.772V134.824L105.839 135.073V135.588H106.097V136.381L106.592 137.192L107.097 137.459V138.233H107.621L107.41 138.537V140.316L108.798 140.99L108.448 142.427L108.743 143.479L110.457 145.2L111.023 145.398L111.354 144.883H111.705L112.144 146.154L112.242 147.034L111.623 146.714H111.354V147.771L112.144 149.394L112.531 150.033L112.679 151.225L112.91 151.717L113.424 151.458V149.367L113.956 148.834L114.766 149.064H115.235V147.745L116.349 148.569L116.091 149.603H115.577V150.131L115.014 150.697L115.835 151.725L116.349 152L115.564 152.541L114.793 153.575V154.09L115.564 154.865H116.03L116.349 155.406H116.862L116.996 156.315L117.657 156.487L117.889 156.204H118.439V155.43L119.284 154.902L119.511 155.129H121.085L121.662 155.171L121.883 156.178L121.614 157.003V157.814L121.993 157.875L122.141 158.305L121.664 158.379L121.433 158.797L121.899 162.534L122.217 163.123L123.455 162.84V163.345L122.928 164.18V164.759L123.441 164.439L124.263 165.436H124.789L125.548 164.957V165.732L125.008 165.991L124.505 166.815L123.715 167.066L122.889 167.613L123.157 168.634L124.811 168.657L125.545 168.361L126.904 167.341L125.6 168.327L126.095 168.644H126.622V169.159L126.082 169.712L124.784 169.958L123.718 169.712L123.186 170.505V171.001L124.179 171.998L125.074 172.262L124.505 171.556H126.072L126.622 172.061L125.827 172.074V172.331L126.377 172.64L126.082 172.886L125.556 173.93L126.082 174.471H126.548L126.927 175.296H127.662L128.42 175.529L129.215 176.316L130.587 177.091H131.003L131.59 176.575L132.13 176.306V175.727L132.706 174.767L133.22 174.754L133.686 174.976L133.491 175.764L134.225 176.033H135.265L136.392 175.259L136.653 175.558L136.11 176.073V176.847L136.653 177.091H137.682L138.978 176.575L139.28 176.832L140.244 176.913L140.023 177.918H141.089L141.639 177.355H141.879V177.918L140.547 178.933H140.07L139.786 179.485L140.062 179.707H140.568L140.815 179.495L141.881 180.312L141.342 181.086H140.607L140.068 181.591V182.157L140.349 182.672L140.876 182.918L142.627 183.016L143.73 182.646L144.514 182.817L144.796 183.716H145.799L146.607 183.446L148.187 183.46L149.559 183.975V185.008L149.79 185.598L150.833 186.065V186.618L151.618 187.416L152.684 186.901C152.881 186.961 153.11 187.146 153.11 187.146L153.476 187.902L154.598 188.973L154.977 190.355L155.156 191.185L157.891 193.5V194.274L158.223 194.557L158.75 194.742L160.071 195.048L160.574 195.331L161.909 196.658L163.47 198.225L163.965 198.925L164.866 199.774L167.125 200.419L168.165 201.156L168.997 200.86V199.065L171.616 197.712V196.951L171.911 196.423H172.93L172.166 197.197V198.222L171.677 198.756L171.872 199.827L171.1 201.449V202.2L171.677 202.459L171.664 203.27L172.398 204.314L172.661 206.428L173.243 206.994V207.922H270.864V206.954L269.835 205.387L269.843 205.382Z" fill="#C1B59B" stroke="#736C5D" stroke-linecap="round" stroke-linejoin="round"/>
<path d="M87.6549 154.629L87.4022 153.837L87.9209 153.308L86.5887 152.782L86.3412 152.523L87.131 152.251V151.722L86.3333 151.204H86.07L85.5645 151.712L85.7988 152.238H85.2933L85.0011 151.725H84.5035L84.2376 151.455V150.398L84.8221 150.644L85.0327 150.39L84.7431 150.137V149.883H85.009L85.2723 149.346L85.5434 148.966L85.0195 148.826L84.2376 149.344L84.2429 149.883L83.7189 150.393V149.888L83.4241 149.352L83.453 148.551L82.9133 147.803L81.9971 147.232L81.6022 147.499L80.528 145.95V145.38L80.2858 144.833L80.8123 144.846L81.3758 145.388V146.172L82.1472 146.154L82.9186 145.633L83.1871 145.11L83.1766 144.058L82.9133 143.802H82.6553L82.3867 144.053L81.6074 144.33L81.0809 144.28L79.4907 144.071L79.7724 143.001L80.8176 142.198L80.8071 141.281L81.3336 140.353V139.811L80.8071 139.018L80.7992 137.441L79.7592 135.596L78.9562 134.552L78.1585 133.471V129.776L78.4613 128.476L78.1664 127.435L78.6903 126.346L78.8009 124.451L80.5148 121.721L81.0098 120.347L81.2941 117.701L81.0703 116.98L79.8645 119.16H78.9694L78.1743 120.009H76.3129L75.8232 120.55H74.9886L74.7569 120.244V119.493L74.4989 118.962L73.2378 118.706L71.1079 118.941L70.2628 117.884H69.7599L69.1596 118.423H68.1565L66.3189 117.133H66.0635L65.8186 117.931L65.5238 118.399V118.695L66.0556 119.226V120.27L65.2552 120.833L65.0156 122.123V123.183L65.4922 124.227L65.2736 124.52V124.768L66.1451 125.305L66.8428 126.087L67.3667 127.673L66.8533 128.191V128.466L67.422 128.992V129.536L69.5072 132.974L69.8047 134.261L70.7841 134.301L71.6108 136.074L71.3343 137.419L71.8767 138.239L73.7038 139.298L73.7328 139.843L74.6779 141.651L74.7701 142.203L77.3766 145.134H77.6714L79.5091 147.256L80.0225 147.777L80.757 147.999L81.5653 149.069L81.797 150.419H82.3499L82.5947 151.429L83.7321 153.052L84.0033 153.247L84.1981 152.793H84.4666V153.321L84.9827 154.365L85.7646 154.119L86.0726 154.365H86.8809V155.681L87.0889 156.456V156.923L87.3706 157.291H87.9077V157.008L87.6339 156.733V155.977L87.9077 155.694H88.4237L88.7291 155.385V154.931H88.2026L87.6549 154.629Z" fill="#C1B59B" stroke="#736C5D" stroke-linecap="round" stroke-linejoin="round"/>
<path d="M170.3 212.71H169.51V212.01L169.839 211.677H170.555L170.318 211.272L169.252 210.59V209.761L168.149 209.06V209.539L168.444 209.89V210.387H168.204L167.746 210.183L165.824 207.749L166.301 206.79L165.345 205.561L163.178 203.558L161.085 202.464L158.745 201.925L158.218 201.666L157.936 201.684L157.963 201.703L157.692 202.207L156.125 202.969H155.575L155.28 202.464H154.559L153.711 201.417L152.95 201.637H151.868L151.086 200.891L149.267 201.666L148.469 201.388L146.623 201.15H144.557L143.996 200.881L143.198 201.15H142.685L142.148 200.609H141.632L140.823 200.347L140.286 199.287L140.052 199.025H139.517L139.265 198.489L138.728 197.96L137.954 198.481L138.219 198.798L137.672 199.818V200.622L138.749 201.652H138.994L139.238 201.15L138.994 200.609L139.252 200.093L139.77 200.878L140.342 201.407L139.77 201.666V201.943L140.028 202.44V202.969L141.094 203.51V202.255L140.818 201.962L141.039 201.314L141.608 202.181H142.177V201.666L142.637 201.758V202.681L141.903 203.196V203.748H142.379L142.985 202.969L143.206 203.251H143.664L143.941 202.718L144.254 203.547H144.749V205.133L145.317 205.667V206.645L147.229 209.079L147.632 209.097L148.79 207.971V207.234H149.793V208.542H150.573L150.865 208.008H152.005L152.389 207.749L153.161 208.008L153.016 208.524L151.636 210.109L151.307 210.939L151.599 211.714L152.942 212.71L154.503 213.262L155.788 214.647L156.596 214.866L158.213 214.885L158.489 215.678L159.811 215.955L164.55 218.038L166.185 218.297L167.433 218.868H168.223L168.518 218.556V218.093L169.307 216.989H169.784V217.356L170.189 217.819L171.271 217.745L171.4 216.563L170.3 212.71Z" fill="#003366"/>
<rect width="104" height="24" transform="translate(108 162)" fill="white"/>
<path d="M123.322 176.228C123.322 177.115 123 177.824 122.356 178.356C121.721 178.879 120.816 179.14 119.64 179.14C118.585 179.14 117.643 178.939 116.812 178.538V176.564C117.288 176.769 117.778 176.961 118.282 177.138C118.795 177.306 119.304 177.39 119.808 177.39C120.331 177.39 120.699 177.292 120.914 177.096C121.138 176.891 121.25 176.634 121.25 176.326C121.25 176.074 121.161 175.859 120.984 175.682C120.816 175.505 120.587 175.341 120.298 175.192C120.009 175.033 119.677 174.865 119.304 174.688C119.071 174.576 118.819 174.445 118.548 174.296C118.277 174.137 118.016 173.946 117.764 173.722C117.521 173.489 117.321 173.209 117.162 172.882C117.003 172.555 116.924 172.163 116.924 171.706C116.924 170.81 117.227 170.115 117.834 169.62C118.441 169.116 119.267 168.864 120.312 168.864C120.835 168.864 121.329 168.925 121.796 169.046C122.263 169.167 122.757 169.34 123.28 169.564L122.594 171.216C122.137 171.029 121.726 170.885 121.362 170.782C120.998 170.679 120.625 170.628 120.242 170.628C119.841 170.628 119.533 170.721 119.318 170.908C119.103 171.095 118.996 171.337 118.996 171.636C118.996 171.991 119.155 172.271 119.472 172.476C119.789 172.681 120.261 172.933 120.886 173.232C121.399 173.475 121.833 173.727 122.188 173.988C122.552 174.249 122.832 174.557 123.028 174.912C123.224 175.267 123.322 175.705 123.322 176.228ZM131.915 175.164C131.915 176.433 131.579 177.413 130.907 178.104C130.244 178.795 129.339 179.14 128.191 179.14C127.482 179.14 126.847 178.986 126.287 178.678C125.736 178.37 125.302 177.922 124.985 177.334C124.668 176.737 124.509 176.013 124.509 175.164C124.509 173.895 124.84 172.919 125.503 172.238C126.166 171.557 127.076 171.216 128.233 171.216C128.952 171.216 129.586 171.37 130.137 171.678C130.688 171.986 131.122 172.434 131.439 173.022C131.756 173.61 131.915 174.324 131.915 175.164ZM126.637 175.164C126.637 175.92 126.758 176.494 127.001 176.886C127.253 177.269 127.659 177.46 128.219 177.46C128.77 177.46 129.166 177.269 129.409 176.886C129.661 176.494 129.787 175.92 129.787 175.164C129.787 174.408 129.661 173.843 129.409 173.47C129.166 173.087 128.765 172.896 128.205 172.896C127.654 172.896 127.253 173.087 127.001 173.47C126.758 173.843 126.637 174.408 126.637 175.164ZM133.597 176.34V171.356H135.683V175.822C135.683 176.382 135.781 176.797 135.977 177.068C136.173 177.339 136.486 177.474 136.915 177.474C137.55 177.474 137.984 177.259 138.217 176.83C138.45 176.391 138.567 175.766 138.567 174.954V171.356H140.653V179H139.057L138.777 178.02H138.665C138.422 178.412 138.086 178.697 137.657 178.874C137.237 179.051 136.789 179.14 136.313 179.14C135.492 179.14 134.834 178.921 134.339 178.482C133.844 178.034 133.597 177.32 133.597 176.34ZM143.218 171.342L143.82 169.732H145.15V171.356H147.292V172.924H145.15V176.606C145.15 176.895 145.234 177.115 145.402 177.264C145.57 177.404 145.789 177.474 146.06 177.474C146.293 177.474 146.517 177.455 146.732 177.418C146.947 177.371 147.161 177.311 147.376 177.236V178.79C147.152 178.893 146.872 178.977 146.536 179.042C146.209 179.107 145.85 179.14 145.458 179.14C145.122 179.14 144.805 179.098 144.506 179.014C144.217 178.939 143.965 178.809 143.75 178.622C143.535 178.426 143.367 178.165 143.246 177.838C143.125 177.511 143.064 177.101 143.064 176.606V172.924H142.07V172.042L143.218 171.342ZM148.91 168.36H150.996V170.53C150.996 170.922 150.982 171.286 150.954 171.622C150.936 171.958 150.917 172.196 150.898 172.336H151.01C151.253 171.944 151.561 171.659 151.934 171.482C152.317 171.305 152.746 171.216 153.222 171.216C153.633 171.216 154.006 171.272 154.342 171.384C154.678 171.487 154.968 171.655 155.21 171.888C155.453 172.112 155.64 172.401 155.77 172.756C155.901 173.101 155.966 173.521 155.966 174.016V179H153.88V174.534C153.88 173.433 153.47 172.882 152.648 172.882C152.023 172.882 151.589 173.097 151.346 173.526C151.113 173.955 150.996 174.581 150.996 175.402V179H148.91V168.36ZM161.104 170.208V169.004H165.654V170.208L164.436 170.768V177.236L165.654 177.796V179H161.104V177.796L162.322 177.236V170.768L161.104 170.208ZM172.524 176.732C172.524 177.507 172.248 178.104 171.698 178.524C171.156 178.935 170.344 179.14 169.262 179.14C168.73 179.14 168.272 179.103 167.89 179.028C167.507 178.963 167.124 178.851 166.742 178.692V176.97C167.152 177.157 167.596 177.311 168.072 177.432C168.548 177.553 168.968 177.614 169.332 177.614C169.733 177.614 170.022 177.553 170.2 177.432C170.377 177.311 170.466 177.152 170.466 176.956C170.466 176.825 170.428 176.709 170.354 176.606C170.288 176.503 170.139 176.387 169.906 176.256C169.672 176.125 169.308 175.957 168.814 175.752C168.328 175.547 167.932 175.346 167.624 175.15C167.325 174.945 167.101 174.702 166.952 174.422C166.802 174.133 166.728 173.773 166.728 173.344C166.728 172.635 167.003 172.103 167.554 171.748C168.104 171.393 168.837 171.216 169.752 171.216C170.228 171.216 170.68 171.263 171.11 171.356C171.539 171.449 171.982 171.603 172.44 171.818L171.81 173.316C171.436 173.157 171.082 173.027 170.746 172.924C170.41 172.812 170.069 172.756 169.724 172.756C169.108 172.756 168.8 172.924 168.8 173.26C168.8 173.381 168.837 173.493 168.912 173.596C168.996 173.689 169.15 173.792 169.374 173.904C169.607 174.016 169.948 174.165 170.396 174.352C170.834 174.529 171.212 174.716 171.53 174.912C171.847 175.099 172.09 175.337 172.258 175.626C172.435 175.915 172.524 176.284 172.524 176.732ZM176.235 179H174.149V168.36H176.235V179ZM181.326 174.282L182.656 174.24V173.904C182.656 173.503 182.549 173.209 182.334 173.022C182.129 172.835 181.84 172.742 181.466 172.742C181.093 172.742 180.729 172.798 180.374 172.91C180.02 173.013 179.665 173.143 179.31 173.302L178.624 171.888C179.026 171.683 179.478 171.519 179.982 171.398C180.486 171.267 181.009 171.202 181.55 171.202C182.586 171.202 183.375 171.421 183.916 171.86C184.458 172.299 184.728 172.98 184.728 173.904V179H183.272L182.866 177.964H182.81C182.642 178.169 182.474 178.347 182.306 178.496C182.148 178.645 181.97 178.767 181.774 178.86C181.578 178.953 181.359 179.023 181.116 179.07C180.874 179.117 180.594 179.14 180.276 179.14C179.94 179.14 179.628 179.093 179.338 179C179.049 178.897 178.797 178.748 178.582 178.552C178.377 178.356 178.214 178.109 178.092 177.81C177.971 177.502 177.91 177.138 177.91 176.718C177.91 175.906 178.195 175.309 178.764 174.926C179.334 174.543 180.188 174.329 181.326 174.282ZM180.052 176.732C180.052 177.049 180.146 177.278 180.332 177.418C180.519 177.549 180.762 177.614 181.06 177.614C181.508 177.614 181.886 177.483 182.194 177.222C182.502 176.951 182.656 176.573 182.656 176.088V175.458L181.844 175.486C181.172 175.505 180.706 175.626 180.444 175.85C180.183 176.074 180.052 176.368 180.052 176.732ZM186.863 171.356H188.459L188.739 172.336H188.851C189.094 171.944 189.425 171.659 189.845 171.482C190.275 171.305 190.727 171.216 191.203 171.216C192.025 171.216 192.683 171.44 193.177 171.888C193.672 172.327 193.919 173.036 193.919 174.016V179H191.833V174.534C191.833 173.974 191.735 173.559 191.539 173.288C191.343 173.017 191.031 172.882 190.601 172.882C189.967 172.882 189.533 173.101 189.299 173.54C189.066 173.969 188.949 174.59 188.949 175.402V179H186.863V171.356ZM198.487 179.14C197.637 179.14 196.942 178.809 196.401 178.146C195.869 177.474 195.603 176.489 195.603 175.192C195.603 173.885 195.873 172.896 196.415 172.224C196.956 171.552 197.665 171.216 198.543 171.216C199.093 171.216 199.546 171.323 199.901 171.538C200.255 171.753 200.535 172.019 200.741 172.336H200.811C200.783 172.187 200.75 171.972 200.713 171.692C200.675 171.403 200.657 171.109 200.657 170.81V168.36H202.743V179H201.147L200.741 178.006H200.657C200.451 178.323 200.176 178.594 199.831 178.818C199.485 179.033 199.037 179.14 198.487 179.14ZM199.215 177.474C199.784 177.474 200.185 177.306 200.419 176.97C200.652 176.625 200.778 176.111 200.797 175.43V175.206C200.797 174.469 200.68 173.904 200.447 173.512C200.223 173.111 199.803 172.91 199.187 172.91C198.729 172.91 198.37 173.111 198.109 173.512C197.847 173.904 197.717 174.473 197.717 175.22C197.717 175.967 197.847 176.531 198.109 176.914C198.37 177.287 198.739 177.474 199.215 177.474Z" fill="#003366"/>
</g>
<defs>
<clipPath id="clip0_13898_192281">
<rect width="272" height="220" fill="white"/>
</clipPath>
</defs>
</svg>
