<svg width="272" height="220" viewBox="0 0 272 220" fill="none" xmlns="http://www.w3.org/2000/svg">
<g clip-path="url(#clip0_13898_192456)">
<path d="M169.513 212.71V212.01L169.844 211.677H170.561L170.321 211.273L169.255 210.591V209.761L168.152 209.061V209.539L168.446 209.89V210.387H168.207L167.749 210.184L165.827 207.75L166.303 206.79L165.348 205.561L163.181 203.558L161.088 202.464L158.75 201.922L158.223 201.663L157.939 201.682L157.965 201.7L157.133 201.148L156.08 200.337L155.272 199.549L153.766 197.472L152.945 196.893V196.378L153.458 196.658H153.716L154.011 196.378V195.849L153.497 195.297H152.91V194.818L151.881 193.97V193.492L150.57 192.657V191.882L150.062 191.092L150.32 190.577L150.062 190.024L148.74 188.743V188.18L148.464 187.408L148.169 187.12V186.335L147.884 185.783L146.855 185.027L146.165 185.212L144.567 185.312L144.017 184.768H142.382L141.655 183.983L140.544 183.457H139.533L139.251 183.177H136.642L136.384 182.685H134.989L133.715 182.144H132.675L131.535 181.308H129.918V180.867L128.57 180.278L126.588 178.716L124.213 177.389L122.204 176.768L121.496 176.057H119.829L118.8 176.567L117.623 177.355H116.375L115.641 177.624L116.075 178.362L116.599 178.528L116.636 179.458L117.131 179.966L117.426 181.248L118.189 182.077L118.971 182.889L119.824 183.203L119.75 182.614L119.795 182.107L120.301 182.373V182.87L121.238 182.788L121.714 183.23L121.117 184.226L120.29 185.008L120.548 185.82L121.072 185.812L121.349 185.259H121.872L122.13 185.582V186.293L122.71 186.615V187.411L121.08 188.727V189.517L122.183 190.019L123.665 188.999L124.242 188.986L125.6 189.81H126.066L126.888 190.561L127.941 190.302L128.186 189.319L127.891 188.484L128.16 188.47L128.441 188.74L128.773 189.232L129.41 189.353L129.766 188.973L130.268 188.959L130.282 189.514L129.034 190.323L129.242 190.828L129.768 190.804V191.137L128.739 191.629L128.984 192.686L129.779 193.484H131.09V192.918L131.566 193.214H131.872V192.686L132.14 192.427L132.372 193.225L132.941 192.836L132.885 191.602L133.425 191.898L133.638 192.802L133.07 193.484L131.869 194.012L132.138 194.517H132.896L132.956 194.784L132.148 195.336L131.89 196.129L132.459 196.655H132.946L133.222 196.914V197.44L134.241 197.966L134.747 197.958L135.297 196.917V196.391L135.555 196.124H136.116L136.898 195.561V195.091L136.632 194.546H137.377L137.661 195.302L136.898 196.121L136.879 196.674L137.661 196.904L137.946 196.645L138.743 196.83L138.504 197.189L138.154 197.448H137.685L137.143 197.171L136.087 198.23L136.634 199.821H137.672V200.625L138.749 201.658H138.993L139.238 201.153L138.993 200.611L139.251 200.096L139.773 200.884L140.341 201.412L139.773 201.671V201.949L140.031 202.446V202.974L141.097 203.516V202.263L140.821 201.967L141.042 201.322L141.61 202.189H142.179V201.674L142.637 201.766V202.689L141.903 203.204V203.756H142.379L142.985 202.977L143.206 203.26H143.664L143.94 202.726L144.254 203.556H144.749V205.141L145.317 205.675V206.653L147.229 209.087L147.632 209.105L148.79 207.98V207.242H149.793V208.55H150.572L150.867 208.017H152.007L152.394 207.758L153.166 208.017L153.018 208.532L151.641 210.118L151.31 210.947L151.604 211.722L152.945 212.718L154.506 213.271L155.791 214.653L156.599 214.875L158.215 214.893L158.492 215.686L159.813 215.964L164.552 218.046L166.187 218.305L167.435 218.876H168.225L168.52 218.561V218.102L169.31 216.994H169.786V217.364L170.189 217.824L171.274 217.75L171.403 216.569L170.3 212.716H169.51L169.513 212.71Z" fill="#C1B59B" stroke="#736C5D" stroke-linecap="round" stroke-linejoin="round"/>
<path d="M269.843 205.382L269.09 204.848H267.758L267.281 203.521L264.59 200.876V200.35L265.399 199.557V198.497L264.058 198.764L263.498 197.445L264.085 196.893V196.137H264.819V193.74L264.535 192.155V190.339L263.782 189.509V187.968L263.524 186.605L262.974 185.838L263.25 185.286L262.231 184.467V183.719L260.625 181.322L259.836 180.777L259.322 181.597L258.377 182.067L257.469 180.822V178.94L255.613 178.415L254.299 175.769V174.984L253.232 173.665H252.451L252.716 172.846L249.768 172.08L250.118 171.001L249.841 170.217L247.996 169.397V168.9H246.93L246.672 168.1V166.514L245.616 165.729V164.936L244.818 163.377L243.523 162.851V161.773L242.98 161.239V160.309H241.696L241.153 162.013H239.821L239.574 160.187L239.042 159.653V158.575L238.27 158.298L237.417 157.026L236.109 155.705L235.864 153.517L235.079 154.389L232.936 154.635L232.239 153.823V153.281H230.88L230.34 152.803L230.119 151.992L231.159 151.167L231.612 150.332L231.122 149.582H230.106L228.258 148.009L227.708 148.797L227.684 149.645L225.646 150.396V149.079L226.394 148.527V148.086H225.672L225.341 147.753V146.701H224.556V145.871L225.217 145.379V144.568L224.83 143.529L223.79 143.271V142.742L224.298 142.464V141.82H223.495L223.25 140.622L221.929 141.391L221.689 140.107L220.857 139.555L221.689 139.198L221.407 138.492L220.115 138.247L220.328 136.666L218.503 135.326V134.816L217.187 134.798L217.474 136.407L217.198 136.912L215.876 135.332L215.607 135.609H214.823L213.793 133.653V132.977L213.488 132.448H210.315L209.42 131.772V131.034L208.954 129.805H207.988L207.767 129.573L208.257 129.031L207.485 128.183L207.643 127.741L209.31 128.566L209.665 127.398L208.728 126.145H207.809L207.956 124.911H207.075L206.798 124.409V1.13232H1.13281L1.70149 1.64767L4.97141 3.34435L5.46111 5.85238L17.1928 18.0701L18.1222 22.4836L17.8826 24.6031H18.4328L25.3123 19.2831H28.1399L29.1772 12.9483L30.4989 13.2337L31.839 11.6216L30.4884 10.0624L32.0944 8.99204L34.4639 8.73304L39.7531 5.58017L42.6545 7.91377L44.766 10.8367V12.7263L43.9129 13.5192L44.9871 14.571L44.5 15.3638L45.5295 16.6905L48.4124 17.2059V18.5431L49.734 19.8698H50.516L51.5533 21.6854V23.2791L53.1408 25.3986L57.6587 28.5779L62.3714 34.3868L61.5895 35.4201L68.0003 46.0416L74.7323 59.2239L73.4475 61.5945L74.4848 62.1283L76.8543 62.4058V63.7061L76.3304 63.9836L76.0645 66.0952L78.6815 67.147L78.9474 69.2666V71.3782H82.1252L87.0537 75.2023L90.4579 76.0744L92.393 77.9984L93.9464 78.2389L94.336 80.3584H95.0758L96.0684 81.4208L97.6612 80.6333L98.738 82.7608V85.1076L97.3901 87.2218V88.8075L97.8929 92.7902L98.4326 93.5646L98.4458 95.6788L99.2672 96.7491L97.1742 99.5875L94.9705 104.382L91.8665 106.263V106.797L92.1061 107.048H94.0043L95.0443 107.294V108.88H94.7625L94.2491 109.176L94.236 111.832L94.7494 112.091V112.632H93.72V113.653L94.7599 114.71L94.4545 115.006H93.9516V115.51L94.2018 115.761H94.9784L95.2733 116.076V116.605L95.7999 117.133L96.0579 117.611L95.813 117.931L96.3633 118.399H96.8582L98.1562 118.851L97.9429 120.223V122.398L97.3374 122.675H96.3633L96.0684 122.086V120.759L95.5629 120.04L94.7099 119.173H94.0122L93.4619 119.469L92.8933 119.985L92.3983 120.281L92.1219 121.055V121.57L93.225 122.678H93.6647V123.434L94.4729 123.711H95.1153L95.813 123.952H96.853V125.556L96.3501 125.815V124.808H95.8104V125.582H95.5629L95.0153 125.815L94.7467 126.135V127.141H95.2601V127.411L95.8236 127.953L96.3369 128.212H97.1084V128.74H97.9535L97.6349 127.942H97.3769V126.37L97.9166 126.137V127.379L98.4432 127.712V128.191L98.7249 128.46H99.2146L99.7648 128.214L99.9965 128.447V128.743L99.7648 129.013L99.52 129.282L98.9803 129.787V130.056H99.2383V130.352H99.7648L100.299 130.593H100.823V131.1H100.299V131.875L101.861 133.468L102.669 134.795L103.174 135.329H103.706V135.606L103.44 135.855V137.181L103.954 137.422H104.23V137.985L105.012 138.778L105.573 139.594L105.802 139.848H106.592V138.788H106.334V137.977L104.736 135.894L104.488 134.835H104.241V133.746L105.049 133.201L105.307 132.961L105.554 133.495L105.562 133.772V134.824L105.839 135.073V135.588H106.097V136.381L106.592 137.192L107.097 137.459V138.233H107.621L107.41 138.537V140.316L108.798 140.99L108.448 142.427L108.743 143.479L110.457 145.2L111.023 145.398L111.354 144.883H111.705L112.144 146.154L112.242 147.034L111.623 146.714H111.354V147.771L112.144 149.394L112.531 150.033L112.679 151.225L112.91 151.717L113.424 151.458V149.367L113.956 148.834L114.766 149.064H115.235V147.745L116.349 148.569L116.091 149.603H115.577V150.131L115.014 150.697L115.835 151.725L116.349 152L115.564 152.541L114.793 153.575V154.09L115.564 154.865H116.03L116.349 155.406H116.862L116.996 156.315L117.657 156.487L117.889 156.204H118.439V155.43L119.284 154.902L119.511 155.129H121.085L121.662 155.171L121.883 156.178L121.614 157.003V157.814L121.993 157.875L122.141 158.305L121.664 158.379L121.433 158.797L121.899 162.534L122.217 163.123L123.455 162.84V163.345L122.928 164.18V164.759L123.441 164.439L124.263 165.436H124.789L125.548 164.957V165.732L125.008 165.991L124.505 166.815L123.715 167.066L122.889 167.613L123.157 168.634L124.811 168.657L125.545 168.361L126.904 167.341L125.6 168.327L126.095 168.644H126.622V169.159L126.082 169.712L124.784 169.958L123.718 169.712L123.186 170.505V171.001L124.179 171.998L125.074 172.262L124.505 171.556H126.072L126.622 172.061L125.827 172.074V172.331L126.377 172.64L126.082 172.886L125.556 173.93L126.082 174.471H126.548L126.927 175.296H127.662L128.42 175.529L129.215 176.316L130.587 177.091H131.003L131.59 176.575L132.13 176.306V175.727L132.706 174.767L133.22 174.754L133.686 174.976L133.491 175.764L134.225 176.033H135.265L136.392 175.259L136.653 175.558L136.11 176.073V176.847L136.653 177.091H137.682L138.978 176.575L139.28 176.832L140.244 176.913L140.023 177.918H141.089L141.639 177.355H141.879V177.918L140.547 178.933H140.07L139.786 179.485L140.062 179.707H140.568L140.815 179.495L141.881 180.312L141.342 181.086H140.607L140.068 181.591V182.157L140.349 182.672L140.876 182.918L142.627 183.016L143.73 182.646L144.514 182.817L144.796 183.716H145.799L146.607 183.446L148.187 183.46L149.559 183.975V185.008L149.79 185.598L150.833 186.065V186.618L151.618 187.416L152.684 186.901C152.881 186.961 153.11 187.146 153.11 187.146L153.476 187.902L154.598 188.973L154.977 190.355L155.156 191.185L157.891 193.5V194.274L158.223 194.557L158.75 194.742L160.071 195.048L160.574 195.331L161.909 196.658L163.47 198.225L163.965 198.925L164.866 199.774L167.125 200.419L168.165 201.156L168.997 200.86V199.065L171.616 197.712V196.951L171.911 196.423H172.93L172.166 197.197V198.222L171.677 198.756L171.872 199.827L171.1 201.449V202.2L171.677 202.459L171.664 203.27L172.398 204.314L172.661 206.428L173.243 206.994V207.922H270.864V206.954L269.835 205.387L269.843 205.382Z" fill="#C1B59B" stroke="#736C5D" stroke-linecap="round" stroke-linejoin="round"/>
<path d="M87.6549 154.629L87.4022 153.837L87.9209 153.308L86.5887 152.782L86.3412 152.523L87.131 152.251V151.722L86.3333 151.204H86.07L85.5645 151.712L85.7988 152.238H85.2933L85.0011 151.725H84.5035L84.2376 151.455V150.398L84.8221 150.644L85.0327 150.39L84.7431 150.137V149.883H85.009L85.2723 149.346L85.5434 148.966L85.0195 148.826L84.2376 149.344L84.2429 149.883L83.7189 150.393V149.888L83.4241 149.352L83.453 148.551L82.9133 147.803L81.9971 147.232L81.6022 147.499L80.528 145.95V145.38L80.2858 144.833L80.8123 144.846L81.3758 145.388V146.172L82.1472 146.154L82.9186 145.633L83.1871 145.11L83.1766 144.058L82.9133 143.802H82.6553L82.3867 144.053L81.6074 144.33L81.0809 144.28L79.4907 144.071L79.7724 143.001L80.8176 142.198L80.8071 141.281L81.3336 140.353V139.811L80.8071 139.018L80.7992 137.441L79.7592 135.596L78.9562 134.552L78.1585 133.471V129.776L78.4613 128.476L78.1664 127.435L78.6903 126.346L78.8009 124.451L80.5148 121.721L81.0098 120.347L81.2941 117.701L81.0703 116.98L79.8645 119.16H78.9694L78.1743 120.009H76.3129L75.8232 120.55H74.9886L74.7569 120.244V119.493L74.4989 118.962L73.2378 118.706L71.1079 118.941L70.2628 117.884H69.7599L69.1596 118.423H68.1565L66.3189 117.133H66.0635L65.8186 117.931L65.5238 118.399V118.695L66.0556 119.226V120.27L65.2552 120.833L65.0156 122.123V123.183L65.4922 124.227L65.2736 124.52V124.768L66.1451 125.305L66.8428 126.087L67.3667 127.673L66.8533 128.191V128.466L67.422 128.992V129.536L69.5072 132.974L69.8047 134.261L70.7841 134.301L71.6108 136.074L71.3343 137.419L71.8767 138.239L73.7038 139.298L73.7328 139.843L74.6779 141.651L74.7701 142.203L77.3766 145.134H77.6714L79.5091 147.256L80.0225 147.777L80.757 147.999L81.5653 149.069L81.797 150.419H82.3499L82.5947 151.429L83.7321 153.052L84.0033 153.247L84.1981 152.793H84.4666V153.321L84.9827 154.365L85.7646 154.119L86.0726 154.365H86.8809V155.681L87.0889 156.456V156.923L87.3706 157.291H87.9077V157.008L87.6339 156.733V155.977L87.9077 155.694H88.4237L88.7291 155.385V154.931H88.2026L87.6549 154.629Z" fill="#C1B59B" stroke="#736C5D" stroke-linecap="round" stroke-linejoin="round"/>
<path d="M195.999 204.8V205.871L195.117 206.405L195.717 207.916H227.763V204.861L227.421 203.78H226.807L225.13 201.407V198.801H225.583L225.878 197.596L225.265 195.199L224.801 194.266H224.067L224.556 193.222L223.772 192.694L222.732 190.061L223.232 189.768L223.967 190.061L225.536 189.017L225.841 187.408L225.338 186.324L225.754 185.87L225.057 185.294L225.375 183.964H226.428L226.95 182.921L225.891 182.551V181.84L226.478 181.544L226.123 178.668L225.365 178.422L225.609 176.025H224.812V175.996L223.524 176.554L222.469 175.243H221.65L221.41 175.788L221.099 177.355L219.528 177.077V177.603L219.033 178.692L217.948 178.407H215.873V179.207L215.073 180.545H214.265V181.604L214.56 182.397H215.073V183.172L213.999 184.482L212.474 184.757L211.411 183.957L211.179 183.182L210.345 183.957L210.621 184.987L210.097 186.317L209.27 187.141L208.733 188.478L209.784 189.533L209.315 190.326L208.746 190.844L205.882 191.092V190.326L204.292 191.385V191.866L204.842 192.649V193.479L204.558 193.775H204.007V193.212L203.025 192.456L201.627 193.489L200.324 193.222V191.885L199.553 191.626L199.268 192.982H198.368L197.175 193.497L196.925 195.064L195.633 197.498V198.217L194.916 199.232V201.703L195.633 202.773L195.274 203.804L193.979 203.289L193.5 204.026L194.824 204.8H195.999Z" fill="#003366"/>
<rect width="89" height="24" transform="translate(172.5 143)" fill="white"/>
<path d="M190.832 154.988C190.832 156.024 190.659 156.929 190.314 157.704C189.978 158.469 189.455 159.067 188.746 159.496C188.046 159.925 187.155 160.14 186.072 160.14C184.989 160.14 184.093 159.925 183.384 159.496C182.684 159.067 182.161 158.465 181.816 157.69C181.48 156.915 181.312 156.01 181.312 154.974C181.312 153.938 181.48 153.037 181.816 152.272C182.161 151.507 182.684 150.914 183.384 150.494C184.093 150.065 184.994 149.85 186.086 149.85C187.169 149.85 188.06 150.065 188.76 150.494C189.46 150.914 189.978 151.511 190.314 152.286C190.659 153.051 190.832 153.952 190.832 154.988ZM183.538 154.988C183.538 156.033 183.739 156.859 184.14 157.466C184.541 158.063 185.185 158.362 186.072 158.362C186.977 158.362 187.626 158.063 188.018 157.466C188.41 156.859 188.606 156.033 188.606 154.988C188.606 153.943 188.41 153.121 188.018 152.524C187.626 151.917 186.982 151.614 186.086 151.614C185.19 151.614 184.541 151.917 184.14 152.524C183.739 153.121 183.538 153.943 183.538 154.988ZM192.735 149.36H194.821V154.12C194.821 154.409 194.807 154.699 194.779 154.988C194.76 155.268 194.737 155.553 194.709 155.842H194.737C194.774 155.786 194.802 155.749 194.821 155.73C194.951 155.543 195.082 155.366 195.213 155.198C195.343 155.021 195.488 154.848 195.647 154.68L197.789 152.356H200.141L197.103 155.674L200.323 160H197.915L195.717 156.906L194.821 157.62V160H192.735V149.36ZM204.328 155.282L205.658 155.24V154.904C205.658 154.503 205.551 154.209 205.336 154.022C205.131 153.835 204.842 153.742 204.468 153.742C204.095 153.742 203.731 153.798 203.376 153.91C203.022 154.013 202.667 154.143 202.312 154.302L201.626 152.888C202.028 152.683 202.48 152.519 202.984 152.398C203.488 152.267 204.011 152.202 204.552 152.202C205.588 152.202 206.377 152.421 206.918 152.86C207.46 153.299 207.73 153.98 207.73 154.904V160H206.274L205.868 158.964H205.812C205.644 159.169 205.476 159.347 205.308 159.496C205.15 159.645 204.972 159.767 204.776 159.86C204.58 159.953 204.361 160.023 204.118 160.07C203.876 160.117 203.596 160.14 203.278 160.14C202.942 160.14 202.63 160.093 202.34 160C202.051 159.897 201.799 159.748 201.584 159.552C201.379 159.356 201.216 159.109 201.094 158.81C200.973 158.502 200.912 158.138 200.912 157.718C200.912 156.906 201.197 156.309 201.766 155.926C202.336 155.543 203.19 155.329 204.328 155.282ZM203.054 157.732C203.054 158.049 203.148 158.278 203.334 158.418C203.521 158.549 203.764 158.614 204.062 158.614C204.51 158.614 204.888 158.483 205.196 158.222C205.504 157.951 205.658 157.573 205.658 157.088V156.458L204.846 156.486C204.174 156.505 203.708 156.626 203.446 156.85C203.185 157.074 203.054 157.368 203.054 157.732ZM209.865 152.356H211.461L211.741 153.336H211.853C212.096 152.944 212.427 152.659 212.847 152.482C213.277 152.305 213.729 152.216 214.205 152.216C215.027 152.216 215.685 152.44 216.179 152.888C216.674 153.327 216.921 154.036 216.921 155.016V160H214.835V155.534C214.835 154.974 214.737 154.559 214.541 154.288C214.345 154.017 214.033 153.882 213.603 153.882C212.969 153.882 212.535 154.101 212.301 154.54C212.068 154.969 211.951 155.59 211.951 156.402V160H209.865V152.356ZM221.979 155.282L223.309 155.24V154.904C223.309 154.503 223.201 154.209 222.987 154.022C222.781 153.835 222.492 153.742 222.119 153.742C221.745 153.742 221.381 153.798 221.027 153.91C220.672 154.013 220.317 154.143 219.963 154.302L219.277 152.888C219.678 152.683 220.131 152.519 220.635 152.398C221.139 152.267 221.661 152.202 222.203 152.202C223.239 152.202 224.027 152.421 224.569 152.86C225.11 153.299 225.381 153.98 225.381 154.904V160H223.925L223.519 158.964H223.463C223.295 159.169 223.127 159.347 222.959 159.496C222.8 159.645 222.623 159.767 222.427 159.86C222.231 159.953 222.011 160.023 221.769 160.07C221.526 160.117 221.246 160.14 220.929 160.14C220.593 160.14 220.28 160.093 219.991 160C219.701 159.897 219.449 159.748 219.235 159.552C219.029 159.356 218.866 159.109 218.745 158.81C218.623 158.502 218.563 158.138 218.563 157.718C218.563 156.906 218.847 156.309 219.417 155.926C219.986 155.543 220.84 155.329 221.979 155.282ZM220.705 157.732C220.705 158.049 220.798 158.278 220.985 158.418C221.171 158.549 221.414 158.614 221.713 158.614C222.161 158.614 222.539 158.483 222.847 158.222C223.155 157.951 223.309 157.573 223.309 157.088V156.458L222.497 156.486C221.825 156.505 221.358 156.626 221.097 156.85C220.835 157.074 220.705 157.368 220.705 157.732ZM229.994 152.216C230.936 152.216 231.674 152.589 232.206 153.336H232.262L232.43 152.356H234.194V160.014C234.194 161.106 233.872 161.937 233.228 162.506C232.584 163.075 231.632 163.36 230.372 163.36C229.83 163.36 229.326 163.327 228.86 163.262C228.402 163.197 227.954 163.08 227.516 162.912V161.246C228.449 161.638 229.443 161.834 230.498 161.834C231.571 161.834 232.108 161.255 232.108 160.098V159.944C232.108 159.795 232.112 159.636 232.122 159.468C232.131 159.291 232.145 159.137 232.164 159.006H232.108C231.846 159.407 231.534 159.697 231.17 159.874C230.806 160.051 230.395 160.14 229.938 160.14C229.032 160.14 228.323 159.795 227.81 159.104C227.306 158.404 227.054 157.433 227.054 156.192C227.054 154.941 227.315 153.966 227.838 153.266C228.36 152.566 229.079 152.216 229.994 152.216ZM230.652 153.91C229.672 153.91 229.182 154.68 229.182 156.22C229.182 157.741 229.681 158.502 230.68 158.502C231.212 158.502 231.604 158.353 231.856 158.054C232.117 157.746 232.248 157.214 232.248 156.458V156.206C232.248 155.385 232.122 154.797 231.87 154.442C231.618 154.087 231.212 153.91 230.652 153.91ZM239.287 155.282L240.617 155.24V154.904C240.617 154.503 240.51 154.209 240.295 154.022C240.09 153.835 239.801 153.742 239.427 153.742C239.054 153.742 238.69 153.798 238.335 153.91C237.981 154.013 237.626 154.143 237.271 154.302L236.585 152.888C236.987 152.683 237.439 152.519 237.943 152.398C238.447 152.267 238.97 152.202 239.511 152.202C240.547 152.202 241.336 152.421 241.877 152.86C242.419 153.299 242.689 153.98 242.689 154.904V160H241.233L240.827 158.964H240.771C240.603 159.169 240.435 159.347 240.267 159.496C240.109 159.645 239.931 159.767 239.735 159.86C239.539 159.953 239.32 160.023 239.077 160.07C238.835 160.117 238.555 160.14 238.237 160.14C237.901 160.14 237.589 160.093 237.299 160C237.01 159.897 236.758 159.748 236.543 159.552C236.338 159.356 236.175 159.109 236.053 158.81C235.932 158.502 235.871 158.138 235.871 157.718C235.871 156.906 236.156 156.309 236.725 155.926C237.295 155.543 238.149 155.329 239.287 155.282ZM238.013 157.732C238.013 158.049 238.107 158.278 238.293 158.418C238.48 158.549 238.723 158.614 239.021 158.614C239.469 158.614 239.847 158.483 240.155 158.222C240.463 157.951 240.617 157.573 240.617 157.088V156.458L239.805 156.486C239.133 156.505 238.667 156.626 238.405 156.85C238.144 157.074 238.013 157.368 238.013 157.732ZM244.824 152.356H246.42L246.7 153.336H246.812C247.055 152.944 247.386 152.659 247.806 152.482C248.236 152.305 248.688 152.216 249.164 152.216C249.986 152.216 250.644 152.44 251.138 152.888C251.633 153.327 251.88 154.036 251.88 155.016V160H249.794V155.534C249.794 154.974 249.696 154.559 249.5 154.288C249.304 154.017 248.992 153.882 248.562 153.882C247.928 153.882 247.494 154.101 247.26 154.54C247.027 154.969 246.91 155.59 246.91 156.402V160H244.824V152.356Z" fill="#003366"/>
</g>
<defs>
<clipPath id="clip0_13898_192456">
<rect width="272" height="220" fill="white"/>
</clipPath>
</defs>
</svg>
