<svg width="272" height="220" viewBox="0 0 272 220" fill="none" xmlns="http://www.w3.org/2000/svg">
<g clip-path="url(#clip0_13898_192386)">
<path d="M169.513 212.71V212.01L169.844 211.677H170.561L170.321 211.273L169.255 210.591V209.761L168.152 209.061V209.539L168.446 209.89V210.387H168.207L167.749 210.184L165.827 207.75L166.303 206.79L165.348 205.561L163.181 203.558L161.088 202.464L158.75 201.922L158.223 201.663L157.939 201.682L157.965 201.7L157.133 201.148L156.08 200.337L155.272 199.549L153.766 197.472L152.945 196.893V196.378L153.458 196.658H153.716L154.011 196.378V195.849L153.497 195.297H152.91V194.818L151.881 193.97V193.492L150.57 192.657V191.882L150.062 191.092L150.32 190.577L150.062 190.024L148.74 188.743V188.18L148.464 187.408L148.169 187.12V186.335L147.884 185.783L146.855 185.027L146.165 185.212L144.567 185.312L144.017 184.768H142.382L141.655 183.983L140.544 183.457H139.533L139.251 183.177H136.642L136.384 182.685H134.989L133.715 182.144H132.675L131.535 181.308H129.918V180.867L128.57 180.278L126.588 178.716L124.213 177.389L122.204 176.768L121.496 176.057H119.829L118.8 176.567L117.623 177.355H116.375L115.641 177.624L116.075 178.362L116.599 178.528L116.636 179.458L117.131 179.966L117.426 181.248L118.189 182.077L118.971 182.889L119.824 183.203L119.75 182.614L119.795 182.107L120.301 182.373V182.87L121.238 182.788L121.714 183.23L121.117 184.226L120.29 185.008L120.548 185.82L121.072 185.812L121.349 185.259H121.872L122.13 185.582V186.293L122.71 186.615V187.411L121.08 188.727V189.517L122.183 190.019L123.665 188.999L124.242 188.986L125.6 189.81H126.066L126.888 190.561L127.941 190.302L128.186 189.319L127.891 188.484L128.16 188.47L128.441 188.74L128.773 189.232L129.41 189.353L129.766 188.973L130.268 188.959L130.282 189.514L129.034 190.323L129.242 190.828L129.768 190.804V191.137L128.739 191.629L128.984 192.686L129.779 193.484H131.09V192.918L131.566 193.214H131.872V192.686L132.14 192.427L132.372 193.225L132.941 192.836L132.885 191.602L133.425 191.898L133.638 192.802L133.07 193.484L131.869 194.012L132.138 194.517H132.896L132.956 194.784L132.148 195.336L131.89 196.129L132.459 196.655H132.946L133.222 196.914V197.44L134.241 197.966L134.747 197.958L135.297 196.917V196.391L135.555 196.124H136.116L136.898 195.561V195.091L136.632 194.546H137.377L137.661 195.302L136.898 196.121L136.879 196.674L137.661 196.904L137.946 196.645L138.743 196.83L138.504 197.189L138.154 197.448H137.685L137.143 197.171L136.087 198.23L136.634 199.821H137.672V200.625L138.749 201.658H138.993L139.238 201.153L138.993 200.611L139.251 200.096L139.773 200.884L140.341 201.412L139.773 201.671V201.949L140.031 202.446V202.974L141.097 203.516V202.263L140.821 201.967L141.042 201.322L141.61 202.189H142.179V201.674L142.637 201.766V202.689L141.903 203.204V203.756H142.379L142.985 202.977L143.206 203.26H143.664L143.94 202.726L144.254 203.556H144.749V205.141L145.317 205.675V206.653L147.229 209.087L147.632 209.105L148.79 207.98V207.242H149.793V208.55H150.572L150.867 208.017H152.007L152.394 207.758L153.166 208.017L153.018 208.532L151.641 210.118L151.31 210.947L151.604 211.722L152.945 212.718L154.506 213.271L155.791 214.653L156.599 214.875L158.215 214.893L158.492 215.686L159.813 215.964L164.552 218.046L166.187 218.305L167.435 218.876H168.225L168.52 218.561V218.102L169.31 216.994H169.786V217.364L170.189 217.824L171.274 217.75L171.403 216.569L170.3 212.716H169.51L169.513 212.71Z" fill="#C1B59B" stroke="#736C5D" stroke-linecap="round" stroke-linejoin="round"/>
<path d="M269.843 205.382L269.09 204.848H267.758L267.281 203.521L264.59 200.876V200.35L265.399 199.557V198.497L264.058 198.764L263.498 197.445L264.085 196.893V196.137H264.819V193.74L264.535 192.155V190.339L263.782 189.509V187.968L263.524 186.605L262.974 185.838L263.25 185.286L262.231 184.467V183.719L260.625 181.322L259.836 180.777L259.322 181.597L258.377 182.067L257.469 180.822V178.94L255.613 178.415L254.299 175.769V174.984L253.232 173.665H252.451L252.716 172.846L249.768 172.08L250.118 171.001L249.841 170.217L247.996 169.397V168.9H246.93L246.672 168.1V166.514L245.616 165.729V164.936L244.818 163.377L243.523 162.851V161.773L242.98 161.239V160.309H241.696L241.153 162.013H239.821L239.574 160.187L239.042 159.653V158.575L238.27 158.298L237.417 157.026L236.109 155.705L235.864 153.517L235.079 154.389L232.936 154.635L232.239 153.823V153.281H230.88L230.34 152.803L230.119 151.992L231.159 151.167L231.612 150.332L231.122 149.582H230.106L228.258 148.009L227.708 148.797L227.684 149.645L225.646 150.396V149.079L226.394 148.527V148.086H225.672L225.341 147.753V146.701H224.556V145.871L225.217 145.379V144.568L224.83 143.529L223.79 143.271V142.742L224.298 142.464V141.82H223.495L223.25 140.622L221.929 141.391L221.689 140.107L220.857 139.555L221.689 139.198L221.407 138.492L220.115 138.247L220.328 136.666L218.503 135.326V134.816L217.187 134.798L217.474 136.407L217.198 136.912L215.876 135.332L215.607 135.609H214.823L213.793 133.653V132.977L213.488 132.448H210.315L209.42 131.772V131.034L208.954 129.805H207.988L207.767 129.573L208.257 129.031L207.485 128.183L207.643 127.741L209.31 128.566L209.665 127.398L208.728 126.145H207.809L207.956 124.911H207.075L206.798 124.409V1.13232H1.13281L1.70149 1.64767L4.97141 3.34435L5.46111 5.85238L17.1928 18.0701L18.1222 22.4836L17.8826 24.6031H18.4328L25.3123 19.2831H28.1399L29.1772 12.9483L30.4989 13.2337L31.839 11.6216L30.4884 10.0624L32.0944 8.99204L34.4639 8.73304L39.7531 5.58017L42.6545 7.91377L44.766 10.8367V12.7263L43.9129 13.5192L44.9871 14.571L44.5 15.3638L45.5295 16.6905L48.4124 17.2059V18.5431L49.734 19.8698H50.516L51.5533 21.6854V23.2791L53.1408 25.3986L57.6587 28.5779L62.3714 34.3868L61.5895 35.4201L68.0003 46.0416L74.7323 59.2239L73.4475 61.5945L74.4848 62.1283L76.8543 62.4058V63.7061L76.3304 63.9836L76.0645 66.0952L78.6815 67.147L78.9474 69.2666V71.3782H82.1252L87.0537 75.2023L90.4579 76.0744L92.393 77.9984L93.9464 78.2389L94.336 80.3584H95.0758L96.0684 81.4208L97.6612 80.6333L98.738 82.7608V85.1076L97.3901 87.2218V88.8075L97.8929 92.7902L98.4326 93.5646L98.4458 95.6788L99.2672 96.7491L97.1742 99.5875L94.9705 104.382L91.8665 106.263V106.797L92.1061 107.048H94.0043L95.0443 107.294V108.88H94.7625L94.2491 109.176L94.236 111.832L94.7494 112.091V112.632H93.72V113.653L94.7599 114.71L94.4545 115.006H93.9516V115.51L94.2018 115.761H94.9784L95.2733 116.076V116.605L95.7999 117.133L96.0579 117.611L95.813 117.931L96.3633 118.399H96.8582L98.1562 118.851L97.9429 120.223V122.398L97.3374 122.675H96.3633L96.0684 122.086V120.759L95.5629 120.04L94.7099 119.173H94.0122L93.4619 119.469L92.8933 119.985L92.3983 120.281L92.1219 121.055V121.57L93.225 122.678H93.6647V123.434L94.4729 123.711H95.1153L95.813 123.952H96.853V125.556L96.3501 125.815V124.808H95.8104V125.582H95.5629L95.0153 125.815L94.7467 126.135V127.141H95.2601V127.411L95.8236 127.953L96.3369 128.212H97.1084V128.74H97.9535L97.6349 127.942H97.3769V126.37L97.9166 126.137V127.379L98.4432 127.712V128.191L98.7249 128.46H99.2146L99.7648 128.214L99.9965 128.447V128.743L99.7648 129.013L99.52 129.282L98.9803 129.787V130.056H99.2383V130.352H99.7648L100.299 130.593H100.823V131.1H100.299V131.875L101.861 133.468L102.669 134.795L103.174 135.329H103.706V135.606L103.44 135.855V137.181L103.954 137.422H104.23V137.985L105.012 138.778L105.573 139.594L105.802 139.848H106.592V138.788H106.334V137.977L104.736 135.894L104.488 134.835H104.241V133.746L105.049 133.201L105.307 132.961L105.554 133.495L105.562 133.772V134.824L105.839 135.073V135.588H106.097V136.381L106.592 137.192L107.097 137.459V138.233H107.621L107.41 138.537V140.316L108.798 140.99L108.448 142.427L108.743 143.479L110.457 145.2L111.023 145.398L111.354 144.883H111.705L112.144 146.154L112.242 147.034L111.623 146.714H111.354V147.771L112.144 149.394L112.531 150.033L112.679 151.225L112.91 151.717L113.424 151.458V149.367L113.956 148.834L114.766 149.064H115.235V147.745L116.349 148.569L116.091 149.603H115.577V150.131L115.014 150.697L115.835 151.725L116.349 152L115.564 152.541L114.793 153.575V154.09L115.564 154.865H116.03L116.349 155.406H116.862L116.996 156.315L117.657 156.487L117.889 156.204H118.439V155.43L119.284 154.902L119.511 155.129H121.085L121.662 155.171L121.883 156.178L121.614 157.003V157.814L121.993 157.875L122.141 158.305L121.664 158.379L121.433 158.797L121.899 162.534L122.217 163.123L123.455 162.84V163.345L122.928 164.18V164.759L123.441 164.439L124.263 165.436H124.789L125.548 164.957V165.732L125.008 165.991L124.505 166.815L123.715 167.066L122.889 167.613L123.157 168.634L124.811 168.657L125.545 168.361L126.904 167.341L125.6 168.327L126.095 168.644H126.622V169.159L126.082 169.712L124.784 169.958L123.718 169.712L123.186 170.505V171.001L124.179 171.998L125.074 172.262L124.505 171.556H126.072L126.622 172.061L125.827 172.074V172.331L126.377 172.64L126.082 172.886L125.556 173.93L126.082 174.471H126.548L126.927 175.296H127.662L128.42 175.529L129.215 176.316L130.587 177.091H131.003L131.59 176.575L132.13 176.306V175.727L132.706 174.767L133.22 174.754L133.686 174.976L133.491 175.764L134.225 176.033H135.265L136.392 175.259L136.653 175.558L136.11 176.073V176.847L136.653 177.091H137.682L138.978 176.575L139.28 176.832L140.244 176.913L140.023 177.918H141.089L141.639 177.355H141.879V177.918L140.547 178.933H140.07L139.786 179.485L140.062 179.707H140.568L140.815 179.495L141.881 180.312L141.342 181.086H140.607L140.068 181.591V182.157L140.349 182.672L140.876 182.918L142.627 183.016L143.73 182.646L144.514 182.817L144.796 183.716H145.799L146.607 183.446L148.187 183.46L149.559 183.975V185.008L149.79 185.598L150.833 186.065V186.618L151.618 187.416L152.684 186.901C152.881 186.961 153.11 187.146 153.11 187.146L153.476 187.902L154.598 188.973L154.977 190.355L155.156 191.185L157.891 193.5V194.274L158.223 194.557L158.75 194.742L160.071 195.048L160.574 195.331L161.909 196.658L163.47 198.225L163.965 198.925L164.866 199.774L167.125 200.419L168.165 201.156L168.997 200.86V199.065L171.616 197.712V196.951L171.911 196.423H172.93L172.166 197.197V198.222L171.677 198.756L171.872 199.827L171.1 201.449V202.2L171.677 202.459L171.664 203.27L172.398 204.314L172.661 206.428L173.243 206.994V207.922H270.864V206.954L269.835 205.387L269.843 205.382Z" fill="#C1B59B" stroke="#736C5D" stroke-linecap="round" stroke-linejoin="round"/>
<path d="M87.6549 154.629L87.4022 153.837L87.9209 153.308L86.5887 152.782L86.3412 152.523L87.131 152.251V151.722L86.3333 151.204H86.07L85.5645 151.712L85.7988 152.238H85.2933L85.0011 151.725H84.5035L84.2376 151.455V150.398L84.8221 150.644L85.0327 150.39L84.7431 150.137V149.883H85.009L85.2723 149.346L85.5434 148.966L85.0195 148.826L84.2376 149.344L84.2429 149.883L83.7189 150.393V149.888L83.4241 149.352L83.453 148.551L82.9133 147.803L81.9971 147.232L81.6022 147.499L80.528 145.95V145.38L80.2858 144.833L80.8123 144.846L81.3758 145.388V146.172L82.1472 146.154L82.9186 145.633L83.1871 145.11L83.1766 144.058L82.9133 143.802H82.6553L82.3867 144.053L81.6074 144.33L81.0809 144.28L79.4907 144.071L79.7724 143.001L80.8176 142.198L80.8071 141.281L81.3336 140.353V139.811L80.8071 139.018L80.7992 137.441L79.7592 135.596L78.9562 134.552L78.1585 133.471V129.776L78.4613 128.476L78.1664 127.435L78.6903 126.346L78.8009 124.451L80.5148 121.721L81.0098 120.347L81.2941 117.701L81.0703 116.98L79.8645 119.16H78.9694L78.1743 120.009H76.3129L75.8232 120.55H74.9886L74.7569 120.244V119.493L74.4989 118.962L73.2378 118.706L71.1079 118.941L70.2628 117.884H69.7599L69.1596 118.423H68.1565L66.3189 117.133H66.0635L65.8186 117.931L65.5238 118.399V118.695L66.0556 119.226V120.27L65.2552 120.833L65.0156 122.123V123.183L65.4922 124.227L65.2736 124.52V124.768L66.1451 125.305L66.8428 126.087L67.3667 127.673L66.8533 128.191V128.466L67.422 128.992V129.536L69.5072 132.974L69.8047 134.261L70.7841 134.301L71.6108 136.074L71.3343 137.419L71.8767 138.239L73.7038 139.298L73.7328 139.843L74.6779 141.651L74.7701 142.203L77.3766 145.134H77.6714L79.5091 147.256L80.0225 147.777L80.757 147.999L81.5653 149.069L81.797 150.419H82.3499L82.5947 151.429L83.7321 153.052L84.0033 153.247L84.1981 152.793H84.4666V153.321L84.9827 154.365L85.7646 154.119L86.0726 154.365H86.8809V155.681L87.0889 156.456V156.923L87.3706 157.291H87.9077V157.008L87.6339 156.733V155.977L87.9077 155.694H88.4237L88.7291 155.385V154.931H88.2026L87.6549 154.629Z" fill="#C1B59B" stroke="#736C5D" stroke-linecap="round" stroke-linejoin="round"/>
<path d="M184.574 193.468L185.332 192.939L184.537 191.882V191.354L181.891 189.755L181.396 188.722L181.91 188.37V186.88L182.46 185.857L183.737 185.331V183.967L182.681 183.737V183.166H182.157L181.625 183.737H178.75L178.208 183.386V182.889L178.99 182.355V181.055L178.503 180.262L177.097 179.755L175.343 181.063L174.956 182.104H174.535V181.071L173.487 181.319L172.624 180.508H172.173V179.485L171.908 178.914H170.841L170.317 177.891L169.528 177.394L168.93 178.399L168.232 177.865L167.719 178.399L166.597 177.614V176.565H166.595L166.118 175.975L165.078 175.238L163.204 174.992L162.1 173.885L161.145 173.38V172.851H161.829V171.818L149.79 171.559L149.534 171.187V172.37L150.282 172.875L149.266 173.626L150.295 174.733L151.814 174.45L152.928 174.955L153.21 176.026L154.263 176.359V177.072L153.431 177.379V177.883L154.263 178.708L153.968 179.506V181.597L151.875 183.195V184.239H151.09V185.027L152.683 186.895C152.88 186.956 153.11 187.141 153.11 187.141L153.475 187.897L154.597 188.967L154.976 190.35L155.155 191.179L157.891 193.494V194.269L158.222 194.552L158.749 194.737L160.071 195.043L160.573 195.326L161.908 196.653L163.47 198.22L163.964 198.92L164.865 199.768L167.124 200.413L168.164 201.151L168.996 200.855V199.06L171.615 197.707V196.946L171.91 196.417H172.929L173.219 196.121H174.003L174.617 195.041H175.056L175.583 195.569H183.494L184.816 194.279L184.571 193.468H184.574Z" fill="#003366"/>
<rect width="87" height="24" transform="translate(128.5 141)" fill="white"/>
<path d="M143.654 155.228C143.654 156.115 143.332 156.824 142.688 157.356C142.053 157.879 141.148 158.14 139.972 158.14C138.917 158.14 137.975 157.939 137.144 157.538V155.564C137.62 155.769 138.11 155.961 138.614 156.138C139.127 156.306 139.636 156.39 140.14 156.39C140.663 156.39 141.031 156.292 141.246 156.096C141.47 155.891 141.582 155.634 141.582 155.326C141.582 155.074 141.493 154.859 141.316 154.682C141.148 154.505 140.919 154.341 140.63 154.192C140.341 154.033 140.009 153.865 139.636 153.688C139.403 153.576 139.151 153.445 138.88 153.296C138.609 153.137 138.348 152.946 138.096 152.722C137.853 152.489 137.653 152.209 137.494 151.882C137.335 151.555 137.256 151.163 137.256 150.706C137.256 149.81 137.559 149.115 138.166 148.62C138.773 148.116 139.599 147.864 140.644 147.864C141.167 147.864 141.661 147.925 142.128 148.046C142.595 148.167 143.089 148.34 143.612 148.564L142.926 150.216C142.469 150.029 142.058 149.885 141.694 149.782C141.33 149.679 140.957 149.628 140.574 149.628C140.173 149.628 139.865 149.721 139.65 149.908C139.435 150.095 139.328 150.337 139.328 150.636C139.328 150.991 139.487 151.271 139.804 151.476C140.121 151.681 140.593 151.933 141.218 152.232C141.731 152.475 142.165 152.727 142.52 152.988C142.884 153.249 143.164 153.557 143.36 153.912C143.556 154.267 143.654 154.705 143.654 155.228ZM148.453 150.216C149.508 150.216 150.343 150.519 150.959 151.126C151.575 151.723 151.883 152.577 151.883 153.688V154.696H146.955C146.974 155.284 147.146 155.746 147.473 156.082C147.809 156.418 148.271 156.586 148.859 156.586C149.344 156.586 149.788 156.539 150.189 156.446C150.6 156.343 151.02 156.189 151.449 155.984V157.594C151.066 157.781 150.67 157.916 150.259 158C149.848 158.093 149.349 158.14 148.761 158.14C147.996 158.14 147.319 158 146.731 157.72C146.143 157.431 145.681 157.001 145.345 156.432C145.009 155.853 144.841 155.121 144.841 154.234C144.841 153.347 144.99 152.605 145.289 152.008C145.597 151.411 146.022 150.963 146.563 150.664C147.104 150.365 147.734 150.216 148.453 150.216ZM148.467 151.7C148.056 151.7 147.72 151.831 147.459 152.092C147.198 152.353 147.044 152.759 146.997 153.31H149.923C149.914 152.853 149.788 152.47 149.545 152.162C149.312 151.854 148.952 151.7 148.467 151.7ZM156.486 153.282L157.816 153.24V152.904C157.816 152.503 157.709 152.209 157.494 152.022C157.289 151.835 157 151.742 156.626 151.742C156.253 151.742 155.889 151.798 155.534 151.91C155.18 152.013 154.825 152.143 154.47 152.302L153.784 150.888C154.186 150.683 154.638 150.519 155.142 150.398C155.646 150.267 156.169 150.202 156.71 150.202C157.746 150.202 158.535 150.421 159.076 150.86C159.618 151.299 159.888 151.98 159.888 152.904V158H158.432L158.026 156.964H157.97C157.802 157.169 157.634 157.347 157.466 157.496C157.308 157.645 157.13 157.767 156.934 157.86C156.738 157.953 156.519 158.023 156.276 158.07C156.034 158.117 155.754 158.14 155.436 158.14C155.1 158.14 154.788 158.093 154.498 158C154.209 157.897 153.957 157.748 153.742 157.552C153.537 157.356 153.374 157.109 153.252 156.81C153.131 156.502 153.07 156.138 153.07 155.718C153.07 154.906 153.355 154.309 153.924 153.926C154.494 153.543 155.348 153.329 156.486 153.282ZM155.212 155.732C155.212 156.049 155.306 156.278 155.492 156.418C155.679 156.549 155.922 156.614 156.22 156.614C156.668 156.614 157.046 156.483 157.354 156.222C157.662 155.951 157.816 155.573 157.816 155.088V154.458L157.004 154.486C156.332 154.505 155.866 154.626 155.604 154.85C155.343 155.074 155.212 155.368 155.212 155.732ZM166.038 150.342L166.64 148.732H167.97V150.356H170.112V151.924H167.97V155.606C167.97 155.895 168.054 156.115 168.222 156.264C168.39 156.404 168.61 156.474 168.88 156.474C169.114 156.474 169.338 156.455 169.552 156.418C169.767 156.371 169.982 156.311 170.196 156.236V157.79C169.972 157.893 169.692 157.977 169.356 158.042C169.03 158.107 168.67 158.14 168.278 158.14C167.942 158.14 167.625 158.098 167.326 158.014C167.037 157.939 166.785 157.809 166.57 157.622C166.356 157.426 166.188 157.165 166.066 156.838C165.945 156.511 165.884 156.101 165.884 155.606V151.924H164.89V151.042L166.038 150.342ZM178.675 154.164C178.675 155.433 178.339 156.413 177.667 157.104C177.004 157.795 176.099 158.14 174.951 158.14C174.241 158.14 173.607 157.986 173.047 157.678C172.496 157.37 172.062 156.922 171.745 156.334C171.427 155.737 171.269 155.013 171.269 154.164C171.269 152.895 171.6 151.919 172.263 151.238C172.925 150.557 173.835 150.216 174.993 150.216C175.711 150.216 176.346 150.37 176.897 150.678C177.447 150.986 177.881 151.434 178.199 152.022C178.516 152.61 178.675 153.324 178.675 154.164ZM173.397 154.164C173.397 154.92 173.518 155.494 173.761 155.886C174.013 156.269 174.419 156.46 174.979 156.46C175.529 156.46 175.926 156.269 176.169 155.886C176.421 155.494 176.547 154.92 176.547 154.164C176.547 153.408 176.421 152.843 176.169 152.47C175.926 152.087 175.525 151.896 174.965 151.896C174.414 151.896 174.013 152.087 173.761 152.47C173.518 152.843 173.397 153.408 173.397 154.164ZM190.097 155.228C190.097 156.115 189.775 156.824 189.131 157.356C188.497 157.879 187.591 158.14 186.415 158.14C185.361 158.14 184.418 157.939 183.587 157.538V155.564C184.063 155.769 184.553 155.961 185.057 156.138C185.571 156.306 186.079 156.39 186.583 156.39C187.106 156.39 187.475 156.292 187.689 156.096C187.913 155.891 188.025 155.634 188.025 155.326C188.025 155.074 187.937 154.859 187.759 154.682C187.591 154.505 187.363 154.341 187.073 154.192C186.784 154.033 186.453 153.865 186.079 153.688C185.846 153.576 185.594 153.445 185.323 153.296C185.053 153.137 184.791 152.946 184.539 152.722C184.297 152.489 184.096 152.209 183.937 151.882C183.779 151.555 183.699 151.163 183.699 150.706C183.699 149.81 184.003 149.115 184.609 148.62C185.216 148.116 186.042 147.864 187.087 147.864C187.61 147.864 188.105 147.925 188.571 148.046C189.038 148.167 189.533 148.34 190.055 148.564L189.369 150.216C188.912 150.029 188.501 149.885 188.137 149.782C187.773 149.679 187.4 149.628 187.017 149.628C186.616 149.628 186.308 149.721 186.093 149.908C185.879 150.095 185.771 150.337 185.771 150.636C185.771 150.991 185.93 151.271 186.247 151.476C186.565 151.681 187.036 151.933 187.661 152.232C188.175 152.475 188.609 152.727 188.963 152.988C189.327 153.249 189.607 153.557 189.803 153.912C189.999 154.267 190.097 154.705 190.097 155.228ZM191.746 147.36H193.832V152.12C193.832 152.409 193.818 152.699 193.79 152.988C193.772 153.268 193.748 153.553 193.72 153.842H193.748C193.786 153.786 193.814 153.749 193.832 153.73C193.963 153.543 194.094 153.366 194.224 153.198C194.355 153.021 194.5 152.848 194.658 152.68L196.8 150.356H199.152L196.114 153.674L199.334 158H196.926L194.728 154.906L193.832 155.62V158H191.746V147.36ZM201.618 150.356L203.06 154.654C203.135 154.869 203.191 155.083 203.228 155.298C203.265 155.513 203.293 155.741 203.312 155.984H203.354C203.382 155.741 203.419 155.513 203.466 155.298C203.513 155.083 203.573 154.869 203.648 154.654L205.062 150.356H207.302L204.068 158.98C203.769 159.773 203.345 160.366 202.794 160.758C202.243 161.159 201.604 161.36 200.876 161.36C200.633 161.36 200.428 161.346 200.26 161.318C200.092 161.299 199.943 161.276 199.812 161.248V159.596C199.905 159.615 200.027 159.633 200.176 159.652C200.325 159.671 200.479 159.68 200.638 159.68C201.077 159.68 201.422 159.545 201.674 159.274C201.926 159.013 202.117 158.695 202.248 158.322L202.374 157.944L199.336 150.356H201.618Z" fill="#003366"/>
</g>
<defs>
<clipPath id="clip0_13898_192386">
<rect width="272" height="220" fill="white"/>
</clipPath>
</defs>
</svg>
