<svg width="272" height="220" viewBox="0 0 272 220" fill="none" xmlns="http://www.w3.org/2000/svg">
<g clip-path="url(#clip0_13898_192491)">
<path d="M169.513 212.71V212.01L169.844 211.677H170.561L170.321 211.273L169.255 210.591V209.761L168.152 209.061V209.539L168.446 209.89V210.387H168.207L167.749 210.184L165.827 207.75L166.303 206.79L165.348 205.561L163.181 203.558L161.088 202.464L158.75 201.922L158.223 201.663L157.939 201.682L157.965 201.7L157.133 201.148L156.08 200.337L155.272 199.549L153.766 197.472L152.945 196.893V196.378L153.458 196.658H153.716L154.011 196.378V195.849L153.497 195.297H152.91V194.818L151.881 193.97V193.492L150.57 192.657V191.882L150.062 191.092L150.32 190.577L150.062 190.024L148.74 188.743V188.18L148.464 187.408L148.169 187.12V186.335L147.884 185.783L146.855 185.027L146.165 185.212L144.567 185.312L144.017 184.768H142.382L141.655 183.983L140.544 183.457H139.533L139.251 183.177H136.642L136.384 182.685H134.989L133.715 182.144H132.675L131.535 181.308H129.918V180.867L128.57 180.278L126.588 178.716L124.213 177.389L122.204 176.768L121.496 176.057H119.829L118.8 176.567L117.623 177.355H116.375L115.641 177.624L116.075 178.362L116.599 178.528L116.636 179.458L117.131 179.966L117.426 181.248L118.189 182.077L118.971 182.889L119.824 183.203L119.75 182.614L119.795 182.107L120.301 182.373V182.87L121.238 182.788L121.714 183.23L121.117 184.226L120.29 185.008L120.548 185.82L121.072 185.812L121.349 185.259H121.872L122.13 185.582V186.293L122.71 186.615V187.411L121.08 188.727V189.517L122.183 190.019L123.665 188.999L124.242 188.986L125.6 189.81H126.066L126.888 190.561L127.941 190.302L128.186 189.319L127.891 188.484L128.16 188.47L128.441 188.74L128.773 189.232L129.41 189.353L129.766 188.973L130.268 188.959L130.282 189.514L129.034 190.323L129.242 190.828L129.768 190.804V191.137L128.739 191.629L128.984 192.686L129.779 193.484H131.09V192.918L131.566 193.214H131.872V192.686L132.14 192.427L132.372 193.225L132.941 192.836L132.885 191.602L133.425 191.898L133.638 192.802L133.07 193.484L131.869 194.012L132.138 194.517H132.896L132.956 194.784L132.148 195.336L131.89 196.129L132.459 196.655H132.946L133.222 196.914V197.44L134.241 197.966L134.747 197.958L135.297 196.917V196.391L135.555 196.124H136.116L136.898 195.561V195.091L136.632 194.546H137.377L137.661 195.302L136.898 196.121L136.879 196.674L137.661 196.904L137.946 196.645L138.743 196.83L138.504 197.189L138.154 197.448H137.685L137.143 197.171L136.087 198.23L136.634 199.821H137.672V200.625L138.749 201.658H138.993L139.238 201.153L138.993 200.611L139.251 200.096L139.773 200.884L140.341 201.412L139.773 201.671V201.949L140.031 202.446V202.974L141.097 203.516V202.263L140.821 201.967L141.042 201.322L141.61 202.189H142.179V201.674L142.637 201.766V202.689L141.903 203.204V203.756H142.379L142.985 202.977L143.206 203.26H143.664L143.94 202.726L144.254 203.556H144.749V205.141L145.317 205.675V206.653L147.229 209.087L147.632 209.105L148.79 207.98V207.242H149.793V208.55H150.572L150.867 208.017H152.007L152.394 207.758L153.166 208.017L153.018 208.532L151.641 210.118L151.31 210.947L151.604 211.722L152.945 212.718L154.506 213.271L155.791 214.653L156.599 214.875L158.215 214.893L158.492 215.686L159.813 215.964L164.552 218.046L166.187 218.305L167.435 218.876H168.225L168.52 218.561V218.102L169.31 216.994H169.786V217.364L170.189 217.824L171.274 217.75L171.403 216.569L170.3 212.716H169.51L169.513 212.71Z" fill="#C1B59B" stroke="#736C5D" stroke-linecap="round" stroke-linejoin="round"/>
<path d="M269.843 205.382L269.09 204.848H267.758L267.281 203.521L264.59 200.876V200.35L265.399 199.557V198.497L264.058 198.764L263.498 197.445L264.085 196.893V196.137H264.819V193.74L264.535 192.155V190.339L263.782 189.509V187.968L263.524 186.605L262.974 185.838L263.25 185.286L262.231 184.467V183.719L260.625 181.322L259.836 180.777L259.322 181.597L258.377 182.067L257.469 180.822V178.94L255.613 178.415L254.299 175.769V174.984L253.232 173.665H252.451L252.716 172.846L249.768 172.08L250.118 171.001L249.841 170.217L247.996 169.397V168.9H246.93L246.672 168.1V166.514L245.616 165.729V164.936L244.818 163.377L243.523 162.851V161.773L242.98 161.239V160.309H241.696L241.153 162.013H239.821L239.574 160.187L239.042 159.653V158.575L238.27 158.298L237.417 157.026L236.109 155.705L235.864 153.517L235.079 154.389L232.936 154.635L232.239 153.823V153.281H230.88L230.34 152.803L230.119 151.992L231.159 151.167L231.612 150.332L231.122 149.582H230.106L228.258 148.009L227.708 148.797L227.684 149.645L225.646 150.396V149.079L226.394 148.527V148.086H225.672L225.341 147.753V146.701H224.556V145.871L225.217 145.379V144.568L224.83 143.529L223.79 143.271V142.742L224.298 142.464V141.82H223.495L223.25 140.622L221.929 141.391L221.689 140.107L220.857 139.555L221.689 139.198L221.407 138.492L220.115 138.247L220.328 136.666L218.503 135.326V134.816L217.187 134.798L217.474 136.407L217.198 136.912L215.876 135.332L215.607 135.609H214.823L213.793 133.653V132.977L213.488 132.448H210.315L209.42 131.772V131.034L208.954 129.805H207.988L207.767 129.573L208.257 129.031L207.485 128.183L207.643 127.741L209.31 128.566L209.665 127.398L208.728 126.145H207.809L207.956 124.911H207.075L206.798 124.409V1.13232H1.13281L1.70149 1.64767L4.97141 3.34435L5.46111 5.85238L17.1928 18.0701L18.1222 22.4836L17.8826 24.6031H18.4328L25.3123 19.2831H28.1399L29.1772 12.9483L30.4989 13.2337L31.839 11.6216L30.4884 10.0624L32.0944 8.99204L34.4639 8.73304L39.7531 5.58017L42.6545 7.91377L44.766 10.8367V12.7263L43.9129 13.5192L44.9871 14.571L44.5 15.3638L45.5295 16.6905L48.4124 17.2059V18.5431L49.734 19.8698H50.516L51.5533 21.6854V23.2791L53.1408 25.3986L57.6587 28.5779L62.3714 34.3868L61.5895 35.4201L68.0003 46.0416L74.7323 59.2239L73.4475 61.5945L74.4848 62.1283L76.8543 62.4058V63.7061L76.3304 63.9836L76.0645 66.0952L78.6815 67.147L78.9474 69.2666V71.3782H82.1252L87.0537 75.2023L90.4579 76.0744L92.393 77.9984L93.9464 78.2389L94.336 80.3584H95.0758L96.0684 81.4208L97.6612 80.6333L98.738 82.7608V85.1076L97.3901 87.2218V88.8075L97.8929 92.7902L98.4326 93.5646L98.4458 95.6788L99.2672 96.7491L97.1742 99.5875L94.9705 104.382L91.8665 106.263V106.797L92.1061 107.048H94.0043L95.0443 107.294V108.88H94.7625L94.2491 109.176L94.236 111.832L94.7494 112.091V112.632H93.72V113.653L94.7599 114.71L94.4545 115.006H93.9516V115.51L94.2018 115.761H94.9784L95.2733 116.076V116.605L95.7999 117.133L96.0579 117.611L95.813 117.931L96.3633 118.399H96.8582L98.1562 118.851L97.9429 120.223V122.398L97.3374 122.675H96.3633L96.0684 122.086V120.759L95.5629 120.04L94.7099 119.173H94.0122L93.4619 119.469L92.8933 119.985L92.3983 120.281L92.1219 121.055V121.57L93.225 122.678H93.6647V123.434L94.4729 123.711H95.1153L95.813 123.952H96.853V125.556L96.3501 125.815V124.808H95.8104V125.582H95.5629L95.0153 125.815L94.7467 126.135V127.141H95.2601V127.411L95.8236 127.953L96.3369 128.212H97.1084V128.74H97.9535L97.6349 127.942H97.3769V126.37L97.9166 126.137V127.379L98.4432 127.712V128.191L98.7249 128.46H99.2146L99.7648 128.214L99.9965 128.447V128.743L99.7648 129.013L99.52 129.282L98.9803 129.787V130.056H99.2383V130.352H99.7648L100.299 130.593H100.823V131.1H100.299V131.875L101.861 133.468L102.669 134.795L103.174 135.329H103.706V135.606L103.44 135.855V137.181L103.954 137.422H104.23V137.985L105.012 138.778L105.573 139.594L105.802 139.848H106.592V138.788H106.334V137.977L104.736 135.894L104.488 134.835H104.241V133.746L105.049 133.201L105.307 132.961L105.554 133.495L105.562 133.772V134.824L105.839 135.073V135.588H106.097V136.381L106.592 137.192L107.097 137.459V138.233H107.621L107.41 138.537V140.316L108.798 140.99L108.448 142.427L108.743 143.479L110.457 145.2L111.023 145.398L111.354 144.883H111.705L112.144 146.154L112.242 147.034L111.623 146.714H111.354V147.771L112.144 149.394L112.531 150.033L112.679 151.225L112.91 151.717L113.424 151.458V149.367L113.956 148.834L114.766 149.064H115.235V147.745L116.349 148.569L116.091 149.603H115.577V150.131L115.014 150.697L115.835 151.725L116.349 152L115.564 152.541L114.793 153.575V154.09L115.564 154.865H116.03L116.349 155.406H116.862L116.996 156.315L117.657 156.487L117.889 156.204H118.439V155.43L119.284 154.902L119.511 155.129H121.085L121.662 155.171L121.883 156.178L121.614 157.003V157.814L121.993 157.875L122.141 158.305L121.664 158.379L121.433 158.797L121.899 162.534L122.217 163.123L123.455 162.84V163.345L122.928 164.18V164.759L123.441 164.439L124.263 165.436H124.789L125.548 164.957V165.732L125.008 165.991L124.505 166.815L123.715 167.066L122.889 167.613L123.157 168.634L124.811 168.657L125.545 168.361L126.904 167.341L125.6 168.327L126.095 168.644H126.622V169.159L126.082 169.712L124.784 169.958L123.718 169.712L123.186 170.505V171.001L124.179 171.998L125.074 172.262L124.505 171.556H126.072L126.622 172.061L125.827 172.074V172.331L126.377 172.64L126.082 172.886L125.556 173.93L126.082 174.471H126.548L126.927 175.296H127.662L128.42 175.529L129.215 176.316L130.587 177.091H131.003L131.59 176.575L132.13 176.306V175.727L132.706 174.767L133.22 174.754L133.686 174.976L133.491 175.764L134.225 176.033H135.265L136.392 175.259L136.653 175.558L136.11 176.073V176.847L136.653 177.091H137.682L138.978 176.575L139.28 176.832L140.244 176.913L140.023 177.918H141.089L141.639 177.355H141.879V177.918L140.547 178.933H140.07L139.786 179.485L140.062 179.707H140.568L140.815 179.495L141.881 180.312L141.342 181.086H140.607L140.068 181.591V182.157L140.349 182.672L140.876 182.918L142.627 183.016L143.73 182.646L144.514 182.817L144.796 183.716H145.799L146.607 183.446L148.187 183.46L149.559 183.975V185.008L149.79 185.598L150.833 186.065V186.618L151.618 187.416L152.684 186.901C152.881 186.961 153.11 187.146 153.11 187.146L153.476 187.902L154.598 188.973L154.977 190.355L155.156 191.185L157.891 193.5V194.274L158.223 194.557L158.75 194.742L160.071 195.048L160.574 195.331L161.909 196.658L163.47 198.225L163.965 198.925L164.866 199.774L167.125 200.419L168.165 201.156L168.997 200.86V199.065L171.616 197.712V196.951L171.911 196.423H172.93L172.166 197.197V198.222L171.677 198.756L171.872 199.827L171.1 201.449V202.2L171.677 202.459L171.664 203.27L172.398 204.314L172.661 206.428L173.243 206.994V207.922H270.864V206.954L269.835 205.387L269.843 205.382Z" fill="#C1B59B" stroke="#736C5D" stroke-linecap="round" stroke-linejoin="round"/>
<path d="M87.6549 154.629L87.4022 153.837L87.9209 153.308L86.5887 152.782L86.3412 152.523L87.131 152.251V151.722L86.3333 151.204H86.07L85.5645 151.712L85.7988 152.238H85.2933L85.0011 151.725H84.5035L84.2376 151.455V150.398L84.8221 150.644L85.0327 150.39L84.7431 150.137V149.883H85.009L85.2723 149.346L85.5434 148.966L85.0195 148.826L84.2376 149.344L84.2429 149.883L83.7189 150.393V149.888L83.4241 149.352L83.453 148.551L82.9133 147.803L81.9971 147.232L81.6022 147.499L80.528 145.95V145.38L80.2858 144.833L80.8123 144.846L81.3758 145.388V146.172L82.1472 146.154L82.9186 145.633L83.1871 145.11L83.1766 144.058L82.9133 143.802H82.6553L82.3867 144.053L81.6074 144.33L81.0809 144.28L79.4907 144.071L79.7724 143.001L80.8176 142.198L80.8071 141.281L81.3336 140.353V139.811L80.8071 139.018L80.7992 137.441L79.7592 135.596L78.9562 134.552L78.1585 133.471V129.776L78.4613 128.476L78.1664 127.435L78.6903 126.346L78.8009 124.451L80.5148 121.721L81.0098 120.347L81.2941 117.701L81.0703 116.98L79.8645 119.16H78.9694L78.1743 120.009H76.3129L75.8232 120.55H74.9886L74.7569 120.244V119.493L74.4989 118.962L73.2378 118.706L71.1079 118.941L70.2628 117.884H69.7599L69.1596 118.423H68.1565L66.3189 117.133H66.0635L65.8186 117.931L65.5238 118.399V118.695L66.0556 119.226V120.27L65.2552 120.833L65.0156 122.123V123.183L65.4922 124.227L65.2736 124.52V124.768L66.1451 125.305L66.8428 126.087L67.3667 127.673L66.8533 128.191V128.466L67.422 128.992V129.536L69.5072 132.974L69.8047 134.261L70.7841 134.301L71.6108 136.074L71.3343 137.419L71.8767 138.239L73.7038 139.298L73.7328 139.843L74.6779 141.651L74.7701 142.203L77.3766 145.134H77.6714L79.5091 147.256L80.0225 147.777L80.757 147.999L81.5653 149.069L81.797 150.419H82.3499L82.5947 151.429L83.7321 153.052L84.0033 153.247L84.1981 152.793H84.4666V153.321L84.9827 154.365L85.7646 154.119L86.0726 154.365H86.8809V155.681L87.0889 156.456V156.923L87.3706 157.291H87.9077V157.008L87.6339 156.733V155.977L87.9077 155.694H88.4237L88.7291 155.385V154.931H88.2026L87.6549 154.629Z" fill="#C1B59B" stroke="#736C5D" stroke-linecap="round" stroke-linejoin="round"/>
<path d="M218.027 160.425H218.762V161.495L218.027 162.344L219.789 163.34L219.288 164.936L220.597 165.428V166.007L221.784 166.498V168.071L221.331 168.367L222.679 169.252L221.663 169.892L222.458 171.242H222.985L223.474 172.878V174.194H224.014L224.809 175.275V176.025H225.607L225.362 178.423L226.12 178.668L226.476 181.544L225.889 181.84V182.551L226.947 182.921L226.426 183.964H225.373L225.054 185.294L225.752 185.87L225.336 186.325L225.839 187.408L225.533 189.018L223.964 190.061L223.23 189.768L222.729 190.061L223.769 192.694L224.554 193.222L224.064 194.266H224.799L225.262 195.199L225.876 197.596L225.581 198.801H225.128V201.407L226.805 203.78H227.418L227.761 204.861V207.916H270.865V206.949L269.838 205.382L269.085 204.845H267.753L267.273 203.519L264.583 200.873V200.347L265.391 199.554V198.495L264.051 198.762L263.49 197.443L264.077 196.89V196.135H264.812V193.738L264.528 192.152V190.336L263.775 189.506V187.966L263.519 186.602L262.966 185.836L263.243 185.283L262.224 184.464V183.716L260.615 181.319L259.825 180.775L259.312 181.597L258.367 182.067L257.456 180.822V178.94L255.602 178.415L254.289 175.769V174.987L253.222 173.668H252.443L252.709 172.846L249.76 172.082L250.11 171.004L249.834 170.219L247.988 169.4V168.9H246.922L246.664 168.1V166.514L245.608 165.729V164.936L244.811 163.38L243.515 162.854V161.775L242.973 161.239V160.309H241.688L241.146 162.013H239.814L239.566 160.19L239.034 159.653V158.575L238.263 158.3L237.407 157.026L236.101 155.705L235.856 153.517L235.072 154.391L232.929 154.637L232.231 153.826V153.284H230.873L230.333 152.806L230.112 151.994L231.154 151.17L231.607 150.335L231.117 149.584H230.101L228.25 148.012L227.7 148.797L227.676 149.645L225.636 150.396L224.572 152.005L223.493 152.816L222.153 153.062L220.934 154.28L220.186 153.836H219.307L219.007 154.637V155.927L217.438 157.008L218.762 157.795L217.438 158.054L218.027 160.425Z" fill="#003366"/>
<rect width="83" height="24" transform="translate(165 116)" fill="white"/>
<path d="M174.26 133V123.004H176.374V127.582L177.214 126.406L179.916 123.004H182.268L178.782 127.428L182.296 133H179.888L177.27 128.786L176.374 129.43V133H174.26ZM190.333 129.164C190.333 130.433 189.997 131.413 189.325 132.104C188.662 132.795 187.757 133.14 186.609 133.14C185.9 133.14 185.265 132.986 184.705 132.678C184.154 132.37 183.72 131.922 183.403 131.334C183.086 130.737 182.927 130.013 182.927 129.164C182.927 127.895 183.258 126.919 183.921 126.238C184.584 125.557 185.494 125.216 186.651 125.216C187.37 125.216 188.004 125.37 188.555 125.678C189.106 125.986 189.54 126.434 189.857 127.022C190.174 127.61 190.333 128.324 190.333 129.164ZM185.055 129.164C185.055 129.92 185.176 130.494 185.419 130.886C185.671 131.269 186.077 131.46 186.637 131.46C187.188 131.46 187.584 131.269 187.827 130.886C188.079 130.494 188.205 129.92 188.205 129.164C188.205 128.408 188.079 127.843 187.827 127.47C187.584 127.087 187.183 126.896 186.623 126.896C186.072 126.896 185.671 127.087 185.419 127.47C185.176 127.843 185.055 128.408 185.055 129.164ZM199.001 129.164C199.001 130.433 198.665 131.413 197.993 132.104C197.33 132.795 196.425 133.14 195.277 133.14C194.568 133.14 193.933 132.986 193.373 132.678C192.822 132.37 192.388 131.922 192.071 131.334C191.754 130.737 191.595 130.013 191.595 129.164C191.595 127.895 191.926 126.919 192.589 126.238C193.252 125.557 194.162 125.216 195.319 125.216C196.038 125.216 196.672 125.37 197.223 125.678C197.774 125.986 198.208 126.434 198.525 127.022C198.842 127.61 199.001 128.324 199.001 129.164ZM193.723 129.164C193.723 129.92 193.844 130.494 194.087 130.886C194.339 131.269 194.745 131.46 195.305 131.46C195.856 131.46 196.252 131.269 196.495 130.886C196.747 130.494 196.873 129.92 196.873 129.164C196.873 128.408 196.747 127.843 196.495 127.47C196.252 127.087 195.851 126.896 195.291 126.896C194.74 126.896 194.339 127.087 194.087 127.47C193.844 127.843 193.723 128.408 193.723 129.164ZM201.103 125.342L201.705 123.732H203.035V125.356H205.177V126.924H203.035V130.606C203.035 130.895 203.119 131.115 203.287 131.264C203.455 131.404 203.674 131.474 203.945 131.474C204.178 131.474 204.402 131.455 204.617 131.418C204.831 131.371 205.046 131.311 205.261 131.236V132.79C205.037 132.893 204.757 132.977 204.421 133.042C204.094 133.107 203.735 133.14 203.343 133.14C203.007 133.14 202.689 133.098 202.391 133.014C202.101 132.939 201.849 132.809 201.635 132.622C201.42 132.426 201.252 132.165 201.131 131.838C201.009 131.511 200.949 131.101 200.949 130.606V126.924H199.955V126.042L201.103 125.342ZM209.945 125.216C211 125.216 211.835 125.519 212.451 126.126C213.067 126.723 213.375 127.577 213.375 128.688V129.696H208.447C208.466 130.284 208.638 130.746 208.965 131.082C209.301 131.418 209.763 131.586 210.351 131.586C210.836 131.586 211.28 131.539 211.681 131.446C212.092 131.343 212.512 131.189 212.941 130.984V132.594C212.558 132.781 212.162 132.916 211.751 133C211.34 133.093 210.841 133.14 210.253 133.14C209.488 133.14 208.811 133 208.223 132.72C207.635 132.431 207.173 132.001 206.837 131.432C206.501 130.853 206.333 130.121 206.333 129.234C206.333 128.347 206.482 127.605 206.781 127.008C207.089 126.411 207.514 125.963 208.055 125.664C208.596 125.365 209.226 125.216 209.945 125.216ZM209.959 126.7C209.548 126.7 209.212 126.831 208.951 127.092C208.69 127.353 208.536 127.759 208.489 128.31H211.415C211.406 127.853 211.28 127.47 211.037 127.162C210.804 126.854 210.444 126.7 209.959 126.7ZM215.067 125.356H216.663L216.943 126.336H217.055C217.297 125.944 217.629 125.659 218.049 125.482C218.478 125.305 218.931 125.216 219.407 125.216C220.228 125.216 220.886 125.44 221.381 125.888C221.875 126.327 222.123 127.036 222.123 128.016V133H220.037V128.534C220.037 127.974 219.939 127.559 219.743 127.288C219.547 127.017 219.234 126.882 218.805 126.882C218.17 126.882 217.736 127.101 217.503 127.54C217.269 127.969 217.153 128.59 217.153 129.402V133H215.067V125.356ZM227.18 128.282L228.51 128.24V127.904C228.51 127.503 228.402 127.209 228.188 127.022C227.982 126.835 227.693 126.742 227.32 126.742C226.946 126.742 226.582 126.798 226.228 126.91C225.873 127.013 225.518 127.143 225.164 127.302L224.478 125.888C224.879 125.683 225.332 125.519 225.836 125.398C226.34 125.267 226.862 125.202 227.404 125.202C228.44 125.202 229.228 125.421 229.77 125.86C230.311 126.299 230.582 126.98 230.582 127.904V133H229.126L228.72 131.964H228.664C228.496 132.169 228.328 132.347 228.16 132.496C228.001 132.645 227.824 132.767 227.628 132.86C227.432 132.953 227.212 133.023 226.97 133.07C226.727 133.117 226.447 133.14 226.13 133.14C225.794 133.14 225.481 133.093 225.192 133C224.902 132.897 224.65 132.748 224.436 132.552C224.23 132.356 224.067 132.109 223.946 131.81C223.824 131.502 223.764 131.138 223.764 130.718C223.764 129.906 224.048 129.309 224.618 128.926C225.187 128.543 226.041 128.329 227.18 128.282ZM225.906 130.732C225.906 131.049 225.999 131.278 226.186 131.418C226.372 131.549 226.615 131.614 226.914 131.614C227.362 131.614 227.74 131.483 228.048 131.222C228.356 130.951 228.51 130.573 228.51 130.088V129.458L227.698 129.486C227.026 129.505 226.559 129.626 226.298 129.85C226.036 130.074 225.906 130.368 225.906 130.732ZM233.907 125.356L235.349 129.654C235.424 129.869 235.48 130.083 235.517 130.298C235.554 130.513 235.582 130.741 235.601 130.984H235.643C235.671 130.741 235.708 130.513 235.755 130.298C235.802 130.083 235.862 129.869 235.937 129.654L237.351 125.356H239.591L236.357 133.98C236.058 134.773 235.634 135.366 235.083 135.758C234.532 136.159 233.893 136.36 233.165 136.36C232.922 136.36 232.717 136.346 232.549 136.318C232.381 136.299 232.232 136.276 232.101 136.248V134.596C232.194 134.615 232.316 134.633 232.465 134.652C232.614 134.671 232.768 134.68 232.927 134.68C233.366 134.68 233.711 134.545 233.963 134.274C234.215 134.013 234.406 133.695 234.537 133.322L234.663 132.944L231.625 125.356H233.907Z" fill="#003366"/>
</g>
<defs>
<clipPath id="clip0_13898_192491">
<rect width="272" height="220" fill="white"/>
</clipPath>
</defs>
</svg>
