<svg width="272" height="220" viewBox="0 0 272 220" fill="none" xmlns="http://www.w3.org/2000/svg">
<g clip-path="url(#clip0_13898_192526)">
<path d="M169.513 212.71V212.01L169.844 211.677H170.561L170.321 211.273L169.255 210.591V209.761L168.152 209.061V209.539L168.446 209.89V210.387H168.207L167.749 210.184L165.827 207.75L166.303 206.79L165.348 205.561L163.181 203.558L161.088 202.464L158.75 201.922L158.223 201.663L157.939 201.682L157.965 201.7L157.133 201.148L156.08 200.337L155.272 199.549L153.766 197.472L152.945 196.893V196.378L153.458 196.658H153.716L154.011 196.378V195.849L153.497 195.297H152.91V194.818L151.881 193.97V193.492L150.57 192.657V191.882L150.062 191.092L150.32 190.577L150.062 190.024L148.74 188.743V188.18L148.464 187.408L148.169 187.12V186.335L147.884 185.783L146.855 185.027L146.165 185.212L144.567 185.312L144.017 184.768H142.382L141.655 183.983L140.544 183.457H139.533L139.251 183.177H136.642L136.384 182.685H134.989L133.715 182.144H132.675L131.535 181.308H129.918V180.867L128.57 180.278L126.588 178.716L124.213 177.389L122.204 176.768L121.496 176.057H119.829L118.8 176.567L117.623 177.355H116.375L115.641 177.624L116.075 178.362L116.599 178.528L116.636 179.458L117.131 179.966L117.426 181.248L118.189 182.077L118.971 182.889L119.824 183.203L119.75 182.614L119.795 182.107L120.301 182.373V182.87L121.238 182.788L121.714 183.23L121.117 184.226L120.29 185.008L120.548 185.82L121.072 185.812L121.349 185.259H121.872L122.13 185.582V186.293L122.71 186.615V187.411L121.08 188.727V189.517L122.183 190.019L123.665 188.999L124.242 188.986L125.6 189.81H126.066L126.888 190.561L127.941 190.302L128.186 189.319L127.891 188.484L128.16 188.47L128.441 188.74L128.773 189.232L129.41 189.353L129.766 188.973L130.268 188.959L130.282 189.514L129.034 190.323L129.242 190.828L129.768 190.804V191.137L128.739 191.629L128.984 192.686L129.779 193.484H131.09V192.918L131.566 193.214H131.872V192.686L132.14 192.427L132.372 193.225L132.941 192.836L132.885 191.602L133.425 191.898L133.638 192.802L133.07 193.484L131.869 194.012L132.138 194.517H132.896L132.956 194.784L132.148 195.336L131.89 196.129L132.459 196.655H132.946L133.222 196.914V197.44L134.241 197.966L134.747 197.958L135.297 196.917V196.391L135.555 196.124H136.116L136.898 195.561V195.091L136.632 194.546H137.377L137.661 195.302L136.898 196.121L136.879 196.674L137.661 196.904L137.946 196.645L138.743 196.83L138.504 197.189L138.154 197.448H137.685L137.143 197.171L136.087 198.23L136.634 199.821H137.672V200.625L138.749 201.658H138.993L139.238 201.153L138.993 200.611L139.251 200.096L139.773 200.884L140.341 201.412L139.773 201.671V201.949L140.031 202.446V202.974L141.097 203.516V202.263L140.821 201.967L141.042 201.322L141.61 202.189H142.179V201.674L142.637 201.766V202.689L141.903 203.204V203.756H142.379L142.985 202.977L143.206 203.26H143.664L143.94 202.726L144.254 203.556H144.749V205.141L145.317 205.675V206.653L147.229 209.087L147.632 209.105L148.79 207.98V207.242H149.793V208.55H150.572L150.867 208.017H152.007L152.394 207.758L153.166 208.017L153.018 208.532L151.641 210.118L151.31 210.947L151.604 211.722L152.945 212.718L154.506 213.271L155.791 214.653L156.599 214.875L158.215 214.893L158.492 215.686L159.813 215.964L164.552 218.046L166.187 218.305L167.435 218.876H168.225L168.52 218.561V218.102L169.31 216.994H169.786V217.364L170.189 217.824L171.274 217.75L171.403 216.569L170.3 212.716H169.51L169.513 212.71Z" fill="#C1B59B" stroke="#736C5D" stroke-linecap="round" stroke-linejoin="round"/>
<path d="M269.843 205.382L269.09 204.848H267.758L267.281 203.521L264.59 200.876V200.35L265.399 199.557V198.497L264.058 198.764L263.498 197.445L264.085 196.893V196.137H264.819V193.74L264.535 192.155V190.339L263.782 189.509V187.968L263.524 186.605L262.974 185.838L263.25 185.286L262.231 184.467V183.719L260.625 181.322L259.836 180.777L259.322 181.597L258.377 182.067L257.469 180.822V178.94L255.613 178.415L254.299 175.769V174.984L253.232 173.665H252.451L252.716 172.846L249.768 172.08L250.118 171.001L249.841 170.217L247.996 169.397V168.9H246.93L246.672 168.1V166.514L245.616 165.729V164.936L244.818 163.377L243.523 162.851V161.773L242.98 161.239V160.309H241.696L241.153 162.013H239.821L239.574 160.187L239.042 159.653V158.575L238.27 158.298L237.417 157.026L236.109 155.705L235.864 153.517L235.079 154.389L232.936 154.635L232.239 153.823V153.281H230.88L230.34 152.803L230.119 151.992L231.159 151.167L231.612 150.332L231.122 149.582H230.106L228.258 148.009L227.708 148.797L227.684 149.645L225.646 150.396V149.079L226.394 148.527V148.086H225.672L225.341 147.753V146.701H224.556V145.871L225.217 145.379V144.568L224.83 143.529L223.79 143.271V142.742L224.298 142.464V141.82H223.495L223.25 140.622L221.929 141.391L221.689 140.107L220.857 139.555L221.689 139.198L221.407 138.492L220.115 138.247L220.328 136.666L218.503 135.326V134.816L217.187 134.798L217.474 136.407L217.198 136.912L215.876 135.332L215.607 135.609H214.823L213.793 133.653V132.977L213.488 132.448H210.315L209.42 131.772V131.034L208.954 129.805H207.988L207.767 129.573L208.257 129.031L207.485 128.183L207.643 127.741L209.31 128.566L209.665 127.398L208.728 126.145H207.809L207.956 124.911H207.075L206.798 124.409V1.13232H1.13281L1.70149 1.64767L4.97141 3.34435L5.46111 5.85238L17.1928 18.0701L18.1222 22.4836L17.8826 24.6031H18.4328L25.3123 19.2831H28.1399L29.1772 12.9483L30.4989 13.2337L31.839 11.6216L30.4884 10.0624L32.0944 8.99204L34.4639 8.73304L39.7531 5.58017L42.6545 7.91377L44.766 10.8367V12.7263L43.9129 13.5192L44.9871 14.571L44.5 15.3638L45.5295 16.6905L48.4124 17.2059V18.5431L49.734 19.8698H50.516L51.5533 21.6854V23.2791L53.1408 25.3986L57.6587 28.5779L62.3714 34.3868L61.5895 35.4201L68.0003 46.0416L74.7323 59.2239L73.4475 61.5945L74.4848 62.1283L76.8543 62.4058V63.7061L76.3304 63.9836L76.0645 66.0952L78.6815 67.147L78.9474 69.2666V71.3782H82.1252L87.0537 75.2023L90.4579 76.0744L92.393 77.9984L93.9464 78.2389L94.336 80.3584H95.0758L96.0684 81.4208L97.6612 80.6333L98.738 82.7608V85.1076L97.3901 87.2218V88.8075L97.8929 92.7902L98.4326 93.5646L98.4458 95.6788L99.2672 96.7491L97.1742 99.5875L94.9705 104.382L91.8665 106.263V106.797L92.1061 107.048H94.0043L95.0443 107.294V108.88H94.7625L94.2491 109.176L94.236 111.832L94.7494 112.091V112.632H93.72V113.653L94.7599 114.71L94.4545 115.006H93.9516V115.51L94.2018 115.761H94.9784L95.2733 116.076V116.605L95.7999 117.133L96.0579 117.611L95.813 117.931L96.3633 118.399H96.8582L98.1562 118.851L97.9429 120.223V122.398L97.3374 122.675H96.3633L96.0684 122.086V120.759L95.5629 120.04L94.7099 119.173H94.0122L93.4619 119.469L92.8933 119.985L92.3983 120.281L92.1219 121.055V121.57L93.225 122.678H93.6647V123.434L94.4729 123.711H95.1153L95.813 123.952H96.853V125.556L96.3501 125.815V124.808H95.8104V125.582H95.5629L95.0153 125.815L94.7467 126.135V127.141H95.2601V127.411L95.8236 127.953L96.3369 128.212H97.1084V128.74H97.9535L97.6349 127.942H97.3769V126.37L97.9166 126.137V127.379L98.4432 127.712V128.191L98.7249 128.46H99.2146L99.7648 128.214L99.9965 128.447V128.743L99.7648 129.013L99.52 129.282L98.9803 129.787V130.056H99.2383V130.352H99.7648L100.299 130.593H100.823V131.1H100.299V131.875L101.861 133.468L102.669 134.795L103.174 135.329H103.706V135.606L103.44 135.855V137.181L103.954 137.422H104.23V137.985L105.012 138.778L105.573 139.594L105.802 139.848H106.592V138.788H106.334V137.977L104.736 135.894L104.488 134.835H104.241V133.746L105.049 133.201L105.307 132.961L105.554 133.495L105.562 133.772V134.824L105.839 135.073V135.588H106.097V136.381L106.592 137.192L107.097 137.459V138.233H107.621L107.41 138.537V140.316L108.798 140.99L108.448 142.427L108.743 143.479L110.457 145.2L111.023 145.398L111.354 144.883H111.705L112.144 146.154L112.242 147.034L111.623 146.714H111.354V147.771L112.144 149.394L112.531 150.033L112.679 151.225L112.91 151.717L113.424 151.458V149.367L113.956 148.834L114.766 149.064H115.235V147.745L116.349 148.569L116.091 149.603H115.577V150.131L115.014 150.697L115.835 151.725L116.349 152L115.564 152.541L114.793 153.575V154.09L115.564 154.865H116.03L116.349 155.406H116.862L116.996 156.315L117.657 156.487L117.889 156.204H118.439V155.43L119.284 154.902L119.511 155.129H121.085L121.662 155.171L121.883 156.178L121.614 157.003V157.814L121.993 157.875L122.141 158.305L121.664 158.379L121.433 158.797L121.899 162.534L122.217 163.123L123.455 162.84V163.345L122.928 164.18V164.759L123.441 164.439L124.263 165.436H124.789L125.548 164.957V165.732L125.008 165.991L124.505 166.815L123.715 167.066L122.889 167.613L123.157 168.634L124.811 168.657L125.545 168.361L126.904 167.341L125.6 168.327L126.095 168.644H126.622V169.159L126.082 169.712L124.784 169.958L123.718 169.712L123.186 170.505V171.001L124.179 171.998L125.074 172.262L124.505 171.556H126.072L126.622 172.061L125.827 172.074V172.331L126.377 172.64L126.082 172.886L125.556 173.93L126.082 174.471H126.548L126.927 175.296H127.662L128.42 175.529L129.215 176.316L130.587 177.091H131.003L131.59 176.575L132.13 176.306V175.727L132.706 174.767L133.22 174.754L133.686 174.976L133.491 175.764L134.225 176.033H135.265L136.392 175.259L136.653 175.558L136.11 176.073V176.847L136.653 177.091H137.682L138.978 176.575L139.28 176.832L140.244 176.913L140.023 177.918H141.089L141.639 177.355H141.879V177.918L140.547 178.933H140.07L139.786 179.485L140.062 179.707H140.568L140.815 179.495L141.881 180.312L141.342 181.086H140.607L140.068 181.591V182.157L140.349 182.672L140.876 182.918L142.627 183.016L143.73 182.646L144.514 182.817L144.796 183.716H145.799L146.607 183.446L148.187 183.46L149.559 183.975V185.008L149.79 185.598L150.833 186.065V186.618L151.618 187.416L152.684 186.901C152.881 186.961 153.11 187.146 153.11 187.146L153.476 187.902L154.598 188.973L154.977 190.355L155.156 191.185L157.891 193.5V194.274L158.223 194.557L158.75 194.742L160.071 195.048L160.574 195.331L161.909 196.658L163.47 198.225L163.965 198.925L164.866 199.774L167.125 200.419L168.165 201.156L168.997 200.86V199.065L171.616 197.712V196.951L171.911 196.423H172.93L172.166 197.197V198.222L171.677 198.756L171.872 199.827L171.1 201.449V202.2L171.677 202.459L171.664 203.27L172.398 204.314L172.661 206.428L173.243 206.994V207.922H270.864V206.954L269.835 205.387L269.843 205.382Z" fill="#C1B59B" stroke="#736C5D" stroke-linecap="round" stroke-linejoin="round"/>
<path d="M87.6549 154.629L87.4022 153.837L87.9209 153.308L86.5887 152.782L86.3412 152.523L87.131 152.251V151.722L86.3333 151.204H86.07L85.5645 151.712L85.7988 152.238H85.2933L85.0011 151.725H84.5035L84.2376 151.455V150.398L84.8221 150.644L85.0327 150.39L84.7431 150.137V149.883H85.009L85.2723 149.346L85.5434 148.966L85.0195 148.826L84.2376 149.344L84.2429 149.883L83.7189 150.393V149.888L83.4241 149.352L83.453 148.551L82.9133 147.803L81.9971 147.232L81.6022 147.499L80.528 145.95V145.38L80.2858 144.833L80.8123 144.846L81.3758 145.388V146.172L82.1472 146.154L82.9186 145.633L83.1871 145.11L83.1766 144.058L82.9133 143.802H82.6553L82.3867 144.053L81.6074 144.33L81.0809 144.28L79.4907 144.071L79.7724 143.001L80.8176 142.198L80.8071 141.281L81.3336 140.353V139.811L80.8071 139.018L80.7992 137.441L79.7592 135.596L78.9562 134.552L78.1585 133.471V129.776L78.4613 128.476L78.1664 127.435L78.6903 126.346L78.8009 124.451L80.5148 121.721L81.0098 120.347L81.2941 117.701L81.0703 116.98L79.8645 119.16H78.9694L78.1743 120.009H76.3129L75.8232 120.55H74.9886L74.7569 120.244V119.493L74.4989 118.962L73.2378 118.706L71.1079 118.941L70.2628 117.884H69.7599L69.1596 118.423H68.1565L66.3189 117.133H66.0635L65.8186 117.931L65.5238 118.399V118.695L66.0556 119.226V120.27L65.2552 120.833L65.0156 122.123V123.183L65.4922 124.227L65.2736 124.52V124.768L66.1451 125.305L66.8428 126.087L67.3667 127.673L66.8533 128.191V128.466L67.422 128.992V129.536L69.5072 132.974L69.8047 134.261L70.7841 134.301L71.6108 136.074L71.3343 137.419L71.8767 138.239L73.7038 139.298L73.7328 139.843L74.6779 141.651L74.7701 142.203L77.3766 145.134H77.6714L79.5091 147.256L80.0225 147.777L80.757 147.999L81.5653 149.069L81.797 150.419H82.3499L82.5947 151.429L83.7321 153.052L84.0033 153.247L84.1981 152.793H84.4666V153.321L84.9827 154.365L85.7646 154.119L86.0726 154.365H86.8809V155.681L87.0889 156.456V156.923L87.3706 157.291H87.9077V157.008L87.6339 156.733V155.977L87.9077 155.694H88.4237L88.7291 155.385V154.931H88.2026L87.6549 154.629Z" fill="#C1B59B" stroke="#736C5D" stroke-linecap="round" stroke-linejoin="round"/>
<path d="M223.525 176.554L224.812 175.996V175.275L224.017 174.194H223.478V172.878L222.988 171.242H222.461L221.666 169.891L222.683 169.252L221.335 168.366L221.787 168.07V166.498L220.6 166.006V165.427L219.291 164.936L219.792 163.34L218.03 162.343L218.765 161.495V160.425H218.03L217.441 158.054L218.765 157.795L217.441 157.007L219.01 155.927V154.637L219.31 153.836H219.302L219.028 152.76L218.494 152.338L219.578 151.471L218.225 150.395V148.796L218.752 148.55L218.507 148.017V146.991L217.454 146.32H216.922V145.633L216.359 144.851H215.911L215.316 145.902V146.436L213.768 146.695L213.499 146.18V145.369H211.649L210.84 144.317L209.042 144.993L207.681 144.084H206.928L206.391 142.744V142.221H205.875L205.288 141.391H203.45L202.905 141.938L203.445 142.995L203.75 145.406H204.266V145.908L202.968 147.446L200.873 148.294V148.804L201.67 149.092L200.899 150.911H201.362V152.24L202.415 153.271V154.328H203.237V154.92L202.207 156.468L204.266 156.479V157.058L202.184 158.091H200.701L199.833 159L200.554 159.381L200.591 170.713H200.027L199.575 170.222H198.229V169.706H197.445L196.123 171.033V172.061H195.381L194.849 171.524H192.974L192.192 172.362V173.211L191.176 174.194H189.265L187.453 174.45L186.595 175.016L186.092 174.759L185.847 173.137L185.347 172.349L183.73 171.279V170.504L180.068 170.222L178.733 171.538V172.619H178.22L177.422 171.501L176.224 171.807L175.342 170.959L173.663 170.481V171.807L172.438 172.645V173.11H171.68V174.439L170.59 173.935H169.806L168.508 175.52L166.602 176.564V177.613L167.72 178.396L168.237 177.862L168.934 178.396L169.532 177.391L170.322 177.888L170.843 178.914H171.909L172.175 179.485V180.507H172.625L173.489 181.319L174.537 181.07V182.104H174.958L175.345 181.06L177.098 179.751L178.504 180.259L178.991 181.052V182.352L178.21 182.886V183.383L178.752 183.734H181.627L182.159 183.163H182.683V183.734L183.738 183.964V185.33L182.461 185.854L181.911 186.879V188.75L182.417 189.239H184.281L184.791 189.749H185.31V188.999L186.118 188.195V187.661H186.898L187.688 188.436H188.477V187.661L188.993 187.154L191.113 187.672H192.943V188.98L192.419 189.276V190.566L192.987 191.396V192.159L192.445 192.971V193.47H193.493L194.264 193.203H194.807V194.004L194.338 194.52H193.722L193.482 194.789V195.331L194.006 195.849L194.504 196.116V196.909L194.254 197.168V197.701L194.741 198.217L195.604 197.498L196.926 195.064L197.176 193.497L198.369 192.981H199.269L199.553 191.626L200.325 191.885V193.222L201.628 193.489L203.026 192.455L204.008 193.211V193.774H204.558L204.843 193.478V192.648L204.293 191.866V191.385L205.883 190.325V191.092L208.747 190.843L209.316 190.325L209.785 189.533L208.734 188.478L209.271 187.141L210.098 186.316L210.622 184.987L210.345 183.956L211.18 183.182L211.412 183.956L212.475 184.757L214 184.482L215.074 183.171V182.397H214.56L214.265 181.604V180.544H215.074L215.874 179.207V178.406H217.949L219.033 178.692L219.528 177.603V177.077L221.1 177.354L221.411 175.787L221.65 175.243H222.469L223.525 176.554Z" fill="#003366"/>
<rect width="90" height="24" transform="translate(101 137)" fill="white"/>
<path d="M109.28 145.768V144.004H116.826V145.768H114.11V154H111.996V145.768H109.28ZM118.199 143.36H120.285V145.53C120.285 145.922 120.271 146.286 120.243 146.622C120.225 146.958 120.206 147.196 120.187 147.336H120.299C120.542 146.944 120.85 146.659 121.223 146.482C121.606 146.305 122.035 146.216 122.511 146.216C122.922 146.216 123.295 146.272 123.631 146.384C123.967 146.487 124.257 146.655 124.499 146.888C124.742 147.112 124.929 147.401 125.059 147.756C125.19 148.101 125.255 148.521 125.255 149.016V154H123.169V149.534C123.169 148.433 122.759 147.882 121.937 147.882C121.312 147.882 120.878 148.097 120.635 148.526C120.402 148.955 120.285 149.581 120.285 150.402V154H118.199V143.36ZM134.345 150.164C134.345 151.433 134.009 152.413 133.337 153.104C132.674 153.795 131.769 154.14 130.621 154.14C129.911 154.14 129.277 153.986 128.717 153.678C128.166 153.37 127.732 152.922 127.415 152.334C127.097 151.737 126.939 151.013 126.939 150.164C126.939 148.895 127.27 147.919 127.933 147.238C128.595 146.557 129.505 146.216 130.663 146.216C131.381 146.216 132.016 146.37 132.567 146.678C133.117 146.986 133.551 147.434 133.869 148.022C134.186 148.61 134.345 149.324 134.345 150.164ZM129.067 150.164C129.067 150.92 129.188 151.494 129.431 151.886C129.683 152.269 130.089 152.46 130.649 152.46C131.199 152.46 131.596 152.269 131.839 151.886C132.091 151.494 132.217 150.92 132.217 150.164C132.217 149.408 132.091 148.843 131.839 148.47C131.596 148.087 131.195 147.896 130.635 147.896C130.084 147.896 129.683 148.087 129.431 148.47C129.188 148.843 129.067 149.408 129.067 150.164ZM136.069 154V146.356H137.665L137.945 147.336H138.057C138.29 146.944 138.607 146.659 139.009 146.482C139.41 146.305 139.835 146.216 140.283 146.216C140.843 146.216 141.314 146.305 141.697 146.482C142.089 146.659 142.392 146.944 142.607 147.336H142.789C143.022 146.944 143.344 146.659 143.755 146.482C144.165 146.305 144.595 146.216 145.043 146.216C145.911 146.216 146.564 146.44 147.003 146.888C147.451 147.327 147.675 148.036 147.675 149.016V154H145.589V149.534C145.589 148.433 145.206 147.882 144.441 147.882C143.881 147.882 143.484 148.078 143.251 148.47C143.027 148.862 142.915 149.427 142.915 150.164V154H140.829V149.534C140.829 148.433 140.446 147.882 139.681 147.882C139.102 147.882 138.701 148.101 138.477 148.54C138.262 148.969 138.155 149.59 138.155 150.402V154H136.069ZM149.822 146.356H151.516L151.81 147.35H151.908C152.114 147.042 152.384 146.776 152.72 146.552C153.066 146.328 153.518 146.216 154.078 146.216C154.508 146.216 154.9 146.3 155.254 146.468C155.609 146.636 155.912 146.888 156.164 147.224C156.416 147.551 156.612 147.961 156.752 148.456C156.892 148.951 156.962 149.52 156.962 150.164C156.962 150.817 156.888 151.391 156.738 151.886C156.598 152.381 156.398 152.796 156.136 153.132C155.875 153.468 155.562 153.72 155.198 153.888C154.844 154.056 154.452 154.14 154.022 154.14C153.472 154.14 153.033 154.042 152.706 153.846C152.38 153.641 152.114 153.412 151.908 153.16H151.796C151.834 153.356 151.862 153.547 151.88 153.734C151.899 153.921 151.908 154.103 151.908 154.28V157.36H149.822V146.356ZM151.908 149.926V150.15C151.908 150.887 152.016 151.457 152.23 151.858C152.454 152.25 152.856 152.446 153.434 152.446C153.91 152.446 154.26 152.25 154.484 151.858C154.718 151.466 154.834 150.892 154.834 150.136C154.834 148.633 154.358 147.882 153.406 147.882C152.865 147.882 152.482 148.055 152.258 148.4C152.034 148.736 151.918 149.245 151.908 149.926ZM164.016 151.732C164.016 152.507 163.741 153.104 163.19 153.524C162.649 153.935 161.837 154.14 160.754 154.14C160.222 154.14 159.765 154.103 159.382 154.028C158.999 153.963 158.617 153.851 158.234 153.692V151.97C158.645 152.157 159.088 152.311 159.564 152.432C160.04 152.553 160.46 152.614 160.824 152.614C161.225 152.614 161.515 152.553 161.692 152.432C161.869 152.311 161.958 152.152 161.958 151.956C161.958 151.825 161.921 151.709 161.846 151.606C161.781 151.503 161.631 151.387 161.398 151.256C161.165 151.125 160.801 150.957 160.306 150.752C159.821 150.547 159.424 150.346 159.116 150.15C158.817 149.945 158.593 149.702 158.444 149.422C158.295 149.133 158.22 148.773 158.22 148.344C158.22 147.635 158.495 147.103 159.046 146.748C159.597 146.393 160.329 146.216 161.244 146.216C161.72 146.216 162.173 146.263 162.602 146.356C163.031 146.449 163.475 146.603 163.932 146.818L163.302 148.316C162.929 148.157 162.574 148.027 162.238 147.924C161.902 147.812 161.561 147.756 161.216 147.756C160.6 147.756 160.292 147.924 160.292 148.26C160.292 148.381 160.329 148.493 160.404 148.596C160.488 148.689 160.642 148.792 160.866 148.904C161.099 149.016 161.44 149.165 161.888 149.352C162.327 149.529 162.705 149.716 163.022 149.912C163.339 150.099 163.582 150.337 163.75 150.626C163.927 150.915 164.016 151.284 164.016 151.732ZM172.585 150.164C172.585 151.433 172.249 152.413 171.577 153.104C170.914 153.795 170.009 154.14 168.861 154.14C168.151 154.14 167.517 153.986 166.957 153.678C166.406 153.37 165.972 152.922 165.655 152.334C165.337 151.737 165.179 151.013 165.179 150.164C165.179 148.895 165.51 147.919 166.173 147.238C166.835 146.557 167.745 146.216 168.903 146.216C169.621 146.216 170.256 146.37 170.807 146.678C171.357 146.986 171.791 147.434 172.109 148.022C172.426 148.61 172.585 149.324 172.585 150.164ZM167.307 150.164C167.307 150.92 167.428 151.494 167.671 151.886C167.923 152.269 168.329 152.46 168.889 152.46C169.439 152.46 169.836 152.269 170.079 151.886C170.331 151.494 170.457 150.92 170.457 150.164C170.457 149.408 170.331 148.843 170.079 148.47C169.836 148.087 169.435 147.896 168.875 147.896C168.324 147.896 167.923 148.087 167.671 148.47C167.428 148.843 167.307 149.408 167.307 150.164ZM174.309 146.356H175.905L176.185 147.336H176.297C176.539 146.944 176.871 146.659 177.291 146.482C177.72 146.305 178.173 146.216 178.649 146.216C179.47 146.216 180.128 146.44 180.623 146.888C181.117 147.327 181.365 148.036 181.365 149.016V154H179.279V149.534C179.279 148.974 179.181 148.559 178.985 148.288C178.789 148.017 178.476 147.882 178.047 147.882C177.412 147.882 176.978 148.101 176.745 148.54C176.511 148.969 176.395 149.59 176.395 150.402V154H174.309V146.356Z" fill="#003366"/>
</g>
<defs>
<clipPath id="clip0_13898_192526">
<rect width="272" height="220" fill="white"/>
</clipPath>
</defs>
</svg>
