<svg width="272" height="220" viewBox="0 0 272 220" fill="none" xmlns="http://www.w3.org/2000/svg">
<g clip-path="url(#clip0_13898_192561)">
<path d="M169.513 212.71V212.01L169.844 211.677H170.561L170.321 211.273L169.255 210.591V209.761L168.152 209.061V209.539L168.446 209.89V210.387H168.207L167.749 210.184L165.827 207.75L166.303 206.79L165.348 205.561L163.181 203.558L161.088 202.464L158.75 201.922L158.223 201.663L157.939 201.682L157.965 201.7L157.133 201.148L156.08 200.337L155.272 199.549L153.766 197.472L152.945 196.893V196.378L153.458 196.658H153.716L154.011 196.378V195.849L153.497 195.297H152.91V194.818L151.881 193.97V193.492L150.57 192.657V191.882L150.062 191.092L150.32 190.577L150.062 190.024L148.74 188.743V188.18L148.464 187.408L148.169 187.12V186.335L147.884 185.783L146.855 185.027L146.165 185.212L144.567 185.312L144.017 184.768H142.382L141.655 183.983L140.544 183.457H139.533L139.251 183.177H136.642L136.384 182.685H134.989L133.715 182.144H132.675L131.535 181.308H129.918V180.867L128.57 180.278L126.588 178.716L124.213 177.389L122.204 176.768L121.496 176.057H119.829L118.8 176.567L117.623 177.355H116.375L115.641 177.624L116.075 178.362L116.599 178.528L116.636 179.458L117.131 179.966L117.426 181.248L118.189 182.077L118.971 182.889L119.824 183.203L119.75 182.614L119.795 182.107L120.301 182.373V182.87L121.238 182.788L121.714 183.23L121.117 184.226L120.29 185.008L120.548 185.82L121.072 185.812L121.349 185.259H121.872L122.13 185.582V186.293L122.71 186.615V187.411L121.08 188.727V189.517L122.183 190.019L123.665 188.999L124.242 188.986L125.6 189.81H126.066L126.888 190.561L127.941 190.302L128.186 189.319L127.891 188.484L128.16 188.47L128.441 188.74L128.773 189.232L129.41 189.353L129.766 188.973L130.268 188.959L130.282 189.514L129.034 190.323L129.242 190.828L129.768 190.804V191.137L128.739 191.629L128.984 192.686L129.779 193.484H131.09V192.918L131.566 193.214H131.872V192.686L132.14 192.427L132.372 193.225L132.941 192.836L132.885 191.602L133.425 191.898L133.638 192.802L133.07 193.484L131.869 194.012L132.138 194.517H132.896L132.956 194.784L132.148 195.336L131.89 196.129L132.459 196.655H132.946L133.222 196.914V197.44L134.241 197.966L134.747 197.958L135.297 196.917V196.391L135.555 196.124H136.116L136.898 195.561V195.091L136.632 194.546H137.377L137.661 195.302L136.898 196.121L136.879 196.674L137.661 196.904L137.946 196.645L138.743 196.83L138.504 197.189L138.154 197.448H137.685L137.143 197.171L136.087 198.23L136.634 199.821H137.672V200.625L138.749 201.658H138.993L139.238 201.153L138.993 200.611L139.251 200.096L139.773 200.884L140.341 201.412L139.773 201.671V201.949L140.031 202.446V202.974L141.097 203.516V202.263L140.821 201.967L141.042 201.322L141.61 202.189H142.179V201.674L142.637 201.766V202.689L141.903 203.204V203.756H142.379L142.985 202.977L143.206 203.26H143.664L143.94 202.726L144.254 203.556H144.749V205.141L145.317 205.675V206.653L147.229 209.087L147.632 209.105L148.79 207.98V207.242H149.793V208.55H150.572L150.867 208.017H152.007L152.394 207.758L153.166 208.017L153.018 208.532L151.641 210.118L151.31 210.947L151.604 211.722L152.945 212.718L154.506 213.271L155.791 214.653L156.599 214.875L158.215 214.893L158.492 215.686L159.813 215.964L164.552 218.046L166.187 218.305L167.435 218.876H168.225L168.52 218.561V218.102L169.31 216.994H169.786V217.364L170.189 217.824L171.274 217.75L171.403 216.569L170.3 212.716H169.51L169.513 212.71Z" fill="#C1B59B" stroke="#736C5D" stroke-linecap="round" stroke-linejoin="round"/>
<path d="M269.843 205.382L269.09 204.848H267.758L267.281 203.521L264.59 200.876V200.35L265.399 199.557V198.497L264.058 198.764L263.498 197.445L264.085 196.893V196.137H264.819V193.74L264.535 192.155V190.339L263.782 189.509V187.968L263.524 186.605L262.974 185.838L263.25 185.286L262.231 184.467V183.719L260.625 181.322L259.836 180.777L259.322 181.597L258.377 182.067L257.469 180.822V178.94L255.613 178.415L254.299 175.769V174.984L253.232 173.665H252.451L252.716 172.846L249.768 172.08L250.118 171.001L249.841 170.217L247.996 169.397V168.9H246.93L246.672 168.1V166.514L245.616 165.729V164.936L244.818 163.377L243.523 162.851V161.773L242.98 161.239V160.309H241.696L241.153 162.013H239.821L239.574 160.187L239.042 159.653V158.575L238.27 158.298L237.417 157.026L236.109 155.705L235.864 153.517L235.079 154.389L232.936 154.635L232.239 153.823V153.281H230.88L230.34 152.803L230.119 151.992L231.159 151.167L231.612 150.332L231.122 149.582H230.106L228.258 148.009L227.708 148.797L227.684 149.645L225.646 150.396V149.079L226.394 148.527V148.086H225.672L225.341 147.753V146.701H224.556V145.871L225.217 145.379V144.568L224.83 143.529L223.79 143.271V142.742L224.298 142.464V141.82H223.495L223.25 140.622L221.929 141.391L221.689 140.107L220.857 139.555L221.689 139.198L221.407 138.492L220.115 138.247L220.328 136.666L218.503 135.326V134.816L217.187 134.798L217.474 136.407L217.198 136.912L215.876 135.332L215.607 135.609H214.823L213.793 133.653V132.977L213.488 132.448H210.315L209.42 131.772V131.034L208.954 129.805H207.988L207.767 129.573L208.257 129.031L207.485 128.183L207.643 127.741L209.31 128.566L209.665 127.398L208.728 126.145H207.809L207.956 124.911H207.075L206.798 124.409V1.13232H1.13281L1.70149 1.64767L4.97141 3.34435L5.46111 5.85238L17.1928 18.0701L18.1222 22.4836L17.8826 24.6031H18.4328L25.3123 19.2831H28.1399L29.1772 12.9483L30.4989 13.2337L31.839 11.6216L30.4884 10.0624L32.0944 8.99204L34.4639 8.73304L39.7531 5.58017L42.6545 7.91377L44.766 10.8367V12.7263L43.9129 13.5192L44.9871 14.571L44.5 15.3638L45.5295 16.6905L48.4124 17.2059V18.5431L49.734 19.8698H50.516L51.5533 21.6854V23.2791L53.1408 25.3986L57.6587 28.5779L62.3714 34.3868L61.5895 35.4201L68.0003 46.0416L74.7323 59.2239L73.4475 61.5945L74.4848 62.1283L76.8543 62.4058V63.7061L76.3304 63.9836L76.0645 66.0952L78.6815 67.147L78.9474 69.2666V71.3782H82.1252L87.0537 75.2023L90.4579 76.0744L92.393 77.9984L93.9464 78.2389L94.336 80.3584H95.0758L96.0684 81.4208L97.6612 80.6333L98.738 82.7608V85.1076L97.3901 87.2218V88.8075L97.8929 92.7902L98.4326 93.5646L98.4458 95.6788L99.2672 96.7491L97.1742 99.5875L94.9705 104.382L91.8665 106.263V106.797L92.1061 107.048H94.0043L95.0443 107.294V108.88H94.7625L94.2491 109.176L94.236 111.832L94.7494 112.091V112.632H93.72V113.653L94.7599 114.71L94.4545 115.006H93.9516V115.51L94.2018 115.761H94.9784L95.2733 116.076V116.605L95.7999 117.133L96.0579 117.611L95.813 117.931L96.3633 118.399H96.8582L98.1562 118.851L97.9429 120.223V122.398L97.3374 122.675H96.3633L96.0684 122.086V120.759L95.5629 120.04L94.7099 119.173H94.0122L93.4619 119.469L92.8933 119.985L92.3983 120.281L92.1219 121.055V121.57L93.225 122.678H93.6647V123.434L94.4729 123.711H95.1153L95.813 123.952H96.853V125.556L96.3501 125.815V124.808H95.8104V125.582H95.5629L95.0153 125.815L94.7467 126.135V127.141H95.2601V127.411L95.8236 127.953L96.3369 128.212H97.1084V128.74H97.9535L97.6349 127.942H97.3769V126.37L97.9166 126.137V127.379L98.4432 127.712V128.191L98.7249 128.46H99.2146L99.7648 128.214L99.9965 128.447V128.743L99.7648 129.013L99.52 129.282L98.9803 129.787V130.056H99.2383V130.352H99.7648L100.299 130.593H100.823V131.1H100.299V131.875L101.861 133.468L102.669 134.795L103.174 135.329H103.706V135.606L103.44 135.855V137.181L103.954 137.422H104.23V137.985L105.012 138.778L105.573 139.594L105.802 139.848H106.592V138.788H106.334V137.977L104.736 135.894L104.488 134.835H104.241V133.746L105.049 133.201L105.307 132.961L105.554 133.495L105.562 133.772V134.824L105.839 135.073V135.588H106.097V136.381L106.592 137.192L107.097 137.459V138.233H107.621L107.41 138.537V140.316L108.798 140.99L108.448 142.427L108.743 143.479L110.457 145.2L111.023 145.398L111.354 144.883H111.705L112.144 146.154L112.242 147.034L111.623 146.714H111.354V147.771L112.144 149.394L112.531 150.033L112.679 151.225L112.91 151.717L113.424 151.458V149.367L113.956 148.834L114.766 149.064H115.235V147.745L116.349 148.569L116.091 149.603H115.577V150.131L115.014 150.697L115.835 151.725L116.349 152L115.564 152.541L114.793 153.575V154.09L115.564 154.865H116.03L116.349 155.406H116.862L116.996 156.315L117.657 156.487L117.889 156.204H118.439V155.43L119.284 154.902L119.511 155.129H121.085L121.662 155.171L121.883 156.178L121.614 157.003V157.814L121.993 157.875L122.141 158.305L121.664 158.379L121.433 158.797L121.899 162.534L122.217 163.123L123.455 162.84V163.345L122.928 164.18V164.759L123.441 164.439L124.263 165.436H124.789L125.548 164.957V165.732L125.008 165.991L124.505 166.815L123.715 167.066L122.889 167.613L123.157 168.634L124.811 168.657L125.545 168.361L126.904 167.341L125.6 168.327L126.095 168.644H126.622V169.159L126.082 169.712L124.784 169.958L123.718 169.712L123.186 170.505V171.001L124.179 171.998L125.074 172.262L124.505 171.556H126.072L126.622 172.061L125.827 172.074V172.331L126.377 172.64L126.082 172.886L125.556 173.93L126.082 174.471H126.548L126.927 175.296H127.662L128.42 175.529L129.215 176.316L130.587 177.091H131.003L131.59 176.575L132.13 176.306V175.727L132.706 174.767L133.22 174.754L133.686 174.976L133.491 175.764L134.225 176.033H135.265L136.392 175.259L136.653 175.558L136.11 176.073V176.847L136.653 177.091H137.682L138.978 176.575L139.28 176.832L140.244 176.913L140.023 177.918H141.089L141.639 177.355H141.879V177.918L140.547 178.933H140.07L139.786 179.485L140.062 179.707H140.568L140.815 179.495L141.881 180.312L141.342 181.086H140.607L140.068 181.591V182.157L140.349 182.672L140.876 182.918L142.627 183.016L143.73 182.646L144.514 182.817L144.796 183.716H145.799L146.607 183.446L148.187 183.46L149.559 183.975V185.008L149.79 185.598L150.833 186.065V186.618L151.618 187.416L152.684 186.901C152.881 186.961 153.11 187.146 153.11 187.146L153.476 187.902L154.598 188.973L154.977 190.355L155.156 191.185L157.891 193.5V194.274L158.223 194.557L158.75 194.742L160.071 195.048L160.574 195.331L161.909 196.658L163.47 198.225L163.965 198.925L164.866 199.774L167.125 200.419L168.165 201.156L168.997 200.86V199.065L171.616 197.712V196.951L171.911 196.423H172.93L172.166 197.197V198.222L171.677 198.756L171.872 199.827L171.1 201.449V202.2L171.677 202.459L171.664 203.27L172.398 204.314L172.661 206.428L173.243 206.994V207.922H270.864V206.954L269.835 205.387L269.843 205.382Z" fill="#C1B59B" stroke="#736C5D" stroke-linecap="round" stroke-linejoin="round"/>
<path d="M87.6549 154.629L87.4022 153.837L87.9209 153.308L86.5887 152.782L86.3412 152.523L87.131 152.251V151.722L86.3333 151.204H86.07L85.5645 151.712L85.7988 152.238H85.2933L85.0011 151.725H84.5035L84.2376 151.455V150.398L84.8221 150.644L85.0327 150.39L84.7431 150.137V149.883H85.009L85.2723 149.346L85.5434 148.966L85.0195 148.826L84.2376 149.344L84.2429 149.883L83.7189 150.393V149.888L83.4241 149.352L83.453 148.551L82.9133 147.803L81.9971 147.232L81.6022 147.499L80.528 145.95V145.38L80.2858 144.833L80.8123 144.846L81.3758 145.388V146.172L82.1472 146.154L82.9186 145.633L83.1871 145.11L83.1766 144.058L82.9133 143.802H82.6553L82.3867 144.053L81.6074 144.33L81.0809 144.28L79.4907 144.071L79.7724 143.001L80.8176 142.198L80.8071 141.281L81.3336 140.353V139.811L80.8071 139.018L80.7992 137.441L79.7592 135.596L78.9562 134.552L78.1585 133.471V129.776L78.4613 128.476L78.1664 127.435L78.6903 126.346L78.8009 124.451L80.5148 121.721L81.0098 120.347L81.2941 117.701L81.0703 116.98L79.8645 119.16H78.9694L78.1743 120.009H76.3129L75.8232 120.55H74.9886L74.7569 120.244V119.493L74.4989 118.962L73.2378 118.706L71.1079 118.941L70.2628 117.884H69.7599L69.1596 118.423H68.1565L66.3189 117.133H66.0635L65.8186 117.931L65.5238 118.399V118.695L66.0556 119.226V120.27L65.2552 120.833L65.0156 122.123V123.183L65.4922 124.227L65.2736 124.52V124.768L66.1451 125.305L66.8428 126.087L67.3667 127.673L66.8533 128.191V128.466L67.422 128.992V129.536L69.5072 132.974L69.8047 134.261L70.7841 134.301L71.6108 136.074L71.3343 137.419L71.8767 138.239L73.7038 139.298L73.7328 139.843L74.6779 141.651L74.7701 142.203L77.3766 145.134H77.6714L79.5091 147.256L80.0225 147.777L80.757 147.999L81.5653 149.069L81.797 150.419H82.3499L82.5947 151.429L83.7321 153.052L84.0033 153.247L84.1981 152.793H84.4666V153.321L84.9827 154.365L85.7646 154.119L86.0726 154.365H86.8809V155.681L87.0889 156.456V156.923L87.3706 157.291H87.9077V157.008L87.6339 156.733V155.977L87.9077 155.694H88.4237L88.7291 155.385V154.931H88.2026L87.6549 154.629Z" fill="#C1B59B" stroke="#736C5D" stroke-linecap="round" stroke-linejoin="round"/>
<path d="M203.449 142.995L202.909 141.938L203.454 141.391H205.292L204.571 140.371H202.983L202.201 139.319H200.885L200.608 138.244H199.505L198.215 136.684L198.779 135.865H199.537V134.552L199.034 134.028L197.181 133.759L196.17 134.004L195.877 131.454L192.958 133.748H191.375L191.115 134.837L187.929 135.091L186.886 134.287H185.357V133.732L184.017 133.764V134.789L181.792 135.947L180.341 135.062V135.706L178.511 136.986H177.795L176.645 134.538L175.592 133.518L172.701 134.213L171.843 133.74L169.518 134.552L168.733 131.367L166.137 131.38L165.598 130.587L163.981 130.561L162.183 131.901L160.609 130.593L159.532 131.158L159.232 129.787L157.681 129.21L157.425 130.587L158.489 131.38L158.202 131.909H156.899V132.429L158.215 133.746H158.734V134.803L158.16 135.331L159.005 136.137L158.502 136.935H155.864L155.583 136.402H153.482L153.205 134.023L151.375 133.23L150.599 133.759L150.304 134.808H148.748V135.582L147.439 136.402V137.205L146.104 138.51L144.522 139.039V135.223H140.881L138.999 137.173H137.419L136.919 138.51L135.839 139.589H135.326V138.516H134.802L133.983 139.565L133.459 139.026V137.184L132.951 136.93L132.417 137.445V137.971H130.837L130.842 136.93L131.377 136.386L130.834 135.067L131.6 134.552V133.753L130.576 133.494L129.91 134.818L129.023 134.554H128.207L127.133 135.104L125.848 136.394L126.38 137.731H127.912L128.683 138.238V140.091L127.949 140.59L128.483 141.695H128.997L128.757 142.461L127.133 142.755V144.047L126.332 145.125H125.608L124.516 144.333V142.985L123.183 143.521L122.412 143.254V141.669L121.356 140.884L120.803 139.546V138.542L119.529 138.294L118.976 137.741L116.112 138.238H114.514V137.704L113.99 136.671H113.458L112.429 137.464H111.612V138.698H110.354L109.775 140.091L108.811 140.987L108.461 142.424L108.756 143.474L110.467 145.194L111.033 145.392L111.362 144.877H111.712L112.152 146.148L112.25 147.028L111.633 146.708H111.362V147.766L112.152 149.388L112.539 150.025L112.687 151.22L112.918 151.711L113.432 151.452V149.362L113.966 148.828L114.777 149.058H115.246V147.739L116.359 148.564L116.101 149.597H115.588V150.126L115.024 150.691L115.846 151.719L116.359 151.994L115.575 152.533L114.803 153.567V154.082L115.575 154.856H116.041L116.359 155.398H116.873L117.01 156.307L117.67 156.479L117.902 156.196H118.452V155.422L119.297 154.893L119.524 155.121H121.098L121.675 155.165L121.893 156.172L121.625 156.997V157.808L122.004 157.869L122.151 158.3L121.675 158.374L121.441 158.791L121.907 162.528L122.225 163.118L123.463 162.835V163.34L122.936 164.175V164.754L123.449 164.434L124.271 165.427H124.797L125.556 164.949V165.723L125.016 165.982L124.516 166.804L123.726 167.058L122.899 167.605L123.168 168.625L124.821 168.649L125.556 168.353L126.914 167.333L128.678 167.05L128.955 167.597L129.918 167.19V166.522H129.302L128.973 165.737H134.212L135.547 167.04L136.429 167.063L137.164 165.737L140.054 166.794L140.876 166.265V164.936L141.352 163.905H142.419L142.65 163.35V162.293H142.1L141.879 161.495L142.355 160.734V159.872L142.711 158.63H144.535L145.528 159.135V159.933L146.336 160.697H146.95V159.785L147.671 160.462L148.748 159.923H149.264L149.556 160.451L150.285 160.702L150.572 163.585L149.801 164.162L150.28 165.427L149.238 166.818V167.333L150.28 168.107V169.164L149.227 169.976V170.726L149.801 171.561L161.838 171.82V172.854H161.153V173.382L162.109 173.884L163.21 174.992L165.084 175.238L166.124 175.975L166.603 176.564L168.512 175.52L169.81 173.935H170.595L171.685 174.439V173.11H172.443V172.645L173.667 171.807V170.481L175.347 170.959L176.229 171.807L177.427 171.501L178.224 172.619H178.738V171.538L180.073 170.222L183.735 170.504V171.279L185.351 172.349L185.852 173.137L186.097 174.759L186.599 175.016L187.458 174.45L189.269 174.194H191.18L192.197 173.211V172.362L192.979 171.524H194.853L195.385 172.061H196.127V171.033L197.449 169.706H198.234V170.222H199.579L200.032 170.713H200.595L200.558 159.381L199.837 159L200.706 158.091H202.188L204.271 157.058V156.479L202.212 156.468L203.241 154.92V154.328H202.42V153.271L201.367 152.24V150.911H200.903L201.675 149.092L200.877 148.804V148.294L202.973 147.446L204.271 145.908V145.406H203.755L203.449 142.995Z" fill="#003366"/>
<rect width="71" height="24" transform="translate(114 97)" fill="white"/>
<path d="M127.502 105.628C126.69 105.628 126.069 105.931 125.64 106.538C125.211 107.145 124.996 107.975 124.996 109.03C124.996 110.094 125.192 110.92 125.584 111.508C125.985 112.087 126.625 112.376 127.502 112.376C127.903 112.376 128.309 112.329 128.72 112.236C129.131 112.143 129.574 112.012 130.05 111.844V113.622C129.611 113.799 129.177 113.93 128.748 114.014C128.319 114.098 127.838 114.14 127.306 114.14C126.27 114.14 125.421 113.93 124.758 113.51C124.095 113.081 123.605 112.483 123.288 111.718C122.971 110.943 122.812 110.043 122.812 109.016C122.812 108.008 122.994 107.117 123.358 106.342C123.722 105.567 124.249 104.961 124.94 104.522C125.64 104.083 126.494 103.864 127.502 103.864C127.997 103.864 128.491 103.929 128.986 104.06C129.49 104.181 129.971 104.349 130.428 104.564L129.742 106.286C129.369 106.109 128.991 105.955 128.608 105.824C128.235 105.693 127.866 105.628 127.502 105.628ZM134.918 109.282L136.248 109.24V108.904C136.248 108.503 136.141 108.209 135.926 108.022C135.721 107.835 135.431 107.742 135.058 107.742C134.685 107.742 134.321 107.798 133.966 107.91C133.611 108.013 133.257 108.143 132.902 108.302L132.216 106.888C132.617 106.683 133.07 106.519 133.574 106.398C134.078 106.267 134.601 106.202 135.142 106.202C136.178 106.202 136.967 106.421 137.508 106.86C138.049 107.299 138.32 107.98 138.32 108.904V114H136.864L136.458 112.964H136.402C136.234 113.169 136.066 113.347 135.898 113.496C135.739 113.645 135.562 113.767 135.366 113.86C135.17 113.953 134.951 114.023 134.708 114.07C134.465 114.117 134.185 114.14 133.868 114.14C133.532 114.14 133.219 114.093 132.93 114C132.641 113.897 132.389 113.748 132.174 113.552C131.969 113.356 131.805 113.109 131.684 112.81C131.563 112.502 131.502 112.138 131.502 111.718C131.502 110.906 131.787 110.309 132.356 109.926C132.925 109.543 133.779 109.329 134.918 109.282ZM133.644 111.732C133.644 112.049 133.737 112.278 133.924 112.418C134.111 112.549 134.353 112.614 134.652 112.614C135.1 112.614 135.478 112.483 135.786 112.222C136.094 111.951 136.248 111.573 136.248 111.088V110.458L135.436 110.486C134.764 110.505 134.297 110.626 134.036 110.85C133.775 111.074 133.644 111.368 133.644 111.732ZM144.725 106.216C144.828 106.216 144.949 106.221 145.089 106.23C145.229 106.239 145.341 106.253 145.425 106.272L145.271 108.232C145.197 108.213 145.099 108.199 144.977 108.19C144.856 108.171 144.749 108.162 144.655 108.162C144.301 108.162 143.96 108.227 143.633 108.358C143.307 108.479 143.041 108.68 142.835 108.96C142.639 109.24 142.541 109.623 142.541 110.108V114H140.455V106.356H142.037L142.345 107.644H142.443C142.667 107.252 142.975 106.916 143.367 106.636C143.759 106.356 144.212 106.216 144.725 106.216ZM147.863 103.36C148.171 103.36 148.437 103.435 148.661 103.584C148.885 103.724 148.997 103.99 148.997 104.382C148.997 104.765 148.885 105.031 148.661 105.18C148.437 105.329 148.171 105.404 147.863 105.404C147.545 105.404 147.275 105.329 147.051 105.18C146.836 105.031 146.729 104.765 146.729 104.382C146.729 103.99 146.836 103.724 147.051 103.584C147.275 103.435 147.545 103.36 147.863 103.36ZM148.899 106.356V114H146.813V106.356H148.899ZM153.164 103.36V105.838C153.164 106.127 153.155 106.412 153.136 106.692C153.118 106.972 153.099 107.191 153.08 107.35H153.164C153.37 107.033 153.64 106.767 153.976 106.552C154.322 106.328 154.774 106.216 155.334 106.216C155.764 106.216 156.156 106.3 156.51 106.468C156.865 106.636 157.168 106.888 157.42 107.224C157.672 107.551 157.868 107.961 158.008 108.456C158.148 108.951 158.218 109.52 158.218 110.164C158.218 110.817 158.148 111.391 158.008 111.886C157.868 112.381 157.668 112.796 157.406 113.132C157.145 113.468 156.832 113.72 156.468 113.888C156.114 114.056 155.717 114.14 155.278 114.14C154.718 114.14 154.275 114.042 153.948 113.846C153.631 113.641 153.37 113.412 153.164 113.16H153.024L152.674 114H151.078V103.36H153.164ZM153.164 110.15C153.164 110.887 153.272 111.457 153.486 111.858C153.71 112.25 154.112 112.446 154.69 112.446C155.12 112.446 155.46 112.25 155.712 111.858C155.964 111.466 156.09 110.892 156.09 110.136C156.09 109.38 155.964 108.815 155.712 108.442C155.46 108.069 155.11 107.882 154.662 107.882C154.121 107.882 153.738 108.055 153.514 108.4C153.29 108.736 153.174 109.245 153.164 109.926V110.15ZM166.882 110.164C166.882 111.433 166.546 112.413 165.874 113.104C165.211 113.795 164.306 114.14 163.158 114.14C162.448 114.14 161.814 113.986 161.254 113.678C160.703 113.37 160.269 112.922 159.952 112.334C159.634 111.737 159.476 111.013 159.476 110.164C159.476 108.895 159.807 107.919 160.47 107.238C161.132 106.557 162.042 106.216 163.2 106.216C163.918 106.216 164.553 106.37 165.104 106.678C165.654 106.986 166.088 107.434 166.406 108.022C166.723 108.61 166.882 109.324 166.882 110.164ZM161.604 110.164C161.604 110.92 161.725 111.494 161.968 111.886C162.22 112.269 162.626 112.46 163.186 112.46C163.736 112.46 164.133 112.269 164.376 111.886C164.628 111.494 164.754 110.92 164.754 110.164C164.754 109.408 164.628 108.843 164.376 108.47C164.133 108.087 163.732 107.896 163.172 107.896C162.621 107.896 162.22 108.087 161.968 108.47C161.725 108.843 161.604 109.408 161.604 110.164ZM175.55 110.164C175.55 111.433 175.214 112.413 174.542 113.104C173.879 113.795 172.974 114.14 171.826 114.14C171.116 114.14 170.482 113.986 169.922 113.678C169.371 113.37 168.937 112.922 168.62 112.334C168.302 111.737 168.144 111.013 168.144 110.164C168.144 108.895 168.475 107.919 169.138 107.238C169.8 106.557 170.71 106.216 171.868 106.216C172.586 106.216 173.221 106.37 173.772 106.678C174.322 106.986 174.756 107.434 175.074 108.022C175.391 108.61 175.55 109.324 175.55 110.164ZM170.272 110.164C170.272 110.92 170.393 111.494 170.636 111.886C170.888 112.269 171.294 112.46 171.854 112.46C172.404 112.46 172.801 112.269 173.044 111.886C173.296 111.494 173.422 110.92 173.422 110.164C173.422 109.408 173.296 108.843 173.044 108.47C172.801 108.087 172.4 107.896 171.84 107.896C171.289 107.896 170.888 108.087 170.636 108.47C170.393 108.843 170.272 109.408 170.272 110.164Z" fill="#003366"/>
</g>
<defs>
<clipPath id="clip0_13898_192561">
<rect width="272" height="220" fill="white"/>
</clipPath>
</defs>
</svg>
