<svg width="272" height="220" viewBox="0 0 272 220" fill="none" xmlns="http://www.w3.org/2000/svg">
<g clip-path="url(#clip0_13898_192596)">
<path d="M169.513 212.71V212.01L169.844 211.677H170.561L170.321 211.273L169.255 210.591V209.761L168.152 209.061V209.539L168.446 209.89V210.387H168.207L167.749 210.184L165.827 207.75L166.303 206.79L165.348 205.561L163.181 203.558L161.088 202.464L158.75 201.922L158.223 201.663L157.939 201.682L157.965 201.7L157.133 201.148L156.08 200.337L155.272 199.549L153.766 197.472L152.945 196.893V196.378L153.458 196.658H153.716L154.011 196.378V195.849L153.497 195.297H152.91V194.818L151.881 193.97V193.492L150.57 192.657V191.882L150.062 191.092L150.32 190.577L150.062 190.024L148.74 188.743V188.18L148.464 187.408L148.169 187.12V186.335L147.884 185.783L146.855 185.027L146.165 185.212L144.567 185.312L144.017 184.768H142.382L141.655 183.983L140.544 183.457H139.533L139.251 183.177H136.642L136.384 182.685H134.989L133.715 182.144H132.675L131.535 181.308H129.918V180.867L128.57 180.278L126.588 178.716L124.213 177.389L122.204 176.768L121.496 176.057H119.829L118.8 176.567L117.623 177.355H116.375L115.641 177.624L116.075 178.362L116.599 178.528L116.636 179.458L117.131 179.966L117.426 181.248L118.189 182.077L118.971 182.889L119.824 183.203L119.75 182.614L119.795 182.107L120.301 182.373V182.87L121.238 182.788L121.714 183.23L121.117 184.226L120.29 185.008L120.548 185.82L121.072 185.812L121.349 185.259H121.872L122.13 185.582V186.293L122.71 186.615V187.411L121.08 188.727V189.517L122.183 190.019L123.665 188.999L124.242 188.986L125.6 189.81H126.066L126.888 190.561L127.941 190.302L128.186 189.319L127.891 188.484L128.16 188.47L128.441 188.74L128.773 189.232L129.41 189.353L129.766 188.973L130.268 188.959L130.282 189.514L129.034 190.323L129.242 190.828L129.768 190.804V191.137L128.739 191.629L128.984 192.686L129.779 193.484H131.09V192.918L131.566 193.214H131.872V192.686L132.14 192.427L132.372 193.225L132.941 192.836L132.885 191.602L133.425 191.898L133.638 192.802L133.07 193.484L131.869 194.012L132.138 194.517H132.896L132.956 194.784L132.148 195.336L131.89 196.129L132.459 196.655H132.946L133.222 196.914V197.44L134.241 197.966L134.747 197.958L135.297 196.917V196.391L135.555 196.124H136.116L136.898 195.561V195.091L136.632 194.546H137.377L137.661 195.302L136.898 196.121L136.879 196.674L137.661 196.904L137.946 196.645L138.743 196.83L138.504 197.189L138.154 197.448H137.685L137.143 197.171L136.087 198.23L136.634 199.821H137.672V200.625L138.749 201.658H138.993L139.238 201.153L138.993 200.611L139.251 200.096L139.773 200.884L140.341 201.412L139.773 201.671V201.949L140.031 202.446V202.974L141.097 203.516V202.263L140.821 201.967L141.042 201.322L141.61 202.189H142.179V201.674L142.637 201.766V202.689L141.903 203.204V203.756H142.379L142.985 202.977L143.206 203.26H143.664L143.94 202.726L144.254 203.556H144.749V205.141L145.317 205.675V206.653L147.229 209.087L147.632 209.105L148.79 207.98V207.242H149.793V208.55H150.572L150.867 208.017H152.007L152.394 207.758L153.166 208.017L153.018 208.532L151.641 210.118L151.31 210.947L151.604 211.722L152.945 212.718L154.506 213.271L155.791 214.653L156.599 214.875L158.215 214.893L158.492 215.686L159.813 215.964L164.552 218.046L166.187 218.305L167.435 218.876H168.225L168.52 218.561V218.102L169.31 216.994H169.786V217.364L170.189 217.824L171.274 217.75L171.403 216.569L170.3 212.716H169.51L169.513 212.71Z" fill="#C1B59B" stroke="#736C5D" stroke-linecap="round" stroke-linejoin="round"/>
<path d="M269.843 205.382L269.09 204.848H267.758L267.281 203.521L264.59 200.876V200.35L265.399 199.557V198.497L264.059 198.764L263.498 197.445L264.085 196.893V196.137H264.819V193.74L264.535 192.155V190.339L263.782 189.509V187.968L263.524 186.605L262.974 185.838L263.25 185.286L262.231 184.467V183.719L260.625 181.322L259.836 180.777L259.322 181.596L258.377 182.067L257.469 180.822V178.94L255.613 178.415L254.299 175.769V174.984L253.232 173.665H252.451L252.716 172.846L249.768 172.08L250.118 171.001L249.841 170.217L247.996 169.397V168.9H246.93L246.672 168.1V166.514L245.616 165.729V164.936L244.818 163.377L243.523 162.851V161.773L242.98 161.239V160.309H241.696L241.153 162.013H239.821L239.574 160.187L239.042 159.653V158.575L238.27 158.298L237.417 157.026L236.109 155.705L235.864 153.517L235.079 154.389L232.936 154.635L232.239 153.823V153.281H230.88L230.34 152.803L230.119 151.992L231.159 151.167L231.612 150.332L231.122 149.582H230.106L228.258 148.009L227.708 148.797L227.684 149.645L225.646 150.396V149.079L226.394 148.527V148.086H225.673L225.341 147.753V146.701H224.556V145.871L225.217 145.379V144.568L224.83 143.529L223.79 143.271V142.742L224.298 142.464V141.82H223.495L223.25 140.622L221.929 141.391L221.689 140.107L220.857 139.555L221.689 139.198L221.407 138.492L220.115 138.247L220.328 136.666L218.503 135.326V134.816L217.187 134.798L217.474 136.407L217.198 136.912L215.876 135.331L215.607 135.609H214.823L213.793 133.653V132.977L213.488 132.448H210.315L209.42 131.772V131.034L208.954 129.805H207.988L207.767 129.573L208.257 129.031L207.485 128.183L207.643 127.741L209.31 128.566L209.665 127.398L208.728 126.145H207.809L207.956 124.911H207.074L206.798 124.409V1.13232H1.13281L1.70149 1.64767L4.97141 3.34435L5.46111 5.85238L17.1928 18.0701L18.1222 22.4836L17.8826 24.6031H18.4328L25.3123 19.2831H28.1399L29.1772 12.9483L30.4989 13.2337L31.839 11.6216L30.4884 10.0624L32.0944 8.99204L34.4639 8.73304L39.7531 5.58017L42.6545 7.91377L44.766 10.8367V12.7263L43.9129 13.5192L44.9871 14.571L44.5 15.3638L45.5295 16.6905L48.4124 17.2059V18.5431L49.734 19.8698H50.516L51.5533 21.6854V23.2791L53.1408 25.3986L57.6587 28.5779L62.3714 34.3868L61.5895 35.4201L68.0003 46.0416L74.7323 59.2239L73.4475 61.5945L74.4848 62.1283L76.8543 62.4058V63.7061L76.3304 63.9836L76.0645 66.0952L78.6815 67.147L78.9474 69.2666V71.3782H82.1252L87.0537 75.2023L90.4579 76.0744L92.393 77.9984L93.9464 78.2389L94.336 80.3584H95.0758L96.0684 81.4208L97.6612 80.6333L98.738 82.7607V85.1076L97.3901 87.2218V88.8075L97.8929 92.7902L98.4326 93.5646L98.4458 95.6788L99.2672 96.7491L97.1742 99.5875L94.9705 104.382L91.8665 106.263V106.797L92.1061 107.048H94.0043L95.0443 107.294V108.88H94.7625L94.2491 109.176L94.236 111.832L94.7494 112.091V112.632H93.72V113.653L94.7599 114.71L94.4545 115.006H93.9516V115.51L94.2018 115.761H94.9784L95.2733 116.076V116.605L95.7999 117.133L96.0579 117.611L95.813 117.931L96.3633 118.399H96.8582L98.1562 118.851L97.9429 120.223V122.398L97.3374 122.675H96.3633L96.0684 122.086V120.759L95.5629 120.04L94.7099 119.173H94.0122L93.4619 119.469L92.8933 119.985L92.3983 120.281L92.1219 121.055V121.57L93.225 122.678H93.6647V123.434L94.4729 123.711H95.1153L95.813 123.952H96.853V125.556L96.3501 125.815V124.808H95.8104V125.582H95.5629L95.0153 125.815L94.7467 126.135V127.141H95.2601V127.411L95.8236 127.953L96.3369 128.212H97.1084V128.74H97.9535L97.6349 127.942H97.3769V126.37L97.9166 126.137V127.379L98.4432 127.712V128.191L98.7249 128.46H99.2146L99.7648 128.214L99.9965 128.447V128.743L99.7648 129.013L99.52 129.282L98.9803 129.787V130.056H99.2383V130.352H99.7648L100.299 130.593H100.823V131.1H100.299V131.875L101.861 133.468L102.669 134.795L103.174 135.329H103.706V135.606L103.44 135.855V137.181L103.954 137.422H104.23V137.985L105.012 138.778L105.573 139.594L105.802 139.848H106.592V138.788H106.334V137.977L104.736 135.894L104.488 134.835H104.241V133.746L105.049 133.201L105.307 132.961L105.554 133.495L105.562 133.772V134.824L105.839 135.073V135.588H106.097V136.381L106.592 137.192L107.097 137.459V138.233H107.621L107.41 138.537V140.316L108.798 140.99L108.448 142.427L108.743 143.479L110.457 145.2L111.023 145.398L111.354 144.883H111.705L112.144 146.154L112.242 147.034L111.623 146.714H111.354V147.771L112.144 149.394L112.531 150.033L112.679 151.225L112.91 151.717L113.424 151.458V149.367L113.956 148.834L114.766 149.064H115.235V147.745L116.349 148.569L116.091 149.603H115.577V150.131L115.014 150.697L115.835 151.725L116.349 152L115.564 152.541L114.793 153.575V154.09L115.564 154.865H116.03L116.349 155.406H116.862L116.996 156.315L117.657 156.487L117.889 156.204H118.439V155.43L119.284 154.902L119.511 155.129H121.085L121.662 155.171L121.883 156.178L121.614 157.003V157.814L121.993 157.875L122.141 158.305L121.664 158.379L121.433 158.797L121.899 162.534L122.217 163.123L123.455 162.84V163.345L122.928 164.18V164.759L123.441 164.439L124.263 165.436H124.789L125.548 164.957V165.732L125.008 165.991L124.505 166.815L123.715 167.066L122.889 167.613L123.157 168.634L124.811 168.657L125.545 168.361L126.904 167.341L125.6 168.327L126.095 168.644H126.622V169.159L126.082 169.712L124.784 169.958L123.718 169.712L123.186 170.505V171.001L124.179 171.998L125.074 172.262L124.505 171.556H126.072L126.622 172.061L125.827 172.074V172.331L126.377 172.64L126.082 172.886L125.556 173.93L126.082 174.471H126.548L126.927 175.296H127.662L128.42 175.529L129.215 176.316L130.587 177.091H131.003L131.59 176.575L132.13 176.306V175.727L132.706 174.767L133.22 174.754L133.686 174.976L133.491 175.764L134.225 176.033H135.265L136.392 175.259L136.653 175.558L136.11 176.073V176.847L136.653 177.091H137.682L138.978 176.575L139.28 176.832L140.244 176.913L140.023 177.918H141.089L141.639 177.355H141.879V177.918L140.547 178.933H140.07L139.786 179.485L140.062 179.707H140.568L140.815 179.495L141.881 180.312L141.342 181.086H140.607L140.068 181.591V182.157L140.349 182.672L140.876 182.918L142.627 183.016L143.73 182.646L144.514 182.817L144.796 183.716H145.799L146.607 183.446L148.187 183.46L149.559 183.975V185.008L149.79 185.598L150.833 186.066V186.618L151.618 187.416L152.684 186.901C152.881 186.961 153.11 187.146 153.11 187.146L153.476 187.902L154.598 188.973L154.977 190.355L155.156 191.185L157.891 193.5V194.274L158.223 194.557L158.75 194.742L160.071 195.048L160.574 195.331L161.909 196.658L163.47 198.225L163.965 198.925L164.866 199.774L167.125 200.419L168.165 201.156L168.997 200.86V199.065L171.616 197.712V196.951L171.911 196.423H172.93L172.166 197.197V198.222L171.677 198.756L171.872 199.827L171.1 201.449V202.2L171.677 202.459L171.664 203.27L172.398 204.314L172.661 206.428L173.243 206.994V207.922H270.864V206.954L269.835 205.387L269.843 205.382Z" fill="#C1B59B" stroke="#736C5D" stroke-linecap="round" stroke-linejoin="round"/>
<path d="M87.6549 154.629L87.4022 153.837L87.9209 153.308L86.5887 152.782L86.3412 152.523L87.131 152.251V151.722L86.3333 151.204H86.07L85.5645 151.712L85.7988 152.238H85.2933L85.0011 151.725H84.5035L84.2376 151.455V150.398L84.8221 150.644L85.0327 150.39L84.7431 150.137V149.883H85.009L85.2723 149.346L85.5434 148.966L85.0195 148.826L84.2376 149.344L84.2429 149.883L83.7189 150.393V149.888L83.4241 149.352L83.453 148.551L82.9133 147.803L81.9971 147.232L81.6022 147.499L80.528 145.95V145.38L80.2858 144.833L80.8123 144.846L81.3758 145.388V146.172L82.1472 146.154L82.9186 145.633L83.1871 145.11L83.1766 144.058L82.9133 143.802H82.6553L82.3867 144.053L81.6074 144.33L81.0809 144.28L79.4907 144.071L79.7724 143.001L80.8176 142.198L80.8071 141.281L81.3336 140.353V139.811L80.8071 139.018L80.7992 137.441L79.7592 135.596L78.9562 134.552L78.1585 133.471V129.776L78.4613 128.476L78.1664 127.435L78.6903 126.346L78.8009 124.451L80.5148 121.721L81.0098 120.347L81.2941 117.701L81.0704 116.98L79.8645 119.16H78.9694L78.1743 120.009H76.3129L75.8232 120.55H74.9886L74.7569 120.244V119.493L74.4989 118.962L73.2378 118.706L71.1079 118.941L70.2628 117.884H69.7599L69.1596 118.423H68.1565L66.3189 117.133H66.0635L65.8186 117.931L65.5238 118.399V118.695L66.0556 119.226V120.27L65.2552 120.833L65.0156 122.123V123.183L65.4922 124.227L65.2736 124.52V124.768L66.1451 125.305L66.8428 126.087L67.3667 127.673L66.8533 128.191V128.466L67.422 128.992V129.536L69.5072 132.974L69.8047 134.261L70.7841 134.301L71.6108 136.074L71.3343 137.419L71.8767 138.239L73.7038 139.298L73.7328 139.843L74.6779 141.651L74.7701 142.203L77.3766 145.134H77.6714L79.5091 147.256L80.0225 147.777L80.757 147.999L81.5653 149.069L81.797 150.419H82.3499L82.5947 151.429L83.7321 153.052L84.0033 153.247L84.1981 152.793H84.4666V153.321L84.9827 154.365L85.7646 154.119L86.0726 154.365H86.8809V155.681L87.0889 156.456V156.923L87.3706 157.291H87.9077V157.008L87.6339 156.733V155.977L87.9077 155.694H88.4237L88.7291 155.385V154.931H88.2026L87.6549 154.629Z" fill="#C1B59B" stroke="#736C5D" stroke-linecap="round" stroke-linejoin="round"/>
<path d="M79.8645 119.16H78.9694L78.1743 120.008H76.3129L75.8232 120.55H74.9886L74.7569 120.243V119.493L74.4989 118.962L73.2378 118.705L71.1079 118.94L70.2628 117.883H69.7599L69.1596 118.422H68.1565L66.3189 117.133H66.0635L65.8186 117.931L65.5238 118.399V118.695L66.0556 119.226V120.27L65.2552 120.833L65.0156 122.122V123.182L65.4922 124.226L65.2736 124.519V124.768L66.1451 125.304L66.8428 126.087L67.3667 127.672L66.8533 128.19V128.465L67.422 128.991V129.535L69.5072 132.974L69.8047 134.261L70.7841 134.3L71.6108 136.074L71.3343 137.419L71.8767 138.238L73.7038 139.298L73.7328 139.842L74.6779 141.65L74.7701 142.202L77.3766 145.133H77.6714L79.5091 147.255L80.0225 147.776L80.757 147.998L81.5653 149.068L81.797 150.419H82.3499L82.5947 151.429L83.7321 153.051L84.0033 153.247L84.1981 152.792H84.4666V153.321L84.9827 154.365L85.7646 154.119L86.0726 154.365H86.8809V155.681L87.0889 156.455V156.923L87.3706 157.29H87.9077V157.007L87.6339 156.733V155.977L87.9077 155.694H88.4237L88.7291 155.385V154.93H88.2026L87.6549 154.629L87.4022 153.836L87.9209 153.308L86.5887 152.782L86.3412 152.523L87.131 152.25V151.722L86.3333 151.204H86.07L85.5645 151.711L85.7988 152.237H85.2933L85.0011 151.724H84.5035L84.2376 151.455V150.398L84.8221 150.644L85.0327 150.39L84.7431 150.136V149.882H85.009L85.2723 149.346L85.5434 148.965L85.0195 148.825L84.2376 149.343L84.2429 149.882L83.7189 150.393V149.888L83.4241 149.351L83.453 148.55L82.9133 147.803L81.9971 147.232L81.6022 147.499L80.528 145.95V145.379L80.2858 144.832L80.8123 144.845L81.3758 145.387V146.172L82.1472 146.153L82.9186 145.633L83.1871 145.11L83.1766 144.058L82.9133 143.801H82.6553L82.3867 144.052L81.6074 144.33L81.0809 144.28L79.4907 144.071L79.7724 143.001L80.8176 142.197L80.8071 141.28L81.3336 140.352V139.811L80.8071 139.018L80.7992 137.44L79.7592 135.595L78.9562 134.552L78.1585 133.471V129.776L78.4613 128.476L78.1664 127.434L78.6903 126.346L78.8009 124.451L80.5148 121.721L81.0098 120.346L81.2941 117.701L81.0704 116.979L79.8645 119.16Z" fill="#003366"/>
<rect width="100" height="24" transform="translate(37.5 85)" fill="white"/>
<path d="M46.76 102V92.004H48.874V95.924H52.836V92.004H54.95V102H52.836V97.688H48.874V102H46.76ZM60.2091 97.282L61.5391 97.24V96.904C61.5391 96.5027 61.4317 96.2087 61.2171 96.022C61.0117 95.8353 60.7224 95.742 60.3491 95.742C59.9757 95.742 59.6117 95.798 59.2571 95.91C58.9024 96.0127 58.5477 96.1433 58.1931 96.302L57.5071 94.888C57.9084 94.6827 58.3611 94.5193 58.8651 94.398C59.3691 94.2673 59.8917 94.202 60.4331 94.202C61.4691 94.202 62.2577 94.4213 62.7991 94.86C63.3404 95.2987 63.6111 95.98 63.6111 96.904V102H62.1551L61.7491 100.964H61.6931C61.5251 101.169 61.3571 101.347 61.1891 101.496C61.0304 101.645 60.8531 101.767 60.6571 101.86C60.4611 101.953 60.2417 102.023 59.9991 102.07C59.7564 102.117 59.4764 102.14 59.1591 102.14C58.8231 102.14 58.5104 102.093 58.2211 102C57.9317 101.897 57.6797 101.748 57.4651 101.552C57.2597 101.356 57.0964 101.109 56.9751 100.81C56.8537 100.502 56.7931 100.138 56.7931 99.718C56.7931 98.906 57.0777 98.3087 57.6471 97.926C58.2164 97.5433 59.0704 97.3287 60.2091 97.282ZM58.9351 99.732C58.9351 100.049 59.0284 100.278 59.2151 100.418C59.4017 100.549 59.6444 100.614 59.9431 100.614C60.3911 100.614 60.7691 100.483 61.0771 100.222C61.3851 99.9513 61.5391 99.5733 61.5391 99.088V98.458L60.7271 98.486C60.0551 98.5047 59.5884 98.626 59.3271 98.85C59.0657 99.074 58.9351 99.368 58.9351 99.732ZM66.7963 91.36C67.1043 91.36 67.3703 91.4347 67.5943 91.584C67.8183 91.724 67.9303 91.99 67.9303 92.382C67.9303 92.7647 67.8183 93.0307 67.5943 93.18C67.3703 93.3293 67.1043 93.404 66.7963 93.404C66.479 93.404 66.2083 93.3293 65.9843 93.18C65.7696 93.0307 65.6623 92.7647 65.6623 92.382C65.6623 91.99 65.7696 91.724 65.9843 91.584C66.2083 91.4347 66.479 91.36 66.7963 91.36ZM67.8323 94.356V102H65.7463V94.356H67.8323ZM72.4339 102.14C71.5846 102.14 70.8893 101.809 70.3479 101.146C69.8159 100.474 69.5499 99.4893 69.5499 98.192C69.5499 96.8853 69.8206 95.896 70.3619 95.224C70.9033 94.552 71.6126 94.216 72.4899 94.216C73.0406 94.216 73.4933 94.3233 73.8479 94.538C74.2026 94.7527 74.4826 95.0187 74.6879 95.336H74.7579C74.7299 95.1867 74.6973 94.972 74.6599 94.692C74.6226 94.4027 74.6039 94.1087 74.6039 93.81V91.36H76.6899V102H75.0939L74.6879 101.006H74.6039C74.3986 101.323 74.1233 101.594 73.7779 101.818C73.4326 102.033 72.9846 102.14 72.4339 102.14ZM73.1619 100.474C73.7313 100.474 74.1326 100.306 74.3659 99.97C74.5993 99.6247 74.7253 99.1113 74.7439 98.43V98.206C74.7439 97.4687 74.6273 96.904 74.3939 96.512C74.1699 96.1107 73.7499 95.91 73.1339 95.91C72.6766 95.91 72.3173 96.1107 72.0559 96.512C71.7946 96.904 71.6639 97.4733 71.6639 98.22C71.6639 98.9667 71.7946 99.5313 72.0559 99.914C72.3173 100.287 72.6859 100.474 73.1619 100.474ZM81.7833 97.282L83.1133 97.24V96.904C83.1133 96.5027 83.006 96.2087 82.7913 96.022C82.586 95.8353 82.2966 95.742 81.9233 95.742C81.55 95.742 81.186 95.798 80.8313 95.91C80.4766 96.0127 80.122 96.1433 79.7673 96.302L79.0813 94.888C79.4826 94.6827 79.9353 94.5193 80.4393 94.398C80.9433 94.2673 81.466 94.202 82.0073 94.202C83.0433 94.202 83.832 94.4213 84.3733 94.86C84.9146 95.2987 85.1853 95.98 85.1853 96.904V102H83.7293L83.3233 100.964H83.2673C83.0993 101.169 82.9313 101.347 82.7633 101.496C82.6046 101.645 82.4273 101.767 82.2313 101.86C82.0353 101.953 81.816 102.023 81.5733 102.07C81.3306 102.117 81.0506 102.14 80.7333 102.14C80.3973 102.14 80.0846 102.093 79.7953 102C79.506 101.897 79.254 101.748 79.0393 101.552C78.834 101.356 78.6706 101.109 78.5493 100.81C78.428 100.502 78.3673 100.138 78.3673 99.718C78.3673 98.906 78.652 98.3087 79.2213 97.926C79.7906 97.5433 80.6446 97.3287 81.7833 97.282ZM80.5093 99.732C80.5093 100.049 80.6026 100.278 80.7893 100.418C80.976 100.549 81.2186 100.614 81.5173 100.614C81.9653 100.614 82.3433 100.483 82.6513 100.222C82.9593 99.9513 83.1133 99.5733 83.1133 99.088V98.458L82.3013 98.486C81.6293 98.5047 81.1626 98.626 80.9013 98.85C80.64 99.074 80.5093 99.368 80.5093 99.732ZM94.9192 96.386H98.8812V101.566C98.3586 101.743 97.8126 101.883 97.2432 101.986C96.6739 102.089 96.0346 102.14 95.3252 102.14C93.8319 102.14 92.6839 101.701 91.8812 100.824C91.0786 99.9467 90.6772 98.668 90.6772 96.988C90.6772 95.9427 90.8779 95.0373 91.2792 94.272C91.6806 93.5067 92.2686 92.914 93.0432 92.494C93.8272 92.074 94.7792 91.864 95.8992 91.864C96.4312 91.864 96.9539 91.92 97.4672 92.032C97.9806 92.144 98.4472 92.2933 98.8672 92.48L98.1672 94.174C97.8592 94.0153 97.5092 93.8847 97.1172 93.782C96.7252 93.6793 96.3146 93.628 95.8852 93.628C95.2692 93.628 94.7326 93.768 94.2752 94.048C93.8272 94.328 93.4772 94.7247 93.2252 95.238C92.9826 95.7513 92.8612 96.3487 92.8612 97.03C92.8612 97.6833 92.9499 98.262 93.1272 98.766C93.3046 99.27 93.5846 99.6667 93.9672 99.956C94.3499 100.236 94.8492 100.376 95.4652 100.376C95.7639 100.376 96.0159 100.362 96.2212 100.334C96.4266 100.306 96.6226 100.273 96.8092 100.236V98.15H94.9192V96.386ZM102.208 94.356L103.09 97.744C103.137 97.9213 103.179 98.1267 103.216 98.36C103.263 98.5933 103.3 98.8313 103.328 99.074C103.365 99.3073 103.398 99.5313 103.426 99.746C103.463 99.9513 103.491 100.119 103.51 100.25H103.566C103.575 100.119 103.594 99.9467 103.622 99.732C103.659 99.508 103.697 99.284 103.734 99.06C103.771 98.8267 103.804 98.612 103.832 98.416C103.869 98.22 103.897 98.0893 103.916 98.024L104.854 94.356H107.15L108.046 98.024C108.065 98.1173 108.093 98.262 108.13 98.458C108.167 98.654 108.2 98.864 108.228 99.088C108.265 99.312 108.298 99.5313 108.326 99.746C108.354 99.9513 108.373 100.119 108.382 100.25H108.438C108.457 100.138 108.48 99.9793 108.508 99.774C108.536 99.5593 108.569 99.3307 108.606 99.088C108.653 98.8453 108.699 98.6073 108.746 98.374C108.793 98.1313 108.839 97.9213 108.886 97.744L109.796 94.356H111.84L109.642 102H107.374L106.786 99.326C106.749 99.1767 106.693 98.9433 106.618 98.626C106.543 98.2993 106.464 97.9633 106.38 97.618C106.296 97.2633 106.217 96.932 106.142 96.624C106.077 96.3067 106.03 96.0827 106.002 95.952H105.946C105.918 96.0827 105.867 96.3067 105.792 96.624C105.727 96.932 105.652 97.2633 105.568 97.618C105.484 97.9633 105.405 98.2993 105.33 98.626C105.255 98.9527 105.199 99.1953 105.162 99.354L104.546 102H102.306L100.136 94.356H102.208ZM115.99 97.282L117.32 97.24V96.904C117.32 96.5027 117.213 96.2087 116.998 96.022C116.793 95.8353 116.504 95.742 116.13 95.742C115.757 95.742 115.393 95.798 115.038 95.91C114.684 96.0127 114.329 96.1433 113.974 96.302L113.288 94.888C113.69 94.6827 114.142 94.5193 114.646 94.398C115.15 94.2673 115.673 94.202 116.214 94.202C117.25 94.202 118.039 94.4213 118.58 94.86C119.122 95.2987 119.392 95.98 119.392 96.904V102H117.936L117.53 100.964H117.474C117.306 101.169 117.138 101.347 116.97 101.496C116.812 101.645 116.634 101.767 116.438 101.86C116.242 101.953 116.023 102.023 115.78 102.07C115.538 102.117 115.258 102.14 114.94 102.14C114.604 102.14 114.292 102.093 114.002 102C113.713 101.897 113.461 101.748 113.246 101.552C113.041 101.356 112.878 101.109 112.756 100.81C112.635 100.502 112.574 100.138 112.574 99.718C112.574 98.906 112.859 98.3087 113.428 97.926C113.998 97.5433 114.852 97.3287 115.99 97.282ZM114.716 99.732C114.716 100.049 114.81 100.278 114.996 100.418C115.183 100.549 115.426 100.614 115.724 100.614C116.172 100.614 116.55 100.483 116.858 100.222C117.166 99.9513 117.32 99.5733 117.32 99.088V98.458L116.508 98.486C115.836 98.5047 115.37 98.626 115.108 98.85C114.847 99.074 114.716 99.368 114.716 99.732ZM122.578 91.36C122.886 91.36 123.152 91.4347 123.376 91.584C123.6 91.724 123.712 91.99 123.712 92.382C123.712 92.7647 123.6 93.0307 123.376 93.18C123.152 93.3293 122.886 93.404 122.578 93.404C122.26 93.404 121.99 93.3293 121.766 93.18C121.551 93.0307 121.444 92.7647 121.444 92.382C121.444 91.99 121.551 91.724 121.766 91.584C121.99 91.4347 122.26 91.36 122.578 91.36ZM123.614 94.356V102H121.528V94.356H123.614ZM126.843 91.36C127.151 91.36 127.417 91.4347 127.641 91.584C127.865 91.724 127.977 91.99 127.977 92.382C127.977 92.7647 127.865 93.0307 127.641 93.18C127.417 93.3293 127.151 93.404 126.843 93.404C126.526 93.404 126.255 93.3293 126.031 93.18C125.817 93.0307 125.709 92.7647 125.709 92.382C125.709 91.99 125.817 91.724 126.031 91.584C126.255 91.4347 126.526 91.36 126.843 91.36ZM127.879 94.356V102H125.793V94.356H127.879Z" fill="#003366"/>
</g>
<defs>
<clipPath id="clip0_13898_192596">
<rect width="272" height="220" fill="white"/>
</clipPath>
</defs>
</svg>
