<svg width="272" height="220" viewBox="0 0 272 220" fill="none" xmlns="http://www.w3.org/2000/svg">
<g clip-path="url(#clip0_13898_192316)">
<path d="M169.513 212.71V212.01L169.844 211.677H170.561L170.321 211.273L169.255 210.591V209.761L168.152 209.061V209.539L168.446 209.89V210.387H168.207L167.749 210.184L165.827 207.75L166.303 206.79L165.348 205.561L163.181 203.558L161.088 202.464L158.75 201.922L158.223 201.663L157.939 201.682L157.965 201.7L157.133 201.148L156.08 200.337L155.272 199.549L153.766 197.472L152.945 196.893V196.378L153.458 196.658H153.716L154.011 196.378V195.849L153.497 195.297H152.91V194.818L151.881 193.97V193.492L150.57 192.657V191.882L150.062 191.092L150.32 190.577L150.062 190.024L148.74 188.743V188.18L148.464 187.408L148.169 187.12V186.335L147.884 185.783L146.855 185.027L146.165 185.212L144.567 185.312L144.017 184.768H142.382L141.655 183.983L140.544 183.457H139.533L139.251 183.177H136.642L136.384 182.685H134.989L133.715 182.144H132.675L131.535 181.308H129.918V180.867L128.57 180.278L126.588 178.716L124.213 177.389L122.204 176.768L121.496 176.057H119.829L118.8 176.567L117.623 177.355H116.375L115.641 177.624L116.075 178.362L116.599 178.528L116.636 179.458L117.131 179.966L117.426 181.248L118.189 182.077L118.971 182.889L119.824 183.203L119.75 182.614L119.795 182.107L120.301 182.373V182.87L121.238 182.788L121.714 183.23L121.117 184.226L120.29 185.008L120.548 185.82L121.072 185.812L121.349 185.259H121.872L122.13 185.582V186.293L122.71 186.615V187.411L121.08 188.727V189.517L122.183 190.019L123.665 188.999L124.242 188.986L125.6 189.81H126.066L126.888 190.561L127.941 190.302L128.186 189.319L127.891 188.484L128.16 188.47L128.441 188.74L128.773 189.232L129.41 189.353L129.766 188.973L130.268 188.959L130.282 189.514L129.034 190.323L129.242 190.828L129.768 190.804V191.137L128.739 191.629L128.984 192.686L129.779 193.484H131.09V192.918L131.566 193.214H131.872V192.686L132.14 192.427L132.372 193.225L132.941 192.836L132.885 191.602L133.425 191.898L133.638 192.802L133.07 193.484L131.869 194.012L132.138 194.517H132.896L132.956 194.784L132.148 195.336L131.89 196.129L132.459 196.655H132.946L133.222 196.914V197.44L134.241 197.966L134.747 197.958L135.297 196.917V196.391L135.555 196.124H136.116L136.898 195.561V195.091L136.632 194.546H137.377L137.661 195.302L136.898 196.121L136.879 196.674L137.661 196.904L137.946 196.645L138.743 196.83L138.504 197.189L138.154 197.448H137.685L137.143 197.171L136.087 198.23L136.634 199.821H137.672V200.625L138.749 201.658H138.993L139.238 201.153L138.993 200.611L139.251 200.096L139.773 200.884L140.341 201.412L139.773 201.671V201.949L140.031 202.446V202.974L141.097 203.516V202.263L140.821 201.967L141.042 201.322L141.61 202.189H142.179V201.674L142.637 201.766V202.689L141.903 203.204V203.756H142.379L142.985 202.977L143.206 203.26H143.664L143.94 202.726L144.254 203.556H144.749V205.141L145.317 205.675V206.653L147.229 209.087L147.632 209.105L148.79 207.98V207.242H149.793V208.55H150.572L150.867 208.017H152.007L152.394 207.758L153.166 208.017L153.018 208.532L151.641 210.118L151.31 210.947L151.604 211.722L152.945 212.718L154.506 213.271L155.791 214.653L156.599 214.875L158.215 214.893L158.492 215.686L159.813 215.964L164.552 218.046L166.187 218.305L167.435 218.876H168.225L168.52 218.561V218.102L169.31 216.994H169.786V217.364L170.189 217.824L171.274 217.75L171.403 216.569L170.3 212.716H169.51L169.513 212.71Z" fill="#C1B59B" stroke="#736C5D" stroke-linecap="round" stroke-linejoin="round"/>
<path d="M269.843 205.382L269.09 204.848H267.758L267.281 203.521L264.59 200.876V200.35L265.399 199.557V198.497L264.058 198.764L263.498 197.445L264.085 196.893V196.137H264.819V193.74L264.535 192.155V190.339L263.782 189.509V187.968L263.524 186.605L262.974 185.838L263.25 185.286L262.231 184.467V183.719L260.625 181.322L259.836 180.777L259.322 181.597L258.377 182.067L257.469 180.822V178.94L255.613 178.415L254.299 175.769V174.984L253.232 173.665H252.451L252.716 172.846L249.768 172.08L250.118 171.001L249.841 170.217L247.996 169.397V168.9H246.93L246.672 168.1V166.514L245.616 165.729V164.936L244.818 163.377L243.523 162.851V161.773L242.98 161.239V160.309H241.696L241.153 162.013H239.821L239.574 160.187L239.042 159.653V158.575L238.27 158.298L237.417 157.026L236.109 155.705L235.864 153.517L235.079 154.389L232.936 154.635L232.239 153.823V153.281H230.88L230.34 152.803L230.119 151.992L231.159 151.167L231.612 150.332L231.122 149.582H230.106L228.258 148.009L227.708 148.797L227.684 149.645L225.646 150.396V149.079L226.394 148.527V148.086H225.672L225.341 147.753V146.701H224.556V145.871L225.217 145.379V144.568L224.83 143.529L223.79 143.271V142.742L224.298 142.464V141.82H223.495L223.25 140.622L221.929 141.391L221.689 140.107L220.857 139.555L221.689 139.198L221.407 138.492L220.115 138.247L220.328 136.666L218.503 135.326V134.816L217.187 134.798L217.474 136.407L217.198 136.912L215.876 135.332L215.607 135.609H214.823L213.793 133.653V132.977L213.488 132.448H210.315L209.42 131.772V131.034L208.954 129.805H207.988L207.767 129.573L208.257 129.031L207.485 128.183L207.643 127.741L209.31 128.566L209.665 127.398L208.728 126.145H207.809L207.956 124.911H207.075L206.798 124.409V1.13232H1.13281L1.70149 1.64767L4.97141 3.34435L5.46111 5.85238L17.1928 18.0701L18.1222 22.4836L17.8826 24.6031H18.4328L25.3123 19.2831H28.1399L29.1772 12.9483L30.4989 13.2337L31.839 11.6216L30.4884 10.0624L32.0944 8.99204L34.4639 8.73304L39.7531 5.58017L42.6545 7.91377L44.766 10.8367V12.7263L43.9129 13.5192L44.9871 14.571L44.5 15.3638L45.5295 16.6905L48.4124 17.2059V18.5431L49.734 19.8698H50.516L51.5533 21.6854V23.2791L53.1408 25.3986L57.6587 28.5779L62.3714 34.3868L61.5895 35.4201L68.0003 46.0416L74.7323 59.2239L73.4475 61.5945L74.4848 62.1283L76.8543 62.4058V63.7061L76.3304 63.9836L76.0645 66.0952L78.6815 67.147L78.9474 69.2666V71.3782H82.1252L87.0537 75.2023L90.4579 76.0744L92.393 77.9984L93.9464 78.2389L94.336 80.3584H95.0758L96.0684 81.4208L97.6612 80.6333L98.738 82.7608V85.1076L97.3901 87.2218V88.8075L97.8929 92.7902L98.4326 93.5646L98.4458 95.6788L99.2672 96.7491L97.1742 99.5875L94.9705 104.382L91.8665 106.263V106.797L92.1061 107.048H94.0043L95.0443 107.294V108.88H94.7625L94.2491 109.176L94.236 111.832L94.7494 112.091V112.632H93.72V113.653L94.7599 114.71L94.4545 115.006H93.9516V115.51L94.2018 115.761H94.9784L95.2733 116.076V116.605L95.7999 117.133L96.0579 117.611L95.813 117.931L96.3633 118.399H96.8582L98.1562 118.851L97.9429 120.223V122.398L97.3374 122.675H96.3633L96.0684 122.086V120.759L95.5629 120.04L94.7099 119.173H94.0122L93.4619 119.469L92.8933 119.985L92.3983 120.281L92.1219 121.055V121.57L93.225 122.678H93.6647V123.434L94.4729 123.711H95.1153L95.813 123.952H96.853V125.556L96.3501 125.815V124.808H95.8104V125.582H95.5629L95.0153 125.815L94.7467 126.135V127.141H95.2601V127.411L95.8236 127.953L96.3369 128.212H97.1084V128.74H97.9535L97.6349 127.942H97.3769V126.37L97.9166 126.137V127.379L98.4432 127.712V128.191L98.7249 128.46H99.2146L99.7648 128.214L99.9965 128.447V128.743L99.7648 129.013L99.52 129.282L98.9803 129.787V130.056H99.2383V130.352H99.7648L100.299 130.593H100.823V131.1H100.299V131.875L101.861 133.468L102.669 134.795L103.174 135.329H103.706V135.606L103.44 135.855V137.181L103.954 137.422H104.23V137.985L105.012 138.778L105.573 139.594L105.802 139.848H106.592V138.788H106.334V137.977L104.736 135.894L104.488 134.835H104.241V133.746L105.049 133.201L105.307 132.961L105.554 133.495L105.562 133.772V134.824L105.839 135.073V135.588H106.097V136.381L106.592 137.192L107.097 137.459V138.233H107.621L107.41 138.537V140.316L108.798 140.99L108.448 142.427L108.743 143.479L110.457 145.2L111.023 145.398L111.354 144.883H111.705L112.144 146.154L112.242 147.034L111.623 146.714H111.354V147.771L112.144 149.394L112.531 150.033L112.679 151.225L112.91 151.717L113.424 151.458V149.367L113.956 148.834L114.766 149.064H115.235V147.745L116.349 148.569L116.091 149.603H115.577V150.131L115.014 150.697L115.835 151.725L116.349 152L115.564 152.541L114.793 153.575V154.09L115.564 154.865H116.03L116.349 155.406H116.862L116.996 156.315L117.657 156.487L117.889 156.204H118.439V155.43L119.284 154.902L119.511 155.129H121.085L121.662 155.171L121.883 156.178L121.614 157.003V157.814L121.993 157.875L122.141 158.305L121.664 158.379L121.433 158.797L121.899 162.534L122.217 163.123L123.455 162.84V163.345L122.928 164.18V164.759L123.441 164.439L124.263 165.436H124.789L125.548 164.957V165.732L125.008 165.991L124.505 166.815L123.715 167.066L122.889 167.613L123.157 168.634L124.811 168.657L125.545 168.361L126.904 167.341L125.6 168.327L126.095 168.644H126.622V169.159L126.082 169.712L124.784 169.958L123.718 169.712L123.186 170.505V171.001L124.179 171.998L125.074 172.262L124.505 171.556H126.072L126.622 172.061L125.827 172.074V172.331L126.377 172.64L126.082 172.886L125.556 173.93L126.082 174.471H126.548L126.927 175.296H127.662L128.42 175.529L129.215 176.316L130.587 177.091H131.003L131.59 176.575L132.13 176.306V175.727L132.706 174.767L133.22 174.754L133.686 174.976L133.491 175.764L134.225 176.033H135.265L136.392 175.259L136.653 175.558L136.11 176.073V176.847L136.653 177.091H137.682L138.978 176.575L139.28 176.832L140.244 176.913L140.023 177.918H141.089L141.639 177.355H141.879V177.918L140.547 178.933H140.07L139.786 179.485L140.062 179.707H140.568L140.815 179.495L141.881 180.312L141.342 181.086H140.607L140.068 181.591V182.157L140.349 182.672L140.876 182.918L142.627 183.016L143.73 182.646L144.514 182.817L144.796 183.716H145.799L146.607 183.446L148.187 183.46L149.559 183.975V185.008L149.79 185.598L150.833 186.065V186.618L151.618 187.416L152.684 186.901C152.881 186.961 153.11 187.146 153.11 187.146L153.476 187.902L154.598 188.973L154.977 190.355L155.156 191.185L157.891 193.5V194.274L158.223 194.557L158.75 194.742L160.071 195.048L160.574 195.331L161.909 196.658L163.47 198.225L163.965 198.925L164.866 199.774L167.125 200.419L168.165 201.156L168.997 200.86V199.065L171.616 197.712V196.951L171.911 196.423H172.93L172.166 197.197V198.222L171.677 198.756L171.872 199.827L171.1 201.449V202.2L171.677 202.459L171.664 203.27L172.398 204.314L172.661 206.428L173.243 206.994V207.922H270.864V206.954L269.835 205.387L269.843 205.382Z" fill="#C1B59B" stroke="#736C5D" stroke-linecap="round" stroke-linejoin="round"/>
<path d="M87.6549 154.629L87.4022 153.837L87.9209 153.308L86.5887 152.782L86.3412 152.523L87.131 152.251V151.722L86.3333 151.204H86.07L85.5645 151.712L85.7988 152.238H85.2933L85.0011 151.725H84.5035L84.2376 151.455V150.398L84.8221 150.644L85.0327 150.39L84.7431 150.137V149.883H85.009L85.2723 149.346L85.5434 148.966L85.0195 148.826L84.2376 149.344L84.2429 149.883L83.7189 150.393V149.888L83.4241 149.352L83.453 148.551L82.9133 147.803L81.9971 147.232L81.6022 147.499L80.528 145.95V145.38L80.2858 144.833L80.8123 144.846L81.3758 145.388V146.172L82.1472 146.154L82.9186 145.633L83.1871 145.11L83.1766 144.058L82.9133 143.802H82.6553L82.3867 144.053L81.6074 144.33L81.0809 144.28L79.4907 144.071L79.7724 143.001L80.8176 142.198L80.8071 141.281L81.3336 140.353V139.811L80.8071 139.018L80.7992 137.441L79.7592 135.596L78.9562 134.552L78.1585 133.471V129.776L78.4613 128.476L78.1664 127.435L78.6903 126.346L78.8009 124.451L80.5148 121.721L81.0098 120.347L81.2941 117.701L81.0703 116.98L79.8645 119.16H78.9694L78.1743 120.009H76.3129L75.8232 120.55H74.9886L74.7569 120.244V119.493L74.4989 118.962L73.2378 118.706L71.1079 118.941L70.2628 117.884H69.7599L69.1596 118.423H68.1565L66.3189 117.133H66.0635L65.8186 117.931L65.5238 118.399V118.695L66.0556 119.226V120.27L65.2552 120.833L65.0156 122.123V123.183L65.4922 124.227L65.2736 124.52V124.768L66.1451 125.305L66.8428 126.087L67.3667 127.673L66.8533 128.191V128.466L67.422 128.992V129.536L69.5072 132.974L69.8047 134.261L70.7841 134.301L71.6108 136.074L71.3343 137.419L71.8767 138.239L73.7038 139.298L73.7328 139.843L74.6779 141.651L74.7701 142.203L77.3766 145.134H77.6714L79.5091 147.256L80.0225 147.777L80.757 147.999L81.5653 149.069L81.797 150.419H82.3499L82.5947 151.429L83.7321 153.052L84.0033 153.247L84.1981 152.793H84.4666V153.321L84.9827 154.365L85.7646 154.119L86.0726 154.365H86.8809V155.681L87.0889 156.456V156.923L87.3706 157.291H87.9077V157.008L87.6339 156.733V155.977L87.9077 155.694H88.4237L88.7291 155.385V154.931H88.2026L87.6549 154.629Z" fill="#C1B59B" stroke="#736C5D" stroke-linecap="round" stroke-linejoin="round"/>
<path d="M115.648 177.621L116.383 177.352H117.634L118.808 176.564L119.837 176.054H121.504L122.212 176.765L124.221 177.389L126.596 178.716L128.581 180.277L129.929 180.867V181.311H131.543L132.683 182.146H133.723L134.997 182.688H136.392L136.65 183.179H139.259L139.541 183.457H140.549L141.66 183.983L142.387 184.768H144.022L144.572 185.312L146.17 185.209L146.86 185.024L147.89 185.78L148.174 186.335V187.117L148.466 187.408L148.743 188.177V188.74L150.064 190.021L150.322 190.574L150.064 191.092L150.572 191.882V192.656L151.883 193.491V193.97L152.913 194.818V195.299H153.5L154.013 195.851V196.38L153.721 196.66H153.463L152.95 196.38V196.895L153.769 197.474L155.274 199.551L156.083 200.339L157.136 201.15L157.97 201.703L157.699 202.207L156.133 202.969H155.583L155.288 202.464H154.566L153.718 201.417L152.958 201.637H151.876L151.094 200.891L149.274 201.666L148.477 201.388L146.631 201.15H144.564L144.004 200.881L143.206 201.15H142.692L142.155 200.609H141.639L140.831 200.347L140.294 199.287L140.06 199.025H139.525L139.272 198.489L138.735 197.96L137.961 198.481L138.227 198.798L137.68 199.818H136.642L136.097 198.227L137.153 197.168L137.693 197.442H138.161L138.512 197.186L138.751 196.827L137.951 196.642L137.666 196.898L136.887 196.668L136.906 196.116L137.666 195.294L137.382 194.538H136.637L136.906 195.082V195.553L136.124 196.116H135.563L135.307 196.383V196.909L134.755 197.95L134.249 197.96L133.23 197.435V196.909L132.956 196.65H132.469L131.898 196.124L132.156 195.331L132.964 194.778L132.904 194.512H132.143L131.874 194.007L133.075 193.478L133.644 192.796L133.43 191.893L132.891 191.599L132.946 192.833L132.377 193.222L132.143 192.421L131.874 192.68V193.209H131.569L131.09 192.913V193.478H129.781L128.983 192.68L128.739 191.623L129.768 191.131V190.798L129.241 190.825L129.034 190.32L130.281 189.511L130.271 188.956L129.768 188.967L129.413 189.348L128.775 189.226L128.446 188.734L128.165 188.465L127.894 188.475L128.188 189.313L127.944 190.296L126.89 190.553L126.069 189.805H125.606L124.244 188.98L123.671 188.993L122.188 190.014L121.085 189.511V188.721L122.715 187.408V186.61L122.136 186.287V185.579L121.88 185.256H121.356L121.08 185.809L120.556 185.817L120.301 185.005L121.125 184.223L121.722 183.227L121.246 182.785L120.308 182.867V182.371L119.803 182.104L119.758 182.608L119.832 183.2L118.976 182.886L118.197 182.075L117.433 181.245L117.141 179.963L116.644 179.455L116.607 178.525L116.083 178.359L115.648 177.621Z" fill="#003366"/>
<rect width="105" height="24" transform="translate(100 144)" fill="white"/>
<path d="M111.934 151.004L116.274 158.494H116.316C116.297 158.037 116.279 157.584 116.26 157.136C116.241 156.679 116.227 156.212 116.218 155.736V151.004H118.122V161H115.434L111.08 153.44H111.024L111.15 156.296V161H109.26V151.004H111.934ZM127.425 157.164C127.425 158.433 127.089 159.413 126.417 160.104C125.754 160.795 124.849 161.14 123.701 161.14C122.991 161.14 122.357 160.986 121.797 160.678C121.246 160.37 120.812 159.922 120.495 159.334C120.177 158.737 120.019 158.013 120.019 157.164C120.019 155.895 120.35 154.919 121.013 154.238C121.675 153.557 122.585 153.216 123.743 153.216C124.461 153.216 125.096 153.37 125.647 153.678C126.197 153.986 126.631 154.434 126.949 155.022C127.266 155.61 127.425 156.324 127.425 157.164ZM122.147 157.164C122.147 157.92 122.268 158.494 122.511 158.886C122.763 159.269 123.169 159.46 123.729 159.46C124.279 159.46 124.676 159.269 124.919 158.886C125.171 158.494 125.297 157.92 125.297 157.164C125.297 156.408 125.171 155.843 124.919 155.47C124.676 155.087 124.275 154.896 123.715 154.896C123.164 154.896 122.763 155.087 122.511 155.47C122.268 155.843 122.147 156.408 122.147 157.164ZM133.419 153.216C133.521 153.216 133.643 153.221 133.783 153.23C133.923 153.239 134.035 153.253 134.119 153.272L133.965 155.232C133.89 155.213 133.792 155.199 133.671 155.19C133.549 155.171 133.442 155.162 133.349 155.162C132.994 155.162 132.653 155.227 132.327 155.358C132 155.479 131.734 155.68 131.529 155.96C131.333 156.24 131.235 156.623 131.235 157.108V161H129.149V153.356H130.731L131.039 154.644H131.137C131.361 154.252 131.669 153.916 132.061 153.636C132.453 153.356 132.905 153.216 133.419 153.216ZM135.884 153.342L136.486 151.732H137.816V153.356H139.958V154.924H137.816V158.606C137.816 158.895 137.9 159.115 138.068 159.264C138.236 159.404 138.455 159.474 138.726 159.474C138.959 159.474 139.183 159.455 139.398 159.418C139.613 159.371 139.827 159.311 140.042 159.236V160.79C139.818 160.893 139.538 160.977 139.202 161.042C138.875 161.107 138.516 161.14 138.124 161.14C137.788 161.14 137.471 161.098 137.172 161.014C136.883 160.939 136.631 160.809 136.416 160.622C136.201 160.426 136.033 160.165 135.912 159.838C135.791 159.511 135.73 159.101 135.73 158.606V154.924H134.736V154.042L135.884 153.342ZM141.576 150.36H143.662V152.53C143.662 152.922 143.648 153.286 143.62 153.622C143.602 153.958 143.583 154.196 143.564 154.336H143.676C143.919 153.944 144.227 153.659 144.6 153.482C144.983 153.305 145.412 153.216 145.888 153.216C146.299 153.216 146.672 153.272 147.008 153.384C147.344 153.487 147.634 153.655 147.876 153.888C148.119 154.112 148.306 154.401 148.436 154.756C148.567 155.101 148.632 155.521 148.632 156.016V161H146.546V156.534C146.546 155.433 146.136 154.882 145.314 154.882C144.689 154.882 144.255 155.097 144.012 155.526C143.779 155.955 143.662 156.581 143.662 157.402V161H141.576V150.36ZM153.77 152.208V151.004H158.32V152.208L157.102 152.768V159.236L158.32 159.796V161H153.77V159.796L154.988 159.236V152.768L153.77 152.208ZM165.19 158.732C165.19 159.507 164.914 160.104 164.364 160.524C163.822 160.935 163.01 161.14 161.928 161.14C161.396 161.14 160.938 161.103 160.556 161.028C160.173 160.963 159.79 160.851 159.408 160.692V158.97C159.818 159.157 160.262 159.311 160.738 159.432C161.214 159.553 161.634 159.614 161.998 159.614C162.399 159.614 162.688 159.553 162.866 159.432C163.043 159.311 163.132 159.152 163.132 158.956C163.132 158.825 163.094 158.709 163.02 158.606C162.954 158.503 162.805 158.387 162.572 158.256C162.338 158.125 161.974 157.957 161.48 157.752C160.994 157.547 160.598 157.346 160.29 157.15C159.991 156.945 159.767 156.702 159.618 156.422C159.468 156.133 159.394 155.773 159.394 155.344C159.394 154.635 159.669 154.103 160.22 153.748C160.77 153.393 161.503 153.216 162.418 153.216C162.894 153.216 163.346 153.263 163.776 153.356C164.205 153.449 164.648 153.603 165.106 153.818L164.476 155.316C164.102 155.157 163.748 155.027 163.412 154.924C163.076 154.812 162.735 154.756 162.39 154.756C161.774 154.756 161.466 154.924 161.466 155.26C161.466 155.381 161.503 155.493 161.578 155.596C161.662 155.689 161.816 155.792 162.04 155.904C162.273 156.016 162.614 156.165 163.062 156.352C163.5 156.529 163.878 156.716 164.196 156.912C164.513 157.099 164.756 157.337 164.924 157.626C165.101 157.915 165.19 158.284 165.19 158.732ZM168.901 161H166.815V150.36H168.901V161ZM173.992 156.282L175.322 156.24V155.904C175.322 155.503 175.215 155.209 175 155.022C174.795 154.835 174.506 154.742 174.132 154.742C173.759 154.742 173.395 154.798 173.04 154.91C172.686 155.013 172.331 155.143 171.976 155.302L171.29 153.888C171.692 153.683 172.144 153.519 172.648 153.398C173.152 153.267 173.675 153.202 174.216 153.202C175.252 153.202 176.041 153.421 176.582 153.86C177.124 154.299 177.394 154.98 177.394 155.904V161H175.938L175.532 159.964H175.476C175.308 160.169 175.14 160.347 174.972 160.496C174.814 160.645 174.636 160.767 174.44 160.86C174.244 160.953 174.025 161.023 173.782 161.07C173.54 161.117 173.26 161.14 172.942 161.14C172.606 161.14 172.294 161.093 172.004 161C171.715 160.897 171.463 160.748 171.248 160.552C171.043 160.356 170.88 160.109 170.758 159.81C170.637 159.502 170.576 159.138 170.576 158.718C170.576 157.906 170.861 157.309 171.43 156.926C172 156.543 172.854 156.329 173.992 156.282ZM172.718 158.732C172.718 159.049 172.812 159.278 172.998 159.418C173.185 159.549 173.428 159.614 173.726 159.614C174.174 159.614 174.552 159.483 174.86 159.222C175.168 158.951 175.322 158.573 175.322 158.088V157.458L174.51 157.486C173.838 157.505 173.372 157.626 173.11 157.85C172.849 158.074 172.718 158.368 172.718 158.732ZM179.53 153.356H181.126L181.406 154.336H181.518C181.76 153.944 182.092 153.659 182.512 153.482C182.941 153.305 183.394 153.216 183.87 153.216C184.691 153.216 185.349 153.44 185.844 153.888C186.338 154.327 186.586 155.036 186.586 156.016V161H184.5V156.534C184.5 155.974 184.402 155.559 184.206 155.288C184.01 155.017 183.697 154.882 183.268 154.882C182.633 154.882 182.199 155.101 181.966 155.54C181.732 155.969 181.616 156.59 181.616 157.402V161H179.53V153.356ZM191.153 161.14C190.303 161.14 189.608 160.809 189.067 160.146C188.535 159.474 188.269 158.489 188.269 157.192C188.269 155.885 188.539 154.896 189.081 154.224C189.622 153.552 190.331 153.216 191.209 153.216C191.759 153.216 192.212 153.323 192.567 153.538C192.921 153.753 193.201 154.019 193.407 154.336H193.477C193.449 154.187 193.416 153.972 193.379 153.692C193.341 153.403 193.323 153.109 193.323 152.81V150.36H195.409V161H193.813L193.407 160.006H193.323C193.117 160.323 192.842 160.594 192.497 160.818C192.151 161.033 191.703 161.14 191.153 161.14ZM191.881 159.474C192.45 159.474 192.851 159.306 193.085 158.97C193.318 158.625 193.444 158.111 193.463 157.43V157.206C193.463 156.469 193.346 155.904 193.113 155.512C192.889 155.111 192.469 154.91 191.853 154.91C191.395 154.91 191.036 155.111 190.775 155.512C190.513 155.904 190.383 156.473 190.383 157.22C190.383 157.967 190.513 158.531 190.775 158.914C191.036 159.287 191.405 159.474 191.881 159.474Z" fill="#003366"/>
</g>
<defs>
<clipPath id="clip0_13898_192316">
<rect width="272" height="220" fill="white"/>
</clipPath>
</defs>
</svg>
