<svg id="accessibility-16" xmlns="http://www.w3.org/2000/svg" width="16" height="16" viewBox="0 0 16 16">
  <g id="Background">
    <path id="Path_203" data-name="Path 203" d="M16.09,1.046A1.045,1.045,0,0,0,15.046,0H1.136A1.045,1.045,0,0,0,.09,1.046V14.954A1.046,1.046,0,0,0,1.135,16h13.91a1.045,1.045,0,0,0,1.044-1.046Z" transform="translate(-0.09)" fill="#38598a"/>
  </g>
  <g id="Accessibility" transform="translate(2.473 1.069)">
    <g id="Accessibility_Character" data-name="Accessibility Character">
      <path id="Path_204" data-name="Path 204" d="M78.572,35.982a.853.853,0,0,0-.649-.247l-2.933.159L76.6,34.1a.946.946,0,0,0,.207-.9.818.818,0,0,0-.375-.519c-.006,0-3.858-2.187-3.858-2.187a.858.858,0,0,0-.982.1l-1.878,1.637a.806.806,0,0,0-.04,1.135.856.856,0,0,0,1.16.088l1.426-1.241,1.179.668L71.359,35.2A4.329,4.329,0,0,0,69.11,36.28L70.2,37.34a2.814,2.814,0,0,1,3.817.087,2.649,2.649,0,0,1,.087,3.723l1.087,1.061a4.117,4.117,0,0,0,.73-4.719l1.135-.062-.276,3.3a.828.828,0,0,0,.77.884l.069,0a.834.834,0,0,0,.837-.754l.354-4.242A.808.808,0,0,0,78.572,35.982Z" transform="translate(-67.755 -29.706)" fill="#fff"/>
      <path id="Path_205" data-name="Path 205" d="M183.338,21.386a1.408,1.408,0,1,0-1.408-1.409,1.408,1.408,0,0,0,1.408,1.409Z" transform="translate(-174.078 -18.57)" fill="#fff"/>
      <path id="Path_206" data-name="Path 206" d="M49.877,149.1a2.764,2.764,0,0,1-2.288-4.319l-1.1-1.1a4.3,4.3,0,0,0,6.036,6.036l-1.1-1.1A2.749,2.749,0,0,1,49.877,149.1Z" transform="translate(-45.576 -136.772)" fill="#fff"/>
    </g>
  </g>
</svg>
