<svg id="accessibility-48" xmlns="http://www.w3.org/2000/svg" width="48" height="48" viewBox="0 0 48 48">
  <g id="Background">
    <path id="Path_203" data-name="Path 203" d="M48.09,3.138A3.135,3.135,0,0,0,44.957,0H3.227A3.136,3.136,0,0,0,.09,3.138V44.862A3.138,3.138,0,0,0,3.225,48h41.73a3.136,3.136,0,0,0,3.133-3.14Z" transform="translate(-0.09)" fill="#38598a"/>
  </g>
  <g id="Accessibility" transform="translate(7.417 3.208)">
    <g id="Accessibility_Character" data-name="Accessibility Character">
      <path id="Path_204" data-name="Path 204" d="M97.5,47.174a2.56,2.56,0,0,0-1.947-.74l-8.8.477,4.837-5.378a2.838,2.838,0,0,0,.62-2.7,2.453,2.453,0,0,0-1.126-1.557c-.017-.013-11.574-6.561-11.574-6.561a2.575,2.575,0,0,0-2.947.292l-5.635,4.911a2.419,2.419,0,0,0-.121,3.4,2.569,2.569,0,0,0,3.481.264l4.277-3.723,3.538,2-6.243,6.943a12.986,12.986,0,0,0-6.748,3.253l3.263,3.18a8.443,8.443,0,0,1,11.45.261,7.948,7.948,0,0,1,.261,11.17l3.26,3.182A12.352,12.352,0,0,0,89.534,51.7l3.4-.185-.829,9.913a2.483,2.483,0,0,0,2.311,2.653c.069,0,.138.008.207.008a2.5,2.5,0,0,0,2.512-2.262L98.2,49.106A2.424,2.424,0,0,0,97.5,47.174Z" transform="translate(-65.045 -28.345)" fill="#fff"/>
      <path id="Path_205" data-name="Path 205" d="M186.154,27.017a4.224,4.224,0,1,0-4.224-4.227,4.224,4.224,0,0,0,4.224,4.227Z" transform="translate(-158.375 -18.57)" fill="#fff"/>
      <path id="Path_206" data-name="Path 206" d="M58.478,159.925a8.292,8.292,0,0,1-6.863-12.956l-3.3-3.289a12.9,12.9,0,0,0,18.109,18.108l-3.3-3.294A8.247,8.247,0,0,1,58.478,159.925Z" transform="translate(-45.576 -122.955)" fill="#fff"/>
    </g>
  </g>
</svg>
