<svg id="accessibility-64" xmlns="http://www.w3.org/2000/svg" width="64" height="64" viewBox="0 0 64 64">
  <g id="Background">
    <path id="Path_203" data-name="Path 203" d="M64.09,4.184A4.18,4.18,0,0,0,59.912,0H4.272A4.182,4.182,0,0,0,.09,4.184V59.816A4.184,4.184,0,0,0,4.27,64H59.91a4.182,4.182,0,0,0,4.178-4.186Z" transform="translate(-0.09)" fill="#38598a"/>
  </g>
  <g id="Accessibility" transform="translate(9.89 4.277)">
    <g id="Accessibility_Character" data-name="Accessibility Character">
      <path id="Path_204" data-name="Path 204" d="M106.958,52.77a3.413,3.413,0,0,0-2.6-.986l-11.731.636,6.449-7.17a3.784,3.784,0,0,0,.827-3.6,3.27,3.27,0,0,0-1.5-2.076c-.023-.018-15.432-8.748-15.432-8.748a3.434,3.434,0,0,0-3.929.389l-7.513,6.548a3.226,3.226,0,0,0-.162,4.539,3.425,3.425,0,0,0,4.642.353l5.7-4.964,4.717,2.672-8.324,9.258a17.315,17.315,0,0,0-9,4.337l4.351,4.24a11.257,11.257,0,0,1,15.266.348,10.6,10.6,0,0,1,.348,14.894l4.346,4.242A16.469,16.469,0,0,0,96.342,58.81l4.54-.247L99.776,71.781a3.311,3.311,0,0,0,3.082,3.537c.092,0,.184.011.276.011a3.335,3.335,0,0,0,3.349-3.016L107.9,55.346A3.232,3.232,0,0,0,106.958,52.77Z" transform="translate(-63.689 -27.665)" fill="#fff"/>
      <path id="Path_205" data-name="Path 205" d="M187.562,29.833A5.632,5.632,0,1,0,181.93,24.2a5.632,5.632,0,0,0,5.632,5.636Z" transform="translate(-150.523 -18.57)" fill="#fff"/>
      <path id="Path_206" data-name="Path 206" d="M62.778,165.34a11.056,11.056,0,0,1-9.151-17.275l-4.395-4.386a17.2,17.2,0,0,0,24.146,24.143l-4.395-4.392A11,11,0,0,1,62.778,165.34Z" transform="translate(-45.576 -116.047)" fill="#fff"/>
    </g>
  </g>
</svg>
