<svg id="campfires" xmlns="http://www.w3.org/2000/svg" width="48" height="48" viewBox="0 0 48 48">
  <g id="Background">
    <path id="Path_898" data-name="Path 898" d="M48,3.136A3.134,3.134,0,0,0,44.866,0H3.136A3.136,3.136,0,0,0,0,3.136V44.86A3.139,3.139,0,0,0,3.136,48h41.73A3.137,3.137,0,0,0,48,44.86Z" fill="#38598a"/>
  </g>
  <g id="Campfires-2" data-name="Campfires" transform="translate(11.108 3.015)">
    <path id="Path_899" data-name="Path 899" d="M104.076,17.75s.579,2.37-2.942,8.916-5.419,8.531-4.9,11.884,1.733,7.119,5.43,9.808,1.725-.279,1.725-.279-.788-1.624,1.554-3.966c2.192-2.192,4.856-6.2,4.961-9.781A24.064,24.064,0,0,0,104.076,17.75Z" transform="translate(-90.924 -17.75)" fill="#fff"/>
    <path id="Path_900" data-name="Path 900" d="M81.18,120.071s-5.476-3.167-6.227-6.639c-.961-4.441-.361-3.368-.13-7.289s-.68-3.337-.864-2.017a34.569,34.569,0,0,1-1.859,5.391,8.192,8.192,0,0,0,1.431,7.313C75.214,118.924,76.314,120.106,81.18,120.071Z" transform="translate(-70.675 -88.627)" fill="#fff"/>
    <path id="Path_901" data-name="Path 901" d="M148.384,95.581s-.841-3.321.929-4.969,4.4-4.366,4.806-6.681.49-10.6.49-10.6a52.284,52.284,0,0,1,3.248,7.6c.7,2.506,1.31,6.19-.376,8.643a11.977,11.977,0,0,1-6.81,4.624C147.994,94.973,148.384,95.581,148.384,95.581Z" transform="translate(-134.118 -63.887)" fill="#fff"/>
    <path id="Path_902" data-name="Path 902" d="M92.338,213.094,73.213,206.88s-1.53-.642-.7-2.63c.454-1.088,1.347-1.242,2.719-.839.39.114,18.859,5.585,18.721,5.566C92.761,208.826,90.813,211.679,92.338,213.094Z" transform="translate(-71.097 -171.701)" fill="#fff"/>
    <g id="Group_1109" data-name="Group 1109" transform="translate(21.58 37.769)">
      <path id="Path_903" data-name="Path 903" d="M193.408,244.125c.79.223,1.67-.5,1.966-1.606a1.884,1.884,0,0,0-.9-2.4c-.788-.223-1.668.494-1.964,1.6A1.887,1.887,0,0,0,193.408,244.125Z" transform="translate(-192.416 -240.074)" fill="#fff"/>
    </g>
    <path id="Path_904" data-name="Path 904" d="M143.314,202.339l7.135,1.97s4.5-1.394,4.9-1.494,1.6-3.52-1.1-3.533a15.459,15.459,0,0,0-3.091.714Z" transform="translate(-130.076 -168.442)" fill="#fff"/>
    <g id="Group_1110" data-name="Group 1110" transform="translate(0 37.415)">
      <path id="Path_905" data-name="Path 905" d="M67.559,242.137a2.175,2.175,0,1,0-2.1-1.675A1.931,1.931,0,0,0,67.559,242.137Z" transform="translate(-65.388 -237.992)" fill="#fff"/>
    </g>
    <path id="Path_906" data-name="Path 906" d="M81.165,233.283a2.708,2.708,0,0,1,1.747,1.887,1.953,1.953,0,0,1-.536,2.065l6.867-2.153-6.523-2.208Z" transform="translate(-78.485 -196.328)" fill="#fff"/>
  </g>
</svg>
