<svg id="campfires" xmlns="http://www.w3.org/2000/svg" width="31.999" height="31.999" viewBox="0 0 31.999 31.999">
  <g id="Background" transform="translate(0)">
    <path id="Path_898" data-name="Path 898" d="M32,2.091A2.089,2.089,0,0,0,29.91,0H2.091A2.091,2.091,0,0,0,0,2.091V29.906A2.093,2.093,0,0,0,2.091,32H29.91A2.091,2.091,0,0,0,32,29.906Z" transform="translate(0)" fill="#38598a"/>
  </g>
  <g id="Campfires-2" data-name="Campfires" transform="translate(7.405 2.01)">
    <path id="Path_899" data-name="Path 899" d="M101.434,17.75s.386,1.58-1.962,5.944-3.612,5.687-3.266,7.922a9.362,9.362,0,0,0,3.62,6.538c2.464,1.793,1.15-.186,1.15-.186s-.526-1.083,1.036-2.644c1.462-1.462,3.237-4.134,3.307-6.521A16.042,16.042,0,0,0,101.434,17.75Z" transform="translate(-92.666 -17.75)" fill="#fff"/>
    <path id="Path_900" data-name="Path 900" d="M78.039,114.424s-3.651-2.111-4.151-4.426c-.641-2.96-.241-2.246-.087-4.859s-.453-2.224-.576-1.345a23.045,23.045,0,0,1-1.24,3.594,5.461,5.461,0,0,0,.954,4.875C74.061,113.66,74.795,114.447,78.039,114.424Z" transform="translate(-71.035 -93.462)" fill="#fff"/>
    <path id="Path_901" data-name="Path 901" d="M148.317,88.163s-.561-2.214.619-3.313,2.936-2.911,3.2-4.454.327-7.068.327-7.068a34.856,34.856,0,0,1,2.165,5.07c.465,1.67.873,4.127-.25,5.762a7.984,7.984,0,0,1-4.54,3.083C148.057,87.758,148.317,88.163,148.317,88.163Z" transform="translate(-138.807 -67.035)" fill="#fff"/>
    <path id="Path_902" data-name="Path 902" d="M85.647,209.8,72.9,205.656s-1.02-.428-.468-1.754c.3-.725.9-.828,1.813-.559.26.076,12.573,3.723,12.481,3.711C85.929,206.953,84.63,208.855,85.647,209.8Z" transform="translate(-71.486 -182.204)" fill="#fff"/>
    <g id="Group_1109" data-name="Group 1109" transform="translate(14.386 25.178)">
      <path id="Path_903" data-name="Path 903" d="M193.077,242.775c.526.149,1.113-.331,1.31-1.071a1.256,1.256,0,0,0-.6-1.6c-.526-.149-1.112.329-1.309,1.069A1.258,1.258,0,0,0,193.077,242.775Z" transform="translate(-192.416 -240.074)" fill="#fff"/>
    </g>
    <path id="Path_904" data-name="Path 904" d="M143.314,201.319l4.756,1.313s3-.929,3.268-1,1.064-2.346-.732-2.355a10.307,10.307,0,0,0-2.061.476Z" transform="translate(-134.489 -178.722)" fill="#fff"/>
    <g id="Group_1110" data-name="Group 1110" transform="translate(0 24.943)">
      <path id="Path_905" data-name="Path 905" d="M66.835,240.755a1.45,1.45,0,1,0-1.4-1.117A1.287,1.287,0,0,0,66.835,240.755Z" transform="translate(-65.388 -237.992)" fill="#fff"/>
    </g>
    <path id="Path_906" data-name="Path 906" d="M81.165,233.147a1.805,1.805,0,0,1,1.164,1.258,1.3,1.3,0,0,1-.357,1.377l4.578-1.435L82.2,232.874Z" transform="translate(-79.378 -208.511)" fill="#fff"/>
  </g>
</svg>
