<?xml version="1.0" encoding="utf-8"?>
<!-- Generator: Adobe Illustrator 25.4.1, SVG Export Plug-In . SVG Version: 6.00 Build 0)  -->
<svg version="1.1" id="Layer_1" xmlns="http://www.w3.org/2000/svg" xmlns:xlink="http://www.w3.org/1999/xlink" x="0px" y="0px"
	 viewBox="0 0 48 48" style="enable-background:new 0 0 48 48;" xml:space="preserve">
<style type="text/css">
	.st0{fill:#003366;}
</style>
<path id="Icon_awesome-calendar-alt" class="st0" d="M0.9,43.3c0,2.5,2.2,4.5,4.9,4.5H42c2.7,0,4.9-2,4.9-4.5V17.8h-46V43.3z
	 M33.8,25c0-0.6,0.6-1.1,1.2-1.1h4.1c0.7,0,1.2,0.5,1.2,1.1v3.7c0,0.6-0.6,1.1-1.2,1.1H35c-0.7,0-1.2-0.5-1.2-1.1V25z M33.8,37
	c0-0.6,0.6-1.1,1.2-1.1h4.1c0.7,0,1.2,0.5,1.2,1.1v3.7c0,0.6-0.6,1.1-1.2,1.1H35c-0.7,0-1.2-0.5-1.2-1.1V37z M20.6,25
	c0-0.6,0.6-1.1,1.2-1.1H26c0.7,0,1.2,0.5,1.2,1.1v3.7c0,0.6-0.6,1.1-1.2,1.1h-4.1c-0.7,0-1.2-0.5-1.2-1.1L20.6,25z M20.6,37
	c0-0.6,0.6-1.1,1.2-1.1H26c0.7,0,1.2,0.5,1.2,1.1v3.7c0,0.6-0.6,1.1-1.2,1.1h-4.1c-0.7,0-1.2-0.5-1.2-1.1L20.6,37z M7.5,25
	c0-0.6,0.6-1.1,1.2-1.1h4.1c0.7,0,1.2,0.5,1.2,1.1v3.7c0,0.6-0.6,1.1-1.2,1.1H8.7c-0.7,0-1.2-0.5-1.2-1.1V25z M7.5,37
	c0-0.6,0.6-1.1,1.2-1.1h4.1c0.7,0,1.2,0.5,1.2,1.1v3.7c0,0.6-0.6,1.1-1.2,1.1H8.7c-0.7,0-1.2-0.5-1.2-1.1V37z M42,5.8h-4.9V1.3
	c0-0.8-0.7-1.5-1.6-1.5h-3.3c-0.9,0-1.6,0.7-1.6,1.5v4.5H17.3V1.3c0-0.8-0.7-1.5-1.6-1.5h-3.3c-0.9,0-1.6,0.7-1.6,1.5v4.5H5.8
	c-2.7,0-4.9,2-4.9,4.5v4.5h46v-4.5C46.9,7.9,44.7,5.8,42,5.8z"/>
</svg>
