<svg id="campfires" xmlns="http://www.w3.org/2000/svg" width="16" height="16" viewBox="0 0 16 16">
  <g id="Background" transform="translate(0)">
    <path id="Path_898" data-name="Path 898" d="M16,1.045A1.045,1.045,0,0,0,14.955,0H1.045A1.045,1.045,0,0,0,0,1.045V14.953A1.046,1.046,0,0,0,1.045,16h13.91A1.046,1.046,0,0,0,16,14.953Z" transform="translate(0)" fill="#38598a"/>
  </g>
  <g id="Campfires-2" data-name="Campfires" transform="translate(3.703 1.005)">
    <path id="Path_899" data-name="Path 899" d="M98.792,17.75s.193.79-.981,2.972S96,23.566,96.178,24.683a4.681,4.681,0,0,0,1.81,3.269c1.232.9.575-.093.575-.093s-.263-.541.518-1.322a5.522,5.522,0,0,0,1.654-3.26A8.021,8.021,0,0,0,98.792,17.75Z" transform="translate(-94.408 -17.75)" fill="#fff"/>
    <path id="Path_900" data-name="Path 900" d="M74.9,108.778s-1.825-1.056-2.076-2.213a5.054,5.054,0,0,1-.043-2.43c.077-1.307-.227-1.112-.288-.672a11.523,11.523,0,0,1-.62,1.8,2.731,2.731,0,0,0,.477,2.438C72.909,108.4,73.276,108.79,74.9,108.778Z" transform="translate(-71.396 -98.297)" fill="#fff"/>
    <path id="Path_901" data-name="Path 901" d="M148.25,80.746s-.28-1.107.31-1.656a5.11,5.11,0,0,0,1.6-2.227c.134-.772.163-3.534.163-3.534a17.43,17.43,0,0,1,1.083,2.535,3.637,3.637,0,0,1-.125,2.881,3.992,3.992,0,0,1-2.27,1.541C148.12,80.544,148.25,80.746,148.25,80.746Z" transform="translate(-143.495 -70.182)" fill="#fff"/>
    <path id="Path_902" data-name="Path 902" d="M78.956,206.5l-6.375-2.071s-.51-.214-.234-.877c.151-.363.449-.414.906-.28.13.038,6.286,1.862,6.24,1.855C79.1,205.08,78.448,206.031,78.956,206.5Z" transform="translate(-71.876 -192.705)" fill="#fff"/>
    <g id="Group_1109" data-name="Group 1109" transform="translate(7.193 12.59)">
      <path id="Path_903" data-name="Path 903" d="M192.746,241.424c.263.074.557-.165.655-.535a.628.628,0,0,0-.3-.8c-.263-.074-.556.165-.655.534A.629.629,0,0,0,192.746,241.424Z" transform="translate(-192.416 -240.074)" fill="#fff"/>
    </g>
    <path id="Path_904" data-name="Path 904" d="M143.314,200.3l2.378.657s1.5-.465,1.634-.5.532-1.173-.366-1.178a5.154,5.154,0,0,0-1.03.238Z" transform="translate(-138.901 -189.001)" fill="#fff"/>
    <g id="Group_1110" data-name="Group 1110" transform="translate(0 12.472)">
      <path id="Path_905" data-name="Path 905" d="M66.112,239.374a.725.725,0,1,0-.7-.558A.644.644,0,0,0,66.112,239.374Z" transform="translate(-65.388 -237.992)" fill="#fff"/>
    </g>
    <path id="Path_906" data-name="Path 906" d="M81.165,233.01a.9.9,0,0,1,.582.629.651.651,0,0,1-.179.688l2.289-.718-2.174-.736Z" transform="translate(-80.272 -220.692)" fill="#fff"/>
  </g>
</svg>
