<svg id="campfires" xmlns="http://www.w3.org/2000/svg" width="64" height="64" viewBox="0 0 64 64">
  <g id="Background">
    <path id="Path_898" data-name="Path 898" d="M64,4.181A4.179,4.179,0,0,0,59.822,0H4.182A4.182,4.182,0,0,0,0,4.181V59.813A4.185,4.185,0,0,0,4.182,64h55.64A4.182,4.182,0,0,0,64,59.813Z" fill="#38598a"/>
  </g>
  <g id="Campfires-2" data-name="Campfires" transform="translate(14.811 4.021)">
    <path id="Path_899" data-name="Path 899" d="M106.718,17.75s.771,3.16-3.923,11.888S95.57,41.013,96.263,45.483s2.311,9.492,7.239,13.077,2.3-.372,2.3-.372-1.051-2.166,2.072-5.288c2.923-2.923,6.475-8.268,6.615-13.042A32.085,32.085,0,0,0,106.718,17.75Z" transform="translate(-89.182 -17.75)" fill="#fff"/>
    <path id="Path_900" data-name="Path 900" d="M84.321,125.718s-7.3-4.222-8.3-8.852c-1.281-5.921-.481-4.491-.174-9.719s-.906-4.449-1.152-2.69-1.469,4.484-2.479,7.188-.338,6.962,1.908,9.751S77.834,125.764,84.321,125.718Z" transform="translate(-70.314 -83.792)" fill="#fff"/>
    <path id="Path_901" data-name="Path 901" d="M148.45,103s-1.122-4.428,1.239-6.625,5.872-5.822,6.408-8.908.653-14.135.653-14.135a69.713,69.713,0,0,1,4.33,10.14c.931,3.341,1.747,8.254-.5,11.524a15.969,15.969,0,0,1-9.08,6.165C147.93,102.187,148.45,103,148.45,103Z" transform="translate(-129.43 -60.74)" fill="#fff"/>
    <path id="Path_902" data-name="Path 902" d="M99.029,216.389l-25.5-8.285s-2.04-.856-.936-3.507c.605-1.451,1.8-1.656,3.626-1.118.52.152,25.146,7.446,24.962,7.422C99.593,210.7,97,214.5,99.029,216.389Z" transform="translate(-70.708 -161.199)" fill="#fff"/>
    <g id="Group_1109" data-name="Group 1109" transform="translate(28.773 50.358)">
      <path id="Path_903" data-name="Path 903" d="M193.739,245.476c1.053.3,2.226-.662,2.621-2.141s-.143-2.916-1.2-3.206-2.224.658-2.619,2.138S192.686,245.182,193.739,245.476Z" transform="translate(-192.416 -240.074)" fill="#fff"/>
    </g>
    <path id="Path_904" data-name="Path 904" d="M143.314,203.358l9.513,2.626s6.006-1.858,6.537-1.993,2.127-4.693-1.463-4.711a20.611,20.611,0,0,0-4.121.952Z" transform="translate(-125.663 -158.163)" fill="#fff"/>
    <g id="Group_1110" data-name="Group 1110" transform="translate(0 49.887)">
      <path id="Path_905" data-name="Path 905" d="M68.282,243.519c1.184-.283,1.855-1.738,1.5-3.252s-1.61-2.509-2.8-2.226-1.856,1.734-1.5,3.245A2.568,2.568,0,0,0,68.282,243.519Z" transform="translate(-65.388 -237.992)" fill="#fff"/>
    </g>
    <path id="Path_906" data-name="Path 906" d="M81.165,233.419a3.611,3.611,0,0,1,2.329,2.516c.223,1.4.028,2.06-.715,2.753l9.156-2.87-8.7-2.945Z" transform="translate(-77.591 -184.147)" fill="#fff"/>
  </g>
</svg>
