<?xml version="1.0" encoding="utf-8"?>
<!-- Generator: Adobe Illustrator 25.4.1, SVG Export Plug-In . SVG Version: 6.00 Build 0)  -->
<svg version="1.1" id="Layer_1" xmlns="http://www.w3.org/2000/svg" xmlns:xlink="http://www.w3.org/1999/xlink" x="0px" y="0px"
	 viewBox="0 0 48 48" style="enable-background:new 0 0 48 48;" xml:space="preserve">
<style type="text/css">
	.st0{fill:#38598A;}
	.st1{fill:#FFFFFF;}
</style>
<g id="campfires-64" transform="translate(1673.5 1338.604)">
	<g id="Background-119">
		<path id="Path_286-6" class="st0" d="M-1625.5-1335.5c0-1.7-1.4-3.1-3.1-3.1c0,0,0,0,0,0h-41.7c-1.7,0-3.1,1.4-3.1,3.1v41.7
			c0,1.7,1.4,3.1,3.1,3.1h41.7c1.7,0,3.1-1.4,3.1-3.1c0,0,0,0,0,0L-1625.5-1335.5z"/>
	</g>
	<g id="Campfires-11" transform="translate(10.992 4.022)">
		<path id="Path_287-6" class="st1" d="M-1658.7-1339.6c0,0,0.7,2.9-3.7,11s-6.8,10.5-6.1,14.7c0.6,4.1,2.2,8.8,6.8,12.1
			c4.6,3.3,2.2-0.3,2.2-0.3s-1-2,1.9-4.9c2.7-2.7,6.1-7.7,6.2-12.1C-1651.2-1326.6-1653.8-1333.9-1658.7-1339.6z"/>
		<path id="Path_288-6" class="st1" d="M-1660-1300.7c0,0-9.4-4.1-10.7-8.6c-1.6-5.8-0.6-4.4-0.2-9.5c0.4-5.1-1.2-4.3-1.5-2.6
			c-0.3,1.7-1.9,4.4-3.2,7c-1.3,2.6-0.4,6.8,2.5,9.5S-1668.4-1300.6-1660-1300.7z"/>
		<path id="Path_289-6" class="st1" d="M-1657.9-1300.4c0,0-1.1-3.3,1.2-5c2.3-1.6,5.7-4.4,6.2-6.7c0.5-2.3,0.6-10.6,0.6-10.6
			s3.1,4.7,4.2,7.6c0.9,2.5,1.7,6.2-0.5,8.6s-5.3,3.9-8.8,4.6S-1657.9-1300.4-1657.9-1300.4z"/>
	</g>
</g>
</svg>
