<svg id="fire_ban-16" data-name="fire ban-16" xmlns="http://www.w3.org/2000/svg" width="16.012" height="15.963" viewBox="0 0 16.012 15.963">
  <g id="campfires">
    <g id="Background" transform="translate(0)">
      <path id="Path_286" data-name="Path 286" d="M15.864,1.043A1.039,1.039,0,0,0,14.829,0H1.037A1.04,1.04,0,0,0,0,1.043V14.918a1.041,1.041,0,0,0,1.037,1.044H14.829a1.04,1.04,0,0,0,1.036-1.044Z" transform="translate(0)" fill="#38598a"/>
    </g>
    <g id="Campfires-2" data-name="Campfires" transform="translate(2.742 0.754)">
      <path id="Path_287" data-name="Path 287" d="M99.416,17.75s.238.975-1.212,3.666-2.233,3.508-2.018,4.886a5.771,5.771,0,0,0,2.237,4.032c1.523,1.106.711-.115.711-.115s-.325-.668.64-1.63a6.805,6.805,0,0,0,2.044-4.022A9.88,9.88,0,0,0,99.416,17.75Z" transform="translate(-93.645 -17.75)" fill="#fff"/>
      <path id="Path_288" data-name="Path 288" d="M77.1,110.452s-3.1-1.368-3.529-2.869c-.545-1.919-.2-1.456-.074-3.15s-.385-1.442-.49-.872a12.707,12.707,0,0,1-1.054,2.33,2.9,2.9,0,0,0,.811,3.16C73.716,109.956,74.34,110.467,77.1,110.452Z" transform="translate(-71.756 -97.501)" fill="#fff"/>
      <path id="Path_289" data-name="Path 289" d="M148.269,80.732s-.357-1.1.395-1.653,1.87-1.453,2.041-2.223a32.366,32.366,0,0,0,.208-3.527,15.736,15.736,0,0,1,1.379,2.53,2.922,2.922,0,0,1-.16,2.875,5.307,5.307,0,0,1-2.892,1.538C148.1,80.53,148.269,80.732,148.269,80.732Z" transform="translate(-142.212 -67.698)" fill="#fff"/>
    </g>
  </g>
  <g id="Path_890" data-name="Path 890" transform="translate(13.75 0.813) rotate(45)" fill="#fff">
    <path d="M 2.696850061416626 17.5537052154541 L 0.5575814843177795 17.54668617248535 L 0.5016528367996216 0.5016494989395142 L 2.640921354293823 0.508675217628479 L 2.696850061416626 17.5537052154541 Z" stroke="none"/>
    <path d="M 1.003294229507446 1.003288269042969 L 1.055941581726074 17.04831886291504 L 2.195208549499512 17.05206108093262 L 2.142560958862305 1.007026672363281 L 1.003294229507446 1.003288269042969 M 1.430511474609375e-06 -3.814697265625e-06 L 3.139291286468506 0.01029586791992188 L 3.198501348495483 18.05535697937012 L 0.05921149253845215 18.04504585266113 L 1.430511474609375e-06 -3.814697265625e-06 Z" stroke="none" fill="#38598a"/>
  </g>
</svg>
