<svg id="fire_ban-32" data-name="fire ban-32" xmlns="http://www.w3.org/2000/svg" width="32.098" height="31.999" viewBox="0 0 32.098 31.999">
  <g id="campfires">
    <g id="Background" transform="translate(0)">
      <path id="Path_286" data-name="Path 286" d="M31.8,2.091A2.083,2.083,0,0,0,29.726,0H2.078A2.085,2.085,0,0,0,0,2.091V29.906A2.086,2.086,0,0,0,2.078,32H29.726A2.085,2.085,0,0,0,31.8,29.906Z" transform="translate(0)" fill="#38598a"/>
    </g>
    <g id="Campfires-2" data-name="Campfires" transform="translate(5.496 1.511)">
      <path id="Path_287" data-name="Path 287" d="M102.7,17.75s.478,1.954-2.43,7.348-4.476,7.031-4.046,9.794a11.568,11.568,0,0,0,4.484,8.084c3.053,2.216,1.425-.23,1.425-.23s-.651-1.339,1.284-3.268c1.811-1.807,4.011-5.11,4.1-8.062A19.805,19.805,0,0,0,102.7,17.75Z" transform="translate(-91.129 -17.75)" fill="#fff"/>
      <path id="Path_288" data-name="Path 288" d="M82.462,117.805s-6.221-2.743-7.074-5.751c-1.092-3.847-.41-2.918-.148-6.314s-.772-2.89-.982-1.748a25.474,25.474,0,0,1-2.112,4.67c-.859,1.759-.288,4.523,1.625,6.335S76.935,117.835,82.462,117.805Z" transform="translate(-71.756 -91.844)" fill="#fff"/>
      <path id="Path_289" data-name="Path 289" d="M148.354,88.169s-.716-2.215.791-3.314,3.749-2.912,4.091-4.456a64.884,64.884,0,0,0,.417-7.07,31.545,31.545,0,0,1,2.765,5.072c.594,1.671,1.115,4.128-.32,5.764a10.638,10.638,0,0,1-5.8,3.084C148.022,87.764,148.354,88.169,148.354,88.169Z" transform="translate(-136.212 -62.041)" fill="#fff"/>
    </g>
  </g>
  <g id="Path_890" data-name="Path 890" transform="translate(27.564 1.628) rotate(45)" fill="#fff">
    <path d="M 5.659358024597168 35.44192123413086 L 0.8662605285644531 35.42619323730469 L 0.7524731159210205 0.7524756789207458 L 5.545570850372314 0.7682035565376282 L 5.659358024597168 35.44192123413086 Z" stroke="none"/>
    <path d="M 1.504940509796143 1.50494384765625 L 1.613805294036865 34.67864990234375 L 4.906890869140625 34.689453125 L 4.798026084899902 1.5157470703125 L 1.504940509796143 1.50494384765625 M -4.291534423828125e-06 0 L 6.293125629425049 0.02064895629882812 L 6.411835670471191 36.19439697265625 L 0.1187057495117188 36.17374801635742 L -4.291534423828125e-06 0 Z" stroke="none" fill="#38598a"/>
  </g>
</svg>
