<svg id="campfires-32" xmlns="http://www.w3.org/2000/svg" width="31.802" height="31.999" viewBox="0 0 31.802 31.999">
  <g id="Background">
    <path id="Path_286" data-name="Path 286" d="M31.8,2.091A2.083,2.083,0,0,0,29.726,0H2.078A2.085,2.085,0,0,0,0,2.091V29.906A2.086,2.086,0,0,0,2.078,32H29.726A2.085,2.085,0,0,0,31.8,29.906Z" transform="translate(0)" fill="#38598a"/>
  </g>
  <g id="Campfires" transform="translate(5.496 2.511)">
    <path id="Path_287" data-name="Path 287" d="M102.7,17.75s.478,1.954-2.43,7.348-4.476,7.031-4.046,9.794a11.568,11.568,0,0,0,4.484,8.084c3.053,2.216,1.425-.23,1.425-.23s-.651-1.339,1.284-3.268c1.811-1.807,4.011-5.11,4.1-8.062A19.805,19.805,0,0,0,102.7,17.75Z" transform="translate(-91.129 -17.75)" fill="#fff"/>
    <path id="Path_288" data-name="Path 288" d="M82.462,117.805s-6.221-2.743-7.074-5.751c-1.092-3.847-.41-2.918-.148-6.314s-.772-2.89-.982-1.748a25.474,25.474,0,0,1-2.112,4.67c-.859,1.759-.288,4.523,1.625,6.335S76.935,117.835,82.462,117.805Z" transform="translate(-71.756 -91.844)" fill="#fff"/>
    <path id="Path_289" data-name="Path 289" d="M148.354,88.169s-.716-2.215.791-3.314,3.749-2.912,4.091-4.456a64.884,64.884,0,0,0,.417-7.07,31.545,31.545,0,0,1,2.765,5.072c.594,1.671,1.115,4.128-.32,5.764a10.638,10.638,0,0,1-5.8,3.084C148.022,87.764,148.354,88.169,148.354,88.169Z" transform="translate(-136.212 -62.041)" fill="#fff"/>
  </g>
</svg>
