<svg id="campfires-64" xmlns="http://www.w3.org/2000/svg" width="63.606" height="64" viewBox="0 0 63.606 64">
  <g id="Background">
    <path id="Path_286" data-name="Path 286" d="M63.606,4.181A4.166,4.166,0,0,0,59.454,0H4.156A4.169,4.169,0,0,0,0,4.181V59.813A4.173,4.173,0,0,0,4.156,64h55.3a4.169,4.169,0,0,0,4.152-4.187Z" transform="translate(0)" fill="#38598a"/>
  </g>
  <g id="Campfires" transform="translate(10.992 4.022)">
    <path id="Path_287" data-name="Path 287" d="M109.243,17.75s.956,3.907-4.86,14.7S95.431,46.51,96.29,52.036s2.863,11.735,8.969,16.167,2.85-.46,2.85-.46-1.3-2.678,2.567-6.537c3.622-3.614,8.022-10.221,8.2-16.124A39.611,39.611,0,0,0,109.243,17.75Z" transform="translate(-86.108 -17.75)" fill="#fff"/>
    <path id="Path_288" data-name="Path 288" d="M93.168,132.479s-12.442-5.486-14.149-11.5c-2.183-7.694-.82-5.836-.3-12.628s-1.544-5.781-1.963-3.5-2.5,5.827-4.225,9.34-.576,9.046,3.251,12.67S82.113,132.539,93.168,132.479Z" transform="translate(-71.756 -80.556)" fill="#fff"/>
    <path id="Path_289" data-name="Path 289" d="M148.524,103.01s-1.433-4.429,1.582-6.628,7.5-5.824,8.183-8.912.834-14.141.834-14.141,4.129,6.2,5.53,10.144c1.189,3.342,2.231,8.257-.64,11.528s-7.037,5.134-11.6,6.168S148.524,103.01,148.524,103.01Z" transform="translate(-124.239 -50.753)" fill="#fff"/>
  </g>
</svg>
