<svg id="fire_ban-64" data-name="fire ban-64" xmlns="http://www.w3.org/2000/svg" width="64.197" height="64" viewBox="0 0 64.197 64">
  <g id="campfires">
    <g id="Background" transform="translate(0)">
      <path id="Path_286" data-name="Path 286" d="M63.606,4.181A4.166,4.166,0,0,0,59.454,0H4.156A4.169,4.169,0,0,0,0,4.181V59.813A4.173,4.173,0,0,0,4.156,64h55.3a4.169,4.169,0,0,0,4.152-4.187Z" transform="translate(0)" fill="#38598a"/>
    </g>
    <g id="Campfires-2" data-name="Campfires" transform="translate(10.993 3.022)">
      <path id="Path_287" data-name="Path 287" d="M109.243,17.75s.956,3.907-4.86,14.7S95.431,46.51,96.29,52.036s2.863,11.735,8.969,16.167,2.85-.46,2.85-.46-1.3-2.678,2.567-6.537c3.622-3.614,8.022-10.221,8.2-16.124A39.611,39.611,0,0,0,109.243,17.75Z" transform="translate(-86.108 -17.75)" fill="#fff"/>
      <path id="Path_288" data-name="Path 288" d="M93.168,132.479s-12.442-5.486-14.149-11.5c-2.183-7.694-.82-5.836-.3-12.628s-1.544-5.781-1.963-3.5-2.5,5.827-4.225,9.34-.576,9.046,3.251,12.67S82.113,132.539,93.168,132.479Z" transform="translate(-71.756 -80.556)" fill="#fff"/>
      <path id="Path_289" data-name="Path 289" d="M148.524,103.01s-1.433-4.429,1.582-6.628,7.5-5.824,8.183-8.912.834-14.141.834-14.141,4.129,6.2,5.53,10.144c1.189,3.342,2.231,8.257-.64,11.528s-7.037,5.134-11.6,6.168S148.524,103.01,148.524,103.01Z" transform="translate(-124.239 -50.753)" fill="#fff"/>
    </g>
  </g>
  <g id="Path_890" data-name="Path 890" transform="translate(55.129 3.256) rotate(45)" fill="#fff">
    <path d="M 11.31896591186523 70.88523101806641 L 1.732507944107056 70.85376739501953 L 1.504941344261169 1.504941701889038 L 11.09139919281006 1.536397695541382 L 11.31896591186523 70.88523101806641 Z" stroke="none"/>
    <path d="M 3.00989818572998 3.009895324707031 L 3.227620124816895 69.35865783691406 L 9.814008712768555 69.38027191162109 L 9.596286773681641 3.031509399414062 L 3.00989818572998 3.009895324707031 M 9.5367431640625e-07 -7.62939453125e-06 L 12.58649444580078 0.04129791259765625 L 12.82390594482422 72.39016723632812 L 0.2374124526977539 72.34886169433594 L 9.5367431640625e-07 -7.62939453125e-06 Z" stroke="none" fill="#38598a"/>
  </g>
</svg>
