<svg id="fire_ban-48" data-name="fire ban-48" xmlns="http://www.w3.org/2000/svg" width="48.149" height="48" viewBox="0 0 48.149 48">
  <g id="campfires" transform="translate(0)">
    <g id="Background" transform="translate(0)">
      <path id="Path_286" data-name="Path 286" d="M47.7,3.136A3.125,3.125,0,0,0,44.59,0H3.117A3.127,3.127,0,0,0,0,3.136V44.86A3.129,3.129,0,0,0,3.117,48H44.59A3.127,3.127,0,0,0,47.7,44.86Z" transform="translate(0)" fill="#38598a"/>
    </g>
    <g id="Campfires-2" data-name="Campfires" transform="translate(8.245 2.267)">
      <path id="Path_287" data-name="Path 287" d="M105.97,17.75s.717,2.93-3.645,11.023S95.611,39.32,96.255,43.465s2.147,8.8,6.727,12.126,2.138-.345,2.138-.345-.977-2.008,1.925-4.9c2.716-2.711,6.016-7.666,6.146-12.093A29.709,29.709,0,0,0,105.97,17.75Z" transform="translate(-88.619 -17.75)" fill="#fff"/>
      <path id="Path_288" data-name="Path 288" d="M87.815,125.143s-9.332-4.115-10.612-8.626c-1.637-5.77-.615-4.377-.222-9.471s-1.158-4.336-1.472-2.621-1.877,4.37-3.169,7.005-.432,6.784,2.438,9.5S79.524,125.187,87.815,125.143Z" transform="translate(-71.756 -86.2)" fill="#fff"/>
      <path id="Path_289" data-name="Path 289" d="M148.439,95.59s-1.075-3.322,1.187-4.971,5.624-4.368,6.137-6.684.625-10.606.625-10.606a47.32,47.32,0,0,1,4.147,7.608c.891,2.507,1.673,6.193-.48,8.646a15.958,15.958,0,0,1-8.7,4.626C147.941,94.981,148.439,95.59,148.439,95.59Z" transform="translate(-130.226 -56.397)" fill="#fff"/>
    </g>
  </g>
  <g id="Path_890" data-name="Path 890" transform="translate(41.348 2.442) rotate(45)" fill="#fff">
    <path d="M 8.363822937011719 53.03858184814453 L 1.423976421356201 53.01580810546875 L 1.254120230674744 1.254120111465454 L 8.193966865539551 1.276895403862 L 8.363822937011719 53.03858184814453 Z" stroke="none"/>
    <path d="M 2.508249282836914 2.508247375488281 L 2.669901371002197 51.76988220214844 L 7.10969352722168 51.78445434570312 L 6.948041439056396 2.522811889648438 L 2.508249282836914 2.508247375488281 M 9.5367431640625e-07 0 L 9.439881324768066 0.03097152709960938 L 9.617941856384277 54.29270172119141 L 0.1780614852905273 54.26172256469727 L 9.5367431640625e-07 0 Z" stroke="none" fill="#38598a"/>
  </g>
</svg>
