<svg id="map-48" xmlns="http://www.w3.org/2000/svg" width="48" height="48" viewBox="0 0 48 48">
  <g id="Z_Base_layer_130mm">
    <g id="Group_824" data-name="Group 824">
      <path id="Path_765" data-name="Path 765" d="M47.983,3.143A3.143,3.143,0,0,0,44.847,0H3.136A3.143,3.143,0,0,0,0,3.143V44.857A3.143,3.143,0,0,0,3.136,48H44.864A3.143,3.143,0,0,0,48,44.857V3.143Z" fill="#38598a"/>
      <path id="Path_766" data-name="Path 766" d="M47.983,3.143A3.143,3.143,0,0,0,44.847,0H3.136A3.143,3.143,0,0,0,0,3.143V44.857A3.143,3.143,0,0,0,3.136,48H44.864A3.143,3.143,0,0,0,48,44.857V3.143Z" fill="#38598a"/>
    </g>
  </g>
  <g id="map_white_24dp" transform="translate(0.75 0.75)">
    <path id="Path_884" data-name="Path 884" d="M0,0H45.75V45.75H0Z" fill="none"/>
    <path id="Path_885" data-name="Path 885" d="M36.359,3l-.305.057L25.875,7,14.438,3,3.686,6.622A.961.961,0,0,0,3,7.537V36.359a.944.944,0,0,0,.953.953l.305-.057,10.179-3.946,11.438,4,10.751-3.622a.961.961,0,0,0,.686-.915V3.953A.944.944,0,0,0,36.359,3ZM25.875,33.5,14.438,29.478V6.813l11.438,4.022Z" transform="translate(2.719 2.719)" fill="#fff"/>
  </g>
</svg>
