<svg id="map-32" xmlns="http://www.w3.org/2000/svg" width="32" height="32" viewBox="0 0 32 32">
  <g id="Z_Base_layer_130mm">
    <g id="Group_824" data-name="Group 824">
      <path id="Path_765" data-name="Path 765" d="M31.989,2.1A2.1,2.1,0,0,0,29.9,0H2.09A2.1,2.1,0,0,0,0,2.1V29.9A2.1,2.1,0,0,0,2.09,32H29.91A2.1,2.1,0,0,0,32,29.9V2.1Z" fill="#38598a"/>
      <path id="Path_766" data-name="Path 766" d="M31.989,2.1A2.1,2.1,0,0,0,29.9,0H2.09A2.1,2.1,0,0,0,0,2.1V29.9A2.1,2.1,0,0,0,2.09,32H29.91A2.1,2.1,0,0,0,32,29.9V2.1Z" fill="#38598a"/>
    </g>
  </g>
  <g id="map_white_24dp" transform="translate(0.5 0.5)">
    <path id="Path_884" data-name="Path 884" d="M0,0H30.5V30.5H0Z" fill="none"/>
    <path id="Path_885" data-name="Path 885" d="M25.24,3l-.2.038L18.25,5.669,10.625,3,3.457,5.415A.641.641,0,0,0,3,6.025V25.24a.629.629,0,0,0,.635.635l.2-.038,6.786-2.631,7.625,2.669,7.167-2.415a.641.641,0,0,0,.458-.61V3.635A.629.629,0,0,0,25.24,3ZM18.25,23.333l-7.625-2.681V5.542L18.25,8.223Z" transform="translate(0.813 0.813)" fill="#fff"/>
  </g>
</svg>
