<svg id="map-16" xmlns="http://www.w3.org/2000/svg" width="16" height="16" viewBox="0 0 16 16">
  <g id="Z_Base_layer_130mm">
    <g id="Group_824" data-name="Group 824">
      <path id="Path_765" data-name="Path 765" d="M15.994,1.048A1.048,1.048,0,0,0,14.949,0H1.045A1.048,1.048,0,0,0,0,1.048v13.9A1.048,1.048,0,0,0,1.045,16h13.91A1.048,1.048,0,0,0,16,14.952V1.048Z" fill="#38598a"/>
      <path id="Path_766" data-name="Path 766" d="M15.994,1.048A1.048,1.048,0,0,0,14.949,0H1.045A1.048,1.048,0,0,0,0,1.048v13.9A1.048,1.048,0,0,0,1.045,16h13.91A1.048,1.048,0,0,0,16,14.952V1.048Z" fill="#38598a"/>
    </g>
  </g>
  <g id="map_white_24dp" transform="translate(0.25 0.25)">
    <path id="Path_884" data-name="Path 884" d="M0,0H15.25V15.25H0Z" fill="none"/>
    <path id="Path_885" data-name="Path 885" d="M14.12,3l-.1.019L10.625,4.334,6.813,3,3.229,4.207A.32.32,0,0,0,3,4.512V14.12a.315.315,0,0,0,.318.318l.1-.019L6.813,13.1l3.813,1.334,3.584-1.207a.32.32,0,0,0,.229-.305V3.318A.315.315,0,0,0,14.12,3ZM10.625,13.167,6.813,11.826V4.271l3.813,1.341Z" transform="translate(-1.094 -1.094)" fill="#fff"/>
  </g>
</svg>
