<svg id="map-64" xmlns="http://www.w3.org/2000/svg" width="64" height="64" viewBox="0 0 64 64">
  <g id="Z_Base_layer_130mm">
    <g id="Group_824" data-name="Group 824">
      <path id="Path_765" data-name="Path 765" d="M63.977,4.191A4.191,4.191,0,0,0,59.8,0H4.181A4.191,4.191,0,0,0,0,4.191V59.809A4.191,4.191,0,0,0,4.181,64H59.819A4.191,4.191,0,0,0,64,59.809V4.191Z" fill="#38598a"/>
      <path id="Path_766" data-name="Path 766" d="M63.977,4.191A4.191,4.191,0,0,0,59.8,0H4.181A4.191,4.191,0,0,0,0,4.191V59.809A4.191,4.191,0,0,0,4.181,64H59.819A4.191,4.191,0,0,0,64,59.809V4.191Z" fill="#38598a"/>
    </g>
  </g>
  <g id="map_white_24dp" transform="translate(1 1)">
    <path id="Path_884" data-name="Path 884" d="M0,0H61V61H0Z" fill="none"/>
    <path id="Path_885" data-name="Path 885" d="M47.479,3l-.407.076L33.5,8.338,18.25,3,3.915,7.829A1.281,1.281,0,0,0,3,9.049v38.43A1.258,1.258,0,0,0,4.271,48.75l.407-.076L18.25,43.412,33.5,48.75l14.335-4.829a1.281,1.281,0,0,0,.915-1.22V4.271A1.258,1.258,0,0,0,47.479,3ZM33.5,43.667,18.25,38.3V8.083L33.5,13.446Z" transform="translate(4.625 4.625)" fill="#fff"/>
  </g>
</svg>
