<svg xmlns="http://www.w3.org/2000/svg" width="64" height="64" viewBox="0 0 64 64">
  <g id="Group_1104" data-name="Group 1104" transform="translate(-1761 -1592)">
    <g id="pets-on-leash-64" transform="translate(1761 1592)">
      <g id="Z_Base_layer_130mm">
        <g id="Group_824" data-name="Group 824">
          <path id="Path_765" data-name="Path 765" d="M63.977,4.191A4.191,4.191,0,0,0,59.8,0H4.181A4.191,4.191,0,0,0,0,4.191V59.809A4.191,4.191,0,0,0,4.181,64H59.819A4.191,4.191,0,0,0,64,59.809V4.191Z" fill="#38598a"/>
          <path id="Path_766" data-name="Path 766" d="M63.977,4.191A4.191,4.191,0,0,0,59.8,0H4.181A4.191,4.191,0,0,0,0,4.191V59.809A4.191,4.191,0,0,0,4.181,64H59.819A4.191,4.191,0,0,0,64,59.809V4.191Z" fill="#38598a"/>
        </g>
      </g>
      <g id="Pets_on_Leash" transform="translate(11.677 7.002)">
        <g id="Group_828" data-name="Group 828">
          <g id="Group_827" data-name="Group 827">
            <g id="Group_826" data-name="Group 826">
              <g id="Group_825" data-name="Group 825" transform="translate(0.166)">
                <path id="Path_767" data-name="Path 767" d="M54.543,37.385A3.043,3.043,0,1,0,51.5,34.343,3.046,3.046,0,0,0,54.543,37.385Z" transform="translate(-51.5 -31.3)" fill="#fff"/>
              </g>
              <path id="Path_768" data-name="Path 768" d="M64.906,72.6l2.752-1.028L54.3,61.678s-3.758-2.148-3.535,1.691S52.2,77.583,52.2,77.583a44.937,44.937,0,0,1,.336,5.759c-.112,2.034-1.32,13.643-1.32,13.643l1.991,2.148L55.733,84.9l8.389,12.957,1.991-1.234L59.38,80.508l-3.2-12.98Z" transform="translate(-50.757 -54.417)" fill="#fff"/>
              <path id="Path_769" data-name="Path 769" d="M121.417,110.5s4.3,13.468,12.573,13.58l-.089,1.477s-8.524.067-13.6-14.5C120.277,110.947,121.417,110.5,121.417,110.5Z" transform="translate(-104.741 -92.366)" fill="#fff"/>
              <path id="Path_770" data-name="Path 770" d="M156.619,142.989l-4.206-1.432-.224-1.432s-3.736-1.745-5.414.224c-1.208,1.432-.559,1.879-.559,1.879l-1.007,4.3,3.244.559-.112,1.208-3.132-.224s-1.991,3.758-3.982,4.855-4.184,4.519-4.072,6.51.224,2.64.224,2.64a2.069,2.069,0,0,1-2.327-1.767c-.559-2.1-.559,2.908,2.975,3.535,3.087.559,3.311.671,4.967-.224l-.112.783a26.265,26.265,0,0,1,6.063-.336c1.544.224-.984-2.55-2.752-1.432,0,0,3.557-4.318-.559-4.318-.112,0,3.311-2.327,3.311-2.327a5.823,5.823,0,0,0,1.879,3.423c.112.112,2.327,3.758,2.327,3.758l2.1-.112a1.757,1.757,0,0,0-1.32-1.879c-1.544-.559-2.1-4.519-2.1-4.519s1.119-7.159-1.208-7.159c-.112,0,2.215-2.327,2.215-2.327l-.895-1.767s2.215,1.32,3.2.112A8.663,8.663,0,0,0,156.619,142.989Z" transform="translate(-115.982 -114.426)" fill="#fff"/>
            </g>
          </g>
        </g>
      </g>
    </g>
    <g id="Path_894" data-name="Path 894" transform="translate(1815.932 1594.744) rotate(45)" fill="#fff">
      <path d="M 11.31896591186523 70.88523101806641 L 1.732507944107056 70.85376739501953 L 1.504941344261169 1.504941701889038 L 11.09139919281006 1.536397695541382 L 11.31896591186523 70.88523101806641 Z" stroke="none"/>
      <path d="M 3.00989818572998 3.009895324707031 L 3.227620124816895 69.35865783691406 L 9.814008712768555 69.38027191162109 L 9.596286773681641 3.031509399414062 L 3.00989818572998 3.009895324707031 M 9.5367431640625e-07 -7.62939453125e-06 L 12.58649444580078 0.04129791259765625 L 12.82390594482422 72.39016723632812 L 0.2374124526977539 72.34886169433594 L 9.5367431640625e-07 -7.62939453125e-06 Z" stroke="none" fill="#38598a"/>
    </g>
  </g>
</svg>
