<svg id="pets-on-leash-16" xmlns="http://www.w3.org/2000/svg" width="16" height="16" viewBox="0 0 16 16">
  <g id="Z_Base_layer_130mm">
    <g id="Group_824" data-name="Group 824">
      <path id="Path_765" data-name="Path 765" d="M15.994,1.048A1.048,1.048,0,0,0,14.949,0H1.045A1.048,1.048,0,0,0,0,1.048v13.9A1.048,1.048,0,0,0,1.045,16h13.91A1.048,1.048,0,0,0,16,14.952V1.048Z" fill="#38598a"/>
      <path id="Path_766" data-name="Path 766" d="M15.994,1.048A1.048,1.048,0,0,0,14.949,0H1.045A1.048,1.048,0,0,0,0,1.048v13.9A1.048,1.048,0,0,0,1.045,16h13.91A1.048,1.048,0,0,0,16,14.952V1.048Z" fill="#38598a"/>
    </g>
  </g>
  <g id="Pets_on_Leash" transform="translate(2.905 1.756)">
    <g id="Group_828" data-name="Group 828">
      <g id="Group_827" data-name="Group 827">
        <g id="Group_826" data-name="Group 826">
          <g id="Group_825" data-name="Group 825" transform="translate(0.042)">
            <path id="Path_767" data-name="Path 767" d="M52.263,32.825a.763.763,0,1,0-.763-.763A.764.764,0,0,0,52.263,32.825Z" transform="translate(-51.5 -31.3)" fill="#fff"/>
          </g>
          <path id="Path_768" data-name="Path 768" d="M54.3,63.954l.69-.257-3.348-2.469s-.942-.536-.886.422.359,3.547.359,3.547a11.163,11.163,0,0,1,.084,1.437c-.028.507-.331,3.4-.331,3.4l.5.536L52,67.022l2.1,3.233.5-.308-1.688-4.02-.8-3.239Z" transform="translate(-50.757 -59.408)" fill="#fff"/>
          <path id="Path_769" data-name="Path 769" d="M120.579,110.5s1.077,3.376,3.152,3.4l-.022.37s-2.137.017-3.41-3.634C120.293,110.612,120.579,110.5,120.579,110.5Z" transform="translate(-116.398 -105.977)" fill="#fff"/>
          <path id="Path_770" data-name="Path 770" d="M140.254,140.308l-1.054-.359-.056-.359s-.937-.437-1.357.056c-.3.359-.14.471-.14.471l-.252,1.077.813.14-.028.3-.785-.056a3.7,3.7,0,0,1-1,1.217,2.286,2.286,0,0,0-1.021,1.632c.028.5.056.662.056.662a.519.519,0,0,1-.583-.443c-.14-.527-.14.729.746.886.774.14.83.168,1.245-.056l-.028.2a6.584,6.584,0,0,1,1.52-.084c.387.056-.247-.639-.69-.359,0,0,.892-1.082-.14-1.082-.028,0,.83-.583.83-.583a1.46,1.46,0,0,0,.471.858c.028.028.583.942.583.942l.527-.028a.44.44,0,0,0-.331-.471c-.387-.14-.527-1.133-.527-1.133s.28-1.795-.3-1.795c-.028,0,.555-.583.555-.583l-.224-.443s.555.331.8.028A2.172,2.172,0,0,0,140.254,140.308Z" transform="translate(-130.067 -133.192)" fill="#fff"/>
        </g>
      </g>
    </g>
  </g>
</svg>
