<svg id="pets-on-leash-48" xmlns="http://www.w3.org/2000/svg" width="48" height="48" viewBox="0 0 48 48">
  <g id="Z_Base_layer_130mm">
    <g id="Group_824" data-name="Group 824">
      <path id="Path_765" data-name="Path 765" d="M47.983,3.143A3.143,3.143,0,0,0,44.847,0H3.136A3.143,3.143,0,0,0,0,3.143V44.856A3.143,3.143,0,0,0,3.136,48H44.864A3.143,3.143,0,0,0,48,44.856V3.143Z" fill="#38598a"/>
      <path id="Path_766" data-name="Path 766" d="M47.983,3.143A3.143,3.143,0,0,0,44.847,0H3.136A3.143,3.143,0,0,0,0,3.143V44.856A3.143,3.143,0,0,0,3.136,48H44.864A3.143,3.143,0,0,0,48,44.856V3.143Z" fill="#38598a"/>
    </g>
  </g>
  <g id="Pets_on_Leash" transform="translate(8.758 5.252)">
    <g id="Group_828" data-name="Group 828">
      <g id="Group_827" data-name="Group 827">
        <g id="Group_826" data-name="Group 826">
          <g id="Group_825" data-name="Group 825" transform="translate(0.125)">
            <path id="Path_767" data-name="Path 767" d="M53.782,35.864A2.282,2.282,0,1,0,51.5,33.582,2.284,2.284,0,0,0,53.782,35.864Z" transform="translate(-51.5 -31.3)" fill="#fff"/>
          </g>
          <path id="Path_768" data-name="Path 768" d="M61.369,69.72l2.064-.771L53.415,61.528S50.6,59.917,50.764,62.8s1.074,10.66,1.074,10.66a33.7,33.7,0,0,1,.252,4.319c-.084,1.525-.99,10.232-.99,10.232l1.493,1.611,1.9-10.678,6.292,9.718,1.493-.925L57.224,75.65l-2.4-9.735Z" transform="translate(-50.757 -56.082)" fill="#fff"/>
          <path id="Path_769" data-name="Path 769" d="M121.138,110.5s3.222,10.1,9.43,10.185l-.067,1.107s-6.393.05-10.2-10.873C120.282,110.836,121.138,110.5,121.138,110.5Z" transform="translate(-108.63 -96.9)" fill="#fff"/>
          <path id="Path_770" data-name="Path 770" d="M151.159,142.094,148,141.02l-.168-1.074s-2.8-1.309-4.061.168c-.906,1.074-.419,1.409-.419,1.409l-.755,3.222,2.433.419-.084.906L142.6,145.9s-1.493,2.819-2.987,3.641-3.138,3.389-3.054,4.883.168,1.98.168,1.98a1.552,1.552,0,0,1-1.745-1.326c-.419-1.577-.419,2.181,2.232,2.651,2.315.419,2.483.5,3.725-.168l-.084.587a19.7,19.7,0,0,1,4.547-.252c1.158.168-.738-1.913-2.064-1.074,0,0,2.668-3.238-.419-3.238-.084,0,2.483-1.745,2.483-1.745a4.367,4.367,0,0,0,1.409,2.567c.084.084,1.745,2.819,1.745,2.819l1.577-.084a1.318,1.318,0,0,0-.99-1.409c-1.158-.419-1.577-3.389-1.577-3.389s.839-5.369-.906-5.369c-.084,0,1.661-1.745,1.661-1.745l-.671-1.326s1.661.99,2.4.084A6.5,6.5,0,0,0,151.159,142.094Z" transform="translate(-120.682 -120.672)" fill="#fff"/>
        </g>
      </g>
    </g>
  </g>
</svg>
