<svg id="yellow_alert-16" data-name="yellow alert-16" xmlns="http://www.w3.org/2000/svg" width="15.999" height="15.999" viewBox="0 0 15.999 15.999">
  <g id="Z_Base_layer_130mm">
    <g id="Group_824" data-name="Group 824">
      <path id="Path_765" data-name="Path 765" d="M15.993,1.048A1.048,1.048,0,0,0,14.948,0H1.045A1.048,1.048,0,0,0,0,1.048v13.9A1.048,1.048,0,0,0,1.045,16H14.954A1.048,1.048,0,0,0,16,14.951V1.048Z" fill="#fcba19"/>
      <path id="Path_766" data-name="Path 766" d="M15.993,1.048A1.048,1.048,0,0,0,14.948,0H1.045A1.048,1.048,0,0,0,0,1.048v13.9A1.048,1.048,0,0,0,1.045,16H14.954A1.048,1.048,0,0,0,16,14.951V1.048Z" fill="#fcba19"/>
    </g>
  </g>
  <g id="warning_black_24dp" transform="translate(1.25 0.75)">
    <path id="Path_886" data-name="Path 886" d="M0,0H13.5V13.5H0Z" fill="none"/>
    <path id="Path_887" data-name="Path 887" d="M1,12.687H13.374L7.187,2ZM7.75,11H6.625V9.874H7.75Zm0-2.25H6.625V6.5H7.75Z" transform="translate(-0.438 -0.875)" fill="#fff"/>
  </g>
</svg>
