<svg id="yellow_alert-48" data-name="yellow alert-48" xmlns="http://www.w3.org/2000/svg" width="48" height="48" viewBox="0 0 48 48">
  <g id="Z_Base_layer_130mm">
    <g id="Group_824" data-name="Group 824">
      <path id="Path_765" data-name="Path 765" d="M47.983,3.143A3.143,3.143,0,0,0,44.847,0H3.136A3.143,3.143,0,0,0,0,3.143V44.857A3.143,3.143,0,0,0,3.136,48H44.864A3.143,3.143,0,0,0,48,44.857V3.143Z" fill="#fcba19"/>
      <path id="Path_766" data-name="Path 766" d="M47.983,3.143A3.143,3.143,0,0,0,44.847,0H3.136A3.143,3.143,0,0,0,0,3.143V44.857A3.143,3.143,0,0,0,3.136,48H44.864A3.143,3.143,0,0,0,48,44.857V3.143Z" fill="#fcba19"/>
    </g>
  </g>
  <g id="warning_black_24dp" transform="translate(3.695 2.217)">
    <path id="Path_886" data-name="Path 886" d="M0,0H40.609V40.609H0Z" fill="none"/>
    <path id="Path_887" data-name="Path 887" d="M1,34.295H38.284L19.642,2Zm20.337-5.1H17.947V25.8h3.389Zm0-6.8H17.947V15.6h3.389Z" transform="translate(0.663 1.326)" fill="#fff"/>
  </g>
</svg>
