<?xml version="1.0" encoding="utf-8"?>
<!-- Generator: Adobe Illustrator 27.1.1, SVG Export Plug-In . SVG Version: 6.00 Build 0)  -->
<svg version="1.1" id="BC_Parks_Logo" xmlns="http://www.w3.org/2000/svg" xmlns:xlink="http://www.w3.org/1999/xlink" x="0px"
	 y="0px" viewBox="64.92 90.53 950.01 289.53" style="enable-background:new 64.92 90.53 950.01 289.53;" xml:space="preserve">
<style type="text/css">
	.st0{fill:#FFFFFF;}
</style>
<g>
	<g>
		<path class="st0" d="M1012,317.6c1.4,3.4,2.5,8.3,2.5,12.5c-0.6,1.1-2.9,1.4-3.7,0.5c-2.6-6.8-7.2-11.3-13.6-11.3
			c-6,0-9.9,3.9-9.9,9.4c0,6.3,6.5,9.7,11.9,12.8c8.2,4.6,15.7,9.9,15.7,20.8c0,11.7-10.8,17.6-22.2,17.6c-7.2,0-12.6-1.5-16.5-4.6
			c-1.2-2.9-2.2-10.5-1.8-15.6c0.8-0.9,2.8-1.1,3.5-0.2c2.6,8.5,7.5,15.9,16.3,15.9c5.5,0,10.3-3.2,10.3-9.9
			c0-7.1-6.2-10.9-11.9-14.2c-8.9-5.1-15.3-10.5-15.3-19c0-11.3,9.3-17.6,21-17.6C1004.9,314.8,1010.6,316.3,1012,317.6"/>
		<path class="st0" d="M907.9,290.7c0-9.1-0.2-10-4.8-12.8l-1.5-0.9c-0.8-0.5-0.8-2.6,0-3.1c3.9-1.2,11.1-3.5,16.6-6.5
			c0.6,0,1.2,0.3,1.5,0.9c-0.2,4.6-0.5,12.3-0.5,19.1v52.9c0,2,0.1,2.3,2.8,2.3c3.4,0,6.3-1.7,10.5-6l6.3-6.8
			c4.3-4.6,5.4-6.3,5.4-7.1s-0.8-1.2-3.4-1.5l-3.7-0.5c-1.4-0.5-1.4-3.4,0-3.9h3.5c6.8,0,15.9-0.3,24.5-1.2c1.1,0.5,1.2,3.1,0.3,3.9
			l-4.9,0.9c-3.1,0.6-5.7,2.2-9.7,5.4c-6,4.8-11.3,10.3-14,12.9c-1.9,1.7-2,2.5-1.1,3.7c2.6,3.5,5.1,6.5,10.3,12.3
			c6,6.8,11.4,12.8,14.5,15.7c2.2,2,5.2,2.9,8,3.4l2.2,0.3c1.1,0.8,0.9,3.4-0.3,3.9c-4.5-0.3-9.7-0.5-14.6-0.5
			c-6.2,0-11.6,0.2-16,0.5c-1.2-0.6-1.4-3.2-0.3-3.9l2.8-0.5c2.3-0.3,3.9-0.6,3.9-1.5c0-0.9-0.6-2-2.6-4.3l-16.5-19.1
			c-1.4-1.5-3.1-2.2-4.8-2.2c-2.8,0-2.9,0.5-2.9,5.2v8.5c0,11.1,0.3,12.6,5.9,13.4l3.7,0.5c1.1,0.8,0.8,3.4-0.3,3.9
			c-5.1-0.3-9.6-0.5-15-0.5c-5.5,0-10.2,0.2-14.8,0.5c-1.1-0.5-1.4-3.1-0.2-3.9l3.4-0.5c5.7-0.8,5.9-2.3,5.9-13.4V290.7z"/>
		<path class="st0" d="M865,333.4c0-6,0-6.8-4.2-9.6l-1.4-0.9c-0.6-0.6-0.6-2.3,0.2-2.8c3.5-1.2,11.7-5.2,15.6-7.6
			c0.8,0.2,1.2,0.5,1.2,1.1v8.9c0,0.8,0.2,1.2,0.5,1.4c5.4-4.5,11.3-9.3,17-9.3c3.9,0,6.9,2.5,6.9,6.2c0,5.1-4.2,7.1-6.6,7.1
			c-1.5,0-2.3-0.5-3.4-1.1c-2.3-1.5-4.6-2.5-6.8-2.5c-2.5,0-4.3,1.4-5.6,3.1c-1.5,2.2-2,6.6-2,11.9v21c0,11.1,0.3,12.9,6.2,13.4
			l5.6,0.5c1.1,0.8,0.8,3.4-0.3,3.9c-7.2-0.3-11.7-0.5-17.1-0.5c-5.5,0-10.2,0.2-14.2,0.5c-1.1-0.5-1.4-3.1-0.3-3.9l2.9-0.5
			c5.7-0.9,5.9-2.3,5.9-13.4V333.4z"/>
		<path class="st0" d="M816,372.9c3.1,0,7.9-2.3,9.4-3.9c1.8-1.8,1.8-4,2-7.2l0.3-9.1c0-1.7-0.6-2-1.5-2c-0.9,0-3.5,0.6-6.3,1.5
			c-9.1,3.1-13.6,5.4-13.6,11.4C806.3,366.3,808.2,372.9,816,372.9 M825.6,345.8c2.3-0.8,2.6-2.2,2.6-4.5l0.1-7.1
			c0.2-5.7-1.7-13.4-11.2-13.4c-4.3,0-9.6,2.2-9.9,6.9c-0.2,2.5-0.3,4.3-1.5,5.2c-2.3,1.8-6.5,2.9-8.8,2.9c-1.4,0-2.2-0.8-2.2-2.2
			c0-8,17.4-19,28.7-19c11.1,0,16.5,6.5,16,18l-0.9,26.8c-0.3,7.1,1.1,13.4,7.1,13.4c1.5,0,2.9-0.5,3.9-0.9c0.8-0.5,1.5-1.1,2-1.1
			c0.6,0,1.1,0.9,1.1,2c0,0.8-5.4,6.8-12.9,6.8c-3.7,0-7.4-1.4-10-4.8c-0.6-0.9-1.5-2.2-2.5-2.2c-1.1,0-2.9,1.4-6,3.1
			c-3.4,1.9-6.8,3.9-11.1,3.9c-4.5,0-8.2-1.2-10.8-3.5c-2.9-2.6-4.8-6.5-4.8-10.8c0-6,2.9-9.6,12.8-13.1L825.6,345.8z"/>
		<path class="st0" d="M749.3,354.6c0,16.2,0.3,18.2,10.2,19.3l4.2,0.5c0.9,0.8,0.6,3.4-0.3,3.9c-8.8-0.3-13.9-0.5-20-0.5
			c-6.5,0-12,0.2-18.8,0.5c-0.9-0.5-1.2-2.9-0.3-3.9l3.2-0.5c8.9-1.2,9.3-3.1,9.3-19.3v-56.9c0-13.1-0.3-15.7-7.2-16.5l-5.5-0.6
			c-1.1-0.9-0.9-3.2,0.3-3.9c8.2-1.1,17.7-1.2,30.5-1.2c12.8,0,22.3,1.7,29.6,6.2c7.1,4.5,12.3,12.5,12.3,23.1
			c0,14.2-8.8,21.3-15.4,24.5c-6.8,3.2-14.9,4.6-21.3,4.6c-1.1-0.5-1.1-2.8-0.2-3.1c16.6-3.1,22.7-12.5,22.7-25.9
			c0-15-8.8-24.7-24.8-24.7c-8.2,0-8.3,0.6-8.3,5.5V354.6z"/>
		<path class="st0" d="M609,286.6c11.3-8.8,25.6-13.1,41.6-13.1c8.3,0,20,1.7,27.3,3.7c1.9,0.5,2.9,0.8,4.3,0.6
			c0.2,3.5,0.9,13.3,2.2,22.7c-0.8,1.1-3.1,1.2-4.2,0.3c-2.3-10.5-9.2-22.5-31.6-22.5c-23.6,0-43.6,14.9-43.6,46.9
			c0,32.4,20.5,50.2,45.8,50.2c19.9,0,28.7-13,32.2-22c1.1-0.8,3.4-0.5,4,0.6c-1.1,8-5.1,18.2-7.4,21.1c-1.8,0.3-3.7,0.9-5.4,1.5
			c-3.4,1.2-14.5,3.5-24.3,3.5c-13.9,0-27.1-2.8-38.4-10.3c-12.3-8.5-21.9-22.5-21.9-42.4C589.6,310.3,597.3,295.7,609,286.6"/>
		<path class="st0" d="M527.7,352.2c0,5.5,0.3,13.4,3.2,16.8c2.9,3.5,7.6,4.3,12.2,4.3c13.7,0,24.2-6.2,24.2-21.6
			c0-12.2-6.2-26.4-30.7-26.4c-8.3,0-8.9,0.9-8.9,4V352.2z M527.7,316.5c0,4.3,0.2,4.6,8,4.3c15.7-0.6,24.2-5.2,24.2-19.7
			c0-15.1-11.2-20.8-23-20.8c-3.4,0-5.7,0.3-7.1,0.9c-1.5,0.5-2.2,1.2-2.2,4V316.5z M515.1,296c0-11.4-0.6-14.3-7.6-15l-4.9-0.5
			c-1.2-0.9-1.1-3.2,0.2-3.9c8.3-0.8,18.8-1.2,33.1-1.2c9.7,0,19,0.8,25.9,4.3c6.6,3.2,11.7,9.4,11.7,19.3
			c0,11.1-6.5,16.8-15.7,21.1c0,1.5,1.2,2,2.9,2.3c8.3,1.5,20.7,9.3,20.7,25.7c0,17.9-13.3,29.9-41,29.9c-4.5,0-12-0.5-18.5-0.5
			c-6.8,0-12,0.3-17.7,0.5c-0.9-0.5-1.2-2.9-0.3-3.9l2.8-0.5c8.2-1.4,8.5-3.1,8.5-19.3V296z"/>
	</g>
	<rect x="452.7" y="90.8" class="st0" width="3" height="287"/>
	<g>
		<path class="st0" d="M383.1,361.2h-7.8c-0.3,0-2.4,0.3-2.4-0.4c0-0.2,0.1-0.6,0.2-0.8l4.7-11.6c0.1-0.3,0.6-1.9,1.2-1.9
			c0.4,0,1,1.7,1.1,1.9l4.6,10.9c0,0.1,0.5,1.1,0.5,1.4C385.1,361.4,383.5,361.2,383.1,361.2 M400.7,376.2l-0.2-0.2
			c-0.3,0-0.6-0.1-0.9-0.1c-2.6-0.6-3.6-3.7-4.6-6l-13.4-31.8c-0.1-0.4-0.4-1.2-0.9-1.2c-0.7,0-0.9,0.9-1.1,1.4L366.7,370
			c-0.5,1.2-1.7,4.1-2.5,5c-0.7,0.7-1.5,0.8-2.4,0.9c0,0-0.7,0.1-1.1,0.1l-1.6,0.2c-0.4,0.4-0.3,1.3,0.1,1.5c0.9,0,2.5-0.1,2.5-0.1
			c1.8,0,3.5-0.2,5.3-0.2c1.5,0,3,0.2,4.4,0.2c0,0,1.6,0.1,2.5,0.1c0.4-0.2,0.5-1.1,0.1-1.5l-1.7-0.2c-0.3,0-0.9-0.1-0.9-0.1
			c-1.5-0.2-3.5-0.4-3.5-2.1c0-1.1,0.5-2.5,0.9-3.5l2-4.7c1-2.3,0.6-2.5,3.3-2.5h9c3.2,0,2.7,0,4.1,3.2l2.1,4.8
			c0.3,0.8,0.9,2.2,0.9,3.1c0,1.6-1.7,1.7-3.4,1.8c0,0-0.5,0-1,0.1l-1.6,0.1c-0.4,0.4-0.3,1.3,0.1,1.5c0.9,0,2.5-0.1,2.5-0.1
			c1.9-0.1,3.8-0.2,5.6-0.2c2.3,0,4.7,0.2,7,0.2c0.8,0,0.1,0,1,0.1C401,377.5,401.1,376.5,400.7,376.2"/>
		<path class="st0" d="M344,346.9c0-6.4-0.1-7.4-4-7.7l-1.6-0.1c-0.4-0.2-0.3-1.3,0.1-1.5c3.3,0.1,5.5,0.2,8.2,0.2
			c2.6,0,4.8-0.1,8.1-0.2c0.4,0.2,0.5,1.3,0.1,1.5l-1.6,0.1c-3.8,0.3-4,1.3-4,7.7v21.5c0,6.4,0.1,7.2,4,7.7l1.6,0.2
			c0.4,0.2,0.3,1.3-0.1,1.5c-3.3-0.1-5.5-0.2-8.1-0.2c-2.7,0-5,0.1-8.2,0.2c-0.4-0.2-0.5-1.1-0.1-1.5l1.6-0.2c3.8-0.4,4-1.3,4-7.7
			V346.9z"/>
		<path class="st0" d="M310.3,367.4c0,2.2,0.1,5.3,1.5,6.6c1.3,1.4,3.5,1.7,5.6,1.7c6.3,0,11.1-2.4,11.1-8.5
			c0-4.8-2.8-10.4-14.1-10.4c-3.8,0-4.1,0.4-4.1,1.6V367.4z M310.3,353.3c0,1.7,0.1,1.8,3.7,1.7c7.2-0.2,11.1-2.1,11.1-7.8
			c0-6-5.2-8.2-10.5-8.2c-1.6,0-2.6,0.1-3.3,0.4c-0.7,0.2-1,0.5-1,1.6V353.3z M304.5,345.2c0-4.5-0.3-5.7-3.5-5.9l-2.3-0.2
			c-0.3-0.2-0.4-1.5,0.1-1.5c3.8-0.3,8.6-0.5,15.2-0.5c4.5,0,8.7,0.3,11.9,1.7c3,1.3,5.4,3.7,5.4,7.6c0,4.4-3,6.6-7.2,8.4
			c0,0.6,0.6,0.8,1.3,0.9c3.8,0.6,9.5,3.6,9.5,10.2c0,7.1-6.1,11.8-18.8,11.8c-2,0-5.5-0.2-8.5-0.2c-3.1,0-5.5,0.1-8.1,0.2
			c-0.4-0.2-0.6-1.2-0.1-1.5l1.3-0.2c3.7-0.5,3.9-1.2,3.9-7.6V345.2z"/>
		<path class="st0" d="M291.9,376c-0.3,0-1-0.1-1-0.1c-0.7-0.1-1.3-0.2-1.8-0.7c-0.8-0.9-0.8-3.5-0.8-4.5v-26.4
			c0-1.2-0.3-3.6,0.6-4.5c0.4-0.5,1.3-0.6,2.1-0.6v0c0.5,0,0.5,0,0.9-0.1l1.7-0.1c0.4-0.2,0.3-1.3-0.1-1.5c-0.9,0-1.7,0-2.5,0v0
			h-7.1c-0.8,0-1.5,0-1.9,0.8l-14.5,30.2l-12.8-29.2c-0.4-1-0.5-1.9-1.8-1.9h-7.4c-0.8,0-1.6,0-2.5-0.1c-0.4,0.2-0.5,1.3-0.1,1.5
			l1.7,0.1c0.3,0,1,0.1,1,0.1c2.8,0.2,3,0.8,2.7,3.7l-2.2,28.3c-0.2,2.9-0.3,4.4-3.3,4.6c0,0-0.6,0.1-1,0.1l-1.7,0.2
			c-0.4,0.4-0.3,1.3,0.1,1.5c0.9,0,2.5-0.1,2.5-0.1c1.5-0.1,3.1-0.2,4.6-0.2c1.7,0,3.3,0.2,5,0.2c0.8,0,1.6,0.1,2.5,0.1
			c0.4-0.2,0.5-1.1,0.1-1.5l-1.7-0.2c-0.4,0-0.9-0.1-0.9-0.1c-4.3-0.3-4.2-3.3-3.9-7.1l2-26.4h0.5l13.9,32.4
			c0.1,0.4,0.3,1.2,1.1,1.2c0.6,0,0.8-0.7,1.1-1.1l15.6-33.3h0.5v29c0,1.2,0.1,3.5-1.1,4.4c-0.6,0.5-2.7,0.7-2.7,0.7
			c-0.3,0-0.6,0.1-0.9,0.1l-1.7,0.2c-0.4,0.4-0.3,1.3,0.1,1.5c0.9,0,2.4-0.1,2.4-0.1c2.3-0.1,4.6-0.2,6.9-0.2c1.7,0,4.9,0.2,4.9,0.2
			c0.8,0,1.7,0.1,2.5,0.1c0.4-0.2,0.5-1.1,0.1-1.5L291.9,376z"/>
		<path class="st0" d="M230.2,352.7c0-3.7-0.1-10.7-1.2-12.5c-0.4-0.7-1.6-1.2-3.2-1.3l-1.6-0.1c-0.4-0.4-0.3-1.2,0.1-1.4
			c2.4,0.1,4.8,0.2,7.3,0.2c2.7,0,4.4-0.1,6.7-0.2c0.5,0.3,0.4,1.1,0.1,1.4l-1.5,0.1c-1.6,0.1-2.8,0.7-3.2,1.4
			c-0.9,2-0.9,8.9-0.9,12.3v6.8c0,5.3-0.9,10.8-4.5,14.4c-2.8,2.8-7.5,4.4-12.2,4.4c-4.4,0-8.8-0.8-12-3.3c-3.4-2.6-5-7.1-5-14.2
			v-14.2c0-6.3-0.1-7.3-3.8-7.6l-1.6-0.1c-0.4-0.2-0.3-1.3,0.1-1.4c3.2,0.1,5.4,0.2,7.9,0.2c2.6,0,4.7-0.1,7.9-0.2
			c0.4,0.2,0.5,1.2,0.1,1.4l-1.5,0.1c-3.7,0.3-3.8,1.3-3.8,7.6v13c0,9.7,3.2,16.1,13,16.1c9.3,0,12.8-6.9,12.8-16V352.7z"/>
		<path class="st0" d="M166.3,346.8c0-6.3-0.1-7.3-4.3-7.6l-1.7-0.1c-0.4-0.2-0.3-1.3,0.1-1.5c3.7,0.1,6,0.2,8.6,0.2
			c2.6,0,4.8-0.1,8.2-0.2c0.4,0.2,0.5,1.3,0.1,1.5l-1.6,0.1c-3.9,0.3-4,1.3-4,7.6v21c0,3.8,0.2,5.4,1.4,6.5c0.7,0.7,2,1.4,7.2,1.4
			c5.6,0,7-0.2,8.1-0.8c1.3-0.7,3.1-2.9,4.4-6c0.4-0.3,1.7-0.1,1.7,0.4c0,0.7-1.9,6.8-2.8,8.4c-3.4-0.1-9.7-0.2-16.5-0.2H169
			c-2.8,0-4.9,0.1-8.6,0.2c-0.4-0.2-0.5-1.1-0.1-1.5l2-0.2c3.8-0.4,4-1.2,4-7.5V346.8z"/>
		<path class="st0" d="M152.4,359.2c0-10-4.6-20.7-16.7-20.7c-6.6,0-15.1,4.3-15.1,17.5c0,8.9,4.6,20.5,17,20.5
			C145.2,376.5,152.4,371,152.4,359.2 M114.2,357.9c0-12.1,9.5-21.3,22.5-21.3c14.6,0,22,10.1,22,20.7c0,12.2-9.8,21.1-22,21.1
			C122.7,378.3,114.2,368.8,114.2,357.9"/>
		<path class="st0" d="M74.3,334.3c5.3-4.2,12.1-6.2,19.7-6.2c3.9,0,9.5,0.8,12.9,1.7c0.9,0.2,1.4,0.4,2,0.3c0.1,1.7,0.4,6.3,1,10.7
			c-0.4,0.5-1.5,0.6-2,0.1c-1.1-5-4.4-10.6-15-10.6c-11.2,0-20.7,7.1-20.7,22.1c0,15.3,9.7,23.7,21.7,23.7c9.4,0,13.6-6.1,15.3-10.4
			c0.5-0.4,1.6-0.2,1.9,0.3c-0.5,3.8-2.4,8.6-3.5,10c-0.9,0.1-1.8,0.4-2.6,0.7c-1.6,0.6-6.9,1.7-11.5,1.7c-6.6,0-12.9-1.3-18.2-4.9
			c-5.8-4-10.4-10.6-10.4-20C65,345.6,68.7,338.6,74.3,334.3"/>
		<path class="st0" d="M329.4,301.4c-3.1,0-3.2,0.1-3.2,1.9v8.5c0,6.3,0.3,7.2,4,7.5l1.9,0.2c0.4,0.2,0.3,1.3-0.1,1.5
			c-3.5-0.1-5.7-0.2-8.2-0.2c-2.8,0-5,0.1-7.5,0.2c-0.4-0.2-0.5-1.1-0.1-1.5l1.1-0.2c3.6-0.6,3.8-1.2,3.8-7.5v-21.7
			c0-6.3-0.5-7.4-3.8-7.6l-1.7-0.1c-0.4-0.2-0.3-1.3,0.1-1.5c3.2,0.1,5.4,0.2,8.2,0.2c2.5,0,4.7-0.1,7.5-0.2
			c0.4,0.2,0.5,1.3,0.1,1.5l-1.2,0.1c-3.8,0.4-3.9,1.3-3.9,7.6v6.9c0,1.9,0.1,1.9,3.2,1.9H348c3.1,0,3.2-0.1,3.2-1.9v-6.9
			c0-6.3-0.1-7.2-4-7.6l-1.2-0.1c-0.4-0.2-0.3-1.3,0.1-1.5c3,0.1,5.2,0.2,7.9,0.2c2.5,0,4.7-0.1,7.7-0.2c0.4,0.2,0.5,1.3,0.1,1.5
			l-1.4,0.1c-3.8,0.4-3.9,1.3-3.9,7.6v21.7c0,6.3,0.1,7.1,3.9,7.5l1.6,0.2c0.4,0.2,0.3,1.3-0.1,1.5c-3.1-0.1-5.3-0.2-7.9-0.2
			c-2.7,0-5,0.1-7.9,0.2c-0.4-0.2-0.5-1.1-0.1-1.5l1.2-0.2c4-0.6,4-1.2,4-7.5v-8.5c0-1.8-0.1-1.9-3.2-1.9H329.4z"/>
		<path class="st0" d="M293.6,321.7c-6,0-9.7-1.6-11.1-2.2c-0.9-1.3-1.8-5.6-1.9-8.4c0.4-0.4,1.4-0.5,1.7-0.2c1.1,3.1,4,9,12.2,9
			c6,0,8.9-3.3,8.9-6.9c0-2.7-0.6-5.6-5.8-8.4l-6.8-3.7c-3.6-2-7.7-5.4-7.7-10.4c0-5.7,5.3-10.4,14.5-10.4c2.2,0,4.8,0.4,6.6,0.8
			c0.9,0.2,1.9,0.4,2.5,0.4c0.6,1.5,1.3,4.8,1.3,7.4c-0.3,0.4-1.4,0.5-1.8,0.2c-0.9-2.9-2.8-6.8-9.7-6.8c-7,0-8.5,3.9-8.5,6.7
			c0,3.5,3.4,6,6,7.4l5.7,3c4.5,2.4,8.9,5.9,8.9,11.6C308.8,317.2,302.9,321.7,293.6,321.7"/>
		<path class="st0" d="M263.6,290.3c0-6.4-0.1-7.4-4.1-7.7l-1.7-0.1c-0.4-0.2-0.3-1.3,0.1-1.5c3.4,0.1,5.6,0.2,8.4,0.2
			c2.7,0,5-0.1,8.3-0.2c0.4,0.2,0.5,1.3,0.1,1.5l-1.7,0.1c-3.9,0.3-4.1,1.3-4.1,7.7v21.5c0,6.4,0.1,7.2,4.1,7.7l1.7,0.2
			c0.4,0.2,0.3,1.3-0.1,1.5c-3.3-0.1-5.6-0.2-8.3-0.2c-2.8,0-5.1,0.1-8.4,0.2c-0.4-0.2-0.5-1.1-0.1-1.5l1.7-0.2
			c3.9-0.4,4.1-1.3,4.1-7.7V290.3z"/>
		<path class="st0" d="M236.7,311.9c0,6.3,0.1,7.2,3.8,7.5l2,0.2c0.4,0.2,0.3,1.3-0.1,1.5c-3.6-0.1-5.7-0.2-8.2-0.2
			c-2.5,0-4.7,0.1-8.7,0.2c-0.4-0.2-0.5-1.2,0-1.5l2.3-0.2c3.6-0.3,3.9-1.2,3.9-7.5v-27c0-1.9,0-1.9-1.9-1.9h-3.4
			c-2.7,0-6.1,0.1-7.7,1.5c-1.5,1.3-2.1,2.7-2.8,4.2c-0.5,0.4-1.4,0.1-1.6-0.4c1-2.7,1.9-6.6,2.4-9c0.2-0.1,1-0.2,1.2,0
			c0.4,1.9,2.4,1.9,5.3,1.9h25.4c3.4,0,3.9-0.1,4.9-1.7c0.3-0.1,1-0.1,1.1,0.2c-0.7,2.5-1.1,7.4-0.9,9.2c-0.3,0.5-1.3,0.5-1.6,0.1
			c-0.2-1.5-0.6-3.7-1.6-4.4c-1.4-1-3.8-1.5-7.3-1.5h-4.5c-1.9,0-1.8,0.1-1.8,2V311.9z"/>
		<path class="st0" d="M199.6,290.3c0-6.4-0.1-7.4-4.1-7.7l-1.7-0.1c-0.4-0.2-0.3-1.3,0.1-1.5c3.3,0.1,5.6,0.2,8.4,0.2
			c2.7,0,5-0.1,8.3-0.2c0.4,0.2,0.5,1.3,0.1,1.5l-1.7,0.1c-3.9,0.3-4.1,1.3-4.1,7.7v21.5c0,6.4,0.1,7.2,4.1,7.7l1.7,0.2
			c0.4,0.2,0.3,1.3-0.1,1.5c-3.3-0.1-5.6-0.2-8.3-0.2c-2.8,0-5.1,0.1-8.4,0.2c-0.4-0.2-0.5-1.1-0.1-1.5l1.7-0.2
			c4-0.4,4.1-1.3,4.1-7.7V290.3z"/>
		<path class="st0" d="M164.9,299.8c-1.2,0-3.6,0.4-3.6-1.2V287c0-4.5,0.1-5.2,5.6-5.2c6.4,0,10.3,3.2,10.3,9.2c0,2.6-0.9,5-3.3,6.6
			C171.2,299.5,168.2,299.8,164.9,299.8 M189.3,319.6l-1.7-0.1c-0.3,0-0.6-0.1-0.9-0.1c-2.4-0.4-3.4-2.6-4.6-4.6l-5.8-10.1
			c-1-1.7-2.1-3.9-4.4-4.3c5.9-0.7,11.3-4.1,11.3-10c0-6.8-6.7-9.8-13.5-9.8c-4.1,0-7.8,0.1-11.9,0.1c-2.3,0-5-0.1-7.3-0.1
			c-1.3,0-1.3,0.3-1.3,1c0,1,0.4,0.8,1.8,0.8c4.8,0.3,4.6,1.2,4.6,5.3V314c0,3.8,0.3,4.9-3.6,5.3c0,0-0.6,0.1-1,0.1l-1.7,0.2
			c-0.4,0.4-0.3,1.3,0.1,1.5c0.9,0,2.5-0.1,2.5-0.1c2.2-0.1,4.4-0.2,6.6-0.2c2.2,0,4.3,0.2,6.5,0.2v0c0.8,0,1.6,0.1,2.5,0.1
			c0.4-0.2,0.5-1.1,0.1-1.5l-1.7-0.2c-0.3,0-0.9-0.1-0.9-0.1c-4-0.3-3.8-1.4-3.8-5.3v-10c0-0.6-0.1-2.1,0.4-2.6
			c0.4-0.4,1-0.3,1.6-0.3c5.4,0,5.4,0.5,7.9,5l7,12.6c0.6,1,1,2.2,2.4,2.2h6.1c0.8,0,1.6,0,2.5,0.1
			C189.6,320.9,189.7,319.9,189.3,319.6"/>
		<path class="st0" d="M117.8,309.1c0,2.5,0.2,6.1,1.6,7.7c1.5,1.6,3.8,2,6.2,2c7,0,12.3-2.8,12.3-9.9c0-5.6-3.1-12.1-15.6-12.1
			c-4.2,0-4.5,0.4-4.5,1.8V309.1z M117.8,292.7c0,2,0.1,2.1,4.1,2c8-0.3,12.3-2.4,12.3-9c0-6.9-5.7-9.5-11.7-9.5
			c-1.7,0-2.9,0.1-3.6,0.4c-0.8,0.2-1.1,0.6-1.1,1.8V292.7z M111.4,283.3c0-5.2-0.4-6.6-3.9-6.9l-2.5-0.2c-0.4-0.3-0.3-1.7,0.1-1.8
			c4.2-0.4,9.6-0.6,16.9-0.6c4.9,0,9.6,0.4,13.2,2c3.4,1.5,6,4.3,6,8.8c0,5.1-3.3,7.7-8,9.7c0,0.7,0.6,0.9,1.5,1.1
			c4.2,0.7,10.5,4.2,10.5,11.8c0,8.2-6.7,13.7-20.8,13.7c-2.3,0-6.1-0.2-9.4-0.2c-3.5,0-6.1,0.1-9,0.2c-0.5-0.2-0.6-1.3-0.2-1.8
			l1.4-0.2c4.2-0.6,4.3-1.4,4.3-8.8V283.3z"/>
	</g>
	<g>
		<polygon class="st0" points="320.8,193.3 332.1,185.4 315.7,191.1 		"/>
		<path class="st0" d="M359.5,190.8L359.5,190.8C345.7,133.3,294,90.6,232.4,90.6c-62.7,0-115.2,44.2-127.8,103.2
			c0.1,0,0.1-0.1,0.2-0.1c-0.1,0-0.1,0.1-0.2,0.1c-1.9,8.9-2.9,18-2.9,27.5c0,8.1,0.7,16.1,2.2,23.8c0,0,19.3-3.9,35.4-3.9
			c42.4,0,101,23.9,143.6,23.9c31.2,0,61.7-8.6,78.3-21.1c1.3-7.4,2-15,2-22.7C363,210.8,361.8,200.6,359.5,190.8z M320.9,195.5
			l-14-5.5c-4.7,2.4-34,22-34,22l-11.2-8.1l-12-2.4l-16.1-11.7l-18.4,12.6c0,0-20.6,11.9-21.3,11.9c-0.7,0-24.8-19.1-24.8-19.1
			L158,183.6c-1.9,1.2-9.4,4.7-9.4,4.7l-0.4,0.1l-7.3-2.3l-8.9-4.7L106.3,193l0.3-0.1l1-0.4l18-10.1l-13.4-4.7l0.7-1.6l15.1,5l0.1,0
			l2-1.1l0.8-0.5l-16.5-7l0.7-1.7l36.8,14.9l1.2-0.5l-36.5-17.8l0.8-1.7l38.6,18l0.5-0.3L119.1,162l0.8-1.6l54.1,29.4
			c0.4-0.8,1.4-2.3,1.8-3.1c-20.6-19.3-40.4-33.8-40.4-33.8s20.4,13.7,45.6,26.4c0.8-1,1.5-1.9,2.4-2.9l-46.1-40.6l1.2-1.3
			l37.2,31.7l-34.5-34.6l1.3-1.3l38.7,37.4l-36.1-40l1.4-1.2l33.3,35.7l-30.4-38.3l1.3-1.2l39,47.4c1-0.9,1.8-1.5,2.9-2.3
			c-11.8-25.5-24.7-46.3-24.7-46.3s13.7,20.2,32.2,41.3c1.1-0.6,2.3-1.2,3.4-1.8l-0.2-0.1l-27.3-54.5l1.6-0.7l22.6,43.4l-19-45
			l1.7-0.8l21.9,49.2l-18.4-50.6l1.7-0.6l17.5,45.6l-13.8-46.9l1.7-0.6l18.2,58.2l0,0.2l0,0c1.2-0.4,2.4-0.8,3.7-1.1
			c-1.4-28-5.5-51.9-5.5-51.9s5.1,23.7,14.3,50.1c1.3-0.2,2.6-0.3,3.9-0.4l0-0.1h0.2l-0.1-0.1l-4.9-60.8l1.8-0.1l4.7,48.7L229,93.3
			l1.9-0.1l1.9,53.8l1.9-53.8l1.9,0.1l-0.8,48.8l4.7-48.7l1.8,0.1l-4.9,60.8l-0.1,0.1h0l0,0h0.1c1.3,0.1,2.5,0.2,3.8,0.4
			c9.2-26.4,14.3-50.1,14.3-50.1s-4.1,23.8-5.5,51.8c1.3,0.3,2.5,0.7,3.7,1.1l18.2-58l1.7,0.6L259.5,147l17.5-45.6l1.7,0.6
			l-18.4,50.6l21.9-49.2l1.7,0.8l-19,45l22.6-43.4l1.6,0.7l-27.2,54.3l0,0c1.1,0.5,2.2,1.1,3.3,1.7c18.4-21.1,32-41.1,32-41.1
			s-12.8,20.6-24.6,46c1.1,0.8,2.1,1.6,3.1,2.5l38.5-46.9l1.3,1.2l-30.4,38.3l33.3-35.7l1.4,1.2l-36.1,40l38.7-37.4l1.3,1.3
			l-34.5,34.6l37.2-31.7l1.2,1.3l-45.6,40.2l0,0c0.8,0.9,1.6,1.8,2.3,2.7c25-12.7,45.2-26.2,45.2-26.2s-19.7,14.4-40.1,33.6
			c0.6,0.9,1.5,2.5,2,3.5l53.3-29l0.8,1.6l-42.6,24.1l44.3-20.6l0.8,1.7l-41.2,20.1l0.8,0.3l42-17l0.7,1.7l-39,16.6l0.7,0.3l26-8.7
			l3.9-2.7l1.3,1l8.6-2.9l0.7,1.6l-7.4,2.6l10.7,8.2l-14.3-8L320.9,195.5z"/>
	</g>
</g>
</svg>
