<svg xmlns="http://www.w3.org/2000/svg" viewBox="0 0 95 80">
  <defs/>
  <defs>
    <clipPath id="a">
      <path d="M0 0h95v80H0z"/>
    </clipPath>
  </defs>
  <g clip-path="url(#a)">
    <path d="M72.88 45.43a1.56 1.56 0 00-1.41-1.54 12.5 12.5 0 010-24.85 1.56 1.56 0 001.4-1.55 1.57 1.57 0 00-1.72-1.56 15.63 15.63 0 000 31.06 1.57 1.57 0 001.72-1.56z"/>
    <path d="M55.22 2.17L36.84 35.54 31 26.2a2.81 2.81 0 00-2.39-1.32 2.81 2.81 0 00-2.38 1.33L3.26 61.15h-.7A1.56 1.56 0 001 62.71a1.56 1.56 0 001.56 1.57h64.06v7.55a6.42 6.42 0 006.06 6.5 6.25 6.25 0 006.44-6.24v-7.81H93.2a1.56 1.56 0 001.56-1.57 1.56 1.56 0 00-1.56-1.56h-.65l-6.8-12.03A21.86 21.86 0 0064.41 11.3l-5.13-9.12A2.33 2.33 0 0057.24 1a2.34 2.34 0 00-2.03 1.17zm36.4 29.3A18.75 18.75 0 1172.88 12.7a18.75 18.75 0 0118.75 18.75zm-20.3 21.79c.51.04 1.03.08 1.56.08s1.04-.04 1.56-.08v1.64H71.3zM57.22 4.93l4.4 7.8a21.98 21.98 0 00-5.81 5.07l-3.5-4.37zM36.05 40.16l-6.67-3.71a1.56 1.56 0 00-2.06.5l-2.21 3.3-2.69-2 6.2-9.98zm-29.11 21l13.83-20.24 3.78 2.83a1.56 1.56 0 002.19-.3l.05-.08 2.32-3.49 10.37 5.77 2.6 4.17a1.56 1.56 0 002.16.5 1.56 1.56 0 00.5-2.16l-6.01-9.62 11.92-22.22 3.34 4.18a21.82 21.82 0 0014.2 32.32v2.08a1.56 1.56 0 00-1.56 1.56v4.7zM76 72.08a3.13 3.13 0 01-6.25 0V58.03H76zm1.56-17.19v-2.08a21.68 21.68 0 005.54-2.03l5.85 10.36h-9.83v-4.69a1.56 1.56 0 00-1.56-1.56z"/>
  </g>
</svg>