<svg xmlns="http://www.w3.org/2000/svg" xmlns:xlink="http://www.w3.org/1999/xlink" width="95" height="80" viewBox="0 0 95 80"><defs><clipPath id="b"><rect width="95" height="80"/></clipPath></defs><g id="a" clip-path="url(#b)"><g transform="translate(-2.125 -12.287)"><path d="M75,57.719h0a1.563,1.563,0,0,0-1.406-1.547,12.5,12.5,0,0,1,0-24.844A1.563,1.563,0,0,0,75,29.781h0a1.566,1.566,0,0,0-1.722-1.562,15.626,15.626,0,0,0,0,31.062A1.566,1.566,0,0,0,75,57.719Z"/><path d="M57.344,14.453,38.97,47.831,33.127,38.48a2.812,2.812,0,0,0-2.388-1.322h0a2.812,2.812,0,0,0-2.389,1.33L5.381,73.438H4.687A1.562,1.562,0,0,0,3.125,75h0a1.563,1.563,0,0,0,1.562,1.563H68.75v7.55a6.424,6.424,0,0,0,6.058,6.509,6.25,6.25,0,0,0,6.442-6.247V76.563H95.313A1.563,1.563,0,0,0,96.875,75h0a1.562,1.562,0,0,0-1.562-1.562h-.651L87.869,61.406A21.858,21.858,0,0,0,66.534,23.594L61.4,14.477a2.335,2.335,0,0,0-2.022-1.19h0A2.34,2.34,0,0,0,57.344,14.453ZM93.75,43.75A18.75,18.75,0,1,1,75,25,18.75,18.75,0,0,1,93.75,43.75ZM73.438,65.545c.518.038,1.034.08,1.562.08s1.044-.042,1.563-.08v1.643H73.438ZM59.356,17.212l4.4,7.813a21.981,21.981,0,0,0-5.813,5.066l-3.5-4.375ZM38.175,52.448,31.5,48.734a1.562,1.562,0,0,0-2.059.5L27.23,52.545l-2.681-2.01,6.189-9.975ZM9.063,73.438,22.894,53.206l3.781,2.835a1.562,1.562,0,0,0,2.188-.31q.027-.036.051-.072l2.325-3.489L41.6,57.934l2.609,4.172a1.564,1.564,0,0,0,2.155.5h0a1.565,1.565,0,0,0,.5-2.158l-6.014-9.623L52.77,28.608l3.342,4.176a21.817,21.817,0,0,0,14.2,32.322v2.082A1.562,1.562,0,0,0,68.75,68.75v4.688ZM78.125,84.375a3.125,3.125,0,0,1-6.25,0V70.313h6.25Zm1.563-17.187V65.106a21.683,21.683,0,0,0,5.535-2.031l5.85,10.363H81.25V68.75A1.562,1.562,0,0,0,79.688,67.188Z"/></g></g></svg>