<svg id="Hiker" xmlns="http://www.w3.org/2000/svg" viewBox="0 0 283.1333 282.437"><defs><style>.cls-1{fill:#234075;}.cls-2{fill:#fff;}</style></defs><title>hiking</title><path class="cls-1" d="M283.7627,19.4424A18.4706,18.4706,0,0,0,265.2822.9815H19.1178A18.48,18.48,0,0,0,.63,19.4424V264.9459a18.4872,18.4872,0,0,0,18.4883,18.4726H265.2822a18.478,18.478,0,0,0,18.4805-18.4726Z" transform="translate(-0.6295 -0.9815)"/><path class="cls-2" d="M160.9522,61.1514c8.25,0,14.9375-7.0585,14.9375-15.7617,0-8.707-6.6875-15.7578-14.9375-15.7578-8.2343,0-14.9228,7.0508-14.9228,15.7578C146.0294,54.0929,152.7179,61.1514,160.9522,61.1514Z" transform="translate(-0.6295 -0.9815)"/><path class="cls-2" d="M108.21,59.3271s10.914-3.9921,13.4922,6.4532L99.4205,113.292l-12.8164-6.18Z" transform="translate(-0.6295 -0.9815)"/><path class="cls-2" d="M172.6866,110.4912S162.14,88.2061,159.796,76.4756,141.03,62.3975,141.03,62.3975l-10.5625,5.2812c-8.8594,8.16-18.7656,38.1211-24.0469,48.68-5.27,10.5547-2.3516,32.2618-2.3516,32.2618L74.1666,243.0376l12.0156,10.5508,38.4258-73.89L141.03,196.12l5.0512,21.0674-19.2075,33.4248,7.1407,3.9649,14.8637-25.7256,6.2149,25.917,14.1718-1.5078-6.914-47.7266,35.18-60.8848,2.1407,1.0337c7.0468,3.5157,10.5624-5.8711,10.5624-5.8711ZM160.4239,192.23l-1.8154-12.5318-19.9224-42.2265L156.28,111.6631l9.375,17.5976L189.8867,140.96Z" transform="translate(-0.6295 -0.9815)"/></svg>