<svg id="Mountain_Biking" data-name="Mountain Biking" xmlns="http://www.w3.org/2000/svg" viewBox="0 0 283.1407 282.4375"><defs><style>.cls-1{fill:#234075;}.cls-2{fill:#fff;}</style></defs><title>mountain-biking</title><path class="cls-1" d="M283.7625,19.4422A18.474,18.474,0,0,0,265.2781.9813H19.1141A18.4806,18.4806,0,0,0,.6219,19.4422V264.946a18.4882,18.4882,0,0,0,18.4922,18.4727h246.164a18.4815,18.4815,0,0,0,18.4844-18.4727Z" transform="translate(-0.6219 -0.9813)"/><polygon class="cls-2" points="12.6 133.547 101.568 23.922 169.064 91.422 202.064 58.422 260.064 116.422 270.58 106.344 270.58 228.906 12.576 258.516 12.6 133.547"/><path class="cls-1" d="M246.7253,196.9968a35.1724,35.1724,0,1,1-38.875-31.0312A35.1763,35.1763,0,0,1,246.7253,196.9968Zm-38.07-23.9062a28.0966,28.0966,0,1,0,31.047,24.789A28.0947,28.0947,0,0,0,208.655,173.0906Z" transform="translate(-0.6219 -0.9813)"/><path class="cls-1" d="M117.9911,211.5281A35.1686,35.1686,0,1,1,79.12,180.4969,35.1765,35.1765,0,0,1,117.9911,211.5281Zm-38.07-23.9063a28.0969,28.0969,0,1,0,31.0546,24.7891A28.0891,28.0891,0,0,0,79.9208,187.6218Z" transform="translate(-0.6219 -0.9813)"/><path class="cls-1" d="M159.8114,128.8874s14.4453-2.1718,14.8672,1.5938c.4218,3.7578-6.7188,10.5-6.7188,10.5l42.5859,61.9844a2.3984,2.3984,0,0,0,3.6563.3125c1.9765-1.8516.1015-4,.1015-4L174.7723,141.13s6.2344-5.9219,5.43-13.0859c-.7969-7.1563-23.0156-3.2188-23.0156-3.2188Z" transform="translate(-0.6219 -0.9813)"/><polygon class="cls-1" points="143.275 150.898 172.822 147.586 177.166 153.984 148.518 157.203 143.275 150.898"/><polygon class="cls-1" points="180.369 158.344 184.697 164.562 149.518 200.062 149.33 190.289 180.369 158.344"/><path class="cls-1" d="M156.0926,129.6687l-8.7734.9844-29.375-25.9063s-3.4531,24.1406-7.3516,28.2031L139.64,152.7156s6.6328,4.1562,6.7188,11.3984.5468,45.2578.5468,45.2578,6.3047-.3437,8.5313.1406a6.443,6.443,0,0,1,4.5234,4.75c.2031,1.7891.1406,1.25.1406,1.25L135.21,218.3015l-3.93-49.5937L88.1785,143.2624s-6.8672-4.6718-2.1523-24.0468c4.7148-19.3907,9.34-33.1407,9.34-33.1407s6.8907-11.2889,17.6876-.7187C123.8426,95.9343,156.0926,129.6687,156.0926,129.6687Z" transform="translate(-0.6219 -0.9813)"/><path class="cls-1" d="M123.0379,64.4813a11.1708,11.1708,0,1,1-12.3437-9.8594A11.1728,11.1728,0,0,1,123.0379,64.4813Z" transform="translate(-0.6219 -0.9813)"/><path class="cls-1" d="M83.7332,148.8562l6.9609-.7656L112.96,161.3874l-2.7422,1.5235,19.211,26.1484L131.6551,218.7c-5.4375-1.9218-6.0859-5.5156-6.0859-5.5156s-34.0743,3.8281-40.07,4.5c-5.41.6094-4.3906-3.7187-4.3906-3.7187l14.93-55.0469a10.495,10.495,0,0,0-2.5391-3.125c-1.4531-1.0469-9.0468-.5625-9.0468-.5625Zm3.4688,62.75,36.8828-4.1406c-.0859-6.1563,3.086-9.1719,3.086-9.1719l-24.3243-32.5625Z" transform="translate(-0.6219 -0.9813)"/></svg>