<svg width="512" height="512" viewBox="0 0 512 512" fill="#036" xmlns="http://www.w3.org/2000/svg">
<g clip-path="url(#clip0_15875_289285)">
<path fill-rule="evenodd" clip-rule="evenodd" d="M512 256C512 397.385 397.385 512 256 512C114.615 512 0 397.385 0 256C0 114.615 114.615 0 256 0C397.385 0 512 114.615 512 256ZM385.098 419.098C349.629 447.212 304.775 464 256 464C141.125 464 48 370.875 48 256C48 207.225 64.7883 162.371 92.9016 126.902L385.098 419.098ZM419.068 385.137L126.863 92.9322C162.339 64.8005 207.207 48 256 48C370.875 48 464 141.125 464 256C464 304.793 447.2 349.661 419.068 385.137Z" fill="#003366"/>
<path fill-rule="evenodd" clip-rule="evenodd" d="M200.376 178.375H148.384C147.077 178.375 145.783 178.428 144.504 178.532L170.222 204.25H363.924C375.833 204.25 385.478 213.899 385.478 225.812V226.136C372.276 220.368 357.673 217.188 342.37 217.188C307.129 217.188 275.822 234.168 256.154 260.312C239.158 237.72 213.511 221.971 184.081 218.108L252.16 286.188H262.836C267.2 286.188 271.296 283.977 273.667 280.312C288.323 257.887 313.649 243.062 342.37 243.062C365.864 243.062 386.987 252.927 401.913 268.776C406.817 273.951 415.007 274.22 420.18 269.315C425.353 264.409 425.623 256.216 420.719 251.041C417.755 247.914 414.63 244.949 411.289 242.2V225.866C411.289 199.668 390.059 178.429 363.87 178.429H343.394L343.448 178.375L306.052 129.805C300.34 122.366 291.503 118 282.127 118H234.901H234.6L234.539 118V118.005C227.556 118.197 221.955 123.917 221.955 130.946C221.955 138.096 227.751 143.892 234.901 143.892C235.124 143.892 235.347 143.886 235.567 143.875H282.127C283.474 143.875 284.713 144.522 285.521 145.546L310.793 178.375H234.539V178.379H200.376V178.375ZM202.209 270.177L224.794 292.762C224.368 293.979 223.757 295.145 222.961 296.214C224.954 299.88 226.625 303.815 227.81 307.912C234.115 308.828 238.911 314.219 238.911 320.741V329.366C238.911 335.889 234.061 341.28 227.81 342.196C226.625 346.293 224.954 350.228 222.961 353.894C226.733 358.961 226.355 366.13 221.721 370.766L215.632 376.858C211.052 381.44 203.831 381.817 198.766 378.044C195.102 380.038 191.168 381.709 187.073 382.895C186.157 389.202 180.769 394 174.248 394H165.627C159.107 394 153.718 389.148 152.802 382.895C148.707 381.709 144.773 380.038 141.109 378.044C136.044 381.871 128.877 381.494 124.243 376.858L118.154 370.766C113.52 366.184 113.143 358.961 116.915 353.894C114.921 350.174 113.25 346.239 112.065 342.142C105.76 341.226 100.965 335.835 100.965 329.312V320.688C100.965 314.165 105.76 308.774 112.011 307.858C113.197 303.707 114.867 299.826 116.861 296.106C113.089 291.039 113.466 283.87 118.1 279.234L124.243 273.196C128.823 268.56 136.044 268.129 141.109 271.956C144.773 269.962 148.707 268.291 152.802 267.105C153.718 260.798 159.107 256 165.627 256H174.248C180.769 256 186.157 260.798 187.073 267.159C191.168 268.345 195.102 270.016 198.766 272.01C199.835 271.214 200.997 270.603 202.209 270.177ZM175.265 243.233L150.891 218.86C142.495 220.352 134.43 222.815 126.83 226.136V225.812C126.83 217.417 131.619 210.146 138.616 206.584L119.908 187.877C108.405 196.533 100.965 210.304 100.965 225.812V242.146C97.6777 244.895 94.4984 247.86 91.5347 250.987C86.6312 256.162 86.8467 264.355 92.0736 269.261C97.3005 274.166 105.437 273.951 110.341 268.722C125.321 252.927 146.444 243.062 169.938 243.062C171.727 243.062 173.503 243.12 175.265 243.233ZM288.058 356.027L311.375 379.343C306.568 381.696 300.642 380.88 296.622 376.858L290.533 370.766C286.564 366.796 285.751 360.843 288.058 356.027ZM355.982 390.009L277.352 311.38C279.268 309.542 281.759 308.29 284.551 307.912C285.737 303.761 287.407 299.88 289.401 296.16C285.575 291.093 285.952 283.923 290.586 279.288L296.676 273.196C301.256 268.56 308.476 268.129 313.542 271.956C317.206 269.962 321.139 268.291 325.235 267.105C326.151 260.798 331.539 256 338.059 256H346.681C353.201 256 358.59 260.798 359.452 267.159C363.601 268.345 367.481 270.016 371.199 272.01C376.264 268.237 383.431 268.614 388.065 273.25L394.154 279.341C398.734 283.923 399.111 291.147 395.339 296.214C397.333 299.88 399.003 303.815 400.189 307.912C406.493 308.828 411.289 314.219 411.289 320.741V329.366C411.289 335.889 406.44 341.28 400.189 342.196C399.003 346.293 397.333 350.228 395.339 353.894C399.165 358.961 398.788 366.13 394.154 370.766L388.065 376.858C383.484 381.44 376.264 381.817 371.199 378.044C367.481 380.038 363.547 381.709 359.452 382.895C359.052 385.644 357.804 388.106 355.982 390.009ZM188.227 306.704C183.376 301.851 176.797 299.125 169.938 299.125C163.078 299.125 156.499 301.851 151.648 306.704C146.798 311.556 144.073 318.138 144.073 325C144.073 331.862 146.798 338.444 151.648 343.296C156.499 348.149 163.078 350.875 169.938 350.875C176.797 350.875 183.376 348.149 188.227 343.296C193.077 338.444 195.803 331.862 195.803 325C195.803 318.138 193.077 311.556 188.227 306.704ZM360.659 306.704C355.809 301.851 349.23 299.125 342.37 299.125C335.51 299.125 328.931 301.851 324.081 306.704C319.23 311.556 316.505 318.138 316.505 325C316.505 331.862 319.23 338.444 324.081 343.296C328.931 348.149 335.51 350.875 342.37 350.875C349.23 350.875 355.809 348.149 360.659 343.296C365.51 338.444 368.235 331.862 368.235 325C368.235 318.138 365.51 311.556 360.659 306.704Z" fill="#003366"/>
</g>
<defs>
<clipPath id="clip0_15875_289285">
<rect width="512" height="512" fill="white"/>
</clipPath>
</defs>
</svg>
