<svg width="512" height="512" viewBox="0 0 512 512" fill="#036" xmlns="http://www.w3.org/2000/svg">
<g clip-path="url(#clip0_15875_289320)">
<path fill-rule="evenodd" clip-rule="evenodd" d="M243.968 84.0618L239.916 92.8213C234.533 102.953 234.497 114.58 234.463 125.838L234.462 126.042C234.417 135.473 234.37 145.223 231.067 153.87C226.632 167.441 222.162 183.206 222.162 198.21C222.162 198.498 222.162 198.775 222.174 199.076C222.243 208.165 224.136 215.685 227.116 222.487C223.883 219.786 220.787 216.643 218.628 213.189C215.994 209.424 214.181 204.989 212.691 198.73L210.844 189.096C208.915 177.558 206.904 165.627 195.909 157.993L189.072 153.246L194.015 159.922C200.792 169.11 198.706 181.426 196.687 193.351L196.683 193.37L195.782 198.845C195.782 198.937 195.089 205.22 195.089 205.22C194.593 209.54 194.338 213.686 194.338 217.683C194.338 221.657 194.591 225.469 195.092 229.12L217.404 251.431C213.4 243.747 211.296 235.329 211.189 226.795C211.247 226.9 211.455 227.373 211.455 227.373C215.476 235.899 222.532 241.092 229.376 246.128L229.427 246.165C236.507 251.363 243.194 256.294 246.66 264.553L249.327 270.939L249.293 264.01C249.27 256.25 247.131 249.24 245.067 242.472L245.02 242.319L241.174 226.646C240.677 223.735 240.423 220.813 240.423 217.81C240.423 212.116 241.312 206.099 243.137 199.423C243.159 199.353 247.053 185.055 247.053 185.055L249.94 175.005C250.701 169.994 251.475 163.179 251.51 156.087C259.329 170.64 264.608 185.123 266.203 199.203C266.399 202.172 266.491 205.071 266.491 207.935C266.491 213.143 266.179 218.191 265.52 223.226L262.402 236.533L262.367 236.657C260.657 242.645 258.914 248.75 258.914 255.059C258.914 258.593 259.456 262.185 260.854 265.869L261.94 268.664C261.94 268.664 265.012 259.759 269.898 254.898C279.184 245.587 292.536 232.063 295.942 217.048C296.126 217.734 296.319 218.42 296.512 219.106L296.512 219.109C297.4 222.264 298.287 225.42 298.287 228.656C298.287 240.436 294.153 252.044 288.771 259.874C285.468 265.384 280.708 270.559 274.148 275.791L270.256 278.91L286.172 276.715L296.313 275.525C304.074 274.277 320.51 269.646 328.56 257.287C328.376 258.062 328.237 258.825 328.097 259.589L328.097 259.59C327.859 260.889 327.621 262.192 327.162 263.559L326.481 265.616C316.982 289.53 289.6 302.448 274.005 308.032L280.373 314.401C303.559 310.949 321.846 300.01 333.687 282.386C342.655 269.147 342.914 253.557 343.189 237.011L343.194 236.717L344.083 216.806C344.568 210.73 345.688 204.921 347.409 199.469C349.534 193.197 352.815 188.149 357.123 184.534L362.632 179.903L349.708 184.188C343.275 187.18 338.632 191.823 335.374 198.441C335.34 198.498 330.408 214.91 330.408 214.91L330.369 215.078L330.369 215.079L330.369 215.079C328.987 221.035 327.682 226.658 325.211 231.612C321.745 239.363 315.508 248.36 307.701 253.718C307.759 253.65 308.001 253.233 308.001 253.233C313.741 246.257 315.798 239.073 315.798 231.82C315.798 222.811 312.644 213.71 309.537 204.781L307.447 198.625C304.917 191.812 303.427 186.094 302.768 180.596C302.607 179.325 302.515 178.055 302.515 176.807C302.515 169.329 305.426 162.517 308.253 155.902L308.253 155.902L308.337 155.705L312.598 145.657L307.908 149.965C298.368 158.744 291.692 170.212 288.575 183.149C288.529 183.334 286.518 198.775 286.518 198.775C285.224 206.873 282.765 215.708 276.552 222.938C277.302 218.33 280.42 199.157 280.42 199.157V187.457C280.425 187.232 280.433 187.009 280.441 186.786L280.441 186.784C280.454 186.459 280.466 186.134 280.466 185.806C280.466 167.561 270.394 153.303 260.637 139.491L260.555 139.374L255.83 132.618C249.247 122.292 245.862 109.795 245.862 96.0391C245.862 92.3778 246.093 88.6356 246.579 84.801L247.688 76L243.968 84.0618ZM310.008 344.036L292.114 326.141L354.106 305.465C355.585 304.98 356.776 305.846 356.776 307.428V347.553C356.776 349.089 355.563 350.775 354.106 351.249L345.491 354.089C343.99 354.552 341.553 354.552 340.085 354.067L310.008 344.036ZM238.017 305.985L247.579 315.548L245.851 315.477C227.371 314.703 209.849 307.98 192.19 294.836C173.008 278.596 162.824 256.018 162.842 230.811L208.624 276.593C200.86 274.86 193.863 271.434 188.725 264.309C185.688 261.215 183.389 257.483 181.414 253.303C182.765 267.128 189.129 278.851 200.761 287.34C207.523 293.308 215.79 296.553 223.774 299.686L223.774 299.687L223.837 299.711C223.837 299.711 234.881 304.586 238.017 305.985ZM167.343 201.37L182.219 216.247C181.985 214.657 181.766 213.046 181.544 211.418L181.544 211.418L181.518 211.226L179.532 198.775C178.273 193.498 176.262 186.764 171.816 181.255L169.056 177.848L169.368 182.213C169.715 187.215 169.263 192.793 168.039 198.775L167.343 201.37ZM275.974 343.943L344.735 412.703L160.692 351.268C159.189 350.771 158 349.096 158 347.549V307.424C158 305.842 159.189 304.987 160.692 305.46L275.974 343.943ZM356.89 390.917L326.922 360.949L354.211 370.059C355.688 370.556 356.89 372.253 356.89 373.813V390.917ZM237.845 388.319C239.335 388.816 239.335 389.624 237.845 390.145L160.703 415.866C159.202 416.352 158 415.485 158 413.926V373.813C158 372.254 159.213 370.579 160.703 370.094L169.318 367.264C170.81 366.778 173.223 366.778 174.7 367.275L237.845 388.319Z" fill="#003366"/>
<path fill-rule="evenodd" clip-rule="evenodd" d="M512 256C512 397.385 397.385 512 256 512C114.615 512 0 397.385 0 256C0 114.615 114.615 0 256 0C397.385 0 512 114.615 512 256ZM385.098 419.098C349.629 447.212 304.775 464 256 464C141.125 464 48 370.875 48 256C48 207.225 64.7883 162.371 92.9016 126.902L385.098 419.098ZM419.068 385.137L126.863 92.9322C162.339 64.8005 207.207 48 256 48C370.875 48 464 141.125 464 256C464 304.793 447.2 349.661 419.068 385.137Z" fill="#003366"/>
</g>
<defs>
<clipPath id="clip0_15875_289320">
<rect width="512" height="512" fill="white"/>
</clipPath>
</defs>
</svg>
