<svg width="512" height="581" viewBox="0 0 512 581" fill="none" xmlns="http://www.w3.org/2000/svg">
<g clip-path="url(#clip0_15608_289366)">
<path d="M32.5707 358.6C20.1707 353.9 6.27068 360.1 1.57068 372.5C-3.12932 384.9 3.07068 398.7 15.4707 403.5L188.371 469L15.5707 534.6C3.17068 539.3 -3.02932 553.2 1.67068 565.6C6.37068 578 20.2707 584.2 32.6707 579.5L256.071 494.7L479.571 579.5C491.971 584.2 505.871 578 510.571 565.6C515.271 553.2 509.071 539.4 496.671 534.6L323.771 469L496.571 403.4C508.971 398.7 515.171 384.8 510.471 372.4C505.771 360 491.871 353.8 479.471 358.5L256.071 443.3L32.5707 358.6Z" fill="#003366"/>
<g clip-path="url(#clip1_15608_289366)">
<path d="M159.758 129.761C135.59 153.817 122 186.449 122 220.475V228.494C122 299.476 179.793 357 251.106 357H261.684C333.137 357 391 299.406 391 228.285C391 182.196 372.016 138.198 338.531 106.403L283.75 54.5262C277.095 48.1811 273.312 39.4652 273.312 30.2613V14.8518C273.312 6.69375 266.587 0 258.391 0C253.698 0 249.285 2.23125 246.412 5.92676L232.752 24.0557C222.665 37.5129 216.5 53.4803 215.099 70.2146L214.469 77.7451C213.838 85.6242 214.189 93.4336 215.59 101.104C217.551 111.772 221.404 121.952 227.078 131.295C227.498 132.062 227.989 132.759 228.479 133.526C229.6 135.27 230.861 137.013 232.122 138.756L254.539 168.529C259.442 175.014 262.104 182.963 262.104 191.121V200.882C262.104 216.292 249.565 228.773 234.083 228.773C218.602 228.773 206.062 216.292 206.062 200.882V139.732V131.365C206.062 123.834 201.789 117.28 195.555 113.933C192.753 112.469 189.6 111.632 186.238 111.632C180.984 111.632 175.94 113.724 172.227 117.42L159.758 129.761ZM251.246 36.6762C252.717 49.5756 258.742 61.6383 268.269 70.633L323.049 122.579C352.121 150.121 368.583 188.331 368.583 228.285C368.583 287.064 320.738 334.688 261.684 334.688H251.106C192.192 334.688 144.417 287.134 144.417 228.494V220.475C144.417 192.376 155.625 165.391 175.59 145.519L183.646 137.571V200.812C183.646 228.564 206.203 251.016 234.083 251.016C261.964 251.016 284.521 228.564 284.521 200.812V191.051C284.521 178.082 280.318 165.461 272.472 155.072L250.055 125.299C240.178 112.19 235.484 95.9437 236.815 79.558L237.446 72.0275C238.497 59.4768 243.05 47.4838 250.686 37.4432L251.246 36.6762Z" fill="#003366"/>
</g>
</g>
<defs>
<clipPath id="clip0_15608_289366">
<rect width="512" height="581" fill="white"/>
</clipPath>
<clipPath id="clip1_15608_289366">
<rect width="269" height="357" fill="white" transform="translate(122)"/>
</clipPath>
</defs>
</svg>
