<svg width="512" height="512" viewBox="0 0 512 512" fill="#036" xmlns="http://www.w3.org/2000/svg">
<g clip-path="url(#clip0_15875_289276)">
<path fill-rule="evenodd" clip-rule="evenodd" d="M512 256C512 397.385 397.385 512 256 512C114.615 512 0 397.385 0 256C0 114.615 114.615 0 256 0C397.385 0 512 114.615 512 256ZM385.098 419.098C349.629 447.212 304.775 464 256 464C141.125 464 48 370.875 48 256C48 207.225 64.7883 162.371 92.9016 126.902L385.098 419.098ZM419.068 385.137L126.863 92.9322C162.339 64.8005 207.207 48 256 48C370.875 48 464 141.125 464 256C464 304.793 447.2 349.661 419.068 385.137Z" fill="#003366"/>
<path fill-rule="evenodd" clip-rule="evenodd" d="M126.303 194.271H81.6547C73.8409 194.271 67.5547 200.545 67.5547 208.342C67.5547 216.14 73.8409 222.413 81.6547 222.413H154.445L126.303 194.271ZM191.754 259.723L167.9 273.597L161.555 270.255V241.175H133.355V278.698C133.355 283.916 136.233 288.665 140.875 291.127L171.19 307.133L168.546 310.299C157.971 322.904 152.213 338.852 152.213 355.326V358.375C152.213 366.173 158.5 372.446 166.313 372.446C174.127 372.446 180.413 366.173 180.413 358.375V355.326C180.413 345.477 183.88 335.861 190.225 328.298L196.687 320.559L220.833 333.282C222.831 334.337 225.122 334.923 227.413 334.923H266.955L238.871 306.84H230.88L197.216 289.075L210.082 281.571C210.828 281.137 211.578 280.714 212.334 280.303L191.754 259.723ZM237.173 271.201L214.502 248.53C227.608 243.686 241.531 241.175 255.613 241.175C276.587 241.175 297.15 246.745 315.303 257.298L343.327 273.597L349.672 270.255V241.175H377.872V278.698C377.872 283.916 374.993 288.723 370.352 291.127L340.037 307.133L342.681 310.299C353.256 322.963 359.013 338.91 359.013 355.326V358.375C359.013 366.173 352.727 372.446 344.913 372.446C337.1 372.446 330.813 366.173 330.813 358.375V355.326C330.813 345.477 327.347 335.861 321.002 328.298L314.54 320.559L296.196 330.224L272.812 306.84H280.288L313.893 289.075L301.027 281.571C287.221 273.538 271.535 269.317 255.555 269.317C249.352 269.317 243.194 269.953 237.173 271.201ZM188.386 222.413L151.438 185.466C155.762 186.746 159.232 190.052 160.732 194.271H222.655C230.468 194.271 236.755 200.545 236.755 208.342C236.755 216.14 230.468 222.413 222.655 222.413H188.386ZM363.655 184.891C357.545 184.891 352.316 188.819 350.377 194.271H288.455C280.641 194.271 274.355 200.545 274.355 208.342C274.355 216.14 280.641 222.413 288.455 222.413H429.455C437.268 222.413 443.555 216.14 443.555 208.342C443.555 200.545 437.268 194.271 429.455 194.271H376.932C374.993 188.819 369.765 184.891 363.655 184.891Z" fill="#003366"/>
</g>
<defs>
<clipPath id="clip0_15875_289276">
<rect width="512" height="512" fill="white"/>
</clipPath>
</defs>
</svg>
