<svg width="512" height="512" viewBox="0 0 512 512" fill="#036" xmlns="http://www.w3.org/2000/svg">
<g clip-path="url(#clip0_15875_289299)">
<path fill-rule="evenodd" clip-rule="evenodd" d="M512 256C512 397.385 397.385 512 256 512C114.615 512 0 397.385 0 256C0 114.615 114.615 0 256 0C397.385 0 512 114.615 512 256ZM385.098 419.098C349.629 447.212 304.775 464 256 464C141.125 464 48 370.875 48 256C48 207.225 64.7883 162.371 92.9016 126.902L385.098 419.098ZM419.068 385.137L126.863 92.9322C162.339 64.8005 207.207 48 256 48C370.875 48 464 141.125 464 256C464 304.793 447.2 349.661 419.068 385.137Z" fill="#003366"/>
<path fill-rule="evenodd" clip-rule="evenodd" d="M109.342 177.311C95.9721 201.002 88.3438 228.367 88.3438 257.518C88.3438 282.232 108.361 302.25 133.076 302.25H209.389H234.281L199.594 267.562H133.076C127.512 267.562 123.031 263.082 123.031 257.518C123.031 238.048 127.358 219.6 135.099 203.067L109.342 177.311ZM122.931 156.959L147.719 181.746C155.746 170.753 165.472 161.075 176.508 153.094C182.361 178.893 205.414 198.188 232.947 198.188C264.889 198.188 290.76 172.316 290.76 140.375C290.76 137.629 290.543 134.955 290.182 132.281C317.57 138.785 341.635 154.105 359.123 175.062C340.406 175.568 325.375 190.889 325.375 209.75C325.375 228.9 340.912 244.438 360.062 244.438C370.613 244.438 380.152 239.668 386.512 232.225C388.102 240.391 388.969 248.846 388.969 257.518C388.969 263.082 384.488 267.562 378.924 267.562H233.535L268.222 302.25H302.684H378.924C403.639 302.25 423.656 282.232 423.656 257.518C423.656 167.258 350.523 94.125 260.264 94.125H251.736C199.406 94.125 152.833 118.708 122.931 156.959ZM274.976 342.945L282.521 383.188H229.479L240.318 325.375H240.246H204.98L192.84 390.486C191.539 397.207 193.346 404.145 197.754 409.492C202.162 414.84 208.666 417.875 215.531 417.875H296.469C303.334 417.875 309.838 414.768 314.246 409.492C318.654 404.217 320.461 397.279 319.16 390.486L318.385 386.354L274.976 342.945ZM310.549 344.576L291.347 325.375H306.947L310.549 344.576ZM196.341 230.368C197.548 227.532 198.188 224.455 198.188 221.312C198.188 215.179 195.751 209.297 191.414 204.961C187.078 200.624 181.196 198.188 175.062 198.188C171.92 198.188 168.843 198.827 166.007 200.034L196.341 230.368ZM151.978 219.947C151.951 220.4 151.938 220.856 151.938 221.312C151.938 227.446 154.374 233.328 158.711 237.664C163.047 242.001 168.929 244.438 175.062 244.438C175.519 244.438 175.975 244.424 176.428 244.397L151.978 219.947Z" fill="#003366"/>
</g>
<defs>
<clipPath id="clip0_15875_289299">
<rect width="512" height="512" fill="white"/>
</clipPath>
</defs>
</svg>
