<svg width="512" height="512" viewBox="0 0 512 512" fill="#036" xmlns="http://www.w3.org/2000/svg">
<g clip-path="url(#clip0_15843_289383)">
<path fill-rule="evenodd" clip-rule="evenodd" d="M512 256C512 397.385 397.385 512 256 512C114.615 512 0 397.385 0 256C0 114.615 114.615 0 256 0C397.385 0 512 114.615 512 256ZM385.098 419.098C349.629 447.212 304.775 464 256 464C141.125 464 48 370.875 48 256C48 207.225 64.7883 162.371 92.9016 126.902L385.098 419.098ZM419.068 385.137L126.863 92.9322C162.339 64.8005 207.207 48 256 48C370.875 48 464 141.125 464 256C464 304.793 447.2 349.661 419.068 385.137Z" fill="#003366"/>
<path fill-rule="evenodd" clip-rule="evenodd" d="M188.216 256.185L161.152 279.416C161.811 279.787 162.47 280.213 163.13 280.639C163.46 280.852 163.789 281.066 164.119 281.272C175.246 288.943 188.908 293.831 200.716 293.831C207.539 293.831 214.675 292.32 221.64 289.608L188.216 256.185ZM236.427 304.396C225.286 309.939 212.97 313.381 200.654 313.381C184.025 313.381 166.406 306.699 152.806 297.234C145.45 291.975 135.435 292.408 128.573 298.285C119.671 305.648 108.482 311.278 97.2929 313.876C86.66 316.351 80.0454 326.992 82.5182 337.633C84.991 348.274 95.6238 354.894 106.257 352.42C121.402 348.893 134.013 342.211 142.235 336.953C160.163 346.604 180.254 352.976 200.654 352.976C220.374 352.976 238.116 346.851 250.356 341.283C253.942 339.613 257.218 338.004 260 336.52C262.782 338.004 265.996 339.675 269.644 341.283C271.639 342.191 273.781 343.114 276.053 344.022L236.427 304.396ZM318.948 352.975L259.546 293.573C263.699 293.477 267.876 294.697 271.436 297.234C285.346 306.823 302.346 313.381 319.346 313.381C335.975 313.381 353.532 306.699 367.194 297.295C374.55 292.099 384.565 292.532 391.427 298.347C400.329 305.709 411.518 311.339 422.707 313.938C433.34 316.413 439.955 327.054 437.482 337.695C435.009 348.336 424.376 354.956 413.743 352.481C398.598 348.955 386.049 342.211 377.765 337.014C359.837 346.604 339.746 352.976 319.346 352.976C319.213 352.976 319.081 352.976 318.948 352.975ZM243.627 277.654L206.481 240.508L246.709 205.979C232.985 198.679 217.283 194.595 200.654 194.595H161.09C160.913 194.595 160.737 194.593 160.561 194.588L141.315 175.343C141.31 175.162 141.308 174.98 141.308 174.798C141.308 163.847 150.148 155 161.09 155H200.654C275.949 155 337.212 215.135 339.19 289.995C332.513 292.47 325.713 293.831 319.47 293.831C306.364 293.831 293.444 288.572 282.873 281.272C271.226 273.097 256.254 271.891 243.627 277.654ZM350.716 222.593C343.296 215.168 339.128 205.097 339.128 194.595C339.128 184.094 343.296 174.023 350.716 166.597C358.136 159.172 368.199 155 378.692 155C389.185 155 399.248 159.172 406.668 166.597C414.088 174.023 418.256 184.094 418.256 194.595C418.256 205.097 414.088 215.168 406.668 222.593C399.248 230.019 389.185 234.191 378.692 234.191C368.199 234.191 358.136 230.019 350.716 222.593Z" fill="#003366"/>
</g>
<defs>
<clipPath id="clip0_15843_289383">
<rect width="512" height="512" fill="white"/>
</clipPath>
</defs>
</svg>
