<svg xmlns="http://www.w3.org/2000/svg" id="BC_Parks_Logo" data-name="BC Parks Logo" viewBox="39.34 38.97 352.34 107.76">
  <defs>
    <style>
      .cls-1 {
        fill: #7b8cac;
      }

      .cls-2 {
        fill: #fff;
      }

      .cls-3 {
        fill: #e3a82b;
      }

      .cls-4 {
        fill: none;
      }
    </style>
  </defs>
  <g id="BC_Parks" data-name="BC Parks">
    <path id="s" class="cls-2" d="M390.59,123.45c.52,1.26,.92,3.1,.92,4.65-.23,.4-1.09,.52-1.38,.17-.97-2.53-2.7-4.19-5.05-4.19s-3.67,1.44-3.67,3.5c0,2.35,2.41,3.62,4.42,4.76,3.04,1.72,5.85,3.67,5.85,7.75,0,4.36-4.02,6.54-8.26,6.54-2.7,0-4.71-.57-6.14-1.72-.46-1.09-.8-3.9-.69-5.79,.29-.35,1.03-.4,1.32-.06,.98,3.16,2.81,5.91,6.08,5.91,2.06,0,3.84-1.21,3.84-3.67,0-2.64-2.29-4.07-4.42-5.28-3.33-1.89-5.68-3.9-5.68-7.06,0-4.19,3.45-6.54,7.8-6.54,2.41,0,4.53,.57,5.05,1.03Z"/>
    <path id="k" class="cls-2" d="M353.42,113.46c0-3.38-.06-3.73-1.78-4.76l-.57-.34c-.29-.17-.29-.98,0-1.15,1.43-.46,4.13-1.32,6.2-2.41,.23,0,.46,.12,.57,.35-.06,1.72-.17,4.59-.17,7.11v19.68c0,.75,.05,.86,1.03,.86,1.26,0,2.35-.63,3.9-2.24l2.35-2.53c1.61-1.72,2.01-2.35,2.01-2.64s-.29-.46-1.26-.57l-1.37-.17c-.52-.17-.52-1.26,0-1.43h1.32c2.52,0,5.91-.12,9.12-.46,.4,.17,.46,1.15,.11,1.43l-1.83,.34c-1.15,.23-2.12,.8-3.62,2.01-2.24,1.78-4.19,3.85-5.22,4.82-.69,.63-.75,.92-.4,1.38,.98,1.32,1.89,2.41,3.85,4.59,2.24,2.52,4.25,4.76,5.39,5.85,.8,.75,1.95,1.09,2.98,1.26l.8,.11c.4,.29,.34,1.26-.12,1.44-1.66-.12-3.62-.17-5.45-.17-2.29,0-4.3,.06-5.97,.17-.46-.23-.52-1.21-.11-1.44l1.03-.17c.86-.12,1.44-.23,1.44-.57s-.23-.75-.98-1.61l-6.14-7.12c-.52-.57-1.15-.8-1.78-.8-1.03,0-1.09,.17-1.09,1.95v3.16c0,4.13,.11,4.7,2.18,4.99l1.37,.17c.4,.29,.29,1.26-.11,1.44-1.89-.12-3.56-.17-5.57-.17s-3.79,.06-5.51,.17c-.4-.17-.52-1.15-.06-1.44l1.26-.17c2.12-.29,2.18-.86,2.18-4.99v-25.93Z"/>
    <path id="r" class="cls-2" d="M336.44,129.36c0-2.24,0-2.53-1.55-3.56l-.52-.35c-.23-.23-.23-.86,.06-1.03,1.32-.46,4.36-1.95,5.79-2.81,.29,.06,.46,.17,.46,.4v3.33c0,.29,.06,.46,.17,.52,2.01-1.66,4.19-3.44,6.31-3.44,1.43,0,2.58,.92,2.58,2.3,0,1.89-1.55,2.64-2.47,2.64-.57,0-.86-.17-1.26-.4-.86-.57-1.72-.92-2.52-.92-.92,0-1.61,.52-2.07,1.15-.57,.8-.75,2.47-.75,4.42v7.8c0,4.13,.12,4.82,2.29,4.99l2.07,.17c.4,.29,.29,1.26-.12,1.44-2.7-.12-4.36-.17-6.37-.17s-3.79,.06-5.28,.17c-.4-.17-.52-1.15-.12-1.44l1.09-.17c2.12-.34,2.18-.86,2.18-4.99v-10.04Z"/>
    <path id="a" class="cls-2" d="M322.38,133.95c.86-.29,.98-.8,.98-1.66l.05-2.64c.06-2.12-.63-4.99-4.19-4.99-1.61,0-3.56,.8-3.67,2.58-.06,.92-.12,1.61-.58,1.95-.86,.69-2.41,1.09-3.27,1.09-.52,0-.8-.29-.8-.8,0-2.98,6.48-7.06,10.67-7.06s6.14,2.41,5.97,6.71l-.35,9.98c-.12,2.64,.4,4.99,2.64,4.99,.57,0,1.09-.17,1.44-.34,.29-.17,.57-.4,.75-.4,.23,0,.4,.35,.4,.75,0,.29-2.01,2.53-4.82,2.53-1.38,0-2.75-.52-3.73-1.78-.23-.34-.57-.8-.92-.8-.4,0-1.09,.52-2.24,1.15-1.26,.69-2.53,1.44-4.13,1.44s-3.04-.46-4.02-1.32c-1.09-.97-1.78-2.41-1.78-4.02,0-2.24,1.09-3.56,4.76-4.88l6.83-2.47Zm-3.56,10.1c1.15,0,2.93-.86,3.5-1.44,.69-.69,.69-1.49,.75-2.7l.11-3.38c0-.63-.23-.75-.57-.75s-1.32,.23-2.35,.57c-3.38,1.15-5.05,2.01-5.05,4.24,0,.98,.69,3.44,3.62,3.44Z"/>
    <path id="P" class="cls-2" d="M292.9,137.22c0,6.03,.11,6.77,3.79,7.17l1.55,.17c.35,.29,.23,1.26-.11,1.44-3.27-.12-5.16-.17-7.46-.17-2.41,0-4.47,.06-7,.17-.35-.17-.46-1.09-.12-1.44l1.2-.17c3.33-.46,3.44-1.15,3.44-7.17v-21.17c0-4.88-.12-5.85-2.7-6.14l-2.06-.23c-.4-.34-.35-1.21,.11-1.43,3.04-.4,6.6-.46,11.36-.46s8.32,.63,11.02,2.29c2.64,1.66,4.59,4.65,4.59,8.61,0,5.28-3.27,7.92-5.74,9.12-2.52,1.2-5.56,1.72-7.92,1.72-.4-.17-.4-1.03-.06-1.15,6.2-1.15,8.43-4.65,8.43-9.64,0-5.57-3.27-9.18-9.24-9.18-3.04,0-3.1,.23-3.1,2.06v25.59Z"/>
    <path id="C" class="cls-2" d="M242.82,111.91c4.19-3.27,9.52-4.88,15.49-4.88,3.1,0,7.46,.63,10.15,1.38,.69,.17,1.09,.29,1.61,.23,.06,1.32,.35,4.94,.8,8.44-.29,.4-1.15,.46-1.55,.11-.86-3.9-3.44-8.37-11.76-8.37-8.78,0-16.23,5.56-16.23,17.44s7.63,18.7,17.04,18.7c7.4,0,10.67-4.82,11.99-8.21,.4-.29,1.26-.17,1.49,.23-.4,2.98-1.89,6.77-2.75,7.86-.69,.12-1.38,.34-2.01,.57-1.26,.46-5.39,1.32-9.06,1.32-5.16,0-10.1-1.03-14.29-3.84-4.59-3.15-8.15-8.37-8.15-15.78,0-6.37,2.87-11.82,7.23-15.2Z"/>
    <path id="B" class="cls-2" d="M207.85,115.41c0-4.25-.23-5.34-2.81-5.57l-1.84-.17c-.46-.34-.4-1.21,.06-1.43,3.1-.29,7-.46,12.34-.46,3.62,0,7.06,.29,9.64,1.61,2.47,1.21,4.36,3.5,4.36,7.17,0,4.13-2.41,6.25-5.85,7.86,0,.57,.46,.74,1.09,.86,3.1,.57,7.69,3.44,7.69,9.58,0,6.65-4.93,11.13-15.26,11.13-1.66,0-4.48-.17-6.88-.17s-4.48,.12-6.6,.17c-.34-.17-.46-1.09-.12-1.44l1.03-.17c3.04-.52,3.16-1.15,3.16-7.17v-21.8Zm4.7,7.63c0,1.61,.06,1.72,2.98,1.61,5.85-.23,9.01-1.95,9.01-7.34s-4.19-7.74-8.55-7.74c-1.26,0-2.12,.11-2.64,.34-.57,.17-.8,.46-.8,1.49v11.65Zm0,13.31c0,2.06,.12,4.99,1.21,6.25,1.09,1.32,2.81,1.61,4.53,1.61,5.11,0,9.01-2.29,9.01-8.03,0-4.53-2.29-9.81-11.42-9.81-3.1,0-3.33,.35-3.33,1.49v8.49Z"/>
  </g>
  <rect id="Vertical_Bar" data-name="Vertical Bar" class="cls-3" x="183.64" y="39.03" width="1.13" height="106.85"/>
  <g id="British_Columbia" data-name="British Columbia">
    <path id="A" class="cls-2" d="M164.29,145.26l-.08-.07c-.12-.01-.23-.03-.34-.05-.97-.22-1.35-1.39-1.71-2.22l-5-11.83c-.05-.14-.15-.45-.35-.45-.27,0-.35,.33-.42,.52l-4.77,11.8c-.17,.45-.62,1.53-.94,1.86-.25,.25-.57,.3-.91,.34,0,0-.27,.03-.4,.04l-.59,.06c-.15,.13-.1,.49,.05,.56,.33-.01,.92-.03,.92-.03,.65,0,1.31-.09,1.96-.09,.55,0,1.1,.06,1.65,.08,0,0,.59,.02,.92,.03,.15-.07,.2-.43,.05-.56l-.62-.07c-.12-.01-.34-.03-.34-.03-.57-.06-1.29-.17-1.29-.8,0-.42,.2-.92,.35-1.3l.74-1.77c.37-.85,.22-.94,1.21-.94h3.36c1.19,0,1.01,0,1.53,1.2l.79,1.79c.12,.31,.35,.83,.35,1.16,0,.59-.65,.63-1.25,.68,0,0-.2,.02-.37,.03l-.6,.04c-.15,.14-.1,.49,.05,.56,.33-.01,.92-.03,.92-.03,.7-.03,1.41-.08,2.09-.08,.87,0,1.73,.06,2.6,.08h0c.28,0,.04,.02,.37,.03,.15-.06,.2-.43,.05-.56Zm-6.54-5.56h-2.92c-.1,0-.91,.09-.91-.14,0-.07,.05-.21,.08-.29l1.75-4.33c.05-.12,.23-.71,.43-.71,.15,0,.35,.62,.4,.71l1.72,4.05s.18,.43,.18,.52c0,.26-.58,.19-.73,.19Z"/>
    <path id="I" class="cls-2" d="M143.17,134.36c0-2.38-.05-2.76-1.48-2.87l-.61-.04c-.15-.09-.1-.5,.05-.56,1.21,.05,2.04,.07,3.06,.07s1.79-.02,3.01-.07c.14,.07,.19,.47,.05,.56l-.61,.04c-1.43,.11-1.48,.49-1.48,2.87v8c0,2.38,.05,2.69,1.48,2.85l.61,.07c.15,.09,.1,.49-.05,.56-1.21-.04-2.04-.07-3.01-.07-1.02,0-1.84,.02-3.06,.07-.15-.07-.19-.43-.05-.56l.61-.07c1.43-.16,1.48-.47,1.48-2.85v-8Z"/>
    <path id="B-2" data-name="B" class="cls-2" d="M128.47,133.73c0-1.68-.1-2.11-1.29-2.2l-.84-.08c-.1-.09-.15-.54,.03-.55,1.42-.1,3.21-.18,5.66-.18,1.66,0,3.23,.11,4.42,.63,1.13,.48,2,1.38,2,2.84,0,1.63-1.1,2.47-2.68,3.11,0,.23,.21,.29,.5,.34,1.42,.22,3.52,1.36,3.52,3.79,0,2.63-2.26,4.4-7,4.4-.76,0-2.05-.07-3.16-.07s-2.05,.04-3.02,.07c-.16-.07-.21-.43-.05-.57l.47-.07c1.39-.2,1.45-.45,1.45-2.83v-8.62Zm2.16,3.02c0,.64,.03,.68,1.37,.64,2.68-.09,4.13-.77,4.13-2.9s-1.92-3.06-3.92-3.06c-.58,0-.97,.04-1.21,.13-.26,.07-.37,.18-.37,.59v4.6Zm0,5.26c0,.81,.05,1.97,.55,2.47,.5,.52,1.29,.64,2.08,.64,2.34,0,4.13-.91,4.13-3.18,0-1.79-1.05-3.88-5.23-3.88-1.42,0-1.53,.14-1.53,.59v3.36Z"/>
    <path id="M" class="cls-2" d="M123.8,145.2c-.13-.01-.36-.03-.36-.03-.26-.03-.48-.06-.67-.26-.32-.33-.29-1.29-.29-1.67v-9.84c0-.43-.1-1.36,.21-1.69,.16-.18,.48-.21,.78-.22h0c.18-.02,.18-.02,.34-.02l.62-.04c.15-.09,.1-.49-.05-.56-.33,.01-.64,0-.92,.02h0s-2.65,0-2.65,0c-.29,0-.55,0-.71,.31l-5.4,11.24-4.77-10.86c-.16-.38-.18-.69-.68-.69h-2.76c-.29,0-.6,0-.94-.02-.15,.07-.2,.47-.05,.56l.62,.04c.13,.01,.36,.03,.36,.03,1.03,.07,1.1,.3,1,1.39l-.81,10.55c-.07,1.06-.13,1.62-1.24,1.72,0,0-.23,.03-.36,.04l-.62,.07c-.15,.13-.1,.49,.05,.56,.33-.01,.91-.03,.91-.03,.56-.03,1.14-.08,1.71-.08,.62,0,1.24,.06,1.86,.08h0c.29,0,.59,.02,.92,.03,.15-.07,.2-.43,.05-.56l-.62-.07c-.16-.01-.35-.03-.35-.03-1.6-.11-1.57-1.24-1.47-2.62l.76-9.81h.18l5.16,12.08c.05,.16,.13,.45,.39,.45,.24,0,.31-.26,.39-.43l5.82-12.39h.18v10.79c0,.43,.05,1.31-.39,1.64-.23,.17-.99,.28-.99,.28-.1,.01-.21,.03-.34,.04l-.62,.07c-.15,.13-.1,.49,.05,.56,.33-.01,.91-.03,.91-.03,.85-.02,1.7-.09,2.56-.09,.62,0,1.83,.06,1.83,.06,.29,0,.62,.04,.95,.05,.15-.07,.2-.43,.05-.56l-.62-.07Z"/>
    <path id="U" class="cls-2" d="M100.81,136.53c0-1.39-.05-3.98-.45-4.65-.17-.27-.59-.43-1.19-.47l-.59-.04c-.14-.16-.1-.45,.05-.54,.9,.04,1.79,.07,2.71,.07,1,0,1.64-.02,2.5-.07,.19,.11,.17,.41,.05,.54l-.57,.04c-.59,.04-1.05,.25-1.19,.54-.33,.74-.33,3.32-.33,4.58v2.54c0,1.96-.33,4.02-1.67,5.37-1.02,1.06-2.79,1.64-4.55,1.64-1.64,0-3.28-.29-4.45-1.24-1.26-.99-1.86-2.63-1.86-5.3v-5.3c0-2.34-.05-2.72-1.43-2.83l-.6-.04c-.14-.09-.09-.47,.05-.54,1.19,.04,2,.07,2.95,.07s1.76-.02,2.93-.07c.14,.07,.19,.45,.05,.54l-.57,.04c-1.38,.11-1.43,.49-1.43,2.83v4.85c0,3.61,1.19,5.99,4.83,5.99,3.45,0,4.76-2.56,4.76-5.97v-2.58Z"/>
    <path id="L" class="cls-2" d="M77.01,134.32c0-2.36-.05-2.72-1.61-2.83l-.62-.04c-.15-.09-.1-.5,.05-.56,1.38,.05,2.22,.07,3.21,.07s1.8-.02,3.04-.07c.15,.07,.2,.47,.05,.56l-.59,.04c-1.46,.11-1.51,.47-1.51,2.83v7.81c0,1.41,.07,2,.52,2.43,.27,.25,.74,.52,2.69,.52,2.1,0,2.62-.09,3.01-.29,.49-.27,1.14-1.08,1.63-2.22,.15-.11,.62-.02,.62,.14,0,.25-.69,2.54-1.04,3.14-1.26-.04-3.61-.07-6.15-.07h-2.27c-1.04,0-1.83,.02-3.21,.07-.15-.07-.2-.43-.05-.56l.74-.07c1.43-.13,1.48-.45,1.48-2.81v-8.08Z"/>
    <path id="O" class="cls-2" d="M57.64,138.46c0-4.49,3.54-7.93,8.39-7.93,5.45,0,8.18,3.75,8.18,7.7,0,4.53-3.63,7.84-8.18,7.84-5.23,0-8.39-3.57-8.39-7.61Zm14.22,.47c0-3.7-1.72-7.7-6.22-7.7-2.45,0-5.63,1.59-5.63,6.51,0,3.32,1.7,7.63,6.34,7.63,2.83,0,5.52-2.02,5.52-6.44Z"/>
    <path id="C-2" data-name="C" class="cls-2" d="M42.77,129.69c1.98-1.55,4.52-2.3,7.34-2.3,1.47,0,3.54,.3,4.81,.65,.33,.08,.52,.14,.76,.11,.03,.62,.16,2.33,.38,3.99-.14,.19-.54,.22-.73,.05-.41-1.84-1.63-3.96-5.58-3.96-4.16,0-7.7,2.63-7.7,8.24s3.62,8.83,8.08,8.83c3.51,0,5.06-2.28,5.69-3.88,.19-.13,.6-.08,.71,.11-.19,1.41-.9,3.2-1.31,3.71-.33,.05-.65,.16-.95,.27-.6,.22-2.56,.62-4.3,.62-2.45,0-4.79-.49-6.77-1.82-2.17-1.49-3.86-3.96-3.86-7.45,0-3.01,1.36-5.58,3.43-7.18Z"/>
    <path id="H" class="cls-2" d="M137.75,117.44c-1.16,0-1.21,.05-1.21,.72v3.16c0,2.36,.12,2.67,1.47,2.81l.7,.07c.15,.09,.1,.49-.05,.56-1.3-.05-2.13-.07-3.07-.07-1.04,0-1.86,.04-2.8,.07-.14-.07-.19-.43-.05-.56l.41-.07c1.35-.22,1.4-.45,1.4-2.81v-8.08c0-2.36-.17-2.74-1.42-2.83l-.63-.05c-.15-.09-.1-.49,.05-.56,1.18,.02,2,.07,3.04,.07,.94,0,1.76-.02,2.8-.07,.15,.07,.19,.47,.05,.56l-.46,.05c-1.4,.14-1.45,.47-1.45,2.83v2.58c0,.69,.05,.72,1.21,.72h6.91c1.16,0,1.21-.02,1.21-.72v-2.58c0-2.36-.05-2.69-1.47-2.83l-.46-.05c-.15-.09-.1-.49,.05-.56,1.11,.04,1.93,.07,2.92,.07s1.76-.02,2.85-.07c.15,.07,.19,.47,.05,.56l-.51,.05c-1.4,.14-1.45,.47-1.45,2.83v8.08c0,2.36,.05,2.65,1.45,2.81l.58,.07c.14,.09,.1,.49-.05,.56-1.16-.05-1.98-.07-2.92-.07-.99,0-1.86,.02-2.92,.07-.15-.07-.19-.43-.05-.56l.46-.07c1.47-.22,1.47-.45,1.47-2.81v-3.16c0-.67-.05-.72-1.21-.72h-6.91Z"/>
    <path id="S" class="cls-2" d="M124.42,124.99c-2.22,0-3.63-.58-4.13-.83-.32-.5-.66-2.09-.71-3.14,.13-.16,.53-.2,.64-.07,.4,1.15,1.48,3.35,4.56,3.35,2.23,0,3.31-1.24,3.31-2.58,0-.99-.24-2.09-2.17-3.14l-2.52-1.39c-1.33-.74-2.86-2.02-2.86-3.86,0-2.13,1.96-3.86,5.4-3.86,.82,0,1.78,.14,2.46,.29,.34,.09,.72,.13,.93,.13,.24,.54,.48,1.8,.48,2.74-.11,.13-.53,.2-.66,.07-.34-1.08-1.06-2.54-3.6-2.54s-3.15,1.46-3.15,2.49c0,1.3,1.27,2.25,2.25,2.76l2.12,1.12c1.67,.88,3.31,2.18,3.31,4.31,0,2.47-2.2,4.15-5.64,4.15Z"/>
    <path id="I-2" data-name="I" class="cls-2" d="M113.25,113.29c0-2.38-.05-2.76-1.52-2.87l-.62-.05c-.15-.09-.1-.49,.05-.56,1.25,.04,2.09,.07,3.14,.07s1.84-.02,3.09-.07c.15,.07,.2,.47,.05,.56l-.62,.05c-1.47,.11-1.52,.49-1.52,2.87v7.99c0,2.38,.05,2.69,1.52,2.85l.62,.07c.15,.09,.1,.49-.05,.56-1.25-.05-2.09-.07-3.09-.07-1.05,0-1.89,.02-3.14,.07-.15-.07-.2-.43-.05-.56l.62-.07c1.47-.16,1.52-.47,1.52-2.85v-7.99Z"/>
    <path id="T" class="cls-2" d="M103.24,121.32c0,2.36,.05,2.7,1.4,2.81l.75,.07c.14,.09,.09,.49-.05,.56-1.33-.05-2.12-.07-3.06-.07s-1.75,.02-3.25,.07c-.14-.07-.19-.45,0-.56l.84-.07c1.33-.11,1.45-.45,1.45-2.81v-10.04c0-.7,0-.72-.7-.72h-1.28c-1,0-2.29,.04-2.87,.56-.56,.49-.79,.99-1.05,1.55-.19,.14-.51,.02-.61-.16,.37-1.01,.72-2.45,.89-3.35,.07-.04,.38-.07,.44,0,.14,.72,.91,.7,1.98,.7h9.46c1.26,0,1.47-.05,1.82-.63,.12-.05,.37-.02,.42,.06-.26,.92-.42,2.74-.35,3.41-.09,.18-.49,.18-.61,.04-.07-.56-.23-1.39-.58-1.64-.54-.38-1.42-.56-2.71-.56h-1.66c-.7,0-.68,.02-.68,.76v9.99Z"/>
    <path id="I-3" data-name="I" class="cls-2" d="M89.42,113.29c0-2.38-.05-2.76-1.52-2.87l-.62-.05c-.15-.09-.1-.49,.05-.56,1.25,.04,2.09,.07,3.14,.07s1.84-.02,3.09-.07c.15,.07,.2,.47,.05,.56l-.62,.05c-1.47,.11-1.52,.49-1.52,2.87v7.99c0,2.38,.05,2.69,1.52,2.85l.62,.07c.15,.09,.1,.49-.05,.56-1.25-.05-2.09-.07-3.09-.07-1.05,0-1.89,.02-3.14,.07-.15-.07-.2-.43-.05-.56l.62-.07c1.47-.16,1.52-.47,1.52-2.85v-7.99Z"/>
    <path id="R" class="cls-2" d="M85.61,124.2l-.62-.05c-.13-.01-.24-.03-.35-.05-.91-.16-1.28-.97-1.71-1.73l-2.16-3.75c-.37-.62-.77-1.47-1.62-1.59,2.21-.26,4.2-1.54,4.2-3.73,0-2.53-2.5-3.66-5.03-3.66-1.52,0-2.9,.04-4.44,.04-.85,0-1.86-.04-2.72-.04-.47,0-.48,.09-.48,.36,0,.39,.16,.28,.67,.31,1.8,.1,1.73,.44,1.73,1.98v9.84c0,1.41,.12,1.83-1.36,1.96,0,0-.23,.02-.36,.04l-.63,.06c-.15,.14-.1,.49,.05,.56,.33-.01,.92-.04,.92-.04,.82-.02,1.64-.09,2.45-.09s1.61,.06,2.42,.09h0c.29,0,.59,.02,.92,.03,.15-.07,.2-.43,.05-.56l-.63-.06c-.13-.01-.35-.03-.35-.03-1.49-.1-1.4-.52-1.4-1.96v-3.7c0-.22-.03-.79,.13-.96,.13-.15,.37-.12,.58-.12,2.02,0,2,.19,2.95,1.88l2.61,4.69c.21,.36,.37,.82,.91,.82h2.26c.29,0,.59,.02,.92,.03,.15-.07,.2-.43,.05-.56Zm-9.08-7.38c-.45,0-1.36,.17-1.36-.43v-4.31c0-1.68,.05-1.93,2.08-1.93,2.37,0,3.83,1.2,3.83,3.42,0,.96-.35,1.85-1.22,2.45-1.01,.7-2.1,.79-3.33,.79Z"/>
    <path id="B-3" data-name="B" class="cls-2" d="M56.59,110.7c0-1.94-.14-2.46-1.45-2.57l-.91-.06c-.15-.12-.11-.64,.03-.66,1.57-.14,3.56-.21,6.27-.21,1.84,0,3.59,.13,4.9,.74,1.25,.55,2.22,1.6,2.22,3.29,0,1.89-1.22,2.87-2.98,3.6,0,.26,.23,.34,.55,.4,1.58,.26,3.91,1.57,3.91,4.39,0,3.05-2.51,5.1-7.76,5.1-.85,0-2.27-.08-3.5-.08s-2.28,.05-3.36,.08c-.17-.08-.23-.5-.06-.66l.53-.08c1.55-.24,1.6-.53,1.6-3.29v-9.99Zm2.39,3.5c0,.74,.03,.79,1.52,.74,2.97-.1,4.58-.89,4.58-3.36s-2.13-3.55-4.35-3.55c-.64,0-1.08,.05-1.34,.16-.29,.08-.41,.21-.41,.68v5.33Zm0,6.1c0,.95,.06,2.29,.61,2.86,.56,.6,1.43,.74,2.31,.74,2.6,0,4.58-1.05,4.58-3.68,0-2.08-1.17-4.49-5.81-4.49-1.58,0-1.69,.16-1.69,.68v3.89Z"/>
  </g>
  <path id="Sun_White" data-name="Sun White" class="cls-2" d="M66.91,94.08c15.78,0,37.61,8.88,53.45,8.88,11.3,0,22.33-3.02,28.61-7.46,.44-2.61,.67-5.29,.67-8.02,0-26.52-21.5-48.03-48.03-48.03s-48.03,21.5-48.03,48.03c0,2.7,.23,5.35,.65,7.93,1.73-.32,7.62-1.34,12.66-1.34Z"/>
  <g id="Sunrays">
    <polygon class="cls-3" points="132.65 76.39 134.55 77.17 138.76 74.24 132.65 76.39"/>
    <path class="cls-3" d="M61.89,73.11l-4.99-1.76,.25-.61,5.62,1.87h.02s.74-.43,.74-.43l.3-.19-6.13-2.61,.26-.64,13.68,5.54,.45-.19-13.57-6.61,.3-.62,14.38,6.69,.2-.1-13.94-7.91,.29-.59,20.13,10.96c.17-.31,.51-.86,.69-1.16-7.65-7.2-15.04-12.6-15.04-12.6,0,0,7.6,5.09,16.97,9.82,.31-.39,.56-.7,.89-1.06l-17.18-15.12,.46-.47,13.86,11.81-12.84-12.86,.48-.5,14.42,13.93-13.42-14.9,.51-.46,12.41,13.28-11.32-14.27,.49-.44,14.51,17.66c.38-.32,.69-.57,1.08-.87-4.39-9.5-9.19-17.23-9.19-17.23,0,0,5.1,7.51,11.99,15.38,.42-.24,.85-.46,1.28-.68l-.07-.05-10.17-20.3,.61-.27,8.43,16.15-7.09-16.74,.63-.28,8.15,18.32-6.86-18.84,.65-.24,6.53,16.97-5.15-17.47,.62-.23,6.79,21.67v.06s0,0,0,0c.45-.15,.91-.28,1.37-.41-.52-10.41-2.06-19.31-2.06-19.31,0,0,1.91,8.82,5.32,18.66,.48-.06,.95-.11,1.44-.14v-.02s.04,0,.04,0l-.03-.05-1.83-22.63,.66-.02,1.76,18.13-.3-18.17,.69-.02,.69,20.04,.69-20.04,.69,.02-.3,18.17,1.77-18.13,.66,.02-1.83,22.63-.03,.05h0s.03,0,.03,0c.47,.03,.94,.08,1.41,.13,3.41-9.83,5.32-18.64,5.32-18.64,0,0-1.53,8.88-2.05,19.27,.47,.12,.93,.26,1.38,.41l6.76-21.59,.62,.23-5.16,17.47,6.53-16.96,.65,.24-6.86,18.84,8.15-18.32,.63,.28-7.09,16.74,8.43-16.15,.6,.27-10.13,20.23h.02c.42,.21,.83,.43,1.23,.65,6.86-7.84,11.93-15.31,11.93-15.31,0,0-4.76,7.68-9.14,17.13,.39,.3,.77,.6,1.15,.92l14.34-17.47,.49,.44-11.32,14.27,12.41-13.28,.51,.46-13.42,14.9,14.42-13.94,.48,.5-12.84,12.86,13.86-11.81,.46,.47-16.97,14.95h0c.3,.34,.58,.68,.86,1.03,9.31-4.71,16.84-9.75,16.84-9.75,0,0-7.31,5.35-14.93,12.5,.21,.35,.55,.94,.74,1.3l19.85-10.81,.29,.59-15.84,8.99,16.48-7.67,.3,.62-15.35,7.48,.29,.1,15.62-6.32,.26,.64-14.52,6.17,.27,.11,9.67-3.23,1.46-1.02,.48,.37,3.18-1.06,.25,.61-2.75,.97,3.98,3.04,1.27,.71c-5.12-21.39-24.35-37.29-47.31-37.29s-42.87,16.46-47.56,38.42c.06-.03,.12-.06,.18-.09l.58-.26,.36-.17,6.71-3.76Z"/>
  </g>
  <path id="Mountains" class="cls-1" d="M53.78,96.46s7.18-1.43,13.17-1.43c15.78,0,37.61,8.89,53.45,8.89,11.62,0,22.95-3.19,29.13-7.84,.48-2.75,.74-5.58,.74-8.46,0-3.91-.46-7.71-1.34-11.36l-6.6-3.68-7.75,5.43-5.21-2.03c-1.77,.89-12.65,8.17-12.65,8.17l-4.18-3.02-4.48-.89-5.98-4.35-6.86,4.71s-7.65,4.44-7.91,4.44-9.23-7.11-9.23-7.11l-4.13-4.35c-.7,.44-3.51,1.73-3.51,1.73l-.14,.04-2.72-.84-3.3-1.75-10.03,4.55c-.06,.03-.12,.06-.18,.09-.71,3.3-1.08,6.72-1.08,10.23,0,3.02,.28,5.98,.81,8.85Z"/>
  <rect id="Protective_Space" data-name="Protective Space" class="cls-4" width="423.69" height="184.64"/>
</svg>