<svg id="BC_Parks_Logo" data-name="BC Parks Logo" xmlns="http://www.w3.org/2000/svg" viewBox="0 0 352.3413 107.771"><defs><style>.cls-1{fill:#fff;}.cls-2{fill:#e3a82b;}.cls-3{fill:#65799e;}</style></defs><title>BCID_BCParks_RGB_rev</title><g id="BC_Parks" data-name="BC Parks"><path id="s" class="cls-1" d="M355.0788,88.1925a13.3781,13.3781,0,0,1,.92,4.6485,1.0028,1.0028,0,0,1-1.3789.1719c-.9746-2.5254-2.6954-4.1895-5.0468-4.1895a3.3925,3.3925,0,0,0-3.6739,3.5c0,2.3535,2.4121,3.6152,4.42,4.7617,3.041,1.7227,5.8515,3.6719,5.8515,7.7461,0,4.3613-4.0175,6.541-8.2617,6.541a9.5456,9.5456,0,0,1-6.1386-1.7207,17.056,17.056,0,0,1-.6875-5.7949.9717.9717,0,0,1,1.3183-.0586c.9766,3.1563,2.8106,5.91,6.082,5.91a3.5347,3.5347,0,0,0,3.8438-3.6719c0-2.6387-2.2948-4.0742-4.418-5.2793-3.3281-1.8926-5.6816-3.9-5.6816-7.0566,0-4.1875,3.4453-6.5411,7.8048-6.5411C352.44,87.1593,354.5652,87.7336,355.0788,88.1925Z" transform="translate(-3.8294 -3.7145)"/><path id="k" class="cls-1" d="M317.9071,78.21c0-3.3847-.0587-3.7285-1.7794-4.7617l-.5742-.3437a.8732.8732,0,0,1,0-1.1485,40.5241,40.5241,0,0,0,6.1953-2.41.6311.6311,0,0,1,.5743.3457c-.0568,1.7207-.17,4.59-.17,7.1132v19.68c0,.7461.0547.8594,1.0312.8594,1.2638,0,2.3516-.6309,3.9024-2.2363l2.3515-2.5254c1.6074-1.7207,2.0079-2.3516,2.0079-2.6387s-.2872-.459-1.2637-.5742l-1.375-.1719a.8559.8559,0,0,1,0-1.4336h1.32a89.8128,89.8128,0,0,0,9.1211-.459c.4.1719.459,1.1465.1133,1.4336l-1.834.3438a8.3221,8.3221,0,0,0-3.6153,2.0078c-2.2363,1.7793-4.1894,3.8457-5.2207,4.82-.6894.6309-.746.918-.4023,1.377a59.2461,59.2461,0,0,0,3.8457,4.59c2.2363,2.5234,4.2461,4.7617,5.3926,5.8516a5.7847,5.7847,0,0,0,2.9824,1.2636l.8047.1133c.4.2871.3419,1.2617-.1153,1.4356-1.664-.1153-3.6152-.1739-5.4511-.1739-2.295,0-4.3027.0586-5.9667.1739a.9653.9653,0,0,1-.1134-1.4356l1.0312-.1719c.8614-.1152,1.4356-.2285,1.4356-.5742,0-.3437-.23-.7461-.9766-1.6054L325.02,99.839a2.3339,2.3339,0,0,0-1.7792-.8027c-1.0333,0-1.088.1719-1.088,1.9512v3.1562c0,4.1289.1132,4.7031,2.18,4.99l1.375.1719a1.0056,1.0056,0,0,1-.1133,1.4356c-1.8926-.1153-3.5586-.1739-5.5664-.1739-2.0645,0-3.787.0586-5.5078.1739a.958.958,0,0,1-.0567-1.4356l1.2637-.1719c2.1211-.2871,2.18-.8613,2.18-4.99Z" transform="translate(-3.8294 -3.7145)"/><path id="r" class="cls-1" d="M300.9265,94.1027c0-2.2383,0-2.5254-1.5508-3.5566l-.5176-.3457a.7881.7881,0,0,1,.0586-1.0313,44.2708,44.2708,0,0,0,5.795-2.8125c.2871.0586.4589.1719.4589.4023v3.3282c0,.2851.0567.459.1719.5156,2.01-1.6641,4.19-3.4434,6.3106-3.4434a2.3794,2.3794,0,0,1,2.584,2.2969,2.5464,2.5464,0,0,1-2.4688,2.6387,2.1914,2.1914,0,0,1-1.2617-.4024,4.7012,4.7012,0,0,0-2.5235-.9179,2.5442,2.5442,0,0,0-2.0664,1.1484c-.5742.8027-.7461,2.4668-.7461,4.416v7.8047c0,4.1289.1153,4.8184,2.295,4.99l2.0665.1719a1.0043,1.0043,0,0,1-.1173,1.4356c-2.6953-.1153-4.3574-.1739-6.3672-.1739-2.0645,0-3.7871.0586-5.2773.1739a1.004,1.004,0,0,1-.1152-1.4356l1.09-.1719c2.123-.3437,2.1816-.8613,2.1816-4.99Z" transform="translate(-3.8294 -3.7145)"/><path id="a" class="cls-1" d="M286.8718,98.6925c.8613-.2871.9766-.8027.9766-1.664l.0547-2.6387c.0586-2.123-.6289-4.9922-4.1875-4.9922-1.6075,0-3.5567.8028-3.67,2.5821-.0585.9179-.1171,1.6054-.5761,1.9511a6.1744,6.1744,0,0,1-3.27,1.09.725.725,0,0,1-.8027-.8028c0-2.9843,6.4844-7.0586,10.6719-7.0586,4.129,0,6.1387,2.41,5.9668,6.7129l-.3457,9.9844c-.1153,2.6387.4023,4.99,2.6386,4.99a3.3024,3.3024,0,0,0,1.4356-.3437c.2871-.1719.5723-.4024.7461-.4024.2306,0,.4.3457.4.7461a6.0175,6.0175,0,0,1-4.8184,2.5254,4.584,4.584,0,0,1-3.73-1.7793c-.2286-.3437-.5723-.8027-.918-.8027a8.8359,8.8359,0,0,0-2.2363,1.1465,8.4918,8.4918,0,0,1-4.1309,1.4355,5.9312,5.9312,0,0,1-4.0156-1.32,5.3613,5.3613,0,0,1-1.7792-4.0156c0-2.2383,1.0917-3.5566,4.7635-4.877ZM283.3152,108.79a6.49,6.49,0,0,0,3.5-1.4355c.6875-.6875.6875-1.49.7461-2.6954l.1132-3.3847c0-.6309-.23-.7461-.5722-.7461a10.7422,10.7422,0,0,0-2.3535.5742c-3.3847,1.1465-5.0489,2.0078-5.0489,4.2441A3.4578,3.4578,0,0,0,283.3152,108.79Z" transform="translate(-3.8294 -3.7145)"/><path id="P" class="cls-1" d="M257.3855,101.9621c0,6.0254.1133,6.7715,3.7851,7.1718l1.5489.1719a1.1228,1.1228,0,0,1-.1133,1.4356c-3.2695-.1153-5.1641-.1739-7.459-.1739-2.41,0-4.4746.0586-6.998.1739a1.1173,1.1173,0,0,1-.1171-1.4356l1.205-.1719c3.3281-.4589,3.4433-1.1464,3.4433-7.1718v-21.17c0-4.877-.1152-5.8516-2.6973-6.1387l-2.0644-.23a.9568.9568,0,0,1,.1134-1.4336,90.3517,90.3517,0,0,1,11.3612-.459c4.7618,0,8.3184.6309,11.0156,2.295a9.9125,9.9125,0,0,1,4.59,8.6054,9.7254,9.7254,0,0,1-5.7383,9.1231,19.3563,19.3563,0,0,1-7.916,1.7207c-.4024-.1719-.4024-1.0332-.0586-1.1485,6.1972-1.1464,8.4336-4.6464,8.4336-9.6367,0-5.5664-3.27-9.18-9.2364-9.18-3.041,0-3.0976.2285-3.0976,2.0645Z" transform="translate(-3.8294 -3.7145)"/><path id="C" class="cls-1" d="M207.3093,76.6613a24.72,24.72,0,0,1,15.4922-4.877,44.2439,44.2439,0,0,1,10.1543,1.377,4.3036,4.3036,0,0,0,1.6055.2285c.0586,1.32.3458,4.9356.8048,8.4356a1.2117,1.2117,0,0,1-1.5509.1132c-.8594-3.9-3.4414-8.375-11.7617-8.375-8.7774,0-16.2344,5.5645-16.2344,17.4414,0,12.0469,7.629,18.7032,17.039,18.7032a12.23,12.23,0,0,0,11.99-8.2051,1.2053,1.2053,0,0,1,1.4922.23,21.526,21.526,0,0,1-2.7539,7.8593,11.5317,11.5317,0,0,0-2.0079.5743,33.8309,33.8309,0,0,1-9.0644,1.3183c-5.1641,0-10.1-1.0312-14.2871-3.8437a18.4911,18.4911,0,0,1-8.1464-15.7774A19.061,19.061,0,0,1,207.3093,76.6613Z" transform="translate(-3.8294 -3.7145)"/><path id="B" class="cls-1" d="M172.3412,80.1613c0-4.2461-.2295-5.3359-2.8116-5.5664l-1.8359-.1719a.9164.9164,0,0,1,.0576-1.4336c3.0986-.2871,7-.459,12.3355-.459,3.6152,0,7.0566.2871,9.6386,1.6055a7.5334,7.5334,0,0,1,4.3614,7.1719c0,4.1308-2.41,6.2539-5.8536,7.8613,0,.5723.459.7441,1.09.8594a9.494,9.494,0,0,1,7.6875,9.582c0,6.6543-4.9336,11.1309-15.26,11.1309-1.664,0-4.4765-.1739-6.8847-.1739-2.5249,0-4.4751.1153-6.5982.1739a1.1174,1.1174,0,0,1-.1152-1.4356l1.0332-.1719c3.041-.5156,3.1553-1.1464,3.1553-7.1718Zm4.7045,7.6309c0,1.6054.0567,1.7207,2.9825,1.6054,5.8535-.2285,9.0078-1.9512,9.0078-7.3437,0-5.6231-4.1875-7.7442-8.5489-7.7442a7.0448,7.0448,0,0,0-2.6386.3438c-.5742.1719-.8028.459-.8028,1.49Zm0,13.3105c0,2.0645.1153,4.99,1.2051,6.252,1.09,1.32,2.8106,1.6074,4.5313,1.6074,5.1074,0,9.0078-2.2949,9.0078-8.0313,0-4.5332-2.2949-9.8125-11.416-9.8125-3.1,0-3.3282.3457-3.3282,1.4922Z" transform="translate(-3.8294 -3.7145)"/></g><rect id="Vertical_Bar" data-name="Vertical Bar" class="cls-2" x="144.2998" y="0.0625" width="1.1309" height="106.8452"/><g id="British_Columbia" data-name="British Columbia"><path id="A-2" data-name="A" class="cls-1" d="M128.7747,110.007l-.0839-.0664c-.1246-.0137-.2349-.0293-.3389-.0459-.9717-.2158-1.35-1.3867-1.7085-2.2168L121.6478,95.85c-.05-.1407-.15-.4483-.3467-.4483-.2724,0-.3462.33-.42.5186l-4.7739,11.8047a7.8552,7.8552,0,0,1-.94,1.8584,1.3717,1.3717,0,0,1-.9087.3369s-.27.0273-.3979.039l-.5879.0606a.4047.4047,0,0,0,.05.5605c.3335-.0127.9233-.0332.9233-.0332.6538-.0078,1.3062-.09,1.96-.09.55,0,1.0986.0586,1.6494.082,0,0,.59.0205.9224.0332a.4042.4042,0,0,0,.05-.5615l-.6231-.0664c-.1235-.0127-.3388-.0342-.3388-.0342-.5738-.0625-1.2891-.168-1.2891-.7969a3.9066,3.9066,0,0,1,.3462-1.2968l.7412-1.7676c.3716-.8477.2241-.9424,1.2129-.9424H122.24c1.188,0,1.0146,0,1.5346,1.2031l.7911,1.79a3.891,3.891,0,0,1,.3457,1.1552c0,.5928-.6455.63-1.2491.6817,0,0-.2.0166-.374.0283l-.6.0449a.4033.4033,0,0,0,.05.56c.333-.0107.9243-.0342.9243-.0342.7027-.0254,1.4107-.0781,2.09-.0781.8667,0,1.7324.0586,2.6006.082h0c.2836.0069.0429.0176.3715.0283A.4042.4042,0,0,0,128.7747,110.007Zm-6.5444-5.5557h-2.9165c-.1016,0-.9116.0948-.9116-.1425a1.12,1.12,0,0,1,.0757-.2852l1.7495-4.333c.05-.1192.2285-.7149.4316-.7149.1519,0,.3545.6192.4043.7149l1.7246,4.0459c0,.0478.1758.4277.1758.5244C122.9637,104.5236,122.3827,104.4513,122.23,104.4513Z" transform="translate(-3.8294 -3.7145)"/><path id="I" class="cls-1" d="M107.659,99.1066c0-2.3779-.0483-2.76-1.48-2.8721l-.605-.0439c-.1464-.0908-.0971-.4951.0479-.5635,1.2129.0459,2.0366.0674,3.0562.0674.9692,0,1.7929-.0215,3.0063-.0664.1445.0674.1934.4717.0474.5625l-.6065.0439c-1.43.1123-1.478.4942-1.478,2.8721v7.9961c0,2.376.0483,2.6914,1.478,2.85l.6065.0674c.146.0889.0971.4941-.0474.5605-1.2134-.0449-2.0371-.0664-3.0063-.0664-1.02,0-1.8433.0215-3.0562.0664a.4111.4111,0,0,1-.0479-.5605l.605-.0674c1.4312-.1582,1.48-.4736,1.48-2.85Z" transform="translate(-3.8294 -3.7145)"/><path id="B-2" data-name="B" class="cls-1" d="M92.96,98.4718c0-1.6777-.105-2.1074-1.2881-2.1982l-.8428-.082c-.0952-.086-.146-.541.0264-.5547,1.4209-.1045,3.2095-.18,5.6558-.18a11.4685,11.4685,0,0,1,4.4189.6328,2.9757,2.9757,0,0,1,1.9981,2.8359c0,1.6329-1.1045,2.4717-2.6812,3.1084,0,.2256.209.293.4985.34a3.9628,3.9628,0,0,1,3.524,3.7851c0,2.63-2.2613,4.4-6.9966,4.4-.7617,0-2.0513-.0684-3.1568-.0684-1.1562,0-2.05.0449-3.0229.0684a.3956.3956,0,0,1-.0537-.5665l.4736-.0693c1.3945-.2041,1.4468-.4521,1.4468-2.833Zm2.1567,3.0166c0,.6358.0259.68,1.3672.6358,2.6836-.09,4.13-.7725,4.13-2.9043,0-2.2217-1.92-3.06-3.9185-3.06a3.7324,3.7324,0,0,0-1.2114.1348c-.2627.0693-.3677.1826-.3677.5908Zm0,5.2608a3.9306,3.9306,0,0,0,.5528,2.4717,2.8053,2.8053,0,0,0,2.0786.6357c2.34,0,4.1284-.9062,4.1284-3.1758,0-1.792-1.0523-3.8769-5.2344-3.8769-1.42,0-1.5254.1357-1.5254.5879Z" transform="translate(-3.8294 -3.7145)"/><path id="M" class="cls-1" d="M88.2855,109.9474c-.1265-.0127-.3579-.0332-.3579-.0332a.9379.9379,0,0,1-.666-.2607c-.3155-.334-.2886-1.2852-.2886-1.667V98.1486c0-.4287-.104-1.3564.21-1.69a1.1511,1.1511,0,0,1,.7764-.2207v-.003c.1768-.0146.1807-.0146.3364-.0214l.6226-.045c.1494-.0908.1006-.4941-.0493-.5625-.3335.0137-.6367.0088-.9234.0166v.003H85.2967c-.2886,0-.55,0-.7075.3095l-5.3984,11.2412L74.4227,96.3146c-.1577-.38-.1836-.6894-.6826-.6894H70.9842c-.2876-.01-.6045-.0059-.938-.02-.1489.0684-.1992.4717-.05.5625l.6236.045c.1279.0117.3613.0263.3613.0263,1.0337.0664,1.0981.2969,1.0044,1.3858l-.8125,10.5507c-.07,1.0616-.1294,1.6192-1.2388,1.7237,0,0-.2349.03-.3638.0429l-.6225.0674a.4007.4007,0,0,0,.05.56c.3281-.0107.9116-.0273.9116-.0273.562-.0264,1.1362-.0782,1.71-.0782.6176,0,1.2368.0576,1.8559.083h0c.2862.01.59.02.9224.0332a.4065.4065,0,0,0,.0508-.5625l-.6236-.0664c-.1645-.0146-.3471-.0312-.3471-.0312-1.6011-.1074-1.5664-1.24-1.4659-2.625l.7593-9.8135h.1831l5.1626,12.0791c.0528.165.13.45.3931.45.2353,0,.314-.2627.3931-.4277L84.72,97.1955h.1831v10.791c0,.43.0522,1.31-.3926,1.6435a3.302,3.302,0,0,1-.99.2784c-.1045.0146-.2134.0312-.3375.0439l-.6235.0674a.4023.4023,0,0,0,.05.5605c.3291-.0127.9112-.0293.9112-.0293.8452-.0244,1.7031-.0869,2.5615-.0869.6172,0,1.8266.0586,1.8266.0586.2876.01.6153.04.9483.0528a.4051.4051,0,0,0,.0508-.5625Z" transform="translate(-3.8294 -3.7145)"/><path id="U" class="cls-1" d="M65.2992,101.2775c0-1.3916-.0469-3.9756-.4517-4.6475a1.5084,1.5084,0,0,0-1.19-.4726l-.5942-.044a.39.39,0,0,1,.0468-.539c.9043.0449,1.7853.0664,2.714.0664.999,0,1.6416-.0215,2.499-.0664a.3727.3727,0,0,1,.0464.539l-.57.044a1.42,1.42,0,0,0-1.1895.539,18.9485,18.9485,0,0,0-.3335,4.5811v2.5361c0,1.9551-.334,4.0176-1.6655,5.3653a6.4829,6.4829,0,0,1-4.5455,1.6416,7.05,7.05,0,0,1-4.4507-1.2373c-1.2617-.9854-1.8564-2.627-1.8564-5.2989V98.9875c0-2.336-.0479-2.7168-1.4272-2.83l-.5962-.044c-.1416-.09-.0948-.4707.0483-.539,1.1895.0449,1.999.0664,2.9507.0664.9756,0,1.7607-.0215,2.9272-.0664.1421.0683.19.4492.0479.539l-.5718.044c-1.38.1133-1.4277.4941-1.4277,2.83v4.8506c0,3.6132,1.19,5.9931,4.831,5.9931,3.4512,0,4.7589-2.56,4.7589-5.9726Z" transform="translate(-3.8294 -3.7145)"/><path id="L" class="cls-1" d="M41.5023,99.0646c0-2.3574-.0493-2.7178-1.606-2.83l-.6172-.0439c-.1479-.0908-.0971-.4951.0508-.5635,1.3819.0459,2.2217.0674,3.2085.0674.9639,0,1.8032-.0215,3.0385-.0664.1475.0674.1978.4717.0489.5625l-.5928.0439c-1.4565.1123-1.5053.4727-1.5053,2.83v7.8106c0,1.415.0737,1.998.518,2.4267.272.2471.7412.5166,2.6914.5166,2.1,0,2.6182-.09,3.0137-.2929a4.831,4.831,0,0,0,1.63-2.2247c.1479-.1093.6171-.02.6171.1368A16.7544,16.7544,0,0,1,50.96,110.58c-1.2592-.0449-3.6054-.0664-6.1489-.0664H42.5384c-1.0361,0-1.8266.0215-3.2085.0664a.4069.4069,0,0,1-.0508-.5605l.7412-.0674c1.4327-.1338,1.482-.4492,1.482-2.8057Z" transform="translate(-3.8294 -3.7145)"/><path id="O" class="cls-1" d="M22.1331,103.2072c0-4.49,3.5357-7.9268,8.3926-7.9268,5.4453,0,8.18,3.751,8.18,7.7022a7.8665,7.8665,0,0,1-8.18,7.8379C25.2928,110.8205,22.1331,107.2482,22.1331,103.2072Zm14.2154.4717c0-3.7041-1.7207-7.6992-6.2237-7.6992-2.4511,0-5.6347,1.5917-5.6347,6.5087,0,3.3243,1.6977,7.6338,6.3418,7.6338C33.661,110.1222,36.3485,108.1027,36.3485,103.6789Z" transform="translate(-3.8294 -3.7145)"/><path id="C-2" data-name="C" class="cls-1" d="M7.2567,94.44a11.7423,11.7423,0,0,1,7.3442-2.3027,21.097,21.097,0,0,1,4.8145.6494,2.0395,2.0395,0,0,0,.7617.1074c.0273.624.1636,2.333.38,3.9863a.5745.5745,0,0,1-.7344.0547c-.4077-1.8447-1.6319-3.958-5.5757-3.958-4.1616,0-7.6987,2.628-7.6987,8.24,0,5.6914,3.6186,8.8349,8.0786,8.8349a5.7974,5.7974,0,0,0,5.686-3.8769.5746.5746,0,0,1,.707.11,10.161,10.161,0,0,1-1.3056,3.7139,5.5155,5.5155,0,0,0-.9517.2695,16.0332,16.0332,0,0,1-4.2973.625,11.9623,11.9623,0,0,1-6.7749-1.8164,8.733,8.733,0,0,1-3.8614-7.4541A8.9907,8.9907,0,0,1,7.2567,94.44Z" transform="translate(-3.8294 -3.7145)"/><path id="H" class="cls-1" d="M102.2391,82.1877c-1.1592,0-1.208.0459-1.208.7187v3.165c0,2.3584.1216,2.6729,1.4741,2.8057l.7007.0693c.1455.0889.0967.4922-.0479.5606-1.3046-.0459-2.1269-.0684-3.0683-.0684-1.04,0-1.86.045-2.8027.0684a.4132.4132,0,0,1-.0479-.5606l.4106-.0693c1.3536-.2226,1.4-.4473,1.4-2.8057v-8.082c0-2.3574-.1694-2.7383-1.4243-2.8291l-.6289-.0459c-.145-.0869-.0967-.4922.0484-.5605,1.184.0224,2.0048.0683,3.0444.0683.9414,0,1.7637-.0234,2.8022-.0683.1451.0683.1934.4736.0479.5605l-.459.0459c-1.4009.1358-1.45.4717-1.45,2.8291v2.582c0,.6944.0488.7188,1.208.7188h6.91c1.16,0,1.2085-.0244,1.2085-.7188v-2.582c0-2.3574-.0489-2.6933-1.4742-2.8291l-.4589-.0459c-.1455-.0869-.0967-.4922.0483-.5605,1.1123.0449,1.9326.0683,2.9224.0683.9428,0,1.7636-.0234,2.851-.0683.1455.0683.1934.4736.0479.5605l-.5068.0459c-1.4.1358-1.4493.4717-1.4493,2.8291v8.082c0,2.3584.0489,2.65,1.4493,2.8057l.5805.0693c.1441.0889.0967.4922-.0488.5606-1.16-.0459-1.981-.0684-2.9238-.0684-.99,0-1.8589.0225-2.9224.0684a.4123.4123,0,0,1-.0483-.5606l.4589-.0693c1.4742-.2226,1.4742-.4473,1.4742-2.8057v-3.165c0-.6728-.0489-.7187-1.2085-.7187Z" transform="translate(-3.8294 -3.7145)"/><path id="S-2" data-name="S" class="cls-1" d="M88.9056,89.7365a9.4605,9.4605,0,0,1-4.1333-.83,8.9974,8.9974,0,0,1-.7144-3.1445c.1319-.1563.53-.2.6363-.0674A4.5842,4.5842,0,0,0,89.25,89.04c2.2251,0,3.3116-1.2354,3.3116-2.5811,0-.9882-.2383-2.0878-2.1729-3.1435L87.8724,81.922c-1.3252-.7392-2.8618-2.0185-2.8618-3.8593,0-2.1319,1.9619-3.8633,5.4048-3.8633a12.0164,12.0164,0,0,1,2.4633.2929,4.1928,4.1928,0,0,0,.9273.1338,8.4356,8.4356,0,0,1,.478,2.74.6029.6029,0,0,1-.664.0683,3.3226,3.3226,0,0,0-3.6016-2.5381c-2.5957,0-3.1523,1.459-3.1523,2.4913,0,1.3037,1.2714,2.247,2.2519,2.7617l2.1191,1.122c1.6685.877,3.3106,2.1778,3.3106,4.3116C94.5477,88.0519,92.35,89.7365,88.9056,89.7365Z" transform="translate(-3.8294 -3.7145)"/><path id="I-2" data-name="I" class="cls-1" d="M77.7376,78.0343c0-2.3808-.05-2.7607-1.52-2.874l-.6221-.0459c-.15-.0869-.1-.4922.0494-.5605,1.2465.0449,2.0927.0683,3.14.0683.9966,0,1.8447-.0234,3.09-.0683.15.0683.2007.4736.0508.5605l-.624.0459c-1.47.1133-1.52.4932-1.52,2.874v7.9932c0,2.3789.05,2.6943,1.52,2.85l.624.0693c.15.0889.1.4922-.0508.5606-1.2451-.0459-2.0932-.0684-3.09-.0684-1.0474,0-1.8936.0225-3.14.0684a.4036.4036,0,0,1-.0494-.5606l.6221-.0693c1.47-.1553,1.52-.4707,1.52-2.85Z" transform="translate(-3.8294 -3.7145)"/><path id="T" class="cls-1" d="M67.7308,86.0714c0,2.3584.0464,2.6954,1.4014,2.8057l.747.0693c.14.0889.0933.4922-.0473.5606-1.3311-.0459-2.1236-.0684-3.0586-.0684s-1.751.0225-3.2452.0684a.3813.3813,0,0,1,0-.5606l.8413-.0693c1.3306-.11,1.4464-.4473,1.4464-2.8057V76.0353c0-.6953,0-.7168-.7007-.7168H63.8313A4.9351,4.9351,0,0,0,60.96,75.88a4.0532,4.0532,0,0,0-1.05,1.5479.4607.4607,0,0,1-.608-.1563,22.7227,22.7227,0,0,0,.8868-3.3476.6273.6273,0,0,1,.4443,0c.14.7207.91.6982,1.9849.6982h9.4561c1.26,0,1.47-.0459,1.82-.6269.1167-.0469.374-.0244.42.0644a13.083,13.083,0,0,0-.35,3.4141c-.0933.18-.49.18-.6069.0449-.07-.5625-.233-1.3945-.5835-1.6387a4.79,4.79,0,0,0-2.7081-.5615H68.408c-.7,0-.6772.0215-.6772.7627Z" transform="translate(-3.8294 -3.7145)"/><path id="I-3" data-name="I" class="cls-1" d="M53.9056,78.0343c0-2.3808-.05-2.7607-1.52-2.874l-.6231-.0459c-.1494-.0869-.1-.4922.05-.5605,1.2456.0449,2.0933.0683,3.14.0683.9966,0,1.8443-.0234,3.09-.0683.15.0683.2.4736.05.5605l-.6231.0459c-1.47.1133-1.52.4932-1.52,2.874v7.9932c0,2.3789.05,2.6943,1.52,2.85l.6231.0693c.1494.0889.1.4922-.05.5606-1.2456-.0459-2.0933-.0684-3.09-.0684-1.0463,0-1.894.0225-3.14.0684a.4033.4033,0,0,1-.05-.5606l.6231-.0693c1.47-.1553,1.52-.4707,1.52-2.85Z" transform="translate(-3.8294 -3.7145)"/><path id="R-2" data-name="R" class="cls-1" d="M50.0965,88.9464l-.6231-.0546c-.1269-.0147-.2383-.03-.3452-.0459-.9111-.1612-1.2759-.9746-1.7056-1.7276l-2.1552-3.7529c-.3721-.625-.771-1.4668-1.6225-1.5869,2.2074-.2647,4.203-1.5391,4.203-3.7285,0-2.5284-2.5-3.6563-5.0282-3.6563-1.5161,0-2.8994.04-4.4414.04-.8506,0-1.8638-.04-2.7154-.04-.4721,0-.478.0947-.478.3594,0,.3906.1641.2812.666.31,1.7969.1015,1.7276.4355,1.7276,1.9755v9.84c0,1.4072.1225,1.83-1.3565,1.96,0,0-.2266.0234-.3555.038l-.6259.0645a.4056.4056,0,0,0,.05.5615c.3325-.0127.9238-.0361.9238-.0361.8179-.0244,1.6367-.0869,2.4546-.0869.8232,0,1.6113.0625,2.42.0869v.001c.2871.0087.5893.0185.9228.0312a.4025.4025,0,0,0,.05-.56l-.63-.0615c-.1284-.0127-.35-.0342-.35-.0342-1.4937-.1006-1.4014-.52-1.4014-1.9648V83.174c0-.22-.0268-.794.1328-.9629.1328-.1455.3731-.12.5845-.12,2.0234,0,1.9966.1914,2.9541,1.8769l2.6069,4.6905c.2124.3613.3735.8173.9053.8173h2.2646c.2856.0088.5864.0176.917.0313A.4033.4033,0,0,0,50.0965,88.9464ZM41.013,81.5685c-.4516,0-1.3569.168-1.3569-.4336V76.8293c0-1.6836.0537-1.9258,2.0757-1.9258,2.3677,0,3.8325,1.2031,3.8325,3.417A2.8256,2.8256,0,0,1,44.34,80.7746,5.491,5.491,0,0,1,41.013,81.5685Z" transform="translate(-3.8294 -3.7145)"/><path id="B-3" data-name="B" class="cls-1" d="M21.0828,75.4464c0-1.9443-.1367-2.46-1.45-2.5654l-.9131-.0625c-.148-.1191-.1055-.6445.03-.6562,1.5742-.1407,3.559-.211,6.2724-.211a12.182,12.182,0,0,1,4.9019.7364A3.4383,3.4383,0,0,1,32.14,75.9728c0,1.8926-1.2246,2.8653-2.9756,3.6006,0,.2617.2339.3428.5547.3955a4.5084,4.5084,0,0,1,3.9092,4.3887c0,3.05-2.5088,5.1-7.7608,5.1-.8457,0-2.2749-.08-3.5-.08-1.2842,0-2.2754.0527-3.3554.08a.4752.4752,0,0,1-.0586-.6582l.5254-.0791c1.5459-.2363,1.6044-.5264,1.6044-3.2852Zm2.3921,3.4952c0,.7363.03.79,1.5181.7363,2.9746-.1045,4.58-.8936,4.58-3.3633,0-2.5762-2.13-3.5478-4.3467-3.5478a3.9871,3.9871,0,0,0-1.3428.1562c-.291.08-.4087.2119-.4087.6846Zm0,6.1c0,.9453.0591,2.2851.6128,2.8642a3.0241,3.0241,0,0,0,2.3057.7373c2.5957,0,4.58-1.0527,4.58-3.6816,0-2.0762-1.167-4.4941-5.8052-4.4941-1.5752,0-1.6929.1582-1.6929.6845Z" transform="translate(-3.8294 -3.7145)"/></g><path id="Sun_White" data-name="Sun White" class="cls-1" d="M31.4027,58.8312c15.7817,0,37.6128,8.8848,53.4536,8.8848,11.3032,0,22.3335-3.0156,28.6113-7.46A48.0259,48.0259,0,1,0,18.74,60.1681,78.0076,78.0076,0,0,1,31.4027,58.8312Z" transform="translate(-3.8294 -3.7145)"/><g id="Sunrays"><polygon class="cls-2" points="93.309 37.419 95.208 38.207 99.42 35.269 93.309 37.419"/><path class="cls-2" d="M26.3768,37.8537l-4.9912-1.7559.25-.6118,5.6216,1.874.0239-.0127.7422-.4209.2959-.1855-6.13-2.6074.2588-.6416L36.1317,39.027l.45-.1875L23.0125,32.2257l.3033-.621L37.6947,38.298l.1987-.1025L23.95,30.2887l.2871-.5942L44.37,40.65c.165-.3052.51-.86.687-1.1587a179.0288,179.0288,0,0,0-15.0405-12.6,179.6768,179.6768,0,0,0,16.9717,9.8169c.31-.3872.5639-.6973.8945-1.064L30.7069,20.5221l.4619-.4726L45.0306,31.8634,32.1883,19.0026l.48-.4976L47.0882,32.44,33.6663,17.5426l.5132-.4633L46.5848,30.3639,35.2616,16.0968l.4882-.4438L50.2635,33.3156c.375-.3233.686-.5674,1.0791-.8682a178.9493,178.9493,0,0,0-9.185-17.229,179.0155,179.0155,0,0,0,11.99,15.3789c.4189-.2363.8461-.4643,1.2827-.6772l-.0738-.0469-10.1723-20.3.6054-.2666,8.4268,16.148L47.1268,8.7174l.6323-.2812,8.1484,18.3227L49.0428,7.9176l.6494-.2373,6.5263,16.9654L51.0647,7.1745l.6182-.2271,6.7856,21.668-.0131.0571.0175-.0068c.4507-.1524.91-.2847,1.3716-.41a179.4425,179.4425,0,0,0-2.0566-19.311A179.4371,179.4371,0,0,0,63.1126,27.609c.477-.059.9546-.1084,1.438-.142l-.0146-.0225h.0591l-.0332-.0488L62.7347,4.7629l.66-.02L65.159,22.8722,64.8558,4.6979l.6914-.0234.6919,20.041.6924-20.041.6914.0234-.3042,18.1743L69.0843,4.7433l.66.02L67.9173,27.3957l-.0342.0488h.01l-.0059.0083h.03c.4717.03.9414.0767,1.4067.1318A179.429,179.429,0,0,0,74.64,8.9445,179.3543,179.3543,0,0,0,72.5868,28.21q.6994.1839,1.3818.4077L80.7293,7.0236l.62.228-5.1553,17.47L82.722,7.7575l.6475.2373L76.5047,26.8361l8.15-18.3232.6324.2807-7.09,16.7383L86.6244,9.383l.6044.2656L77.0941,29.8771l.0161.0073c.418.2027.8262.4195,1.2319.6446A179.1135,179.1135,0,0,0,90.2708,15.2184a179.2321,179.2321,0,0,0-9.14,17.13q.5881.4431,1.146.9175L96.62,15.7956l.4888.4428L85.785,30.5065,98.1922,17.2218l.5127.4634L85.2816,32.5822l14.4189-13.936.4815.498L87.3392,32.0065,101.203,20.1916l.46.4731-16.9663,14.95.0088.01c.2969.331.5825.6709.8623,1.0175a179.7663,179.7663,0,0,0,16.8438-9.7519,179.249,179.249,0,0,0-14.93,12.4951c.208.35.5459.9434.7378,1.3018l19.8486-10.8062.2871.5947L92.512,39.4621l16.4786-7.6695.3022.6216-15.35,7.48.2949.103,15.6187-6.3173.2612.642-14.52,6.1744.2715.1123,9.6748-3.2256,1.4575-1.0171.4834.37,3.1846-1.062.25.6118-2.7539.9683,3.98,3.0376,1.2739.71A48.6537,48.6537,0,0,0,18.5472,42.133c.061-.03.1191-.0567.1787-.0855l.583-.2646.3579-.167Z" transform="translate(-3.8294 -3.7145)"/></g><path id="Mountains" class="cls-3" d="M18.2718,61.2062a80.0741,80.0741,0,0,1,13.166-1.4336c15.7807,0,37.6123,8.8858,53.4532,8.8858,11.62,0,22.9531-3.1885,29.13-7.836a48.98,48.98,0,0,0-.6015-19.8213l-6.6026-3.6826-7.7485,5.4341-5.2124-2.03c-1.7651.8911-12.6509,8.1714-12.6509,8.1714L77.0262,45.87l-4.4824-.8882L66.5653,40.63l-6.8565,4.7071S52.0579,49.78,51.7962,49.78c-.2642,0-9.23-7.1079-9.23-7.1079l-4.13-4.3525c-.7041.4438-3.5137,1.7334-3.5137,1.7334l-.144.0391-2.7193-.8414-3.3022-1.7519-10.03,4.5488c-.06.0288-.1177.0557-.1787.0855a48.9636,48.9636,0,0,0-.2754,19.0732Z" transform="translate(-3.8294 -3.7145)"/></svg>