<?xml version="1.0" encoding="UTF-8"?>
<svg id="BC_Parks_Logo" data-name="BC Parks Logo" xmlns="http://www.w3.org/2000/svg" viewBox="0 0 156.26 154.47">
  <defs>
    <style>
      .cls-1 {
        fill: #7b8cac;
      }

      .cls-2 {
        fill: #fff;
      }

      .cls-3 {
        fill: #e3a82b;
      }

      .cls-4 {
        fill: none;
      }
    </style>
  </defs>
  <g>
    <g id="British_Columbia" data-name="British Columbia">
      <path id="A" class="cls-2" d="M127.04,97.24l-.07-.05c-.1-.01-.18-.02-.26-.04-.76-.17-1.05-1.08-1.33-1.72l-3.89-9.2c-.04-.11-.12-.35-.27-.35-.21,0-.27,.26-.33,.4l-3.71,9.18c-.13,.35-.48,1.19-.73,1.45-.19,.2-.44,.23-.71,.26,0,0-.21,.02-.31,.03l-.46,.05c-.12,.1-.08,.38,.04,.44,.26,0,.72-.03,.72-.03,.51,0,1.02-.07,1.52-.07,.43,0,.85,.05,1.28,.06,0,0,.46,.02,.72,.03,.12-.05,.16-.33,.04-.44l-.48-.05c-.1,0-.26-.03-.26-.03-.45-.05-1-.13-1-.62,0-.33,.15-.72,.27-1.01l.58-1.37c.29-.66,.17-.73,.94-.73h2.62c.92,0,.79,0,1.19,.94l.62,1.39c.1,.24,.27,.64,.27,.9,0,.46-.5,.49-.97,.53,0,0-.16,.01-.29,.02l-.47,.03c-.12,.11-.08,.38,.04,.44,.26,0,.72-.03,.72-.03,.55-.02,1.1-.06,1.63-.06,.67,0,1.35,.05,2.02,.06h0c.22,0,.03,.01,.29,.02,.12-.05,.15-.33,.04-.44Zm-5.09-4.32h-2.27c-.08,0-.71,.07-.71-.11,0-.06,.04-.17,.06-.22l1.36-3.37c.04-.09,.18-.56,.34-.56,.12,0,.28,.48,.31,.56l1.34,3.15s.14,.33,.14,.41c0,.2-.45,.15-.57,.15Z"/>
      <path id="I" class="cls-2" d="M110.62,88.77c0-1.85-.04-2.15-1.15-2.23l-.47-.03c-.11-.07-.08-.39,.04-.44,.94,.04,1.58,.05,2.38,.05s1.39-.02,2.34-.05c.11,.05,.15,.37,.04,.44l-.47,.03c-1.11,.09-1.15,.38-1.15,2.23v6.22c0,1.85,.04,2.09,1.15,2.22l.47,.05c.11,.07,.08,.38-.04,.44-.94-.03-1.58-.05-2.34-.05-.79,0-1.43,.02-2.38,.05-.11-.05-.15-.33-.04-.44l.47-.05c1.11-.12,1.15-.37,1.15-2.22v-6.22Z"/>
      <path id="B" class="cls-2" d="M99.19,88.27c0-1.3-.08-1.64-1-1.71l-.66-.06c-.07-.07-.11-.42,.02-.43,1.11-.08,2.5-.14,4.4-.14,1.29,0,2.52,.09,3.44,.49,.88,.37,1.55,1.08,1.55,2.21,0,1.27-.86,1.92-2.09,2.42,0,.18,.16,.23,.39,.26,1.1,.17,2.74,1.06,2.74,2.94,0,2.05-1.76,3.42-5.44,3.42-.59,0-1.6-.05-2.46-.05s-1.59,.03-2.35,.05c-.12-.05-.16-.33-.04-.44l.37-.05c1.08-.16,1.13-.35,1.13-2.2v-6.7Zm1.68,2.35c0,.49,.02,.53,1.06,.49,2.09-.07,3.21-.6,3.21-2.26s-1.49-2.38-3.05-2.38c-.45,0-.76,.03-.94,.1-.2,.05-.29,.14-.29,.46v3.58Zm0,4.09c0,.63,.04,1.53,.43,1.92,.39,.4,1,.49,1.62,.49,1.82,0,3.21-.7,3.21-2.47,0-1.39-.82-3.02-4.07-3.02-1.1,0-1.19,.11-1.19,.46v2.61Z"/>
      <path id="M" class="cls-2" d="M95.56,97.2c-.1,0-.28-.03-.28-.03-.2-.02-.38-.05-.52-.2-.25-.26-.22-1-.22-1.3v-7.65c0-.33-.08-1.05,.16-1.31,.12-.14,.38-.16,.6-.17h0c.14-.01,.14-.01,.26-.02l.48-.03c.12-.07,.08-.38-.04-.44-.26,.01-.5,0-.72,.01h0s-2.06,0-2.06,0c-.22,0-.43,0-.55,.24l-4.2,8.74-3.71-8.45c-.12-.3-.14-.54-.53-.54h-2.14c-.22,0-.47,0-.73-.02-.12,.05-.15,.37-.04,.44l.48,.03c.1,0,.28,.02,.28,.02,.8,.05,.85,.23,.78,1.08l-.63,8.21c-.05,.83-.1,1.26-.96,1.34,0,0-.18,.02-.28,.03l-.48,.05c-.12,.1-.08,.38,.04,.44,.26,0,.71-.02,.71-.02,.44-.02,.88-.06,1.33-.06,.48,0,.96,.04,1.44,.06h0c.22,0,.46,.02,.72,.03,.12-.05,.16-.33,.04-.44l-.48-.05c-.13-.01-.27-.02-.27-.02-1.25-.08-1.22-.96-1.14-2.04l.59-7.63h.14l4.01,9.39c.04,.13,.1,.35,.31,.35,.18,0,.24-.2,.31-.33l4.52-9.63h.14v8.39c0,.33,.04,1.02-.31,1.28-.18,.13-.77,.22-.77,.22-.08,.01-.17,.02-.26,.03l-.48,.05c-.12,.1-.08,.38,.04,.44,.26,0,.71-.02,.71-.02,.66-.02,1.32-.07,1.99-.07,.48,0,1.42,.05,1.42,.05,.22,0,.48,.03,.74,.04,.12-.05,.16-.33,.04-.44l-.48-.05Z"/>
      <path id="U" class="cls-2" d="M77.68,90.46c0-1.08-.04-3.09-.35-3.61-.13-.21-.46-.33-.93-.37l-.46-.03c-.11-.12-.07-.35,.04-.42,.7,.03,1.39,.05,2.11,.05,.78,0,1.28-.02,1.94-.05,.15,.09,.13,.32,.04,.42l-.44,.03c-.46,.03-.81,.19-.93,.42-.26,.58-.26,2.58-.26,3.56v1.97c0,1.52-.26,3.12-1.3,4.17-.8,.82-2.17,1.28-3.53,1.28-1.28,0-2.55-.23-3.46-.96-.98-.77-1.44-2.04-1.44-4.12v-4.12c0-1.82-.04-2.11-1.11-2.2l-.46-.03c-.11-.07-.07-.37,.04-.42,.93,.03,1.55,.05,2.29,.05s1.37-.02,2.28-.05c.11,.05,.15,.35,.04,.42l-.44,.03c-1.07,.09-1.11,.38-1.11,2.2v3.77c0,2.81,.93,4.66,3.76,4.66,2.68,0,3.7-1.99,3.7-4.64v-2.01Z"/>
      <path id="L" class="cls-2" d="M59.17,88.73c0-1.83-.04-2.11-1.25-2.2l-.48-.03c-.12-.07-.08-.39,.04-.44,1.07,.04,1.73,.05,2.5,.05s1.4-.02,2.36-.05c.11,.05,.15,.37,.04,.44l-.46,.03c-1.13,.09-1.17,.37-1.17,2.2v6.07c0,1.1,.06,1.55,.4,1.89,.21,.19,.58,.4,2.09,.4,1.63,0,2.04-.07,2.34-.23,.38-.21,.88-.84,1.27-1.73,.12-.09,.48-.02,.48,.11,0,.19-.54,1.97-.81,2.44-.98-.03-2.8-.05-4.78-.05h-1.77c-.81,0-1.42,.02-2.5,.05-.12-.05-.15-.33-.04-.44l.58-.05c1.11-.1,1.15-.35,1.15-2.18v-6.29Z"/>
      <path id="O" class="cls-2" d="M44.11,91.96c0-3.49,2.75-6.16,6.53-6.16,4.23,0,6.36,2.92,6.36,5.99,0,3.53-2.82,6.1-6.36,6.1-4.07,0-6.53-2.78-6.53-5.92Zm11.06,.37c0-2.88-1.34-5.99-4.84-5.99-1.91,0-4.38,1.24-4.38,5.06,0,2.59,1.32,5.94,4.93,5.94,2.2,0,4.29-1.57,4.29-5.01Z"/>
      <path id="C" class="cls-2" d="M32.54,85.14c1.54-1.2,3.51-1.79,5.71-1.79,1.14,0,2.75,.23,3.74,.51,.25,.06,.4,.11,.59,.08,.02,.49,.13,1.81,.3,3.1-.11,.15-.42,.17-.57,.04-.32-1.43-1.27-3.08-4.34-3.08-3.24,0-5.99,2.04-5.99,6.41s2.81,6.87,6.28,6.87c2.73,0,3.94-1.77,4.42-3.02,.15-.1,.47-.06,.55,.09-.15,1.1-.7,2.49-1.02,2.89-.25,.04-.51,.13-.74,.21-.47,.17-1.99,.49-3.34,.49-1.9,0-3.72-.38-5.27-1.41-1.69-1.16-3-3.08-3-5.8,0-2.34,1.06-4.34,2.67-5.59Z"/>
      <path id="H" class="cls-2" d="M106.41,75.61c-.9,0-.94,.04-.94,.56v2.46c0,1.83,.09,2.08,1.15,2.18l.54,.05c.11,.07,.08,.38-.04,.44-1.01-.04-1.65-.05-2.39-.05-.81,0-1.45,.03-2.18,.05-.11-.05-.15-.33-.04-.44l.32-.05c1.05-.17,1.09-.35,1.09-2.18v-6.29c0-1.83-.13-2.13-1.11-2.2l-.49-.04c-.11-.07-.08-.38,.04-.44,.92,.02,1.56,.05,2.37,.05,.73,0,1.37-.02,2.18-.05,.11,.05,.15,.37,.04,.44l-.36,.04c-1.09,.11-1.13,.37-1.13,2.2v2.01c0,.54,.04,.56,.94,.56h5.37c.9,0,.94-.02,.94-.56v-2.01c0-1.83-.04-2.09-1.15-2.2l-.36-.04c-.11-.07-.08-.38,.04-.44,.87,.03,1.5,.05,2.27,.05s1.37-.02,2.22-.05c.11,.05,.15,.37,.04,.44l-.39,.04c-1.09,.11-1.13,.37-1.13,2.2v6.29c0,1.83,.04,2.06,1.13,2.18l.45,.05c.11,.07,.08,.38-.04,.44-.9-.04-1.54-.05-2.27-.05-.77,0-1.45,.02-2.27,.05-.11-.05-.15-.33-.04-.44l.36-.05c1.15-.17,1.15-.35,1.15-2.18v-2.46c0-.52-.04-.56-.94-.56h-5.37Z"/>
      <path id="S" class="cls-2" d="M96.04,81.48c-1.73,0-2.82-.45-3.21-.65-.25-.39-.51-1.62-.56-2.45,.1-.12,.41-.16,.49-.05,.31,.89,1.15,2.6,3.54,2.6,1.73,0,2.58-.96,2.58-2.01,0-.77-.19-1.62-1.69-2.44l-1.96-1.08c-1.03-.57-2.23-1.57-2.23-3,0-1.66,1.53-3,4.2-3,.64,0,1.38,.11,1.92,.23,.27,.07,.56,.1,.72,.1,.19,.42,.37,1.4,.37,2.13-.08,.1-.41,.16-.52,.05-.27-.84-.82-1.97-2.8-1.97s-2.45,1.13-2.45,1.94c0,1.01,.99,1.75,1.75,2.15l1.65,.87c1.3,.68,2.57,1.69,2.57,3.35,0,1.92-1.71,3.23-4.39,3.23Z"/>
      <path id="I-2" data-name="I" class="cls-2" d="M87.35,72.38c0-1.85-.04-2.15-1.18-2.24l-.48-.04c-.12-.07-.08-.38,.04-.44,.97,.03,1.63,.05,2.44,.05s1.43-.02,2.4-.05c.12,.05,.16,.37,.04,.44l-.49,.04c-1.14,.09-1.18,.38-1.18,2.24v6.22c0,1.85,.04,2.1,1.18,2.22l.49,.05c.12,.07,.08,.38-.04,.44-.97-.04-1.63-.05-2.4-.05-.81,0-1.47,.02-2.44,.05-.12-.05-.15-.33-.04-.44l.48-.05c1.14-.12,1.18-.37,1.18-2.22v-6.22Z"/>
      <path id="T" class="cls-2" d="M79.57,78.63c0,1.83,.04,2.1,1.09,2.18l.58,.05c.11,.07,.07,.38-.04,.44-1.04-.04-1.65-.05-2.38-.05s-1.36,.02-2.52,.05c-.11-.05-.15-.35,0-.44l.65-.05c1.03-.09,1.12-.35,1.12-2.18v-7.8c0-.54,0-.56-.54-.56h-1c-.78,0-1.78,.03-2.23,.44-.44,.38-.62,.77-.82,1.2-.15,.11-.4,.02-.47-.12,.29-.79,.56-1.9,.69-2.6,.05-.03,.29-.05,.35,0,.11,.56,.71,.54,1.54,.54h7.35c.98,0,1.14-.04,1.42-.49,.09-.04,.29-.02,.33,.05-.2,.72-.33,2.13-.27,2.66-.07,.14-.38,.14-.47,.03-.05-.44-.18-1.08-.45-1.27-.42-.3-1.11-.44-2.11-.44h-1.29c-.54,0-.53,.02-.53,.59v7.77Z"/>
      <path id="I-3" data-name="I" class="cls-2" d="M68.82,72.38c0-1.85-.04-2.15-1.18-2.24l-.48-.04c-.12-.07-.08-.38,.04-.44,.97,.03,1.63,.05,2.44,.05s1.43-.02,2.4-.05c.12,.05,.16,.37,.04,.44l-.48,.04c-1.14,.09-1.18,.38-1.18,2.24v6.22c0,1.85,.04,2.1,1.18,2.22l.48,.05c.12,.07,.08,.38-.04,.44-.97-.04-1.63-.05-2.4-.05-.81,0-1.47,.02-2.44,.05-.12-.05-.16-.33-.04-.44l.48-.05c1.14-.12,1.18-.37,1.18-2.22v-6.22Z"/>
      <path id="R" class="cls-2" d="M65.86,80.87l-.48-.04c-.1-.01-.19-.02-.27-.04-.71-.13-.99-.76-1.33-1.34l-1.68-2.92c-.29-.49-.6-1.14-1.26-1.23,1.72-.21,3.27-1.2,3.27-2.9,0-1.97-1.94-2.84-3.91-2.84-1.18,0-2.25,.03-3.45,.03-.66,0-1.45-.03-2.11-.03-.37,0-.37,.07-.37,.28,0,.3,.13,.22,.52,.24,1.4,.08,1.34,.34,1.34,1.54v7.65c0,1.09,.1,1.42-1.05,1.52,0,0-.18,.02-.28,.03l-.49,.05c-.12,.11-.08,.38,.04,.44,.26,0,.72-.03,.72-.03,.64-.02,1.27-.07,1.91-.07s1.25,.05,1.88,.07h0c.22,0,.46,.02,.72,.03,.12-.05,.15-.33,.04-.44l-.49-.05c-.1,0-.27-.03-.27-.03-1.16-.08-1.09-.4-1.09-1.53v-2.88c0-.17-.02-.62,.1-.75,.1-.11,.29-.09,.45-.09,1.57,0,1.55,.15,2.3,1.46l2.03,3.65c.17,.28,.29,.64,.7,.64h1.76c.22,0,.46,.01,.71,.02,.12-.05,.16-.33,.04-.44Zm-7.06-5.74c-.35,0-1.06,.13-1.06-.34v-3.35c0-1.31,.04-1.5,1.61-1.5,1.84,0,2.98,.94,2.98,2.66,0,.75-.27,1.44-.95,1.91-.79,.54-1.64,.62-2.59,.62Z"/>
      <path id="B-2" data-name="B" class="cls-2" d="M43.29,70.37c0-1.51-.11-1.91-1.13-2l-.71-.05c-.12-.09-.08-.5,.02-.51,1.22-.11,2.77-.16,4.88-.16,1.43,0,2.79,.1,3.81,.57,.98,.43,1.72,1.25,1.72,2.55,0,1.47-.95,2.23-2.31,2.8,0,.2,.18,.27,.43,.31,1.23,.2,3.04,1.22,3.04,3.41,0,2.37-1.95,3.97-6.04,3.97-.66,0-1.77-.06-2.72-.06s-1.77,.04-2.61,.06c-.14-.06-.18-.39-.05-.51l.41-.06c1.2-.18,1.25-.41,1.25-2.55v-7.77Zm1.86,2.72c0,.57,.02,.61,1.18,.57,2.31-.08,3.56-.69,3.56-2.62s-1.66-2.76-3.38-2.76c-.5,0-.84,.04-1.04,.12-.23,.06-.32,.16-.32,.53v4.15Zm0,4.74c0,.74,.05,1.78,.48,2.23,.43,.47,1.11,.57,1.79,.57,2.02,0,3.56-.82,3.56-2.86,0-1.61-.91-3.5-4.51-3.5-1.23,0-1.32,.12-1.32,.53v3.02Z"/>
    </g>
    <path id="Sun_White" data-name="Sun White" class="cls-2" d="M51.32,57.45c12.27,0,29.25,6.91,41.57,6.91,8.79,0,17.37-2.35,22.25-5.8,.34-2.03,.52-4.11,.52-6.23,0-20.63-16.72-37.35-37.35-37.35S40.96,31.69,40.96,52.32c0,2.1,.18,4.16,.51,6.17,1.35-.25,5.92-1.04,9.85-1.04Z"/>
    <g id="Sunrays">
      <polygon class="cls-3" points="102.44 43.68 103.92 44.3 107.19 42.01 102.44 43.68"/>
      <path class="cls-3" d="M47.41,41.13l-3.88-1.37,.19-.48,4.37,1.46h.02s.58-.34,.58-.34l.23-.14-4.77-2.03,.2-.5,10.64,4.3,.35-.15-10.55-5.14,.24-.48,11.18,5.21,.15-.08-10.84-6.15,.22-.46,15.66,8.52c.13-.24,.4-.67,.53-.9-5.95-5.6-11.7-9.8-11.7-9.8,0,0,5.91,3.96,13.2,7.63,.24-.3,.44-.54,.7-.83l-13.36-11.76,.36-.37,10.78,9.19-9.99-10,.37-.39,11.21,10.84-10.44-11.59,.4-.36,9.65,10.33-8.81-11.1,.38-.35,11.29,13.74c.29-.25,.53-.44,.84-.68-3.41-7.39-7.14-13.4-7.14-13.4,0,0,3.97,5.84,9.32,11.96,.33-.18,.66-.36,1-.53l-.06-.04-7.91-15.79,.47-.21,6.55,12.56-5.51-13.02,.49-.22,6.34,14.25-5.34-14.65,.51-.18,5.08,13.19-4.01-13.59,.48-.18,5.28,16.85v.04s0,0,0,0c.35-.12,.71-.22,1.07-.32-.4-8.09-1.6-15.02-1.6-15.02,0,0,1.48,6.86,4.14,14.52,.37-.05,.74-.08,1.12-.11v-.02s.03,0,.03,0l-.03-.04-1.42-17.6,.51-.02,1.37,14.1-.24-14.13,.54-.02,.54,15.59,.54-15.59,.54,.02-.24,14.13,1.37-14.1,.51,.02-1.42,17.6-.03,.04h0s.02,0,.02,0c.37,.02,.73,.06,1.09,.1,2.65-7.64,4.13-14.5,4.13-14.5,0,0-1.19,6.9-1.6,14.98,.36,.1,.72,.2,1.07,.32l5.26-16.79,.48,.18-4.01,13.59,5.08-13.19,.5,.18-5.34,14.65,6.34-14.25,.49,.22-5.51,13.02,6.55-12.56,.47,.21-7.88,15.73h.01c.33,.16,.64,.33,.96,.51,5.33-6.1,9.28-11.91,9.28-11.91,0,0-3.7,5.97-7.11,13.32,.3,.23,.6,.47,.89,.71l11.15-13.59,.38,.34-8.81,11.1,9.65-10.33,.4,.36-10.44,11.59,11.21-10.84,.37,.39-9.99,10,10.78-9.19,.36,.37-13.19,11.63h0c.23,.27,.45,.53,.67,.8,7.24-3.66,13.1-7.58,13.1-7.58,0,0-5.69,4.16-11.61,9.72,.16,.27,.42,.73,.57,1.01l15.44-8.4,.22,.46-12.32,6.99,12.82-5.96,.24,.48-11.94,5.82,.23,.08,12.15-4.91,.2,.5-11.29,4.8,.21,.09,7.52-2.51,1.13-.79,.38,.29,2.48-.83,.19,.48-2.14,.75,3.1,2.36,.99,.55c-3.98-16.63-18.94-29-36.79-29s-33.34,12.8-36.99,29.88c.05-.02,.09-.04,.14-.07l.45-.21,.28-.13,5.22-2.93Z"/>
    </g>
    <path id="Mountains" class="cls-1" d="M41.11,59.29s5.58-1.11,10.24-1.11c12.27,0,29.25,6.91,41.57,6.91,9.04,0,17.85-2.48,22.65-6.09,.38-2.14,.57-4.34,.57-6.58,0-3.04-.36-6-1.04-8.83l-5.13-2.86-6.03,4.23-4.05-1.58c-1.37,.69-9.84,6.35-9.84,6.35l-3.25-2.35-3.49-.69-4.65-3.38-5.33,3.66s-5.95,3.46-6.15,3.46-7.18-5.53-7.18-5.53l-3.21-3.38c-.55,.35-2.73,1.35-2.73,1.35l-.11,.03-2.11-.65-2.57-1.36-7.8,3.54s-.09,.04-.14,.07c-.55,2.57-.84,5.22-.84,7.95,0,2.35,.22,4.65,.63,6.88Z"/>
  </g>
  <g id="BC_Parks" data-name="BC Parks">
    <path id="s" class="cls-2" d="M141.94,124.82c.35,.86,.63,2.11,.63,3.16-.16,.27-.74,.35-.94,.12-.66-1.72-1.83-2.85-3.43-2.85s-2.5,.98-2.5,2.38c0,1.6,1.64,2.46,3.01,3.24,2.07,1.17,3.98,2.5,3.98,5.27,0,2.97-2.73,4.45-5.62,4.45-1.83,0-3.2-.39-4.17-1.17-.31-.74-.55-2.65-.47-3.94,.19-.24,.7-.27,.9-.04,.66,2.15,1.91,4.02,4.14,4.02,1.4,0,2.61-.82,2.61-2.5,0-1.79-1.56-2.77-3-3.59-2.26-1.29-3.86-2.65-3.86-4.8,0-2.85,2.34-4.45,5.31-4.45,1.64,0,3.08,.39,3.43,.7Z"/>
    <path id="k" class="cls-2" d="M116.66,118.03c0-2.3-.04-2.54-1.21-3.24l-.39-.23c-.2-.12-.2-.66,0-.78,.97-.31,2.81-.9,4.21-1.64,.16,0,.31,.08,.39,.24-.04,1.17-.12,3.12-.12,4.84v13.38c0,.51,.04,.58,.7,.58,.86,0,1.6-.43,2.65-1.52l1.6-1.72c1.09-1.17,1.37-1.6,1.37-1.79s-.2-.31-.86-.39l-.93-.12c-.35-.12-.35-.86,0-.97h.9c1.72,0,4.02-.08,6.2-.31,.27,.12,.31,.78,.08,.97l-1.25,.23c-.78,.16-1.44,.55-2.46,1.37-1.52,1.21-2.85,2.61-3.55,3.28-.47,.43-.51,.62-.27,.94,.66,.9,1.29,1.64,2.61,3.12,1.52,1.72,2.89,3.24,3.67,3.98,.55,.51,1.33,.74,2.03,.86l.55,.08c.27,.2,.23,.86-.08,.98-1.13-.08-2.46-.12-3.71-.12-1.56,0-2.93,.04-4.06,.12-.31-.16-.35-.82-.08-.98l.7-.12c.59-.08,.98-.16,.98-.39s-.16-.51-.66-1.09l-4.17-4.84c-.35-.39-.78-.55-1.21-.55-.7,0-.74,.12-.74,1.33v2.15c0,2.81,.08,3.2,1.48,3.39l.93,.12c.27,.2,.2,.86-.08,.98-1.29-.08-2.42-.12-3.78-.12s-2.58,.04-3.75,.12c-.27-.12-.35-.78-.04-.98l.86-.12c1.44-.2,1.48-.59,1.48-3.39v-17.63Z"/>
    <path id="r" class="cls-2" d="M105.12,128.84c0-1.52,0-1.72-1.05-2.42l-.35-.24c-.15-.16-.15-.58,.04-.7,.9-.31,2.97-1.33,3.94-1.91,.2,.04,.31,.12,.31,.27v2.26c0,.19,.04,.31,.12,.35,1.37-1.13,2.85-2.34,4.29-2.34,.97,0,1.76,.62,1.76,1.56,0,1.29-1.05,1.79-1.68,1.79-.39,0-.59-.12-.86-.27-.59-.39-1.17-.62-1.72-.62-.62,0-1.09,.35-1.41,.78-.39,.55-.51,1.68-.51,3v5.31c0,2.81,.08,3.28,1.56,3.39l1.41,.12c.27,.2,.2,.86-.08,.98-1.83-.08-2.96-.12-4.33-.12s-2.58,.04-3.59,.12c-.27-.12-.35-.78-.08-.98l.74-.12c1.44-.23,1.48-.59,1.48-3.39v-6.83Z"/>
    <path id="a" class="cls-2" d="M95.56,131.96c.59-.2,.66-.55,.66-1.13l.04-1.79c.04-1.44-.43-3.39-2.85-3.39-1.09,0-2.42,.55-2.5,1.76-.04,.62-.08,1.09-.39,1.33-.58,.47-1.64,.74-2.22,.74-.35,0-.55-.2-.55-.55,0-2.03,4.41-4.8,7.26-4.8s4.17,1.64,4.06,4.56l-.24,6.79c-.08,1.79,.27,3.39,1.79,3.39,.39,0,.74-.12,.98-.23,.2-.12,.39-.27,.51-.27,.16,0,.27,.24,.27,.51,0,.2-1.37,1.72-3.28,1.72-.94,0-1.87-.35-2.54-1.21-.16-.23-.39-.55-.62-.55-.27,0-.74,.35-1.52,.78-.86,.47-1.72,.98-2.81,.98s-2.07-.31-2.73-.9c-.74-.66-1.21-1.64-1.21-2.73,0-1.52,.74-2.42,3.24-3.32l4.64-1.68Zm-2.42,6.87c.78,0,1.99-.59,2.38-.98,.47-.47,.47-1.01,.51-1.83l.08-2.3c0-.43-.16-.51-.39-.51s-.9,.16-1.6,.39c-2.3,.78-3.43,1.37-3.43,2.89,0,.66,.47,2.34,2.46,2.34Z"/>
    <path id="P" class="cls-2" d="M75.51,134.18c0,4.1,.08,4.6,2.57,4.88l1.05,.12c.24,.2,.16,.86-.08,.98-2.22-.08-3.51-.12-5.07-.12-1.64,0-3.04,.04-4.76,.12-.24-.12-.31-.74-.08-.98l.82-.12c2.26-.31,2.34-.78,2.34-4.88v-14.39c0-3.32-.08-3.98-1.83-4.17l-1.4-.16c-.27-.23-.24-.82,.08-.97,2.07-.27,4.49-.31,7.73-.31s5.66,.43,7.49,1.56c1.79,1.13,3.12,3.16,3.12,5.85,0,3.59-2.22,5.38-3.9,6.2-1.72,.82-3.78,1.17-5.38,1.17-.27-.12-.27-.7-.04-.78,4.21-.78,5.73-3.16,5.73-6.55,0-3.78-2.22-6.24-6.28-6.24-2.07,0-2.11,.16-2.11,1.4v17.4Z"/>
    <path id="C-2" data-name="C" class="cls-2" d="M41.46,116.98c2.85-2.22,6.48-3.32,10.53-3.32,2.11,0,5.07,.43,6.9,.94,.47,.12,.74,.2,1.09,.16,.04,.9,.24,3.36,.55,5.74-.2,.27-.78,.31-1.05,.08-.58-2.65-2.34-5.69-8-5.69-5.97,0-11.04,3.78-11.04,11.86s5.19,12.72,11.59,12.72c5.03,0,7.26-3.28,8.15-5.58,.27-.2,.86-.12,1.01,.16-.27,2.03-1.29,4.6-1.87,5.34-.47,.08-.94,.23-1.37,.39-.86,.31-3.67,.9-6.16,.9-3.51,0-6.87-.7-9.71-2.61-3.12-2.14-5.54-5.69-5.54-10.73,0-4.33,1.95-8.04,4.92-10.34Z"/>
    <path id="B-3" data-name="B" class="cls-2" d="M17.68,119.36c0-2.89-.16-3.63-1.91-3.78l-1.25-.12c-.31-.23-.27-.82,.04-.97,2.11-.2,4.76-.31,8.39-.31,2.46,0,4.8,.2,6.55,1.09,1.68,.82,2.97,2.38,2.97,4.88,0,2.81-1.64,4.25-3.98,5.35,0,.39,.31,.51,.74,.58,2.11,.39,5.23,2.34,5.23,6.52,0,4.52-3.35,7.57-10.38,7.57-1.13,0-3.04-.12-4.68-.12s-3.04,.08-4.49,.12c-.23-.12-.31-.74-.08-.98l.7-.12c2.07-.35,2.15-.78,2.15-4.88v-14.82Zm3.2,5.19c0,1.09,.04,1.17,2.03,1.09,3.98-.16,6.12-1.33,6.12-4.99s-2.85-5.27-5.81-5.27c-.86,0-1.44,.08-1.79,.23-.39,.12-.55,.31-.55,1.01v7.92Zm0,9.05c0,1.4,.08,3.39,.82,4.25,.74,.9,1.91,1.09,3.08,1.09,3.47,0,6.12-1.56,6.12-5.46,0-3.08-1.56-6.67-7.76-6.67-2.11,0-2.26,.24-2.26,1.01v5.77Z"/>
  </g>
  <rect class="cls-3" x="40.9" y="104.12" width="75.18" height="1.17"/>
  <rect class="cls-4" width="156.26" height="154.47"/>
  <rect class="cls-4" width="156.26" height="154.47"/>
</svg>