<svg width="272" height="220" viewBox="0 0 272 220" fill="none" xmlns="http://www.w3.org/2000/svg">
<g clip-path="url(#clip0_13898_193233)">
<path d="M170.3 212.71H169.51V212.01L169.839 211.677H170.555L170.318 211.272L169.252 210.59V209.761L168.149 209.06V209.539L168.444 209.89V210.387H168.204L167.746 210.183L165.824 207.749L166.301 206.79L165.345 205.561L163.178 203.558L161.085 202.464L158.745 201.925L158.218 201.666L157.936 201.684L157.963 201.703L157.692 202.207L156.125 202.969H155.575L155.28 202.464H154.559L153.711 201.417L152.95 201.637H151.868L151.086 200.891L149.267 201.666L148.469 201.388L146.623 201.15H144.557L143.996 200.881L143.198 201.15H142.685L142.148 200.609H141.632L140.823 200.347L140.286 199.287L140.052 199.025H139.517L139.265 198.489L138.728 197.96L137.954 198.481L138.219 198.798L137.672 199.818V200.622L138.749 201.652H138.994L139.238 201.15L138.994 200.609L139.252 200.093L139.77 200.878L140.342 201.407L139.77 201.666V201.943L140.028 202.44V202.969L141.094 203.51V202.255L140.818 201.962L141.039 201.314L141.608 202.181H142.177V201.666L142.637 201.758V202.681L141.903 203.196V203.748H142.379L142.985 202.969L143.206 203.251H143.664L143.941 202.718L144.254 203.547H144.749V205.133L145.317 205.667V206.645L147.229 209.079L147.632 209.097L148.79 207.971V207.234H149.793V208.542H150.573L150.865 208.008H152.005L152.389 207.749L153.161 208.008L153.016 208.524L151.636 210.109L151.307 210.939L151.599 211.714L152.942 212.71L154.503 213.262L155.788 214.647L156.596 214.866L158.213 214.885L158.489 215.678L159.811 215.955L164.55 218.038L166.185 218.297L167.433 218.868H168.223L168.518 218.556V218.093L169.307 216.989H169.784V217.356L170.189 217.819L171.271 217.745L171.4 216.563L170.3 212.71Z" fill="#C1B59B"/>
<path d="M115.648 177.621L116.383 177.352H117.634L118.808 176.564L119.837 176.054H121.504L122.212 176.765L124.221 177.389L126.596 178.716L128.581 180.277L129.929 180.867V181.311H131.543L132.683 182.146H133.723L134.997 182.688H136.392L136.65 183.179H139.259L139.541 183.457H140.549L141.66 183.983L142.387 184.768H144.022L144.572 185.312L146.17 185.209L146.86 185.024L147.89 185.78L148.174 186.335V187.117L148.466 187.408L148.743 188.177V188.74L150.064 190.021L150.322 190.574L150.064 191.092L150.572 191.882V192.656L151.883 193.491V193.97L152.913 194.818V195.299H153.5L154.013 195.851V196.38L153.721 196.66H153.463L152.95 196.38V196.895L153.769 197.474L155.274 199.551L156.083 200.339L157.136 201.15L157.97 201.703L157.699 202.207L156.133 202.969H155.583L155.288 202.464H154.566L153.718 201.417L152.958 201.637H151.876L151.094 200.891L149.274 201.666L148.477 201.388L146.631 201.15H144.564L144.004 200.881L143.206 201.15H142.692L142.155 200.609H141.639L140.831 200.347L140.294 199.287L140.06 199.025H139.525L139.272 198.489L138.735 197.96L137.961 198.481L138.227 198.798L137.68 199.818H136.642L136.097 198.227L137.153 197.168L137.693 197.442H138.161L138.512 197.186L138.751 196.827L137.951 196.642L137.666 196.898L136.887 196.668L136.906 196.116L137.666 195.294L137.382 194.538H136.637L136.906 195.082V195.553L136.124 196.116H135.563L135.307 196.383V196.909L134.755 197.95L134.249 197.96L133.23 197.435V196.909L132.956 196.65H132.469L131.898 196.124L132.156 195.331L132.964 194.778L132.904 194.512H132.143L131.874 194.007L133.075 193.478L133.644 192.796L133.43 191.893L132.891 191.599L132.946 192.833L132.377 193.222L132.143 192.421L131.874 192.68V193.209H131.569L131.09 192.913V193.478H129.781L128.983 192.68L128.739 191.623L129.768 191.131V190.798L129.241 190.825L129.034 190.32L130.281 189.511L130.271 188.956L129.768 188.967L129.413 189.348L128.775 189.226L128.446 188.734L128.165 188.465L127.894 188.475L128.188 189.313L127.944 190.296L126.89 190.553L126.069 189.805H125.606L124.244 188.98L123.671 188.993L122.188 190.014L121.085 189.511V188.721L122.715 187.408V186.61L122.136 186.287V185.579L121.88 185.256H121.356L121.08 185.809L120.556 185.817L120.301 185.005L121.125 184.223L121.722 183.227L121.246 182.785L120.308 182.867V182.371L119.803 182.104L119.758 182.608L119.832 183.2L118.976 182.886L118.197 182.075L117.433 181.245L117.141 179.963L116.644 179.455L116.607 178.525L116.083 178.359L115.648 177.621Z" fill="#C1B59B"/>
<path d="M154.267 177.07V176.356L153.214 176.026L152.933 174.955L151.819 174.451L150.3 174.733L149.27 173.629L150.287 172.878L149.542 172.373V171.189L149.223 170.727V169.976L150.276 169.165V168.108L149.234 167.334V166.818L150.276 165.428L149.797 164.162L150.568 163.586L150.281 160.703L149.552 160.452L149.26 159.923H148.744L147.667 160.462L146.946 159.786V160.698H146.332L145.524 159.934V159.136L144.531 158.631H142.707L142.351 159.873V160.735L141.875 161.496L142.096 162.294H142.646V163.351L142.415 163.906H141.348L140.872 164.937V166.266L140.05 166.794L137.16 165.737L136.425 167.064L135.543 167.04L134.208 165.737H128.969L129.298 166.522H129.914V167.191L128.951 167.598L128.674 167.051L126.91 167.334L125.61 168.319L126.102 168.637H126.628V169.155L126.091 169.707L124.793 169.953L123.727 169.707L123.195 170.5V170.997L124.185 171.993L125.08 172.257L124.512 171.552H126.078L126.628 172.054L125.833 172.067V172.321L126.384 172.632L126.091 172.878L125.565 173.922L126.091 174.464H126.555L126.936 175.288H127.671L128.429 175.521L129.224 176.309L130.596 177.083H131.012L131.602 176.565L132.139 176.295V175.717L132.715 174.76L133.229 174.747L133.695 174.969L133.5 175.754L134.235 176.026H135.275L136.401 175.251L136.662 175.547L136.12 176.065V176.84L136.662 177.083H137.691L138.984 176.565L139.287 176.821L140.253 176.903L140.032 177.908H141.098L141.648 177.347H141.888V177.908L140.556 178.922H140.077L139.792 179.475L140.069 179.697H140.574L140.822 179.485L141.888 180.302L141.348 181.076H140.614L140.074 181.581V182.147L140.356 182.662L140.882 182.908L142.633 183.005L143.736 182.638L144.521 182.81L144.803 183.708H145.806L146.614 183.436L148.194 183.449L149.565 183.965V184.998L149.797 185.588L150.84 186.055V186.608L151.621 187.408L152.688 186.89L151.095 185.022V184.237H151.88V183.19L153.973 181.594V179.504L154.267 178.706L153.435 177.881V177.376L154.267 177.07Z" fill="#C1B59B"/>
<path d="M184.574 193.468L185.332 192.939L184.537 191.882V191.354L181.891 189.755L181.396 188.722L181.91 188.37V186.88L182.46 185.857L183.737 185.331V183.967L182.681 183.737V183.166H182.157L181.625 183.737H178.75L178.208 183.386V182.889L178.99 182.355V181.055L178.503 180.262L177.097 179.755L175.343 181.063L174.956 182.104H174.535V181.071L173.487 181.319L172.624 180.508H172.173V179.485L171.908 178.914H170.841L170.317 177.891L169.528 177.394L168.93 178.399L168.232 177.865L167.719 178.399L166.597 177.614V176.565H166.595L166.118 175.975L165.078 175.238L163.204 174.992L162.1 173.885L161.145 173.38V172.851H161.829V171.818L149.79 171.559L149.534 171.187V172.37L150.282 172.875L149.266 173.626L150.295 174.733L151.814 174.45L152.928 174.955L153.21 176.026L154.263 176.359V177.072L153.431 177.379V177.883L154.263 178.708L153.968 179.506V181.597L151.875 183.195V184.239H151.09V185.027L152.683 186.895C152.88 186.956 153.11 187.141 153.11 187.141L153.475 187.897L154.597 188.967L154.976 190.35L155.155 191.179L157.891 193.494V194.269L158.222 194.552L158.749 194.737L160.071 195.043L160.573 195.326L161.908 196.653L163.47 198.22L163.964 198.92L164.865 199.768L167.124 200.413L168.164 201.151L168.996 200.855V199.06L171.615 197.707V196.946L171.91 196.417H172.929L173.219 196.121H174.003L174.617 195.041H175.056L175.583 195.569H183.494L184.816 194.279L184.571 193.468H184.574Z" fill="#C1B59B"/>
<path d="M195.715 207.916L195.115 206.405L195.997 205.871V204.8H194.823L193.499 204.026L193.978 203.289L195.273 203.804L195.631 202.773L194.915 201.703V199.232L195.631 198.217V197.498H195.602L194.739 198.217L194.252 197.702V197.168L194.502 196.909V196.116L194.004 195.849L193.48 195.331V194.789L193.72 194.52H194.336L194.805 194.004V193.204H194.262L193.491 193.471H192.443V192.971L192.985 192.16V191.396L192.417 190.566V189.276L192.941 188.98V187.672H191.111L188.991 187.154L188.475 187.662V188.436H187.685L186.896 187.662H186.116V188.196L185.308 188.999V189.75H184.789L184.279 189.239H182.415L181.909 188.751V188.37L181.396 188.721L181.891 189.755L184.537 191.354V191.882L185.332 192.939L184.574 193.468L184.818 194.279L183.494 195.569H175.585L175.059 195.04H174.616L174.006 196.121H173.221L172.168 197.192V198.217L171.678 198.754L171.873 199.821L171.102 201.444V202.195L171.678 202.454L171.665 203.265L172.4 204.309L172.663 206.423L173.245 206.989V207.916H195.715Z" fill="#C1B59B"/>
<path d="M195.999 204.8V205.871L195.117 206.405L195.717 207.916H227.763V204.861L227.421 203.78H226.807L225.13 201.407V198.801H225.583L225.878 197.596L225.265 195.199L224.801 194.266H224.067L224.556 193.222L223.772 192.694L222.732 190.061L223.232 189.768L223.967 190.061L225.536 189.017L225.841 187.408L225.338 186.324L225.754 185.87L225.057 185.294L225.375 183.964H226.428L226.95 182.921L225.891 182.551V181.84L226.478 181.544L226.123 178.668L225.365 178.422L225.609 176.025H224.812V175.996L223.524 176.554L222.469 175.243H221.65L221.41 175.788L221.099 177.355L219.528 177.077V177.603L219.033 178.692L217.948 178.407H215.873V179.207L215.073 180.545H214.265V181.604L214.56 182.397H215.073V183.172L213.999 184.482L212.474 184.757L211.411 183.957L211.179 183.182L210.345 183.957L210.621 184.987L210.097 186.317L209.27 187.141L208.733 188.478L209.784 189.533L209.315 190.326L208.746 190.844L205.882 191.092V190.326L204.292 191.385V191.866L204.842 192.649V193.479L204.558 193.775H204.007V193.212L203.025 192.456L201.627 193.489L200.324 193.222V191.885L199.553 191.626L199.268 192.982H198.368L197.175 193.497L196.925 195.064L195.633 197.498V198.217L194.916 199.232V201.703L195.633 202.773L195.274 203.804L193.979 203.289L193.5 204.026L194.824 204.8H195.999Z" fill="#C1B59B"/>
<path d="M218.027 160.425H218.762V161.495L218.027 162.344L219.789 163.34L219.288 164.936L220.597 165.428V166.007L221.784 166.498V168.071L221.331 168.367L222.679 169.252L221.663 169.892L222.458 171.242H222.985L223.474 172.878V174.194H224.014L224.809 175.275V176.025H225.607L225.362 178.423L226.12 178.668L226.476 181.544L225.889 181.84V182.551L226.947 182.921L226.426 183.964H225.373L225.054 185.294L225.752 185.87L225.336 186.325L225.839 187.408L225.533 189.018L223.964 190.061L223.23 189.768L222.729 190.061L223.769 192.694L224.554 193.222L224.064 194.266H224.799L225.262 195.199L225.876 197.596L225.581 198.801H225.128V201.407L226.805 203.78H227.418L227.761 204.861V207.916H270.865V206.949L269.838 205.382L269.085 204.845H267.753L267.273 203.519L264.583 200.873V200.347L265.391 199.554V198.495L264.051 198.762L263.49 197.443L264.077 196.89V196.135H264.812V193.738L264.528 192.152V190.336L263.775 189.506V187.966L263.519 186.602L262.966 185.836L263.243 185.283L262.224 184.464V183.716L260.615 181.319L259.825 180.775L259.312 181.597L258.367 182.067L257.456 180.822V178.94L255.602 178.415L254.289 175.769V174.987L253.222 173.668H252.443L252.709 172.846L249.76 172.082L250.11 171.004L249.834 170.219L247.988 169.4V168.9H246.922L246.664 168.1V166.514L245.608 165.729V164.936L244.811 163.38L243.515 162.854V161.775L242.973 161.239V160.309H241.688L241.146 162.013H239.814L239.566 160.19L239.034 159.653V158.575L238.263 158.3L237.407 157.026L236.101 155.705L235.856 153.517L235.072 154.391L232.929 154.637L232.231 153.826V153.284H230.873L230.333 152.806L230.112 151.994L231.154 151.17L231.607 150.335L231.117 149.584H230.101L228.25 148.012L227.7 148.797L227.676 149.645L225.636 150.396L224.572 152.005L223.493 152.816L222.153 153.062L220.934 154.28L220.186 153.836H219.307L219.007 154.637V155.927L217.438 157.008L218.762 157.795L217.438 158.054L218.027 160.425Z" fill="#C1B59B"/>
<path d="M223.525 176.553L224.812 175.996V175.274L224.017 174.193H223.478V172.877L222.988 171.241H222.461L221.666 169.891L222.683 169.251L221.335 168.366L221.787 168.07V166.497L220.6 166.006V165.427L219.291 164.935L219.792 163.339L218.03 162.343L218.765 161.494V160.424H218.03L217.441 158.054L218.765 157.795L217.441 157.007L219.01 155.926V154.636L219.31 153.836H219.302L219.028 152.76L218.494 152.337L219.578 151.47L218.225 150.395V148.796L218.752 148.55L218.507 148.016V146.991L217.454 146.319H216.922V145.632L216.359 144.85H215.911L215.316 145.902V146.436L213.768 146.695L213.499 146.179V145.368H211.649L210.84 144.316L209.042 144.993L207.681 144.084H206.928L206.391 142.744V142.22H205.875L205.288 141.391H203.45L202.905 141.938L203.445 142.995L203.75 145.405H204.266V145.907L202.968 147.445L200.873 148.294V148.804L201.67 149.092L200.899 150.91H201.362V152.239L202.415 153.27V154.327H203.237V154.919L202.207 156.468L204.266 156.478V157.057L202.184 158.091H200.701L199.833 159L200.554 159.38L200.591 170.713H200.027L199.575 170.221H198.229V169.706H197.445L196.123 171.032V172.06H195.381L194.849 171.524H192.974L192.192 172.362V173.21L191.176 174.193H189.265L187.453 174.45L186.595 175.015L186.092 174.759L185.847 173.136L185.347 172.348L183.73 171.278V170.504L180.068 170.221L178.733 171.537V172.618H178.22L177.422 171.5L176.224 171.807L175.342 170.958L173.663 170.48V171.807L172.438 172.644V173.11H171.68V174.439L170.59 173.934H169.806L168.508 175.52L166.602 176.564V177.613L167.72 178.395L168.237 177.861L168.934 178.395L169.532 177.391L170.322 177.888L170.843 178.913H171.909L172.175 179.484V180.507H172.625L173.489 181.318L174.537 181.07V182.103H174.958L175.345 181.059L177.098 179.751L178.504 180.258L178.991 181.051V182.352L178.21 182.885V183.382L178.752 183.734H181.627L182.159 183.163H182.683V183.734L183.738 183.964V185.33L182.461 185.853L181.911 186.879V188.75L182.417 189.239H184.281L184.791 189.749H185.31V188.998L186.118 188.195V187.661H186.898L187.688 188.435H188.477V187.661L188.993 187.154L191.113 187.672H192.943V188.98L192.419 189.276V190.565L192.987 191.395V192.159L192.445 192.97V193.47H193.493L194.264 193.203H194.807V194.004L194.338 194.519H193.722L193.482 194.789V195.33L194.006 195.848L194.504 196.115V196.908L194.254 197.167V197.701L194.741 198.216L195.604 197.497L196.926 195.063L197.176 193.496L198.369 192.981H199.269L199.553 191.625L200.325 191.884V193.221L201.628 193.488L203.026 192.455L204.008 193.211V193.774H204.558L204.843 193.478V192.648L204.293 191.866V191.385L205.883 190.325V191.091L208.747 190.843L209.316 190.325L209.785 189.532L208.734 188.478L209.271 187.14L210.098 186.316L210.622 184.986L210.345 183.956L211.18 183.181L211.412 183.956L212.475 184.756L214 184.482L215.074 183.171V182.396H214.56L214.265 181.604V180.544H215.074L215.874 179.207V178.406H217.949L219.033 178.691L219.528 177.602V177.076L221.1 177.354L221.411 175.787L221.65 175.242H222.469L223.525 176.553Z" fill="#C1B59B"/>
<path d="M203.449 142.996L202.909 141.939L203.454 141.392H205.292L204.571 140.372H202.983L202.201 139.32H200.885L200.608 138.244H199.505L198.215 136.685L198.779 135.866H199.537V134.552L199.034 134.029L197.181 133.759L196.17 134.005L195.877 131.455L192.958 133.749H191.375L191.115 134.837L187.929 135.091L186.886 134.288H185.357V133.733L184.017 133.764V134.79L181.792 135.947L180.341 135.062V135.707L178.511 136.986H177.795L176.645 134.539L175.592 133.519L172.701 134.214L171.843 133.741L169.518 134.552L168.733 131.367L166.137 131.381L165.598 130.588L163.981 130.561L162.183 131.901L160.609 130.593L159.532 131.159L159.232 129.787L157.681 129.211L157.425 130.588L158.489 131.381L158.202 131.909H156.899V132.43L158.215 133.746H158.734V134.803L158.16 135.332L159.005 136.138L158.502 136.936H155.864L155.583 136.402H153.482L153.205 134.023L151.375 133.231L150.599 133.759L150.304 134.808H148.748V135.583L147.439 136.402V137.205L146.104 138.511L144.522 139.04V135.223H140.881L138.999 137.174H137.419L136.919 138.511L135.839 139.589H135.326V138.516H134.802L133.983 139.565L133.459 139.026V137.184L132.951 136.931L132.417 137.446V137.972H130.837L130.842 136.931L131.377 136.386L130.834 135.067L131.6 134.552V133.754L130.576 133.495L129.91 134.819L129.023 134.555H128.207L127.133 135.104L125.848 136.394L126.38 137.731H127.912L128.683 138.239V140.091L127.949 140.591L128.483 141.696H128.997L128.757 142.462L127.133 142.755V144.048L126.332 145.126H125.608L124.516 144.333V142.985L123.183 143.522L122.412 143.255V141.669L121.356 140.884L120.803 139.547V138.543L119.529 138.294L118.976 137.742L116.112 138.239H114.514V137.705L113.99 136.672H113.458L112.429 137.464H111.612V138.699H110.354L109.775 140.091L108.811 140.987L108.461 142.425L108.756 143.474L110.467 145.195L111.033 145.393L111.362 144.877H111.712L112.152 146.149L112.25 147.029L111.633 146.709H111.362V147.766L112.152 149.389L112.539 150.026L112.687 151.22L112.918 151.712L113.432 151.453V149.362L113.966 148.829L114.777 149.058H115.246V147.74L116.359 148.564L116.101 149.598H115.588V150.126L115.024 150.692L115.846 151.72L116.359 151.995L115.575 152.534L114.803 153.567V154.082L115.575 154.857H116.041L116.359 155.399H116.873L117.01 156.308L117.67 156.479L117.902 156.197H118.452V155.422L119.297 154.894L119.524 155.121H121.098L121.675 155.166L121.893 156.173L121.625 156.997V157.809L122.004 157.87L122.151 158.3L121.675 158.374L121.441 158.792L121.907 162.529L122.225 163.118L123.463 162.835V163.34L122.936 164.175V164.754L123.449 164.434L124.271 165.428H124.797L125.556 164.95V165.724L125.016 165.983L124.516 166.805L123.726 167.059L122.899 167.606L123.168 168.626L124.821 168.65L125.556 168.354L126.914 167.333L128.678 167.051L128.955 167.598L129.918 167.191V166.522H129.302L128.973 165.737H134.212L135.547 167.04L136.429 167.064L137.164 165.737L140.054 166.794L140.876 166.266V164.936L141.352 163.906H142.419L142.65 163.351V162.294H142.1L141.879 161.495L142.355 160.734V159.873L142.711 158.631H144.535L145.528 159.135V159.934L146.336 160.697H146.95V159.786L147.671 160.462L148.748 159.923H149.264L149.556 160.452L150.285 160.703L150.572 163.586L149.801 164.162L150.28 165.428L149.238 166.818V167.333L150.28 168.108V169.165L149.227 169.976V170.727L149.801 171.562L161.838 171.821V172.854H161.153V173.383L162.109 173.885L163.21 174.992L165.084 175.238L166.124 175.975L166.603 176.565L168.512 175.521L169.81 173.935H170.595L171.685 174.44V173.111H172.443V172.645L173.667 171.808V170.481L175.347 170.959L176.229 171.808L177.427 171.501L178.224 172.619H178.738V171.538L180.073 170.222L183.735 170.505V171.279L185.351 172.349L185.852 173.137L186.097 174.76L186.599 175.016L187.458 174.451L189.269 174.194H191.18L192.197 173.211V172.363L192.979 171.525H194.853L195.385 172.061H196.127V171.033L197.449 169.707H198.234V170.222H199.579L200.032 170.714H200.595L200.558 159.381L199.837 159.001L200.706 158.092H202.188L204.271 157.058V156.479L202.212 156.469L203.241 154.92V154.328H202.42V153.271L201.367 152.24V150.911H200.903L201.675 149.093L200.877 148.805V148.295L202.973 147.446L204.271 145.908V145.406H203.755L203.449 142.996Z" fill="#C1B59B"/>
<path d="M79.8645 119.16H78.9694L78.1743 120.008H76.3129L75.8232 120.55H74.9886L74.7569 120.243V119.493L74.4989 118.962L73.2378 118.705L71.1079 118.94L70.2628 117.883H69.7599L69.1596 118.422H68.1565L66.3189 117.133H66.0635L65.8186 117.931L65.5238 118.399V118.695L66.0556 119.226V120.27L65.2552 120.833L65.0156 122.122V123.182L65.4922 124.226L65.2736 124.519V124.768L66.1451 125.304L66.8428 126.087L67.3667 127.672L66.8533 128.19V128.465L67.422 128.991V129.535L69.5072 132.974L69.8047 134.261L70.7841 134.3L71.6108 136.074L71.3343 137.419L71.8767 138.238L73.7038 139.298L73.7328 139.842L74.6779 141.65L74.7701 142.202L77.3766 145.133H77.6714L79.5091 147.255L80.0225 147.776L80.757 147.998L81.5653 149.068L81.797 150.419H82.3499L82.5947 151.429L83.7321 153.051L84.0033 153.247L84.1981 152.792H84.4666V153.321L84.9827 154.365L85.7646 154.119L86.0726 154.365H86.8809V155.681L87.0889 156.455V156.923L87.3706 157.29H87.9077V157.007L87.6339 156.733V155.977L87.9077 155.694H88.4237L88.7291 155.385V154.93H88.2026L87.6549 154.629L87.4022 153.836L87.9209 153.308L86.5887 152.782L86.3412 152.523L87.131 152.25V151.722L86.3333 151.204H86.07L85.5645 151.711L85.7988 152.237H85.2933L85.0011 151.724H84.5035L84.2376 151.455V150.398L84.8221 150.644L85.0327 150.39L84.7431 150.136V149.882H85.009L85.2723 149.346L85.5434 148.965L85.0195 148.825L84.2376 149.343L84.2429 149.882L83.7189 150.393V149.888L83.4241 149.351L83.453 148.55L82.9133 147.803L81.9971 147.232L81.6022 147.499L80.528 145.95V145.379L80.2858 144.832L80.8123 144.845L81.3758 145.387V146.172L82.1472 146.153L82.9186 145.633L83.1871 145.11L83.1766 144.058L82.9133 143.801H82.6553L82.3867 144.052L81.6074 144.33L81.0809 144.28L79.4907 144.071L79.7724 143.001L80.8176 142.197L80.8071 141.28L81.3336 140.352V139.811L80.8071 139.018L80.7992 137.44L79.7592 135.595L78.9562 134.552L78.1585 133.471V129.776L78.4613 128.476L78.1664 127.434L78.6903 126.346L78.8009 124.451L80.5148 121.721L81.0098 120.346L81.2941 117.701L81.0704 116.979L79.8645 119.16Z" fill="#C1B59B"/>
<path d="M128.476 141.695L127.942 140.59L128.676 140.091V138.238L127.905 137.731H126.372L125.841 136.393L127.125 135.104L128.2 134.554V133.238H127.663L127.152 132.144V131.129L126.367 130.038L125.564 130.844L125.196 129.25L122.91 129.02L122.413 125.793L121.394 125.286V124.252L119.777 122.64L120.549 119.21V118.177L122.139 117.661L121.891 116.335L123.719 114.471L122.918 112.894V111.022L123.719 110.719V109.981L122.431 108.903L121.339 106.276H120.346L119.511 107.04L119.016 105.224L120.578 102.32L119.759 101.5L120.578 99.9412L120.043 98.5617V96.7619L119.282 94.9093L116.573 91.2014L114.204 91.4419L113.975 91.2014L117.152 88.8335L120.043 84.5918V83.2915L117.674 76.1189L118.142 74.0179L116.573 71.9116L113.754 71.3804L110.778 71.1504V70.3021L108.185 69.0098L107.095 69.5119L107.387 70.3232L108.722 70.865V71.3751L107.922 71.9089L108.19 74.0311H107.137L106.842 74.5649H105.294V73.4946L103.188 71.6446H102.385L101.872 72.1732L100.906 71.9089L99.5075 72.1811L98.9389 73.2118L98.1806 72.6912H97.6462L97.1328 73.4893L97.1143 74.8239H95.8111L95.2661 75.6829V77.2025L96.0744 78.0138L95.7979 80.3606H95.0818L96.0744 81.423L97.6646 80.6381L98.744 82.7629V85.1124L97.396 87.2266V88.8123L97.8989 92.795L98.436 93.5694L98.4492 95.6836L99.2706 96.7513L97.1749 99.5923L94.9712 104.386L91.8672 106.265V106.802L92.1068 107.053H94.005L95.045 107.299V108.884H94.7633L94.2499 109.18L94.2367 111.834L94.7501 112.093V112.635H93.7233V113.655L94.7633 114.712L94.4578 115.005H93.955V115.51L94.2051 115.761H94.4947H94.9844L95.2766 116.076V116.604L95.8032 117.133L96.0612 117.611L95.8164 117.931L96.3666 118.399H96.8642L98.1622 118.85L97.9463 120.225V122.4L97.3408 122.677H96.3666L96.0744 122.085V120.759L95.5689 120.04L94.7132 119.173H94.0155L93.4653 119.469L92.8966 119.984L92.399 120.28L92.1252 121.055V121.57L93.2257 122.677H93.668V123.433L94.4763 123.708H95.1187L95.8164 123.948H96.8563V125.553L96.3561 125.812V124.802H95.8164V125.576H95.5689L95.0213 125.812L94.7501 126.131V127.138H95.2661V127.408L95.8295 127.95L96.3429 128.209H97.1143V128.737H97.9595L97.6409 127.936H97.3829V126.364L97.9226 126.131V127.371L98.4492 127.704V128.182L98.7309 128.454H99.2206L99.7708 128.209L100.005 128.441V128.737L99.7708 129.007L99.526 129.276L98.9889 129.781V130.051H99.2443V130.347H99.7708L100.308 130.587H100.832V131.092H100.308V131.869L101.869 133.463L102.677 134.789L103.183 135.326H103.715V135.601L103.449 135.849V137.178L103.962 137.419H104.239V137.979L105.018 138.772L105.579 139.589L105.808 139.842H106.598V138.783H106.342V137.971L104.744 135.886L104.497 134.826H104.247V133.74L105.055 133.196L105.313 132.955L105.56 133.489L105.571 133.767V134.818L105.845 135.067V135.582H106.103V136.375L106.598 137.186L107.103 137.453V138.228H107.627L107.416 138.534V140.313L108.804 140.987L109.767 140.091L110.347 138.698H111.605V137.464H112.421L113.451 136.671H113.983L114.507 137.704V138.238H116.105L118.969 137.741L119.522 138.294L120.796 138.542V139.546L121.349 140.884L122.405 141.669V143.254L123.176 143.521L124.508 142.985V144.332L125.601 145.125H126.325L127.125 144.047V142.755L128.75 142.461L128.989 141.695H128.476Z" fill="#C1B59B"/>
<path d="M158.731 134.803V133.746H158.213L156.896 132.43V131.91H158.2L158.486 131.381L157.423 130.588L157.678 129.211V128.183L156.865 128.387L155.867 128.196L155.151 128.484L153.253 128.424L152.939 127.372L153.737 125.842L153.21 125.498L153.719 122.929L155.867 121.65L155.053 120.255H153.21V119.224L155.059 118.167H156.38L156.657 116.79L157.747 116.727L157.636 115.743L155.04 114.959L154.514 113.999L155.064 113.642L155.04 112.585L155.898 111.983L155.127 111.013L153.729 110.532L153.202 111.626L152.176 112.081L151.612 110.754L147.129 111.023L146.615 109.66H145.82L145.354 110.212L144.767 109.451V108.64L143.946 108.087L143.443 107.041H144.559V105.997L142.832 105.236V104.226L141.668 103.367L140.273 101.903V99.4691L138.496 97.294L137.922 95.9541L138.717 95.4494L139.257 95.9674L139.525 95.156L138.693 94.564H138.204L137.677 92.8198L137.687 90.9645H136.953L136.648 89.8704L133.72 88.0495V86.9924L132.656 85.9247L131.1 82.4705L130.805 80.6391L131.614 79.5687L132.667 80.9086V81.979L133.438 82.7269H134.799L135.326 81.9288V80.8954L135.876 79.3097L135.497 78.5248L135.252 77.1717L136.611 76.9391L137.701 77.7135L138.814 77.4783L140.347 76.3604V75.5992L141.229 74.7139L139.733 73.7043V73.189L140.786 72.8084L140.541 71.3575L139.746 70.2634L139.035 69.785L137.114 70.3242L136.574 68.9235L135.558 67.9034H133.464V68.9605L132.962 69.7718H131.798L130.121 71.0615L129.276 70.3136V69.2565L128.836 68.8125H127.401V69.3173L126.693 69.8088L126.361 69.1931L125.284 69.7348V68.8759L126.361 67.4118L127.683 67.0682V66.3547H128.994V64.51L130.574 63.2071V62.3852L131.1 61.8434L130.819 60.5405L129.839 59.8269L129.007 60.5273V61.8434H125.835L124.782 60.5273L125.848 60.0119L126.338 59.1266L125.284 58.4025L126.116 56.0292L127.954 54.9589L127.659 51.7875H128.725L129.289 51.0634L129.765 51.8377V52.8949L130.708 53.6454L131.137 52.8949H132.153L133.464 52.0835V51.296H132.411L132.938 49.4645L131.59 49.0971L131.614 47.633H132.693V46.3936L131.909 45.7514H131.369L131.092 47.0675L130.587 47.3397H129.068L128.186 46.5468L128.462 45.7434V44.4299H127.951L127.425 44.6757V45.2043H126.093L125.556 44.1498H125.037V43.6318L125.574 43.0927H126.101V42.0514L126.877 41.5229V40.9969H126.359L125.311 40.1988H123.979L123.476 39.4139L123.865 38.1929L123.402 37.8097V37.4001H124.526V36.7552L123.994 35.7087H123.465V36.2478H122.681L122.417 34.9158L121.356 34.6568L120.559 34.123H119.787V34.6621L119.263 35.1273H118.721V34.6542H117.381L117.146 35.6955L116.87 36.4645L117.141 39.406L116.078 39.6465L115.825 40.4657H114.53L114.264 39.1575L113.468 38.6211V37.3076H112.697V38.074L111.631 38.3647L110.836 38.1268L110.617 38.3462V39.1575H109.78L109.243 38.6184L107.384 38.0793V37.2864L105.531 36.7737L104.491 38.0449L103.714 38.2986L102.893 38.0449V37.1807L103.922 35.7034V34.5776H104.512L104.896 34.9608V35.5025H106.265L106.879 35.0585V34.1494L107.539 33.6816H108.2L107.955 31.985L110.578 28.8876V28.0762L111.705 27.5847L113.466 27.0456L114.69 24.4397H115.354V23.2584L118.071 22.9624L117.849 22.1273L118.315 20.8984L117.849 20.383L119.442 19.1039H120.374L121.009 19.7197L122.062 19.1277L122.749 19.9153L123.607 20.2588L124.513 19.5955L124.805 18.4644L125.858 18.1446V15.9828L126.938 15.589L127.109 13.8183L126.324 14.0641V13.007L127.599 11.2865L130.513 9.17224L130.121 6.54264L128.259 6.44221L126.79 5.28731L128.209 3.41884L128.699 2.04194L128.173 1.13281H1.13281L1.70149 1.64816L4.97141 3.34484L5.46111 5.85287L17.1928 18.0706L18.1222 22.4841L17.8852 24.6036H18.4355L25.3149 19.2863H28.1426L29.1799 12.9515L30.5042 13.2369L31.8443 11.6248L30.4936 10.0655L32.1023 8.99781L34.4718 8.73882L39.761 5.58595L42.6624 7.9169L44.7765 10.8398V12.7295L43.9208 13.5223L44.995 14.5741L44.5106 15.367L45.5374 16.6937L48.4229 17.2117V18.5489L49.7446 19.8756H50.5239L51.5638 21.6912V23.2875L53.1514 25.407L57.6692 28.5863L62.3819 34.3952L61.6 35.4285L68.0108 46.0473L74.7429 59.2323L73.4581 61.6003L74.4954 62.1368L76.8649 62.4116V63.7119L76.341 63.9894L76.075 66.101L78.692 67.1502L78.9579 69.2723V71.3813H82.1357L87.0643 75.2055L90.4685 76.0776L92.4036 78.0015L93.9569 78.242L94.3466 80.3616H95.8025L96.0789 78.0148L95.2707 77.2034V75.6838L95.8157 74.8249H97.1189L97.1373 73.4903L97.6507 72.6921H98.1852L98.9434 73.2128L99.5121 72.1821L100.91 71.9099L101.876 72.1741L102.39 71.6456H103.193L105.299 73.4956V74.5659H106.847L107.142 74.032H108.195L107.926 71.9099L108.727 71.376V70.866L107.392 70.3242L107.1 69.5128L108.19 69.0107L110.783 70.303V71.1514L113.758 71.3813L116.578 71.9125L118.147 74.0188L117.678 76.1199L120.048 83.2924V84.5927L117.157 88.8344L113.979 91.2024L114.208 91.4429L116.578 91.2024L119.287 94.9102L120.048 96.7628V98.5626L120.582 99.9421L119.763 101.501L120.582 102.321L119.021 105.225L119.516 107.041L120.351 106.277H121.343L122.436 108.904L123.723 109.982V110.72L122.923 111.023V112.895L123.723 114.472L121.896 116.335L122.144 117.662L120.553 118.178V119.211L119.782 122.641L121.398 124.253V125.287L122.417 125.794L122.915 129.021L125.2 129.251L125.569 130.844L126.372 130.038L127.156 131.13V132.145L127.667 133.239H128.204V134.555H129.02L129.908 134.819L130.574 133.495L131.598 133.754V134.552L130.832 135.068L131.374 136.386L130.84 136.931L130.834 137.972H132.414V137.446L132.948 136.931L133.457 137.185V139.027L133.981 139.566L134.799 138.517H135.323V139.59H135.837L136.916 138.511L137.416 137.174H138.996L140.878 135.224H144.52V139.04L146.102 138.511L147.437 137.206V136.402L148.745 135.583V134.809H150.301L150.596 133.76L151.373 133.231L153.202 134.024L153.479 136.402H155.58L155.862 136.936H158.5L159.003 136.138L158.157 135.332L158.731 134.803Z" fill="#C1B59B"/>
<path d="M225.335 147.753V146.701H224.551V145.871L225.211 145.379V144.568L224.827 143.529L223.787 143.273V142.745L224.295 142.467V141.822H223.492L223.247 140.622L221.926 141.391L221.686 140.107L220.854 139.555L221.686 139.198L221.404 138.49L220.112 138.244L220.328 136.666L218.503 135.326V134.816L217.187 134.798L217.474 136.407L217.197 136.912L215.876 135.331L215.607 135.609H214.823L213.793 133.653V132.977L213.488 132.448H210.315L209.423 131.772V131.034L208.957 129.805H207.99L207.769 129.573L208.259 129.031L207.488 128.183L207.646 127.741L209.312 128.566L209.668 127.398L208.73 126.142H207.811L207.959 124.908H207.077L206.8 124.406V116.845L204.95 115.125L204.436 115.904L201.953 116.02V116.84L200.355 117.376V115.524L198.789 115.273L199.684 114.467L199.302 113.544H197.981V111.803L197.167 112.075V113.272L194.045 113.666V112.577L191.496 111.821L190.311 108.922L190.867 107.069L188.239 104.408L187.341 105.46L186.641 104.958V103.105L184.29 100.46L183.213 100.187L182.418 98.3295L180.32 97.8089L178.582 94.8859L177.187 95.951L175.581 94.138L174.262 94.6402V93.5804H175.052V90.9482H174.546L174.272 91.7331H173.733L172.677 89.8672L172.959 89.381V88.2921H172.174L171.526 89.0876L170.436 88.826V87.9195L170.852 87.2244L170.344 85.9242L169.32 85.1313L168.428 85.615L167.156 85.1155L166.893 83.8205H165.595L165.06 81.9415L164.539 81.6877V80.3637L165.068 79.0449H166.111L166.645 77.0734L167.222 77.4593H168.23L168.485 76.6611L167.682 76.4074V75.0966H168.485V73.7646L166.911 73.2572L166.611 71.9279L167.282 70.9844L166.898 70.0673H166.116V68.6138L165.587 68.2226V67.6782L166.116 67.1497L165.589 65.0196L164.531 64.7711L163.744 63.4444L164.257 61.5945L162.425 59.9982V59.2107L161.648 58.4257V57.6382L162.696 57.3686V56.5996L162.162 54.4668L161.638 53.4097L160.361 53.6925V52.8891H159.526L158.726 51.565V50.2436L156.804 49.937L156.899 48.3857L156.359 46.3455L155.84 45.3993L154.829 46.1023L153.458 44.9527L153.723 43.375H152.16L151.886 42.8438H150.314V43.6234H148.453L146.899 45.2143L146.104 44.6964L145.575 46.2662H144.798L143.987 43.9009L142.181 43.3723L141.347 44.1493V45.0822L139.522 44.6858V45.7561L138.88 46.3058L138.214 44.9606L135.054 44.6884L134.778 43.264L133.593 43.6762L132.811 43.1186L131.613 43.3644L131.358 44.2154L131.908 44.6937V45.7508L132.693 46.393V47.6325H131.613L131.59 49.0966L132.938 49.464L132.411 51.2955H133.464V52.083L132.153 52.8944H131.137L130.708 53.6449L129.765 52.8944V51.8372L129.289 51.0629L128.725 51.787H127.659L127.954 54.9584L126.116 56.0287L125.284 58.402L126.337 59.1261L125.848 60.0114L124.781 60.5268L125.834 61.8429H129.007V60.5268L129.839 59.8264L130.818 60.54L131.1 61.8429L130.573 62.3847V63.2066L128.994 64.5095V66.3542H127.683V67.0677L126.361 67.4113L125.284 68.8754V69.7343L126.361 69.1926L126.693 69.8083L127.401 69.3168V68.812H128.836L129.275 69.256V70.3131L130.121 71.061L131.798 69.7713H132.961L133.464 68.96V67.9029H135.557L136.573 68.923L137.113 70.3237L139.035 69.7845L139.746 70.2629L140.541 71.357L140.786 72.8079L139.733 73.1885V73.7038L141.228 74.7134L140.346 75.5987V76.3598L138.814 77.4778L137.7 77.713L136.61 76.9386L135.252 77.1712L135.497 78.5243L135.876 79.3092L135.326 80.8949V81.9282L134.799 82.7264H133.438L132.666 81.9785V80.9081L131.613 79.5682L130.805 80.6386L131.1 82.47L132.656 85.9242L133.72 86.9919V88.049L136.647 89.8699L136.953 90.964H137.687L137.677 92.8193L138.203 94.5635H138.693L139.525 95.1555L139.256 95.9668L138.717 95.4489L137.921 95.9536L138.495 97.2935L140.273 99.4686V101.903L141.668 103.367L142.832 104.226V105.235L144.559 105.996V107.04H143.442L143.945 108.087L144.767 108.639V109.45L145.354 110.212L145.82 109.659H146.615L147.128 111.023L151.612 110.753L152.175 112.08L153.202 111.625L153.729 110.531L155.127 111.012L155.898 111.982L155.04 112.585L155.064 113.642L154.513 113.999L155.04 114.958L157.636 115.743L157.746 116.726L156.656 116.79L156.38 118.166H155.058L153.21 119.224V120.254H155.053L155.867 121.65L153.718 122.929L153.21 125.498L153.737 125.841L152.939 127.371L153.252 128.423L155.15 128.484L155.867 128.196L156.864 128.386L157.678 128.183V129.211L159.229 129.787L159.529 131.158L160.606 130.593L162.18 131.901L163.978 130.561L165.595 130.588L166.134 131.38L168.73 131.367L169.515 134.552L171.84 133.741L172.698 134.214L175.589 133.519L176.642 134.539L177.792 136.986H178.508L180.338 135.707V135.062L181.789 135.947L184.014 134.79V133.764L185.354 133.733V134.288H186.883L187.926 135.091L191.112 134.837L191.372 133.748H192.955L195.874 131.454L196.167 134.005L197.178 133.759L199.031 134.029L199.534 134.552V135.865H198.776L198.212 136.685L199.502 138.244H200.605L200.882 139.319H202.198L202.98 140.371H204.568L205.876 142.221H206.392V142.745L206.929 144.084H207.682L209.044 144.994L210.842 144.317L211.65 145.369H213.501V146.18L213.769 146.696L215.317 146.437V145.903L215.912 144.851H216.36L216.923 145.633V146.32H217.455L218.508 146.992V148.017L218.753 148.551L218.227 148.797V150.395L219.58 151.471L218.495 152.338L219.03 152.761L219.303 153.836H220.191L220.938 154.28L222.157 153.062L223.498 152.816L224.577 152.005L225.641 150.395V149.079L226.388 148.527V148.086H225.667L225.335 147.753Z" fill="#C1B59B"/>
<path d="M128.171 1.13281L128.697 2.04194L128.207 3.41884L126.788 5.28731L128.257 6.44221L130.119 6.54264L130.511 9.17224L127.597 11.2865L126.322 13.007V14.0641L127.107 13.8183L126.936 15.589L125.856 15.9828V18.1446L124.803 18.4644L124.511 19.5955L123.605 20.2588L122.747 19.9153L122.06 19.1277L121.007 19.7197L120.372 19.1039H119.44L117.847 20.383L118.313 20.8984L117.847 22.1273L118.069 22.9624L115.352 23.2584V24.4397H114.688L113.464 27.0456L111.703 27.5847L110.576 28.0762V28.8876L107.953 31.985L108.198 33.6816H107.537L106.877 34.1494V35.0585L106.263 35.5025H104.894V34.9608L104.51 34.5776H103.92V35.7034L102.891 37.1807V38.0449L103.712 38.2986L104.489 38.0449L105.529 36.7737L107.382 37.2864V38.0793L109.241 38.6184L109.778 39.1575H110.615V38.3462L110.834 38.1268L111.629 38.3647L112.695 38.074V37.3076H113.467V38.6211L114.262 39.1575L114.528 40.4657H115.823L116.076 39.6465L117.139 39.406L116.868 36.4645L117.145 35.6955L117.379 34.6542H118.719V35.1273H119.261L119.785 34.6621V34.123H120.557L121.354 34.6568L122.415 34.9158L122.679 36.2478H123.463V35.7087H123.992L124.524 36.7552V37.4001H123.4V37.8097L123.863 38.1929L123.474 39.4139L123.977 40.1988H125.309L126.357 40.9969H126.875V41.5229L126.099 42.0514V43.0927H125.572L125.035 43.6318V44.1498H125.554L126.091 45.2043H127.423V44.6757L127.949 44.4299H128.46V45.7434L128.184 46.5468L129.066 47.3397H130.585L131.09 47.0675L131.367 45.7514H131.907V44.6942L131.356 44.2159L131.612 43.3649L132.81 43.1191L133.592 43.6767L134.776 43.2645L135.053 44.6889L138.212 44.9611L138.878 46.3063L139.521 45.7566V44.6863L141.345 45.0827V44.1498L142.18 43.3728L143.986 43.9014L144.797 46.2667H145.573L146.103 44.6969L146.898 45.2149L148.451 43.6239H150.312V42.8443H151.884L152.158 43.3755H153.722L153.456 44.9532L154.828 46.1028L155.839 45.3999L156.357 46.346L156.897 48.3862L156.802 49.9376L158.724 50.2441V51.5655L159.524 52.8896H160.359V53.693L161.636 53.4102L162.16 54.4673L162.694 56.6001V57.3691L161.646 57.6387V58.4263L162.423 59.2112V59.9987L164.256 61.595L163.742 63.445L164.529 64.7716L165.588 65.0201L166.114 67.1502L165.585 67.6787V68.2232L166.114 68.6143V70.0678H166.896L167.281 70.9849L166.609 71.9284L166.909 73.2577L168.484 73.7651V75.0971H167.681V76.4079L168.484 76.6616L168.228 77.4598H167.22L166.644 77.0739L166.109 79.0454H165.066L164.537 80.3642V81.6883L165.059 81.942L165.593 83.821H166.891L167.154 85.116L168.426 85.6155L169.318 85.1318L170.343 85.9247L170.851 87.2249L170.435 87.92V88.8265L171.525 89.0881L172.172 88.2926H172.957V89.3815L172.675 89.8678L173.731 91.7336H174.271L174.544 90.9487H175.05V93.5809H174.26V94.6407L175.579 94.1385L177.185 95.9515L178.581 94.8864L180.318 97.8094L182.417 98.33L183.212 100.188L184.288 100.46L186.64 103.106V104.958L187.34 105.46L188.238 104.408L190.865 107.07L190.31 108.922L191.494 111.822L194.043 112.577V113.666L197.165 113.272V112.075L197.979 111.803V113.545H199.301L199.682 114.467L198.787 115.273L200.354 115.524V117.377L201.952 116.84V116.021L204.435 115.905L204.948 115.125L206.799 116.846V1.13281H128.171Z" fill="#C1B59B"/>
<path d="M169.513 212.711V212.01L169.844 211.677H170.561L170.321 211.273L169.255 210.591V209.761L168.152 209.061V209.539L168.446 209.891V210.388H168.207L167.749 210.184L165.827 207.75L166.303 206.791L165.348 205.562L163.181 203.559L161.088 202.465L158.75 201.923L158.223 201.664L157.939 201.682L157.965 201.701L157.133 201.148L156.08 200.337L155.272 199.55L153.766 197.472L152.945 196.894V196.378L153.458 196.658H153.716L154.011 196.378V195.85L153.497 195.297H152.91V194.819L151.881 193.971V193.492L150.57 192.657V191.883L150.062 191.093L150.32 190.577L150.062 190.025L148.74 188.743V188.18L148.464 187.408L148.169 187.12V186.336L147.884 185.783L146.855 185.027L146.165 185.212L144.567 185.313L144.017 184.768H142.382L141.655 183.983L140.544 183.457H139.533L139.251 183.177H136.642L136.384 182.686H134.989L133.715 182.144H132.675L131.535 181.309H129.918V180.868L128.57 180.278L126.588 178.716L124.213 177.39L122.204 176.769L121.496 176.058H119.829L118.8 176.568L117.623 177.355H116.375L115.641 177.625L116.075 178.362L116.599 178.529L116.636 179.459L117.131 179.966L117.426 181.248L118.189 182.078L118.971 182.889L119.824 183.204L119.75 182.614L119.795 182.107L120.301 182.374V182.871L121.238 182.789L121.714 183.23L121.117 184.227L120.29 185.009L120.548 185.82L121.072 185.812L121.349 185.26H121.872L122.13 185.582V186.293L122.71 186.616V187.411L121.08 188.727V189.517L122.183 190.02L123.665 188.999L124.242 188.986L125.6 189.811H126.066L126.888 190.561L127.941 190.302L128.186 189.319L127.891 188.484L128.16 188.471L128.441 188.74L128.773 189.232L129.41 189.354L129.766 188.973L130.268 188.96L130.282 189.515L129.034 190.323L129.242 190.828L129.768 190.804V191.137L128.739 191.629L128.984 192.686L129.779 193.484H131.09V192.919L131.566 193.215H131.872V192.686L132.14 192.427L132.372 193.225L132.941 192.837L132.885 191.603L133.425 191.899L133.638 192.802L133.07 193.484L131.869 194.013L132.138 194.518H132.896L132.956 194.785L132.148 195.337L131.89 196.13L132.459 196.656H132.946L133.222 196.915V197.441L134.241 197.966L134.747 197.959L135.297 196.917V196.391L135.555 196.124H136.116L136.898 195.562V195.091L136.632 194.547H137.377L137.661 195.303L136.898 196.122L136.879 196.674L137.661 196.904L137.946 196.645L138.743 196.83L138.504 197.19L138.154 197.449H137.685L137.143 197.171L136.087 198.231L136.634 199.822H137.672V200.625L138.749 201.659H138.993L139.238 201.154L138.993 200.612L139.251 200.097L139.773 200.884L140.341 201.413L139.773 201.672V201.949L140.031 202.446V202.975L141.097 203.516V202.264L140.821 201.968L141.042 201.323L141.61 202.19H142.179V201.674L142.637 201.767V202.689L141.903 203.205V203.757H142.379L142.985 202.977L143.206 203.26H143.664L143.94 202.726L144.254 203.556H144.749V205.142L145.317 205.676V206.653L147.229 209.087L147.632 209.106L148.79 207.98V207.243H149.793V208.551H150.572L150.867 208.017H152.007L152.394 207.758L153.166 208.017L153.018 208.532L151.641 210.118L151.31 210.948L151.604 211.722L152.945 212.719L154.506 213.271L155.791 214.653L156.599 214.875L158.215 214.894L158.492 215.687L159.813 215.964L164.552 218.047L166.187 218.306L167.435 218.876H168.225L168.52 218.562V218.102L169.31 216.995H169.786V217.365L170.189 217.825L171.274 217.751L171.403 216.569L170.3 212.716H169.51L169.513 212.711Z" stroke="#736C5D" stroke-linecap="round" stroke-linejoin="round"/>
<path d="M269.843 205.382L269.09 204.848H267.758L267.281 203.522L264.59 200.876V200.35L265.399 199.558V198.498L264.058 198.765L263.498 197.446L264.085 196.894V196.138H264.819V193.741L264.535 192.155V190.339L263.782 189.51V187.969L263.524 186.605L262.974 185.839L263.25 185.286L262.231 184.467V183.719L260.625 181.322L259.836 180.778L259.322 181.597L258.377 182.067L257.469 180.823V178.941L255.613 178.415L254.299 175.77V174.985L253.232 173.666H252.451L252.716 172.847L249.768 172.08L250.118 171.002L249.841 170.217L247.996 169.398V168.901H246.93L246.672 168.1V166.514L245.616 165.73V164.937L244.818 163.377L243.523 162.852V161.773L242.98 161.239V160.309H241.696L241.153 162.014H239.821L239.574 160.188L239.042 159.654V158.575L238.27 158.298L237.417 157.027L236.109 155.705L235.864 153.517L235.079 154.389L232.936 154.635L232.239 153.824V153.282H230.88L230.34 152.804L230.119 151.992L231.159 151.168L231.612 150.333L231.122 149.582H230.106L228.258 148.01L227.708 148.797L227.684 149.645L225.646 150.396V149.08L226.394 148.528V148.086H225.672L225.341 147.753V146.701H224.556V145.872L225.217 145.38V144.569L224.83 143.53L223.79 143.271V142.742L224.298 142.465V141.82H223.495L223.25 140.623L221.929 141.392L221.689 140.108L220.857 139.555L221.689 139.198L221.407 138.493L220.115 138.247L220.328 136.667L218.503 135.327V134.817L217.187 134.798L217.474 136.408L217.198 136.912L215.876 135.332L215.607 135.609H214.823L213.793 133.654V132.977L213.488 132.449H210.315L209.42 131.772V131.035L208.954 129.806H207.988L207.767 129.573L208.257 129.032L207.485 128.183L207.643 127.742L209.31 128.566L209.665 127.398L208.728 126.146H207.809L207.956 124.911H207.075L206.798 124.409V1.13281H1.13281L1.70149 1.64816L4.97141 3.34484L5.46111 5.85287L17.1928 18.0706L18.1222 22.4841L17.8826 24.6036H18.4328L25.3123 19.2836H28.1399L29.1772 12.9488L30.4989 13.2342L31.839 11.6221L30.4884 10.0629L32.0944 8.99253L34.4639 8.73353L39.7531 5.58066L42.6545 7.91426L44.766 10.8372V12.7268L43.9129 13.5197L44.9871 14.5715L44.5 15.3643L45.5295 16.691L48.4124 17.2064V18.5436L49.734 19.8703H50.516L51.5533 21.6859V23.2795L53.1408 25.3991L57.6587 28.5784L62.3714 34.3873L61.5895 35.4206L68.0003 46.0421L74.7323 59.2244L73.4475 61.595L74.4848 62.1288L76.8543 62.4063V63.7066L76.3304 63.9841L76.0645 66.0957L78.6815 67.1475L78.9474 69.2671V71.3787H82.1252L87.0537 75.2028L90.4579 76.0749L92.393 77.9989L93.9464 78.2394L94.336 80.3589H95.0758L96.0684 81.4213L97.6612 80.6338L98.738 82.7612V85.1081L97.3901 87.2223V88.808L97.8929 92.7907L98.4326 93.565L98.4458 95.6793L99.2672 96.7496L97.1742 99.588L94.9705 104.382L91.8665 106.264V106.798L92.1061 107.049H94.0043L95.0443 107.294V108.88H94.7625L94.2491 109.176L94.236 111.832L94.7494 112.091V112.633H93.72V113.653L94.7599 114.71L94.4545 115.006H93.9516V115.511L94.2018 115.762H94.9784L95.2733 116.076V116.605L95.7999 117.134L96.0579 117.612L95.813 117.932L96.3633 118.4H96.8582L98.1562 118.851L97.9429 120.223V122.398L97.3374 122.676H96.3633L96.0684 122.086V120.76L95.5629 120.041L94.7099 119.174H94.0122L93.4619 119.47L92.8933 119.985L92.3983 120.281L92.1219 121.056V121.571L93.225 122.678H93.6647V123.434L94.4729 123.712H95.1153L95.813 123.952H96.853V125.556L96.3501 125.815V124.808H95.8104V125.583H95.5629L95.0153 125.815L94.7467 126.135V127.142H95.2601V127.411L95.8236 127.953L96.3369 128.212H97.1084V128.741H97.9535L97.6349 127.943H97.3769V126.37L97.9166 126.138V127.38L98.4432 127.713V128.191L98.7249 128.461H99.2146L99.7648 128.215L99.9965 128.447V128.743L99.7648 129.013L99.52 129.283L98.9803 129.787V130.057H99.2383V130.353H99.7648L100.299 130.593H100.823V131.101H100.299V131.875L101.861 133.469L102.669 134.796L103.174 135.329H103.706V135.607L103.44 135.855V137.182L103.954 137.422H104.23V137.985L105.012 138.778L105.573 139.595L105.802 139.849H106.592V138.789H106.334V137.977L104.736 135.895L104.488 134.835H104.241V133.746L105.049 133.202L105.307 132.961L105.554 133.495L105.562 133.773V134.825L105.839 135.073V135.588H106.097V136.381L106.592 137.193L107.097 137.459V138.234H107.621L107.41 138.538V140.316L108.798 140.99L108.448 142.428L108.743 143.48L110.457 145.2L111.023 145.398L111.354 144.883H111.705L112.144 146.154L112.242 147.034L111.623 146.715H111.354V147.772L112.144 149.394L112.531 150.034L112.679 151.226L112.91 151.717L113.424 151.458V149.368L113.956 148.834L114.766 149.064H115.235V147.745L116.349 148.57L116.091 149.603H115.577V150.132L115.014 150.697L115.835 151.725L116.349 152L115.564 152.542L114.793 153.575V154.091L115.564 154.865H116.03L116.349 155.407H116.862L116.996 156.316L117.657 156.488L117.889 156.205H118.439V155.431L119.284 154.902L119.511 155.129H121.085L121.662 155.172L121.883 156.178L121.614 157.003V157.814L121.993 157.875L122.141 158.306L121.664 158.38L121.433 158.797L121.899 162.534L122.217 163.124L123.455 162.841V163.346L122.928 164.181V164.76L123.441 164.44L124.263 165.436H124.789L125.548 164.958V165.732L125.008 165.991L124.505 166.816L123.715 167.067L122.889 167.614L123.157 168.634L124.811 168.658L125.545 168.362L126.904 167.342L125.6 168.327L126.095 168.645H126.622V169.16L126.082 169.712L124.784 169.958L123.718 169.712L123.186 170.505V171.002L124.179 171.998L125.074 172.263L124.505 171.557H126.072L126.622 172.062L125.827 172.075V172.331L126.377 172.641L126.082 172.886L125.556 173.93L126.082 174.472H126.548L126.927 175.297H127.662L128.42 175.529L129.215 176.317L130.587 177.091H131.003L131.59 176.576L132.13 176.306V175.727L132.706 174.768L133.22 174.755L133.686 174.977L133.491 175.764L134.225 176.034H135.265L136.392 175.26L136.653 175.558L136.11 176.074V176.848L136.653 177.091H137.682L138.978 176.576L139.28 176.832L140.244 176.914L140.023 177.918H141.089L141.639 177.355H141.879V177.918L140.547 178.933H140.07L139.786 179.485L140.062 179.707H140.568L140.815 179.496L141.881 180.313L141.342 181.087H140.607L140.068 181.592V182.157L140.349 182.673L140.876 182.918L142.627 183.016L143.73 182.646L144.514 182.818L144.796 183.717H145.799L146.607 183.447L148.187 183.46L149.559 183.976V185.009L149.79 185.598L150.833 186.066V186.618L151.618 187.416L152.684 186.901C152.881 186.962 153.11 187.147 153.11 187.147L153.476 187.903L154.598 188.973L154.977 190.355L155.156 191.185L157.891 193.5V194.275L158.223 194.557L158.75 194.742L160.071 195.049L160.574 195.332L161.909 196.658L163.47 198.226L163.965 198.926L164.866 199.774L167.125 200.419L168.165 201.156L168.997 200.86V199.066L171.616 197.713V196.952L171.911 196.423H172.93L172.166 197.197V198.223L171.677 198.757L171.872 199.827L171.1 201.45V202.2L171.677 202.459L171.664 203.271L172.398 204.315L172.661 206.429L173.243 206.994V207.922H270.864V206.955L269.835 205.388L269.843 205.382Z" stroke="#736C5D" stroke-linecap="round" stroke-linejoin="round"/>
<path d="M87.6549 154.63L87.4022 153.837L87.9209 153.309L86.5887 152.783L86.3412 152.524L87.131 152.251V151.723L86.3333 151.205H86.07L85.5645 151.712L85.7988 152.238H85.2933L85.0011 151.725H84.5035L84.2376 151.456V150.399L84.8221 150.645L85.0327 150.391L84.7431 150.137V149.883H85.009L85.2723 149.347L85.5434 148.966L85.0195 148.826L84.2376 149.344L84.2429 149.883L83.7189 150.394V149.889L83.4241 149.352L83.453 148.551L82.9133 147.804L81.9971 147.233L81.6022 147.5L80.528 145.951V145.38L80.2858 144.833L80.8123 144.846L81.3758 145.388V146.173L82.1472 146.154L82.9186 145.634L83.1871 145.111L83.1766 144.059L82.9133 143.802H82.6553L82.3867 144.053L81.6074 144.331L81.0809 144.281L79.4907 144.072L79.7724 143.002L80.8176 142.198L80.8071 141.281L81.3336 140.353V139.812L80.8071 139.019L80.7992 137.441L79.7592 135.596L78.9562 134.553L78.1585 133.472V129.777L78.4613 128.477L78.1664 127.435L78.6903 126.347L78.8009 124.452L80.5148 121.722L81.0098 120.347L81.2941 117.702L81.0703 116.98L79.8645 119.161H78.9694L78.1743 120.009H76.3129L75.8232 120.551H74.9886L74.7569 120.244V119.494L74.4989 118.963L73.2378 118.706L71.1079 118.941L70.2628 117.884H69.7599L69.1596 118.423H68.1565L66.3189 117.134H66.0635L65.8186 117.932L65.5238 118.4V118.696L66.0556 119.227V120.271L65.2552 120.834L65.0156 122.123V123.183L65.4922 124.227L65.2736 124.52V124.769L66.1451 125.305L66.8428 126.088L67.3667 127.673L66.8533 128.191V128.466L67.422 128.992V129.536L69.5072 132.975L69.8047 134.262L70.7841 134.301L71.6108 136.075L71.3343 137.42L71.8767 138.239L73.7038 139.299L73.7328 139.843L74.6779 141.651L74.7701 142.203L77.3766 145.134H77.6714L79.5091 147.256L80.0225 147.777L80.757 147.999L81.5653 149.069L81.797 150.42H82.3499L82.5947 151.429L83.7321 153.052L84.0033 153.248L84.1981 152.793H84.4666V153.322L84.9827 154.366L85.7646 154.12L86.0726 154.366H86.8809V155.682L87.0889 156.456V156.924L87.3706 157.291H87.9077V157.008L87.6339 156.734V155.978L87.9077 155.695H88.4237L88.7291 155.386V154.931H88.2026L87.6549 154.63Z" stroke="#736C5D" stroke-linecap="round" stroke-linejoin="round"/>
</g>
<defs>
<clipPath id="clip0_13898_193233">
<rect width="272" height="220" fill="white"/>
</clipPath>
</defs>
</svg>
