<svg xmlns="http://www.w3.org/2000/svg" width="16" height="16" viewBox="0 0 16 16">
  <path id="iconfinder_5279112_camera_instagram_social_media_instagram_logo_icon" data-name="iconfinder_5279112_camera_instagram_social media_instagram logo_icon" d="M8,0A8,8,0,1,1,0,8,8,8,0,0,1,8,0ZM8,3c-1.358,0-1.528.006-2.061.03a3.67,3.67,0,0,0-1.214.232A2.557,2.557,0,0,0,3.262,4.725,3.671,3.671,0,0,0,3.03,5.939C3.006,6.472,3,6.642,3,8s.006,1.528.03,2.062a3.671,3.671,0,0,0,.232,1.214,2.557,2.557,0,0,0,1.462,1.462,3.671,3.671,0,0,0,1.214.232c.533.024.7.03,2.061.03s1.528-.006,2.062-.03a3.671,3.671,0,0,0,1.214-.232,2.557,2.557,0,0,0,1.462-1.462,3.671,3.671,0,0,0,.232-1.214c.024-.533.03-.7.03-2.062s-.006-1.528-.03-2.061a3.671,3.671,0,0,0-.232-1.214,2.557,2.557,0,0,0-1.462-1.462,3.67,3.67,0,0,0-1.214-.232C9.528,3.006,9.358,3,8,3Zm0,.9c1.335,0,1.493.005,2.02.029a2.767,2.767,0,0,1,.928.172,1.656,1.656,0,0,1,.949.949,2.766,2.766,0,0,1,.172.928c.024.527.029.685.029,2.02s-.005,1.493-.029,2.02a2.766,2.766,0,0,1-.172.928,1.656,1.656,0,0,1-.949.949,2.766,2.766,0,0,1-.928.172c-.527.024-.685.029-2.02.029s-1.493-.005-2.02-.029a2.766,2.766,0,0,1-.928-.172,1.656,1.656,0,0,1-.949-.949,2.766,2.766,0,0,1-.172-.928C3.906,9.493,3.9,9.335,3.9,8s.005-1.493.029-2.02A2.766,2.766,0,0,1,4.1,5.051,1.656,1.656,0,0,1,5.051,4.1,2.767,2.767,0,0,1,5.98,3.93C6.507,3.906,6.665,3.9,8,3.9ZM8,5.432A2.568,2.568,0,1,0,10.568,8,2.568,2.568,0,0,0,8,5.432ZM8,9.667A1.667,1.667,0,1,1,9.667,8,1.667,1.667,0,0,1,8,9.667Zm3.269-4.336a.6.6,0,1,1-.6-.6A.6.6,0,0,1,11.269,5.331Z" fill="#eef1f5" fill-rule="evenodd"/>
</svg>
