<svg xmlns="http://www.w3.org/2000/svg" width="32" height="32" viewBox="0 0 32 32">
  <path id="iconfinder_5279112_camera_instagram_social_media_instagram_logo_icon" data-name="iconfinder_5279112_camera_instagram_social media_instagram logo_icon" d="M16,0A16,16,0,1,1,0,16,16.008,16.008,0,0,1,16,0Zm0,6c-2.716,0-3.056.011-4.123.06a7.341,7.341,0,0,0-2.427.465A5.114,5.114,0,0,0,6.525,9.45a7.342,7.342,0,0,0-.465,2.427C6.012,12.944,6,13.284,6,16s.012,3.056.06,4.123a7.342,7.342,0,0,0,.465,2.427A5.114,5.114,0,0,0,9.45,25.475a7.343,7.343,0,0,0,2.427.465c1.067.049,1.407.06,4.123.06s3.056-.011,4.123-.06a7.342,7.342,0,0,0,2.427-.465,5.113,5.113,0,0,0,2.925-2.925,7.342,7.342,0,0,0,.465-2.427c.049-1.067.06-1.407.06-4.123s-.011-3.056-.06-4.123a7.342,7.342,0,0,0-.465-2.427A5.114,5.114,0,0,0,22.55,6.525a7.34,7.34,0,0,0-2.427-.465C19.056,6.012,18.716,6,16,6Zm0,1.8c2.67,0,2.986.01,4.041.058A5.533,5.533,0,0,1,21.9,8.2a3.312,3.312,0,0,1,1.9,1.9,5.532,5.532,0,0,1,.344,1.857c.048,1.054.058,1.371.058,4.041s-.01,2.986-.058,4.041A5.532,5.532,0,0,1,23.8,21.9a3.312,3.312,0,0,1-1.9,1.9,5.532,5.532,0,0,1-1.857.344c-1.054.048-1.371.058-4.041.058s-2.986-.01-4.041-.058A5.532,5.532,0,0,1,10.1,23.8a3.311,3.311,0,0,1-1.9-1.9,5.533,5.533,0,0,1-.344-1.857C7.812,18.986,7.8,18.67,7.8,16s.01-2.986.058-4.041A5.533,5.533,0,0,1,8.2,10.1a3.311,3.311,0,0,1,1.9-1.9,5.533,5.533,0,0,1,1.857-.344C13.014,7.812,13.33,7.8,16,7.8Zm0,3.063A5.135,5.135,0,1,0,21.135,16,5.135,5.135,0,0,0,16,10.865Zm0,8.468A3.333,3.333,0,1,1,19.333,16,3.333,3.333,0,0,1,16,19.333Zm6.538-8.671a1.2,1.2,0,1,1-1.2-1.2A1.2,1.2,0,0,1,22.538,10.662Z" fill="#eef1f5" fill-rule="evenodd"/>
</svg>
