<svg xmlns="http://www.w3.org/2000/svg" width="48" height="48" viewBox="0 0 48 48">
  <path id="iconfinder_5279112_camera_instagram_social_media_instagram_logo_icon" data-name="iconfinder_5279112_camera_instagram_social media_instagram logo_icon" d="M24,0A24,24,0,1,1,0,24,24.011,24.011,0,0,1,24,0Zm0,9c-4.074,0-4.585.017-6.184.09a11.011,11.011,0,0,0-3.641.7,7.671,7.671,0,0,0-4.387,4.387,11.012,11.012,0,0,0-.7,3.641C9.017,19.415,9,19.926,9,24s.017,4.585.09,6.185a11.012,11.012,0,0,0,.7,3.641,7.67,7.67,0,0,0,4.387,4.387,11.014,11.014,0,0,0,3.641.7c1.6.073,2.111.09,6.184.09s4.585-.017,6.185-.09a11.013,11.013,0,0,0,3.641-.7,7.67,7.67,0,0,0,4.387-4.387,11.013,11.013,0,0,0,.7-3.641c.073-1.6.09-2.111.09-6.185s-.017-4.585-.09-6.184a11.013,11.013,0,0,0-.7-3.641,7.67,7.67,0,0,0-4.387-4.387,11.01,11.01,0,0,0-3.641-.7C28.585,9.017,28.074,9,24,9Zm0,2.7c4.005,0,4.48.015,6.061.087a8.3,8.3,0,0,1,2.785.516,4.968,4.968,0,0,1,2.847,2.847,8.3,8.3,0,0,1,.516,2.785c.072,1.582.087,2.056.087,6.061s-.015,4.48-.087,6.061a8.3,8.3,0,0,1-.516,2.785,4.968,4.968,0,0,1-2.847,2.847,8.3,8.3,0,0,1-2.785.516c-1.581.072-2.056.087-6.061.087s-4.48-.015-6.061-.087a8.3,8.3,0,0,1-2.785-.516,4.967,4.967,0,0,1-2.847-2.847,8.3,8.3,0,0,1-.517-2.785C11.718,28.48,11.7,28.005,11.7,24s.015-4.48.087-6.061a8.3,8.3,0,0,1,.517-2.785,4.967,4.967,0,0,1,2.847-2.847,8.3,8.3,0,0,1,2.785-.516C19.52,11.718,19.995,11.7,24,11.7ZM24,16.3A7.7,7.7,0,1,0,31.7,24,7.7,7.7,0,0,0,24,16.3ZM24,29a5,5,0,1,1,5-5A5,5,0,0,1,24,29Zm9.807-13.007a1.8,1.8,0,1,1-1.8-1.8A1.8,1.8,0,0,1,33.807,15.993Z" fill="#eef1f5" fill-rule="evenodd"/>
</svg>
