<svg xmlns="http://www.w3.org/2000/svg" width="64" height="64" viewBox="0 0 64 64">
  <path id="iconfinder_5279112_camera_instagram_social_media_instagram_logo_icon" data-name="iconfinder_5279112_camera_instagram_social media_instagram logo_icon" d="M32,0A32,32,0,1,1,0,32,32.015,32.015,0,0,1,32,0Zm0,12c-5.432,0-6.113.023-8.246.12a14.682,14.682,0,0,0-4.855.93A10.227,10.227,0,0,0,13.05,18.9a14.683,14.683,0,0,0-.93,4.855C12.023,25.887,12,26.568,12,32s.023,6.113.12,8.246a14.683,14.683,0,0,0,.93,4.855A10.227,10.227,0,0,0,18.9,50.95a14.685,14.685,0,0,0,4.855.93c2.133.1,2.814.12,8.246.12s6.113-.023,8.246-.12a14.684,14.684,0,0,0,4.855-.93A10.227,10.227,0,0,0,50.95,45.1a14.684,14.684,0,0,0,.93-4.855c.1-2.133.12-2.814.12-8.246s-.023-6.113-.12-8.246a14.684,14.684,0,0,0-.93-4.855A10.227,10.227,0,0,0,45.1,13.05a14.68,14.68,0,0,0-4.855-.93C38.113,12.023,37.432,12,32,12Zm0,3.6c5.34,0,5.973.02,8.082.117a11.067,11.067,0,0,1,3.714.689,6.624,6.624,0,0,1,3.8,3.8,11.063,11.063,0,0,1,.689,3.714c.1,2.109.117,2.742.117,8.082s-.02,5.973-.117,8.082a11.063,11.063,0,0,1-.689,3.714,6.624,6.624,0,0,1-3.8,3.8,11.063,11.063,0,0,1-3.714.689c-2.109.1-2.741.117-8.082.117s-5.973-.02-8.082-.117a11.063,11.063,0,0,1-3.714-.689,6.623,6.623,0,0,1-3.8-3.8,11.066,11.066,0,0,1-.689-3.714c-.1-2.109-.116-2.741-.116-8.082s.02-5.973.116-8.082a11.066,11.066,0,0,1,.689-3.714,6.623,6.623,0,0,1,3.8-3.8,11.067,11.067,0,0,1,3.714-.689c2.109-.1,2.741-.117,8.082-.117Zm0,6.126A10.27,10.27,0,1,0,42.27,32,10.27,10.27,0,0,0,32,21.73Zm0,16.937A6.667,6.667,0,1,1,38.667,32,6.667,6.667,0,0,1,32,38.667ZM45.076,21.324a2.4,2.4,0,1,1-2.4-2.4A2.4,2.4,0,0,1,45.076,21.324Z" fill="#eef1f5" fill-rule="evenodd"/>
</svg>
