<svg xmlns="http://www.w3.org/2000/svg" width="32" height="32" viewBox="0 0 32 32">
  <g id="Icon_feather-alert-circle" data-name="Icon feather-alert-circle" transform="translate(-0.435 -1)">
    <g id="Path_81" data-name="Path 81" transform="translate(-2.565 -2)" fill="none" stroke-linecap="round" stroke-linejoin="round">
      <path d="M35,19A16,16,0,1,1,19,3,16,16,0,0,1,35,19Z" stroke="none"/>
      <path d="M 19 32 C 22.4724292755127 32 25.73700904846191 30.64776039123535 28.19239044189453 28.19239044189453 C 30.64776039123535 25.73702049255371 32 22.4724292755127 32 19.00000953674316 C 32 15.52758026123047 30.64776039123535 12.26298999786377 28.19239044189453 9.807609558105469 C 25.73700904846191 7.352240085601807 22.4724292755127 6 19 6 C 15.52758026123047 6 12.26298999786377 7.352240085601807 9.807609558105469 9.807609558105469 C 7.352240085601807 12.26298999786377 6 15.52758026123047 6 19.00000953674316 C 6 22.4724292755127 7.352240085601807 25.73702049255371 9.807609558105469 28.19239044189453 C 12.26298999786377 30.64776039123535 15.52758026123047 32 19 32 M 19 35 C 10.16345024108887 35 3 27.8365592956543 3 19.00000953674316 C 3 10.16345024108887 10.16345024108887 3 19 3 C 27.8365592956543 3 35 10.16345024108887 35 19.00000953674316 C 35 27.8365592956543 27.8365592956543 35 19 35 Z M 35 19.00000953674316 C 35 19 35 19 35 19 L 35 19.00000953674316 Z" stroke="none" fill="#d8292f"/>
    </g>
    <path id="Path_82" data-name="Path 82" d="M18,12V22.325" transform="translate(-1.815 -3.575)" fill="none" stroke="#d8292f" stroke-linecap="round" stroke-linejoin="round" stroke-width="3"/>
    <path id="Path_83" data-name="Path 83" d="M18,24h0" transform="translate(-1.815 0.733)" fill="none" stroke="#d8292f" stroke-linecap="round" stroke-linejoin="round" stroke-width="3"/>
  </g>
</svg>
