<svg xmlns="http://www.w3.org/2000/svg" width="48" height="48" viewBox="0 0 48 48">
  <g id="Icon_feather-alert-circle" data-name="Icon feather-alert-circle" transform="translate(-0.435 -1)">
    <g id="Path_81" data-name="Path 81" transform="translate(-2.565 -2)" fill="none" stroke-linecap="round" stroke-linejoin="round">
      <path d="M51,27A24,24,0,1,1,27,3,24,24,0,0,1,51,27Z" stroke="none"/>
      <path d="M 27 46.5 C 32.20863342285156 46.5 37.10552215576172 44.47164535522461 40.78857803344727 40.78857803344727 C 44.47164535522461 37.10552215576172 46.5 32.20864486694336 46.5 27.0000114440918 C 46.5 21.79136657714844 44.47164535522461 16.89448928833008 40.78857803344727 13.21142196655273 C 37.10551071166992 9.528355598449707 32.20863342285156 7.5 27 7.5 C 21.79136657714844 7.5 16.89447784423828 9.528355598449707 13.21142196655273 13.21142196655273 C 9.528355598449707 16.89448928833008 7.5 21.79136657714844 7.5 27.0000114440918 C 7.5 32.20864486694336 9.528355598449707 37.10552215576172 13.21142196655273 40.78857803344727 C 16.89447784423828 44.47164535522461 21.79136657714844 46.5 27 46.5 M 27 51 C 13.74516677856445 51 3 40.25483322143555 3 27.0000114440918 C 3 13.74516677856445 13.74516677856445 3 27 3 C 40.25483322143555 3 51 13.74517822265625 51 27.0000114440918 C 51 40.25483322143555 40.25483322143555 51 27 51 Z M 51 27.0000114440918 C 51 27 51 27 51 27 L 51 27.0000114440918 Z" stroke="none" fill="#d8292f"/>
    </g>
    <path id="Path_82" data-name="Path 82" d="M18,12V26.712" transform="translate(6.06 1.531)" fill="none" stroke="#d8292f" stroke-linecap="round" stroke-linejoin="round" stroke-width="4.5"/>
    <path id="Path_83" data-name="Path 83" d="M18,24h0" transform="translate(6.06 12.6)" fill="none" stroke="#d8292f" stroke-linecap="round" stroke-linejoin="round" stroke-width="4.5"/>
  </g>
</svg>
