<svg xmlns="http://www.w3.org/2000/svg" width="16" height="16" viewBox="0 0 16 16">
  <g id="Icon_feather-alert-circle" data-name="Icon feather-alert-circle" transform="translate(-0.435 -1)">
    <g id="Path_81" data-name="Path 81" transform="translate(-2.565 -2)" fill="none" stroke-linecap="round" stroke-linejoin="round">
      <path d="M19,11a8,8,0,1,1-8-8,8,8,0,0,1,8,8Z" stroke="none"/>
      <path d="M 11 4.500001907348633 C 7.415889739990234 4.500001907348633 4.5 7.415890693664551 4.5 11.00000095367432 C 4.5 14.58411026000977 7.415889739990234 17.5 11 17.5 C 14.58411026000977 17.5 17.5 14.58411026000977 17.5 11.00000095367432 C 17.5 7.415890693664551 14.58411026000977 4.500001907348633 11 4.500001907348633 M 11 3.000001907348633 C 15.41827964782715 3.000001907348633 19 6.581721305847168 19 11.00000095367432 C 19 15.41828155517578 15.41827964782715 19 11 19 C 6.581720352172852 19 3 15.41828155517578 3 11.00000095367432 C 3 6.581721305847168 6.581720352172852 3.000001907348633 11 3.000001907348633 Z" stroke="none" fill="#d8292f"/>
    </g>
    <path id="Path_82" data-name="Path 82" d="M18,12v4.934" transform="translate(-9.69 -6.884)" fill="none" stroke="#d8292f" stroke-linecap="round" stroke-linejoin="round" stroke-width="1.5"/>
    <path id="Path_83" data-name="Path 83" d="M18,24h0" transform="translate(-9.69 -11.133)" fill="none" stroke="#d8292f" stroke-linecap="round" stroke-linejoin="round" stroke-width="1.5"/>
  </g>
</svg>
