<svg id="search-16" xmlns="http://www.w3.org/2000/svg" width="16.529" height="16.531" viewBox="0 0 16.529 16.531">
  <g id="Union_3" data-name="Union 3" fill="none">
    <path d="M1.818,10.6A6.207,6.207,0,1,1,10.6,1.819,6.207,6.207,0,1,1,1.818,10.6Z" stroke="none"/>
    <path d="M 6.207106590270996 10.91641616821289 C 7.463456630706787 10.91641616821289 8.645417213439941 10.42640590667725 9.53554630279541 9.536375999450684 C 10.42521667480469 8.647265434265137 10.91517639160156 7.465325832366943 10.91517639160156 6.208265781402588 C 10.91517639160156 4.951225757598877 10.42519664764404 3.76921558380127 9.535276412963867 2.879765748977661 C 8.645417213439941 1.990005731582642 7.463456630706787 1.499995708465576 6.207106590270996 1.499995708465576 C 4.950436592102051 1.499995708465576 3.768296718597412 1.990005731582642 2.878666877746582 2.87954568862915 C 1.989616751670837 3.768865585327148 1.499996781349182 4.951025485992432 1.499996781349182 6.208265781402588 C 1.499996781349182 7.46552562713623 1.989596724510193 8.647625923156738 2.878456830978394 9.536655426025391 C 3.768296718597412 10.42640590667725 4.950436592102051 10.91641616821289 6.207106590270996 10.91641616821289 M 6.207106590270996 12.41641616821289 C 4.549936771392822 12.41641616821289 2.990536689758301 11.76993560791016 1.817846775054932 10.5973653793335 C 0.6456367373466492 9.424925804138184 -3.234710675315e-06 7.866745471954346 -3.234710675315e-06 6.208265781402588 C -3.234710675315e-06 4.549665927886963 0.6456367373466492 2.991605758666992 1.817846775054932 1.819045662879944 C 2.990536689758301 0.6464756727218628 4.549936771392822 -4.300079126551282e-06 6.207106590270996 -4.300079126551282e-06 C 7.865236759185791 -4.300079126551282e-06 9.423176765441895 0.6464756727218628 10.59587669372559 1.819045662879944 C 11.76905632019043 2.991605758666992 12.41517639160156 4.549665927886963 12.41517639160156 6.208265781402588 C 12.41517639160156 7.866745471954346 11.76905632019043 9.424925804138184 10.59587669372559 10.5973653793335 C 9.423176765441895 11.76993560791016 7.865236759185791 12.41641616821289 6.207106590270996 12.41641616821289 Z" stroke="none" fill="#38598a"/>
  </g>
  <line id="Line_150" data-name="Line 150" x2="5.45" y2="5.45" transform="translate(10.549 10.551)" fill="none" stroke="#38598a" stroke-width="1.5"/>
</svg>
