<svg id="search-64" xmlns="http://www.w3.org/2000/svg" width="66.122" height="66.125" viewBox="0 0 66.122 66.125">
  <g id="Union_3" data-name="Union 3" fill="none">
    <path d="M7.08,41.273A24.175,24.175,0,1,1,41.267,7.085,24.175,24.175,0,1,1,7.08,41.273Z" stroke="none"/>
    <path d="M 24.17450332641602 42.35796737670898 C 29.02534103393555 42.35796737670898 33.58900451660156 40.46598052978516 37.02592849731445 37.0294075012207 C 40.46100234985352 33.59646987915039 42.35277938842773 29.03285598754883 42.35277938842773 24.17922019958496 C 42.35277938842773 19.32563209533691 40.46091842651367 14.76176929473877 37.02481842041016 11.32744407653809 C 33.58901596069336 7.891994476318359 29.02535438537598 6.000006675720215 24.17450332641602 6.000006675720215 C 19.32244110107422 6.000006675720215 14.75810432434082 7.891994476318359 11.32317924499512 11.32658195495605 C 7.89047908782959 14.76034450531006 6.000004291534424 19.32483100891113 6.000004291534424 24.17922019958496 C 6.000004291534424 29.03365707397461 7.890404224395752 33.59790802001953 11.32230377197266 37.030517578125 C 14.75811672210693 40.46598052978516 19.32244110107422 42.35796737670898 24.17450332641602 42.35796737670898 M 24.17450332641602 48.35796737670898 C 17.72042846679688 48.35796737670898 11.64711666107178 45.84014511108398 7.079879283905029 41.27336883544922 C 2.51452898979187 36.70708084106445 4.101562353753252e-06 30.63848114013672 4.101562353753252e-06 24.17922019958496 C 4.101562353753252e-06 17.7194938659668 2.51452898979187 11.65135669708252 7.079879283905029 7.084594249725342 C 11.64711666107178 2.517819166183472 17.72042846679688 6.781006050005089e-06 24.17450332641602 6.781006050005089e-06 C 30.63235473632812 6.781006050005089e-06 36.70000457763672 2.517819166183472 41.26724243164062 7.084594249725342 C 45.83638000488281 11.65135669708252 48.35277938842773 17.7194938659668 48.35277938842773 24.17922019958496 C 48.35277938842773 30.63848114013672 45.83638000488281 36.70708084106445 41.26724243164062 41.27336883544922 C 36.70000457763672 45.84014511108398 30.63235473632812 48.35796737670898 24.17450332641602 48.35796737670898 Z" stroke="none" fill="#38598a"/>
  </g>
  <line id="Line_150" data-name="Line 150" x2="23.5" y2="23.505" transform="translate(40.5 40.5)" fill="none" stroke="#38598a" stroke-width="6"/>
</svg>
