<svg id="search-48" xmlns="http://www.w3.org/2000/svg" width="49.591" height="49.595" viewBox="0 0 49.591 49.595">
  <g id="Union_3" data-name="Union 3" fill="none">
    <path d="M5.674,33.075a19.373,19.373,0,1,1,27.4-27.4,19.373,19.373,0,1,1-27.4,27.4Z" stroke="none"/>
    <path d="M 19.37261962890625 34.25195693969727 C 23.34223937988281 34.25195693969727 27.0767993927002 32.7037467956543 29.88918113708496 29.89169692993164 C 32.70018005371094 27.08247566223145 34.24826049804688 23.34798622131348 34.24826049804688 19.37616729736328 C 34.24826049804688 15.40439701080322 32.70011901855469 11.66971683502197 29.88837051391602 8.85944652557373 C 27.0767993927002 6.048206329345703 23.34223937988281 4.499996662139893 19.37261962890625 4.499996662139893 C 15.4020299911499 4.499996662139893 11.66693019866943 6.048206329345703 8.856030464172363 8.858776092529297 C 6.047000408172607 11.66864681243896 4.500000476837158 15.40379619598389 4.500000476837158 19.37616729736328 C 4.500000476837158 23.34857749938965 6.046940326690674 27.08353614807129 8.85536003112793 29.89250564575195 C 11.66693019866943 32.7037467956543 15.4020299911499 34.25195693969727 19.37261962890625 34.25195693969727 M 19.37261962890625 38.75195693969727 C 14.2005500793457 38.75195693969727 9.333600044250488 36.73427581787109 5.673570156097412 33.07467651367188 C 2.015060186386108 29.41544723510742 2.49023429432782e-07 24.55233573913574 2.49023429432782e-07 19.37616729736328 C 2.49023429432782e-07 14.19962692260742 2.015060186386108 9.336886405944824 5.673570156097412 5.677276611328125 C 9.333600044250488 2.017676591873169 14.2005500793457 -3.437500026848284e-06 19.37261962890625 -3.437500026848284e-06 C 24.54771041870117 -3.437500026848284e-06 29.41012954711914 2.017676591873169 33.07015991210938 5.677276611328125 C 36.7317008972168 9.336886405944824 38.74826049804688 14.19962692260742 38.74826049804688 19.37616729736328 C 38.74826049804688 24.55233573913574 36.7317008972168 29.41544723510742 33.07015991210938 33.07467651367188 C 29.41012954711914 36.73427581787109 24.54771041870117 38.75195693969727 19.37261962890625 38.75195693969727 Z" stroke="none" fill="#38598a"/>
  </g>
  <line id="Line_150" data-name="Line 150" x2="16.5" y2="16.504" transform="translate(31.5 31.5)" fill="none" stroke="#38598a" stroke-width="4.5"/>
</svg>
