<svg id="search-32" xmlns="http://www.w3.org/2000/svg" width="33.059" height="33.063" viewBox="0 0 33.059 33.063">
  <g id="Union_3" data-name="Union 3" fill="none">
    <path d="M3.668,21.383A12.524,12.524,0,1,1,21.38,3.67,12.524,12.524,0,1,1,3.668,21.383Z" stroke="none"/>
    <path d="M 12.52441024780273 22.05346298217773 C 15.06654071807861 22.05346298217773 17.4581413269043 21.06197357177734 19.25922012329102 19.26107406616211 C 21.05938148498535 17.46202278137207 22.05078125 15.07043361663818 22.05078125 12.52685356140137 C 22.05078125 9.983303070068359 21.05935096740723 7.591583251953125 19.25867080688477 5.791843414306641 C 17.4581413269043 3.991493463516235 15.06654071807861 3.000003337860107 12.52441024780273 3.000003337860107 C 9.981660842895508 3.000003337860107 7.589710712432861 3.991493463516235 5.789610862731934 5.791413307189941 C 3.990700721740723 7.590863227844238 3.000000715255737 9.982892990112305 3.000000715255737 12.52685356140137 C 3.000000715255737 15.07084369659424 3.990670680999756 17.46274375915527 5.789180755615234 19.26162338256836 C 7.589710712432861 21.06197357177734 9.981660842895508 22.05346298217773 12.52441024780273 22.05346298217773 M 12.52441024780273 25.05346298217773 C 9.180660247802734 25.05346298217773 6.034180641174316 23.7490234375 3.667970657348633 21.38305282592773 C 1.302730679512024 19.017333984375 6.24999984211172e-07 15.87329292297363 6.24999984211172e-07 12.52685356140137 C 6.24999984211172e-07 9.180173873901367 1.302730679512024 6.036373615264893 3.667970657348633 3.670413494110107 C 6.034180641174316 1.304443359375 9.180660247802734 3.398437456780812e-06 12.52441024780273 3.398437456780812e-06 C 15.87012100219727 3.398437456780812e-06 19.01366996765137 1.304443359375 21.37988090515137 3.670413494110107 C 23.7470703125 6.036373615264893 25.05078125 9.180173873901367 25.05078125 12.52685356140137 C 25.05078125 15.87329292297363 23.7470703125 19.017333984375 21.37988090515137 21.38305282592773 C 19.01366996765137 23.7490234375 15.87012100219727 25.05346298217773 12.52441024780273 25.05346298217773 Z" stroke="none" fill="#38598a"/>
  </g>
  <line id="Line_150" data-name="Line 150" x2="11.501" y2="11.501" transform="translate(20.498 20.501)" fill="none" stroke="#38598a" stroke-width="3"/>
</svg>
