<svg xmlns="http://www.w3.org/2000/svg" width="31.999" height="31.999" viewBox="0 0 31.999 31.999">
  <g id="accessibility" transform="translate(0)">
    <g id="Background" transform="translate(0)">
      <path id="Path_203" data-name="Path 203" d="M32.089,2.092A2.09,2.09,0,0,0,30,0H2.181A2.091,2.091,0,0,0,.09,2.092V29.907A2.092,2.092,0,0,0,2.18,32H30a2.091,2.091,0,0,0,2.089-2.093Z" transform="translate(-0.09)" fill="#0081bd"/>
    </g>
    <g id="Accessibility-2" data-name="Accessibility" transform="translate(4.945 2.139)">
      <g id="Accessibility_Character" data-name="Accessibility Character">
        <path id="Path_204" data-name="Path 204" d="M88.034,41.578a1.707,1.707,0,0,0-1.3-.493L80.87,41.4l3.225-3.585a1.892,1.892,0,0,0,.413-1.8,1.635,1.635,0,0,0-.751-1.038c-.012-.009-7.716-4.374-7.716-4.374a1.717,1.717,0,0,0-1.965.194L70.32,34.076a1.613,1.613,0,0,0-.081,2.27,1.712,1.712,0,0,0,2.321.176l2.851-2.482,2.359,1.336-4.162,4.629a8.657,8.657,0,0,0-4.5,2.168l2.175,2.12a5.628,5.628,0,0,1,7.633.174,5.3,5.3,0,0,1,.174,7.447l2.173,2.121a8.234,8.234,0,0,0,1.46-9.437L85,44.474l-.553,6.608a1.656,1.656,0,0,0,1.541,1.768c.046,0,.092.006.138.006A1.668,1.668,0,0,0,87.8,51.349l.708-8.484A1.616,1.616,0,0,0,88.034,41.578Z" transform="translate(-66.4 -29.026)" fill="#fff"/>
        <path id="Path_205" data-name="Path 205" d="M184.746,24.2a2.816,2.816,0,1,0-2.816-2.818,2.816,2.816,0,0,0,2.816,2.818Z" transform="translate(-166.227 -18.57)" fill="#fff"/>
        <path id="Path_206" data-name="Path 206" d="M54.177,154.51a5.528,5.528,0,0,1-4.575-8.637l-2.2-2.193a8.6,8.6,0,0,0,12.073,12.071l-2.2-2.2A5.5,5.5,0,0,1,54.177,154.51Z" transform="translate(-45.576 -129.864)" fill="#fff"/>
      </g>
    </g>
  </g>
</svg>
