<svg xmlns="http://www.w3.org/2000/svg" width="64" height="64" viewBox="0 0 64 64">
  <g id="amphitheatre" transform="translate(0 0)">
    <g id="Group_584" data-name="Group 584" transform="translate(0 0)">
      <path id="Path_214" data-name="Path 214" d="M64.091,3.92A4.18,4.18,0,0,0,59.912-.261H4.271A4.181,4.181,0,0,0,.091,3.92V59.552a4.185,4.185,0,0,0,4.18,4.187H59.912a4.184,4.184,0,0,0,4.178-4.187Z" transform="translate(-0.091 0.261)" fill="#38598a"/>
    </g>
    <g id="Group_597" data-name="Group 597" transform="translate(5.175 4.454)">
      <g id="Group_596" data-name="Group 596">
        <g id="Group_595" data-name="Group 595">
          <path id="Path_215" data-name="Path 215" d="M200.1,191.605v-6.446l-3.276-3.276-3.06,3.06V195.9h3.976Z" transform="translate(-155.134 -145.139)" fill="#fff"/>
          <path id="Path_216" data-name="Path 216" d="M214.123,174.143l5.018-4.195s4-.643,4,.778.258,8.118.258,9.666.1,7.485,1.127,9.033c.23.339-1.781,1.46-1.781,1.46a7.927,7.927,0,0,0-.251-2.11c-.258-.647-1.675-5.8-1.675-5.8l-3.965,7.906h-2.318a6.932,6.932,0,0,0,1.382-1.848c.389-.9,2.838-7.089,2.58-10.054-.177-2.057-.258-5.156-.258-5.156l-2.859,1.566Z" transform="translate(-170.888 -135.792)" fill="#fff"/>
          <g id="Group_585" data-name="Group 585" transform="translate(47.077 29.47)">
            <path id="Path_217" data-name="Path 217" d="M232.928,153.557a1.918,1.918,0,1,0-1.82-1.916A1.87,1.87,0,0,0,232.928,153.557Z" transform="translate(-231.108 -149.726)" fill="#fff"/>
          </g>
          <path id="Path_218" data-name="Path 218" d="M22.968,52.809l3.644,1.042a36.862,36.862,0,0,1,5.068-9.726c3.76-4.98,11.8-11.68,19.95-15.882,10.291-5.312,17.79-5.2,17.79-5.2l.032-3.615a39.132,39.132,0,0,0-8.1,1.138A73.187,73.187,0,0,0,40.538,30.94C39.03,32.071,25.481,42.316,22.968,52.809Z" transform="translate(-22.968 -19.43)" fill="#fff"/>
          <g id="Group_586" data-name="Group 586" transform="translate(21.395 10.129)">
            <rect id="Rectangle_701" data-name="Rectangle 701" width="1.191" height="7.57" fill="#fff"/>
          </g>
          <g id="Group_587" data-name="Group 587" transform="translate(25.802 20.331)">
            <rect id="Rectangle_702" data-name="Rectangle 702" width="1.198" height="7.57" fill="#fff"/>
          </g>
          <path id="Path_219" data-name="Path 219" d="M54.407,96.5l-3.822-1.106A23.222,23.222,0,0,1,52.3,90.851a46.855,46.855,0,0,1,11.62-15.158,80.242,80.242,0,0,1,9.849-7.524,43.089,43.089,0,0,1,13.164-5.16c1.2-.212,4.905-.424,4.905-.424v3.478a26.449,26.449,0,0,0-5.69.626c-2.8.668-8.619,2.806-15.811,8.45A69.154,69.154,0,0,0,59.056,86.868,25.466,25.466,0,0,0,54.407,96.5Z" transform="translate(-44.339 -52.825)" fill="#fff"/>
          <path id="Path_220" data-name="Path 220" d="M86.324,135.845l-3.637-1.184a45.031,45.031,0,0,1,2.2-5.679,55.068,55.068,0,0,1,9.625-12.613,97.5,97.5,0,0,1,12.617-9.63,22.5,22.5,0,0,1,10.5-3.34l.007,3.209a16.418,16.418,0,0,0-4.092.8,39.347,39.347,0,0,0-11.952,6.863,56.574,56.574,0,0,0-8.849,9.026A41.643,41.643,0,0,0,86.324,135.845Z" transform="translate(-69.18 -84.407)" fill="#fff"/>
          <g id="Group_588" data-name="Group 588" transform="translate(43.302 1.057)">
            <rect id="Rectangle_703" data-name="Rectangle 703" width="1.194" height="7.566" fill="#fff"/>
          </g>
          <g id="Group_589" data-name="Group 589" transform="translate(4.905 27.392)">
            <rect id="Rectangle_704" data-name="Rectangle 704" width="1.194" height="7.57" fill="#fff"/>
          </g>
          <g id="Group_590" data-name="Group 590" transform="translate(11.906 35.892)">
            <rect id="Rectangle_705" data-name="Rectangle 705" width="1.194" height="7.566" fill="#fff"/>
          </g>
          <g id="Group_591" data-name="Group 591" transform="translate(44.299 11.235)">
            <rect id="Rectangle_706" data-name="Rectangle 706" width="1.194" height="6.846" fill="#fff"/>
          </g>
          <g id="Group_592" data-name="Group 592" transform="translate(45.303 20.568)">
            <rect id="Rectangle_707" data-name="Rectangle 707" width="1.191" height="7.57" fill="#fff"/>
          </g>
          <g id="Group_593" data-name="Group 593" transform="translate(29.916 30.156)">
            <rect id="Rectangle_708" data-name="Rectangle 708" width="1.191" height="7.57" fill="#fff"/>
          </g>
          <g id="Group_594" data-name="Group 594" transform="translate(18.958 43.988)">
            <rect id="Rectangle_709" data-name="Rectangle 709" width="1.193" height="7.57" fill="#fff"/>
          </g>
        </g>
      </g>
    </g>
  </g>
</svg>
