<svg xmlns="http://www.w3.org/2000/svg" width="15.998" height="15.998" viewBox="0 0 15.998 15.998">
  <g id="amphitheatre" transform="translate(0 0)">
    <g id="Group_584" data-name="Group 584" transform="translate(0 0)">
      <path id="Path_214" data-name="Path 214" d="M16.089.784A1.045,1.045,0,0,0,15.044-.261H1.136A1.045,1.045,0,0,0,.091.784V14.69a1.046,1.046,0,0,0,1.045,1.047H15.044a1.046,1.046,0,0,0,1.044-1.047Z" transform="translate(-0.091 0.261)" fill="#38598a"/>
    </g>
    <g id="Group_597" data-name="Group 597" transform="translate(1.294 1.113)">
      <g id="Group_596" data-name="Group 596">
        <g id="Group_595" data-name="Group 595">
          <path id="Path_215" data-name="Path 215" d="M195.348,184.313V182.7l-.819-.819-.765.765v2.739h.994Z" transform="translate(-184.108 -172.698)" fill="#fff"/>
          <path id="Path_216" data-name="Path 216" d="M214.123,170.888l1.254-1.049s1-.161,1,.194.064,2.029.064,2.416a6.815,6.815,0,0,0,.282,2.258c.057.085-.445.365-.445.365a1.982,1.982,0,0,0-.063-.527c-.065-.162-.419-1.451-.419-1.451l-.991,1.976h-.58a1.733,1.733,0,0,0,.345-.462,7.8,7.8,0,0,0,.645-2.513c-.044-.514-.065-1.289-.065-1.289l-.715.391Z" transform="translate(-203.316 -161.301)" fill="#fff"/>
          <g id="Group_585" data-name="Group 585" transform="translate(11.768 7.367)">
            <path id="Path_217" data-name="Path 217" d="M231.563,150.684a.479.479,0,1,0-.455-.479A.467.467,0,0,0,231.563,150.684Z" transform="translate(-231.108 -149.726)" fill="#fff"/>
          </g>
          <path id="Path_218" data-name="Path 218" d="M22.968,27.774l.911.261A9.214,9.214,0,0,1,25.146,25.6a16.248,16.248,0,0,1,4.987-3.97,10.361,10.361,0,0,1,4.447-1.3l.008-.9a9.782,9.782,0,0,0-2.026.284,18.294,18.294,0,0,0-5.2,2.593C26.983,22.59,23.6,25.151,22.968,27.774Z" transform="translate(-22.968 -19.43)" fill="#fff"/>
          <g id="Group_586" data-name="Group 586" transform="translate(5.348 2.532)">
            <rect id="Rectangle_701" data-name="Rectangle 701" width="0.298" height="1.892" fill="#fff"/>
          </g>
          <g id="Group_587" data-name="Group 587" transform="translate(6.45 5.082)">
            <rect id="Rectangle_702" data-name="Rectangle 702" width="0.299" height="1.892" fill="#fff"/>
          </g>
          <path id="Path_219" data-name="Path 219" d="M51.54,71.062l-.955-.277a5.8,5.8,0,0,1,.43-1.134,11.712,11.712,0,0,1,2.9-3.789,20.059,20.059,0,0,1,2.462-1.881,10.771,10.771,0,0,1,3.291-1.29c.3-.053,1.226-.106,1.226-.106v.869a6.611,6.611,0,0,0-1.422.156,10.9,10.9,0,0,0-3.952,2.112A17.286,17.286,0,0,0,52.7,68.656,6.366,6.366,0,0,0,51.54,71.062Z" transform="translate(-49.024 -60.146)" fill="#fff"/>
          <path id="Path_220" data-name="Path 220" d="M83.6,111.509l-.909-.3a11.255,11.255,0,0,1,.55-1.42,13.765,13.765,0,0,1,2.406-3.153,24.372,24.372,0,0,1,3.154-2.407,5.624,5.624,0,0,1,2.625-.835l0,.8a4.1,4.1,0,0,0-1.023.2,9.836,9.836,0,0,0-2.988,1.716,14.141,14.141,0,0,0-2.212,2.256A10.409,10.409,0,0,0,83.6,111.509Z" transform="translate(-79.311 -98.652)" fill="#fff"/>
          <g id="Group_588" data-name="Group 588" transform="translate(10.824 0.264)">
            <rect id="Rectangle_703" data-name="Rectangle 703" width="0.299" height="1.891" fill="#fff"/>
          </g>
          <g id="Group_589" data-name="Group 589" transform="translate(1.226 6.847)">
            <rect id="Rectangle_704" data-name="Rectangle 704" width="0.299" height="1.892" fill="#fff"/>
          </g>
          <g id="Group_590" data-name="Group 590" transform="translate(2.976 8.972)">
            <rect id="Rectangle_705" data-name="Rectangle 705" width="0.299" height="1.891" fill="#fff"/>
          </g>
          <g id="Group_591" data-name="Group 591" transform="translate(11.073 2.808)">
            <rect id="Rectangle_706" data-name="Rectangle 706" width="0.299" height="1.711" fill="#fff"/>
          </g>
          <g id="Group_592" data-name="Group 592" transform="translate(11.324 5.141)">
            <rect id="Rectangle_707" data-name="Rectangle 707" width="0.298" height="1.892" fill="#fff"/>
          </g>
          <g id="Group_593" data-name="Group 593" transform="translate(7.478 7.538)">
            <rect id="Rectangle_708" data-name="Rectangle 708" width="0.298" height="1.892" fill="#fff"/>
          </g>
          <g id="Group_594" data-name="Group 594" transform="translate(4.739 10.996)">
            <rect id="Rectangle_709" data-name="Rectangle 709" width="0.298" height="1.892" fill="#fff"/>
          </g>
        </g>
      </g>
    </g>
  </g>
</svg>
