<svg xmlns="http://www.w3.org/2000/svg" width="31.998" height="31.998" viewBox="0 0 31.998 31.998">
  <g id="amphitheatre" transform="translate(0 0)">
    <g id="Group_584" data-name="Group 584" transform="translate(0 0)">
      <path id="Path_214" data-name="Path 214" d="M32.089,1.83A2.09,2.09,0,0,0,30-.261H2.181A2.091,2.091,0,0,0,.091,1.83V29.644a2.092,2.092,0,0,0,2.09,2.093H30a2.092,2.092,0,0,0,2.089-2.093Z" transform="translate(-0.091 0.261)" fill="#38598a"/>
    </g>
    <g id="Group_597" data-name="Group 597" transform="translate(2.587 2.227)">
      <g id="Group_596" data-name="Group 596">
        <g id="Group_595" data-name="Group 595">
          <path id="Path_215" data-name="Path 215" d="M196.932,186.744v-3.223l-1.638-1.638-1.53,1.53v5.479h1.988Z" transform="translate(-174.45 -163.512)" fill="#fff"/>
          <path id="Path_216" data-name="Path 216" d="M214.123,171.973l2.509-2.1s2-.322,2,.389.129,4.059.129,4.833.05,3.742.564,4.516c.115.17-.891.73-.891.73a3.963,3.963,0,0,0-.125-1.055c-.129-.323-.837-2.9-.837-2.9l-1.982,3.953h-1.159a3.465,3.465,0,0,0,.691-.924c.194-.451,1.419-3.545,1.29-5.027-.088-1.028-.129-2.578-.129-2.578l-1.43.783Z" transform="translate(-192.506 -152.798)" fill="#fff"/>
          <g id="Group_585" data-name="Group 585" transform="translate(23.537 14.734)">
            <path id="Path_217" data-name="Path 217" d="M232.018,151.641a.959.959,0,1,0-.91-.958A.935.935,0,0,0,232.018,151.641Z" transform="translate(-231.108 -149.726)" fill="#fff"/>
          </g>
          <path id="Path_218" data-name="Path 218" d="M22.968,36.119l1.822.521a18.43,18.43,0,0,1,2.534-4.863A32.5,32.5,0,0,1,37.3,23.837a20.723,20.723,0,0,1,8.895-2.6l.016-1.808A19.565,19.565,0,0,0,42.157,20a36.592,36.592,0,0,0-10.4,5.186C31,25.75,24.224,30.873,22.968,36.119Z" transform="translate(-22.968 -19.43)" fill="#fff"/>
          <g id="Group_586" data-name="Group 586" transform="translate(10.697 5.064)">
            <rect id="Rectangle_701" data-name="Rectangle 701" width="0.595" height="3.785" fill="#fff"/>
          </g>
          <g id="Group_587" data-name="Group 587" transform="translate(12.9 10.165)">
            <rect id="Rectangle_702" data-name="Rectangle 702" width="0.599" height="3.785" fill="#fff"/>
          </g>
          <path id="Path_219" data-name="Path 219" d="M52.5,79.54l-1.911-.553a11.611,11.611,0,0,1,.86-2.269,23.427,23.427,0,0,1,5.81-7.578,40.12,40.12,0,0,1,4.924-3.762A21.544,21.544,0,0,1,68.76,62.8c.6-.106,2.453-.212,2.453-.212v1.739a13.224,13.224,0,0,0-2.845.313,21.8,21.8,0,0,0-7.905,4.225,34.574,34.574,0,0,0-5.643,5.864A12.732,12.732,0,0,0,52.5,79.54Z" transform="translate(-47.462 -57.706)" fill="#fff"/>
          <path id="Path_220" data-name="Path 220" d="M84.505,119.621l-1.818-.592a22.514,22.514,0,0,1,1.1-2.839,27.532,27.532,0,0,1,4.812-6.306,48.748,48.748,0,0,1,6.308-4.815,11.248,11.248,0,0,1,5.251-1.67l0,1.6a8.209,8.209,0,0,0-2.046.4,19.673,19.673,0,0,0-5.976,3.431,28.286,28.286,0,0,0-4.424,4.513A20.82,20.82,0,0,0,84.505,119.621Z" transform="translate(-75.934 -93.903)" fill="#fff"/>
          <g id="Group_588" data-name="Group 588" transform="translate(21.65 0.528)">
            <rect id="Rectangle_703" data-name="Rectangle 703" width="0.597" height="3.783" fill="#fff"/>
          </g>
          <g id="Group_589" data-name="Group 589" transform="translate(2.452 13.695)">
            <rect id="Rectangle_704" data-name="Rectangle 704" width="0.597" height="3.785" fill="#fff"/>
          </g>
          <g id="Group_590" data-name="Group 590" transform="translate(5.953 17.945)">
            <rect id="Rectangle_705" data-name="Rectangle 705" width="0.597" height="3.783" fill="#fff"/>
          </g>
          <g id="Group_591" data-name="Group 591" transform="translate(22.148 5.617)">
            <rect id="Rectangle_706" data-name="Rectangle 706" width="0.597" height="3.423" fill="#fff"/>
          </g>
          <g id="Group_592" data-name="Group 592" transform="translate(22.65 10.284)">
            <rect id="Rectangle_707" data-name="Rectangle 707" width="0.595" height="3.785" fill="#fff"/>
          </g>
          <g id="Group_593" data-name="Group 593" transform="translate(14.957 15.077)">
            <rect id="Rectangle_708" data-name="Rectangle 708" width="0.595" height="3.785" fill="#fff"/>
          </g>
          <g id="Group_594" data-name="Group 594" transform="translate(9.479 21.993)">
            <rect id="Rectangle_709" data-name="Rectangle 709" width="0.596" height="3.785" fill="#fff"/>
          </g>
        </g>
      </g>
    </g>
  </g>
</svg>
