<svg xmlns="http://www.w3.org/2000/svg" width="48" height="48" viewBox="0 0 48 48">
  <g id="amphitheatre" transform="translate(0 0)">
    <g id="Group_584" data-name="Group 584" transform="translate(0 0)">
      <path id="Path_214" data-name="Path 214" d="M48.091,2.875A3.135,3.135,0,0,0,44.957-.261H3.226A3.136,3.136,0,0,0,.091,2.875V44.6a3.139,3.139,0,0,0,3.135,3.14H44.957a3.138,3.138,0,0,0,3.134-3.14Z" transform="translate(-0.091 0.261)" fill="#38598a"/>
    </g>
    <g id="Group_597" data-name="Group 597" transform="translate(3.881 3.34)">
      <g id="Group_596" data-name="Group 596">
        <g id="Group_595" data-name="Group 595">
          <path id="Path_215" data-name="Path 215" d="M198.517,189.175V184.34l-2.457-2.457-2.3,2.3V192.4h2.982Z" transform="translate(-164.791 -154.325)" fill="#fff"/>
          <path id="Path_216" data-name="Path 216" d="M214.123,173.058l3.764-3.146s3-.482,3,.583.194,6.088.194,7.249.074,5.614.845,6.775c.172.254-1.336,1.095-1.336,1.095a5.946,5.946,0,0,0-.188-1.582c-.194-.485-1.256-4.352-1.256-4.352l-2.974,5.929h-1.739a5.2,5.2,0,0,0,1.036-1.386c.292-.676,2.128-5.317,1.935-7.541-.132-1.543-.194-3.867-.194-3.867l-2.144,1.174Z" transform="translate(-181.696 -144.294)" fill="#fff"/>
          <g id="Group_585" data-name="Group 585" transform="translate(35.308 22.103)">
            <path id="Path_217" data-name="Path 217" d="M232.473,152.6a1.439,1.439,0,1,0-1.365-1.437A1.4,1.4,0,0,0,232.473,152.6Z" transform="translate(-231.108 -149.726)" fill="#fff"/>
          </g>
          <path id="Path_218" data-name="Path 218" d="M22.968,44.465l2.733.782a27.647,27.647,0,0,1,3.8-7.294c2.82-3.735,8.85-8.76,14.962-11.912,7.718-3.984,13.343-3.9,13.343-3.9l.024-2.711a29.349,29.349,0,0,0-6.078.853,54.891,54.891,0,0,0-15.608,7.779C35.015,28.911,24.852,36.595,22.968,44.465Z" transform="translate(-22.968 -19.43)" fill="#fff"/>
          <g id="Group_586" data-name="Group 586" transform="translate(16.047 7.596)">
            <rect id="Rectangle_701" data-name="Rectangle 701" width="0.893" height="5.678" fill="#fff"/>
          </g>
          <g id="Group_587" data-name="Group 587" transform="translate(19.352 15.249)">
            <rect id="Rectangle_702" data-name="Rectangle 702" width="0.899" height="5.678" fill="#fff"/>
          </g>
          <path id="Path_219" data-name="Path 219" d="M53.452,88.018l-2.867-.83a17.417,17.417,0,0,1,1.29-3.4A35.142,35.142,0,0,1,60.59,72.417a60.183,60.183,0,0,1,7.387-5.643A32.317,32.317,0,0,1,77.85,62.9c.9-.159,3.679-.318,3.679-.318v2.608a19.837,19.837,0,0,0-4.267.469c-2.1.5-6.465,2.1-11.859,6.337a51.865,51.865,0,0,0-8.464,8.8A19.1,19.1,0,0,0,53.452,88.018Z" transform="translate(-45.9 -55.265)" fill="#fff"/>
          <path id="Path_220" data-name="Path 220" d="M85.414,127.734l-2.727-.888a33.772,33.772,0,0,1,1.65-4.259,41.3,41.3,0,0,1,7.219-9.46,73.126,73.126,0,0,1,9.462-7.223,16.873,16.873,0,0,1,7.877-2.5l.005,2.407a12.314,12.314,0,0,0-3.069.6,29.51,29.51,0,0,0-8.964,5.147,42.431,42.431,0,0,0-6.637,6.769A31.233,31.233,0,0,0,85.414,127.734Z" transform="translate(-72.557 -89.155)" fill="#fff"/>
          <g id="Group_588" data-name="Group 588" transform="translate(32.477 0.793)">
            <rect id="Rectangle_703" data-name="Rectangle 703" width="0.896" height="5.675" fill="#fff"/>
          </g>
          <g id="Group_589" data-name="Group 589" transform="translate(3.679 20.544)">
            <rect id="Rectangle_704" data-name="Rectangle 704" width="0.896" height="5.678" fill="#fff"/>
          </g>
          <g id="Group_590" data-name="Group 590" transform="translate(8.93 26.919)">
            <rect id="Rectangle_705" data-name="Rectangle 705" width="0.896" height="5.675" fill="#fff"/>
          </g>
          <g id="Group_591" data-name="Group 591" transform="translate(33.225 8.426)">
            <rect id="Rectangle_706" data-name="Rectangle 706" width="0.896" height="5.134" fill="#fff"/>
          </g>
          <g id="Group_592" data-name="Group 592" transform="translate(33.977 15.426)">
            <rect id="Rectangle_707" data-name="Rectangle 707" width="0.893" height="5.678" fill="#fff"/>
          </g>
          <g id="Group_593" data-name="Group 593" transform="translate(22.437 22.617)">
            <rect id="Rectangle_708" data-name="Rectangle 708" width="0.893" height="5.678" fill="#fff"/>
          </g>
          <g id="Group_594" data-name="Group 594" transform="translate(14.219 32.991)">
            <rect id="Rectangle_709" data-name="Rectangle 709" width="0.894" height="5.678" fill="#fff"/>
          </g>
        </g>
      </g>
    </g>
  </g>
</svg>
