<svg id="bike-park" xmlns="http://www.w3.org/2000/svg" width="15.999" height="15.999" viewBox="0 0 15.999 15.999">
  <g id="Background_1_">
    <path id="Path_245" data-name="Path 245" d="M16,1.045A1.045,1.045,0,0,0,14.954,0H1.045A1.045,1.045,0,0,0,0,1.045V14.952A1.046,1.046,0,0,0,1.045,16H14.954A1.046,1.046,0,0,0,16,14.952Z" fill="#38598a"/>
  </g>
  <g id="Bike_Park" transform="translate(1.187 1.362)">
    <path id="Path_246" data-name="Path 246" d="M52.06,143.421l.255-.336a1.63,1.63,0,0,1,.3.524,2.082,2.082,0,0,1-.54,2.275,1.578,1.578,0,0,1-1.223.472,1.558,1.558,0,0,1-1.308-.794,2.114,2.114,0,0,1,.22-2.451,1.766,1.766,0,0,1,1.075-.614,1.545,1.545,0,0,1,1.111.248l-.256.339a1.216,1.216,0,0,0-.586-.176,1.337,1.337,0,0,0-1.036.454,1.645,1.645,0,0,0-.155,2.026,1.245,1.245,0,0,0,1.826.253,1.644,1.644,0,0,0,.427-2.043C52.136,143.538,52.1,143.482,52.06,143.421Z" transform="translate(-47.652 -135.76)" fill="#fff"/>
    <path id="Path_247" data-name="Path 247" d="M139.52,60.384a.767.767,0,0,1,.858-.7,1.5,1.5,0,0,1,1.25.8c.04.068.072.141.115.228l-.548-.076a.718.718,0,0,1-.36.605.677.677,0,0,1-.484.08c-.4-.08-.588-.384-.551-.887Z" transform="translate(-132.823 -57.661)" fill="#fff"/>
    <path id="Path_248" data-name="Path 248" d="M124.332,149.141c-.037.075-.071.148-.11.217a.1.1,0,0,1-.058.039q-.164.051-.33.1c-.047.013-.069.032-.065.087.018.282.03.564.044.846a.456.456,0,0,1-.143.379.145.145,0,0,1-.1.032,2.685,2.685,0,0,1-.3-.062.114.114,0,0,1-.068-.057c-.118-.275-.233-.551-.347-.827a.223.223,0,0,1-.016-.073q-.016-.314-.03-.629a.44.44,0,0,1,.1-.307.093.093,0,0,1,.073-.032c.44.09.879.183,1.318.275C124.305,149.131,124.316,149.136,124.332,149.141Z" transform="translate(-117.052 -141.779)" fill="#fff"/>
    <path id="Path_249" data-name="Path 249" d="M129.245,237.8l-.249.354a1.861,1.861,0,0,0,.957.274l-.024.29a2.138,2.138,0,0,1-1.108-.32l-.32.448-.534-1.167Z" transform="translate(-121.924 -225.572)" fill="#fff"/>
    <path id="Path_250" data-name="Path 250" d="M240.509,82.191l.484.159-.957.857-.263-1.258.455.148.326-.93.281.083Z" transform="translate(-227.411 -77.931)" fill="#fff"/>
    <path id="Path_251" data-name="Path 251" d="M117.7,27.555l1.117.638-1.11.648v-.5a4.673,4.673,0,0,1-.987-.151l.067-.268.913.137Z" transform="translate(-111.311 -27.36)" fill="#fff"/>
    <path id="Path_252" data-name="Path 252" d="M23.32,104.6l-.426.116.324-1.241.877.91-.479.135a3.1,3.1,0,0,1-.1,1.016l-.283-.067A2.818,2.818,0,0,0,23.32,104.6Z" transform="translate(-22.787 -98.974)" fill="#fff"/>
    <path id="Path_253" data-name="Path 253" d="M30.446,30.891l-.232-.188.987-.936.19.228Z" transform="translate(-29.693 -29.447)" fill="#fff"/>
    <path id="Path_254" data-name="Path 254" d="M227.5,218.564l.266.125a3.673,3.673,0,0,1-.852,1.068l-.209-.2A3.732,3.732,0,0,0,227.5,218.564Z" transform="translate(-215.078 -207.536)" fill="#fff"/>
    <path id="Path_255" data-name="Path 255" d="M210.662,24.154l-.04.292a5.481,5.481,0,0,0-1.289-.02l-.036-.291A5.48,5.48,0,0,1,210.662,24.154Z" transform="translate(-198.657 -24.101)" fill="#fff"/>
    <path id="Path_256" data-name="Path 256" d="M252.619,36.314h-.286a2.2,2.2,0,0,0-.278-1.18l.221-.172A2.094,2.094,0,0,1,252.619,36.314Z" transform="translate(-238.999 -34.348)" fill="#fff"/>
    <path id="Path_257" data-name="Path 257" d="M240.919,126.642l.276.024.074,1.3-.277.034A8.418,8.418,0,0,1,240.919,126.642Z" transform="translate(-228.488 -120.829)" fill="#fff"/>
    <path id="Path_258" data-name="Path 258" d="M100.031,225.937l-.144.255a1.621,1.621,0,0,0-1.185-.232l-.033-.292A1.871,1.871,0,0,1,100.031,225.937Z" transform="translate(-94.28 -214.208)" fill="#fff"/>
    <path id="Path_259" data-name="Path 259" d="M53.952,230.036l.049.279a10.126,10.126,0,0,1-1.339.162v-.28Z" transform="translate(-50.872 -218.36)" fill="#fff"/>
    <path id="Path_260" data-name="Path 260" d="M164.779,29.5l.074.286-1.308.308L163.5,29.8Z" transform="translate(-155.446 -29.193)" fill="#fff"/>
    <path id="Path_261" data-name="Path 261" d="M71.09,25.093l.035-.293,1.326.178-.051.29Z" transform="translate(-68.26 -24.761)" fill="#fff"/>
    <path id="Path_262" data-name="Path 262" d="M186.184,248.764a4.359,4.359,0,0,0,1.256-.185l.111.288c-.179.041-.349.094-.522.117-.259.035-.521.049-.782.073-.043,0-.065-.01-.063-.058C186.186,248.921,186.184,248.844,186.184,248.764Z" transform="translate(-176.85 -235.855)" fill="#fff"/>
    <path id="Path_263" data-name="Path 263" d="M21.254,161.628l.293.043-.125,1.309-.295-.014Z" transform="translate(-21.12 -153.831)" fill="#fff"/>
    <path id="Path_264" data-name="Path 264" d="M23.1,71.182l-.286.065a5.514,5.514,0,0,1-.19-1.34h.295A5.494,5.494,0,0,0,23.1,71.182Z" transform="translate(-22.531 -67.31)" fill="#fff"/>
    <path id="Path_265" data-name="Path 265" d="M245.332,174.618h-.283l-.029-1.313.282-.025A12.444,12.444,0,0,1,245.332,174.618Z" transform="translate(-232.363 -164.823)" fill="#fff"/>
    <path id="Path_266" data-name="Path 266" d="M21.431,210.167a1.051,1.051,0,0,1-.363-.537,2.548,2.548,0,0,1-.068-.669c0-.039,0-.079,0-.125h.3c0,.123,0,.244,0,.366a.884.884,0,0,0,.308.732Z" transform="translate(-20.999 -198.358)" fill="#fff"/>
    <path id="Path_267" data-name="Path 267" d="M81.99,94.748c-.05.064-.1.126-.148.192a.075.075,0,0,1-.092.036c-.25-.055-.5-.106-.755-.174l.365-.111c.134-.04.268-.079.4-.121.071-.022.126-.061.12-.148-.016-.241-.033-.481-.05-.74a3.144,3.144,0,0,1-1.112.5c-.019.173-.162.221-.3.121-.269-.189-.549-.363-.833-.548l-.245.786,1.193.252,1.2.249c-.052.088-.1.171-.153.252a.074.074,0,0,1-.063.018q-.931-.192-1.861-.388l-.242-.049.163.393q.378.9.757,1.806a.128.128,0,0,0,.076.066c.165.039.331.073.5.105.044.008.058.025.053.07-.01.079-.014.159-.022.25l-.279-.055-.425-.089a.176.176,0,0,1-.139-.111q-.481-1.156-.964-2.311a.17.17,0,0,0-.019-.025l-.348.458-1.039,1.365a.153.153,0,0,1-.156.067.132.132,0,0,1-.118-.119.231.231,0,0,1,.04-.143c.263-.352.53-.7.8-1.051.2-.258.4-.512.587-.777a1.233,1.233,0,0,0,.145-.325c.09-.272.17-.548.258-.821a.07.07,0,0,0-.036-.1c-.294-.189-.587-.379-.877-.574a.274.274,0,0,1-.1-.124.133.133,0,0,1,.052-.153.153.153,0,0,1,.169-.02c.031.015.06.034.1.054l.025-.044a.3.3,0,0,1,.359-.143,2.678,2.678,0,0,0,2.392-.437.991.991,0,0,1,.764-.156,1.294,1.294,0,0,1,.438.116.985.985,0,0,1,.444.563,5,5,0,0,1,.245,1.923,1.283,1.283,0,0,1-.36.718,3.154,3.154,0,0,0-.65,1.075,4.313,4.313,0,0,0-.263,1.58.457.457,0,0,1-.178.386.452.452,0,0,1-.5.057.445.445,0,0,1-.268-.419,4.839,4.839,0,0,1,.976-3.1.2.2,0,0,0,.02-.061Zm-.333-2.119a3.788,3.788,0,0,1-1.071.5,3.605,3.605,0,0,1-1.185.123l.788.515a.359.359,0,0,1,.249-.153,2.424,2.424,0,0,0,1.218-.566.1.1,0,0,0,.037-.066C81.684,92.864,81.67,92.751,81.657,92.628Z" transform="translate(-74.262 -88.059)" fill="#fff"/>
    <path id="Path_268" data-name="Path 268" d="M159.773,146.954c-.076-.2-.152-.4-.232-.6a.09.09,0,0,0-.055-.039c-.05-.015-.1-.023-.16-.036l.485-.618a.813.813,0,0,1,.379.228.12.12,0,0,1-.044.2,3.013,3.013,0,0,1-.34.086l.258.681c.068-.012.136-.024.2-.035a1.939,1.939,0,0,1,1.93.9,1.948,1.948,0,0,1-1.7,2.973,1.933,1.933,0,0,1-1.874-1.62.68.68,0,0,1,0-.318.85.85,0,0,0,.017-.288,1.186,1.186,0,0,1,.177-.628,1.9,1.9,0,0,1,.935-.872S159.765,146.963,159.773,146.954Zm-.713,1.644a1.487,1.487,0,0,0,.869,1.52A1.5,1.5,0,0,0,161.7,147.8a1.461,1.461,0,0,0-1.468-.5l.167.439c.122.321.246.642.366.964a.152.152,0,0,1-.183.216l-.14-.027Zm.875-1.219a1.513,1.513,0,0,0-.819.916l1.268.264Z" transform="translate(-150.832 -138.751)" fill="#fff"/>
  </g>
</svg>
