<svg id="bike-park" xmlns="http://www.w3.org/2000/svg" width="64" height="64" viewBox="0 0 64 64">
  <g id="Background_1_">
    <path id="Path_245" data-name="Path 245" d="M64,4.181A4.18,4.18,0,0,0,59.822,0H4.18A4.182,4.182,0,0,0,0,4.181V59.813A4.185,4.185,0,0,0,4.18,64H59.822A4.183,4.183,0,0,0,64,59.813Z" fill="#38598a"/>
  </g>
  <g id="Bike_Park" transform="translate(4.747 5.448)">
    <path id="Path_246" data-name="Path 246" d="M60.5,146.254l1.022-1.345A6.521,6.521,0,0,1,62.7,147a8.329,8.329,0,0,1-2.161,9.1,6.313,6.313,0,0,1-4.891,1.889,6.231,6.231,0,0,1-5.233-3.176,8.458,8.458,0,0,1,.881-9.805,7.064,7.064,0,0,1,4.3-2.457,6.182,6.182,0,0,1,4.445.991L59.023,144.9a4.862,4.862,0,0,0-2.344-.705,5.347,5.347,0,0,0-4.146,1.816,6.582,6.582,0,0,0-.621,8.106,4.982,4.982,0,0,0,7.3,1.011,6.575,6.575,0,0,0,1.707-8.173C60.8,146.721,60.646,146.5,60.5,146.254Z" transform="translate(-42.863 -115.606)" fill="#fff"/>
    <path id="Path_247" data-name="Path 247" d="M139.52,62.5a3.066,3.066,0,0,1,3.432-2.817,6.011,6.011,0,0,1,5,3.2c.161.272.287.564.46.91l-2.192-.3a2.871,2.871,0,0,1-1.438,2.422,2.709,2.709,0,0,1-1.937.32c-1.587-.321-2.351-1.537-2.2-3.549Z" transform="translate(-112.73 -51.609)" fill="#fff"/>
    <path id="Path_248" data-name="Path 248" d="M128.918,150.007c-.15.3-.283.591-.438.868a.418.418,0,0,1-.231.158q-.657.2-1.321.387c-.187.051-.276.127-.262.35.071,1.127.121,2.256.178,3.384a1.824,1.824,0,0,1-.571,1.516.58.58,0,0,1-.419.129,10.76,10.76,0,0,1-1.2-.249.458.458,0,0,1-.273-.226c-.472-1.1-.931-2.2-1.39-3.307a.893.893,0,0,1-.063-.29q-.066-1.258-.121-2.516a1.759,1.759,0,0,1,.393-1.228.371.371,0,0,1,.291-.127c1.759.359,3.516.731,5.273,1.1C128.808,149.966,128.851,149.986,128.918,150.007Z" transform="translate(-99.793 -120.555)" fill="#fff"/>
    <path id="Path_249" data-name="Path 249" d="M133.078,238.163l-1,1.416a7.443,7.443,0,0,0,3.829,1.1l-.1,1.16a8.553,8.553,0,0,1-4.433-1.279l-1.281,1.791-2.134-4.669Z" transform="translate(-103.789 -189.245)" fill="#fff"/>
    <path id="Path_250" data-name="Path 250" d="M242.72,85.263l1.935.637-3.83,3.428L239.772,84.3l1.819.593,1.3-3.722,1.125.333Z" transform="translate(-190.321 -68.222)" fill="#fff"/>
    <path id="Path_251" data-name="Path 251" d="M120.642,27.555l4.468,2.552L120.669,32.7V30.687a18.693,18.693,0,0,1-3.949-.605l.268-1.073,3.654.548Z" transform="translate(-95.084 -26.774)" fill="#fff"/>
    <path id="Path_252" data-name="Path 252" d="M24.6,107.977l-1.7.464,1.295-4.966,3.509,3.641-1.915.538a12.4,12.4,0,0,1-.384,4.065l-1.133-.269A11.273,11.273,0,0,0,24.6,107.977Z" transform="translate(-22.466 -85.47)" fill="#fff"/>
    <path id="Path_253" data-name="Path 253" d="M31.142,34.264l-.928-.752,3.947-3.745.76.913Z" transform="translate(-28.131 -28.486)" fill="#fff"/>
    <path id="Path_254" data-name="Path 254" d="M229.878,218.564l1.064.5a14.688,14.688,0,0,1-3.407,4.271l-.834-.815C227.849,221.275,229.17,220.186,229.878,218.564Z" transform="translate(-180.205 -174.45)" fill="#fff"/>
    <path id="Path_255" data-name="Path 255" d="M214.756,24.314l-.161,1.167a21.927,21.927,0,0,0-5.155-.08l-.143-1.165A21.922,21.922,0,0,1,214.756,24.314Z" transform="translate(-166.735 -24.101)" fill="#fff"/>
    <path id="Path_256" data-name="Path 256" d="M254.313,40.37h-1.144c-.112-1.617-.11-3.274-1.114-4.72l.884-.689C253.76,35.648,254.485,38.491,254.313,40.37Z" transform="translate(-199.828 -32.507)" fill="#fff"/>
    <path id="Path_257" data-name="Path 257" d="M240.934,126.642l1.1.1c.1,1.73.2,3.439.295,5.195l-1.11.137A33.676,33.676,0,0,1,240.934,126.642Z" transform="translate(-191.205 -103.387)" fill="#fff"/>
    <path id="Path_258" data-name="Path 258" d="M104.116,226.843l-.575,1.021a6.485,6.485,0,0,0-4.742-.926l-.13-1.168A7.485,7.485,0,0,1,104.116,226.843Z" transform="translate(-81.113 -179.922)" fill="#fff"/>
    <path id="Path_259" data-name="Path 259" d="M57.824,230.036l.195,1.116a40.511,40.511,0,0,1-5.358.647v-1.12Z" transform="translate(-45.504 -183.329)" fill="#fff"/>
    <path id="Path_260" data-name="Path 260" d="M168.622,29.5l.294,1.144-5.233,1.231L163.5,30.7Z" transform="translate(-131.288 -28.278)" fill="#fff"/>
    <path id="Path_261" data-name="Path 261" d="M71.09,25.974l.141-1.174,5.3.71-.2,1.161Z" transform="translate(-59.768 -24.642)" fill="#fff"/>
    <path id="Path_262" data-name="Path 262" d="M186.187,249.317a17.438,17.438,0,0,0,5.024-.738l.446,1.151c-.717.165-1.4.374-2.09.468-1.037.14-2.086.2-3.129.291-.173.016-.26-.041-.254-.233C186.195,249.949,186.187,249.64,186.187,249.317Z" transform="translate(-148.846 -197.68)" fill="#fff"/>
    <path id="Path_263" data-name="Path 263" d="M21.636,161.628l1.171.17c-.168,1.756-.333,3.482-.5,5.237l-1.179-.055Z" transform="translate(-21.098 -130.438)" fill="#fff"/>
    <path id="Path_264" data-name="Path 264" d="M24.528,75.008l-1.144.259a22.058,22.058,0,0,1-.76-5.36H23.8A21.979,21.979,0,0,0,24.528,75.008Z" transform="translate(-22.255 -59.519)" fill="#fff"/>
    <path id="Path_265" data-name="Path 265" d="M246.267,178.634h-1.131c-.038-1.756-.076-3.479-.115-5.253l1.128-.1A49.787,49.787,0,0,1,246.267,178.634Z" transform="translate(-194.384 -139.448)" fill="#fff"/>
    <path id="Path_266" data-name="Path 266" d="M22.727,214.159a4.2,4.2,0,0,1-1.453-2.148A10.2,10.2,0,0,1,21,209.336c-.007-.158,0-.316,0-.5h1.217c0,.49,0,.977,0,1.464a3.536,3.536,0,0,0,1.231,2.927Z" transform="translate(-20.999 -166.921)" fill="#fff"/>
    <path id="Path_267" data-name="Path 267" d="M95.608,103.254c-.2.255-.406.5-.591.768a.3.3,0,0,1-.368.143c-1-.221-2.007-.424-3.02-.7q.73-.222,1.46-.443c.535-.161,1.072-.315,1.6-.483.282-.089.5-.244.48-.59-.066-.963-.13-1.926-.2-2.962a12.578,12.578,0,0,1-4.447,1.987c-.077.693-.65.883-1.217.485-1.078-.755-2.2-1.45-3.334-2.194L85,102.416c1.6.339,3.186.677,4.772,1.009s3.186.66,4.812,1c-.21.35-.4.686-.613,1.007a.3.3,0,0,1-.251.071q-3.724-.769-7.446-1.552c-.3-.063-.6-.122-.967-.195.231.557.44,1.065.652,1.573q1.511,3.614,3.03,7.225a.51.51,0,0,0,.3.263c.66.157,1.326.293,1.992.422.176.034.233.1.212.279-.039.316-.057.635-.087,1-.383-.075-.751-.144-1.117-.219-.567-.116-1.133-.237-1.7-.354a.7.7,0,0,1-.556-.444q-1.923-4.625-3.857-9.246a.678.678,0,0,0-.075-.1l-1.392,1.831q-2.079,2.73-4.158,5.46a.612.612,0,0,1-.624.268.528.528,0,0,1-.474-.474.925.925,0,0,1,.161-.573c1.051-1.41,2.119-2.806,3.183-4.205.786-1.034,1.6-2.05,2.348-3.109a4.933,4.933,0,0,0,.581-1.3c.361-1.088.681-2.191,1.031-3.283a.281.281,0,0,0-.144-.386c-1.174-.757-2.347-1.517-3.508-2.295a1.1,1.1,0,0,1-.389-.5.532.532,0,0,1,.21-.613.612.612,0,0,1,.675-.079c.125.06.241.135.38.214l.1-.177a1.2,1.2,0,0,1,1.437-.573,10.714,10.714,0,0,0,9.569-1.747,3.964,3.964,0,0,1,3.056-.623,5.175,5.175,0,0,1,1.753.463A3.939,3.939,0,0,1,99.674,94.7a20,20,0,0,1,.979,7.694,5.131,5.131,0,0,1-1.441,2.873,12.617,12.617,0,0,0-2.6,4.3,17.253,17.253,0,0,0-1.052,6.319,1.829,1.829,0,0,1-.711,1.545,1.81,1.81,0,0,1-2,.228,1.779,1.779,0,0,1-1.073-1.674,19.357,19.357,0,0,1,3.9-12.413.8.8,0,0,0,.082-.244Zm-1.333-8.479a15.152,15.152,0,0,1-4.286,1.992,14.421,14.421,0,0,1-4.742.493L88.4,99.321a1.435,1.435,0,0,1,1-.612,9.7,9.7,0,0,0,4.872-2.266.391.391,0,0,0,.146-.266C94.384,95.72,94.327,95.265,94.275,94.775Z" transform="translate(-64.691 -76.495)" fill="#fff"/>
    <path id="Path_268" data-name="Path 268" d="M163.271,150.84c-.3-.795-.608-1.6-.927-2.406a.359.359,0,0,0-.219-.158c-.2-.059-.405-.093-.639-.144l1.94-2.473a3.252,3.252,0,0,1,1.515.911.482.482,0,0,1-.176.814,12.039,12.039,0,0,1-1.358.345l1.033,2.726c.272-.046.543-.1.815-.139a7.757,7.757,0,0,1,7.721,3.6,7.794,7.794,0,0,1-6.8,11.894,7.731,7.731,0,0,1-7.5-6.482,2.721,2.721,0,0,1,.019-1.27,3.4,3.4,0,0,0,.07-1.154,4.745,4.745,0,0,1,.709-2.513,7.582,7.582,0,0,1,3.741-3.487C163.228,150.9,163.238,150.875,163.271,150.84Zm-2.854,6.578a5.947,5.947,0,0,0,3.478,6.081,6,6,0,0,0,7.089-9.295,5.845,5.845,0,0,0-5.872-1.994l.667,1.754c.489,1.286.985,2.569,1.466,3.858a.608.608,0,0,1-.731.863c-.186-.036-.373-.071-.558-.109Zm3.5-4.877a6.052,6.052,0,0,0-3.274,3.665l5.075,1.058Z" transform="translate(-127.503 -118.024)" fill="#fff"/>
  </g>
</svg>
