<svg id="bike-park" xmlns="http://www.w3.org/2000/svg" width="31.998" height="31.998" viewBox="0 0 31.998 31.998">
  <g id="Background_1_">
    <path id="Path_245" data-name="Path 245" d="M32,2.091A2.09,2.09,0,0,0,29.909,0H2.09A2.091,2.091,0,0,0,0,2.091V29.9A2.092,2.092,0,0,0,2.09,32H29.909A2.092,2.092,0,0,0,32,29.9Z" fill="#38598a"/>
  </g>
  <g id="Bike_Park" transform="translate(2.373 2.724)">
    <path id="Path_246" data-name="Path 246" d="M54.873,144.365l.511-.673a3.26,3.26,0,0,1,.592,1.048,4.164,4.164,0,0,1-1.081,4.55,3.156,3.156,0,0,1-2.446.945,3.115,3.115,0,0,1-2.616-1.588,4.229,4.229,0,0,1,.44-4.9,3.532,3.532,0,0,1,2.151-1.228,3.091,3.091,0,0,1,2.222.5l-.511.679a2.431,2.431,0,0,0-1.172-.353,2.673,2.673,0,0,0-2.073.908,3.291,3.291,0,0,0-.311,4.053,2.491,2.491,0,0,0,3.652.505,3.288,3.288,0,0,0,.853-4.086C55.023,144.6,54.947,144.487,54.873,144.365Z" transform="translate(-46.056 -129.042)" fill="#fff"/>
    <path id="Path_247" data-name="Path 247" d="M139.52,61.091a1.533,1.533,0,0,1,1.716-1.408,3.006,3.006,0,0,1,2.5,1.6c.08.136.143.282.23.455l-1.1-.152a1.435,1.435,0,0,1-.719,1.211,1.355,1.355,0,0,1-.969.16c-.793-.16-1.176-.769-1.1-1.774Z" transform="translate(-126.126 -55.644)" fill="#fff"/>
    <path id="Path_248" data-name="Path 248" d="M125.861,149.43c-.075.151-.141.3-.219.434a.209.209,0,0,1-.115.079q-.328.1-.66.193c-.094.026-.138.063-.131.175.035.564.061,1.128.089,1.692a.912.912,0,0,1-.286.758.29.29,0,0,1-.209.065,5.38,5.38,0,0,1-.6-.124.229.229,0,0,1-.136-.113c-.236-.549-.466-1.1-.695-1.654a.446.446,0,0,1-.031-.145q-.033-.629-.061-1.258a.88.88,0,0,1,.2-.614.185.185,0,0,1,.145-.063c.88.179,1.758.365,2.637.55C125.806,149.409,125.828,149.419,125.861,149.43Z" transform="translate(-111.299 -134.704)" fill="#fff"/>
    <path id="Path_249" data-name="Path 249" d="M130.523,237.921l-.5.708a3.721,3.721,0,0,0,1.914.549l-.048.58a4.276,4.276,0,0,1-2.216-.639l-.64.9-1.067-2.334Z" transform="translate(-115.879 -213.464)" fill="#fff"/>
    <path id="Path_250" data-name="Path 250" d="M241.246,83.215l.967.318L240.3,85.247l-.526-2.516.91.3.652-1.861.563.166Z" transform="translate(-215.048 -74.695)" fill="#fff"/>
    <path id="Path_251" data-name="Path 251" d="M118.681,27.555l2.234,1.276-2.221,1.3V29.121a9.346,9.346,0,0,1-1.974-.3l.134-.537,1.827.274Z" transform="translate(-105.902 -27.165)" fill="#fff"/>
    <path id="Path_252" data-name="Path 252" d="M23.746,105.726l-.852.232.647-2.483L25.3,105.3l-.957.269a6.2,6.2,0,0,1-.192,2.032l-.567-.134A5.636,5.636,0,0,0,23.746,105.726Z" transform="translate(-22.68 -94.473)" fill="#fff"/>
    <path id="Path_253" data-name="Path 253" d="M30.678,32.015l-.464-.376,1.974-1.872.38.457Z" transform="translate(-29.173 -29.127)" fill="#fff"/>
    <path id="Path_254" data-name="Path 254" d="M228.289,218.564l.532.25a7.344,7.344,0,0,1-1.7,2.135l-.417-.407A7.465,7.465,0,0,0,228.289,218.564Z" transform="translate(-203.454 -196.508)" fill="#fff"/>
    <path id="Path_255" data-name="Path 255" d="M212.026,24.208l-.08.584a10.963,10.963,0,0,0-2.577-.04l-.071-.582A10.961,10.961,0,0,1,212.026,24.208Z" transform="translate(-188.017 -24.101)" fill="#fff"/>
    <path id="Path_256" data-name="Path 256" d="M253.184,37.666h-.572a4.406,4.406,0,0,0-.557-2.36l.442-.344A4.188,4.188,0,0,1,253.184,37.666Z" transform="translate(-225.943 -33.735)" fill="#fff"/>
    <path id="Path_257" data-name="Path 257" d="M240.924,126.642l.552.048.147,2.6-.555.069A16.838,16.838,0,0,1,240.924,126.642Z" transform="translate(-216.061 -115.015)" fill="#fff"/>
    <path id="Path_258" data-name="Path 258" d="M101.392,226.239l-.288.51a3.242,3.242,0,0,0-2.371-.463l-.065-.584A3.742,3.742,0,0,1,101.392,226.239Z" transform="translate(-89.891 -202.78)" fill="#fff"/>
    <path id="Path_259" data-name="Path 259" d="M55.243,230.036l.1.558a20.253,20.253,0,0,1-2.679.324v-.56Z" transform="translate(-49.083 -206.684)" fill="#fff"/>
    <path id="Path_260" data-name="Path 260" d="M166.06,29.5l.147.572-2.616.615L163.5,30.1Z" transform="translate(-147.394 -28.888)" fill="#fff"/>
    <path id="Path_261" data-name="Path 261" d="M71.09,25.387l.071-.587,2.652.355-.1.581Z" transform="translate(-65.429 -24.721)" fill="#fff"/>
    <path id="Path_262" data-name="Path 262" d="M186.185,248.948a8.719,8.719,0,0,0,2.512-.369l.223.575c-.359.082-.7.187-1.045.234-.519.07-1.043.1-1.565.146-.087.008-.13-.021-.127-.116C186.189,249.264,186.185,249.11,186.185,248.948Z" transform="translate(-167.516 -223.131)" fill="#fff"/>
    <path id="Path_263" data-name="Path 263" d="M21.381,161.628l.585.085-.25,2.618-.59-.028Z" transform="translate(-21.113 -146.034)" fill="#fff"/>
    <path id="Path_264" data-name="Path 264" d="M23.575,72.457,23,72.587a11.029,11.029,0,0,1-.38-2.68h.589A10.989,10.989,0,0,0,23.575,72.457Z" transform="translate(-22.439 -64.713)" fill="#fff"/>
    <path id="Path_265" data-name="Path 265" d="M245.644,175.957h-.566c-.019-.878-.038-1.739-.057-2.626l.564-.051A24.9,24.9,0,0,1,245.644,175.957Z" transform="translate(-219.704 -156.365)" fill="#fff"/>
    <path id="Path_266" data-name="Path 266" d="M21.863,211.5a2.1,2.1,0,0,1-.727-1.074A5.1,5.1,0,0,1,21,209.086c0-.079,0-.158,0-.25h.609c0,.245,0,.489,0,.732a1.768,1.768,0,0,0,.615,1.464Z" transform="translate(-20.999 -187.88)" fill="#fff"/>
    <path id="Path_267" data-name="Path 267" d="M86.529,97.583c-.1.128-.2.252-.3.384a.15.15,0,0,1-.184.072c-.5-.111-1-.212-1.51-.348l.73-.222c.267-.081.536-.157.8-.241.141-.045.252-.122.24-.3-.033-.481-.065-.963-.1-1.481a6.289,6.289,0,0,1-2.223.993c-.038.347-.325.441-.609.243-.539-.377-1.1-.725-1.667-1.1l-.49,1.573c.8.17,1.593.339,2.386.5s1.593.33,2.406.5c-.1.175-.2.343-.307.5a.148.148,0,0,1-.125.035q-1.862-.385-3.723-.776c-.151-.031-.3-.061-.484-.1.115.278.22.533.326.786q.756,1.807,1.515,3.612a.255.255,0,0,0,.152.132c.33.079.663.147,1,.211.088.017.117.051.106.139-.019.158-.028.318-.044.5-.192-.038-.375-.072-.559-.11l-.85-.177a.352.352,0,0,1-.278-.222q-.961-2.313-1.928-4.623a.34.34,0,0,0-.037-.05l-.7.915q-1.04,1.365-2.079,2.73a.306.306,0,0,1-.312.134.264.264,0,0,1-.237-.237.462.462,0,0,1,.08-.287c.525-.7,1.059-1.4,1.591-2.1.393-.517.8-1.025,1.174-1.555a2.466,2.466,0,0,0,.291-.651c.181-.544.34-1.1.516-1.641a.141.141,0,0,0-.072-.193c-.587-.379-1.174-.759-1.754-1.147a.547.547,0,0,1-.194-.248.266.266,0,0,1,.1-.307.306.306,0,0,1,.337-.04c.062.03.121.068.19.107l.051-.088a.6.6,0,0,1,.718-.287,5.357,5.357,0,0,0,4.784-.874A1.982,1.982,0,0,1,86.8,91.95a2.588,2.588,0,0,1,.876.232,1.969,1.969,0,0,1,.889,1.126,10,10,0,0,1,.49,3.847,2.565,2.565,0,0,1-.721,1.437,6.308,6.308,0,0,0-1.3,2.149,8.626,8.626,0,0,0-.526,3.159.914.914,0,0,1-.355.773.9.9,0,0,1-1,.114.889.889,0,0,1-.537-.837,9.678,9.678,0,0,1,1.951-6.206.4.4,0,0,0,.041-.122Zm-.666-4.239a7.575,7.575,0,0,1-2.143,1,7.21,7.21,0,0,1-2.371.246l1.576,1.031a.717.717,0,0,1,.5-.306,4.847,4.847,0,0,0,2.436-1.133.2.2,0,0,0,.073-.133C85.917,93.816,85.888,93.589,85.863,93.344Z" transform="translate(-71.072 -84.204)" fill="#fff"/>
    <path id="Path_268" data-name="Path 268" d="M160.939,148.249c-.152-.4-.3-.8-.463-1.2a.179.179,0,0,0-.109-.079c-.1-.03-.2-.047-.319-.072l.97-1.237a1.626,1.626,0,0,1,.757.455.241.241,0,0,1-.088.407,6.018,6.018,0,0,1-.679.172l.516,1.363c.136-.023.271-.048.408-.069a3.878,3.878,0,0,1,3.86,1.8,3.9,3.9,0,0,1-3.4,5.947,3.865,3.865,0,0,1-3.749-3.241,1.361,1.361,0,0,1,.01-.635,1.7,1.7,0,0,0,.035-.577,2.373,2.373,0,0,1,.354-1.256,3.791,3.791,0,0,1,1.87-1.743C160.917,148.277,160.923,148.267,160.939,148.249Zm-1.427,3.289a2.974,2.974,0,0,0,1.739,3.04,3,3,0,0,0,3.544-4.647,2.922,2.922,0,0,0-2.936-1l.333.877c.245.643.492,1.285.733,1.929a.3.3,0,0,1-.365.431c-.093-.018-.186-.035-.279-.055Zm1.75-2.438a3.026,3.026,0,0,0-1.637,1.832l2.537.529Z" transform="translate(-143.056 -131.842)" fill="#fff"/>
  </g>
</svg>
