<svg id="bike-park" xmlns="http://www.w3.org/2000/svg" width="48.001" height="48" viewBox="0 0 48.001 48">
  <g id="Background_1_">
    <path id="Path_245" data-name="Path 245" d="M48,3.136A3.135,3.135,0,0,0,44.867,0H3.135A3.136,3.136,0,0,0,0,3.136V44.86A3.139,3.139,0,0,0,3.135,48H44.867A3.138,3.138,0,0,0,48,44.86Z" fill="#38598a"/>
  </g>
  <g id="Bike_Park" transform="translate(3.56 4.086)">
    <path id="Path_246" data-name="Path 246" d="M57.686,145.309l.766-1.009a4.891,4.891,0,0,1,.887,1.571,6.247,6.247,0,0,1-1.621,6.826,4.734,4.734,0,0,1-3.669,1.417,4.673,4.673,0,0,1-3.924-2.382,6.343,6.343,0,0,1,.66-7.354,5.3,5.3,0,0,1,3.226-1.843,4.636,4.636,0,0,1,3.334.743L56.58,144.3a3.647,3.647,0,0,0-1.758-.529,4.01,4.01,0,0,0-3.109,1.362,4.936,4.936,0,0,0-.466,6.08,3.736,3.736,0,0,0,5.479.758,4.932,4.932,0,0,0,1.28-6.13C57.911,145.66,57.8,145.493,57.686,145.309Z" transform="translate(-44.459 -122.323)" fill="#fff"/>
    <path id="Path_247" data-name="Path 247" d="M139.52,61.8a2.3,2.3,0,0,1,2.574-2.113,4.509,4.509,0,0,1,3.75,2.4c.121.2.215.423.345.683l-1.644-.228a2.153,2.153,0,0,1-1.079,1.817,2.032,2.032,0,0,1-1.453.24c-1.19-.24-1.764-1.153-1.652-2.662Z" transform="translate(-119.427 -53.626)" fill="#fff"/>
    <path id="Path_248" data-name="Path 248" d="M127.389,149.719c-.112.226-.212.443-.329.651a.314.314,0,0,1-.173.118q-.493.154-.99.29c-.14.038-.207.1-.2.262.053.845.091,1.692.133,2.538a1.368,1.368,0,0,1-.428,1.137.435.435,0,0,1-.314.1,8.068,8.068,0,0,1-.9-.187.343.343,0,0,1-.2-.17c-.354-.824-.7-1.652-1.042-2.481a.67.67,0,0,1-.047-.218q-.049-.943-.091-1.887a1.319,1.319,0,0,1,.294-.921.278.278,0,0,1,.218-.095c1.32.269,2.637.548,3.955.826C127.307,149.688,127.34,149.7,127.389,149.719Z" transform="translate(-105.545 -127.629)" fill="#fff"/>
    <path id="Path_249" data-name="Path 249" d="M131.8,238.042l-.747,1.062a5.582,5.582,0,0,0,2.872.823l-.071.87a6.415,6.415,0,0,1-3.325-.959l-.961,1.343-1.6-3.5Z" transform="translate(-109.834 -201.353)" fill="#fff"/>
    <path id="Path_250" data-name="Path 250" d="M241.983,84.239l1.451.478-2.872,2.571-.789-3.774,1.364.445.978-2.792.844.25Z" transform="translate(-202.684 -71.458)" fill="#fff"/>
    <path id="Path_251" data-name="Path 251" d="M119.662,27.555l3.351,1.914-3.331,1.944V29.9a14.02,14.02,0,0,1-2.962-.454l.2-.8,2.741.411Z" transform="translate(-100.493 -26.969)" fill="#fff"/>
    <path id="Path_252" data-name="Path 252" d="M24.172,106.851l-1.278.348.971-3.724,2.632,2.73-1.436.4a9.3,9.3,0,0,1-.288,3.049l-.85-.2A8.455,8.455,0,0,0,24.172,106.851Z" transform="translate(-22.573 -89.971)" fill="#fff"/>
    <path id="Path_253" data-name="Path 253" d="M30.91,33.14l-.7-.564,2.961-2.809.57.685Z" transform="translate(-28.652 -28.806)" fill="#fff"/>
    <path id="Path_254" data-name="Path 254" d="M229.084,218.564l.8.375a11.016,11.016,0,0,1-2.555,3.2l-.626-.611A11.2,11.2,0,0,0,229.084,218.564Z" transform="translate(-191.829 -185.478)" fill="#fff"/>
    <path id="Path_255" data-name="Path 255" d="M213.391,24.261l-.121.875a16.445,16.445,0,0,0-3.866-.06L209.3,24.2A16.442,16.442,0,0,1,213.391,24.261Z" transform="translate(-177.375 -24.101)" fill="#fff"/>
    <path id="Path_256" data-name="Path 256" d="M253.749,39.018h-.858a6.609,6.609,0,0,0-.836-3.54l.663-.516C253.334,35.477,253.878,37.609,253.749,39.018Z" transform="translate(-212.884 -33.121)" fill="#fff"/>
    <path id="Path_257" data-name="Path 257" d="M240.929,126.642l.827.073.221,3.9-.832.1A25.257,25.257,0,0,1,240.929,126.642Z" transform="translate(-203.632 -109.2)" fill="#fff"/>
    <path id="Path_258" data-name="Path 258" d="M102.754,226.541l-.431.766a4.864,4.864,0,0,0-3.556-.695l-.1-.876A5.613,5.613,0,0,1,102.754,226.541Z" transform="translate(-85.502 -191.35)" fill="#fff"/>
    <path id="Path_259" data-name="Path 259" d="M56.534,230.036l.146.837a30.384,30.384,0,0,1-4.019.486v-.84Z" transform="translate(-47.293 -195.005)" fill="#fff"/>
    <path id="Path_260" data-name="Path 260" d="M167.341,29.5l.221.858-3.924.923L163.5,30.4Z" transform="translate(-139.34 -28.583)" fill="#fff"/>
    <path id="Path_261" data-name="Path 261" d="M71.09,25.68l.106-.88,3.978.533-.152.871Z" transform="translate(-62.598 -24.682)" fill="#fff"/>
    <path id="Path_262" data-name="Path 262" d="M186.186,249.133a13.079,13.079,0,0,0,3.768-.554l.334.863c-.538.124-1.047.281-1.567.351-.778.1-1.564.148-2.347.219-.13.012-.195-.031-.19-.174C186.192,249.606,186.186,249.375,186.186,249.133Z" transform="translate(-158.18 -210.404)" fill="#fff"/>
    <path id="Path_263" data-name="Path 263" d="M21.509,161.628l.878.128-.375,3.928-.885-.042Z" transform="translate(-21.105 -138.235)" fill="#fff"/>
    <path id="Path_264" data-name="Path 264" d="M24.052,73.733l-.858.194a16.544,16.544,0,0,1-.57-4.02h.884A16.485,16.485,0,0,0,24.052,73.733Z" transform="translate(-22.347 -62.116)" fill="#fff"/>
    <path id="Path_265" data-name="Path 265" d="M245.956,177.3h-.848c-.029-1.317-.057-2.609-.086-3.94l.846-.076A37.338,37.338,0,0,1,245.956,177.3Z" transform="translate(-207.043 -147.906)" fill="#fff"/>
    <path id="Path_266" data-name="Path 266" d="M22.3,212.828a3.152,3.152,0,0,1-1.09-1.611,7.647,7.647,0,0,1-.2-2.006c-.005-.118,0-.237,0-.375h.913c0,.368,0,.733,0,1.1a2.652,2.652,0,0,0,.923,2.2Z" transform="translate(-20.999 -177.399)" fill="#fff"/>
    <path id="Path_267" data-name="Path 267" d="M91.069,100.419c-.149.191-.3.378-.443.576a.225.225,0,0,1-.276.107c-.751-.166-1.505-.318-2.265-.522l1.095-.332c.4-.121.8-.236,1.2-.362.212-.067.378-.183.36-.443-.049-.722-.1-1.444-.15-2.221a9.434,9.434,0,0,1-3.335,1.49c-.058.52-.487.662-.913.364-.808-.566-1.647-1.088-2.5-1.646l-.734,2.359c1.2.254,2.39.508,3.579.757s2.389.495,3.609.747c-.157.263-.3.514-.46.755a.221.221,0,0,1-.188.053q-2.793-.577-5.584-1.164c-.226-.047-.452-.091-.725-.146.173.418.33.8.489,1.179q1.133,2.711,2.273,5.419a.383.383,0,0,0,.228.2c.5.118.994.22,1.494.317.132.025.175.076.159.209-.029.237-.042.476-.065.751-.288-.056-.563-.108-.838-.164-.425-.087-.85-.178-1.275-.266a.528.528,0,0,1-.417-.333q-1.442-3.469-2.893-6.935a.509.509,0,0,0-.056-.075l-1.044,1.373q-1.56,2.048-3.119,4.1a.459.459,0,0,1-.468.2.4.4,0,0,1-.355-.356.694.694,0,0,1,.121-.43c.788-1.057,1.589-2.1,2.387-3.154.59-.775,1.2-1.538,1.761-2.332a3.7,3.7,0,0,0,.436-.976c.271-.816.511-1.643.774-2.462a.211.211,0,0,0-.108-.289c-.881-.568-1.761-1.138-2.631-1.721a.821.821,0,0,1-.292-.372.4.4,0,0,1,.157-.46.459.459,0,0,1,.506-.059c.093.045.181.1.285.161l.076-.133A.9.9,0,0,1,82,93.746a8.036,8.036,0,0,0,7.176-1.311,2.973,2.973,0,0,1,2.292-.467,3.882,3.882,0,0,1,1.315.348,2.954,2.954,0,0,1,1.333,1.689,15,15,0,0,1,.734,5.771,3.848,3.848,0,0,1-1.081,2.155,9.463,9.463,0,0,0-1.949,3.224,12.94,12.94,0,0,0-.789,4.74,1.372,1.372,0,0,1-.533,1.159,1.357,1.357,0,0,1-1.5.171,1.334,1.334,0,0,1-.8-1.256,14.518,14.518,0,0,1,2.927-9.31.6.6,0,0,0,.061-.183Zm-1-6.359a11.364,11.364,0,0,1-3.215,1.494,10.816,10.816,0,0,1-3.556.369l2.365,1.546a1.076,1.076,0,0,1,.747-.459,7.271,7.271,0,0,0,3.654-1.7.293.293,0,0,0,.11-.2C90.151,94.768,90.108,94.427,90.069,94.06Z" transform="translate(-67.881 -80.349)" fill="#fff"/>
    <path id="Path_268" data-name="Path 268" d="M162.105,149.544c-.228-.6-.456-1.2-.695-1.8a.269.269,0,0,0-.164-.118c-.149-.044-.3-.07-.479-.108l1.455-1.855a2.439,2.439,0,0,1,1.136.683.361.361,0,0,1-.132.61,9.028,9.028,0,0,1-1.019.259l.775,2.044c.2-.035.407-.073.611-.1a5.818,5.818,0,0,1,5.791,2.7,5.845,5.845,0,0,1-5.1,8.921,5.8,5.8,0,0,1-5.624-4.862,2.041,2.041,0,0,1,.015-.953,2.552,2.552,0,0,0,.052-.865,3.559,3.559,0,0,1,.532-1.885,5.687,5.687,0,0,1,2.806-2.615C162.073,149.587,162.081,149.571,162.105,149.544Zm-2.14,4.933a4.461,4.461,0,0,0,2.608,4.561,4.5,4.5,0,0,0,5.317-6.971,4.384,4.384,0,0,0-4.4-1.5l.5,1.316c.367.964.738,1.927,1.1,2.894a.456.456,0,0,1-.548.647c-.14-.027-.28-.053-.419-.082Zm2.626-3.657a4.539,4.539,0,0,0-2.456,2.749l3.806.794Z" transform="translate(-135.279 -124.932)" fill="#fff"/>
  </g>
</svg>
