<svg xmlns="http://www.w3.org/2000/svg" width="16" height="16" viewBox="0 0 16 16">
  <g id="boat-launch" transform="translate(0 0)">
    <g id="Background" transform="translate(0 0)">
      <path id="Path_273" data-name="Path 273" d="M16,1.046A1.045,1.045,0,0,0,14.956,0H1.045A1.046,1.046,0,0,0,0,1.046V14.954A1.046,1.046,0,0,0,1.045,16H14.956A1.046,1.046,0,0,0,16,14.954V1.046Z" transform="translate(0 0)" fill="#38598a"/>
    </g>
    <g id="Boat_Launch" transform="translate(1.221 4.461)">
      <path id="Path_274" data-name="Path 274" d="M52.834,81.91l-.016.018,0,0-1.665-.347a3.877,3.877,0,0,1-2-.869,4.12,4.12,0,0,1-.627-1.647l2.568.509,1.192-.838.135.433-.673.525L59.6,81.312,58.343,83.08l-3.549-.739,0,0-.005-.015a1.177,1.177,0,0,0-1.1-.8A1.147,1.147,0,0,0,52.834,81.91Z" transform="translate(-46.997 -78.737)" fill="#fff"/>
      <path id="Path_275" data-name="Path 275" d="M33.858,147.946a1.931,1.931,0,0,0,1.263-.329l-13.558-2.786v3.115h5.982c.78,0,.764-.539.764-.539s.016.539.815.539c.78,0,.763-.539.763-.539s.017.539.815.539c.781,0,.764-.539.764-.539s.017.539.815.539c.78,0,.763-.539.763-.539S33.061,147.946,33.858,147.946Z" transform="translate(-21.563 -141.087)" fill="#fff"/>
      <line id="Line_154" data-name="Line 154" x2="2.757" y2="0.566" transform="translate(2.686 2.906)" fill="none" stroke="#fff" stroke-width="4.221"/>
      <line id="Line_155" data-name="Line 155" x2="3.384" y2="0.724" transform="translate(8.027 4.009)" fill="none" stroke="#fff" stroke-width="4.221"/>
      <path id="Path_276" data-name="Path 276" d="M122.039,131.946a1.018,1.018,0,1,1,1.018,1.059A1.04,1.04,0,0,1,122.039,131.946Zm1.018.677a.678.678,0,1,0-.651-.677A.663.663,0,0,0,123.057,132.623Z" transform="translate(-116.367 -127.933)" fill="#fff"/>
    </g>
  </g>
</svg>
