<svg xmlns="http://www.w3.org/2000/svg" width="31.999" height="31.999" viewBox="0 0 31.999 31.999">
  <g id="boat-launch" transform="translate(0 0)">
    <g id="Background" transform="translate(0 0)">
      <path id="Path_273" data-name="Path 273" d="M32,2.092A2.09,2.09,0,0,0,29.91,0H2.09A2.091,2.091,0,0,0,0,2.092V29.906A2.092,2.092,0,0,0,2.09,32H29.91A2.091,2.091,0,0,0,32,29.906V2.092Z" transform="translate(0 0)" fill="#38598a"/>
    </g>
    <g id="Boat_Launch" transform="translate(2.443 8.921)">
      <path id="Path_274" data-name="Path 274" d="M57.143,85.083l-.032.036,0,0-3.33-.694a7.754,7.754,0,0,1-4-1.738c-.835-.84-1.254-3.294-1.254-3.294l5.136,1.017,2.385-1.676.271.866-1.345,1.05,15.7,3.234-2.51,3.535-7.1-1.478,0-.009-.011-.03a2.354,2.354,0,0,0-2.2-1.595A2.293,2.293,0,0,0,57.143,85.083Z" transform="translate(-45.469 -78.737)" fill="#fff"/>
      <path id="Path_275" data-name="Path 275" d="M46.153,151.061a3.862,3.862,0,0,0,2.525-.658l-27.115-5.572v6.23H33.527c1.56,0,1.529-1.078,1.529-1.078s.032,1.078,1.629,1.078c1.56,0,1.527-1.078,1.527-1.078s.034,1.078,1.629,1.078c1.562,0,1.529-1.078,1.529-1.078s.034,1.078,1.63,1.078c1.559,0,1.525-1.078,1.525-1.078S44.558,151.061,46.153,151.061Z" transform="translate(-21.563 -137.343)" fill="#fff"/>
      <line id="Line_154" data-name="Line 154" x2="5.514" y2="1.132" transform="translate(5.371 5.811)" fill="none" stroke="#fff" stroke-width="4.221"/>
      <line id="Line_155" data-name="Line 155" x2="6.767" y2="1.448" transform="translate(16.053 8.018)" fill="none" stroke="#fff" stroke-width="4.221"/>
      <path id="Path_276" data-name="Path 276" d="M122.039,133.006a2.035,2.035,0,1,1,2.035,2.118A2.079,2.079,0,0,1,122.039,133.006Zm2.035,1.354a1.357,1.357,0,1,0-1.3-1.354A1.326,1.326,0,0,0,124.074,134.359Z" transform="translate(-110.695 -124.979)" fill="#fff"/>
    </g>
  </g>
</svg>
