<svg xmlns="http://www.w3.org/2000/svg" width="48" height="48" viewBox="0 0 48 48">
  <g id="boat-launch" transform="translate(0 0)">
    <g id="Background" transform="translate(0 0)">
      <path id="Path_273" data-name="Path 273" d="M48,3.137A3.136,3.136,0,0,0,44.866,0H3.135A3.137,3.137,0,0,0,0,3.137V44.86A3.138,3.138,0,0,0,3.135,48H44.866A3.137,3.137,0,0,0,48,44.86V3.137Z" transform="translate(0 0)" fill="#38598a"/>
    </g>
    <g id="Boat_Launch" transform="translate(3.664 13.381)">
      <path id="Path_274" data-name="Path 274" d="M61.453,88.256l-.048.054-.007,0-5-1.041s-3.849-.45-6-2.608c-1.253-1.259-1.881-4.941-1.881-4.941l7.7,1.526L59.8,78.737l.406,1.3-2.018,1.575,23.551,4.852-3.765,5.3L67.334,89.549l-.007-.014-.016-.045a3.531,3.531,0,0,0-3.3-2.392A3.44,3.44,0,0,0,61.453,88.256Z" transform="translate(-43.942 -78.737)" fill="#fff"/>
      <path id="Path_275" data-name="Path 275" d="M58.449,154.176c2.711,0,3.788-.987,3.788-.987l-40.673-8.358v9.345H39.509c2.34,0,2.293-1.617,2.293-1.617s.048,1.617,2.444,1.617c2.34,0,2.29-1.617,2.29-1.617s.05,1.617,2.444,1.617c2.343,0,2.293-1.617,2.293-1.617s.05,1.617,2.445,1.617c2.339,0,2.288-1.617,2.288-1.617S56.056,154.176,58.449,154.176Z" transform="translate(-21.563 -133.598)" fill="#fff"/>
      <line id="Line_154" data-name="Line 154" x2="8.272" y2="1.698" transform="translate(8.057 8.717)" fill="none" stroke="#fff" stroke-width="4.221"/>
      <line id="Line_155" data-name="Line 155" x2="10.15" y2="2.171" transform="translate(24.081 12.027)" fill="none" stroke="#fff" stroke-width="4.221"/>
      <path id="Path_276" data-name="Path 276" d="M122.039,134.065a3.053,3.053,0,1,1,3.052,3.177A3.119,3.119,0,0,1,122.039,134.065Zm3.052,2.031a2.035,2.035,0,1,0-1.952-2.031A1.989,1.989,0,0,0,125.091,136.1Z" transform="translate(-105.022 -122.024)" fill="#fff"/>
    </g>
  </g>
</svg>
