<svg xmlns="http://www.w3.org/2000/svg" width="64" height="64" viewBox="0 0 64 64">
  <g id="boat-launch" transform="translate(0 0)">
    <g id="Background" transform="translate(0 0)">
      <path id="Path_273" data-name="Path 273" d="M64,4.183A4.181,4.181,0,0,0,59.822,0H4.18A4.182,4.182,0,0,0,0,4.183V59.814A4.184,4.184,0,0,0,4.18,64H59.822A4.183,4.183,0,0,0,64,59.814V4.183Z" transform="translate(0 0)" fill="#38598a"/>
    </g>
    <g id="Boat_Launch" transform="translate(4.886 17.842)">
      <path id="Path_274" data-name="Path 274" d="M65.763,91.43,65.7,91.5l-.009.006L59.03,90.12s-5.131-.6-8-3.477c-1.67-1.679-2.508-6.588-2.508-6.588L58.8,82.09l4.77-3.353.541,1.733-2.69,2.1,31.4,6.469L87.8,96.109,73.6,93.153l-.009-.019-.021-.059a4.708,4.708,0,0,0-4.4-3.189A4.586,4.586,0,0,0,65.763,91.43Z" transform="translate(-42.415 -78.737)" fill="#fff"/>
      <path id="Path_275" data-name="Path 275" d="M70.744,157.291c3.615,0,5.05-1.316,5.05-1.316L21.563,144.831v12.46H45.491c3.121,0,3.057-2.155,3.057-2.155s.063,2.155,3.258,2.155c3.121,0,3.054-2.155,3.054-2.155s.067,2.155,3.258,2.155c3.124,0,3.057-2.155,3.057-2.155s.067,2.155,3.26,2.155c3.119,0,3.05-2.155,3.05-2.155S67.555,157.291,70.744,157.291Z" transform="translate(-21.563 -129.854)" fill="#fff"/>
      <line id="Line_154" data-name="Line 154" x2="11.029" y2="2.264" transform="translate(10.743 11.623)" fill="none" stroke="#fff" stroke-width="4.221"/>
      <line id="Line_155" data-name="Line 155" x2="13.534" y2="2.895" transform="translate(32.108 16.036)" fill="none" stroke="#fff" stroke-width="4.221"/>
      <path id="Path_276" data-name="Path 276" d="M122.039,135.124a4.071,4.071,0,1,1,4.07,4.235A4.159,4.159,0,0,1,122.039,135.124Zm4.07,2.708a2.713,2.713,0,1,0-2.6-2.708A2.652,2.652,0,0,0,126.109,137.832Z" transform="translate(-99.35 -119.07)" fill="#fff"/>
    </g>
  </g>
</svg>
