<svg xmlns="http://www.w3.org/2000/svg" width="16.004" height="16.004" viewBox="0 0 16.004 16.004">
  <g id="campfires" transform="translate(0 0)">
    <g id="Background" transform="translate(0 0)">
      <path id="Path_286" data-name="Path 286" d="M16,1.046A1.045,1.045,0,0,0,14.959,0H1.046A1.046,1.046,0,0,0,0,1.046V14.957A1.047,1.047,0,0,0,1.046,16H14.959A1.046,1.046,0,0,0,16,14.957Z" transform="translate(0)" fill="#38598a"/>
    </g>
    <g id="Campfires-2" data-name="Campfires" transform="translate(3.685 1.006)">
      <path id="Path_287" data-name="Path 287" d="M98.794,17.75s.193.791-.981,2.974S96,23.569,96.178,24.688a4.684,4.684,0,0,0,1.811,3.271c1.233.9.575-.093.575-.093s-.263-.542.518-1.323a5.525,5.525,0,0,0,1.655-3.263A8.026,8.026,0,0,0,98.794,17.75Z" transform="translate(-94.407 -17.75)" fill="#fff"/>
      <path id="Path_288" data-name="Path 288" d="M74.9,108.782s-1.826-1.056-2.077-2.214a5.057,5.057,0,0,1-.043-2.431c.077-1.308-.227-1.113-.288-.673a11.53,11.53,0,0,1-.62,1.8,2.733,2.733,0,0,0,.477,2.439C72.91,108.4,73.277,108.793,74.9,108.782Z" transform="translate(-71.396 -98.294)" fill="#fff"/>
      <path id="Path_289" data-name="Path 289" d="M148.25,80.751s-.281-1.108.31-1.657a5.113,5.113,0,0,0,1.6-2.228c.134-.772.163-3.536.163-3.536a17.439,17.439,0,0,1,1.083,2.537,3.64,3.64,0,0,1-.125,2.883,4,4,0,0,1-2.271,1.542C148.12,80.548,148.25,80.751,148.25,80.751Z" transform="translate(-143.492 -70.18)" fill="#fff"/>
      <path id="Path_290" data-name="Path 290" d="M78.96,206.5l-6.379-2.073s-.51-.214-.234-.877c.151-.363.449-.414.907-.28.13.038,6.29,1.863,6.244,1.857C79.1,205.081,78.452,206.033,78.96,206.5Z" transform="translate(-71.876 -192.698)" fill="#fff"/>
      <g id="Group_600" data-name="Group 600" transform="translate(7.198 12.597)">
        <path id="Path_291" data-name="Path 291" d="M192.747,241.425c.263.074.557-.166.656-.536a.628.628,0,0,0-.3-.8c-.263-.074-.556.165-.655.535A.629.629,0,0,0,192.747,241.425Z" transform="translate(-192.416 -240.074)" fill="#fff"/>
      </g>
      <path id="Path_292" data-name="Path 292" d="M143.314,200.3l2.38.657s1.5-.465,1.635-.5.532-1.174-.366-1.178a5.155,5.155,0,0,0-1.031.238Z" transform="translate(-138.899 -188.995)" fill="#fff"/>
      <g id="Group_601" data-name="Group 601" transform="translate(0 12.48)">
        <path id="Path_293" data-name="Path 293" d="M66.112,239.375a.725.725,0,1,0-.7-.559A.644.644,0,0,0,66.112,239.375Z" transform="translate(-65.388 -237.992)" fill="#fff"/>
      </g>
      <path id="Path_294" data-name="Path 294" d="M81.165,233.01a.9.9,0,0,1,.583.629.652.652,0,0,1-.179.689l2.29-.718-2.176-.737Z" transform="translate(-80.271 -220.684)" fill="#fff"/>
    </g>
  </g>
</svg>
