<svg xmlns="http://www.w3.org/2000/svg" width="64" height="64" viewBox="0 0 64 64">
  <g id="campfires" transform="translate(0 0)">
    <g id="Background" transform="translate(0 0)">
      <path id="Path_286" data-name="Path 286" d="M64,4.181A4.179,4.179,0,0,0,59.822,0H4.182A4.182,4.182,0,0,0,0,4.181V59.813A4.185,4.185,0,0,0,4.182,64h55.64A4.182,4.182,0,0,0,64,59.813Z" transform="translate(0)" fill="#38598a"/>
    </g>
    <g id="Campfires-2" data-name="Campfires" transform="translate(14.737 4.022)">
      <path id="Path_287" data-name="Path 287" d="M106.722,17.75s.772,3.162-3.925,11.893-7.228,11.38-6.534,15.851,2.312,9.5,7.242,13.082,2.3-.372,2.3-.372-1.052-2.167,2.073-5.29c2.924-2.924,6.478-8.271,6.617-13.047A32.1,32.1,0,0,0,106.722,17.75Z" transform="translate(-89.179 -17.75)" fill="#fff"/>
      <path id="Path_288" data-name="Path 288" d="M84.326,125.726s-7.3-4.224-8.306-8.855c-1.282-5.923-.482-4.493-.174-9.722s-.906-4.451-1.152-2.691-1.469,4.486-2.48,7.191-.338,6.964,1.908,9.754S77.836,125.772,84.326,125.726Z" transform="translate(-70.313 -83.785)" fill="#fff"/>
      <path id="Path_289" data-name="Path 289" d="M148.45,103.01s-1.122-4.429,1.239-6.628,5.874-5.824,6.41-8.912.653-14.141.653-14.141a69.737,69.737,0,0,1,4.332,10.144c.931,3.342,1.747,8.257-.5,11.528a15.975,15.975,0,0,1-9.083,6.168C147.93,102.2,148.45,103.01,148.45,103.01Z" transform="translate(-129.423 -60.735)" fill="#fff"/>
      <path id="Path_290" data-name="Path 290" d="M99.039,216.395l-25.51-8.288s-2.041-.857-.937-3.509c.605-1.452,1.8-1.657,3.627-1.119.52.152,25.156,7.449,24.972,7.425C99.6,210.7,97.005,214.508,99.039,216.395Z" transform="translate(-70.707 -161.183)" fill="#fff"/>
      <g id="Group_600" data-name="Group 600" transform="translate(28.784 50.378)">
        <path id="Path_291" data-name="Path 291" d="M193.739,245.478c1.053.3,2.227-.662,2.622-2.142s-.143-2.917-1.2-3.208-2.225.658-2.62,2.139S192.686,245.184,193.739,245.478Z" transform="translate(-192.416 -240.074)" fill="#fff"/>
      </g>
      <path id="Path_292" data-name="Path 292" d="M143.314,203.36l9.517,2.627s6.008-1.859,6.539-1.993,2.128-4.695-1.464-4.713a20.618,20.618,0,0,0-4.123.952Z" transform="translate(-125.656 -158.146)" fill="#fff"/>
      <g id="Group_601" data-name="Group 601" transform="translate(0 49.906)">
        <path id="Path_293" data-name="Path 293" d="M68.284,243.521c1.184-.283,1.855-1.738,1.5-3.254s-1.611-2.51-2.8-2.227-1.857,1.735-1.5,3.247A2.569,2.569,0,0,0,68.284,243.521Z" transform="translate(-65.388 -237.992)" fill="#fff"/>
      </g>
      <path id="Path_294" data-name="Path 294" d="M81.165,233.419a3.612,3.612,0,0,1,2.33,2.517c.223,1.4.028,2.061-.715,2.755l9.16-2.871-8.7-2.946Z" transform="translate(-77.59 -184.127)" fill="#fff"/>
    </g>
  </g>
</svg>
