<svg xmlns="http://www.w3.org/2000/svg" width="31.998" height="31.998" viewBox="0 0 31.998 31.998">
  <g id="campfires" transform="translate(0 0)">
    <g id="Background" transform="translate(0 0)">
      <path id="Path_286" data-name="Path 286" d="M32,2.091A2.089,2.089,0,0,0,29.909,0H2.091A2.091,2.091,0,0,0,0,2.091V29.9A2.093,2.093,0,0,0,2.091,32H29.909A2.091,2.091,0,0,0,32,29.9Z" transform="translate(0)" fill="#38598a"/>
    </g>
    <g id="Campfires-2" data-name="Campfires" transform="translate(7.368 2.011)">
      <path id="Path_287" data-name="Path 287" d="M101.436,17.75s.386,1.581-1.962,5.946-3.614,5.689-3.267,7.925a9.365,9.365,0,0,0,3.621,6.541c2.465,1.793,1.151-.186,1.151-.186s-.526-1.083,1.036-2.645c1.462-1.462,3.239-4.135,3.308-6.523A16.048,16.048,0,0,0,101.436,17.75Z" transform="translate(-92.665 -17.75)" fill="#fff"/>
      <path id="Path_288" data-name="Path 288" d="M78.041,114.428s-3.652-2.112-4.153-4.427c-.641-2.962-.241-2.246-.087-4.861s-.453-2.225-.576-1.345a23.054,23.054,0,0,1-1.24,3.6,5.463,5.463,0,0,0,.954,4.877C74.062,113.664,74.8,114.451,78.041,114.428Z" transform="translate(-71.035 -93.459)" fill="#fff"/>
      <path id="Path_289" data-name="Path 289" d="M148.317,88.168s-.561-2.215.62-3.314,2.937-2.912,3.2-4.456.327-7.07.327-7.07a34.867,34.867,0,0,1,2.166,5.072c.466,1.671.874,4.128-.25,5.764a7.987,7.987,0,0,1-4.541,3.084C148.057,87.763,148.317,88.168,148.317,88.168Z" transform="translate(-138.804 -67.032)" fill="#fff"/>
      <path id="Path_290" data-name="Path 290" d="M85.651,209.8,72.9,205.656s-1.021-.428-.468-1.754c.3-.726.9-.828,1.814-.559.26.076,12.577,3.724,12.485,3.712C85.934,206.954,84.635,208.857,85.651,209.8Z" transform="translate(-71.486 -182.196)" fill="#fff"/>
      <g id="Group_600" data-name="Group 600" transform="translate(14.391 25.187)">
        <path id="Path_291" data-name="Path 291" d="M193.077,242.776c.527.149,1.113-.331,1.311-1.071a1.256,1.256,0,0,0-.6-1.6c-.526-.149-1.113.329-1.31,1.069A1.258,1.258,0,0,0,193.077,242.776Z" transform="translate(-192.416 -240.074)" fill="#fff"/>
      </g>
      <path id="Path_292" data-name="Path 292" d="M143.314,201.32l4.758,1.314s3-.929,3.269-1,1.064-2.347-.732-2.356a10.309,10.309,0,0,0-2.061.476Z" transform="translate(-134.486 -178.715)" fill="#fff"/>
      <g id="Group_601" data-name="Group 601" transform="translate(0 24.952)">
        <path id="Path_293" data-name="Path 293" d="M66.836,240.756a1.45,1.45,0,1,0-1.4-1.117A1.288,1.288,0,0,0,66.836,240.756Z" transform="translate(-65.388 -237.992)" fill="#fff"/>
      </g>
      <path id="Path_294" data-name="Path 294" d="M81.165,233.147a1.806,1.806,0,0,1,1.165,1.259,1.3,1.3,0,0,1-.358,1.377l4.579-1.436-4.35-1.473Z" transform="translate(-79.378 -208.502)" fill="#fff"/>
    </g>
  </g>
</svg>
