<svg xmlns="http://www.w3.org/2000/svg" width="48" height="48" viewBox="0 0 48 48">
  <g id="campfires" transform="translate(0 0)">
    <g id="Background" transform="translate(0 0)">
      <path id="Path_286" data-name="Path 286" d="M48,3.136A3.134,3.134,0,0,0,44.867,0H3.136A3.136,3.136,0,0,0,0,3.136V44.86A3.139,3.139,0,0,0,3.136,48H44.867A3.137,3.137,0,0,0,48,44.86Z" transform="translate(0)" fill="#38598a"/>
    </g>
    <g id="Campfires-2" data-name="Campfires" transform="translate(11.053 3.017)">
      <path id="Path_287" data-name="Path 287" d="M104.079,17.75s.579,2.371-2.944,8.92-5.421,8.535-4.9,11.889,1.734,7.122,5.432,9.812,1.726-.279,1.726-.279-.789-1.625,1.555-3.967c2.193-2.193,4.858-6.2,4.963-9.785A24.073,24.073,0,0,0,104.079,17.75Z" transform="translate(-90.922 -17.75)" fill="#fff"/>
      <path id="Path_288" data-name="Path 288" d="M81.184,120.078s-5.478-3.168-6.23-6.641c-.961-4.443-.361-3.37-.13-7.292s-.68-3.338-.864-2.018a34.583,34.583,0,0,1-1.86,5.393,8.2,8.2,0,0,0,1.431,7.316C75.216,118.931,76.316,120.112,81.184,120.078Z" transform="translate(-70.674 -88.621)" fill="#fff"/>
      <path id="Path_289" data-name="Path 289" d="M148.384,95.59s-.842-3.322.929-4.971,4.405-4.368,4.808-6.684.49-10.606.49-10.606a52.3,52.3,0,0,1,3.249,7.608c.7,2.507,1.311,6.193-.376,8.646a11.981,11.981,0,0,1-6.812,4.626C147.993,94.981,148.384,95.59,148.384,95.59Z" transform="translate(-134.113 -63.883)" fill="#fff"/>
      <path id="Path_290" data-name="Path 290" d="M92.346,213.1l-19.132-6.216s-1.531-.643-.7-2.632c.454-1.089,1.348-1.243,2.721-.839.39.114,18.867,5.587,18.729,5.569C92.77,208.828,90.82,211.682,92.346,213.1Z" transform="translate(-71.097 -171.689)" fill="#fff"/>
      <g id="Group_600" data-name="Group 600" transform="translate(21.588 37.784)">
        <path id="Path_291" data-name="Path 291" d="M193.409,244.127c.79.223,1.67-.5,1.966-1.607a1.884,1.884,0,0,0-.9-2.406c-.789-.223-1.669.494-1.965,1.6A1.887,1.887,0,0,0,193.409,244.127Z" transform="translate(-192.416 -240.074)" fill="#fff"/>
      </g>
      <path id="Path_292" data-name="Path 292" d="M143.314,202.34l7.138,1.97s4.506-1.394,4.9-1.5,1.6-3.521-1.1-3.534a15.465,15.465,0,0,0-3.092.714Z" transform="translate(-130.071 -168.43)" fill="#fff"/>
      <g id="Group_601" data-name="Group 601" transform="translate(0 37.43)">
        <path id="Path_293" data-name="Path 293" d="M67.56,242.139a2.176,2.176,0,1,0-2.1-1.676A1.931,1.931,0,0,0,67.56,242.139Z" transform="translate(-65.388 -237.992)" fill="#fff"/>
      </g>
      <path id="Path_294" data-name="Path 294" d="M81.165,233.283a2.709,2.709,0,0,1,1.747,1.888,1.954,1.954,0,0,1-.536,2.066l6.87-2.154-6.526-2.209Z" transform="translate(-78.484 -196.314)" fill="#fff"/>
    </g>
  </g>
</svg>
