<svg xmlns="http://www.w3.org/2000/svg" width="31.998" height="31.998" viewBox="0 0 31.998 31.998">
  <g id="drinking-water" transform="translate(0 0)">
    <g id="Background" transform="translate(0 0)">
      <path id="Path_299" data-name="Path 299" d="M32,2.091A2.09,2.09,0,0,0,29.909,0H2.09A2.091,2.091,0,0,0,0,2.091V29.905A2.092,2.092,0,0,0,2.09,32H29.909A2.091,2.091,0,0,0,32,29.905Z" transform="translate(0)" fill="#38598a"/>
    </g>
    <g id="Drinking_Water" transform="translate(4.119 3.66)">
      <path id="Path_300" data-name="Path 300" d="M70.144,171.238c-.389.535-2.084,2.181-2.084,3.1a1.931,1.931,0,0,0,2.084,2.131c.984,0,1.966-.365,1.966-2.154C72.109,173.3,70.144,171.238,70.144,171.238Z" transform="translate(-64.482 -155.498)" fill="#fff"/>
      <path id="Path_301" data-name="Path 301" d="M45.557,164.663h-6.4l-1.279-9.222H36.354l1.488,10.729h9.1l.934-10.729H46.36Z" transform="translate(-36.354 -141.49)" fill="#fff"/>
      <path id="Path_302" data-name="Path 302" d="M91.766,36.856l-2.518,2.519H84V35.788H82.032V33.414h3.817V32.3H77.043v1.115h3.874v2.372H78.98v3.586c-3.729,0-7.022.053-7.022,5.133V47.27h3.2c0-1.165-.057-3.829,1.938-3.829H89.237l2.526,2.746Z" transform="translate(-68.004 -32.301)" fill="#fff"/>
    </g>
  </g>
</svg>
