<svg xmlns="http://www.w3.org/2000/svg" width="64" height="64" viewBox="0 0 64 64">
  <g id="drinking-water" transform="translate(0 0)">
    <g id="Background" transform="translate(0 0)">
      <path id="Path_299" data-name="Path 299" d="M64,4.181A4.18,4.18,0,0,0,59.822,0H4.18A4.182,4.182,0,0,0,0,4.181V59.815A4.184,4.184,0,0,0,4.18,64H59.822A4.183,4.183,0,0,0,64,59.815Z" fill="#38598a"/>
    </g>
    <g id="Drinking_Water" transform="translate(8.238 7.32)">
      <path id="Path_300" data-name="Path 300" d="M72.227,171.238c-.777,1.069-4.167,4.362-4.167,6.2,0,3.392,2.326,4.263,4.167,4.263,1.969,0,3.932-.729,3.932-4.309C76.159,175.359,72.227,171.238,72.227,171.238Z" transform="translate(-60.904 -139.755)" fill="#fff"/>
      <path id="Path_301" data-name="Path 301" d="M54.761,173.885H41.955L39.4,155.441H36.354L39.33,176.9H57.525l1.868-21.458H56.367Z" transform="translate(-36.354 -127.538)" fill="#fff"/>
      <path id="Path_302" data-name="Path 302" d="M111.577,41.411l-5.037,5.038h-10.5V39.276H92.108V34.528h7.634V32.3H82.128v2.231h7.749v4.745H86v7.173c-7.458,0-14.045.106-14.045,10.268V62.24h6.393c0-2.33-.113-7.658,3.875-7.658h24.292l5.052,5.491Z" transform="translate(-64.049 -32.301)" fill="#fff"/>
    </g>
  </g>
</svg>
