<svg xmlns="http://www.w3.org/2000/svg" width="48" height="48" viewBox="0 0 48 48">
  <g id="drinking-water" transform="translate(0 0)">
    <g id="Background" transform="translate(0 0)">
      <path id="Path_299" data-name="Path 299" d="M48,3.136A3.135,3.135,0,0,0,44.867,0H3.135A3.136,3.136,0,0,0,0,3.136V44.862A3.138,3.138,0,0,0,3.135,48H44.867A3.137,3.137,0,0,0,48,44.862Z" fill="#38598a"/>
    </g>
    <g id="Drinking_Water" transform="translate(6.178 5.49)">
      <path id="Path_300" data-name="Path 300" d="M71.186,171.238c-.583.8-3.126,3.272-3.126,4.652a2.9,2.9,0,0,0,3.126,3.2c1.477,0,2.949-.547,2.949-3.232C74.134,174.329,71.186,171.238,71.186,171.238Z" transform="translate(-62.693 -147.626)" fill="#fff"/>
      <path id="Path_301" data-name="Path 301" d="M50.16,169.274H40.554l-1.919-13.833H36.354l2.232,16.094H52.232l1.4-16.094H51.364Z" transform="translate(-36.354 -134.513)" fill="#fff"/>
      <path id="Path_302" data-name="Path 302" d="M101.673,39.133,97.9,42.912H90.023v-5.38H87.07V33.971H92.8V32.3H79.586v1.673H85.4v3.558H82.492v5.38c-5.594,0-10.534.08-10.534,7.7v4.143h4.794c0-1.747-.085-5.744,2.906-5.744H97.878l3.789,4.119Z" transform="translate(-66.026 -32.301)" fill="#fff"/>
    </g>
  </g>
</svg>
