<svg id="electrical-outlets" xmlns="http://www.w3.org/2000/svg" width="32" height="32" viewBox="0 0 32 32">
  <g id="Background">
    <path id="Path_305" data-name="Path 305" d="M31.634,2.091A2.078,2.078,0,0,0,29.569,0H2.066A2.079,2.079,0,0,0,0,2.091V29.907A2.081,2.081,0,0,0,2.066,32h27.5a2.08,2.08,0,0,0,2.065-2.093V2.091Z" fill="#38598a"/>
  </g>
  <g id="Electrical_Hook-ups" transform="translate(4.3 2.971)">
    <path id="Path_306" data-name="Path 306" d="M55.88,34.634c1.2-.9,5.351-4.051,9.533-5.113l.68-.275.093-2.653-.807.16c-.038.011-.076.018-.114.028A30.746,30.746,0,0,0,53.81,32.531c-2.223-.6-5.491-2.384-10.428,2.5a5.367,5.367,0,0,0-1.726-.389l-1.82,2.092L42.346,39a4.2,4.2,0,0,0-.639.592L39.43,42.209c-1,1.155-1.245,2.611-.536,3.251s2.1.22,3.106-.935l2.276-2.615a4.389,4.389,0,0,0,.5-.716l3.676,3.315c-.042.043-.084.076-.122.123L45.6,47.771c-1,1.154-1.246,2.611-.535,3.251s2.1.222,3.106-.935L50.9,46.95c.038-.044.068-.092.1-.137L53.2,48.788l1.934-2.224L54.3,44.882s5.255-3.667,1.58-10.248" transform="translate(-38.487 -26.594)" fill="#fff" fill-rule="evenodd"/>
  </g>
</svg>
