<svg id="electrical-outlets" xmlns="http://www.w3.org/2000/svg" width="64" height="64" viewBox="0 0 64 64">
  <g id="Background">
    <path id="Path_305" data-name="Path 305" d="M63.268,4.181A4.157,4.157,0,0,0,59.138,0H4.132A4.158,4.158,0,0,0,0,4.181V59.813A4.161,4.161,0,0,0,4.132,64H59.138a4.16,4.16,0,0,0,4.13-4.187V4.181Z" fill="#38598a"/>
  </g>
  <g id="Electrical_Hook-ups" transform="translate(8.6 5.942)">
    <path id="Path_306" data-name="Path 306" d="M73.273,42.675c2.4-1.8,10.7-8.1,19.067-10.225L93.7,31.9l.187-5.306-1.613.32c-.077.021-.152.035-.227.057-5.537,1.337-13.735,4.419-22.914,11.5-4.446-1.209-10.982-4.768-20.856,5a10.734,10.734,0,0,0-3.451-.779l-3.64,4.185,5.021,4.529a8.4,8.4,0,0,0-1.278,1.184l-4.555,5.233c-2.009,2.311-2.489,5.223-1.072,6.5s4.2.441,6.211-1.87l4.553-5.23a8.779,8.779,0,0,0,1-1.433l7.353,6.631c-.084.085-.168.153-.244.245l-5.464,6.279c-2.009,2.307-2.491,5.223-1.07,6.5s4.195.444,6.211-1.87l5.462-6.275c.075-.089.136-.185.21-.274l4.383,3.95,3.868-4.448-1.658-3.363s10.51-7.335,3.16-20.5" transform="translate(-38.487 -26.594)" fill="#fff" fill-rule="evenodd"/>
  </g>
</svg>
