<svg id="electrical-outlets" xmlns="http://www.w3.org/2000/svg" width="16" height="16" viewBox="0 0 16 16">
  <g id="Background">
    <path id="Path_305" data-name="Path 305" d="M15.817,1.045A1.039,1.039,0,0,0,14.784,0H1.033A1.039,1.039,0,0,0,0,1.045V14.953A1.04,1.04,0,0,0,1.033,16H14.784a1.04,1.04,0,0,0,1.033-1.047V1.045Z" fill="#38598a"/>
  </g>
  <g id="Electrical_Hook-ups" transform="translate(2.15 1.486)">
    <path id="Path_306" data-name="Path 306" d="M47.183,30.614a14.962,14.962,0,0,1,4.767-2.556l.34-.137.047-1.327-.4.08-.057.014a15.373,15.373,0,0,0-5.729,2.874c-1.112-.3-2.746-1.192-5.214,1.251a2.684,2.684,0,0,0-.863-.195l-.91,1.046L40.417,32.8a2.1,2.1,0,0,0-.319.3L38.959,34.4c-.5.578-.622,1.306-.268,1.626s1.05.11,1.553-.468l1.138-1.307a2.195,2.195,0,0,0,.249-.358l1.838,1.658c-.021.021-.042.038-.061.061l-1.366,1.57c-.5.577-.623,1.306-.268,1.626s1.049.111,1.553-.468l1.366-1.569c.019-.022.034-.046.052-.068l1.1.987.967-1.112-.415-.841a3.755,3.755,0,0,0,.79-5.124" transform="translate(-38.487 -26.594)" fill="#fff" fill-rule="evenodd"/>
  </g>
</svg>
