<svg id="electrical-outlets" xmlns="http://www.w3.org/2000/svg" width="48" height="48" viewBox="0 0 48 48">
  <g id="Background">
    <path id="Path_305" data-name="Path 305" d="M47.451,3.136A3.117,3.117,0,0,0,44.353,0H3.1A3.118,3.118,0,0,0,0,3.136V44.86A3.121,3.121,0,0,0,3.1,48H44.353a3.12,3.12,0,0,0,3.1-3.14V3.136Z" fill="#38598a"/>
  </g>
  <g id="Electrical_Hook-ups" transform="translate(6.45 4.457)">
    <path id="Path_306" data-name="Path 306" d="M64.577,38.655c1.8-1.352,8.026-6.077,14.3-7.669l1.02-.412.14-3.98-1.21.24c-.058.016-.114.027-.17.043A46.119,46.119,0,0,0,61.471,35.5c-3.335-.907-8.237-3.576-15.642,3.752a8.051,8.051,0,0,0-2.588-.584l-2.73,3.139,3.766,3.4a6.3,6.3,0,0,0-.958.888L39.9,50.016c-1.507,1.733-1.867,3.917-.8,4.877s3.15.331,4.658-1.4l3.415-3.922a6.584,6.584,0,0,0,.748-1.075l5.515,4.973c-.063.064-.126.115-.183.184l-4.1,4.709c-1.507,1.731-1.868,3.917-.8,4.877s3.146.333,4.658-1.4l4.1-4.706c.056-.067.1-.139.157-.205l3.288,2.962,2.9-3.336-1.244-2.522s7.882-5.5,2.37-15.372" transform="translate(-38.487 -26.594)" fill="#fff" fill-rule="evenodd"/>
  </g>
</svg>
