<svg id="food-cache" xmlns="http://www.w3.org/2000/svg" width="32" height="32" viewBox="0 0 32 32">
  <g id="Background">
    <path id="Path_323" data-name="Path 323" d="M32,2.091A2.09,2.09,0,0,0,29.911,0H2.09A2.091,2.091,0,0,0,0,2.091V29.907A2.093,2.093,0,0,0,2.09,32H29.911A2.092,2.092,0,0,0,32,29.907V2.091Z" fill="#38598a"/>
  </g>
  <g id="Food_Cache" transform="translate(3.743 2.805)">
    <line id="Line_159" data-name="Line 159" x2="23.4" transform="translate(0.555 1.901)" fill="none" stroke="#fff" stroke-width="3.313"/>
    <path id="Path_324" data-name="Path 324" d="M117.393,111.611a1.917,1.917,0,0,0-.539.3c-.088.125-.143.251-.125.735s.018.646-.125.879-.323.4-.484.125-1.058-2.08-1.165-2.386-.125-.449-.163-.519-.484-.161-.592-.215-.268-.233-.358.521a3.446,3.446,0,0,0,.108,1.612c.163.646.682,2.35.789,2.619a2.667,2.667,0,0,1,.143.539,16.071,16.071,0,0,0-.431,2.476,4.479,4.479,0,0,0,.664,2.312,11.6,11.6,0,0,0,.09,2.764,5.267,5.267,0,0,0,.664,1.487c.233.323.411.521.411.521l-.106.519a3.932,3.932,0,0,0-.521.554c-.035.2.521.521.609.54a4.283,4.283,0,0,0,1.058-.288c.2-.106.288-.664.305-.807a3.436,3.436,0,0,1,.108-.431l.341-.108.143.664a1.073,1.073,0,0,1-.233.358.225.225,0,0,0-.071.268.9.9,0,0,0,.715.09,1.576,1.576,0,0,0,.9-.411,4.928,4.928,0,0,0,0-.539,1.062,1.062,0,0,1-.215-.752,1.368,1.368,0,0,1,.215-.574v-.646a2.949,2.949,0,0,1,.27-.447c.09-.092.2-.217.106-.36,0,0-1.056-1.363-1.183-4.627a27.386,27.386,0,0,1,.09-3.444,6.362,6.362,0,0,1,.2-.77l.288-.055c.088-.018.125-.215.035-.288s-.323-.3-.323-.3a9.174,9.174,0,0,0-.789-.95,1.234,1.234,0,0,0-.268-.143A7.307,7.307,0,0,0,117.393,111.611Z" transform="translate(-104.676 -100.716)" fill="#fff"/>
    <path id="Path_325" data-name="Path 325" d="M36.291,25.5V50.127s.155,1,.374,1.158a.6.6,0,0,1,.249.282,1.949,1.949,0,0,1-.717-.126,1.411,1.411,0,0,1-.281-.188l-.35.315-.556-.315-.569.315-.336-.315s-.245.165-.466.283a.98.98,0,0,1-.525,0s.025-.1.242-.253.374-1.158.374-1.158V25.5s.749-.469,1.123-.156a1.4,1.4,0,0,0,1.436.188V25.5Z" transform="translate(-33.116 -25.187)" fill="#fff"/>
    <path id="Path_326" data-name="Path 326" d="M216.991,25.08V49.709s-.155,1-.374,1.157-.249.282-.249.282a1.949,1.949,0,0,0,.717-.126,1.483,1.483,0,0,0,.281-.186l.343.344.562-.344.563.344.343-.344a1.488,1.488,0,0,0,.281.186,1.949,1.949,0,0,0,.717.126s-.03-.126-.249-.282-.374-1.157-.374-1.157V25.08s-.749-.471-1.123-.158a1.406,1.406,0,0,1-1.436.188v-.03Z" transform="translate(-195.657 -24.815)" fill="#fff"/>
    <g id="Group_610" data-name="Group 610" transform="translate(0.555 1.359)">
      <path id="Path_327" data-name="Path 327" d="M61.423,37.926h-23.4V36.842h23.4Z" transform="translate(-38.023 -36.842)" fill="#4d5f85"/>
    </g>
    <g id="Group_611" data-name="Group 611" transform="translate(0.555 1.714)">
      <path id="Path_328" data-name="Path 328" d="M61.423,40.357h-23.4v-.374h23.4Z" transform="translate(-38.023 -39.983)" fill="#fff"/>
    </g>
    <g id="Group_612" data-name="Group 612" transform="translate(0.555 18.954)">
      <path id="Path_329" data-name="Path 329" d="M41.08,193.083H38.023V192H41.08Z" transform="translate(-38.023 -191.999)" fill="#4d5f85"/>
    </g>
    <g id="Group_613" data-name="Group 613" transform="translate(20.898 18.954)">
      <path id="Path_330" data-name="Path 330" d="M221.143,193.083h-3.12V192h3.12Z" transform="translate(-218.023 -191.999)" fill="#4d5f85"/>
    </g>
    <g id="Group_614" data-name="Group 614" transform="translate(0.555 19.309)">
      <path id="Path_331" data-name="Path 331" d="M41.08,195.513H38.023v-.374H41.08Z" transform="translate(-38.023 -195.139)" fill="#fff"/>
    </g>
    <g id="Group_615" data-name="Group 615" transform="translate(20.898 19.309)">
      <path id="Path_332" data-name="Path 332" d="M221.143,195.513h-3.12v-.374h3.12Z" transform="translate(-218.023 -195.139)" fill="#fff"/>
    </g>
    <path id="Path_333" data-name="Path 333" d="M63.341,194.074a.4.4,0,1,0-.4-.4A.4.4,0,0,0,63.341,194.074Z" transform="translate(-59.574 -174.18)" fill="#fff"/>
    <path id="Path_334" data-name="Path 334" d="M213.235,194.341a.4.4,0,1,0-.4-.4A.4.4,0,0,0,213.235,194.341Z" transform="translate(-192.524 -174.417)" fill="#fff"/>
    <path id="Path_335" data-name="Path 335" d="M97.5,64.28H97s-.436.936-.593,1.249-.42.968-.141,1.324,1.077.39,1.077.39h.064s.795-.03,1.075-.39.016-1.014-.139-1.324-.593-1.249-.593-1.249H97.5Z" transform="translate(-89.019 -59.805)" fill="#fff"/>
    <path id="Path_336" data-name="Path 336" d="M166.8,64.28h-.5s-.438.936-.593,1.249-.42.968-.141,1.324,1.077.39,1.077.39h.062s.8-.03,1.077-.39.016-1.014-.139-1.324-.593-1.249-.593-1.249H166.8Z" transform="translate(-150.487 -59.805)" fill="#fff"/>
    <g id="Group_616" data-name="Group 616" transform="translate(3.585 2.338)">
      <path id="Path_337" data-name="Path 337" d="M65.2,62.637l-.366-.079c.145-.662,3.56-16.232,3.622-16.453a.745.745,0,0,1,.712-.606.625.625,0,0,1,.585.447l.007,1.927h-.374V46a.261.261,0,0,0-.217-.129c-.212,0-.307.18-.351.334-.06.228-2.393,10.848-3.617,16.43Z" transform="translate(-64.836 -45.499)" fill="#fff"/>
    </g>
    <g id="Group_617" data-name="Group 617" transform="translate(15.967 2.369)">
      <path id="Path_338" data-name="Path 338" d="M178.959,62.918c-1.224-5.58-3.553-16.2-3.618-16.432-.035-.124-.127-.332-.35-.332a.255.255,0,0,0-.226.18l.007,1.817H174.4V46.28a.633.633,0,0,1,.593-.5.743.743,0,0,1,.71.6c.064.217,3.26,14.793,3.624,16.455l-.365.079Z" transform="translate(-174.398 -45.78)" fill="#fff"/>
    </g>
    <line id="Line_160" data-name="Line 160" y2="1" transform="translate(7.887 1.822)" fill="none" stroke="#fff" stroke-width="3.313"/>
    <line id="Line_161" data-name="Line 161" y2="0.998" transform="translate(16.561 1.856)" fill="none" stroke="#fff" stroke-width="3.313"/>
  </g>
</svg>
