<svg id="food-cache" xmlns="http://www.w3.org/2000/svg" width="64" height="64" viewBox="0 0 64 64">
  <g id="Background">
    <path id="Path_323" data-name="Path 323" d="M64,4.181A4.18,4.18,0,0,0,59.822,0H4.18A4.182,4.182,0,0,0,0,4.181V59.813A4.185,4.185,0,0,0,4.18,64H59.822A4.183,4.183,0,0,0,64,59.813V4.181Z" fill="#38598a"/>
  </g>
  <g id="Food_Cache" transform="translate(7.485 5.609)">
    <line id="Line_159" data-name="Line 159" x2="46.8" transform="translate(1.109 3.803)" fill="none" stroke="#fff" stroke-width="3.313"/>
    <path id="Path_324" data-name="Path 324" d="M120.991,112.745a3.834,3.834,0,0,0-1.077.608c-.177.251-.286.5-.251,1.469s.035,1.293-.251,1.759-.646.791-.968.251-2.115-4.16-2.331-4.771-.251-.9-.325-1.038-.968-.321-1.183-.431-.537-.466-.717,1.042a6.891,6.891,0,0,0,.215,3.225c.325,1.293,1.363,4.7,1.579,5.238a5.333,5.333,0,0,1,.286,1.077,32.141,32.141,0,0,0-.862,4.952,8.958,8.958,0,0,0,1.328,4.623c.064.113-.357,3.518.18,5.527a10.535,10.535,0,0,0,1.328,2.974c.466.646.823,1.042.823,1.042l-.212,1.038a7.864,7.864,0,0,0-1.042,1.109c-.071.4,1.042,1.042,1.219,1.081a8.565,8.565,0,0,0,2.115-.576c.4-.212.576-1.328.611-1.614a6.871,6.871,0,0,1,.215-.862l.682-.215.286,1.328a2.146,2.146,0,0,1-.466.717.451.451,0,0,0-.141.537,1.79,1.79,0,0,0,1.43.18,3.152,3.152,0,0,0,1.794-.823,9.856,9.856,0,0,0,0-1.077,2.124,2.124,0,0,1-.431-1.5,2.737,2.737,0,0,1,.431-1.148v-1.293a5.9,5.9,0,0,1,.54-.894c.18-.184.4-.434.212-.721,0,0-2.112-2.726-2.366-9.253a54.768,54.768,0,0,1,.18-6.887,12.723,12.723,0,0,1,.4-1.54s.4-.074.576-.109.251-.431.071-.576-.646-.608-.646-.608a18.349,18.349,0,0,0-1.579-1.9,2.468,2.468,0,0,0-.537-.286A14.618,14.618,0,0,0,120.991,112.745Z" transform="translate(-95.558 -90.955)" fill="#fff"/>
    <path id="Path_325" data-name="Path 325" d="M39.466,25.762V75.02s.311,2,.749,2.317a1.194,1.194,0,0,1,.5.563,3.9,3.9,0,0,1-1.434-.251,2.822,2.822,0,0,1-.561-.375l-.7.631-1.113-.631-1.137.631-.671-.631s-.491.329-.932.567a1.961,1.961,0,0,1-1.049,0s.05-.195.484-.506.749-2.317.749-2.317V25.762s1.5-.939,2.246-.312a2.8,2.8,0,0,0,2.871.375v-.064Z" transform="translate(-33.116 -25.139)" fill="#fff"/>
    <path id="Path_326" data-name="Path 326" d="M217.615,25.345V74.6s-.311,2-.749,2.313-.5.563-.5.563a3.9,3.9,0,0,0,1.434-.251,2.965,2.965,0,0,0,.561-.372l.685.687,1.123-.687,1.127.687.685-.687a2.976,2.976,0,0,0,.561.372,3.9,3.9,0,0,0,1.434.251s-.06-.251-.5-.563-.749-2.313-.749-2.313V25.345s-1.5-.942-2.246-.315a2.812,2.812,0,0,1-2.871.375v-.06Z" transform="translate(-174.947 -24.815)" fill="#fff"/>
    <g id="Group_610" data-name="Group 610" transform="translate(1.109 2.719)">
      <path id="Path_327" data-name="Path 327" d="M84.823,39.011h-46.8V36.842h46.8Z" transform="translate(-38.023 -36.842)" fill="#4d5f85"/>
    </g>
    <g id="Group_611" data-name="Group 611" transform="translate(1.109 3.429)">
      <path id="Path_328" data-name="Path 328" d="M84.823,40.732h-46.8v-.749h46.8Z" transform="translate(-38.023 -39.983)" fill="#fff"/>
    </g>
    <g id="Group_612" data-name="Group 612" transform="translate(1.109 37.909)">
      <path id="Path_329" data-name="Path 329" d="M44.137,194.167H38.023V192h6.114Z" transform="translate(-38.023 -191.999)" fill="#4d5f85"/>
    </g>
    <g id="Group_613" data-name="Group 613" transform="translate(41.796 37.909)">
      <path id="Path_330" data-name="Path 330" d="M224.264,194.167h-6.241V192h6.241Z" transform="translate(-218.023 -191.999)" fill="#4d5f85"/>
    </g>
    <g id="Group_614" data-name="Group 614" transform="translate(1.109 38.617)">
      <path id="Path_331" data-name="Path 331" d="M44.137,195.888H38.023v-.749h6.114Z" transform="translate(-38.023 -195.139)" fill="#fff"/>
    </g>
    <g id="Group_615" data-name="Group 615" transform="translate(41.796 38.617)">
      <path id="Path_332" data-name="Path 332" d="M224.264,195.888h-6.241v-.749h6.241Z" transform="translate(-218.023 -195.139)" fill="#fff"/>
    </g>
    <path id="Path_333" data-name="Path 333" d="M63.736,194.868a.795.795,0,1,0-.791-.795A.794.794,0,0,0,63.736,194.868Z" transform="translate(-56.203 -155.082)" fill="#fff"/>
    <path id="Path_334" data-name="Path 334" d="M213.634,195.135a.795.795,0,1,0-.8-.791A.792.792,0,0,0,213.634,195.135Z" transform="translate(-172.213 -155.288)" fill="#fff"/>
    <path id="Path_335" data-name="Path 335" d="M98.853,64.28h-1s-.872,1.872-1.187,2.5-.841,1.935-.283,2.649,2.154.781,2.154.781h.127s1.589-.06,2.151-.781.032-2.027-.279-2.649-1.187-2.5-1.187-2.5h-.5Z" transform="translate(-81.896 -55.329)" fill="#fff"/>
    <path id="Path_336" data-name="Path 336" d="M168.152,64.28h-1s-.876,1.872-1.187,2.5-.841,1.935-.283,2.649,2.154.781,2.154.781h.124s1.593-.06,2.154-.781.032-2.027-.279-2.649-1.187-2.5-1.187-2.5h-.5Z" transform="translate(-135.532 -55.329)" fill="#fff"/>
    <g id="Group_616" data-name="Group 616" transform="translate(7.17 4.675)">
      <path id="Path_337" data-name="Path 337" d="M65.567,79.775l-.731-.159c.29-1.324,7.12-32.464,7.244-32.906A1.49,1.49,0,0,1,73.5,45.5a1.25,1.25,0,0,1,1.169.894l.014,3.853h-.749v-3.74a.523.523,0,0,0-.434-.258c-.424,0-.615.36-.7.667-.12.456-4.786,21.7-7.233,32.86Z" transform="translate(-64.836 -45.499)" fill="#fff"/>
    </g>
    <g id="Group_617" data-name="Group 617" transform="translate(31.935 4.739)">
      <path id="Path_338" data-name="Path 338" d="M183.521,80.056c-2.448-11.161-7.106-32.39-7.237-32.863-.071-.247-.254-.664-.7-.664a.509.509,0,0,0-.452.36l.014,3.634H174.4V46.78a1.265,1.265,0,0,1,1.187-1A1.487,1.487,0,0,1,177,46.988c.127.434,6.52,29.586,7.247,32.909l-.731.159Z" transform="translate(-174.398 -45.78)" fill="#fff"/>
    </g>
    <line id="Line_160" data-name="Line 160" y2="1.999" transform="translate(15.773 3.644)" fill="none" stroke="#fff" stroke-width="3.313"/>
    <line id="Line_161" data-name="Line 161" y2="1.995" transform="translate(33.121 3.711)" fill="none" stroke="#fff" stroke-width="3.313"/>
  </g>
</svg>
