<svg id="food-cache" xmlns="http://www.w3.org/2000/svg" width="16" height="16" viewBox="0 0 16 16">
  <g id="Background">
    <path id="Path_323" data-name="Path 323" d="M16,1.045A1.045,1.045,0,0,0,14.955,0H1.045A1.045,1.045,0,0,0,0,1.045V14.953A1.046,1.046,0,0,0,1.045,16h13.91A1.046,1.046,0,0,0,16,14.953V1.045Z" fill="#38598a"/>
  </g>
  <g id="Food_Cache" transform="translate(1.871 1.402)">
    <line id="Line_159" data-name="Line 159" x2="11.7" transform="translate(0.277 0.951)" fill="none" stroke="#fff" stroke-width="3.313"/>
    <path id="Path_324" data-name="Path 324" d="M115.593,111.043a.958.958,0,0,0-.269.152c-.044.063-.072.125-.063.367s.009.323-.063.44-.162.2-.242.063-.529-1.04-.583-1.193-.063-.224-.081-.26-.242-.08-.3-.108-.134-.117-.179.26a1.723,1.723,0,0,0,.054.806c.081.323.341,1.175.395,1.309a1.334,1.334,0,0,1,.072.269,8.035,8.035,0,0,0-.215,1.238,2.239,2.239,0,0,0,.332,1.156,5.8,5.8,0,0,0,.045,1.382,2.634,2.634,0,0,0,.332.743c.117.162.206.26.206.26l-.053.26a1.967,1.967,0,0,0-.26.277c-.018.1.26.26.3.27a2.141,2.141,0,0,0,.529-.144c.1-.053.144-.332.153-.4a1.718,1.718,0,0,1,.054-.215l.17-.054.072.332a.537.537,0,0,1-.117.179.113.113,0,0,0-.035.134.447.447,0,0,0,.358.045.788.788,0,0,0,.449-.206,2.464,2.464,0,0,0,0-.269.531.531,0,0,1-.108-.376.684.684,0,0,1,.108-.287v-.323a1.474,1.474,0,0,1,.135-.223c.045-.046.1-.109.053-.18a4.258,4.258,0,0,1-.592-2.313,13.7,13.7,0,0,1,.045-1.722,3.183,3.183,0,0,1,.1-.385l.144-.027c.044-.009.063-.108.018-.144S116.4,112,116.4,112a4.587,4.587,0,0,0-.395-.475.617.617,0,0,0-.134-.072A3.653,3.653,0,0,0,115.593,111.043Z" transform="translate(-109.235 -105.596)" fill="#fff"/>
    <path id="Path_325" data-name="Path 325" d="M34.7,25.366V37.68s.078.5.187.579a.3.3,0,0,1,.124.141.974.974,0,0,1-.358-.063.705.705,0,0,1-.14-.094l-.175.158-.278-.158-.284.158-.168-.158s-.123.082-.233.142a.49.49,0,0,1-.262,0s.012-.049.121-.127.187-.579.187-.579V25.366s.374-.235.562-.078a.7.7,0,0,0,.718.094v-.016Z" transform="translate(-33.116 -25.21)" fill="#fff"/>
    <path id="Path_326" data-name="Path 326" d="M216.68,24.948V37.262s-.078.5-.187.578-.124.141-.124.141a.974.974,0,0,0,.358-.063.741.741,0,0,0,.14-.093l.171.172.281-.172L217.6,38l.171-.172a.744.744,0,0,0,.14.093.974.974,0,0,0,.358.063s-.015-.063-.124-.141-.187-.578-.187-.578V24.948s-.374-.236-.562-.079a.7.7,0,0,1-.718.094Z" transform="translate(-206.013 -24.815)" fill="#fff"/>
    <g id="Group_610" data-name="Group 610" transform="translate(0.277 0.68)">
      <path id="Path_327" data-name="Path 327" d="M49.723,37.384h-11.7v-.542h11.7Z" transform="translate(-38.023 -36.842)" fill="#4d5f85"/>
    </g>
    <g id="Group_611" data-name="Group 611" transform="translate(0.277 0.857)">
      <path id="Path_328" data-name="Path 328" d="M49.723,40.17h-11.7v-.187h11.7Z" transform="translate(-38.023 -39.983)" fill="#fff"/>
    </g>
    <g id="Group_612" data-name="Group 612" transform="translate(0.277 9.477)">
      <path id="Path_329" data-name="Path 329" d="M39.551,192.541H38.023V192h1.528Z" transform="translate(-38.023 -191.999)" fill="#4d5f85"/>
    </g>
    <g id="Group_613" data-name="Group 613" transform="translate(10.449 9.477)">
      <path id="Path_330" data-name="Path 330" d="M219.583,192.541h-1.56V192h1.56Z" transform="translate(-218.023 -191.999)" fill="#4d5f85"/>
    </g>
    <g id="Group_614" data-name="Group 614" transform="translate(0.277 9.654)">
      <path id="Path_331" data-name="Path 331" d="M39.551,195.326H38.023v-.187h1.528Z" transform="translate(-38.023 -195.139)" fill="#fff"/>
    </g>
    <g id="Group_615" data-name="Group 615" transform="translate(10.449 9.654)">
      <path id="Path_332" data-name="Path 332" d="M219.583,195.326h-1.56v-.187h1.56Z" transform="translate(-218.023 -195.139)" fill="#fff"/>
    </g>
    <path id="Path_333" data-name="Path 333" d="M63.143,193.676a.2.2,0,1,0-.2-.2A.2.2,0,0,0,63.143,193.676Z" transform="translate(-61.259 -183.73)" fill="#fff"/>
    <path id="Path_334" data-name="Path 334" d="M213.036,193.943a.2.2,0,1,0-.2-.2A.2.2,0,0,0,213.036,193.943Z" transform="translate(-202.68 -183.981)" fill="#fff"/>
    <path id="Path_335" data-name="Path 335" d="M96.82,64.28h-.249s-.218.468-.3.624-.21.484-.071.662.539.2.539.2h.032s.4-.015.538-.2.008-.507-.07-.662-.3-.624-.3-.624H96.82Z" transform="translate(-92.581 -62.042)" fill="#fff"/>
    <path id="Path_336" data-name="Path 336" d="M166.12,64.28h-.249s-.219.468-.3.624-.21.484-.071.662.539.2.539.2h.031s.4-.015.539-.2.008-.507-.07-.662-.3-.624-.3-.624h-.125Z" transform="translate(-157.965 -62.042)" fill="#fff"/>
    <g id="Group_616" data-name="Group 616" transform="translate(1.792 1.169)">
      <path id="Path_337" data-name="Path 337" d="M65.019,54.068l-.183-.04c.072-.331,1.78-8.116,1.811-8.226A.373.373,0,0,1,67,45.5a.313.313,0,0,1,.292.223l0,.963h-.187v-.935A.131.131,0,0,0,67,45.686c-.106,0-.154.09-.176.167-.03.114-1.2,5.424-1.808,8.215Z" transform="translate(-64.836 -45.499)" fill="#fff"/>
    </g>
    <g id="Group_617" data-name="Group 617" transform="translate(7.984 1.185)">
      <path id="Path_338" data-name="Path 338" d="M176.679,54.349c-.612-2.79-1.777-8.1-1.809-8.216-.018-.062-.064-.166-.175-.166a.127.127,0,0,0-.113.09l0,.909H174.4V46.03a.316.316,0,0,1,.3-.25.372.372,0,0,1,.355.3c.032.109,1.63,7.4,1.812,8.227l-.183.04Z" transform="translate(-174.398 -45.78)" fill="#fff"/>
    </g>
    <line id="Line_160" data-name="Line 160" y2="0.5" transform="translate(3.943 0.911)" fill="none" stroke="#fff" stroke-width="3.313"/>
    <line id="Line_161" data-name="Line 161" y2="0.499" transform="translate(8.28 0.928)" fill="none" stroke="#fff" stroke-width="3.313"/>
  </g>
</svg>
