<svg id="food-cache" xmlns="http://www.w3.org/2000/svg" width="48" height="48" viewBox="0 0 48 48">
  <g id="Background" transform="translate(0 0)">
    <path id="Path_323" data-name="Path 323" d="M48,3.136A3.135,3.135,0,0,0,44.866,0H3.135A3.136,3.136,0,0,0,0,3.136V44.86A3.139,3.139,0,0,0,3.135,48H44.866A3.138,3.138,0,0,0,48,44.86V3.136Z" transform="translate(0 0)" fill="#38598a"/>
  </g>
  <g id="Food_Cache" transform="translate(5.701 4.272)">
    <line id="Line_159" data-name="Line 159" x2="34.901" transform="translate(0.845 2.896)" fill="none" stroke="#fff" stroke-width="3.313"/>
    <path id="Path_324" data-name="Path 324" d="M119.275,112.2a2.92,2.92,0,0,0-.82.463c-.134.191-.218.382-.191,1.119s.027.985-.191,1.339-.492.6-.737.191-1.611-3.169-1.775-3.634-.191-.683-.248-.791-.737-.245-.9-.328-.409-.355-.546.793a5.248,5.248,0,0,0,.164,2.456c.248.985,1.038,3.58,1.2,3.989a4.062,4.062,0,0,1,.218.82,24.48,24.48,0,0,0-.656,3.771,6.822,6.822,0,0,0,1.011,3.521,17.677,17.677,0,0,0,.137,4.21,8.023,8.023,0,0,0,1.011,2.265c.355.492.627.793.627.793l-.161.791a5.989,5.989,0,0,0-.793.845c-.054.3.793.793.928.823a6.523,6.523,0,0,0,1.611-.438c.3-.161.438-1.011.465-1.229a5.233,5.233,0,0,1,.164-.656l.519-.164.218,1.011a1.635,1.635,0,0,1-.355.546.343.343,0,0,0-.108.409,1.363,1.363,0,0,0,1.089.137,2.4,2.4,0,0,0,1.367-.627,7.5,7.5,0,0,0,0-.82,1.618,1.618,0,0,1-.328-1.146,2.084,2.084,0,0,1,.328-.874V130.8a4.492,4.492,0,0,1,.412-.68c.137-.14.3-.331.161-.549,0,0-1.609-2.076-1.8-7.047a41.711,41.711,0,0,1,.137-5.245,9.691,9.691,0,0,1,.3-1.173l.438-.083c.134-.027.191-.328.054-.438s-.492-.463-.492-.463a13.975,13.975,0,0,0-1.2-1.447,1.88,1.88,0,0,0-.409-.218A11.133,11.133,0,0,0,119.275,112.2Z" transform="translate(-100.274 -96.351)" fill="#fff"/>
    <path id="Path_325" data-name="Path 325" d="M37.952,25.628V62.45s.237,1.5.57,1.732.379.421.379.421a3.02,3.02,0,0,1-1.092-.188,2.15,2.15,0,0,1-.428-.281l-.533.471L36,64.134l-.866.471-.511-.471s-.374.246-.71.424a1.52,1.52,0,0,1-.8,0s.038-.146.369-.379.57-1.732.57-1.732V25.628s1.14-.7,1.711-.233a2.168,2.168,0,0,0,2.187.281v-.048Z" transform="translate(-33.116 -25.162)" fill="#fff"/>
    <path id="Path_326" data-name="Path 326" d="M217.317,25.211V62.033s-.237,1.5-.57,1.729-.379.421-.379.421A3.02,3.02,0,0,0,217.46,64a2.259,2.259,0,0,0,.428-.278l.522.514.855-.514.858.514.522-.514a2.268,2.268,0,0,0,.428.278,3.02,3.02,0,0,0,1.092.188s-.046-.188-.379-.421-.57-1.729-.57-1.729V25.211s-1.14-.7-1.711-.236a2.174,2.174,0,0,1-2.187.281Z" transform="translate(-185.564 -24.815)" fill="#fff"/>
    <g id="Group_610" data-name="Group 610" transform="translate(0.845 2.07)">
      <path id="Path_327" data-name="Path 327" d="M72.924,38.494h-34.9V36.842h34.9Z" transform="translate(-38.023 -36.842)" fill="#4d5f85"/>
    </g>
    <g id="Group_611" data-name="Group 611" transform="translate(0.845 2.611)">
      <path id="Path_328" data-name="Path 328" d="M72.924,40.553h-34.9v-.57h34.9Z" transform="translate(-38.023 -39.983)" fill="#fff"/>
    </g>
    <g id="Group_612" data-name="Group 612" transform="translate(0.845 28.315)">
      <path id="Path_329" data-name="Path 329" d="M42.679,193.65H38.023V192h4.656Z" transform="translate(-38.023 -191.999)" fill="#4d5f85"/>
    </g>
    <g id="Group_613" data-name="Group 613" transform="translate(31.089 28.315)">
      <path id="Path_330" data-name="Path 330" d="M222.776,193.65h-4.753V192h4.753Z" transform="translate(-218.023 -191.999)" fill="#4d5f85"/>
    </g>
    <g id="Group_614" data-name="Group 614" transform="translate(0.845 28.86)">
      <path id="Path_331" data-name="Path 331" d="M42.679,195.709H38.023v-.57h4.656Z" transform="translate(-38.023 -195.139)" fill="#fff"/>
    </g>
    <g id="Group_615" data-name="Group 615" transform="translate(31.089 28.86)">
      <path id="Path_332" data-name="Path 332" d="M222.776,195.709h-4.753v-.57h4.753Z" transform="translate(-218.023 -195.139)" fill="#fff"/>
    </g>
    <path id="Path_333" data-name="Path 333" d="M63.548,194.49a.605.605,0,1,0-.6-.605A.6.6,0,0,0,63.548,194.49Z" transform="translate(-57.81 -164.742)" fill="#fff"/>
    <path id="Path_334" data-name="Path 334" d="M213.444,194.756a.605.605,0,1,0-.608-.6A.6.6,0,0,0,213.444,194.756Z" transform="translate(-182.64 -164.963)" fill="#fff"/>
    <path id="Path_335" data-name="Path 335" d="M98.207,64.28h-.758s-.664,1.426-.9,1.9-.64,1.474-.215,2.017,1.641.594,1.641.594h.1s1.21-.046,1.638-.594.024-1.544-.212-2.017-.9-1.9-.9-1.9h-.382Z" transform="translate(-85.532 -57.605)" fill="#fff"/>
    <path id="Path_336" data-name="Path 336" d="M167.506,64.28h-.758s-.667,1.426-.9,1.9-.64,1.474-.215,2.017,1.641.594,1.641.594h.094s1.213-.046,1.641-.594.024-1.544-.212-2.017-.9-1.9-.9-1.9h-.382Z" transform="translate(-143.166 -57.605)" fill="#fff"/>
    <g id="Group_616" data-name="Group 616" transform="translate(5.461 3.561)">
      <path id="Path_337" data-name="Path 337" d="M65.393,71.6l-.557-.121c.221-1.009,5.423-24.725,5.517-25.061a1.135,1.135,0,0,1,1.084-.923.952.952,0,0,1,.89.681l.011,2.935h-.57V46.266a.4.4,0,0,0-.331-.2c-.323,0-.468.274-.535.508-.092.347-3.645,16.524-5.509,25.026Z" transform="translate(-64.836 -45.499)" fill="#fff"/>
    </g>
    <g id="Group_617" data-name="Group 617" transform="translate(23.579 3.609)">
      <path id="Path_338" data-name="Path 338" d="M181.346,71.885c-1.864-8.5-5.412-24.668-5.512-25.029-.054-.188-.194-.506-.533-.506a.388.388,0,0,0-.344.274l.011,2.768h-.57V46.541a.964.964,0,0,1,.9-.761,1.132,1.132,0,0,1,1.081.92c.1.331,4.965,22.533,5.519,25.064l-.557.121Z" transform="translate(-174.398 -45.78)" fill="#fff"/>
    </g>
    <line id="Line_160" data-name="Line 160" y2="1.522" transform="translate(11.774 2.775)" fill="none" stroke="#fff" stroke-width="3.313"/>
    <line id="Line_161" data-name="Line 161" y2="1.52" transform="translate(24.724 2.826)" fill="none" stroke="#fff" stroke-width="3.313"/>
  </g>
</svg>
