<svg id="garbage" xmlns="http://www.w3.org/2000/svg" width="31.997" height="31.998" viewBox="0 0 31.997 31.998">
  <g id="Background" transform="translate(0 0)">
    <path id="Path_347" data-name="Path 347" d="M32,2.091A2.089,2.089,0,0,0,29.909,0H2.089A2.091,2.091,0,0,0,0,2.091V29.906A2.092,2.092,0,0,0,2.089,32H29.909A2.091,2.091,0,0,0,32,29.906Z" transform="translate(0 0)" fill="#38598a"/>
  </g>
  <g id="Garbage-2" data-name="Garbage" transform="translate(7.059 2.686)">
    <path id="Path_348" data-name="Path 348" d="M62.467,174h.807l.858,8.213h4.025l.806-8.16h.911l-1.018,8.8H63.381Z" transform="translate(-62.467 -156.942)" fill="#fff"/>
    <path id="Path_349" data-name="Path 349" d="M83.184,175.891l.751.805-1.181,1.074-.8-.913Z" transform="translate(-79.749 -158.642)" fill="#fff"/>
    <path id="Path_350" data-name="Path 350" d="M95.408,190.141l-.645.537.537.7.108.913.859-.268-.215-1.074Z" transform="translate(-91.114 -171.276)" fill="#fff"/>
    <path id="Path_351" data-name="Path 351" d="M81.467,206.821l1.451-.055.108,1.342-1.074.161Z" transform="translate(-79.32 -186.005)" fill="#fff"/>
    <path id="Path_352" data-name="Path 352" d="M89.243,222.438s1.5.268,1.4.484a10.251,10.251,0,0,1-.858,1.021l-.43-.484-.7.215-.537-.7Z" transform="translate(-85.216 -199.906)" fill="#fff"/>
    <path id="Path_353" data-name="Path 353" d="M160.3,27.978a2.107,2.107,0,1,0-2.106-2.107A2.1,2.1,0,0,0,160.3,27.978Z" transform="translate(-147.375 -23.765)" fill="#fff"/>
    <path id="Path_354" data-name="Path 354" d="M111.041,74.871l2.369-6.784s.467-1.617,1.946-1.617h6.4s1.647.131,1.647,1.619v8.027s-.054.452-.824.452c-.864,0-.918-.452-.918-.452V70.043a.324.324,0,0,0-.348-.242.365.365,0,0,0-.33.276V86.67a.935.935,0,0,1-.955.841,1.023,1.023,0,0,1-1.073-.878V76.988h-1.1l0,9.7a.942.942,0,0,1-1.051.818.912.912,0,0,1-1.017-.922c0-.267-.007-16.57-.007-16.57,0,.026.026-.217-.55-.217a.552.552,0,0,0-.6.463c-.211.632-.361.752-2,5.262,0,0-.171.558-.962.267C110.814,75.476,111.041,74.871,111.041,74.871Z" transform="translate(-105.527 -61.564)" fill="#fff"/>
  </g>
</svg>
