<svg id="garbage" xmlns="http://www.w3.org/2000/svg" width="15.999" height="16" viewBox="0 0 15.999 16">
  <g id="Background" transform="translate(0 0)">
    <path id="Path_347" data-name="Path 347" d="M16,1.045A1.045,1.045,0,0,0,14.955,0H1.045A1.045,1.045,0,0,0,0,1.045V14.954A1.046,1.046,0,0,0,1.045,16h13.91A1.045,1.045,0,0,0,16,14.954Z" transform="translate(0 0)" fill="#38598a"/>
  </g>
  <g id="Garbage-2" data-name="Garbage" transform="translate(3.53 1.343)">
    <path id="Path_348" data-name="Path 348" d="M62.467,174h.4l.429,4.107h2.013l.4-4.08h.456l-.509,4.4H62.924Z" transform="translate(-62.467 -165.471)" fill="#fff"/>
    <path id="Path_349" data-name="Path 349" d="M82.568,175.891l.376.4-.59.537-.4-.456Z" transform="translate(-80.85 -167.266)" fill="#fff"/>
    <path id="Path_350" data-name="Path 350" d="M95.086,190.141l-.322.268.268.349.054.457.43-.134-.107-.537Z" transform="translate(-92.939 -180.708)" fill="#fff"/>
    <path id="Path_351" data-name="Path 351" d="M81.467,206.793l.725-.027.054.671-.537.08Z" transform="translate(-80.393 -196.385)" fill="#fff"/>
    <path id="Path_352" data-name="Path 352" d="M88.679,222.438s.751.134.7.242a5.124,5.124,0,0,1-.429.51l-.215-.242-.35.108-.268-.35Z" transform="translate(-86.665 -211.172)" fill="#fff"/>
    <path id="Path_353" data-name="Path 353" d="M159.246,25.872a1.053,1.053,0,1,0-1.053-1.053A1.052,1.052,0,0,0,159.246,25.872Z" transform="translate(-152.784 -23.765)" fill="#fff"/>
    <path id="Path_354" data-name="Path 354" d="M111.027,70.67l1.184-3.392s.234-.809.973-.809h3.2s.823.065.823.81v4.014s-.027.226-.412.226c-.432,0-.459-.226-.459-.226V68.256a.162.162,0,0,0-.174-.121.182.182,0,0,0-.165.138v8.3a.468.468,0,0,1-.478.42.511.511,0,0,1-.536-.439V71.729h-.549v4.853a.471.471,0,0,1-.525.409.456.456,0,0,1-.509-.461c0-.133,0-8.286,0-8.286s.013-.109-.275-.109a.276.276,0,0,0-.3.231c-.106.316-.181.376-1,2.631,0,0-.086.279-.481.133C110.914,70.973,111.027,70.67,111.027,70.67Z" transform="translate(-108.27 -64.016)" fill="#fff"/>
  </g>
</svg>
