<svg id="garbage" xmlns="http://www.w3.org/2000/svg" width="47.999" height="48" viewBox="0 0 47.999 48">
  <g id="Background">
    <path id="Path_347" data-name="Path 347" d="M48,3.136A3.134,3.134,0,0,0,44.866,0H3.134A3.136,3.136,0,0,0,0,3.136V44.862A3.138,3.138,0,0,0,3.134,48H44.866A3.136,3.136,0,0,0,48,44.862Z" fill="#38598a"/>
  </g>
  <g id="Garbage-2" data-name="Garbage" transform="translate(10.59 4.029)">
    <path id="Path_348" data-name="Path 348" d="M62.467,174h1.21l1.287,12.32H71l1.209-12.241h1.367l-1.527,13.207H63.838Z" transform="translate(-62.467 -148.412)" fill="#fff"/>
    <path id="Path_349" data-name="Path 349" d="M83.8,175.891l1.127,1.208-1.771,1.611-1.207-1.369Z" transform="translate(-78.648 -150.016)" fill="#fff"/>
    <path id="Path_350" data-name="Path 350" d="M95.731,190.141l-.967.805.805,1.046.162,1.37,1.289-.4-.322-1.611Z" transform="translate(-89.289 -161.841)" fill="#fff"/>
    <path id="Path_351" data-name="Path 351" d="M81.467,206.848l2.176-.082.162,2.013-1.611.241Z" transform="translate(-78.246 -175.623)" fill="#fff"/>
    <path id="Path_352" data-name="Path 352" d="M89.808,222.438s2.254.4,2.093.726a15.374,15.374,0,0,1-1.287,1.531l-.645-.726-1.049.323-.805-1.049Z" transform="translate(-83.766 -188.638)" fill="#fff"/>
    <path id="Path_353" data-name="Path 353" d="M161.352,30.085a3.16,3.16,0,1,0-3.159-3.16A3.157,3.157,0,0,0,161.352,30.085Z" transform="translate(-141.965 -23.765)" fill="#fff"/>
    <path id="Path_354" data-name="Path 354" d="M111.055,79.072,114.608,68.9s.7-2.426,2.919-2.426h9.606s2.47.2,2.47,2.429V80.94s-.081.678-1.236.678c-1.3,0-1.377-.678-1.377-.678V71.83a.486.486,0,0,0-.522-.363.547.547,0,0,0-.5.413V96.772a1.4,1.4,0,0,1-1.433,1.261,1.534,1.534,0,0,1-1.609-1.317V82.248h-1.648l0,14.558a1.413,1.413,0,0,1-1.576,1.226,1.368,1.368,0,0,1-1.526-1.383c0-.4-.011-24.857-.011-24.857,0,.04.038-.326-.825-.326a.828.828,0,0,0-.9.694c-.317.948-.542,1.128-3,7.894,0,0-.257.837-1.442.4C110.714,79.981,111.055,79.072,111.055,79.072Z" transform="translate(-102.784 -59.11)" fill="#fff"/>
  </g>
</svg>
