<svg id="garbage" xmlns="http://www.w3.org/2000/svg" width="63.998" height="64" viewBox="0 0 63.998 64">
  <g id="Background">
    <path id="Path_347" data-name="Path 347" d="M64,4.181A4.179,4.179,0,0,0,59.821,0H4.179A4.181,4.181,0,0,0,0,4.181V59.815A4.184,4.184,0,0,0,4.179,64H59.821A4.182,4.182,0,0,0,64,59.815Z" fill="#38598a"/>
  </g>
  <g id="Garbage-2" data-name="Garbage" transform="translate(14.12 5.372)">
    <path id="Path_348" data-name="Path 348" d="M62.467,174h1.614L65.8,190.427h8.051l1.612-16.321h1.823l-2.036,17.61H64.295Z" transform="translate(-62.467 -139.883)" fill="#fff"/>
    <path id="Path_349" data-name="Path 349" d="M84.418,175.891l1.5,1.611-2.361,2.147-1.609-1.826Z" transform="translate(-77.547 -141.391)" fill="#fff"/>
    <path id="Path_350" data-name="Path 350" d="M96.053,190.141l-1.289,1.074,1.074,1.395.215,1.826,1.718-.537-.429-2.147Z" transform="translate(-87.464 -152.408)" fill="#fff"/>
    <path id="Path_351" data-name="Path 351" d="M81.467,206.875l2.9-.109.215,2.684-2.147.321Z" transform="translate(-77.172 -165.242)" fill="#fff"/>
    <path id="Path_352" data-name="Path 352" d="M90.373,222.438s3.006.537,2.79.968a20.5,20.5,0,0,1-1.717,2.041l-.86-.968-1.4.431-1.074-1.4Z" transform="translate(-82.317 -177.372)" fill="#fff"/>
    <path id="Path_353" data-name="Path 353" d="M162.4,32.192a4.214,4.214,0,1,0-4.212-4.214A4.21,4.21,0,0,0,162.4,32.192Z" transform="translate(-136.555 -23.765)" fill="#fff"/>
    <path id="Path_354" data-name="Path 354" d="M111.069,83.273,115.806,69.7s.934-3.235,3.892-3.235h12.808s3.293.261,3.293,3.239V85.763s-.108.9-1.648.9c-1.729,0-1.837-.9-1.837-.9V73.617a.649.649,0,0,0-.7-.484.729.729,0,0,0-.66.551v33.188a1.871,1.871,0,0,1-1.911,1.681A2.046,2.046,0,0,1,126.9,106.8V87.508h-2.2l0,19.411a1.884,1.884,0,0,1-2.1,1.635,1.825,1.825,0,0,1-2.034-1.844c0-.533-.014-33.143-.014-33.143,0,.053.051-.434-1.1-.434a1.1,1.1,0,0,0-1.206.925c-.422,1.264-.722,1.5-4,10.525,0,0-.343,1.116-1.923.533C110.615,84.485,111.069,83.273,111.069,83.273Z" transform="translate(-100.04 -56.658)" fill="#fff"/>
  </g>
</svg>
