<svg id="gatehouse" xmlns="http://www.w3.org/2000/svg" width="31.998" height="31.998" viewBox="0 0 31.998 31.998">
  <g id="Background" transform="translate(0)">
    <path id="Path_359" data-name="Path 359" d="M32,2.091A2.09,2.09,0,0,0,29.909,0H2.09A2.091,2.091,0,0,0,0,2.091V29.906A2.092,2.092,0,0,0,2.09,32H29.909A2.091,2.091,0,0,0,32,29.906V2.091Z" transform="translate(0)" fill="#38598a"/>
  </g>
  <g id="Shelter" transform="translate(4.767 2.15)">
    <path id="Path_360" data-name="Path 360" d="M53.311,45.8h8.864V32.873l2.368.632v-1.9L53.391,18.98,42.078,31.61v1.9l2.369-.632V45.8Z" transform="translate(-42.078 -18.98)" fill="#fff"/>
    <rect id="Rectangle_711" data-name="Rectangle 711" width="10.977" height="6.497" transform="translate(5.844 14.292)" fill="#38598a"/>
    <g id="Group_619" data-name="Group 619" transform="translate(8.359 15.2)">
      <path id="Path_361" data-name="Path 361" d="M120.567,185.366a.6.6,0,0,1-1.193,0v-1.853h-.607v1.818a.6.6,0,0,1-1.193,0v-5.826a.185.185,0,0,0-.189-.125.206.206,0,0,0-.189.131v3.537s.019.334-.466.334c-.522,0-.521-.372-.521-.372v-4.618s-.006-.929,1.12-.929h3.681s.947.075.947.931v4.616s-.031.26-.474.26c-.5,0-.528-.26-.528-.26V179.52a.185.185,0,0,0-.2-.139.209.209,0,0,0-.19.158Z" transform="translate(-116.211 -174.71)" fill="#fff"/>
      <path id="Path_362" data-name="Path 362" d="M132.474,155.566a1.209,1.209,0,1,0-1.209-1.209A1.208,1.208,0,0,0,132.474,155.566Z" transform="translate(-129.559 -153.147)" fill="#fff"/>
    </g>
  </g>
</svg>
