<svg id="gatehouse" xmlns="http://www.w3.org/2000/svg" width="64" height="64" viewBox="0 0 64 64">
  <g id="Background">
    <path id="Path_359" data-name="Path 359" d="M64,4.181A4.18,4.18,0,0,0,59.822,0H4.18A4.182,4.182,0,0,0,0,4.181V59.815A4.184,4.184,0,0,0,4.18,64H59.822A4.183,4.183,0,0,0,64,59.815V4.181Z" fill="#38598a"/>
  </g>
  <g id="Shelter" transform="translate(9.535 4.301)">
    <path id="Path_360" data-name="Path 360" d="M64.546,72.616H82.275V46.769l4.737,1.264V44.241L64.7,18.98,42.078,44.241v3.792l4.738-1.264V72.616Z" transform="translate(-42.078 -18.98)" fill="#fff"/>
    <rect id="Rectangle_711" data-name="Rectangle 711" width="21.955" height="12.995" transform="translate(11.69 28.587)" fill="#38598a"/>
    <g id="Group_619" data-name="Group 619" transform="translate(16.719 30.402)">
      <path id="Path_361" data-name="Path 361" d="M124.924,193.268a1.193,1.193,0,0,1-2.386,0v-3.706h-1.214V193.2a1.193,1.193,0,0,1-2.386,0V181.548a.371.371,0,0,0-.377-.25.412.412,0,0,0-.378.263v7.075s.037.669-.932.669c-1.044,0-1.042-.743-1.042-.743v-9.237s-.013-1.859,2.239-1.859h7.363s1.894.15,1.894,1.863v9.233s-.063.519-.948.519c-.995,0-1.057-.519-1.057-.519v-6.985a.371.371,0,0,0-.4-.278.418.418,0,0,0-.379.316Z" transform="translate(-116.211 -171.955)" fill="#fff"/>
      <path id="Path_362" data-name="Path 362" d="M133.684,157.984a2.419,2.419,0,1,0-2.419-2.419A2.417,2.417,0,0,0,133.684,157.984Z" transform="translate(-127.854 -153.147)" fill="#fff"/>
    </g>
  </g>
</svg>
