<svg id="group-camping" xmlns="http://www.w3.org/2000/svg" width="48" height="48" viewBox="0 0 48 48">
  <g id="Group_626" data-name="Group 626" transform="translate(0 0)">
    <path id="Path_371" data-name="Path 371" d="M47.984,3.143A3.143,3.143,0,0,0,44.848,0H3.136A3.143,3.143,0,0,0,0,3.143V44.857A3.143,3.143,0,0,0,3.136,48H44.865A3.143,3.143,0,0,0,48,44.857V3.143Z" transform="translate(0 0)" fill="#38598a"/>
    <path id="Path_372" data-name="Path 372" d="M47.984,3.143A3.143,3.143,0,0,0,44.848,0H3.136A3.143,3.143,0,0,0,0,3.143V44.857A3.143,3.143,0,0,0,3.136,48H44.865A3.143,3.143,0,0,0,48,44.857V3.143Z" transform="translate(0 0)" fill="#38598a"/>
  </g>
  <g id="Group_631" data-name="Group 631" transform="translate(2.872 8.479)">
    <g id="Group_630" data-name="Group 630">
      <g id="Group_627" data-name="Group 627" transform="translate(0 16.991)">
        <path id="Path_373" data-name="Path 373" d="M16.9,163.935H36.627v-1.818h-2.8L26.789,149.9l-7.068,12.217H16.9Z" transform="translate(-16.9 -149.9)" fill="#fff"/>
        <path id="Path_374" data-name="Path 374" d="M59.909,187,56.8,192.913h6.151Z" transform="translate(-50.02 -180.696)" fill="#38598a"/>
      </g>
      <g id="Group_628" data-name="Group 628" transform="translate(22.53 16.991)">
        <path id="Path_375" data-name="Path 375" d="M150.2,163.935h19.727v-1.818h-2.8L160.089,149.9l-7.068,12.217H150.2Z" transform="translate(-150.2 -149.9)" fill="#fff"/>
        <path id="Path_376" data-name="Path 376" d="M193.209,187l-3.109,5.913h6.151Z" transform="translate(-183.32 -180.696)" fill="#38598a"/>
      </g>
      <g id="Group_629" data-name="Group 629" transform="translate(11.24)">
        <path id="Path_377" data-name="Path 377" d="M83.4,63.935h19.727V62.117h-2.8L93.289,49.9,86.221,62.117H83.4Z" transform="translate(-83.4 -49.9)" fill="#fff"/>
        <path id="Path_378" data-name="Path 378" d="M126.492,87,123.4,92.913h6.134Z" transform="translate(-116.603 -80.696)" fill="#38598a"/>
      </g>
    </g>
  </g>
</svg>
