<svg id="group-camping" xmlns="http://www.w3.org/2000/svg" width="32" height="32" viewBox="0 0 32 32">
  <g id="Group_626" data-name="Group 626" transform="translate(0 0)">
    <path id="Path_371" data-name="Path 371" d="M31.989,2.1A2.1,2.1,0,0,0,29.9,0H2.09A2.1,2.1,0,0,0,0,2.1V29.9A2.1,2.1,0,0,0,2.09,32H29.91A2.1,2.1,0,0,0,32,29.9V2.1Z" transform="translate(0 0)" fill="#38598a"/>
    <path id="Path_372" data-name="Path 372" d="M31.989,2.1A2.1,2.1,0,0,0,29.9,0H2.09A2.1,2.1,0,0,0,0,2.1V29.9A2.1,2.1,0,0,0,2.09,32H29.91A2.1,2.1,0,0,0,32,29.9V2.1Z" transform="translate(0 0)" fill="#38598a"/>
  </g>
  <g id="Group_631" data-name="Group 631" transform="translate(1.914 5.652)">
    <g id="Group_630" data-name="Group 630">
      <g id="Group_627" data-name="Group 627" transform="translate(0 11.327)">
        <path id="Path_373" data-name="Path 373" d="M16.9,159.256H30.051v-1.212H28.182l-4.69-8.144-4.712,8.144H16.9Z" transform="translate(-16.9 -149.9)" fill="#fff"/>
        <path id="Path_374" data-name="Path 374" d="M58.873,187,56.8,190.942h4.1Z" transform="translate(-52.28 -182.798)" fill="#38598a"/>
      </g>
      <g id="Group_628" data-name="Group 628" transform="translate(15.02 11.327)">
        <path id="Path_375" data-name="Path 375" d="M150.2,159.256h13.151v-1.212h-1.869l-4.69-8.144-4.712,8.144H150.2Z" transform="translate(-150.2 -149.9)" fill="#fff"/>
        <path id="Path_376" data-name="Path 376" d="M192.173,187l-2.073,3.942h4.1Z" transform="translate(-185.58 -182.798)" fill="#38598a"/>
      </g>
      <g id="Group_629" data-name="Group 629" transform="translate(7.493)">
        <path id="Path_377" data-name="Path 377" d="M83.4,59.256H96.551V58.044H94.682L89.993,49.9,85.28,58.044H83.4Z" transform="translate(-83.4 -49.9)" fill="#fff"/>
        <path id="Path_378" data-name="Path 378" d="M125.462,87,123.4,90.942h4.089Z" transform="translate(-118.869 -82.798)" fill="#38598a"/>
      </g>
    </g>
  </g>
</svg>
