<svg id="group-camping" xmlns="http://www.w3.org/2000/svg" width="64" height="64" viewBox="0 0 64 64">
  <g id="Group_626" data-name="Group 626" transform="translate(0 0)">
    <path id="Path_371" data-name="Path 371" d="M63.977,4.191A4.191,4.191,0,0,0,59.8,0H4.181A4.191,4.191,0,0,0,0,4.191V59.809A4.191,4.191,0,0,0,4.181,64H59.819A4.191,4.191,0,0,0,64,59.809V4.191Z" transform="translate(0 0)" fill="#38598a"/>
    <path id="Path_372" data-name="Path 372" d="M63.977,4.191A4.191,4.191,0,0,0,59.8,0H4.181A4.191,4.191,0,0,0,0,4.191V59.809A4.191,4.191,0,0,0,4.181,64H59.819A4.191,4.191,0,0,0,64,59.809V4.191Z" transform="translate(0 0)" fill="#38598a"/>
  </g>
  <g id="Group_631" data-name="Group 631" transform="translate(3.829 11.305)">
    <g id="Group_630" data-name="Group 630">
      <g id="Group_627" data-name="Group 627" transform="translate(0 22.655)">
        <path id="Path_373" data-name="Path 373" d="M16.9,168.613H43.2v-2.424H39.464L30.085,149.9l-9.424,16.289H16.9Z" transform="translate(-16.9 -149.9)" fill="#fff"/>
        <path id="Path_374" data-name="Path 374" d="M60.946,187,56.8,194.884H65Z" transform="translate(-47.761 -178.595)" fill="#38598a"/>
      </g>
      <g id="Group_628" data-name="Group 628" transform="translate(30.04 22.655)">
        <path id="Path_375" data-name="Path 375" d="M150.2,168.613h26.3v-2.424h-3.738L163.385,149.9l-9.424,16.289H150.2Z" transform="translate(-150.2 -149.9)" fill="#fff"/>
        <path id="Path_376" data-name="Path 376" d="M194.246,187l-4.146,7.884h8.2Z" transform="translate(-181.061 -178.595)" fill="#38598a"/>
      </g>
      <g id="Group_629" data-name="Group 629" transform="translate(14.986)">
        <path id="Path_377" data-name="Path 377" d="M83.4,68.613h26.3V66.189h-3.738L96.585,49.9,87.161,66.189H83.4Z" transform="translate(-83.4 -49.9)" fill="#fff"/>
        <path id="Path_378" data-name="Path 378" d="M127.523,87,123.4,94.884h8.178Z" transform="translate(-114.338 -78.595)" fill="#38598a"/>
      </g>
    </g>
  </g>
</svg>
