<svg id="group-camping" xmlns="http://www.w3.org/2000/svg" width="16" height="16" viewBox="0 0 16 16">
  <g id="Group_626" data-name="Group 626" transform="translate(0 0)">
    <path id="Path_371" data-name="Path 371" d="M15.994,1.048A1.048,1.048,0,0,0,14.949,0H1.045A1.048,1.048,0,0,0,0,1.048v13.9A1.048,1.048,0,0,0,1.045,16h13.91A1.048,1.048,0,0,0,16,14.952V1.048Z" transform="translate(0 0)" fill="#38598a"/>
    <path id="Path_372" data-name="Path 372" d="M15.994,1.048A1.048,1.048,0,0,0,14.949,0H1.045A1.048,1.048,0,0,0,0,1.048v13.9A1.048,1.048,0,0,0,1.045,16h13.91A1.048,1.048,0,0,0,16,14.952V1.048Z" transform="translate(0 0)" fill="#38598a"/>
  </g>
  <g id="Group_631" data-name="Group 631" transform="translate(0.957 2.826)">
    <g id="Group_630" data-name="Group 630">
      <g id="Group_627" data-name="Group 627" transform="translate(0 5.664)">
        <path id="Path_373" data-name="Path 373" d="M16.9,154.578h6.576v-.606h-.935L20.2,149.9l-2.356,4.072H16.9Z" transform="translate(-16.9 -149.9)" fill="#fff"/>
        <path id="Path_374" data-name="Path 374" d="M57.836,187,56.8,188.971h2.05Z" transform="translate(-54.54 -184.899)" fill="#38598a"/>
      </g>
      <g id="Group_628" data-name="Group 628" transform="translate(7.51 5.664)">
        <path id="Path_375" data-name="Path 375" d="M150.2,154.578h6.576v-.606h-.935L153.5,149.9l-2.356,4.072h-.94Z" transform="translate(-150.2 -149.9)" fill="#fff"/>
        <path id="Path_376" data-name="Path 376" d="M191.136,187l-1.036,1.971h2.05Z" transform="translate(-187.84 -184.899)" fill="#38598a"/>
      </g>
      <g id="Group_629" data-name="Group 629" transform="translate(3.747)">
        <path id="Path_377" data-name="Path 377" d="M83.4,54.578h6.576v-.606h-.935L86.7,49.9,84.34,53.972H83.4Z" transform="translate(-83.4 -49.9)" fill="#fff"/>
        <path id="Path_378" data-name="Path 378" d="M124.431,87,123.4,88.971h2.045Z" transform="translate(-121.135 -84.899)" fill="#38598a"/>
      </g>
    </g>
  </g>
</svg>
