<svg id="horseshoes" xmlns="http://www.w3.org/2000/svg" width="32" height="32" viewBox="0 0 32 32">
  <g id="Background">
    <path id="Path_383" data-name="Path 383" d="M32,2.092A2.09,2.09,0,0,0,29.911,0H2.09A2.091,2.091,0,0,0,0,2.092V29.907A2.092,2.092,0,0,0,2.09,32H29.911A2.091,2.091,0,0,0,32,29.907Z" fill="#38598a"/>
  </g>
  <g id="Horseshoes-2" data-name="Horseshoes" transform="translate(5.446 2.617)">
    <path id="Path_384" data-name="Path 384" d="M119.225,50.856a2.213,2.213,0,0,0,2.974-.818A2.156,2.156,0,0,0,121.882,47a2.212,2.212,0,0,0-2.974.819A2.152,2.152,0,0,0,119.225,50.856Z" transform="translate(-110.496 -44.051)" fill="#fff"/>
    <path id="Path_385" data-name="Path 385" d="M48.929,71.362l5.213-4.43,1.251-1.546,3.024.309s.417,1.03.835.721,4.8-4.018,4.8-4.018l1.668,1.134L57.375,73.01l1.46,11.128h-2.5s-1.564-7.831-1.876-7.109-3.962,7.109-3.962,7.109H48.1l4.484-12.982-3.232,1.958Z" transform="translate(-48.095 -57.86)" fill="#fff"/>
    <path id="Path_386" data-name="Path 386" d="M205.023,23.18a3.931,3.931,0,0,0-.991.958,1.8,1.8,0,0,0,.068,2.5,1.8,1.8,0,0,0,2.4-.69,3.332,3.332,0,0,0,.623-1.229l-.715-.522-.259.354a1.145,1.145,0,0,1-.211.988.851.851,0,1,1-1.329-.972,1.144,1.144,0,0,1,.879-.5l.262-.358Z" transform="translate(-186.014 -23.18)" fill="#fff"/>
  </g>
</svg>
