<svg id="horseshoes" xmlns="http://www.w3.org/2000/svg" width="48" height="48" viewBox="0 0 48 48">
  <g id="Background">
    <path id="Path_383" data-name="Path 383" d="M48,3.137A3.136,3.136,0,0,0,44.866,0H3.135A3.137,3.137,0,0,0,0,3.137V44.861A3.138,3.138,0,0,0,3.135,48H44.866A3.137,3.137,0,0,0,48,44.861Z" fill="#38598a"/>
  </g>
  <g id="Horseshoes-2" data-name="Horseshoes" transform="translate(8.169 3.926)">
    <path id="Path_384" data-name="Path 384" d="M119.619,52.93a3.32,3.32,0,0,0,4.46-1.227,3.235,3.235,0,0,0-.475-4.551,3.318,3.318,0,0,0-4.46,1.228A3.229,3.229,0,0,0,119.619,52.93Z" transform="translate(-106.525 -42.723)" fill="#fff"/>
    <path id="Path_385" data-name="Path 385" d="M49.347,75.843l7.82-6.646,1.876-2.318,4.536.464s.626,1.545,1.252,1.082S72.024,62.4,72.024,62.4l2.5,1.7L62.015,78.316,64.2,95.008H60.45S58.1,83.262,57.636,84.344s-5.944,10.664-5.944,10.664H48.1l6.726-19.474-4.848,2.937Z" transform="translate(-48.095 -55.591)" fill="#fff"/>
    <path id="Path_386" data-name="Path 386" d="M205.751,23.18a5.9,5.9,0,0,0-1.487,1.437c-.966,1.321-.92,3,.1,3.744s2.634.285,3.6-1.035a5,5,0,0,0,.934-1.844l-1.073-.783-.389.531a1.717,1.717,0,0,1-.316,1.481,1.276,1.276,0,1,1-1.994-1.459,1.716,1.716,0,0,1,1.319-.75l.393-.537Z" transform="translate(-177.237 -23.18)" fill="#fff"/>
  </g>
</svg>
