<svg id="horseshoes" xmlns="http://www.w3.org/2000/svg" width="64" height="64" viewBox="0 0 64 64">
  <g id="Background">
    <path id="Path_383" data-name="Path 383" d="M64,4.183A4.181,4.181,0,0,0,59.822,0H4.18A4.182,4.182,0,0,0,0,4.183V59.814A4.184,4.184,0,0,0,4.18,64H59.822A4.183,4.183,0,0,0,64,59.814Z" fill="#38598a"/>
  </g>
  <g id="Horseshoes-2" data-name="Horseshoes" transform="translate(10.892 5.234)">
    <path id="Path_384" data-name="Path 384" d="M120.012,55c1.817,1.224,4.479.49,5.947-1.636s1.184-4.844-.633-6.068-4.481-.492-5.947,1.637S118.193,53.782,120.012,55Z" transform="translate(-102.554 -41.395)" fill="#fff"/>
    <path id="Path_385" data-name="Path 385" d="M49.764,80.325,60.19,71.464l2.5-3.091,6.048.618s.834,2.061,1.669,1.442S80,62.4,80,62.4l3.336,2.267L66.654,83.622l2.92,22.255H64.569s-3.128-15.661-3.752-14.219-7.925,14.219-7.925,14.219H48.1l8.968-25.965L50.6,83.829Z" transform="translate(-48.095 -53.322)" fill="#fff"/>
    <path id="Path_386" data-name="Path 386" d="M206.478,23.18A7.861,7.861,0,0,0,204.5,25.1c-1.288,1.761-1.226,3.995.136,4.993s3.513.379,4.8-1.38a6.663,6.663,0,0,0,1.246-2.458l-1.431-1.044-.519.708a2.289,2.289,0,0,1-.422,1.975,1.935,1.935,0,0,1-2.586.743,1.932,1.932,0,0,1-.072-2.688,2.288,2.288,0,0,1,1.759-1l.524-.716Z" transform="translate(-168.459 -23.18)" fill="#fff"/>
  </g>
</svg>
