<svg id="horseshoes" xmlns="http://www.w3.org/2000/svg" width="16" height="16" viewBox="0 0 16 16">
  <g id="Background">
    <path id="Path_383" data-name="Path 383" d="M16,1.046A1.045,1.045,0,0,0,14.955,0H1.045A1.046,1.046,0,0,0,0,1.046V14.953A1.046,1.046,0,0,0,1.045,16h13.91A1.046,1.046,0,0,0,16,14.953Z" fill="#38598a"/>
  </g>
  <g id="Horseshoes-2" data-name="Horseshoes" transform="translate(2.723 1.309)">
    <path id="Path_384" data-name="Path 384" d="M118.832,48.782a1.107,1.107,0,0,0,1.487-.409,1.078,1.078,0,0,0-.158-1.517,1.106,1.106,0,0,0-1.487.409A1.076,1.076,0,0,0,118.832,48.782Z" transform="translate(-114.467 -45.379)" fill="#fff"/>
    <path id="Path_385" data-name="Path 385" d="M48.512,66.88l2.607-2.215.625-.773,1.512.155s.209.515.417.361,2.4-2.009,2.4-2.009l.834.567L52.735,67.7l.73,5.564H52.213s-.782-3.915-.938-3.555-1.981,3.555-1.981,3.555H48.1l2.242-6.491-1.616.979Z" transform="translate(-48.095 -60.129)" fill="#fff"/>
    <path id="Path_386" data-name="Path 386" d="M204.3,23.18a1.965,1.965,0,0,0-.5.479.79.79,0,1,0,1.234.9,1.666,1.666,0,0,0,.311-.615l-.358-.261-.13.177a.572.572,0,0,1-.105.494.425.425,0,1,1-.665-.486.572.572,0,0,1,.44-.25l.131-.179Z" transform="translate(-194.791 -23.18)" fill="#fff"/>
  </g>
</svg>
