<svg id="information-shelter" xmlns="http://www.w3.org/2000/svg" width="16" height="16" viewBox="0 0 16 16">
  <g id="Background" transform="translate(0 0)">
    <path id="Path_393" data-name="Path 393" d="M16,1.045A1.045,1.045,0,0,0,14.955,0H1.045A1.045,1.045,0,0,0,0,1.045V14.954A1.046,1.046,0,0,0,1.045,16h13.91A1.046,1.046,0,0,0,16,14.954V1.045Z" transform="translate(0 0)" fill="#38598a"/>
  </g>
  <g id="Shelter" transform="translate(1.757 1.512)">
    <path id="Path_394" data-name="Path 394" d="M37.334,39.734h5.55V30.5l.694.316v-.949l-6.193-3.107L31.09,29.865v.949l.694-.316v9.237Z" transform="translate(-31.09 -26.758)" fill="#fff"/>
    <rect id="Rectangle_715" data-name="Rectangle 715" width="9.712" height="8.135" transform="translate(1.45 4.02)" fill="#38598a"/>
  </g>
  <g id="Information" transform="translate(5.676 6.062)">
    <path id="Path_395" data-name="Path 395" d="M102.148,111.939h1.371v-.651a.282.282,0,0,1,.209-.279c.233-.093,1.395-.837,1.371-1.859a2.215,2.215,0,0,0-2.394-2.347,2.272,2.272,0,0,0-2.254,2.3h1.394a.955.955,0,0,1,.907-1,.885.885,0,0,1,.952.883.986.986,0,0,1-.535.744c-1.063.564-1.019,1.1-1.019,1.1Z" transform="translate(-100.451 -106.802)" fill="#fff"/>
    <rect id="Rectangle_716" data-name="Rectangle 716" width="1.383" height="1.383" transform="translate(1.673 5.656)" fill="#fff"/>
  </g>
</svg>
