<svg id="information-shelter" xmlns="http://www.w3.org/2000/svg" width="32" height="32" viewBox="0 0 32 32">
  <g id="Background" transform="translate(0 0)">
    <path id="Path_393" data-name="Path 393" d="M32,2.091A2.09,2.09,0,0,0,29.91,0H2.09A2.091,2.091,0,0,0,0,2.091V29.907A2.092,2.092,0,0,0,2.09,32H29.91A2.091,2.091,0,0,0,32,29.907V2.091Z" transform="translate(0 0)" fill="#38598a"/>
  </g>
  <g id="Shelter" transform="translate(3.514 3.024)">
    <path id="Path_394" data-name="Path 394" d="M43.577,52.71h11.1V34.237l1.387.632v-1.9L43.677,26.758,31.09,32.972v1.9l1.388-.632V52.71Z" transform="translate(-31.09 -26.758)" fill="#fff"/>
    <rect id="Rectangle_715" data-name="Rectangle 715" width="19.425" height="16.271" transform="translate(2.9 8.04)" fill="#38598a"/>
  </g>
  <g id="Information" transform="translate(11.353 12.124)">
    <path id="Path_395" data-name="Path 395" d="M103.844,117.075h2.741v-1.3a.564.564,0,0,1,.419-.558c.465-.187,2.789-1.674,2.742-3.719-.032-1.413-.635-4.753-4.787-4.694a4.543,4.543,0,0,0-4.508,4.6h2.788a1.91,1.91,0,0,1,1.814-2,1.77,1.77,0,0,1,1.9,1.766,1.971,1.971,0,0,1-1.069,1.487c-2.126,1.129-2.037,2.2-2.037,2.2Z" transform="translate(-100.451 -106.802)" fill="#fff"/>
    <rect id="Rectangle_716" data-name="Rectangle 716" width="2.766" height="2.765" transform="translate(3.346 11.312)" fill="#fff"/>
  </g>
</svg>
