<svg id="information" xmlns="http://www.w3.org/2000/svg" width="32" height="32" viewBox="0 0 32 32">
  <g id="Group_637" data-name="Group 637" transform="translate(0)">
    <path id="Path_396" data-name="Path 396" d="M31.989,2.1A2.1,2.1,0,0,0,29.9,0H2.09A2.1,2.1,0,0,0,0,2.1V29.9A2.1,2.1,0,0,0,2.09,32H29.91A2.1,2.1,0,0,0,32,29.9V2.1Z" transform="translate(0)" fill="#fff"/>
    <path id="Path_397" data-name="Path 397" d="M31.989,2.1A2.1,2.1,0,0,0,29.9,0H2.09A2.1,2.1,0,0,0,0,2.1V29.9A2.1,2.1,0,0,0,2.09,32H29.91A2.1,2.1,0,0,0,32,29.9V2.1Z" transform="translate(0)" fill="#38598a"/>
  </g>
  <g id="Group_641" data-name="Group 641" transform="translate(8.671 4.904)">
    <g id="Group_640" data-name="Group 640">
      <g id="Group_639" data-name="Group 639">
        <path id="Path_398" data-name="Path 398" d="M82.247,59.478h4.316v-2.05a.9.9,0,0,1,.657-.884c.736-.295,4.4-2.639,4.316-5.856-.045-2.22-1-7.487-7.533-7.4-5.2.079-7.023,4.463-7.1,7.25h4.4a3.014,3.014,0,0,1,2.854-3.149,2.788,2.788,0,0,1,3,2.775,3.091,3.091,0,0,1-1.688,2.345c-3.342,1.778-3.206,3.466-3.206,3.466Z" transform="translate(-76.9 -43.29)" fill="#fff"/>
        <g id="Group_638" data-name="Group 638" transform="translate(5.279 17.819)">
          <rect id="Rectangle_717" data-name="Rectangle 717" width="4.35" height="4.35" transform="translate(0 0)" fill="#fff"/>
        </g>
      </g>
    </g>
  </g>
</svg>
