<svg id="information-shelter" xmlns="http://www.w3.org/2000/svg" width="48" height="48" viewBox="0 0 48 48">
  <g id="Background">
    <path id="Path_393" data-name="Path 393" d="M48,3.136A3.135,3.135,0,0,0,44.866,0H3.135A3.136,3.136,0,0,0,0,3.136V44.862A3.138,3.138,0,0,0,3.135,48H44.866A3.137,3.137,0,0,0,48,44.862V3.136Z" fill="#38598a"/>
  </g>
  <g id="Shelter" transform="translate(5.271 4.536)">
    <path id="Path_394" data-name="Path 394" d="M49.821,65.686H66.471V37.976l2.081.949V36.079l-18.58-9.321L31.09,36.079v2.846l2.082-.949v27.71Z" transform="translate(-31.09 -26.758)" fill="#fff"/>
    <rect id="Rectangle_715" data-name="Rectangle 715" width="29.137" height="24.406" transform="translate(4.351 12.061)" fill="#38598a"/>
  </g>
  <g id="Information" transform="translate(17.029 18.187)">
    <path id="Path_395" data-name="Path 395" d="M105.541,122.212h4.112v-1.953a.846.846,0,0,1,.628-.836c.7-.28,4.184-2.511,4.114-5.578-.048-2.12-.952-7.129-7.181-7.042-4.949.071-6.692,4.254-6.763,6.9h4.183a2.865,2.865,0,0,1,2.721-3,2.654,2.654,0,0,1,2.857,2.649,2.957,2.957,0,0,1-1.6,2.231c-3.189,1.693-3.056,3.3-3.056,3.3Z" transform="translate(-100.451 -106.802)" fill="#fff"/>
    <rect id="Rectangle_716" data-name="Rectangle 716" width="4.149" height="4.148" transform="translate(5.019 16.968)" fill="#fff"/>
  </g>
</svg>
