<svg id="information" xmlns="http://www.w3.org/2000/svg" width="64" height="64" viewBox="0 0 64 64">
  <g id="Group_637" data-name="Group 637">
    <path id="Path_396" data-name="Path 396" d="M63.977,4.191A4.191,4.191,0,0,0,59.8,0H4.181A4.191,4.191,0,0,0,0,4.191V59.809A4.191,4.191,0,0,0,4.181,64H59.819A4.191,4.191,0,0,0,64,59.809V4.191Z" fill="#fff"/>
    <path id="Path_397" data-name="Path 397" d="M63.977,4.191A4.191,4.191,0,0,0,59.8,0H4.181A4.191,4.191,0,0,0,0,4.191V59.809A4.191,4.191,0,0,0,4.181,64H59.819A4.191,4.191,0,0,0,64,59.809V4.191Z" fill="#38598a"/>
  </g>
  <g id="Group_641" data-name="Group 641" transform="translate(17.342 9.807)">
    <g id="Group_640" data-name="Group 640">
      <g id="Group_639" data-name="Group 639">
        <path id="Path_398" data-name="Path 398" d="M87.593,75.666h8.631v-4.1A1.8,1.8,0,0,1,97.539,69.8c1.473-.589,8.79-5.279,8.631-11.713-.091-4.44-1.994-14.975-15.065-14.794-10.4.159-14.046,8.926-14.2,14.5h8.79s-.136-6,5.709-6.3,6,5.55,6,5.55a6.182,6.182,0,0,1-3.376,4.69c-6.683,3.557-6.411,6.932-6.411,6.932Z" transform="translate(-76.9 -43.29)" fill="#fff"/>
        <g id="Group_638" data-name="Group 638" transform="translate(10.557 35.638)">
          <rect id="Rectangle_717" data-name="Rectangle 717" width="8.699" height="8.699" transform="translate(0 0)" fill="#fff"/>
        </g>
      </g>
    </g>
  </g>
</svg>
