<svg id="information" xmlns="http://www.w3.org/2000/svg" width="16" height="16" viewBox="0 0 16 16">
  <g id="Group_637" data-name="Group 637" transform="translate(0)">
    <path id="Path_396" data-name="Path 396" d="M15.994,1.048A1.048,1.048,0,0,0,14.949,0H1.045A1.048,1.048,0,0,0,0,1.048v13.9A1.048,1.048,0,0,0,1.045,16h13.91A1.048,1.048,0,0,0,16,14.952V1.048Z" transform="translate(0)" fill="#fff"/>
    <path id="Path_397" data-name="Path 397" d="M15.994,1.048A1.048,1.048,0,0,0,14.949,0H1.045A1.048,1.048,0,0,0,0,1.048v13.9A1.048,1.048,0,0,0,1.045,16h13.91A1.048,1.048,0,0,0,16,14.952V1.048Z" transform="translate(0)" fill="#38598a"/>
  </g>
  <g id="Group_641" data-name="Group 641" transform="translate(4.336 2.452)">
    <g id="Group_640" data-name="Group 640">
      <g id="Group_639" data-name="Group 639">
        <path id="Path_398" data-name="Path 398" d="M79.573,51.384h2.158V50.359a.45.45,0,0,1,.328-.442c.368-.147,2.2-1.32,2.158-2.928a3.488,3.488,0,0,0-3.766-3.7A3.58,3.58,0,0,0,76.9,46.915h2.2a1.507,1.507,0,0,1,1.427-1.575,1.394,1.394,0,0,1,1.5,1.388,1.545,1.545,0,0,1-.844,1.172c-1.671.889-1.6,1.733-1.6,1.733Z" transform="translate(-76.9 -43.29)" fill="#fff"/>
        <g id="Group_638" data-name="Group 638" transform="translate(2.639 8.91)">
          <rect id="Rectangle_717" data-name="Rectangle 717" width="2.175" height="2.175" transform="translate(0 0)" fill="#fff"/>
        </g>
      </g>
    </g>
  </g>
</svg>
