<svg id="marine-accessible-camping" xmlns="http://www.w3.org/2000/svg" width="48" height="48" viewBox="0 0 48 48">
  <g id="Background" transform="translate(0 0)">
    <path id="Path_405" data-name="Path 405" d="M47.983,3.143A3.143,3.143,0,0,0,44.847,0H3.136A3.143,3.143,0,0,0,0,3.143V44.857A3.143,3.143,0,0,0,3.136,48H44.864A3.143,3.143,0,0,0,48,44.857V3.143Z" transform="translate(0 0)" fill="#fff"/>
    <path id="Path_406" data-name="Path 406" d="M47.983,3.143A3.143,3.143,0,0,0,44.847,0H3.136A3.143,3.143,0,0,0,0,3.143V44.857A3.143,3.143,0,0,0,3.136,48H44.864A3.143,3.143,0,0,0,48,44.857V3.143Z" transform="translate(0 0)" fill="#38598a"/>
  </g>
  <g id="Marine-Accesible_Camping" transform="translate(2.905 2.481)">
    <path id="Path_407" data-name="Path 407" d="M59.272,15.433A3.021,3.021,0,0,0,57.2,14.6H20.116A3.012,3.012,0,0,0,17.1,17.607V54.8a3.024,3.024,0,0,0,.813,2.073l.017.017L59.272,15.433Zm-25.7,39.385h-1.83v1.427h26.5V54.818H56.205L44.972,36.926Zm6.913,0,4.49-6.745,4.287,6.745Z" transform="translate(-17.1 -14.6)" fill="#fff" fill-rule="evenodd"/>
    <g id="Anchor" transform="translate(3.33 3.177)">
      <g id="Group_643" data-name="Group 643" transform="translate(7.629 4.944)">
        <path id="Path_408" data-name="Path 408" d="M82.365,74.77A.761.761,0,0,0,83.129,74V63.165a.761.761,0,0,0-.765-.765h0a.761.761,0,0,0-.765.765V74a.784.784,0,0,0,.765.765Z" transform="translate(-81.6 -62.4)" fill="#38598a"/>
      </g>
      <path id="Path_409" data-name="Path 409" d="M69.4,36.155a2.855,2.855,0,1,1,2.855,2.855A2.85,2.85,0,0,1,69.4,36.155Zm2.838,1.223A1.24,1.24,0,1,0,71,36.138,1.247,1.247,0,0,0,72.238,37.378Z" transform="translate(-63.844 -33.3)" fill="#38598a"/>
      <path id="Path_410" data-name="Path 410" d="M52.553,98.764a8.535,8.535,0,0,1-14.952,0l-.017-.017-.884.374.595-3.721,2.753,2.294-.884.374.017.017a6.873,6.873,0,0,0,11.86.034l.017-.051-.884-.374L52.927,95.4l.595,3.721L52.6,98.73Z" transform="translate(-36.7 -84.848)" fill="#38598a"/>
    </g>
  </g>
</svg>
