<svg id="marine-accessible-camping" xmlns="http://www.w3.org/2000/svg" width="64" height="64" viewBox="0 0 64 64">
  <g id="Background">
    <path id="Path_405" data-name="Path 405" d="M63.977,4.191A4.191,4.191,0,0,0,59.8,0H4.181A4.191,4.191,0,0,0,0,4.191V59.809A4.191,4.191,0,0,0,4.181,64H59.819A4.191,4.191,0,0,0,64,59.809V4.191Z" fill="#fff"/>
    <path id="Path_406" data-name="Path 406" d="M63.977,4.191A4.191,4.191,0,0,0,59.8,0H4.181A4.191,4.191,0,0,0,0,4.191V59.809A4.191,4.191,0,0,0,4.181,64H59.819A4.191,4.191,0,0,0,64,59.809V4.191Z" fill="#38598a"/>
  </g>
  <g id="Marine-Accesible_Camping" transform="translate(3.874 3.308)">
    <path id="Path_407" data-name="Path 407" d="M73.329,15.71a4.028,4.028,0,0,0-2.756-1.11H21.121A4.016,4.016,0,0,0,17.1,18.61V68.2a4.032,4.032,0,0,0,1.084,2.764l.023.023L73.329,15.71ZM39.059,68.224h-2.44v1.9H71.951v-1.9H69.24L54.262,44.368Zm9.217,0,5.987-8.994,5.716,8.994Z" transform="translate(-17.1 -14.6)" fill="#fff" fill-rule="evenodd"/>
    <g id="Anchor" transform="translate(4.44 4.236)">
      <g id="Group_643" data-name="Group 643" transform="translate(10.172 6.593)">
        <path id="Path_408" data-name="Path 408" d="M82.619,78.893a1.015,1.015,0,0,0,1.019-1.019V63.419A1.015,1.015,0,0,0,82.619,62.4h0A1.015,1.015,0,0,0,81.6,63.419V77.873a1.045,1.045,0,0,0,1.019,1.019Z" transform="translate(-81.6 -62.4)" fill="#38598a"/>
      </g>
      <path id="Path_409" data-name="Path 409" d="M69.4,37.106a3.806,3.806,0,1,1,3.806,3.806A3.8,3.8,0,0,1,69.4,37.106Zm3.783,1.631a1.654,1.654,0,1,0-1.654-1.654A1.663,1.663,0,0,0,73.183,38.737Z" transform="translate(-61.992 -33.3)" fill="#38598a"/>
      <path id="Path_410" data-name="Path 410" d="M57.837,99.886a11.38,11.38,0,0,1-19.936,0l-.023-.023-1.178.5.793-4.961,3.67,3.058-1.178.5.023.023a9.164,9.164,0,0,0,15.813.045l.023-.068-1.178-.5,3.67-3.058.793,4.961L57.9,99.84Z" transform="translate(-36.7 -81.331)" fill="#38598a"/>
    </g>
  </g>
</svg>
