<svg id="marine-accessible-camping" xmlns="http://www.w3.org/2000/svg" width="32" height="32" viewBox="0 0 32 32">
  <g id="Background" transform="translate(0 0)">
    <path id="Path_405" data-name="Path 405" d="M31.989,2.1A2.1,2.1,0,0,0,29.9,0H2.09A2.1,2.1,0,0,0,0,2.1V29.9A2.1,2.1,0,0,0,2.09,32H29.91A2.1,2.1,0,0,0,32,29.9V2.1Z" transform="translate(0 0)" fill="#fff"/>
    <path id="Path_406" data-name="Path 406" d="M31.989,2.1A2.1,2.1,0,0,0,29.9,0H2.09A2.1,2.1,0,0,0,0,2.1V29.9A2.1,2.1,0,0,0,2.09,32H29.91A2.1,2.1,0,0,0,32,29.9V2.1Z" transform="translate(0 0)" fill="#38598a"/>
  </g>
  <g id="Marine-Accesible_Camping" transform="translate(1.937 1.654)">
    <path id="Path_407" data-name="Path 407" d="M45.215,15.155a2.014,2.014,0,0,0-1.378-.555H19.111a2.008,2.008,0,0,0-2.011,2V41.4a2.016,2.016,0,0,0,.542,1.382l.011.011L45.215,15.155ZM28.079,41.412h-1.22v.951H44.526v-.951H43.17L35.681,29.484Zm4.609,0,2.993-4.5,2.858,4.5Z" transform="translate(-17.1 -14.6)" fill="#fff" fill-rule="evenodd"/>
    <g id="Anchor" transform="translate(2.22 2.118)">
      <g id="Group_643" data-name="Group 643" transform="translate(5.086 3.296)">
        <path id="Path_408" data-name="Path 408" d="M82.11,70.646a.508.508,0,0,0,.51-.51V62.91a.508.508,0,0,0-.51-.51h0a.508.508,0,0,0-.51.51v7.227a.523.523,0,0,0,.51.51Z" transform="translate(-81.6 -62.4)" fill="#38598a"/>
      </g>
      <path id="Path_409" data-name="Path 409" d="M69.4,35.2a1.9,1.9,0,1,1,1.9,1.9A1.9,1.9,0,0,1,69.4,35.2Zm1.892.816a.827.827,0,1,0-.827-.827A.832.832,0,0,0,71.292,36.019Z" transform="translate(-65.696 -33.3)" fill="#38598a"/>
      <path id="Path_410" data-name="Path 410" d="M47.269,97.643a5.69,5.69,0,0,1-9.968,0l-.011-.011-.589.249.4-2.481,1.835,1.529-.589.249.011.011a4.582,4.582,0,0,0,7.907.023l.011-.034-.589-.249L47.518,95.4l.4,2.481L47.3,97.62Z" transform="translate(-36.7 -88.366)" fill="#38598a"/>
    </g>
  </g>
</svg>
