<svg id="marine-accessible-camping" xmlns="http://www.w3.org/2000/svg" width="16" height="16" viewBox="0 0 16 16">
  <g id="Background" transform="translate(0 0)">
    <path id="Path_405" data-name="Path 405" d="M15.994,1.048A1.048,1.048,0,0,0,14.949,0H1.045A1.048,1.048,0,0,0,0,1.048v13.9A1.048,1.048,0,0,0,1.045,16h13.91A1.048,1.048,0,0,0,16,14.952V1.048Z" transform="translate(0 0)" fill="#fff"/>
    <path id="Path_406" data-name="Path 406" d="M15.994,1.048A1.048,1.048,0,0,0,14.949,0H1.045A1.048,1.048,0,0,0,0,1.048v13.9A1.048,1.048,0,0,0,1.045,16h13.91A1.048,1.048,0,0,0,16,14.952V1.048Z" transform="translate(0 0)" fill="#38598a"/>
  </g>
  <g id="Marine-Accesible_Camping" transform="translate(0.968 0.827)">
    <path id="Path_407" data-name="Path 407" d="M31.157,14.878a1.007,1.007,0,0,0-.689-.278H18.105a1,1,0,0,0-1.005,1V28a1.008,1.008,0,0,0,.271.691l.006.006L31.157,14.878ZM22.59,28.006h-.61v.476h8.833v-.476h-.678l-3.744-5.964Zm2.3,0,1.5-2.248,1.429,2.248Z" transform="translate(-17.1 -14.6)" fill="#fff" fill-rule="evenodd"/>
    <g id="Anchor" transform="translate(1.11 1.059)">
      <g id="Group_643" data-name="Group 643" transform="translate(2.543 1.648)">
        <path id="Path_408" data-name="Path 408" d="M81.855,66.523a.254.254,0,0,0,.255-.255V62.655a.254.254,0,0,0-.255-.255h0a.254.254,0,0,0-.255.255v3.613a.261.261,0,0,0,.255.255Z" transform="translate(-81.6 -62.4)" fill="#38598a"/>
      </g>
      <path id="Path_409" data-name="Path 409" d="M69.4,34.252a.952.952,0,1,1,.952.952A.95.95,0,0,1,69.4,34.252Zm.946.408a.413.413,0,1,0-.413-.413A.416.416,0,0,0,70.346,34.659Z" transform="translate(-67.548 -33.3)" fill="#38598a"/>
      <path id="Path_410" data-name="Path 410" d="M41.984,96.521a2.845,2.845,0,0,1-4.984,0l-.006-.006-.295.125.2-1.24.918.765-.295.125.006.006a2.291,2.291,0,0,0,3.953.011l.006-.017-.295-.125.918-.765.2,1.24L42,96.51Z" transform="translate(-36.7 -91.883)" fill="#38598a"/>
    </g>
  </g>
</svg>
