<svg id="picnic-areas" xmlns="http://www.w3.org/2000/svg" width="32" height="32" viewBox="0 0 32 32">
  <g id="Background" transform="translate(0 0)">
    <path id="Path_418" data-name="Path 418" d="M32,2.091A2.09,2.09,0,0,0,29.911,0H2.09A2.091,2.091,0,0,0,0,2.091V29.907A2.092,2.092,0,0,0,2.09,32H29.911A2.091,2.091,0,0,0,32,29.907V2.091Z" transform="translate(0 0)" fill="#38598a"/>
  </g>
  <g id="Picnic_Area" transform="translate(3.543 7.101)">
    <rect id="Rectangle_722" data-name="Rectangle 722" width="15.499" height="1.965" transform="translate(4.979)" fill="#fff"/>
    <rect id="Rectangle_723" data-name="Rectangle 723" width="4.802" height="1.855" transform="translate(0 5.84)" fill="#fff"/>
    <rect id="Rectangle_724" data-name="Rectangle 724" width="4.802" height="1.855" transform="translate(20.114 5.84)" fill="#fff"/>
    <rect id="Rectangle_725" data-name="Rectangle 725" width="24.916" height="1.855" transform="translate(0 8.733)" fill="#fff"/>
    <path id="Path_419" data-name="Path 419" d="M70.6,85.8H67.985L63.074,100.86h2.781C65.855,101.023,70.6,85.8,70.6,85.8Z" transform="translate(-59.471 -83.177)" fill="#fff"/>
    <path id="Path_420" data-name="Path 420" d="M158.441,85.8h2.62l4.228,15.058h-2.783Z" transform="translate(-144.112 -83.177)" fill="#fff"/>
  </g>
</svg>
