<svg id="picnic-shelter" xmlns="http://www.w3.org/2000/svg" width="16" height="16" viewBox="0 0 16 16">
  <g id="Background">
    <path id="Path_425" data-name="Path 425" d="M16,1.045A1.045,1.045,0,0,0,14.955,0H1.045A1.045,1.045,0,0,0,0,1.045V14.954A1.046,1.046,0,0,0,1.045,16h13.91A1.046,1.046,0,0,0,16,14.954V1.045Z" fill="#38598a"/>
  </g>
  <g id="Picnic_Shelter" transform="translate(1.153 2.066)">
    <path id="Path_426" data-name="Path 426" d="M27.2,36.469l6.845,3.58v1.8l-1.261-.619v7.1H31.067V40.426L27.2,38.593h0l-3.87,1.832v7.912H21.612v-7.1l-1.261.619v-1.8l6.847-3.58Z" transform="translate(-20.351 -36.469)" fill="#fff"/>
    <rect id="Rectangle_730" data-name="Rectangle 730" width="3.939" height="0.499" transform="translate(4.889 5.844)" fill="#fff"/>
    <rect id="Rectangle_731" data-name="Rectangle 731" width="1.221" height="0.472" transform="translate(3.621 7.327)" fill="#fff"/>
    <rect id="Rectangle_732" data-name="Rectangle 732" width="1.221" height="0.472" transform="translate(8.737 7.327)" fill="#fff"/>
    <rect id="Rectangle_733" data-name="Rectangle 733" width="6.353" height="0.472" transform="translate(3.613 8.063)" fill="#fff"/>
    <path id="Path_427" data-name="Path 427" d="M102.636,151.375h-.667l-1.243,3.817h.707Z" transform="translate(-96.189 -144.866)" fill="#fff"/>
    <path id="Path_428" data-name="Path 428" d="M149.117,151.375h.666l1.076,3.827h-.708Z" transform="translate(-141.847 -144.866)" fill="#fff"/>
  </g>
</svg>
