<svg id="picnic-areas" xmlns="http://www.w3.org/2000/svg" width="16" height="16" viewBox="0 0 16 16">
  <g id="Background" transform="translate(0 0)">
    <path id="Path_418" data-name="Path 418" d="M16,1.045A1.045,1.045,0,0,0,14.955,0H1.045A1.045,1.045,0,0,0,0,1.045V14.954A1.046,1.046,0,0,0,1.045,16h13.91A1.046,1.046,0,0,0,16,14.954V1.045Z" transform="translate(0 0)" fill="#38598a"/>
  </g>
  <g id="Picnic_Area" transform="translate(1.771 3.55)">
    <rect id="Rectangle_722" data-name="Rectangle 722" width="7.749" height="0.983" transform="translate(2.49)" fill="#fff"/>
    <rect id="Rectangle_723" data-name="Rectangle 723" width="2.401" height="0.928" transform="translate(0 2.92)" fill="#fff"/>
    <rect id="Rectangle_724" data-name="Rectangle 724" width="2.401" height="0.928" transform="translate(10.057 2.92)" fill="#fff"/>
    <rect id="Rectangle_725" data-name="Rectangle 725" width="12.458" height="0.928" transform="translate(0 4.366)" fill="#fff"/>
    <path id="Path_419" data-name="Path 419" d="M66.839,85.8h-1.31l-2.455,7.532h1.391C64.465,93.41,66.839,85.8,66.839,85.8Z" transform="translate(-61.272 -84.487)" fill="#fff"/>
    <path id="Path_420" data-name="Path 420" d="M158.441,85.8h1.31l2.114,7.529h-1.391Z" transform="translate(-151.277 -84.487)" fill="#fff"/>
  </g>
</svg>
