<svg id="playground" xmlns="http://www.w3.org/2000/svg" width="32" height="32" viewBox="0 0 32 32">
  <g id="Background">
    <path id="Path_438" data-name="Path 438" d="M32,2.092A2.091,2.091,0,0,0,29.911,0H2.09A2.091,2.091,0,0,0,0,2.092V29.907A2.092,2.092,0,0,0,2.09,32H29.911A2.091,2.091,0,0,0,32,29.907V2.092Z" fill="#38598a"/>
  </g>
  <g id="Playground-2" data-name="Playground" transform="translate(1.776 5.131)">
    <path id="Path_439" data-name="Path 439" d="M26.693,128.281a1.441,1.441,0,0,0,1.441-1.441h0a1.442,1.442,0,0,0-1.441-1.442h0a1.443,1.443,0,0,0-1.443,1.442h0a1.442,1.442,0,0,0,1.443,1.441Z" transform="translate(-24.165 -116.322)" fill="#fff"/>
    <path id="Path_440" data-name="Path 440" d="M186.534,48.171a1.441,1.441,0,0,0,1.441-1.442h0a1.44,1.44,0,0,0-1.441-1.44h0a1.441,1.441,0,0,0-1.441,1.44h0a1.442,1.442,0,0,0,1.441,1.442Z" transform="translate(-165.957 -45.289)" fill="#fff"/>
    <path id="Path_441" data-name="Path 441" d="M23.016,159.75h-2.37a10.137,10.137,0,0,0,0,5.893c.065.193,1.345-.512,1.345-.512l4.548,2.948.96-1.091-4.036-2.818-1.089-2.818s.127-.384.32-.127,1.409,2.5,1.409,2.5l.9-.448Z" transform="translate(-19.688 -146.782)" fill="#fff"/>
    <path id="Path_442" data-name="Path 442" d="M215.61,68.936l-.63.384-.768-5.445,1.089-1.345,3.267.96s1.537.32.64,2.178-1.409,2.817-1.409,2.817a6.983,6.983,0,0,0-.257,2.563l.128,1.409-.9.064a9.864,9.864,0,0,1-.512-3.651c0-2.5,0-4.035,0-4.035h-.657Z" transform="translate(-191.797 -60.577)" fill="#fff"/>
    <path id="Path_443" data-name="Path 443" d="M129.164,172.915v2.124H128.2v4.689h2.592v-4.659h-1.106v-2.241Z" transform="translate(-115.492 -158.378)" fill="#fff"/>
    <path id="Path_444" data-name="Path 444" d="M63.344,134.873l.874.641,17.635-8,.058-1.106Z" transform="translate(-57.986 -117.215)" fill="#fff"/>
    <path id="Path_445" data-name="Path 445" d="M18.062,213.422l-2.39,1.045.349.874,2.944-1.336Z" transform="translate(-15.672 -194.373)" fill="#fff"/>
    <path id="Path_446" data-name="Path 446" d="M252.475,110.413l1.106-.554.378.816-1.717.844A1.752,1.752,0,0,1,252.475,110.413Z" transform="translate(-225.509 -102.543)" fill="#fff"/>
  </g>
</svg>
