<svg id="playground" xmlns="http://www.w3.org/2000/svg" width="64" height="64" viewBox="0 0 64 64">
  <g id="Background">
    <path id="Path_438" data-name="Path 438" d="M64,4.183A4.181,4.181,0,0,0,59.822,0H4.18A4.182,4.182,0,0,0,0,4.183V59.814A4.184,4.184,0,0,0,4.18,64H59.822A4.183,4.183,0,0,0,64,59.814V4.183Z" fill="#38598a"/>
  </g>
  <g id="Playground-2" data-name="Playground" transform="translate(3.551 10.262)">
    <path id="Path_439" data-name="Path 439" d="M28.136,131.164a2.882,2.882,0,0,0,2.882-2.882h0a2.885,2.885,0,0,0-2.882-2.884h0a2.887,2.887,0,0,0-2.886,2.884h0a2.884,2.884,0,0,0,2.886,2.882Z" transform="translate(-23.08 -107.245)" fill="#fff"/>
    <path id="Path_440" data-name="Path 440" d="M187.975,51.053a2.882,2.882,0,0,0,2.882-2.884h0a2.881,2.881,0,0,0-2.882-2.88h0a2.882,2.882,0,0,0-2.882,2.88h0a2.883,2.883,0,0,0,2.882,2.884Z" transform="translate(-146.822 -45.289)" fill="#fff"/>
    <path id="Path_441" data-name="Path 441" d="M25.831,159.75H21.091a20.274,20.274,0,0,0,0,11.787c.129.386,2.691-1.023,2.691-1.023l9.1,5.9,1.921-2.181-8.071-5.637-2.177-5.637s.255-.768.641-.255,2.818,4.994,2.818,4.994l1.8-.9Z" transform="translate(-19.175 -133.813)" fill="#fff"/>
    <path id="Path_442" data-name="Path 442" d="M217.009,75.341l-1.26.768L214.212,65.22l2.177-2.689,6.534,1.921s3.075.639,1.28,4.357-2.818,5.635-2.818,5.635a13.964,13.964,0,0,0-.513,5.125l.257,2.818-1.793.127s-1.023-2.3-1.023-7.3,0-8.071,0-8.071H217Z" transform="translate(-169.383 -58.624)" fill="#fff"/>
    <path id="Path_443" data-name="Path 443" d="M130.126,173v4.249H128.2v9.379h5.183V177.31h-2.213v-4.482Z" transform="translate(-102.782 -143.928)" fill="#fff"/>
    <path id="Path_444" data-name="Path 444" d="M63.344,143.341l1.747,1.282,35.27-16,.117-2.213Z" transform="translate(-52.628 -108.025)" fill="#fff"/>
    <path id="Path_445" data-name="Path 445" d="M20.452,213.422l-4.78,2.089.7,1.749,5.888-2.671Z" transform="translate(-15.672 -175.323)" fill="#fff"/>
    <path id="Path_446" data-name="Path 446" d="M252.719,110.967l2.213-1.108.756,1.632-3.434,1.689A3.5,3.5,0,0,1,252.719,110.967Z" transform="translate(-198.787 -95.227)" fill="#fff"/>
  </g>
</svg>
