<svg id="playground" xmlns="http://www.w3.org/2000/svg" width="48" height="48" viewBox="0 0 48 48">
  <g id="Background">
    <path id="Path_438" data-name="Path 438" d="M48,3.137A3.136,3.136,0,0,0,44.866,0H3.135A3.137,3.137,0,0,0,0,3.137V44.861A3.138,3.138,0,0,0,3.135,48H44.866A3.137,3.137,0,0,0,48,44.861V3.137Z" fill="#38598a"/>
  </g>
  <g id="Playground-2" data-name="Playground" transform="translate(2.663 7.697)">
    <path id="Path_439" data-name="Path 439" d="M27.414,129.723a2.162,2.162,0,0,0,2.162-2.162h0a2.164,2.164,0,0,0-2.162-2.163h0a2.165,2.165,0,0,0-2.164,2.163h0a2.163,2.163,0,0,0,2.164,2.162Z" transform="translate(-23.622 -111.784)" fill="#fff"/>
    <path id="Path_440" data-name="Path 440" d="M187.255,49.612a2.161,2.161,0,0,0,2.162-2.163h0a2.161,2.161,0,0,0-2.162-2.16h0a2.162,2.162,0,0,0-2.162,2.16h0a2.162,2.162,0,0,0,2.162,2.163Z" transform="translate(-156.39 -45.289)" fill="#fff"/>
    <path id="Path_441" data-name="Path 441" d="M24.424,159.75H20.868a15.206,15.206,0,0,0,0,8.84c.1.289,2.018-.767,2.018-.767l6.822,4.421,1.441-1.636L25.1,166.381l-1.633-4.227s.191-.576.481-.191,2.114,3.746,2.114,3.746l1.346-.672Z" transform="translate(-19.432 -140.297)" fill="#fff"/>
    <path id="Path_442" data-name="Path 442" d="M216.31,72.138l-.945.576-1.152-8.167,1.633-2.017,4.9,1.441s2.306.479.96,3.268-2.114,4.226-2.114,4.226a10.473,10.473,0,0,0-.385,3.844l.193,2.114-1.345.1a14.8,14.8,0,0,1-.767-5.477c0-3.747,0-6.053,0-6.053H216.3Z" transform="translate(-180.59 -59.601)" fill="#fff"/>
    <path id="Path_443" data-name="Path 443" d="M129.645,172.958v3.187H128.2v7.034h3.888V176.19h-1.66v-3.362Z" transform="translate(-109.137 -151.153)" fill="#fff"/>
    <path id="Path_444" data-name="Path 444" d="M63.344,139.107l1.31.961,26.452-12,.088-1.66Z" transform="translate(-55.307 -112.62)" fill="#fff"/>
    <path id="Path_445" data-name="Path 445" d="M19.257,213.422l-3.585,1.567L16.2,216.3l4.416-2Z" transform="translate(-15.672 -184.848)" fill="#fff"/>
    <path id="Path_446" data-name="Path 446" d="M252.6,110.69l1.66-.831.567,1.224-2.576,1.267A2.628,2.628,0,0,1,252.6,110.69Z" transform="translate(-212.148 -98.885)" fill="#fff"/>
  </g>
</svg>
