<svg xmlns="http://www.w3.org/2000/svg" width="64" height="64" viewBox="0 0 64 64">
  <g id="recycling" transform="translate(0 1)">
    <g id="Background" transform="translate(0 -1)">
      <path id="Path_454" data-name="Path 454" d="M64,4.181A4.179,4.179,0,0,0,59.822,0H4.182A4.182,4.182,0,0,0,0,4.181V59.815A4.185,4.185,0,0,0,4.182,64h55.64A4.182,4.182,0,0,0,64,59.815Z" fill="#38598a"/>
    </g>
    <g id="Recycling-2" data-name="Recycling" transform="translate(8.348 8.772)">
      <path id="Path_455" data-name="Path 455" d="M36.842,119.461l3.67,2.121.977.559-2.863,4.946a2.83,2.83,0,0,0-.391,1.445,2.709,2.709,0,0,0,.381,1.4s2.5,4.351,4.541,7.874a7.276,7.276,0,0,1,.6-1.448l5.591-9.662.968.556,3.673,2.124-5.718-9.9Z" transform="translate(-36.842 -101.163)" fill="#fff"/>
      <path id="Path_456" data-name="Path 456" d="M75.572,180.586c-.508.864-2.321,4-2.321,4a3.381,3.381,0,0,0-.464,1.724A3.3,3.3,0,0,0,73.24,188a3.363,3.363,0,0,0,2.949,1.682H87.479v-9.092Z" transform="translate(-64.642 -148.437)" fill="#fff"/>
      <path id="Path_457" data-name="Path 457" d="M152.715,42.4l-3.675,2.117-.972.566-2.847-4.953a2.823,2.823,0,0,0-1.044-1.052,2.678,2.678,0,0,0-1.409-.372h-9.089a6.388,6.388,0,0,1,.938,1.229l5.576,9.666-.956.574L135.552,52.3H146.99Z" transform="translate(-111.736 -38.711)" fill="#fff"/>
      <path id="Path_458" data-name="Path 458" d="M93.41,46.619l-2.292-4a3.455,3.455,0,0,0-2.951-1.731,3.374,3.374,0,0,0-2.923,1.731l-5.66,9.776c1.416.811,6.465,3.728,7.881,4.543.845-1.484,5.442-9.422,5.945-10.314" transform="translate(-69.899 -40.391)" fill="#fff"/>
      <path id="Path_459" data-name="Path 459" d="M162.549,176.174v-5.35l5.7.011a2.818,2.818,0,0,0,1.452-.386,2.668,2.668,0,0,0,1.029-1.023s2.525-4.348,4.543-7.874a6.829,6.829,0,0,1-1.526.2l-11.183-.011v-1.119l.011-4.242-5.73,9.9Z" transform="translate(-129.65 -129.718)" fill="#fff"/>
      <path id="Path_460" data-name="Path 460" d="M190.572,120.747h4.614a3.36,3.36,0,0,0,2.948-5.074s-4.753-8.243-5.649-9.79c-1.4.811-6.465,3.728-7.869,4.539.846,1.473,5.431,9.421,5.957,10.324" transform="translate(-151.13 -90.663)" fill="#fff"/>
    </g>
  </g>
</svg>
