<svg xmlns="http://www.w3.org/2000/svg" width="32" height="32" viewBox="0 0 32 32">
  <g id="recycling" transform="translate(0 1)">
    <g id="Background" transform="translate(0 -1)">
      <path id="Path_454" data-name="Path 454" d="M32,2.091A2.089,2.089,0,0,0,29.911,0H2.091A2.091,2.091,0,0,0,0,2.091V29.907A2.092,2.092,0,0,0,2.091,32h27.82A2.091,2.091,0,0,0,32,29.907Z" fill="#38598a"/>
    </g>
    <g id="Recycling-2" data-name="Recycling" transform="translate(4.174 4.053)">
      <path id="Path_455" data-name="Path 455" d="M36.842,119.461l1.835,1.06.489.28-1.431,2.473a1.415,1.415,0,0,0-.2.722,1.354,1.354,0,0,0,.19.7s1.252,2.176,2.27,3.937a3.638,3.638,0,0,1,.3-.724l2.8-4.831.484.278,1.837,1.062-2.859-4.948Z" transform="translate(-36.842 -110.312)" fill="#fff"/>
      <path id="Path_456" data-name="Path 456" d="M74.179,180.586c-.254.432-1.16,2-1.16,2a1.69,1.69,0,0,0-.232.862,1.651,1.651,0,0,0,.227.844,1.681,1.681,0,0,0,1.475.841h5.645v-4.546Z" transform="translate(-68.734 -164.512)" fill="#fff"/>
      <path id="Path_457" data-name="Path 457" d="M143.2,40.557l-1.838,1.059-.486.283-1.423-2.477a1.411,1.411,0,0,0-.522-.526,1.339,1.339,0,0,0-.7-.186h-4.544a3.193,3.193,0,0,1,.469.614l2.788,4.833-.478.287L134.615,45.5h5.719Z" transform="translate(-122.787 -38.711)" fill="#fff"/>
      <path id="Path_458" data-name="Path 458" d="M86.5,43.751l-1.146-2a1.727,1.727,0,0,0-1.476-.866,1.687,1.687,0,0,0-1.461.866l-2.83,4.888c.708.405,3.233,1.864,3.941,2.271.422-.742,2.721-4.711,2.972-5.157" transform="translate(-74.764 -40.637)" fill="#fff"/>
      <path id="Path_459" data-name="Path 459" d="M159.7,166.278V163.6l2.849.005a1.409,1.409,0,0,0,.726-.193,1.334,1.334,0,0,0,.514-.512s1.262-2.174,2.271-3.937a3.415,3.415,0,0,1-.763.1l-5.592-.005V158.5l.005-2.121-2.865,4.948Z" transform="translate(-143.326 -143.05)" fill="#fff"/>
      <path id="Path_460" data-name="Path 460" d="M187.594,113.316H189.9a1.68,1.68,0,0,0,1.474-2.537s-2.377-4.121-2.825-4.895c-.7.405-3.233,1.864-3.935,2.27.423.736,2.716,4.711,2.979,5.162" transform="translate(-167.952 -98.273)" fill="#fff"/>
    </g>
  </g>
</svg>
