<svg xmlns="http://www.w3.org/2000/svg" width="16" height="16" viewBox="0 0 16 16">
  <g id="recycling" transform="translate(0 1)">
    <g id="Background" transform="translate(0 -1)">
      <path id="Path_454" data-name="Path 454" d="M16,1.045A1.045,1.045,0,0,0,14.955,0H1.045A1.045,1.045,0,0,0,0,1.045V14.954A1.046,1.046,0,0,0,1.045,16h13.91A1.045,1.045,0,0,0,16,14.954Z" fill="#38598a"/>
    </g>
    <g id="Recycling-2" data-name="Recycling" transform="translate(2.087 1.526)">
      <path id="Path_455" data-name="Path 455" d="M36.842,119.461l.917.53.244.14-.716,1.237a.707.707,0,0,0-.1.361.677.677,0,0,0,.1.35s.626,1.088,1.135,1.969a1.819,1.819,0,0,1,.15-.362l1.4-2.416.242.139.918.531L39.7,119.465Z" transform="translate(-36.842 -114.887)" fill="#fff"/>
      <path id="Path_456" data-name="Path 456" d="M73.483,180.586c-.127.216-.58,1-.58,1a.845.845,0,0,0-.116.431.825.825,0,0,0,.113.422.841.841,0,0,0,.737.42H76.46v-2.273Z" transform="translate(-70.761 -172.549)" fill="#fff"/>
      <path id="Path_457" data-name="Path 457" d="M138.438,39.634l-.919.529-.243.142-.712-1.238a.706.706,0,0,0-.261-.263.669.669,0,0,0-.352-.093h-2.272a1.6,1.6,0,0,1,.235.307l1.394,2.416-.239.143-.921.529h2.859Z" transform="translate(-128.233 -38.711)" fill="#fff"/>
      <path id="Path_458" data-name="Path 458" d="M83.04,42.317l-.573-1a.864.864,0,0,0-.738-.433.843.843,0,0,0-.731.433L79.584,43.76c.354.2,1.616.932,1.97,1.136.211-.371,1.361-2.355,1.486-2.579" transform="translate(-77.174 -40.76)" fill="#fff"/>
      <path id="Path_459" data-name="Path 459" d="M158.269,161.33v-1.337l1.425,0a.7.7,0,0,0,.363-.1.667.667,0,0,0,.257-.256s.631-1.087,1.136-1.969a1.707,1.707,0,0,1-.381.05l-2.8,0v-.28l0-1.06-1.433,2.474Z" transform="translate(-150.084 -149.716)" fill="#fff"/>
      <path id="Path_460" data-name="Path 460" d="M186.1,109.6h1.153a.84.84,0,0,0,.737-1.268s-1.188-2.061-1.412-2.447c-.35.2-1.616.932-1.967,1.135.212.368,1.358,2.355,1.489,2.581" transform="translate(-176.284 -102.079)" fill="#fff"/>
    </g>
  </g>
</svg>
