<svg xmlns="http://www.w3.org/2000/svg" width="48" height="48" viewBox="0 0 48 48">
  <g id="recycling" transform="translate(0 1)">
    <g id="Background" transform="translate(0 -1)">
      <path id="Path_454" data-name="Path 454" d="M48,3.136A3.134,3.134,0,0,0,44.866,0H3.136A3.136,3.136,0,0,0,0,3.136V44.861A3.139,3.139,0,0,0,3.136,48h41.73A3.136,3.136,0,0,0,48,44.861Z" fill="#38598a"/>
    </g>
    <g id="Recycling-2" data-name="Recycling" transform="translate(6.261 6.579)">
      <path id="Path_455" data-name="Path 455" d="M36.842,119.461l2.752,1.591.733.42-2.147,3.71a2.122,2.122,0,0,0-.294,1.083,2.031,2.031,0,0,0,.286,1.049s1.877,3.264,3.406,5.906a5.457,5.457,0,0,1,.449-1.086l4.193-7.247.726.417L49.7,126.9l-4.288-7.422Z" transform="translate(-36.842 -105.738)" fill="#fff"/>
      <path id="Path_456" data-name="Path 456" d="M74.876,180.586c-.381.648-1.741,3-1.741,3a2.536,2.536,0,0,0-.348,1.293,2.476,2.476,0,0,0,.34,1.267,2.522,2.522,0,0,0,2.212,1.261h8.467v-6.819Z" transform="translate(-66.708 -156.475)" fill="#fff"/>
      <path id="Path_457" data-name="Path 457" d="M147.956,41.481,145.2,43.069l-.729.425-2.135-3.715a2.117,2.117,0,0,0-.783-.789,2.008,2.008,0,0,0-1.057-.279h-6.816a4.791,4.791,0,0,1,.7.921l4.182,7.249-.717.43L135.084,48.9h8.579Z" transform="translate(-117.341 -38.711)" fill="#fff"/>
      <path id="Path_458" data-name="Path 458" d="M89.953,45.185l-1.719-3a2.591,2.591,0,0,0-2.213-1.3,2.53,2.53,0,0,0-2.192,1.3l-4.245,7.332c1.062.608,4.849,2.8,5.911,3.407.633-1.113,4.081-7.066,4.458-7.736" transform="translate(-72.354 -40.514)" fill="#fff"/>
      <path id="Path_459" data-name="Path 459" d="M161.122,171.226v-4.012l4.274.008a2.114,2.114,0,0,0,1.089-.289,2,2,0,0,0,.771-.767s1.893-3.261,3.407-5.906a5.122,5.122,0,0,1-1.144.151l-8.387-.008v-.839l.008-3.181-4.3,7.422Z" transform="translate(-136.568 -136.384)" fill="#fff"/>
      <path id="Path_460" data-name="Path 460" d="M189.083,117.031h3.46a2.52,2.52,0,0,0,2.211-3.805s-3.565-6.182-4.237-7.342c-1.049.608-4.849,2.8-5.9,3.4.635,1.1,4.074,7.066,4.468,7.743" transform="translate(-159.621 -94.468)" fill="#fff"/>
    </g>
  </g>
</svg>
