<svg id="sani-station" xmlns="http://www.w3.org/2000/svg" width="48" height="48" viewBox="0 0 48 48">
  <g id="Background">
    <path id="Path_469" data-name="Path 469" d="M48,3.136A3.135,3.135,0,0,0,44.866,0H3.135A3.136,3.136,0,0,0,0,3.136V44.861A3.138,3.138,0,0,0,3.135,48H44.866A3.137,3.137,0,0,0,48,44.861V3.136Z" fill="#38598a"/>
  </g>
  <g id="Sani-station-2" data-name="Sani-station" transform="translate(2.114 2.861)">
    <path id="Path_470" data-name="Path 470" d="M72.589,39.327H45.36V21.671c0-2.177,1.929-4.836,5.786-4.836H77.652Zm-9.4-13.06v-5.08H51.628v5.08H63.193Z" transform="translate(-39.766 -16.835)" fill="#fff"/>
    <path id="Path_471" data-name="Path 471" d="M97.459,131.273a4.189,4.189,0,1,1-4.193,4.19A4.193,4.193,0,0,1,97.459,131.273Z" transform="translate(-79.576 -111.824)" fill="#fff"/>
    <path id="Path_472" data-name="Path 472" d="M205.319,151.63v-2.138h-4.381l.032,2.138Z" transform="translate(-169 -126.947)" fill="#fff"/>
    <rect id="Rectangle_737" data-name="Rectangle 737" width="1.28" height="6.572" transform="translate(7.586 22.601)" fill="#fff"/>
    <path id="Path_473" data-name="Path 473" d="M56.215,188.492v7.9c.033,2.547-2.721,5.229-5.883,5.2H18.088c-3.69-.053-5.58-2.5-5.646-5.048v-8.057m12.05,7.56v-6.166H14.61v6.166Z" transform="translate(-12.442 -159.319)" fill="#fff"/>
    <rect id="Rectangle_738" data-name="Rectangle 738" width="1.28" height="2.541" transform="translate(7.586 30.567)" fill="#fff"/>
    <path id="Path_474" data-name="Path 474" d="M51.079,211.164l1.681,1.681,1.676-1.681Z" transform="translate(-44.513 -178.138)" fill="#fff"/>
    <rect id="Rectangle_739" data-name="Rectangle 739" width="1.281" height="1.415" transform="translate(7.581 29.175)" fill="#4d5f85"/>
  </g>
</svg>
