<svg id="sani-station" xmlns="http://www.w3.org/2000/svg" width="32" height="32" viewBox="0 0 32 32">
  <g id="Background">
    <path id="Path_469" data-name="Path 469" d="M32,2.091A2.09,2.09,0,0,0,29.911,0H2.09A2.091,2.091,0,0,0,0,2.091V29.907A2.092,2.092,0,0,0,2.09,32H29.911A2.091,2.091,0,0,0,32,29.907V2.091Z" fill="#38598a"/>
  </g>
  <g id="Sani-station-2" data-name="Sani-station" transform="translate(1.41 1.907)">
    <path id="Path_470" data-name="Path 470" d="M63.513,31.829H45.36V20.059c0-1.452,1.286-3.224,3.857-3.224h17.67Zm-6.264-8.706V19.737h-7.71v3.387h7.71Z" transform="translate(-41.63 -16.835)" fill="#fff"/>
    <path id="Path_471" data-name="Path 471" d="M96.061,131.273a2.793,2.793,0,1,1-2.8,2.794A2.8,2.8,0,0,1,96.061,131.273Z" transform="translate(-84.139 -118.307)" fill="#fff"/>
    <path id="Path_472" data-name="Path 472" d="M203.859,150.917v-1.425h-2.921l.021,1.425Z" transform="translate(-179.646 -134.462)" fill="#fff"/>
    <rect id="Rectangle_737" data-name="Rectangle 737" width="0.853" height="4.382" transform="translate(5.057 15.067)" fill="#fff"/>
    <path id="Path_473" data-name="Path 473" d="M41.624,188.492v5.267a3.886,3.886,0,0,1-3.922,3.47h-21.5a3.493,3.493,0,0,1-3.764-3.365v-5.371m8.033,5.04v-4.111H13.887v4.111Z" transform="translate(-12.442 -169.043)" fill="#fff"/>
    <rect id="Rectangle_738" data-name="Rectangle 738" width="0.853" height="1.694" transform="translate(5.057 20.378)" fill="#fff"/>
    <path id="Path_474" data-name="Path 474" d="M51.079,211.164l1.121,1.121,1.117-1.121Z" transform="translate(-46.701 -189.147)" fill="#fff"/>
    <rect id="Rectangle_739" data-name="Rectangle 739" width="0.854" height="0.944" transform="translate(5.054 19.45)" fill="#4d5f85"/>
  </g>
</svg>
