<svg id="showers" xmlns="http://www.w3.org/2000/svg" width="16" height="16" viewBox="0 0 16 16">
  <g id="Group_684" data-name="Group 684">
    <path id="Path_517" data-name="Path 517" d="M15.994,1.048A1.048,1.048,0,0,0,14.949,0H1.045A1.048,1.048,0,0,0,0,1.048v13.9A1.048,1.048,0,0,0,1.045,16h13.91A1.048,1.048,0,0,0,16,14.952V1.048Z" fill="#fff"/>
    <path id="Path_518" data-name="Path 518" d="M15.994,1.048A1.048,1.048,0,0,0,14.949,0H1.045A1.048,1.048,0,0,0,0,1.048v13.9A1.048,1.048,0,0,0,1.045,16h13.91A1.048,1.048,0,0,0,16,14.952V1.048Z" fill="#38598a"/>
  </g>
  <g id="Group_723" data-name="Group 723" transform="translate(2.704 1.109)">
    <g id="Group_722" data-name="Group 722">
      <g id="Group_721" data-name="Group 721">
        <g id="Group_685" data-name="Group 685" transform="translate(3.418)">
          <path id="Path_519" data-name="Path 519" d="M109.338,19.9h.647l1.438,1.438H107.9Z" transform="translate(-107.9 -19.9)" fill="#fff"/>
        </g>
        <g id="Group_686" data-name="Group 686" transform="translate(3.362 2.476)">
          <path id="Path_520" data-name="Path 520" d="M107.084,63.968a.184.184,0,1,0-.184-.184A.186.186,0,0,0,107.084,63.968Z" transform="translate(-106.9 -63.6)" fill="#fff"/>
        </g>
        <g id="Group_687" data-name="Group 687" transform="translate(2.893 3.966)">
          <path id="Path_521" data-name="Path 521" d="M98.7,90.307A.206.206,0,0,0,98.9,90.1a.2.2,0,0,0-.407,0A.2.2,0,0,0,98.7,90.307Z" transform="translate(-98.496 -89.9)" fill="#fff"/>
        </g>
        <g id="Group_688" data-name="Group 688" transform="translate(2.403 5.451)">
          <path id="Path_522" data-name="Path 522" d="M89.934,116.568a.234.234,0,1,0-.234-.234A.229.229,0,0,0,89.934,116.568Z" transform="translate(-89.7 -116.1)" fill="#fff"/>
        </g>
        <g id="Group_689" data-name="Group 689" transform="translate(8.017 6.913)">
          <path id="Path_523" data-name="Path 523" d="M190.664,142.435a.268.268,0,1,0-.268-.268A.264.264,0,0,0,190.664,142.435Z" transform="translate(-190.397 -141.9)" fill="#fff"/>
        </g>
        <g id="Group_690" data-name="Group 690" transform="translate(2.487 8.382)">
          <path id="Path_524" data-name="Path 524" d="M91.512,168.419a.312.312,0,0,0,.312-.312.307.307,0,0,0-.312-.307.309.309,0,1,0,0,.619Z" transform="translate(-91.2 -167.8)" fill="#fff"/>
        </g>
        <g id="Group_691" data-name="Group 691" transform="translate(0.828 9.642)">
          <circle id="Ellipse_36" data-name="Ellipse 36" cx="0.357" cy="0.357" r="0.357" transform="translate(0 0.659) rotate(-67.5)" fill="#fff"/>
        </g>
        <g id="Group_692" data-name="Group 692" transform="translate(0.485 11.149)">
          <path id="Path_525" data-name="Path 525" d="M55.69,216.881a.39.39,0,1,0-.39-.39A.4.4,0,0,0,55.69,216.881Z" transform="translate(-55.3 -216.1)" fill="#fff"/>
        </g>
        <g id="Group_693" data-name="Group 693" transform="translate(9.294 11.155)">
          <path id="Path_526" data-name="Path 526" d="M213.69,216.981a.39.39,0,1,0-.39-.39A.391.391,0,0,0,213.69,216.981Z" transform="translate(-213.3 -216.2)" fill="#fff"/>
        </g>
        <g id="Group_694" data-name="Group 694" transform="translate(0 12.493)">
          <path id="Path_527" data-name="Path 527" d="M47.044,241.092a.446.446,0,1,0-.446-.446A.444.444,0,0,0,47.044,241.092Z" transform="translate(-46.598 -240.2)" fill="#fff"/>
        </g>
        <g id="Group_695" data-name="Group 695" transform="translate(1.394 12.493)">
          <path id="Path_528" data-name="Path 528" d="M72.046,241.1a.449.449,0,1,0-.446-.452A.449.449,0,0,0,72.046,241.1Z" transform="translate(-71.6 -240.2)" fill="#fff"/>
        </g>
        <g id="Group_696" data-name="Group 696" transform="translate(8.034 12.509)">
          <path id="Path_529" data-name="Path 529" d="M191.152,241.392a.446.446,0,1,0-.452-.446A.456.456,0,0,0,191.152,241.392Z" transform="translate(-190.7 -240.5)" fill="#fff"/>
        </g>
        <g id="Group_697" data-name="Group 697" transform="translate(9.701 12.487)">
          <path id="Path_530" data-name="Path 530" d="M221.044,240.992a.446.446,0,1,0-.446-.446A.44.44,0,0,0,221.044,240.992Z" transform="translate(-220.598 -240.1)" fill="#fff"/>
        </g>
        <g id="Group_698" data-name="Group 698" transform="translate(3.841 7.752)">
          <path id="Path_531" data-name="Path 531" d="M116.782,158.865a1.282,1.282,0,1,0-1.282-1.282A1.282,1.282,0,0,0,116.782,158.865Z" transform="translate(-115.5 -156.3)" fill="#fff"/>
        </g>
        <path id="Path_532" data-name="Path 532" d="M62.375,139.166l3.914.006-3,3.947H59.666L56.7,136.44l.591-.24a11.518,11.518,0,0,0,1.4,2.7,4.91,4.91,0,0,0,3.93,1.79c1.661-.2,1.94-.7,1.94-.7l-2.336-.63Z" transform="translate(-56.137 -129.505)" fill="#fff"/>
        <g id="Group_699" data-name="Group 699" transform="translate(3.864 2.476)">
          <path id="Path_533" data-name="Path 533" d="M116.084,63.968a.184.184,0,1,0-.184-.184A.186.186,0,0,0,116.084,63.968Z" transform="translate(-115.9 -63.6)" fill="#fff"/>
        </g>
        <g id="Group_700" data-name="Group 700" transform="translate(4.488 2.487)">
          <path id="Path_534" data-name="Path 534" d="M127.284,64.168a.184.184,0,1,0-.184-.184A.186.186,0,0,0,127.284,64.168Z" transform="translate(-127.1 -63.8)" fill="#fff"/>
        </g>
        <g id="Group_701" data-name="Group 701" transform="translate(5.43 2.487)">
          <path id="Path_535" data-name="Path 535" d="M144.18,64.168a.184.184,0,1,0-.184-.184A.179.179,0,0,0,144.18,64.168Z" transform="translate(-143.995 -63.8)" fill="#fff"/>
        </g>
        <g id="Group_702" data-name="Group 702" transform="translate(6.077 2.498)">
          <path id="Path_536" data-name="Path 536" d="M155.784,64.368a.184.184,0,1,0-.184-.184A.186.186,0,0,0,155.784,64.368Z" transform="translate(-155.6 -64)" fill="#fff"/>
        </g>
        <g id="Group_703" data-name="Group 703" transform="translate(6.646 2.476)">
          <path id="Path_537" data-name="Path 537" d="M165.984,63.968a.184.184,0,1,0-.184-.184A.186.186,0,0,0,165.984,63.968Z" transform="translate(-165.8 -63.6)" fill="#fff"/>
        </g>
        <g id="Group_704" data-name="Group 704" transform="translate(3.529 3.955)">
          <path id="Path_538" data-name="Path 538" d="M110.1,90.107a.206.206,0,0,0,.206-.206.2.2,0,0,0-.407,0A.2.2,0,0,0,110.1,90.107Z" transform="translate(-109.896 -89.7)" fill="#fff"/>
        </g>
        <g id="Group_705" data-name="Group 705" transform="translate(4.337 3.966)">
          <path id="Path_539" data-name="Path 539" d="M124.6,90.307a.206.206,0,0,0,.206-.206.2.2,0,0,0-.407,0A.2.2,0,0,0,124.6,90.307Z" transform="translate(-124.396 -89.9)" fill="#fff"/>
        </g>
        <g id="Group_706" data-name="Group 706" transform="translate(5.541 3.966)">
          <path id="Path_540" data-name="Path 540" d="M146.2,90.307a.206.206,0,0,0,.206-.206.2.2,0,0,0-.206-.2.2.2,0,0,0,0,.407Z" transform="translate(-145.996 -89.9)" fill="#fff"/>
        </g>
        <g id="Group_707" data-name="Group 707" transform="translate(6.372 3.966)">
          <path id="Path_541" data-name="Path 541" d="M161.1,90.307a.206.206,0,0,0,.206-.206.2.2,0,1,0-.206.206Z" transform="translate(-160.9 -89.9)" fill="#fff"/>
        </g>
        <g id="Group_708" data-name="Group 708" transform="translate(7.114 3.966)">
          <path id="Path_542" data-name="Path 542" d="M174.4,90.307a.206.206,0,0,0,.206-.206.2.2,0,1,0-.206.206Z" transform="translate(-174.2 -89.9)" fill="#fff"/>
        </g>
        <g id="Group_709" data-name="Group 709" transform="translate(3.183 5.451)">
          <path id="Path_543" data-name="Path 543" d="M103.934,116.568a.234.234,0,1,0-.234-.234A.232.232,0,0,0,103.934,116.568Z" transform="translate(-103.7 -116.1)" fill="#fff"/>
        </g>
        <g id="Group_710" data-name="Group 710" transform="translate(4.176 5.451)">
          <path id="Path_544" data-name="Path 544" d="M121.734,116.568a.234.234,0,1,0-.234-.234A.232.232,0,0,0,121.734,116.568Z" transform="translate(-121.5 -116.1)" fill="#fff"/>
        </g>
        <g id="Group_711" data-name="Group 711" transform="translate(5.648 5.451)">
          <path id="Path_545" data-name="Path 545" d="M148.134,116.568a.234.234,0,1,0-.234-.234A.229.229,0,0,0,148.134,116.568Z" transform="translate(-147.9 -116.1)" fill="#fff"/>
        </g>
        <g id="Group_712" data-name="Group 712" transform="translate(6.679 5.451)">
          <path id="Path_546" data-name="Path 546" d="M166.634,116.568a.234.234,0,1,0-.234-.234A.232.232,0,0,0,166.634,116.568Z" transform="translate(-166.4 -116.1)" fill="#fff"/>
        </g>
        <g id="Group_713" data-name="Group 713" transform="translate(7.577 5.451)">
          <path id="Path_547" data-name="Path 547" d="M182.734,116.568a.234.234,0,1,0-.234-.234A.232.232,0,0,0,182.734,116.568Z" transform="translate(-182.5 -116.1)" fill="#fff"/>
        </g>
        <g id="Group_714" data-name="Group 714" transform="translate(6.958 6.924)">
          <path id="Path_548" data-name="Path 548" d="M171.665,142.635a.268.268,0,1,0-.268-.268A.264.264,0,0,0,171.665,142.635Z" transform="translate(-171.397 -142.1)" fill="#fff"/>
        </g>
        <g id="Group_715" data-name="Group 715" transform="translate(5.737 6.924)">
          <path id="Path_549" data-name="Path 549" d="M149.768,142.635a.268.268,0,1,0-.268-.268A.271.271,0,0,0,149.768,142.635Z" transform="translate(-149.5 -142.1)" fill="#fff"/>
        </g>
        <g id="Group_716" data-name="Group 716" transform="translate(4.003 6.924)">
          <path id="Path_550" data-name="Path 550" d="M118.668,142.635a.268.268,0,1,0-.268-.268A.268.268,0,0,0,118.668,142.635Z" transform="translate(-118.4 -142.1)" fill="#fff"/>
        </g>
        <g id="Group_717" data-name="Group 717" transform="translate(2.81 6.924)">
          <path id="Path_551" data-name="Path 551" d="M97.268,142.635a.268.268,0,1,0-.268-.268A.271.271,0,0,0,97.268,142.635Z" transform="translate(-97 -142.1)" fill="#fff"/>
        </g>
        <g id="Group_718" data-name="Group 718" transform="translate(1.896 6.924)">
          <path id="Path_552" data-name="Path 552" d="M80.868,142.635a.268.268,0,1,0-.268-.268A.271.271,0,0,0,80.868,142.635Z" transform="translate(-80.6 -142.1)" fill="#fff"/>
        </g>
        <g id="Group_719" data-name="Group 719" transform="translate(7.237 8.415)">
          <path id="Path_553" data-name="Path 553" d="M176.712,169.013a.311.311,0,0,0,.312-.307.307.307,0,0,0-.312-.307.311.311,0,0,0-.312.307A.318.318,0,0,0,176.712,169.013Z" transform="translate(-176.4 -168.4)" fill="#fff"/>
        </g>
        <g id="Group_720" data-name="Group 720" transform="translate(8.469 8.415)">
          <path id="Path_554" data-name="Path 554" d="M198.812,169.013a.311.311,0,0,0,.312-.307.307.307,0,0,0-.312-.307.311.311,0,0,0-.312.307A.318.318,0,0,0,198.812,169.013Z" transform="translate(-198.5 -168.4)" fill="#fff"/>
        </g>
      </g>
    </g>
  </g>
</svg>
