<svg id="showers" xmlns="http://www.w3.org/2000/svg" width="64" height="64" viewBox="0 0 64 64">
  <g id="Group_684" data-name="Group 684">
    <path id="Path_517" data-name="Path 517" d="M63.977,4.191A4.191,4.191,0,0,0,59.8,0H4.181A4.191,4.191,0,0,0,0,4.191V59.809A4.191,4.191,0,0,0,4.181,64H59.819A4.191,4.191,0,0,0,64,59.809V4.191Z" fill="#fff"/>
    <path id="Path_518" data-name="Path 518" d="M63.977,4.191A4.191,4.191,0,0,0,59.8,0H4.181A4.191,4.191,0,0,0,0,4.191V59.809A4.191,4.191,0,0,0,4.181,64H59.819A4.191,4.191,0,0,0,64,59.809V4.191Z" fill="#38598a"/>
  </g>
  <g id="Group_723" data-name="Group 723" transform="translate(10.814 4.438)">
    <g id="Group_722" data-name="Group 722">
      <g id="Group_721" data-name="Group 721">
        <g id="Group_685" data-name="Group 685" transform="translate(13.671)">
          <path id="Path_519" data-name="Path 519" d="M113.654,19.9h2.587l5.754,5.754H107.9Z" transform="translate(-107.9 -19.9)" fill="#fff"/>
        </g>
        <g id="Group_686" data-name="Group 686" transform="translate(13.448 9.903)">
          <path id="Path_520" data-name="Path 520" d="M107.636,65.072a.736.736,0,1,0-.736-.736A.742.742,0,0,0,107.636,65.072Z" transform="translate(-106.9 -63.6)" fill="#fff"/>
        </g>
        <g id="Group_687" data-name="Group 687" transform="translate(11.574 15.863)">
          <path id="Path_521" data-name="Path 521" d="M99.3,91.528a.823.823,0,0,0,.825-.825.814.814,0,0,0-1.628,0A.791.791,0,0,0,99.3,91.528Z" transform="translate(-98.496 -89.9)" fill="#fff"/>
        </g>
        <g id="Group_688" data-name="Group 688" transform="translate(9.612 21.803)">
          <path id="Path_522" data-name="Path 522" d="M90.637,117.973a.937.937,0,1,0-.937-.937A.915.915,0,0,0,90.637,117.973Z" transform="translate(-89.7 -116.1)" fill="#fff"/>
        </g>
        <g id="Group_689" data-name="Group 689" transform="translate(32.068 27.652)">
          <path id="Path_523" data-name="Path 523" d="M191.468,144.041a1.07,1.07,0,1,0-1.07-1.07A1.057,1.057,0,0,0,191.468,144.041Z" transform="translate(-190.397 -141.9)" fill="#fff"/>
        </g>
        <g id="Group_690" data-name="Group 690" transform="translate(9.947 33.526)">
          <path id="Path_524" data-name="Path 524" d="M92.449,170.275a1.247,1.247,0,0,0,1.249-1.249,1.228,1.228,0,0,0-1.249-1.227,1.238,1.238,0,1,0,0,2.475Z" transform="translate(-91.2 -167.8)" fill="#fff"/>
        </g>
        <g id="Group_691" data-name="Group 691" transform="translate(3.313 38.568)">
          <circle id="Ellipse_36" data-name="Ellipse 36" cx="1.427" cy="1.427" r="1.427" transform="translate(0 2.637) rotate(-67.5)" fill="#fff"/>
        </g>
        <g id="Group_692" data-name="Group 692" transform="translate(1.941 44.596)">
          <path id="Path_525" data-name="Path 525" d="M56.861,219.222a1.561,1.561,0,1,0-1.561-1.561A1.58,1.58,0,0,0,56.861,219.222Z" transform="translate(-55.3 -216.1)" fill="#fff"/>
        </g>
        <g id="Group_693" data-name="Group 693" transform="translate(37.176 44.618)">
          <path id="Path_526" data-name="Path 526" d="M214.861,219.322a1.561,1.561,0,1,0-1.561-1.561A1.566,1.566,0,0,0,214.861,219.322Z" transform="translate(-213.3 -216.2)" fill="#fff"/>
        </g>
        <g id="Group_694" data-name="Group 694" transform="translate(0 49.971)">
          <path id="Path_527" data-name="Path 527" d="M48.382,243.768a1.784,1.784,0,1,0-1.784-1.784A1.775,1.775,0,0,0,48.382,243.768Z" transform="translate(-46.598 -240.2)" fill="#fff"/>
        </g>
        <g id="Group_695" data-name="Group 695" transform="translate(5.576 49.971)">
          <path id="Path_528" data-name="Path 528" d="M73.384,243.79a1.8,1.8,0,1,0-1.784-1.806A1.794,1.794,0,0,0,73.384,243.79Z" transform="translate(-71.6 -240.2)" fill="#fff"/>
        </g>
        <g id="Group_696" data-name="Group 696" transform="translate(32.136 50.038)">
          <path id="Path_529" data-name="Path 529" d="M192.506,244.068a1.784,1.784,0,1,0-1.806-1.784A1.823,1.823,0,0,0,192.506,244.068Z" transform="translate(-190.7 -240.5)" fill="#fff"/>
        </g>
        <g id="Group_697" data-name="Group 697" transform="translate(38.804 49.948)">
          <path id="Path_530" data-name="Path 530" d="M222.383,243.668a1.784,1.784,0,1,0-1.784-1.784A1.761,1.761,0,0,0,222.383,243.668Z" transform="translate(-220.598 -240.1)" fill="#fff"/>
        </g>
        <g id="Group_698" data-name="Group 698" transform="translate(15.366 31.009)">
          <path id="Path_531" data-name="Path 531" d="M120.629,166.558a5.129,5.129,0,1,0-5.129-5.129A5.13,5.13,0,0,0,120.629,166.558Z" transform="translate(-115.5 -156.3)" fill="#fff"/>
        </g>
        <path id="Path_532" data-name="Path 532" d="M79.4,148.064l15.655.022-12,15.789h-14.5L56.7,137.159l2.364-.959s2.632,7.248,5.6,10.816c2.208,2.676,8.586,8.006,15.722,7.159,6.646-.781,7.761-2.788,7.761-2.788l-9.344-2.52Z" transform="translate(-54.447 -109.422)" fill="#fff"/>
        <g id="Group_699" data-name="Group 699" transform="translate(15.455 9.903)">
          <path id="Path_533" data-name="Path 533" d="M116.636,65.072a.736.736,0,1,0-.736-.736A.742.742,0,0,0,116.636,65.072Z" transform="translate(-115.9 -63.6)" fill="#fff"/>
        </g>
        <g id="Group_700" data-name="Group 700" transform="translate(17.953 9.948)">
          <path id="Path_534" data-name="Path 534" d="M127.836,65.272a.736.736,0,1,0-.736-.736A.742.742,0,0,0,127.836,65.272Z" transform="translate(-127.1 -63.8)" fill="#fff"/>
        </g>
        <g id="Group_701" data-name="Group 701" transform="translate(21.72 9.948)">
          <path id="Path_535" data-name="Path 535" d="M144.732,65.272a.736.736,0,1,0-.736-.736A.715.715,0,0,0,144.732,65.272Z" transform="translate(-143.995 -63.8)" fill="#fff"/>
        </g>
        <g id="Group_702" data-name="Group 702" transform="translate(24.308 9.993)">
          <path id="Path_536" data-name="Path 536" d="M156.336,65.472a.736.736,0,1,0-.736-.736A.742.742,0,0,0,156.336,65.472Z" transform="translate(-155.6 -64)" fill="#fff"/>
        </g>
        <g id="Group_703" data-name="Group 703" transform="translate(26.583 9.903)">
          <path id="Path_537" data-name="Path 537" d="M166.536,65.072a.736.736,0,1,0-.736-.736A.742.742,0,0,0,166.536,65.072Z" transform="translate(-165.8 -63.6)" fill="#fff"/>
        </g>
        <g id="Group_704" data-name="Group 704" transform="translate(14.116 15.818)">
          <path id="Path_538" data-name="Path 538" d="M110.7,91.328a.823.823,0,0,0,.825-.825.814.814,0,0,0-1.628,0A.791.791,0,0,0,110.7,91.328Z" transform="translate(-109.896 -89.7)" fill="#fff"/>
        </g>
        <g id="Group_705" data-name="Group 705" transform="translate(17.35 15.863)">
          <path id="Path_539" data-name="Path 539" d="M125.2,91.528a.823.823,0,0,0,.825-.825.814.814,0,0,0-1.628,0A.779.779,0,0,0,125.2,91.528Z" transform="translate(-124.396 -89.9)" fill="#fff"/>
        </g>
        <g id="Group_706" data-name="Group 706" transform="translate(22.167 15.863)">
          <path id="Path_540" data-name="Path 540" d="M146.8,91.528a.823.823,0,0,0,.825-.825.8.8,0,0,0-.825-.8.814.814,0,0,0,0,1.628Z" transform="translate(-145.996 -89.9)" fill="#fff"/>
        </g>
        <g id="Group_707" data-name="Group 707" transform="translate(25.49 15.863)">
          <path id="Path_541" data-name="Path 541" d="M161.7,91.528a.823.823,0,0,0,.825-.825.814.814,0,1,0-.825.825Z" transform="translate(-160.9 -89.9)" fill="#fff"/>
        </g>
        <g id="Group_708" data-name="Group 708" transform="translate(28.456 15.863)">
          <path id="Path_542" data-name="Path 542" d="M175,91.528a.823.823,0,0,0,.825-.825.814.814,0,1,0-.825.825Z" transform="translate(-174.2 -89.9)" fill="#fff"/>
        </g>
        <g id="Group_709" data-name="Group 709" transform="translate(12.734 21.803)">
          <path id="Path_543" data-name="Path 543" d="M104.637,117.973a.937.937,0,1,0-.937-.937A.928.928,0,0,0,104.637,117.973Z" transform="translate(-103.7 -116.1)" fill="#fff"/>
        </g>
        <g id="Group_710" data-name="Group 710" transform="translate(16.704 21.803)">
          <path id="Path_544" data-name="Path 544" d="M122.437,117.973a.937.937,0,1,0-.937-.937A.928.928,0,0,0,122.437,117.973Z" transform="translate(-121.5 -116.1)" fill="#fff"/>
        </g>
        <g id="Group_711" data-name="Group 711" transform="translate(22.591 21.803)">
          <path id="Path_545" data-name="Path 545" d="M148.837,117.973a.937.937,0,1,0-.937-.937A.915.915,0,0,0,148.837,117.973Z" transform="translate(-147.9 -116.1)" fill="#fff"/>
        </g>
        <g id="Group_712" data-name="Group 712" transform="translate(26.717 21.803)">
          <path id="Path_546" data-name="Path 546" d="M167.337,117.973a.937.937,0,1,0-.937-.937A.928.928,0,0,0,167.337,117.973Z" transform="translate(-166.4 -116.1)" fill="#fff"/>
        </g>
        <g id="Group_713" data-name="Group 713" transform="translate(30.307 21.803)">
          <path id="Path_547" data-name="Path 547" d="M183.437,117.973a.937.937,0,1,0-.937-.937A.928.928,0,0,0,183.437,117.973Z" transform="translate(-182.5 -116.1)" fill="#fff"/>
        </g>
        <g id="Group_714" data-name="Group 714" transform="translate(27.831 27.697)">
          <path id="Path_548" data-name="Path 548" d="M172.468,144.241a1.07,1.07,0,1,0-1.07-1.07A1.057,1.057,0,0,0,172.468,144.241Z" transform="translate(-171.397 -142.1)" fill="#fff"/>
        </g>
        <g id="Group_715" data-name="Group 715" transform="translate(22.948 27.697)">
          <path id="Path_549" data-name="Path 549" d="M150.57,144.241a1.07,1.07,0,1,0-1.07-1.07A1.085,1.085,0,0,0,150.57,144.241Z" transform="translate(-149.5 -142.1)" fill="#fff"/>
        </g>
        <g id="Group_716" data-name="Group 716" transform="translate(16.012 27.697)">
          <path id="Path_550" data-name="Path 550" d="M119.47,144.241a1.07,1.07,0,1,0-1.07-1.07A1.071,1.071,0,0,0,119.47,144.241Z" transform="translate(-118.4 -142.1)" fill="#fff"/>
        </g>
        <g id="Group_717" data-name="Group 717" transform="translate(11.24 27.697)">
          <path id="Path_551" data-name="Path 551" d="M98.07,144.241A1.07,1.07,0,1,0,97,143.17,1.085,1.085,0,0,0,98.07,144.241Z" transform="translate(-97 -142.1)" fill="#fff"/>
        </g>
        <g id="Group_718" data-name="Group 718" transform="translate(7.583 27.697)">
          <path id="Path_552" data-name="Path 552" d="M81.67,144.241a1.07,1.07,0,1,0-1.07-1.07A1.085,1.085,0,0,0,81.67,144.241Z" transform="translate(-80.6 -142.1)" fill="#fff"/>
        </g>
        <g id="Group_719" data-name="Group 719" transform="translate(28.947 33.662)">
          <path id="Path_553" data-name="Path 553" d="M177.649,170.853a1.242,1.242,0,0,0,1.249-1.227,1.228,1.228,0,0,0-1.249-1.227,1.242,1.242,0,0,0-1.249,1.227A1.272,1.272,0,0,0,177.649,170.853Z" transform="translate(-176.4 -168.4)" fill="#fff"/>
        </g>
        <g id="Group_720" data-name="Group 720" transform="translate(33.875 33.662)">
          <path id="Path_554" data-name="Path 554" d="M199.749,170.853A1.242,1.242,0,0,0,201,169.627a1.228,1.228,0,0,0-1.249-1.227,1.242,1.242,0,0,0-1.249,1.227A1.272,1.272,0,0,0,199.749,170.853Z" transform="translate(-198.5 -168.4)" fill="#fff"/>
        </g>
      </g>
    </g>
  </g>
</svg>
