<svg id="showers" xmlns="http://www.w3.org/2000/svg" width="31.999" height="31.999" viewBox="0 0 31.999 31.999">
  <g id="Group_684" data-name="Group 684">
    <path id="Path_517" data-name="Path 517" d="M31.987,2.1A2.1,2.1,0,0,0,29.9,0H2.09A2.1,2.1,0,0,0,0,2.1V29.9A2.1,2.1,0,0,0,2.09,32H29.908A2.1,2.1,0,0,0,32,29.9V2.1Z" fill="#fff"/>
    <path id="Path_518" data-name="Path 518" d="M31.987,2.1A2.1,2.1,0,0,0,29.9,0H2.09A2.1,2.1,0,0,0,0,2.1V29.9A2.1,2.1,0,0,0,2.09,32H29.908A2.1,2.1,0,0,0,32,29.9V2.1Z" fill="#38598a"/>
  </g>
  <g id="Group_723" data-name="Group 723" transform="translate(5.407 2.219)">
    <g id="Group_722" data-name="Group 722">
      <g id="Group_721" data-name="Group 721">
        <g id="Group_685" data-name="Group 685" transform="translate(6.835)">
          <path id="Path_519" data-name="Path 519" d="M110.777,19.9h1.293l2.877,2.877H107.9Z" transform="translate(-107.9 -19.9)" fill="#fff"/>
        </g>
        <g id="Group_686" data-name="Group 686" transform="translate(6.724 4.951)">
          <path id="Path_520" data-name="Path 520" d="M107.268,64.336a.368.368,0,1,0-.368-.368A.371.371,0,0,0,107.268,64.336Z" transform="translate(-106.9 -63.6)" fill="#fff"/>
        </g>
        <g id="Group_687" data-name="Group 687" transform="translate(5.787 7.931)">
          <path id="Path_521" data-name="Path 521" d="M98.9,90.714a.412.412,0,0,0,.413-.413.407.407,0,0,0-.814,0A.4.4,0,0,0,98.9,90.714Z" transform="translate(-98.496 -89.9)" fill="#fff"/>
        </g>
        <g id="Group_688" data-name="Group 688" transform="translate(4.806 10.901)">
          <path id="Path_522" data-name="Path 522" d="M90.168,117.037a.468.468,0,1,0-.468-.468A.457.457,0,0,0,90.168,117.037Z" transform="translate(-89.7 -116.1)" fill="#fff"/>
        </g>
        <g id="Group_689" data-name="Group 689" transform="translate(16.033 13.825)">
          <path id="Path_523" data-name="Path 523" d="M190.932,142.97a.535.535,0,1,0-.535-.535A.528.528,0,0,0,190.932,142.97Z" transform="translate(-190.397 -141.9)" fill="#fff"/>
        </g>
        <g id="Group_690" data-name="Group 690" transform="translate(4.973 16.762)">
          <path id="Path_524" data-name="Path 524" d="M91.824,169.038a.623.623,0,0,0,.624-.624.614.614,0,0,0-.624-.613.619.619,0,1,0,0,1.238Z" transform="translate(-91.2 -167.8)" fill="#fff"/>
        </g>
        <g id="Group_691" data-name="Group 691" transform="translate(1.656 19.283)">
          <circle id="Ellipse_36" data-name="Ellipse 36" cx="0.714" cy="0.714" r="0.714" transform="translate(0 1.319) rotate(-67.5)" fill="#fff"/>
        </g>
        <g id="Group_692" data-name="Group 692" transform="translate(0.97 22.297)">
          <path id="Path_525" data-name="Path 525" d="M56.08,217.661a.78.78,0,1,0-.78-.78A.79.79,0,0,0,56.08,217.661Z" transform="translate(-55.3 -216.1)" fill="#fff"/>
        </g>
        <g id="Group_693" data-name="Group 693" transform="translate(18.587 22.308)">
          <path id="Path_526" data-name="Path 526" d="M214.081,217.761a.78.78,0,1,0-.78-.78A.783.783,0,0,0,214.081,217.761Z" transform="translate(-213.3 -216.2)" fill="#fff"/>
        </g>
        <g id="Group_694" data-name="Group 694" transform="translate(0 24.984)">
          <path id="Path_527" data-name="Path 527" d="M47.49,241.984a.892.892,0,1,0-.892-.892A.887.887,0,0,0,47.49,241.984Z" transform="translate(-46.598 -240.2)" fill="#fff"/>
        </g>
        <g id="Group_695" data-name="Group 695" transform="translate(2.788 24.984)">
          <path id="Path_528" data-name="Path 528" d="M72.492,242a.9.9,0,1,0-.892-.9A.9.9,0,0,0,72.492,242Z" transform="translate(-71.6 -240.2)" fill="#fff"/>
        </g>
        <g id="Group_696" data-name="Group 696" transform="translate(16.067 25.018)">
          <path id="Path_529" data-name="Path 529" d="M191.6,242.284a.892.892,0,1,0-.9-.892A.912.912,0,0,0,191.6,242.284Z" transform="translate(-190.7 -240.5)" fill="#fff"/>
        </g>
        <g id="Group_697" data-name="Group 697" transform="translate(19.401 24.973)">
          <path id="Path_530" data-name="Path 530" d="M221.49,241.884a.892.892,0,1,0-.892-.892A.881.881,0,0,0,221.49,241.884Z" transform="translate(-220.598 -240.1)" fill="#fff"/>
        </g>
        <g id="Group_698" data-name="Group 698" transform="translate(7.683 15.504)">
          <path id="Path_531" data-name="Path 531" d="M118.064,161.429a2.564,2.564,0,1,0-2.564-2.564A2.565,2.565,0,0,0,118.064,161.429Z" transform="translate(-115.5 -156.3)" fill="#fff"/>
        </g>
        <path id="Path_532" data-name="Path 532" d="M68.051,142.132l7.827.011-6,7.894H62.632L56.7,136.679l1.182-.479a23.035,23.035,0,0,0,2.8,5.408c1.1,1.338,4.293,4,7.861,3.579,3.323-.39,3.88-1.394,3.88-1.394l-4.672-1.26Z" transform="translate(-55.574 -122.812)" fill="#fff"/>
        <g id="Group_699" data-name="Group 699" transform="translate(7.727 4.951)">
          <path id="Path_533" data-name="Path 533" d="M116.268,64.336a.368.368,0,1,0-.368-.368A.371.371,0,0,0,116.268,64.336Z" transform="translate(-115.9 -63.6)" fill="#fff"/>
        </g>
        <g id="Group_700" data-name="Group 700" transform="translate(8.976 4.974)">
          <path id="Path_534" data-name="Path 534" d="M127.468,64.536a.368.368,0,1,0-.368-.368A.371.371,0,0,0,127.468,64.536Z" transform="translate(-127.1 -63.8)" fill="#fff"/>
        </g>
        <g id="Group_701" data-name="Group 701" transform="translate(10.86 4.974)">
          <path id="Path_535" data-name="Path 535" d="M144.364,64.536a.368.368,0,1,0-.368-.368A.357.357,0,0,0,144.364,64.536Z" transform="translate(-143.995 -63.8)" fill="#fff"/>
        </g>
        <g id="Group_702" data-name="Group 702" transform="translate(12.154 4.997)">
          <path id="Path_536" data-name="Path 536" d="M155.968,64.736a.368.368,0,1,0-.368-.368A.371.371,0,0,0,155.968,64.736Z" transform="translate(-155.6 -64)" fill="#fff"/>
        </g>
        <g id="Group_703" data-name="Group 703" transform="translate(13.291 4.951)">
          <path id="Path_537" data-name="Path 537" d="M166.168,64.336a.368.368,0,1,0-.368-.368A.371.371,0,0,0,166.168,64.336Z" transform="translate(-165.8 -63.6)" fill="#fff"/>
        </g>
        <g id="Group_704" data-name="Group 704" transform="translate(7.058 7.909)">
          <path id="Path_538" data-name="Path 538" d="M110.3,90.514a.412.412,0,0,0,.413-.413.407.407,0,0,0-.814,0A.4.4,0,0,0,110.3,90.514Z" transform="translate(-109.896 -89.7)" fill="#fff"/>
        </g>
        <g id="Group_705" data-name="Group 705" transform="translate(8.674 7.931)">
          <path id="Path_539" data-name="Path 539" d="M124.8,90.714a.412.412,0,0,0,.413-.413.407.407,0,0,0-.814,0A.389.389,0,0,0,124.8,90.714Z" transform="translate(-124.396 -89.9)" fill="#fff"/>
        </g>
        <g id="Group_706" data-name="Group 706" transform="translate(11.083 7.931)">
          <path id="Path_540" data-name="Path 540" d="M146.4,90.714a.412.412,0,0,0,.413-.413.4.4,0,0,0-.413-.4.407.407,0,0,0,0,.814Z" transform="translate(-145.996 -89.9)" fill="#fff"/>
        </g>
        <g id="Group_707" data-name="Group 707" transform="translate(12.745 7.931)">
          <path id="Path_541" data-name="Path 541" d="M161.3,90.714a.412.412,0,0,0,.413-.413.407.407,0,1,0-.413.413Z" transform="translate(-160.9 -89.9)" fill="#fff"/>
        </g>
        <g id="Group_708" data-name="Group 708" transform="translate(14.228 7.931)">
          <path id="Path_542" data-name="Path 542" d="M174.6,90.714a.412.412,0,0,0,.413-.413.407.407,0,1,0-.413.413Z" transform="translate(-174.2 -89.9)" fill="#fff"/>
        </g>
        <g id="Group_709" data-name="Group 709" transform="translate(6.367 10.901)">
          <path id="Path_543" data-name="Path 543" d="M104.168,117.037a.468.468,0,1,0-.468-.468A.464.464,0,0,0,104.168,117.037Z" transform="translate(-103.7 -116.1)" fill="#fff"/>
        </g>
        <g id="Group_710" data-name="Group 710" transform="translate(8.352 10.901)">
          <path id="Path_544" data-name="Path 544" d="M121.968,117.037a.468.468,0,1,0-.468-.468A.464.464,0,0,0,121.968,117.037Z" transform="translate(-121.5 -116.1)" fill="#fff"/>
        </g>
        <g id="Group_711" data-name="Group 711" transform="translate(11.295 10.901)">
          <path id="Path_545" data-name="Path 545" d="M148.368,117.037a.468.468,0,1,0-.468-.468A.457.457,0,0,0,148.368,117.037Z" transform="translate(-147.9 -116.1)" fill="#fff"/>
        </g>
        <g id="Group_712" data-name="Group 712" transform="translate(13.358 10.901)">
          <path id="Path_546" data-name="Path 546" d="M166.868,117.037a.468.468,0,1,0-.468-.468A.464.464,0,0,0,166.868,117.037Z" transform="translate(-166.4 -116.1)" fill="#fff"/>
        </g>
        <g id="Group_713" data-name="Group 713" transform="translate(15.153 10.901)">
          <path id="Path_547" data-name="Path 547" d="M182.968,117.037a.468.468,0,1,0-.468-.468A.464.464,0,0,0,182.968,117.037Z" transform="translate(-182.5 -116.1)" fill="#fff"/>
        </g>
        <g id="Group_714" data-name="Group 714" transform="translate(13.915 13.848)">
          <path id="Path_548" data-name="Path 548" d="M171.932,143.17a.535.535,0,1,0-.535-.535A.528.528,0,0,0,171.932,143.17Z" transform="translate(-171.397 -142.1)" fill="#fff"/>
        </g>
        <g id="Group_715" data-name="Group 715" transform="translate(11.474 13.848)">
          <path id="Path_549" data-name="Path 549" d="M150.035,143.17a.535.535,0,1,0-.535-.535A.543.543,0,0,0,150.035,143.17Z" transform="translate(-149.5 -142.1)" fill="#fff"/>
        </g>
        <g id="Group_716" data-name="Group 716" transform="translate(8.006 13.848)">
          <path id="Path_550" data-name="Path 550" d="M118.935,143.17a.535.535,0,1,0-.535-.535A.535.535,0,0,0,118.935,143.17Z" transform="translate(-118.4 -142.1)" fill="#fff"/>
        </g>
        <g id="Group_717" data-name="Group 717" transform="translate(5.62 13.848)">
          <path id="Path_551" data-name="Path 551" d="M97.535,143.17a.535.535,0,1,0-.535-.535A.543.543,0,0,0,97.535,143.17Z" transform="translate(-97 -142.1)" fill="#fff"/>
        </g>
        <g id="Group_718" data-name="Group 718" transform="translate(3.791 13.848)">
          <path id="Path_552" data-name="Path 552" d="M81.135,143.17a.535.535,0,1,0-.535-.535A.543.543,0,0,0,81.135,143.17Z" transform="translate(-80.6 -142.1)" fill="#fff"/>
        </g>
        <g id="Group_719" data-name="Group 719" transform="translate(14.473 16.83)">
          <path id="Path_553" data-name="Path 553" d="M177.024,169.626a.621.621,0,0,0,.624-.613.614.614,0,0,0-.624-.613.621.621,0,0,0-.624.613A.636.636,0,0,0,177.024,169.626Z" transform="translate(-176.4 -168.4)" fill="#fff"/>
        </g>
        <g id="Group_720" data-name="Group 720" transform="translate(16.937 16.83)">
          <path id="Path_554" data-name="Path 554" d="M199.124,169.626a.621.621,0,0,0,.624-.613.614.614,0,0,0-.624-.613.621.621,0,0,0-.624.613A.636.636,0,0,0,199.124,169.626Z" transform="translate(-198.5 -168.4)" fill="#fff"/>
        </g>
      </g>
    </g>
  </g>
</svg>
