<svg id="showers" xmlns="http://www.w3.org/2000/svg" width="48" height="48" viewBox="0 0 48 48">
  <g id="Group_684" data-name="Group 684">
    <path id="Path_517" data-name="Path 517" d="M47.983,3.143A3.143,3.143,0,0,0,44.847,0H3.136A3.143,3.143,0,0,0,0,3.143V44.857A3.143,3.143,0,0,0,3.136,48H44.864A3.143,3.143,0,0,0,48,44.857V3.143Z" fill="#fff"/>
    <path id="Path_518" data-name="Path 518" d="M47.983,3.143A3.143,3.143,0,0,0,44.847,0H3.136A3.143,3.143,0,0,0,0,3.143V44.857A3.143,3.143,0,0,0,3.136,48H44.864A3.143,3.143,0,0,0,48,44.857V3.143Z" fill="#38598a"/>
  </g>
  <g id="Group_723" data-name="Group 723" transform="translate(8.11 3.328)">
    <g id="Group_722" data-name="Group 722">
      <g id="Group_721" data-name="Group 721">
        <g id="Group_685" data-name="Group 685" transform="translate(10.253)">
          <path id="Path_519" data-name="Path 519" d="M112.215,19.9h1.94l4.315,4.315H107.9Z" transform="translate(-107.9 -19.9)" fill="#fff"/>
        </g>
        <g id="Group_686" data-name="Group 686" transform="translate(10.086 7.427)">
          <path id="Path_520" data-name="Path 520" d="M107.452,64.7a.552.552,0,1,0-.552-.552A.557.557,0,0,0,107.452,64.7Z" transform="translate(-106.9 -63.6)" fill="#fff"/>
        </g>
        <g id="Group_687" data-name="Group 687" transform="translate(8.68 11.898)">
          <path id="Path_521" data-name="Path 521" d="M99.1,91.121a.617.617,0,0,0,.619-.619.611.611,0,0,0-1.221,0A.593.593,0,0,0,99.1,91.121Z" transform="translate(-98.496 -89.9)" fill="#fff"/>
        </g>
        <g id="Group_688" data-name="Group 688" transform="translate(7.209 16.352)">
          <path id="Path_522" data-name="Path 522" d="M90.4,117.5a.7.7,0,1,0-.7-.7A.686.686,0,0,0,90.4,117.5Z" transform="translate(-89.7 -116.1)" fill="#fff"/>
        </g>
        <g id="Group_689" data-name="Group 689" transform="translate(24.051 20.739)">
          <path id="Path_523" data-name="Path 523" d="M191.2,143.506a.8.8,0,1,0-.8-.8A.792.792,0,0,0,191.2,143.506Z" transform="translate(-190.397 -141.9)" fill="#fff"/>
        </g>
        <g id="Group_690" data-name="Group 690" transform="translate(7.46 25.144)">
          <path id="Path_524" data-name="Path 524" d="M92.137,169.657a.935.935,0,0,0,.937-.937.921.921,0,0,0-.937-.92.928.928,0,1,0,0,1.857Z" transform="translate(-91.2 -167.8)" fill="#fff"/>
        </g>
        <g id="Group_691" data-name="Group 691" transform="translate(2.485 28.926)">
          <circle id="Ellipse_36" data-name="Ellipse 36" cx="1.07" cy="1.07" r="1.07" transform="translate(0 1.978) rotate(-67.5)" fill="#fff"/>
        </g>
        <g id="Group_692" data-name="Group 692" transform="translate(1.455 33.447)">
          <path id="Path_525" data-name="Path 525" d="M56.471,218.442a1.171,1.171,0,1,0-1.171-1.171A1.185,1.185,0,0,0,56.471,218.442Z" transform="translate(-55.3 -216.1)" fill="#fff"/>
        </g>
        <g id="Group_693" data-name="Group 693" transform="translate(27.882 33.464)">
          <path id="Path_526" data-name="Path 526" d="M214.471,218.542a1.171,1.171,0,1,0-1.171-1.171A1.174,1.174,0,0,0,214.471,218.542Z" transform="translate(-213.3 -216.2)" fill="#fff"/>
        </g>
        <g id="Group_694" data-name="Group 694" transform="translate(0 37.478)">
          <path id="Path_527" data-name="Path 527" d="M47.936,242.876a1.338,1.338,0,1,0-1.338-1.338A1.331,1.331,0,0,0,47.936,242.876Z" transform="translate(-46.598 -240.2)" fill="#fff"/>
        </g>
        <g id="Group_695" data-name="Group 695" transform="translate(4.182 37.478)">
          <path id="Path_528" data-name="Path 528" d="M72.938,242.893a1.346,1.346,0,1,0-1.338-1.355A1.346,1.346,0,0,0,72.938,242.893Z" transform="translate(-71.6 -240.2)" fill="#fff"/>
        </g>
        <g id="Group_696" data-name="Group 696" transform="translate(24.102 37.528)">
          <path id="Path_529" data-name="Path 529" d="M192.055,243.176a1.338,1.338,0,1,0-1.355-1.338A1.368,1.368,0,0,0,192.055,243.176Z" transform="translate(-190.7 -240.5)" fill="#fff"/>
        </g>
        <g id="Group_697" data-name="Group 697" transform="translate(29.103 37.461)">
          <path id="Path_530" data-name="Path 530" d="M221.936,242.776a1.338,1.338,0,1,0-1.338-1.338A1.321,1.321,0,0,0,221.936,242.776Z" transform="translate(-220.598 -240.1)" fill="#fff"/>
        </g>
        <g id="Group_698" data-name="Group 698" transform="translate(11.524 23.257)">
          <path id="Path_531" data-name="Path 531" d="M119.347,163.994a3.847,3.847,0,1,0-3.847-3.847A3.847,3.847,0,0,0,119.347,163.994Z" transform="translate(-115.5 -156.3)" fill="#fff"/>
        </g>
        <path id="Path_532" data-name="Path 532" d="M73.727,145.1l11.741.017-9,11.842H65.6l-8.9-20.037,1.773-.719s1.974,5.436,4.2,8.112c1.656,2.007,6.439,6,11.792,5.369,4.984-.585,5.821-2.091,5.821-2.091l-7.008-1.89Z" transform="translate(-55.01 -116.117)" fill="#fff"/>
        <g id="Group_699" data-name="Group 699" transform="translate(11.591 7.427)">
          <path id="Path_533" data-name="Path 533" d="M116.452,64.7a.552.552,0,1,0-.552-.552A.557.557,0,0,0,116.452,64.7Z" transform="translate(-115.9 -63.6)" fill="#fff"/>
        </g>
        <g id="Group_700" data-name="Group 700" transform="translate(13.464 7.461)">
          <path id="Path_534" data-name="Path 534" d="M127.652,64.9a.552.552,0,1,0-.552-.552A.557.557,0,0,0,127.652,64.9Z" transform="translate(-127.1 -63.8)" fill="#fff"/>
        </g>
        <g id="Group_701" data-name="Group 701" transform="translate(16.29 7.461)">
          <path id="Path_535" data-name="Path 535" d="M144.548,64.9a.552.552,0,1,0-.552-.552A.536.536,0,0,0,144.548,64.9Z" transform="translate(-143.995 -63.8)" fill="#fff"/>
        </g>
        <g id="Group_702" data-name="Group 702" transform="translate(18.231 7.495)">
          <path id="Path_536" data-name="Path 536" d="M156.152,65.1a.552.552,0,1,0-.552-.552A.557.557,0,0,0,156.152,65.1Z" transform="translate(-155.6 -64)" fill="#fff"/>
        </g>
        <g id="Group_703" data-name="Group 703" transform="translate(19.937 7.427)">
          <path id="Path_537" data-name="Path 537" d="M166.352,64.7a.552.552,0,1,0-.552-.552A.557.557,0,0,0,166.352,64.7Z" transform="translate(-165.8 -63.6)" fill="#fff"/>
        </g>
        <g id="Group_704" data-name="Group 704" transform="translate(10.587 11.864)">
          <path id="Path_538" data-name="Path 538" d="M110.5,90.921a.617.617,0,0,0,.619-.619.611.611,0,0,0-1.221,0A.593.593,0,0,0,110.5,90.921Z" transform="translate(-109.896 -89.7)" fill="#fff"/>
        </g>
        <g id="Group_705" data-name="Group 705" transform="translate(13.012 11.898)">
          <path id="Path_539" data-name="Path 539" d="M125,91.121a.617.617,0,0,0,.619-.619.611.611,0,0,0-1.221,0A.584.584,0,0,0,125,91.121Z" transform="translate(-124.396 -89.9)" fill="#fff"/>
        </g>
        <g id="Group_706" data-name="Group 706" transform="translate(16.625 11.898)">
          <path id="Path_540" data-name="Path 540" d="M146.6,91.121a.617.617,0,0,0,.619-.619.6.6,0,0,0-.619-.6.611.611,0,0,0,0,1.221Z" transform="translate(-145.996 -89.9)" fill="#fff"/>
        </g>
        <g id="Group_707" data-name="Group 707" transform="translate(19.118 11.898)">
          <path id="Path_541" data-name="Path 541" d="M161.5,91.121a.617.617,0,0,0,.619-.619.611.611,0,1,0-.619.619Z" transform="translate(-160.9 -89.9)" fill="#fff"/>
        </g>
        <g id="Group_708" data-name="Group 708" transform="translate(21.342 11.898)">
          <path id="Path_542" data-name="Path 542" d="M174.8,91.121a.617.617,0,0,0,.619-.619.611.611,0,1,0-.619.619Z" transform="translate(-174.2 -89.9)" fill="#fff"/>
        </g>
        <g id="Group_709" data-name="Group 709" transform="translate(9.551 16.352)">
          <path id="Path_543" data-name="Path 543" d="M104.4,117.5a.7.7,0,1,0-.7-.7A.7.7,0,0,0,104.4,117.5Z" transform="translate(-103.7 -116.1)" fill="#fff"/>
        </g>
        <g id="Group_710" data-name="Group 710" transform="translate(12.528 16.352)">
          <path id="Path_544" data-name="Path 544" d="M122.2,117.5a.7.7,0,1,0-.7-.7A.7.7,0,0,0,122.2,117.5Z" transform="translate(-121.5 -116.1)" fill="#fff"/>
        </g>
        <g id="Group_711" data-name="Group 711" transform="translate(16.943 16.352)">
          <path id="Path_545" data-name="Path 545" d="M148.6,117.5a.7.7,0,1,0-.7-.7A.686.686,0,0,0,148.6,117.5Z" transform="translate(-147.9 -116.1)" fill="#fff"/>
        </g>
        <g id="Group_712" data-name="Group 712" transform="translate(20.038 16.352)">
          <path id="Path_546" data-name="Path 546" d="M167.1,117.5a.7.7,0,1,0-.7-.7A.7.7,0,0,0,167.1,117.5Z" transform="translate(-166.4 -116.1)" fill="#fff"/>
        </g>
        <g id="Group_713" data-name="Group 713" transform="translate(22.731 16.352)">
          <path id="Path_547" data-name="Path 547" d="M183.2,117.5a.7.7,0,1,0-.7-.7A.7.7,0,0,0,183.2,117.5Z" transform="translate(-182.5 -116.1)" fill="#fff"/>
        </g>
        <g id="Group_714" data-name="Group 714" transform="translate(20.873 20.773)">
          <path id="Path_548" data-name="Path 548" d="M172.2,143.706a.8.8,0,1,0-.8-.8A.792.792,0,0,0,172.2,143.706Z" transform="translate(-171.397 -142.1)" fill="#fff"/>
        </g>
        <g id="Group_715" data-name="Group 715" transform="translate(17.211 20.773)">
          <path id="Path_549" data-name="Path 549" d="M150.3,143.706a.8.8,0,1,0-.8-.8A.814.814,0,0,0,150.3,143.706Z" transform="translate(-149.5 -142.1)" fill="#fff"/>
        </g>
        <g id="Group_716" data-name="Group 716" transform="translate(12.009 20.773)">
          <path id="Path_550" data-name="Path 550" d="M119.2,143.706a.8.8,0,1,0-.8-.8A.8.8,0,0,0,119.2,143.706Z" transform="translate(-118.4 -142.1)" fill="#fff"/>
        </g>
        <g id="Group_717" data-name="Group 717" transform="translate(8.43 20.773)">
          <path id="Path_551" data-name="Path 551" d="M97.8,143.706a.8.8,0,1,0-.8-.8A.814.814,0,0,0,97.8,143.706Z" transform="translate(-97 -142.1)" fill="#fff"/>
        </g>
        <g id="Group_718" data-name="Group 718" transform="translate(5.687 20.773)">
          <path id="Path_552" data-name="Path 552" d="M81.4,143.706a.8.8,0,1,0-.8-.8A.814.814,0,0,0,81.4,143.706Z" transform="translate(-80.6 -142.1)" fill="#fff"/>
        </g>
        <g id="Group_719" data-name="Group 719" transform="translate(21.71 25.246)">
          <path id="Path_553" data-name="Path 553" d="M177.337,170.24a.932.932,0,0,0,.937-.92.921.921,0,0,0-.937-.92.932.932,0,0,0-.937.92A.954.954,0,0,0,177.337,170.24Z" transform="translate(-176.4 -168.4)" fill="#fff"/>
        </g>
        <g id="Group_720" data-name="Group 720" transform="translate(25.407 25.246)">
          <path id="Path_554" data-name="Path 554" d="M199.437,170.24a.932.932,0,0,0,.937-.92.921.921,0,0,0-.937-.92.932.932,0,0,0-.937.92A.954.954,0,0,0,199.437,170.24Z" transform="translate(-198.5 -168.4)" fill="#fff"/>
        </g>
      </g>
    </g>
  </g>
</svg>
