<svg id="toilets" xmlns="http://www.w3.org/2000/svg" width="64.001" height="64" viewBox="0 0 64.001 64">
  <g id="Background">
    <path id="Path_562" data-name="Path 562" d="M64,4.181A4.179,4.179,0,0,0,59.822,0H4.182A4.182,4.182,0,0,0,0,4.181V59.815A4.185,4.185,0,0,0,4.182,64H59.822A4.182,4.182,0,0,0,64,59.815V4.181Z" fill="#38598a"/>
  </g>
  <g id="Toilets-2" data-name="Toilets" transform="translate(4.576 5.609)">
    <path id="Path_563" data-name="Path 563" d="M20.246,78.084H75.1V31.5L47.671,25.078,20.246,31.421Z" transform="translate(-20.246 -25.018)" fill="#fff"/>
    <path id="Path_564" data-name="Path 564" d="M139.991,77.985h-1.307V24.813h1.307Z" transform="translate(-111.912 -24.813)" fill="#4d5f85"/>
    <path id="Path_565" data-name="Path 565" d="M190.722,71.464a3.3,3.3,0,1,0-3.3-3.3A3.3,3.3,0,0,0,190.722,71.464Z" transform="translate(-149.631 -55.808)" fill="#38598a"/>
    <path id="Path_566" data-name="Path 566" d="M163.412,128.88a1.611,1.611,0,0,0,3.221,0V118.592h1.639v10.377a1.611,1.611,0,0,0,3.221,0V118.581h4.139s-3.467-13.894-3.749-15.018a.527.527,0,0,1,.369-.653.537.537,0,0,1,.643.325s2.451,8.137,2.788,9.035c.065.177.509.593,1.457.307,1.022-.307.791-1.01.791-1.01s-2.919-10.15-3.315-11.475a2.672,2.672,0,0,0-2.439-2.108h-9.444c-1.512,0-2.236,2.412-2.236,2.412l-2.937,11.267s-.141.671.943.961c1.24.328,1.494-.353,1.494-.353s2.027-8.053,2.267-8.957a.525.525,0,0,1,.662-.4.546.546,0,0,1,.382.625l-3.551,15.035h3.654Z" transform="translate(-126.518 -81.444)" fill="#38598a"/>
    <path id="Path_567" data-name="Path 567" d="M70.276,71.2A3.271,3.271,0,1,0,67,67.927,3.267,3.267,0,0,0,70.276,71.2Z" transform="translate(-56.435 -55.65)" fill="#38598a"/>
    <path id="Path_568" data-name="Path 568" d="M58.6,128.952a1.611,1.611,0,1,1-3.221,0v-14.82H53.745v14.731a1.611,1.611,0,0,1-3.221,0V103.311a.5.5,0,0,0-.509-.335.552.552,0,0,0-.51.357v9.55s.049.9-1.259.9c-1.409,0-1.406-1.007-1.406-1.007V100.309S46.822,97.8,49.863,97.8h9.942s2.557.2,2.557,2.515V112.78s-.085.7-1.278.7c-1.344,0-1.427-.7-1.427-.7v-9.43a.5.5,0,0,0-.54-.374.568.568,0,0,0-.512.427v25.549Z" transform="translate(-40.829 -81.301)" fill="#38598a"/>
  </g>
</svg>
