<svg id="toilets" xmlns="http://www.w3.org/2000/svg" width="16" height="15.999" viewBox="0 0 16 15.999">
  <g id="Background">
    <path id="Path_562" data-name="Path 562" d="M16,1.045A1.045,1.045,0,0,0,14.955,0H1.045A1.045,1.045,0,0,0,0,1.045V14.953A1.046,1.046,0,0,0,1.045,16h13.91A1.045,1.045,0,0,0,16,14.953V1.045Z" fill="#38598a"/>
  </g>
  <g id="Toilets-2" data-name="Toilets" transform="translate(1.144 1.402)">
    <path id="Path_563" data-name="Path 563" d="M20.246,38.329H33.958V26.684L27.1,25.078l-6.856,1.586Z" transform="translate(-20.246 -25.063)" fill="#fff"/>
    <path id="Path_564" data-name="Path 564" d="M139.011,38.105h-.327V24.813h.327Z" transform="translate(-131.991 -24.813)" fill="#4d5f85"/>
    <path id="Path_565" data-name="Path 565" d="M188.244,66.511a.826.826,0,1,0-.826-.826A.825.825,0,0,0,188.244,66.511Z" transform="translate(-177.972 -62.597)" fill="#38598a"/>
    <path id="Path_566" data-name="Path 566" d="M159.019,105.707a.4.4,0,0,0,.805,0v-2.572h.41v2.594a.4.4,0,0,0,.805,0v-2.6h1.035s-.867-3.473-.937-3.754a.132.132,0,0,1,.092-.163.134.134,0,0,1,.161.081s.613,2.034.7,2.259c.016.044.127.148.364.077.256-.077.2-.253.2-.253s-.73-2.538-.829-2.869a.668.668,0,0,0-.61-.527H158.85c-.378,0-.559.6-.559.6l-.734,2.817s-.035.168.236.24c.31.082.373-.088.373-.088s.507-2.013.567-2.239a.131.131,0,0,1,.166-.1.136.136,0,0,1,.1.156l-.888,3.759h.913Z" transform="translate(-149.796 -93.848)" fill="#38598a"/>
    <path id="Path_567" data-name="Path 567" d="M67.822,66.291A.818.818,0,1,0,67,65.474.817.817,0,0,0,67.822,66.291Z" transform="translate(-64.362 -62.405)" fill="#38598a"/>
    <path id="Path_568" data-name="Path 568" d="M49.781,105.586a.4.4,0,0,1-.805,0v-3.7h-.41v3.683a.4.4,0,0,1-.805,0V99.176a.125.125,0,0,0-.127-.084.138.138,0,0,0-.128.089v2.387s.012.226-.315.226c-.352,0-.351-.252-.351-.252V98.426s0-.628.756-.628h2.485s.639.051.639.629v3.117s-.021.176-.32.176c-.336,0-.357-.176-.357-.176V99.186a.125.125,0,0,0-.135-.094.142.142,0,0,0-.128.107v6.387Z" transform="translate(-45.337 -93.674)" fill="#38598a"/>
  </g>
</svg>
