<svg id="toilets" xmlns="http://www.w3.org/2000/svg" width="31.999" height="31.999" viewBox="0 0 31.999 31.999">
  <g id="Background">
    <path id="Path_562" data-name="Path 562" d="M32,2.091A2.089,2.089,0,0,0,29.91,0H2.091A2.091,2.091,0,0,0,0,2.091V29.906A2.092,2.092,0,0,0,2.091,32H29.91A2.091,2.091,0,0,0,32,29.906V2.091Z" fill="#38598a"/>
  </g>
  <g id="Toilets-2" data-name="Toilets" transform="translate(2.288 2.804)">
    <path id="Path_563" data-name="Path 563" d="M20.246,51.58H47.67V28.29L33.958,25.078,20.246,28.25Z" transform="translate(-20.246 -25.048)" fill="#fff"/>
    <path id="Path_564" data-name="Path 564" d="M139.337,51.4h-.653V24.813h.653Z" transform="translate(-125.299 -24.813)" fill="#4d5f85"/>
    <path id="Path_565" data-name="Path 565" d="M189.07,68.162a1.651,1.651,0,1,0-1.652-1.651A1.651,1.651,0,0,0,189.07,68.162Z" transform="translate(-168.525 -60.334)" fill="#38598a"/>
    <path id="Path_566" data-name="Path 566" d="M160.483,113.431a.805.805,0,1,0,1.61,0v-5.144h.819v5.188a.805.805,0,0,0,1.61,0v-5.193h2.07s-1.733-6.947-1.874-7.508a.263.263,0,0,1,.185-.327.268.268,0,0,1,.321.163s1.226,4.068,1.394,4.517c.033.088.254.3.728.154.511-.154.4-.505.4-.505s-1.459-5.075-1.657-5.737a1.336,1.336,0,0,0-1.219-1.054h-4.722c-.756,0-1.118,1.206-1.118,1.206l-1.468,5.633s-.071.336.471.48c.62.164.747-.177.747-.177s1.014-4.026,1.134-4.478a.263.263,0,0,1,.331-.2.273.273,0,0,1,.191.313l-1.776,7.517h1.827Z" transform="translate(-142.037 -89.714)" fill="#38598a"/>
    <path id="Path_567" data-name="Path 567" d="M68.64,67.926A1.635,1.635,0,1,0,67,66.291,1.634,1.634,0,0,0,68.64,67.926Z" transform="translate(-61.72 -60.153)" fill="#38598a"/>
    <path id="Path_568" data-name="Path 568" d="M52.722,113.374a.805.805,0,1,1-1.61,0v-7.409h-.819v7.365a.805.805,0,0,1-1.61,0V100.554a.25.25,0,0,0-.254-.168.276.276,0,0,0-.255.178v4.775s.025.452-.629.452c-.7,0-.7-.5-.7-.5V99.053S46.831,97.8,48.352,97.8h4.971s1.278.1,1.278,1.257v6.233s-.042.351-.639.351c-.672,0-.713-.351-.713-.351v-4.715a.251.251,0,0,0-.27-.187.284.284,0,0,0-.256.214v12.774Z" transform="translate(-43.835 -89.55)" fill="#38598a"/>
  </g>
</svg>
