<svg id="toilets" xmlns="http://www.w3.org/2000/svg" width="48.001" height="48" viewBox="0 0 48.001 48">
  <g id="Background">
    <path id="Path_562" data-name="Path 562" d="M48,3.136A3.134,3.134,0,0,0,44.867,0H3.136A3.136,3.136,0,0,0,0,3.136V44.861A3.139,3.139,0,0,0,3.136,48H44.867A3.136,3.136,0,0,0,48,44.861V3.136Z" fill="#38598a"/>
  </g>
  <g id="Toilets-2" data-name="Toilets" transform="translate(3.432 4.207)">
    <path id="Path_563" data-name="Path 563" d="M20.246,64.832H61.385V29.9l-20.57-4.818L20.246,29.835Z" transform="translate(-20.246 -25.033)" fill="#fff"/>
    <path id="Path_564" data-name="Path 564" d="M139.664,64.692h-.98V24.813h.98Z" transform="translate(-118.605 -24.813)" fill="#4d5f85"/>
    <path id="Path_565" data-name="Path 565" d="M189.9,69.813a2.477,2.477,0,1,0-2.478-2.477A2.476,2.476,0,0,0,189.9,69.813Z" transform="translate(-159.078 -58.071)" fill="#38598a"/>
    <path id="Path_566" data-name="Path 566" d="M161.948,121.156a1.208,1.208,0,1,0,2.416,0v-7.716h1.229v7.782a1.208,1.208,0,0,0,2.416,0v-7.79h3.1s-2.6-10.421-2.812-11.263a.4.4,0,0,1,.277-.49.4.4,0,0,1,.482.244s1.838,6.1,2.091,6.776c.049.132.381.445,1.093.23.767-.23.593-.758.593-.758s-2.189-7.613-2.486-8.606a2,2,0,0,0-1.829-1.581h-7.083c-1.134,0-1.677,1.809-1.677,1.809l-2.2,8.45s-.106.5.707.72c.93.246,1.12-.265,1.12-.265s1.521-6.039,1.7-6.718a.394.394,0,0,1,.5-.3.409.409,0,0,1,.286.469l-2.663,11.276h2.74Z" transform="translate(-134.277 -85.579)" fill="#38598a"/>
    <path id="Path_567" data-name="Path 567" d="M69.458,69.562A2.453,2.453,0,1,0,67,67.109,2.45,2.45,0,0,0,69.458,69.562Z" transform="translate(-59.077 -57.901)" fill="#38598a"/>
    <path id="Path_568" data-name="Path 568" d="M55.663,121.164a1.208,1.208,0,1,1-2.416,0V110.049H52.019V121.1a1.208,1.208,0,0,1-2.416,0V101.933a.376.376,0,0,0-.381-.252.414.414,0,0,0-.383.268v7.163s.037.678-.944.678c-1.057,0-1.054-.755-1.054-.755V99.681S46.827,97.8,49.107,97.8h7.457s1.918.154,1.918,1.886v9.351s-.064.527-.959.527c-1.008,0-1.07-.527-1.07-.527v-7.073a.376.376,0,0,0-.405-.281.426.426,0,0,0-.384.321v19.162Z" transform="translate(-42.332 -85.425)" fill="#38598a"/>
  </g>
</svg>
