<svg id="vehicle-accessible-camping" xmlns="http://www.w3.org/2000/svg" width="48" height="48" viewBox="0 0 48 48">
  <g id="Background">
    <path id="Path_574" data-name="Path 574" d="M48,3.136A3.134,3.134,0,0,0,44.866,0H3.136A3.136,3.136,0,0,0,0,3.136V44.861A3.139,3.139,0,0,0,3.136,48h41.73A3.136,3.136,0,0,0,48,44.861V3.136Z" fill="#38598a"/>
  </g>
  <g id="Vehicle-Accessible_Camping" transform="translate(1.858 1.823)">
    <path id="Path_575" data-name="Path 575" d="M52.286,9.865H13.007a2.949,2.949,0,0,0-2.951,2.946V51.99A2.936,2.936,0,0,0,10.95,54.1L54.343,10.7A2.939,2.939,0,0,0,52.286,9.865Z" transform="translate(-10.056 -9.865)" fill="#fff"/>
    <path id="Path_576" data-name="Path 576" d="M28.33,44.84l-5.323.009V32.464S22.919,28.2,28.242,28.2h18.1L42.968,44.8h2.484v1.418H42.169V44.884H35.054s-.1,3.43-3.409,3.43A3.335,3.335,0,0,1,28.33,44.84Z" transform="translate(-20.615 -24.815)" fill="#38598a"/>
    <rect id="Rectangle_743" data-name="Rectangle 743" width="7.637" height="3.404" transform="translate(7.053 7.167)" fill="#fff"/>
    <path id="Path_577" data-name="Path 577" d="M100.906,161.845h29.422v-2.717h-4.173l-10.5-18.222-10.539,18.219h-4.208Z" transform="translate(-88.434 -120.998)" fill="#fff"/>
    <path id="Path_578" data-name="Path 578" d="M160.184,191.781l-4.621,8.82h9.172Z" transform="translate(-131.62 -162.473)" fill="#38598a"/>
  </g>
</svg>
