<svg id="vehicle-accessible-camping" xmlns="http://www.w3.org/2000/svg" width="32" height="32" viewBox="0 0 32 32">
  <g id="Background">
    <path id="Path_574" data-name="Path 574" d="M32,2.091A2.09,2.09,0,0,0,29.911,0H2.091A2.091,2.091,0,0,0,0,2.091V29.907A2.092,2.092,0,0,0,2.091,32h27.82A2.091,2.091,0,0,0,32,29.907V2.091Z" fill="#38598a"/>
  </g>
  <g id="Vehicle-Accessible_Camping" transform="translate(1.239 1.215)">
    <path id="Path_575" data-name="Path 575" d="M38.209,9.865H12.023a1.966,1.966,0,0,0-1.967,1.964V37.948a1.957,1.957,0,0,0,.6,1.407L39.581,10.423A1.96,1.96,0,0,0,38.209,9.865Z" transform="translate(-10.056 -9.865)" fill="#fff"/>
    <path id="Path_576" data-name="Path 576" d="M26.556,39.295l-3.549.006V31.044S22.948,28.2,26.5,28.2H38.563L36.314,39.266H37.97v.945H35.782v-.887H31.038a2.291,2.291,0,0,1-2.273,2.286A2.224,2.224,0,0,1,26.556,39.295Z" transform="translate(-21.412 -25.944)" fill="#38598a"/>
    <rect id="Rectangle_743" data-name="Rectangle 743" width="5.091" height="2.269" transform="translate(4.702 4.778)" fill="#fff"/>
    <path id="Path_577" data-name="Path 577" d="M100.906,154.865h19.615v-1.811h-2.782l-7-12.148-7.026,12.146h-2.805Z" transform="translate(-92.592 -127.634)" fill="#fff"/>
    <path id="Path_578" data-name="Path 578" d="M158.643,191.781l-3.08,5.88h6.114Z" transform="translate(-139.601 -172.242)" fill="#38598a"/>
  </g>
</svg>
