<svg id="vehicle-accessible-camping" xmlns="http://www.w3.org/2000/svg" width="64" height="64" viewBox="0 0 64 64">
  <g id="Background">
    <path id="Path_574" data-name="Path 574" d="M64,4.181A4.179,4.179,0,0,0,59.822,0H4.182A4.182,4.182,0,0,0,0,4.181V59.815A4.185,4.185,0,0,0,4.182,64h55.64A4.182,4.182,0,0,0,64,59.815V4.181Z" fill="#38598a"/>
  </g>
  <g id="Vehicle-Accessible_Camping" transform="translate(2.477 2.43)">
    <path id="Path_575" data-name="Path 575" d="M66.363,9.865H13.99a3.932,3.932,0,0,0-3.934,3.928V66.031a3.914,3.914,0,0,0,1.192,2.814L69.105,10.981A3.919,3.919,0,0,0,66.363,9.865Z" transform="translate(-10.056 -9.865)" fill="#fff"/>
    <path id="Path_576" data-name="Path 576" d="M30.1,50.386l-7.1.012V33.885S22.889,28.2,29.986,28.2H54.119l-4.5,22.125h3.312v1.89H48.557V50.444H39.069s-.129,4.573-4.546,4.573A4.447,4.447,0,0,1,30.1,50.386Z" transform="translate(-19.817 -23.685)" fill="#38598a"/>
    <rect id="Rectangle_743" data-name="Rectangle 743" width="10.182" height="4.538" transform="translate(9.404 9.556)" fill="#fff"/>
    <path id="Path_577" data-name="Path 577" d="M100.906,168.824h39.23V165.2h-5.564l-14-24.3L106.516,165.2h-5.61Z" transform="translate(-84.277 -114.362)" fill="#fff"/>
    <path id="Path_578" data-name="Path 578" d="M161.724,191.781l-6.161,11.76h12.229Z" transform="translate(-123.639 -152.704)" fill="#38598a"/>
  </g>
</svg>
