<svg id="vehicle-accessible-camping" xmlns="http://www.w3.org/2000/svg" width="16" height="16" viewBox="0 0 16 16">
  <g id="Background">
    <path id="Path_574" data-name="Path 574" d="M16,1.045A1.045,1.045,0,0,0,14.955,0H1.045A1.045,1.045,0,0,0,0,1.045V14.954A1.046,1.046,0,0,0,1.045,16h13.91A1.045,1.045,0,0,0,16,14.954V1.045Z" fill="#38598a"/>
  </g>
  <g id="Vehicle-Accessible_Camping" transform="translate(0.619 0.608)">
    <path id="Path_575" data-name="Path 575" d="M24.133,9.865H11.04a.983.983,0,0,0-.984.982v13.06a.979.979,0,0,0,.3.7L24.818,10.144A.98.98,0,0,0,24.133,9.865Z" transform="translate(-10.056 -9.865)" fill="#fff"/>
    <path id="Path_576" data-name="Path 576" d="M24.782,33.749l-1.774,0V29.623s-.03-1.42,1.745-1.42h6.033l-1.124,5.531h.828v.472H29.395v-.444H27.023a1.146,1.146,0,0,1-1.136,1.143A1.112,1.112,0,0,1,24.782,33.749Z" transform="translate(-22.21 -27.074)" fill="#38598a"/>
    <rect id="Rectangle_743" data-name="Rectangle 743" width="2.546" height="1.135" transform="translate(2.351 2.389)" fill="#fff"/>
    <path id="Path_577" data-name="Path 577" d="M100.906,147.886h9.807v-.906h-1.391l-3.5-6.074-3.513,6.073h-1.4Z" transform="translate(-96.749 -134.27)" fill="#fff"/>
    <path id="Path_578" data-name="Path 578" d="M157.1,191.781l-1.54,2.94h3.057Z" transform="translate(-147.582 -182.012)" fill="#38598a"/>
  </g>
</svg>
