<svg id="winter-camping" xmlns="http://www.w3.org/2000/svg" width="48" height="48" viewBox="0 0 48 48">
  <g id="Background" transform="translate(0 0)">
    <path id="Path_588" data-name="Path 588" d="M48,3.137A3.136,3.136,0,0,0,44.866,0H3.135A3.137,3.137,0,0,0,0,3.137V44.861A3.138,3.138,0,0,0,3.135,48H44.866A3.137,3.137,0,0,0,48,44.861V3.137Z" transform="translate(0 0)" fill="#38598a"/>
  </g>
  <g id="Winter_Camping" transform="translate(2.915 2.494)">
    <path id="Path_589" data-name="Path 589" d="M59.266,15.469A2.981,2.981,0,0,0,57.2,14.64H20.116a3.008,3.008,0,0,0-3.007,3.011v37.2a2.99,2.99,0,0,0,.821,2.066c.008.007.016.019.024.025L59.282,15.482C59.275,15.478,59.27,15.469,59.266,15.469Zm-25.7,39.378H31.734v1.429H58.223V54.847h-2.04L44.977,36.964Zm6.925,0,4.481-6.743,4.283,6.743Z" transform="translate(-17.109 -14.64)" fill="#fff" fill-rule="evenodd"/>
    <path id="Path_590" data-name="Path 590" d="M51.708,47.837l-.425.736-.563-.326L51.1,47.6l-.137-.512-.649.174-.3.519-.3-.175.224-.39-.389-.224-.175.3-.3-.175.814-.569L49.088,46l.3-.175.175.3.39-.224-.225-.39.3-.174.3.519.648.174.137-.512-.374-.649.563-.325.425.735.519-.3.1-1.618L50.9,42.644l-.519.3.425.736L50.244,44l-.375-.649-.512-.137-.174.649.3.518-.3.176-.224-.389-.39.224.175.3-.3.175-.075-1.057-.915.426v-.35h.35v-.45h-.45v-.349h.6l.474-.475-.374-.375H47.3V41.6h.849V41L46.8,40.1l-1.349.9v.6H46.3v.649h-.75l-.375.375.475.475h.6v.349H45.8v.45h.35v.35l-.919-.434-.078.952-.3-.175.175-.3-.39-.225-.225.389-.3-.175.3-.52-.173-.648-.513.137-.375.649-.563-.325.425-.735-.519-.3-1.453.718.1,1.619.519.3.424-.735.563.325-.374.649.137.512.648-.174.3-.518.3.174-.225.389.389.225.175-.3.3.175-.823.584.8.583-.3.174-.175-.3-.389.225.225.39-.3.175-.3-.519-.649-.173-.137.511.375.649-.563.325-.425-.735-.519.3-.1,1.618,1.454.718.519-.3-.424-.735.562-.325.375.648.512.137.174-.649-.3-.519.3-.174.225.388.39-.224-.175-.3.3-.175.081.987.849-.4v.349H45.7v.45h.45v.35h-.6l-.474.474.375.376H46.2v.649h-.85v.6l1.35.9,1.349-.9v-.6H47.2v-.649h.75l.375-.375-.475-.475h-.6v-.35h.45v-.45h-.35v-.349l.964.44.1-.962.3.174-.174.3.389.224.225-.39.3.175-.3.519.174.649.512-.137.374-.649.563.324-.424.736.519.3,1.454-.718-.1-1.618Zm-2.555-1.288-.671.58-.977-.564,1-.576ZM50.6,44.377s-2.5,1.874-2.683,1.549S50.6,44.377,50.6,44.377ZM46.822,42.17s.375,3.1,0,3.1S46.822,42.17,46.822,42.17ZM45.59,44.445l.857.3v1.115l-1.015-.586Zm-2.508-.126s2.871,1.224,2.683,1.549S43.082,44.319,43.082,44.319Zm-.075,4.347s2.5-1.874,2.683-1.549S43.007,48.666,43.007,48.666Zm3.347-.4-.78.271-.166-.868.947-.547Zm.344,2.648s-.375-3.1,0-3.1S46.7,50.914,46.7,50.914Zm1.273-2.33-.916-.318V47.142a.662.662,0,0,1-.321.083.693.693,0,0,1-.683-.7c0-.011,0-.021,0-.031l-.994.574-.674-.583.7-.6.972.561a.689.689,0,0,1,.678-.62.667.667,0,0,1,.415.145v-1.22l.831-.289.178.928-1.007.581a.714.714,0,0,1-.068,1.163l1.053.608Zm-.045-1.4c.187-.325,2.683,1.548,2.683,1.548S47.737,47.506,47.925,47.182Z" transform="translate(-37.102 -35.759)" fill="#38598a"/>
  </g>
</svg>
