<svg id="winter-camping" xmlns="http://www.w3.org/2000/svg" width="64" height="63.841" viewBox="0 0 64 63.841">
  <g id="Background" transform="translate(0 0)">
    <path id="Path_588" data-name="Path 588" d="M64,4.173A4.176,4.176,0,0,0,59.822,0H4.18A4.177,4.177,0,0,0,0,4.173V59.666a4.179,4.179,0,0,0,4.18,4.176H59.822A4.177,4.177,0,0,0,64,59.666V4.173Z" transform="translate(0 0)" fill="#38598a"/>
  </g>
  <g id="Winter_Camping" transform="translate(3.877 3.317)">
    <path id="Path_589" data-name="Path 589" d="M73.337,15.742a3.982,3.982,0,0,0-2.754-1.1H21.12a4.006,4.006,0,0,0-4.011,4V68.116A3.971,3.971,0,0,0,18.2,70.864c.011.009.021.025.032.033L73.359,15.76C73.35,15.754,73.343,15.742,73.337,15.742ZM39.062,68.116H36.616v1.9H71.946v-1.9h-2.72L54.279,44.331Zm9.236,0,5.977-8.968,5.712,8.968Z" transform="translate(-17.109 -14.64)" fill="#fff" fill-rule="evenodd"/>
    <path id="Path_590" data-name="Path 590" d="M55.174,50.392l-.565.978-.748-.433.5-.862-.183-.681-.863.232-.4.69-.4-.233.3-.518-.517-.3-.233.4-.4-.233,1.082-.757-1.053-.733.4-.233.232.4.519-.3-.3-.518.4-.232.4.69.862.232.182-.681-.5-.864.748-.432.565.978.69-.4.14-2.152L54.1,43.485l-.691.4.565.979-.748.432-.5-.864-.681-.183-.231.863.4.69-.4.234-.3-.518-.519.3.233.4-.4.233-.1-1.406-1.218.567v-.465h.465v-.6h-.6v-.465h.8l.631-.632-.5-.5h-1V42.09h1.129v-.8l-1.794-1.2-1.794,1.2v.8h1.13v.864h-1l-.5.5.632.632h.8v.465h-.6v.6h.465v.465l-1.223-.577-.1,1.267-.4-.232.233-.4-.518-.3-.3.518-.4-.232.4-.691-.231-.862-.682.183-.5.864-.748-.432.565-.978-.691-.4-1.932.955.139,2.153.691.4.564-.978.748.432-.5.864.182.681.862-.232.4-.69.4.232-.3.518.518.3.232-.4.4.233-1.094.777,1.06.775-.4.232-.233-.4-.518.3.3.518-.4.232-.4-.691-.863-.231-.183.68.5.863-.748.433-.565-.978-.691.4-.139,2.151,1.934.955.69-.4-.564-.978L44.015,52l.5.862.681.183.232-.863-.4-.691.4-.232.3.517.518-.3-.233-.4.4-.233.107,1.312,1.13-.531v.465h-.465v.6h.6v.466h-.8l-.631.631.5.5h1v.863h-1.13v.8l1.795,1.2,1.794-1.2v-.8h-1.13v-.863h1l.5-.5-.632-.632h-.8v-.466h.6v-.6h-.466v-.465l1.282.586.131-1.28.4.232-.232.4.517.3.3-.518.4.233-.4.69.232.864.681-.183.5-.863.748.431-.564.978.69.4L56,52.943l-.139-2.152Zm-3.4-1.713-.893.771-1.3-.75,1.329-.766Zm1.919-2.888s-3.319,2.492-3.569,2.061S53.695,45.79,53.695,45.79Zm-5.02-2.936s.5,4.121,0,4.121S48.675,42.854,48.675,42.854ZM47.037,45.88l1.14.4v1.483l-1.35-.78ZM43.7,45.713s3.818,1.628,3.568,2.06S43.7,45.713,43.7,45.713Zm-.1,5.781S46.921,49,47.17,49.433,43.6,51.494,43.6,51.494Zm4.451-.531-1.038.361-.221-1.154,1.259-.728Zm.457,3.522s-.5-4.121,0-4.121S48.509,54.485,48.509,54.485Zm1.692-3.1-1.219-.423v-1.5a.881.881,0,0,1-.427.11.922.922,0,0,1-.908-.936c0-.014,0-.028,0-.042l-1.322.763-.9-.775.93-.8,1.293.746a.917.917,0,0,1,.9-.825.887.887,0,0,1,.551.193V46.276l1.1-.384.236,1.235-1.34.773a.95.95,0,0,1-.091,1.547l1.4.809Zm-.06-1.865c.249-.433,3.568,2.059,3.568,2.059S49.892,49.952,50.142,49.521Z" transform="translate(-35.747 -34.328)" fill="#38598a"/>
  </g>
</svg>
