<svg id="winter-camping" xmlns="http://www.w3.org/2000/svg" width="31.998" height="31.998" viewBox="0 0 31.998 31.998">
  <g id="Background" transform="translate(0 0)">
    <path id="Path_588" data-name="Path 588" d="M32,2.091A2.09,2.09,0,0,0,29.909,0H2.09A2.091,2.091,0,0,0,0,2.091V29.905A2.092,2.092,0,0,0,2.09,32H29.909A2.091,2.091,0,0,0,32,29.905V2.091Z" transform="translate(0 0)" fill="#38598a"/>
  </g>
  <g id="Winter_Camping" transform="translate(1.943 1.663)">
    <path id="Path_589" data-name="Path 589" d="M45.212,15.193a1.987,1.987,0,0,0-1.376-.553H19.114a2.005,2.005,0,0,0-2,2.007v24.8a1.993,1.993,0,0,0,.547,1.377c.005,0,.011.012.016.017L45.222,15.2S45.215,15.193,45.212,15.193ZM28.081,41.443H26.858V42.4H44.517v-.952h-1.36l-7.47-11.921Zm4.616,0,2.987-4.495,2.855,4.495Z" transform="translate(-17.109 -14.64)" fill="#fff" fill-rule="evenodd"/>
    <path id="Path_590" data-name="Path 590" d="M48.208,45.256l-.283.49-.375-.217.25-.432-.092-.341-.432.116-.2.346-.2-.117.149-.26-.259-.149-.117.2-.2-.117.543-.379-.528-.367.2-.117.116.2.26-.149-.15-.26.2-.116.2.346.432.116.091-.341-.25-.433.375-.216.283.49.346-.2.07-1.079-.969-.479-.346.2.283.491-.375.216-.25-.433-.341-.092-.116.432.2.346-.2.117-.15-.26-.26.149.117.2-.2.117-.05-.7-.61.284v-.233H45.6v-.3h-.3v-.233h.4l.316-.317-.25-.25h-.5V41.1h.566v-.4l-.9-.6-.9.6v.4H44.6v.433h-.5l-.25.25.317.317h.4v.233h-.3v.3H44.5v.233l-.613-.289-.052.635-.2-.117.117-.2-.26-.15-.15.26-.2-.117.2-.346-.116-.432-.342.092-.25.433-.375-.216.283-.49-.346-.2-.969.479.07,1.079.346.2.283-.49.375.216-.249.433.091.341.432-.116.2-.346.2.116-.15.26.26.15.116-.2.2.117-.548.39.532.388-.2.116-.117-.2-.26.15.15.26-.2.117-.2-.346-.432-.116-.092.341.25.433-.375.217-.283-.49-.346.2-.07,1.078.969.479.346-.2-.283-.49.375-.216.25.432.341.092.116-.432-.2-.346.2-.116.15.259.26-.149-.117-.2.2-.117.054.658.566-.266v.233h-.233v.3h.3v.233h-.4l-.316.316.25.25h.5v.433h-.567v.4l.9.6.9-.6v-.4H45.2v-.433h.5l.25-.25-.317-.317h-.4v-.233h.3v-.3H45.3v-.233l.642.294.066-.641.2.116-.116.2.259.15.15-.26.2.117-.2.346.116.433.341-.092.25-.433.375.216-.283.49.346.2.969-.479-.07-1.079ZM46.5,44.4l-.447.386-.651-.376.666-.384Zm.962-1.448S45.8,44.2,45.678,43.983,47.467,42.95,47.467,42.95Zm-2.516-1.472s.25,2.065,0,2.065S44.951,41.478,44.951,41.478ZM44.129,43l.571.2v.743l-.677-.391Zm-1.672-.084s1.914.816,1.788,1.032S42.458,42.911,42.458,42.911Zm-.05,2.9s1.664-1.249,1.789-1.033S42.407,45.809,42.407,45.809Zm2.231-.266-.52.181-.111-.579.631-.365Zm.229,1.765s-.25-2.066,0-2.066S44.868,47.308,44.868,47.308Zm.848-1.553-.611-.212v-.749a.442.442,0,0,1-.214.055.462.462,0,0,1-.455-.469c0-.007,0-.014,0-.021l-.662.382-.449-.388.466-.4.648.374a.459.459,0,0,1,.452-.414.445.445,0,0,1,.276.1v-.813L45.721,43l.118.619-.671.387a.476.476,0,0,1-.046.775l.7.405Zm-.03-.935c.125-.217,1.788,1.032,1.788,1.032S45.561,45.036,45.686,44.82Z" transform="translate(-38.471 -37.205)" fill="#38598a"/>
  </g>
</svg>
