<svg id="winter-camping" xmlns="http://www.w3.org/2000/svg" width="15.998" height="15.998" viewBox="0 0 15.998 15.998">
  <g id="Background" transform="translate(0 0)">
    <path id="Path_588" data-name="Path 588" d="M16,1.046A1.045,1.045,0,0,0,14.953,0H1.045A1.045,1.045,0,0,0,0,1.046V14.951A1.046,1.046,0,0,0,1.045,16H14.953A1.045,1.045,0,0,0,16,14.951V1.046Z" transform="translate(0 0)" fill="#38598a"/>
  </g>
  <g id="Winter_Camping" transform="translate(0.971 0.831)">
    <path id="Path_589" data-name="Path 589" d="M31.159,14.916a.994.994,0,0,0-.688-.276H18.111a1,1,0,0,0-1,1v12.4a1,1,0,0,0,.274.689l.008.008L31.164,14.921S31.16,14.916,31.159,14.916ZM22.595,28.04h-.611v.476h8.828V28.04h-.68L26.4,22.08Zm2.308,0L26.4,25.794l1.427,2.247Z" transform="translate(-17.109 -14.64)" fill="#fff" fill-rule="evenodd"/>
    <path id="Path_590" data-name="Path 590" d="M44.708,42.676l-.142.245-.187-.109L44.5,42.6l-.046-.171-.216.058-.1.173-.1-.058.075-.13-.13-.075-.058.1-.1-.058.271-.19-.264-.184.1-.058.058.1.13-.075-.075-.13.1-.058.1.173.216.058.046-.171-.125-.216.188-.108.142.245.173-.1.035-.539-.485-.239-.173.1.142.245-.187.108-.125-.216-.171-.046-.058.216.1.173-.1.059-.075-.13-.13.075.058.1-.1.058-.025-.352-.305.142v-.117H43.4v-.15h-.15V41.1h.2l.158-.158-.125-.125h-.25V40.6h.283v-.2l-.45-.3-.45.3v.2H42.9v.216h-.25l-.125.125.158.158h.2v.116h-.15v.15h.117v.117l-.306-.145-.026.317-.1-.058.058-.1-.13-.075-.075.13-.1-.058.1-.173-.058-.216-.171.046-.125.216-.188-.108.142-.245-.173-.1-.484.239.035.54.173.1.141-.245.188.108-.125.216.046.171.216-.058.1-.173.1.058-.075.13.13.075.058-.1.1.058-.274.195.266.194-.1.058-.058-.1-.13.075.075.13-.1.058-.1-.173-.216-.058-.046.17.125.216-.187.108-.142-.245-.173.1-.035.539.485.239.173-.1-.141-.245.187-.108.125.216.171.046.058-.216-.1-.173.1-.058.075.129.13-.075-.058-.1.1-.058.027.329.283-.133V43.1h-.117v.15h.15v.117h-.2l-.158.158.125.125h.25v.216H42.59v.2l.45.3.45-.3v-.2h-.283v-.216h.25l.125-.125-.158-.158h-.2v-.117h.15V43.1h-.117v-.116l.321.147.033-.321.1.058-.058.1.13.075.075-.13.1.058-.1.173.058.216.171-.046.125-.216.187.108-.141.245.173.1.485-.239-.035-.539Zm-.851-.429-.224.193-.325-.188.333-.192Zm.481-.724s-.832.624-.894.516S44.337,41.523,44.337,41.523Zm-1.258-.736s.125,1.033,0,1.033S43.079,40.787,43.079,40.787Zm-.41.758.286.1v.372l-.338-.2Zm-.836-.042s.957.408.894.516S41.833,41.5,41.833,41.5Zm-.025,1.449s.832-.625.894-.516S41.808,42.952,41.808,42.952Zm1.115-.133-.26.09-.055-.289.316-.182Zm.115.883s-.125-1.033,0-1.033S43.038,43.7,43.038,43.7Zm.424-.776-.305-.106v-.375a.221.221,0,0,1-.107.028.231.231,0,0,1-.228-.235s0-.007,0-.01l-.331.191-.225-.194.233-.2.324.187A.23.23,0,0,1,43.049,42a.222.222,0,0,1,.138.048v-.407l.277-.1.059.309-.336.194a.238.238,0,0,1-.023.388l.351.2Zm-.015-.467c.062-.108.894.516.894.516S43.384,42.566,43.447,42.458Z" transform="translate(-39.84 -38.651)" fill="#38598a"/>
  </g>
</svg>
